<svg viewBox="0 0 1498 400" xmlns="http://www.w3.org/2000/svg"><g><g><g><g><g><line x1="51.5625" y1="378" x2="46.5625" y2="378" style="visibility: inherit;" fill="rgb(0, 0, 0)" stroke="rgb(204, 204, 204)" stroke-width="1px"></line><line x1="51.5625" y1="340.2" x2="46.5625" y2="340.2" style="visibility: inherit;" fill="rgb(0, 0, 0)" stroke="rgb(204, 204, 204)" stroke-width="1px"></line><line x1="51.5625" y1="302.40000000000003" x2="46.5625" y2="302.40000000000003" style="visibility: inherit;" fill="rgb(0, 0, 0)" stroke="rgb(204, 204, 204)" stroke-width="1px"></line><line x1="51.5625" y1="264.59999999999997" x2="46.5625" y2="264.59999999999997" style="visibility: inherit;" fill="rgb(0, 0, 0)" stroke="rgb(204, 204, 204)" stroke-width="1px"></line><line x1="51.5625" y1="226.79999999999998" x2="46.5625" y2="226.79999999999998" style="visibility: inherit;" fill="rgb(0, 0, 0)" stroke="rgb(204, 204, 204)" stroke-width="1px"></line><line x1="51.5625" y1="189" x2="46.5625" y2="189" style="visibility: inherit;" fill="rgb(0, 0, 0)" stroke="rgb(204, 204, 204)" stroke-width="1px"></line><line x1="51.5625" y1="151.20000000000002" x2="46.5625" y2="151.20000000000002" style="visibility: inherit;" fill="rgb(0, 0, 0)" stroke="rgb(204, 204, 204)" stroke-width="1px"></line><line x1="51.5625" y1="113.40000000000002" x2="46.5625" y2="113.40000000000002" style="visibility: inherit;" fill="rgb(0, 0, 0)" stroke="rgb(204, 204, 204)" stroke-width="1px"></line><line x1="51.5625" y1="75.60000000000002" x2="46.5625" y2="75.60000000000002" style="visibility: inherit;" fill="rgb(0, 0, 0)" stroke="rgb(204, 204, 204)" stroke-width="1px"></line><line x1="51.5625" y1="37.79999999999999" x2="46.5625" y2="37.79999999999999" style="visibility: inherit;" fill="rgb(0, 0, 0)" stroke="rgb(204, 204, 204)" stroke-width="1px"></line><line x1="51.5625" y1="0" x2="46.5625" y2="0" style="visibility: inherit;" fill="rgb(0, 0, 0)" stroke="rgb(204, 204, 204)" stroke-width="1px"></line></g><g transform="translate(41.5625, 0)"><text x="0" y="378" dx="0em" dy="0.3em" style="text-anchor: end; visibility: hidden; font-family: Roboto, sans-serif; font-size: 12px; font-weight: 200;" fill="rgb(50, 49, 63)" stroke="none" stroke-width="1px">-0.1</text><text x="0" y="340.2" dx="0em" dy="0.3em" style="text-anchor: end; visibility: inherit; font-family: Roboto, sans-serif; font-size: 12px; font-weight: 200;" fill="rgb(50, 49, 63)" stroke="none" stroke-width="1px">0</text><text x="0" y="302.40000000000003" dx="0em" dy="0.3em" style="text-anchor: end; visibility: inherit; font-family: Roboto, sans-serif; font-size: 12px; font-weight: 200;" fill="rgb(50, 49, 63)" stroke="none" stroke-width="1px">0.1</text><text x="0" y="264.59999999999997" dx="0em" dy="0.3em" style="text-anchor: end; visibility: inherit; font-family: Roboto, sans-serif; font-size: 12px; font-weight: 200;" fill="rgb(50, 49, 63)" stroke="none" stroke-width="1px">0.2</text><text x="0" y="226.79999999999998" dx="0em" dy="0.3em" style="text-anchor: end; visibility: inherit; font-family: Roboto, sans-serif; font-size: 12px; font-weight: 200;" fill="rgb(50, 49, 63)" stroke="none" stroke-width="1px">0.3</text><text x="0" y="189" dx="0em" dy="0.3em" style="text-anchor: end; visibility: inherit; font-family: Roboto, sans-serif; font-size: 12px; font-weight: 200;" fill="rgb(50, 49, 63)" stroke="none" stroke-width="1px">0.4</text><text x="0" y="151.20000000000002" dx="0em" dy="0.3em" style="text-anchor: end; visibility: inherit; font-family: Roboto, sans-serif; font-size: 12px; font-weight: 200;" fill="rgb(50, 49, 63)" stroke="none" stroke-width="1px">0.5</text><text x="0" y="113.40000000000002" dx="0em" dy="0.3em" style="text-anchor: end; visibility: inherit; font-family: Roboto, sans-serif; font-size: 12px; font-weight: 200;" fill="rgb(50, 49, 63)" stroke="none" stroke-width="1px">0.6</text><text x="0" y="75.60000000000002" dx="0em" dy="0.3em" style="text-anchor: end; visibility: inherit; font-family: Roboto, sans-serif; font-size: 12px; font-weight: 200;" fill="rgb(50, 49, 63)" stroke="none" stroke-width="1px">0.7</text><text x="0" y="37.79999999999999" dx="0em" dy="0.3em" style="text-anchor: end; visibility: inherit; font-family: Roboto, sans-serif; font-size: 12px; font-weight: 200;" fill="rgb(50, 49, 63)" stroke="none" stroke-width="1px">0.8</text><text x="0" y="0" dx="0em" dy="0.3em" style="text-anchor: end; visibility: hidden; font-family: Roboto, sans-serif; font-size: 12px; font-weight: 200;" fill="rgb(50, 49, 63)" stroke="none" stroke-width="1px">0.9</text></g><line x1="51.5625" y1="0" x2="51.5625" y2="378" fill="rgb(0, 0, 0)" stroke="rgb(204, 204, 204)" stroke-width="1px"></line></g></g><g transform="translate(51, 0)" clip-path="url(#clip_0)"><clipPath id="clip_0"><rect width="1446" height="378"></rect></clipPath><g><g><g><line x1="0" y1="0" x2="0" y2="378" fill="rgb(0, 0, 0)" stroke="rgb(60, 60, 60)" stroke-width="1px" opacity="0.25"></line><line x1="144.64375" y1="0" x2="144.64375" y2="378" fill="rgb(0, 0, 0)" stroke="rgb(60, 60, 60)" stroke-width="1px" opacity="0.25"></line><line x1="289.2875" y1="0" x2="289.2875" y2="378" fill="rgb(0, 0, 0)" stroke="rgb(60, 60, 60)" stroke-width="1px" opacity="0.25"></line><line x1="433.93125" y1="0" x2="433.93125" y2="378" fill="rgb(0, 0, 0)" stroke="rgb(60, 60, 60)" stroke-width="1px" opacity="0.25"></line><line x1="578.575" y1="0" x2="578.575" y2="378" fill="rgb(0, 0, 0)" stroke="rgb(60, 60, 60)" stroke-width="1px" opacity="0.25"></line><line x1="723.21875" y1="0" x2="723.21875" y2="378" fill="rgb(0, 0, 0)" stroke="rgb(60, 60, 60)" stroke-width="1px" opacity="0.25"></line><line x1="867.8625" y1="0" x2="867.8625" y2="378" fill="rgb(0, 0, 0)" stroke="rgb(60, 60, 60)" stroke-width="1px" opacity="0.25"></line><line x1="1012.5062499999999" y1="0" x2="1012.5062499999999" y2="378" fill="rgb(0, 0, 0)" stroke="rgb(60, 60, 60)" stroke-width="1px" opacity="0.25"></line><line x1="1157.15" y1="0" x2="1157.15" y2="378" fill="rgb(0, 0, 0)" stroke="rgb(60, 60, 60)" stroke-width="1px" opacity="0.25"></line><line x1="1301.79375" y1="0" x2="1301.79375" y2="378" fill="rgb(0, 0, 0)" stroke="rgb(60, 60, 60)" stroke-width="1px" opacity="0.25"></line><line x1="1446.4375" y1="0" x2="1446.4375" y2="378" fill="rgb(0, 0, 0)" stroke="rgb(60, 60, 60)" stroke-width="1px" opacity="0.25"></line></g><g><line x1="0" y1="378" x2="1446.4375" y2="378" fill="rgb(0, 0, 0)" stroke="rgb(60, 60, 60)" stroke-width="1px" opacity="0.25"></line><line x1="0" y1="340.2" x2="1446.4375" y2="340.2" fill="rgb(0, 0, 0)" stroke="rgb(60, 60, 60)" stroke-width="1px" opacity="0.25"></line><line x1="0" y1="302.40000000000003" x2="1446.4375" y2="302.40000000000003" fill="rgb(0, 0, 0)" stroke="rgb(60, 60, 60)" stroke-width="1px" opacity="0.25"></line><line x1="0" y1="264.59999999999997" x2="1446.4375" y2="264.59999999999997" fill="rgb(0, 0, 0)" stroke="rgb(60, 60, 60)" stroke-width="1px" opacity="0.25"></line><line x1="0" y1="226.79999999999998" x2="1446.4375" y2="226.79999999999998" fill="rgb(0, 0, 0)" stroke="rgb(60, 60, 60)" stroke-width="1px" opacity="0.25"></line><line x1="0" y1="189" x2="1446.4375" y2="189" fill="rgb(0, 0, 0)" stroke="rgb(60, 60, 60)" stroke-width="1px" opacity="0.25"></line><line x1="0" y1="151.20000000000002" x2="1446.4375" y2="151.20000000000002" fill="rgb(0, 0, 0)" stroke="rgb(60, 60, 60)" stroke-width="1px" opacity="0.25"></line><line x1="0" y1="113.40000000000002" x2="1446.4375" y2="113.40000000000002" fill="rgb(0, 0, 0)" stroke="rgb(60, 60, 60)" stroke-width="1px" opacity="0.25"></line><line x1="0" y1="75.60000000000002" x2="1446.4375" y2="75.60000000000002" fill="rgb(0, 0, 0)" stroke="rgb(60, 60, 60)" stroke-width="1px" opacity="0.25"></line><line x1="0" y1="37.79999999999999" x2="1446.4375" y2="37.79999999999999" fill="rgb(0, 0, 0)" stroke="rgb(60, 60, 60)" stroke-width="1px" opacity="0.25"></line><line x1="0" y1="0" x2="1446.4375" y2="0" fill="rgb(0, 0, 0)" stroke="rgb(60, 60, 60)" stroke-width="1px" opacity="0.25"></line></g></g></g><g><g><line x1="0" y1="340.2" x2="1446.4375" y2="340.2" fill="rgb(0, 0, 0)" stroke="rgb(153, 153, 153)" stroke-width="1.5px"></line></g></g><g><g><line x1="144.64375" y1="0" x2="144.64375" y2="378" fill="rgb(0, 0, 0)" stroke="rgb(153, 153, 153)" stroke-width="1.5px"></line></g></g><g><g><g><g><g><path stroke="rgb(187, 187, 187)" stroke-width="2px" d="M144.64375,78.27327747344971L145.03163632291668,78.2864791612368L145.21758389930557,79.11530630539879L145.6374525625,79.64670854598488L145.69804222222223,84.28266517207905L145.76385512847224,82.869564279413L145.78161416666666,82.82644111684138L145.844293125,82.94389399392576L146.01593704166666,83.07949183959737L146.07114273958334,84.12123032782864L146.25234921527777,85.60681221181343L146.4040644375,85.58818834520541L146.47084163541666,89.83361034374448L146.49639536458332,95.22249713432332L146.62062827430557,92.73018485970131L146.81485268749998,90.41368145450578L146.96608576388888,94.3627869760846L147.19984613541666,93.28666145814957L147.28092699305554,96.46821448957085L147.31403434027777,95.18780936148231L147.49146400694443,92.93588427894785L147.65450965625,91.76048142009307L147.97168125694444,90.45940907829755L148.1033874270833,88.60284471583773L148.40488928819445,89.23936154626378L148.63431034722223,91.17263085279252L148.76987368402777,90.60657684716358L148.89458873958336,89.68349779096889L149.2461534097222,90.7837396723681L149.2659213888889,89.10215932665342L149.51559257291666,90.29763097725306L149.63918262152777,88.4724517835464L149.7069241111111,87.23104207302812L149.7244420763889,85.87006004423611L149.82858557638886,84.81093932507518L150.09320328124997,89.09830677234471L150.32318684375,97.23013566321453L150.3485798576389,97.98140968480729L150.36127636458335,97.20190969464436L150.49386646875,94.66586037704946L150.7814664583333,93.22607950060667L150.97561051388888,99.5772057293378L151.0884326388889,97.17022507390203L151.1600312951389,94.55124723517991L151.43887230208333,97.72396836549237L151.57604279166668,102.18823130997816L151.71088290972222,102.21695686728384L151.78264228125,98.62436687197649L151.85207128125,100.02308116261602L151.92816996527776,99.1012705957809L151.97461668055556,97.64684876757026L152.44832496180555,96.42887774546618L152.6395761423611,94.54003958154165L152.67220134374998,93.17845301214514L152.84625598958334,95.93571729702272L152.95289057638888,95.76762267495695L152.9881675798611,97.9733479810788L153.27078539583331,104.02657748105736L153.31490173958332,109.50791115410449L153.51692084375,113.84448250523658L153.53692989583334,111.52825697258552L153.66236817013888,108.49338969862296L153.90496788194443,104.22066766567626L154.1482104548611,102.85905514047148L154.65333857291665,106.09246273259369L154.80746452430557,109.34543239840517L155.01430508680556,109.8377631207225L155.14970770833332,112.42566108016605L155.18884187847223,116.89229637651377L155.57889785763888,115.62016243337779L155.66504124652778,110.12648981281332L156.50638572569443,107.97966480474743L157.11662163541666,114.14563190928212L157.16949696180555,120.05013174249831L157.26415826041668,121.47035826980553L157.41257881944443,124.23888252057137L157.86362624652776,127.0223946690715L157.96801081944443,127.60818620027781L157.9958145625,137.34483415053867L158.19060147916667,135.0321463337233L158.5534965763889,126.88102429052185L158.94644543055557,132.5149866228892L159.07975875347222,131.50877443074228L159.11069644444444,134.04560316585102L159.45575214583334,132.1365038600509L159.9433622986111,128.93101173858102L160.01664846527777,132.00783243234827L160.0908989236111,124.13104419452647L160.6609560138889,128.18211948584695L160.84409107291665,121.16700537469093L160.90741289236112,128.570727399027L161.0121188958333,127.258361985367L161.27987054861114,125.21180306793752L161.57373843402777,131.4777617132767L161.6221940902778,136.06186214290184L161.75253418055556,140.025061933764L161.9719105347222,146.49688503747402L162.20615305208335,146.76008989664248L162.6623433680556,155.4715117627551L162.74149564236112,144.56066618286422L162.9100056111111,152.89649809506346L163.2172128645833,156.959478553831L163.3738299027778,163.3602250130315L163.58324190972223,163.59103202707888L163.61450103125,168.58841651190988L163.6268761076389,155.03784673572488L163.7005640625,147.57493010759026L163.76485017361114,157.78017107970396L163.87992231249999,146.1932036432193L164.1200309375,158.58753010197304L164.16800444791664,148.1066971373058L164.75284734374998,149.52915594328846L165.12112640277778,142.32974780958983L165.2650469340278,132.88785683804014L165.59282574305556,137.54891153777265L165.88805970833334,150.36475546929586L166.00007825694445,167.25032043428845L166.53461727083334,164.43290662492268L166.93664653819445,157.54710497142196L167.00615589583336,161.1921817139109L167.11496013888888,162.00852283097353L167.19708564583334,177.13483061024075L167.2538984965278,169.6486583381406L167.29480053472224,167.68832973918907L167.42899779166666,159.23781057436878L168.2574850486111,158.17890753296385L168.50241513194442,169.8669042121778L168.6884430659722,182.6988830187955L168.8571941076389,178.78304846815544L169.06716861805555,168.84288373971498L169.29345572916668,175.33378001578217L169.36071507291666,187.1589370285721L169.54746622569442,171.22492961885646L169.88336115625,161.15131807931712L169.93157573958334,148.96913338337325L170.41227513541668,167.65886695973597L170.6443479965278,169.8346169138999L170.8786708715278,182.6010074436335L171.0543326701389,192.58914679142467L171.49935327430555,195.67155696844574L171.72628324652777,183.0614692762434L171.88932889583333,195.8586423859924L171.97241869444446,198.92972302998456L172.03027619444444,191.9034201593402L172.46814496875,187.20877335099053L172.92795137847222,171.1348615247341L173.02462161805556,179.07162287691716L173.0835237673611,177.45223356688743L173.23941758680556,166.93069978199182L173.57499108680557,180.91776100806337L173.81389434722223,193.19031703489338L173.88822516319445,178.3535258697152L173.93780582638888,193.24399147511122L174.1149944201389,204.2780273637524L174.60332779166666,185.6546367312467L174.85524898958332,169.68099397675965L174.92837444097225,172.04718538622294L174.97843724999998,176.85409689156822L175.09150044791664,185.84248485031466L175.1962064513889,193.54136022296822L175.41855603819445,176.2910471715993L175.81849600694443,185.4114771220122L175.85835339583332,191.14897215676902L175.9394342534722,198.80402774659552L176.05691712152776,188.06288306582124L176.2316949861111,180.00300784355773L176.2787042048611,187.74816943616358L176.36910654861111,192.1220646101206L176.44391951041666,199.82603662673293L176.63862606944446,202.19809270525323L176.85293989236112,191.9531021099271L177.1712365,201.1838668452602L177.208843875,207.51596437045987L177.22660291319445,205.7946317236285L177.50319390625,210.53636501655805L177.9595449375,205.52680599730968L178.07429564583333,197.39453769242004L178.51682516319445,195.54749169367452L178.69208517361113,207.59586409315958L178.81856809722223,219.10029930847787L179.08527510069445,201.83868398478552L180.71637445486112,199.3132314350133L180.9190364201389,202.52480113844473L181.00501909374998,203.0268106566801L181.33745864583332,203.04227921554389L181.4113876736111,203.68758869658515L181.63068367013886,199.74683896002165L181.74615759722224,204.0439973829435L182.20909795486108,198.5432018779225L182.58163596875,209.06152584444834L182.85372693402778,208.01510457125949L183.35756932986112,192.35691621520573L183.42748047569447,204.8755958021255L183.4537574236111,193.01754780982765L183.52728466319445,200.72964509525522L183.8442955486111,211.4621536518022L184.07162730902775,208.0463271990569L184.16403859375,190.07568329521786L184.26167312500002,190.19083952443253L184.43982601041668,187.7099532046515L185.11507125000003,197.24379522232303L185.24356311458337,207.0245448406923L185.5278684409722,201.12422471403377L186.06972000000002,184.44973473613854L186.2947213888889,176.44349886591812L186.8103763576389,182.0405021374747L186.94449325694447,187.85601290896793L187.09162809374996,199.99599870483055L187.25965591666667,214.73060746047878L187.32257594791668,222.33074382718289L187.81765936111114,201.18161202758054L187.8444184548611,207.48787797168964L188.21446538194442,212.5239211723672L188.39816294444444,210.84621724810663L188.49668140972224,194.18687266118818L188.54433348958332,207.11462345010412L188.7722277534722,215.44837822341339L188.8541121875,225.19551858087289L189.05147054861112,221.36252144717096L189.11487272569445,229.4918279296307L189.71811752083332,207.81106141082702L190.13019149305555,201.05569018643516L190.49220265625,215.13760372170017L190.58075677430557,214.00533370001094L190.6532393645833,218.21722711155346L191.2495734027778,219.84036848997178L191.31281486458334,218.82482823756175L191.52793226388889,231.83025767930158L191.98958689930558,228.82480092871825L192.0260692673611,224.9009042154187L192.2654546736111,219.5839175435771L192.34870518749997,226.8001454530099L192.6538231423611,216.84363381338596L192.98144123611112,224.9913195645969L193.70530284722219,235.96290654815598L193.95818833680553,243.66666361864168L194.77510409374997,242.57953258036966L195.27878577430553,252.2613616492101L195.4532422083333,227.99299063661556L195.78785141666668,238.8853807101849L196.01703140277777,215.45392905381053L196.30591711458334,197.59881534557263L196.70216063194442,208.08793231649807L196.78316113194447,222.11089290542472L196.98646595833333,233.5055356084169L197.62860385069445,228.89353030701795L198.2370718923611,226.0995330899285L198.56766321875,234.20699453094878L198.60382415625,246.31066943738247L198.6325921909722,246.546009915902L199.3768646423611,245.38826284305125L200.11727992708333,246.63836378158618L201.26301914236112,241.86545932428308L201.44277918055553,248.2184707641187L202.85860042013888,256.2209609105831L202.89741315972222,261.93039824758455L203.1912810451389,250.63264458125144L203.32692473958335,257.29370551793295L203.44834513194442,249.1592782233679L204.9935421701389,247.99902943753654L205.43173237500002,246.20017180408968L205.93894979166666,242.1954797199472L206.02670033333334,253.26392520024763L206.5598732673611,259.42098648971546L206.81115160416667,259.89857793065204L207.49973621180555,246.24797913790198L207.63650491319447,246.95852099693204L207.79344338194443,250.2537849032971L208.04496279166668,250.69307173187323L209.31814922222222,258.9917000387169L209.48915027777778,262.2106498910932L209.68353540625,269.0318400566137L210.3447180590278,270.70704684175087L210.59921070138887,268.85934328158174L211.3123043888889,259.94158356817115L211.53111823958335,233.82797602709948L211.70854790624998,236.999468881312L211.79420914930554,218.84093317931845L212.04508569791668,222.4752183963265L212.52160649652782,211.86849957168053L213.34366514236112,208.37072894892054L214.02582113888892,213.18431747171095L214.74566486805554,218.61624849648166L215.09875633333334,199.99718699424722L215.17164071180557,198.6544595680025L215.24420365972222,199.90963930101978L215.38049021527775,208.09309888690728L216.03010136805554,224.739311295435L216.9636160590278,216.99041418019175L217.101590125,222.48060181832068L217.4797531736111,218.50926422885445L217.57545912152776,201.71187050660131L217.88483603125002,218.5274846014552L218.4433216215278,197.52853642171587L218.62726025694442,182.2702325900999L218.85933311805556,178.35197587217056L219.19257624652778,164.4484108465352L219.55796243055556,162.61914981095228L219.6564808958333,185.56981936261053L221.68269876041668,169.8706411855444L222.7586071875,175.63762340093365L223.16569898611112,162.91200634095074L224.90062040972222,170.91959732766003L225.25138150347223,173.95699636216756L225.40028420833335,183.41839554055954L225.65831258680558,167.63993963502608L225.71440221874997,190.14428548835068L227.69778946180557,192.30781445283688L227.7725220659722,200.57691667280739L227.88470132986112,184.33416107706054L228.50819625000003,172.51873813649067L229.13064652083332,176.50885173552277L229.575667125,165.6949881098875L229.84856166666668,174.3115940971054L230.44063675,159.93291368667738L230.95958638194443,148.58645895398448L231.44542866666666,155.37149248982738L233.44641423263892,152.55316928402067L234.93632521527778,148.63087115634636L235.01893286805554,138.09625577863835L236.33856601388888,130.66583216613796L237.57044861805554,123.02786894681384L237.66157418055556,140.04859180565657L238.0074334583333,131.95200225212756L238.2252830173611,137.80393127703465L238.29406915624998,130.69033204682896L239.38596875347224,150.400576145182L239.64142568749998,168.2348868200386L240.79528102430552,155.21027908075092L241.0897917708333,147.48082416083417L242.60975651041664,139.84186919711135L242.71848039583332,133.73145135874339L242.9759462708333,125.91837177892099L243.9718184895833,128.84688913391662L245.61248040277778,131.18958677164358L246.3471099375,123.93388007079454L246.47680716666665,121.46776458000797L246.66572797569444,143.29787429371785L247.4991170486111,145.53507157215887L248.5235162291667,163.93786239894234L248.7080173680556,153.6226999591907L249.92439094791666,170.52822579984388L250.63740427777776,170.2372394603277L251.09552317708335,161.44098135824171L251.63416043055554,175.51418171550722L252.86965912847225,164.55001991562057L254.02962164583332,151.63713362034372L254.13955089583337,140.62053064071912L255.15237857638888,134.02289435177258L256.6564325034722,135.39509835494388L256.8973447048611,145.64007864033087L257.79397523958335,146.9349642839995L257.9621637777778,148.4110786535265L258.40565758680555,143.222519084139L258.87856229166664,137.99709470319237L259.38160111111114,159.422084172471L259.7890946979167,148.31834349107552L260.22029378819445,139.7304299095376L260.71931472569446,156.88134937974198L261.2969254340278,155.58123727191014L262.7098537986111,169.36066691871727L264.0280405069444,155.86198875066447L264.2750598888889,148.40186434510633L264.5105077708333,153.91065256371886L264.7723129583333,152.14143370557403L264.9498229826389,149.57715876900443L265.9359719270833,141.4482687481522L266.0841514131945,149.51848058710866L267.78508155555556,156.24226760336578L268.2079234513889,147.96886214046174L268.30025437847223,165.4277327238939L268.4437731215278,176.7651429554332L268.5816668298611,166.82354211324773L268.92077606597223,153.5294442421911L269.3789753229167,169.3635199102471L270.5469736041667,158.0829074934923L270.83923433680553,170.10733283563783L271.68363240625,164.5848460329938L271.82972259375,153.25566721373426L271.93378573611113,179.84365514616502L273.3637499201389,180.41493032003723L273.9305927048611,191.50328108928093L274.1492458402778,182.4885883743789L274.2823180902778,197.84274442751632L274.5425964826389,214.23718072424845L275.11297500347223,222.75652011993463L275.3585479479167,211.38443603047224L275.52778113541666,224.16757000554824L275.6715409513889,205.4931245882197L275.7731130069444,193.27141145180175L276.46209940277777,181.47782253318962L279.0564457743056,172.8234361560131L280.7096434791667,159.44727080427973L282.3303766979167,155.4208275401479L283.9239490347222,146.58530251615278L284.31392465625,149.68138112473565L285.89688978472225,159.37999162625138L287.20800502083335,160.4915124853277L288.49959335069445,185.85159624680628L288.8395865208334,177.91450848167176L290.0008347604167,172.22035572297654L290.32957786111115,185.06588836950252L290.9063046354167,170.7446493253694L292.5061448680555,158.21050117430568L292.75846785416667,151.8735077142205L293.1171039965278,161.39102250571676L294.1922088472222,187.36078752377665L294.8336235208334,187.2033614077586L297.04731575694444,198.47147939827593L297.4464521493055,206.9048829408742L297.5698814826389,196.15525642339568L298.60062891666666,193.1389184145983L298.7258261180555,202.64513365273947L298.8430679131945,213.62385206072017L299.2446953923611,222.06671683570954L299.56950096875,223.31207181388172L302.30905359375,240.02440085176184L305.95568324652777,236.46460713663717L307.1959230451389,240.60478006145524L308.6673517708333,241.83168576925985L310.0533603263889,253.205505982384L310.91696387152774,239.6135630308024L311.9956848159722,239.62927961068024L312.6026260625,226.43634895919928L313.5020691145833,229.36997821085944L313.85966060763883,208.12829797178804L314.12154615277774,214.08554459198072L314.65737088888886,197.46802284495223L315.2394012673611,217.4197731625762L315.69856481597225,196.82363026419952L317.14942198611107,183.9649714588893L317.3804501979166,177.69062611399158L319.6368123402778,185.37312226272977L319.8622155173611,174.45955658893536L320.1261100034722,166.18492353041606L322.78120674999997,169.7581219250728L323.39329088541666,183.2442248629087L323.877606375,167.69422007596202L324.49603876388886,189.9421330553924L324.6327271076389,198.15666701408622L325.1558553368056,198.03871394783792L325.35313334027774,206.5486082259015L325.68428717013893,189.03174440142675L326.91030366666666,202.10392450884572L327.5261646111111,213.03011614219596L328.0190783680556,208.15953041608947L328.94945911111114,188.76124765824719L329.71711563541663,191.8592634775115L330.3778965,201.13741149149257L331.10199918402776,183.6050775297049L331.8367090763889,169.5331465501019L335.04313958333336,160.9290433756177L336.2187718402777,159.75992548812573L337.543547875,150.08932482179773L337.7654153159722,139.8280121108915L338.16535528472224,132.2277118271462L338.6130276909722,126.69259387334104L338.86342209375,145.3646714920593L339.46216686111114,161.5849124007L339.96150922916667,149.10894484010217L340.86400587152775,172.2870894157772L341.4813936111111,172.39394864135008L342.39883677430555,159.94617324540084L342.7296691736111,166.74798816172984L343.7917560868055,153.9980721528272L344.11190092013885,176.93152144448945L344.2698036805555,198.62967777493046L344.88084316666664,181.36120707478204L345.6594283298611,170.24552718563046L346.92988260069444,167.39669420201275L347.3299832847223,191.87915749750425L347.50034147916665,186.03880786172155L349.9316422013889,206.48300200339025L350.25877814930556,204.28228619268026L351.28084695833337,185.95288205409955L351.9821280729167,186.1025543342548L352.39058595138886,183.8728458890259L352.4895062048611,192.91009132222325L353.4049404270834,189.16900996677668L353.88347016666665,190.95151217823928L354.3300979236111,187.68611869930075L355.3921044791666,197.4077274103067L355.6959367118055,187.03169138950474L357.1559546527777,173.5876518174411L357.1788565798611,196.61115358667982L357.8058872361111,195.1747129501681L358.22752376736105,178.1725897280885L359.05994854861115,163.21908246012887L360.1812590416667,154.02610543799904L362.8830435763889,146.39243657387922L363.1721703611111,136.5720760626394L363.7288880833333,131.10926430229134L363.8966748333333,129.7845001197181L365.2360759583333,133.37500047960617L365.94249996180554,125.3781079840355L367.6298496631944,142.0413979710081L368.3889079201389,132.46449329711976L368.9620186006945,163.51799609179596L371.65592808680555,189.50344152281565L372.5587461597222,179.83288394069075L373.03775804513884,174.5718230956504L373.6267795381944,177.99304983801173L374.2250421597222,181.16587278642803L374.47808836458336,186.5155323154605L375.18194092361114,200.62206595925937L375.5230591006944,184.95112940073193L375.931999125,173.4911587816492L376.328323,163.91405299332865L376.82380820138894,160.27142422251958L377.04430956249996,186.55586320527L377.9255114305556,185.64564468753798L378.7282038854166,171.5574515643576L379.3819132777778,194.5700231333256L380.4490627222222,216.08537578250687L383.4149828159722,206.7334197332051L384.04514742013896,226.40890572238328L384.71669620833336,205.26892641567298L387.208345517361,192.19858925099808L388.3487007708333,175.6349256649841L388.85519496875,161.49216730305994L389.73961114236107,177.88518094622123L390.4700620798611,163.4866431727268L391.37770161111115,157.7246953523277L391.92678535763883,145.8496735674839L392.41310978819445,146.77816608580903L395.7174158993056,136.9785822933715L395.91115816666667,145.63293761093726L396.06295374652774,140.80269999749873L396.48370634375004,134.5867219647795L399.2590181180555,151.44556585817293L399.5664664444445,140.50272085237944L399.6498776736112,166.90232898943796L399.79460178125004,178.0506406149288L401.80081059375004,188.92619518993965L403.8617429583333,202.69837475870918L407.94021456250005,185.26869882520677L411.61360330902784,173.34883093685056L412.4737514756944,194.61882106565062L412.67649379861103,177.2444360590699L413.10190713888886,166.7728556249752L413.7255627743055,153.95242554983318L415.5569937222222,172.5484203503996L415.90357621874995,196.96306388431532L417.2246558020833,190.69088980362497L421.13654602083335,212.32501065289432L423.1542459756944,214.54826678735154L423.33866675694446,196.459194889633L426.8253043506944,184.1795640261202L428.6711996736111,173.47394104386814L430.2190485138888,178.7772918346289L430.4219515520833,170.15304394566502L430.9547226979167,156.90650974594516L431.73563823263885,149.84463139902076L433.51097954861115,144.08554392388407L439.07349602777776,150.7208006611596L439.78144682638884,160.9141136531493L440.94807902777774,153.0070178303909L441.2934561597222,142.2973412685318L443.7388998263889,152.5702949800903L444.34190354861107,161.14858359605L444.92497857638887,186.82210134821324L445.0752473611111,197.7300804966053L445.38277604513894,179.79912317637172L449.21503184375,196.93357084092534L449.5138015451389,190.28495181096073L450.60795115625,203.94786004124688L451.4421438055556,194.73105709149257L452.0454689583334,177.95025702729563L452.5770347395833,165.18203922939827L453.5718623090277,157.2050896782443L454.3748761944445,149.9120335600724L454.68529775347224,175.90088640629327L455.46364184374994,161.38672384234482L458.28805213541665,159.9214132964649L459.2844868576389,177.04849394530382L460.4407529236111,183.90499120448806L460.76788887152776,201.56565126305384L461.9565390659722,192.3536181144588L462.79266029861105,175.2799050119293L465.2681577222222,161.23725767123264L465.64045466319453,169.36977268744934L466.7898099722222,176.71927060431256L467.46393020486113,164.80215122862768L469.14099412847224,151.97592205066974L469.87128435069445,160.64309792916546L471.94852931597217,149.03881161312745L472.7077482881944,168.78412134344788L472.85849921875,191.84860549460953L473.01937521180554,176.68455491719084L473.1751083159722,190.28550801176647L473.8067997152778,174.50838338289654L474.729466125,174.85661148022507L476.3723780520833,191.79693511945268L476.6133706111111,198.48324734100623L477.66364495138896,212.13052487363007L480.4711801388889,195.19197287431504L482.13619041666664,211.90278436700973L483.11647325347224,215.628762653931L483.8677368194444,208.7864949887439L484.16208685069444,193.2340418900676L485.9344549340278,213.6425472585145L486.4804047326389,207.71670100416898L488.23565663888894,220.1836990267757L488.90455362499995,228.18834300002607L489.7735411319445,208.12445397344212L490.08123053125,213.44667050214545L490.99666475347215,194.39027883118538L497.4177222465278,179.90619684418266L498.8333024131945,198.5285293143609L499.36342175694443,180.75104736560345L501.1049325069444,185.00639503759837L503.0400248090277,193.5620679657488L506.7609049201389,177.48466941105372L507.68469633680553,171.199420933018L508.3380842986111,178.54145024942994L512.5234315625,165.6957094728797L515.3271095833334,191.49450408136133L515.6569776909722,184.47489622223367L516.6305104861111,178.97225647588363L517.5579983541667,185.5191024451139L520.5966421111111,182.61190760437447L521.119609625,173.3640379204177L521.6836398923612,176.79091715690984L521.9987221944444,184.3022148825315L522.1354908958333,168.41098705460124L522.2491969548611,159.30524933815067L527.1278699270833,153.6908936409956L537.3633438229167,143.07568231527856L537.7735695694445,139.98756129432837L538.2067776006944,155.86330714261288L541.6297719444444,146.52713033706337L546.5477398020834,148.6016637162152L547.7430596805556,160.49630842431543L552.4677674166667,165.39185483883358L552.9825384513889,166.23430153495028L554.4967174409722,186.488073684087L555.4543394236111,170.24468134990732L556.1235578402778,158.2793632542957L556.9951167916666,151.15657480304327L566.2212987430556,140.5403213368173L568.6976801006945,146.9319076115259L569.2582549895834,140.49305690986048L569.6762754270834,144.3026171395462L572.1918713125,150.92449709940837L573.1367967881944,163.39761654012955L574.9811653159722,176.73651833814898L575.3092655555555,176.1098974400773L575.4664450972222,167.5567089561534L576.7145599444444,178.21392449888836L578.6455540069445,164.14562606076663L579.3474779826389,154.80430605263732L581.9781460069445,146.7270405530288L582.2064420590277,175.66583265348703L582.5917569375001,176.09999536218012L583.7025405798611,164.53994930396973L584.6612875694443,171.34863513508364L587.0747488958333,160.86137419948068L588.2836492152778,170.28692887909935L589.0878684652777,180.1475730981883L589.3159234444445,181.03021893277648L589.8158283159722,183.36601125348258L592.3640494027778,197.5377349516387L593.6402894236112,214.46653776238756L596.5964058854167,210.9195527446254L599.6878446111111,195.43065948170286L601.6975088020833,177.97896727054896L602.2896642430555,165.69653997610158L602.6005679479166,179.86851141404733L603.5117432152779,172.9526669939248L607.0839616944444,164.33078189034313L609.3453863680555,160.07795188544384L609.855657375,186.51224317711927L610.4401788402777,170.4539717699884L610.6327961006945,195.8506311015171L610.9200746597222,185.76254040285946L611.1937727777777,169.6489618939385L611.7096688194445,156.9923280995976L612.741219829861,182.1174040358869L613.4240186875,172.6902478944626L614.3952211111111,158.86434262967717L615.3583877708334,185.61420101123673L615.8144977291666,169.69405268776396L616.2246431180556,185.3417478209315L616.5586094652779,188.57944742965114L617.2001848541668,210.23600271431906L617.2386761631943,226.41766940161642L617.2639084618056,230.13802367343803L617.2796585590278,245.19563213043068L617.5138207187499,259.21827981192376L617.9187428611111,232.22984088063964L617.9650288611113,247.89353048779685L618.0494847395834,243.77068709295395L618.0953689513889,236.55678543942363L618.1353870555555,251.2765570050365L618.3321025555555,264.3211341124435L618.4371299895834,274.7671200825061L618.4983625104168,283.42179125421177L618.85032896875,291.70437808699705L619.0075085104168,290.27459767428246L619.3184925729167,286.34973800631485L619.7446291319444,257.2732362237007L620.1676317430556,264.6845861473646L621.0853159791667,258.4531951543809L621.2432990972222,269.15643966501483L621.2885404479167,243.30668047805327L621.6602748854167,226.38565239964672L621.8544992986111,212.76198165704744L622.6089771701388,200.9611105204269L622.9811133958334,190.53873041635234L623.3100172118056,178.7069751117692L623.4500805763888,165.02996942479965L623.5206345833333,171.05330721534915L623.5897421527778,167.8089594093758L624.627319986111,170.9447637328136L625.9774890347221,157.8939113803043L627.50870384375,176.11654730262694L629.2449109895833,185.54075459002442L629.3874654409722,207.29357460716255L631.1584674444443,208.30703151744657L631.6521847777778,196.24712971770512L640.8173752812501,191.78845744942808L641.8677299791667,180.52595884057786L642.1515531597222,186.49082099164497L643.4010340868056,199.38637317300066L643.9469035277777,188.95136156875085L644.1256189166668,205.92428754392725L644.6031843645833,220.82202608272377L644.9631865868055,223.06561050745051L649.7246177638889,230.7596521921195L651.1126352604166,219.24554324479416L652.3478125277778,213.5473125295022L656.9981090902778,205.1510192768526L660.2971919548611,188.5544525834162L667.3202888784723,183.61134774212076L668.9681026215278,189.11911474362438L670.6920954062501,211.59893023114827L671.7579591284722,225.5510134344321L672.1692295243056,205.86754951340637L677.4759676388888,195.38569138172548L678.0104262951389,177.90548857196956L678.7027877118056,183.85006273292566L684.0629636562501,207.27524393133052L692.6343112083333,227.07929813313393L695.7633573090278,204.9786086858384L696.2136011597223,218.730134645791L696.5405763923611,202.19630398406332L698.5566691944445,197.18353497212811L703.4074580659723,179.41981960954104L704.8784850034723,169.9789526468372L713.1379645590278,192.24963465747507L717.1399356909722,208.09426987702332L722.1860739826388,189.5847855541555L722.5596566458333,174.50199289336112L728.6866051805555,199.07410787896228L732.0024024340278,219.91416729253743L734.5957041562501,237.00204544740794L737.0789962708334,216.2104413423558L739.0994283854167,199.76678301439452L745.0523222743055,182.68626624935771L748.7057823263889,167.33744309032778L756.3800975555555,160.70099578213785L793.3479061076389,160.61807160283408L806.9834724201388,166.9256253240455L816.9416321041667,154.13837411863173L841.2990771006945,156.00664060029564L854.3021484374999,183.56525656788406L860.3001229618055,171.45734146145514L863.0450595486111,157.8812804396093L881.6340314375,184.27185159232408L884.15010946875,170.06070809553327L891.2243942083334,194.83800055092672L898.4818140069444,198.886909025512L913.9870615034722,220.0721006438901L916.8364630208333,212.77991118996388L931.1244530034724,227.49542585316985L941.2299082395832,205.3916154174818L949.1524482152778,225.58862838969094L954.2995960590277,214.29380572270992L964.1725766458334,229.17411241478618L980.8700100729167,245.24203340949353L982.1877949930556,222.6393003733007L985.6960487916666,222.10335589432623L986.7656089652778,204.23487158533257L987.4064611354167,196.0853148044037L987.7821330972223,195.33166970290284L988.3446365694443,178.93811685975302L988.8811845243056,173.73518313711406L991.9946412430554,162.28386579914581L992.53890353125,159.92586906154094L992.6909401840277,164.9034446464903L993.7038482222222,177.82053750374791L993.972403451389,183.4575069979434L994.6323003819446,179.2986114798252L994.9519630694444,198.24629617527373L995.8305131354168,200.34649001018167L995.9723443680556,203.54134827025297L996.6191430034723,213.7331349469466L997.9265617881944,214.8281782560206L1002.8839852465278,208.13718335596303L1004.3583068472221,189.06528337332054L1006.2273451701388,177.18432377857545L1009.8208584236111,162.4278846234102L1010.1628605347222,151.04449370607892L1011.6530125902777,150.79330623268473L1012.4644640277778,142.29090231042585L1016.06087015625,158.12775125756124L1016.5441409965277,184.1920670561355L1016.8799555694445,188.06913694704647L1017.2876098715278,171.84732264578653L1019.5942758958333,179.04280620053675L1020.3999415833332,176.59093258510012L1025.4940533854167,201.04347067892175L1028.0946676527778,208.51174143579283L1029.3961399722223,228.03798987046056L1034.6880119236112,244.85158873619952L1035.6052140138888,221.87970909028223L1040.1420455902778,239.5635692043632L1046.5305582395833,225.61099439928935L1058.132594142361,242.7964347182384L1058.3608098368054,220.20190685886845L1060.217071295139,238.18585046139637L1061.6441426041667,253.4757941122274L1063.3054564305558,235.62122824689817L1071.8348572951388,245.18642386442335L1072.8925245381945,259.4277589512176L1075.1762082777777,239.39884345247953L1075.6985329305558,254.5057117764788L1076.4009390520832,267.3301159999L1077.5203209618055,269.9068008214278L1080.4718570381945,280.43616951346235L1083.1095965347222,289.39428068153734L1085.2525740486112,297.01423410335553L1087.7921165104167,303.47681821654726L1093.4419013854167,306.1608484020821L1098.6538174861112,282.9069947008632L1103.7025272222222,257.7764143577905L1105.019588923611,242.77842457343513L1105.5399046354166,257.15479352026955L1105.645414215278,239.55098147727367L1105.7142807118055,254.59693991173017L1105.7940758472223,267.03677062500606L1105.85426371875,244.86384858432143L1106.2205338368055,247.08792074631967L1106.6637062152777,260.9382632412134L1106.9181988576388,254.82124556203442L1107.592078017361,228.5390608510851L1109.6458585520834,214.41692777069977L1109.8822707256945,195.29341060254657L1109.9750837986112,216.26206123097373L1110.17549575,197.08322462294586L1110.3989703437499,211.86294805537636L1110.4602832222222,227.9198401280376L1110.7362313541666,207.37813978293667L1110.777133392361,226.9039685120236L1110.8346694618056,243.88192338385196L1111.5717097256945,247.06580967130571L1112.0038731076388,260.36364794741286L1113.5382218645834,265.37146908521333L1114.3316731909722,253.96575438964098L1115.1141958784722,265.31685495284273L1115.3213578715277,259.0844155262014L1115.4192334756945,270.4698452401309L1117.3723258888888,256.2207208215123L1117.4141118611112,229.54899672528975L1117.4843444374999,244.8850867689822L1117.8613824791667,244.0270992575087L1117.9789457048612,250.59087556524062L1118.3188585173612,229.48201328629787L1118.5805833472223,239.7563932014242L1118.9444427361111,215.57934744256983L1119.0087288472223,219.31688323531066L1119.1298278090278,218.25170859055206L1119.512330170139,235.419645289225L1119.5909199409723,226.23705708930515L1119.96136865625,219.69351810949226L1121.0530271805555,198.70707631912435L1122.1579447152778,181.2341568108957L1122.7750913819443,170.1102274277883L1123.0435662534721,167.42781076373808L1123.2233262916666,175.2214496959332L1123.8230353506945,168.76547861424294L1124.1439034027778,167.47853267349925L1124.5857900590277,166.9603136123658L1125.337616128472,155.60440852326397L1125.8073065277777,156.36987396925596L1127.292637125,183.04710303652956L1128.6588777013887,206.6172087336384L1129.8026883333334,226.57495430037267L1132.12590803125,243.60380797159294L1136.0142534618058,235.64764602945127L1139.931688357639,223.7088094775974L1141.721494048611,237.63393059862995L1145.2738641909723,252.855773748707L1157.835611375,265.7997513768569L1159.2787542118056,276.9392933388663L1175.7437129895834,279.4799700381454L1176.8868004027777,270.4949103285652L1177.1255429479168,243.51561696174883L1185.4355674583333,218.79126787480388L1189.0161431319445,235.7462799966427L1190.8154310243058,250.85174261025L1192.5988884618055,254.86417469628353L1194.3823458993058,266.9583001650551L1199.9819876076388,250.15083287135784L1203.582652690972,263.4698952588432L1226.0731486631944,274.2667295535015L1229.266480875,245.36662611441471L1234.7549076111113,226.2512177446997L1235.0325432534723,204.26868752187377L1235.1967139097223,186.03799278630817L1235.7201635694444,205.40388709664248L1235.8131373576389,192.6068463016144L1236.0399869722223,206.30056329303017L1237.7072472638888,188.0277653083511L1238.123098045139,198.63851890976346L1238.51138615625,200.57485878162436L1240.122074670139,217.33965347626727L1241.7002986979167,198.76394394970026L1242.7091888541668,181.28172713146282L1242.8114037708333,192.27046618026316L1243.3159693854166,196.77193425762206L1244.8708093402777,187.6615155393622L1245.0397210972224,181.52843664929574L1246.8554823055556,198.7638801480185L1246.9355988715276,180.88513962538275L1247.0571799791667,169.29108261242058L1247.3298334479168,186.30749292600518L1247.4807450937499,202.63723953857132L1247.6513443611113,196.15811135500664L1247.719487638889,181.62389399896557L1247.777988,195.33325665172853L1247.858104565972,216.1611965230145L1248.589519795139,195.46598410798933L1248.6976008194445,216.98771932739982L1248.8294677048611,230.80907457665725L1248.948959513889,225.00130064027212L1249.0719870590278,240.67033021356858L1249.8075005277776,253.06798693071076L1251.997005114583,227.24373890092699L1254.840138736111,205.40736475230375L1255.6505455243052,192.80850491250504L1255.8101357951389,187.48314020043819L1259.029986027778,191.44418074821706L1260.065554920139,174.8047293116151L1264.60945796875,198.42731829487522L1265.1752561041667,186.13567124687384L1265.8415012881946,208.70014454889136L1266.7546854965276,189.15679077856402L1267.5573779513886,198.92206097393992L1269.002931517361,206.58193723477225L1271.1320071597222,220.27712332387472L1271.4457233819444,236.6854912471796L1275.9868139131945,212.99582004499646L1277.8258788368057,224.27241791327177L1279.85346278125,202.66512413783343L1282.0669943020832,214.20012361902943L1283.7793352291667,228.91507321957857L1285.7799993645833,242.87965814473225L1287.5008582013888,254.44396854566227L1290.995852989583,259.06384115157215L1293.3844838055556,271.20369716881544L1296.8032995520832,242.26324538408724L1298.2340673125002,228.90919518168923L1304.0005314791665,235.0991941801879L1308.2009056215277,239.280855613286L1309.4175202743056,253.228265019913L1309.961139701389,229.91747460917688L1310.8079484999998,208.8903567742571L1314.3269702222221,204.1551766938542L1315.1170465277778,214.01079024996247L1315.850309982639,196.1160594332914L1323.7302604097224,178.63179173076105L1325.61006665625,202.10481634800246L1325.9170328368054,191.36237471784077L1326.6785821805556,174.78187637072983L1327.8671520173611,199.44954843835666L1328.2718330868056,220.48960502019227L1328.91951565625,199.50057563076513L1330.9044296944446,220.57603411484024L1332.1013567256946,238.39976824536134L1333.9861451458335,243.15289022785504L1336.661009871528,227.56485719683536L1337.3157639131944,243.14874603508514L1337.8835709895832,243.329831843722L1338.3123593506944,257.39948597763447L1339.8986995,248.58935499998225L1340.4551761493055,228.6527040061399L1344.2801194027777,233.11625517373167L1345.7014049618056,226.47834473351787L1346.23047965625,205.52910913581772L1352.2939456562501,186.63022086622175L1352.7071446354166,181.39115045310632L1353.8194550729168,179.6662207945718L1354.222689704861,175.44478131700097L1357.1288237152778,186.42358605109905L1358.3828850277778,170.30829084234205L1361.0436871666666,195.49701877701287L1361.9926305243055,211.7202646762908L1362.3472487847223,192.01236736319098L1363.0422620034722,186.0076080629268" style="fill: none;" fill="none"></path></g></g></g></g><g opacity="0.2"><g><g><g><path stroke="rgb(187, 187, 187)" stroke-width="2px" d="M144.64375,78.27327747344971L145.03163632291668,78.29770059585572L145.21758389930557,80.41863698959351L145.6374525625,80.8086859703064L145.69804222222223,96.83976216316223L145.76385512847224,78.41499466896057L145.78161416666666,82.67423851490021L145.844293125,83.39609498977661L146.01593704166666,83.63850123882294L146.07114273958334,88.65713746547699L146.25234921527777,92.3677622795105L146.4040644375,85.50031371116638L146.47084163541666,110.46903605461121L146.49639536458332,122.0674281835556L146.62062827430557,80.05850858688355L146.81485268749998,78.4335147857666L146.96608576388888,115.07944114208222L147.19984613541666,87.57348532676697L147.28092699305554,113.52983458042145L147.31403434027777,88.26303298473358L147.49146400694443,80.66958231925965L147.65450965625,85.31930322647095L147.97168125694444,83.29313035011292L148.1033874270833,78.33273561000824L148.40488928819445,92.77331228256226L148.63431034722223,101.93941826820374L148.76987368402777,87.44582719802857L148.89458873958336,84.51771111488343L149.2461534097222,96.95259518623352L149.2659213888889,79.65874893665314L149.51559257291666,97.02027697563172L149.63918262152777,78.19685382843018L149.7069241111111,80.23517067432404L149.7244420763889,78.19396991729737L149.82858557638886,78.83316178321839L150.09320328124997,113.31113047599793L150.32318684375,143.17788298130037L150.3485798576389,102.22821493148804L150.36127636458335,92.79392774105072L150.49386646875,80.32031364440918L150.7814664583333,85.07957811355591L150.97561051388888,135.52096374034883L151.0884326388889,83.54547257423401L151.1600312951389,79.7240650177002L151.43887230208333,115.68862230777741L151.57604279166668,127.46885855197907L151.71088290972222,102.37964279651642L151.78264228125,78.27616138458252L151.85207128125,107.94588418006897L151.92816996527776,93.87949497699738L151.97461668055556,89.40756268501282L152.44832496180555,89.52877707481385L152.6395761423611,83.83891053199768L152.67220134374998,85.46419723033905L152.84625598958334,111.55780262947083L152.95289057638888,94.81521148681641L152.9881675798611,110.47106380462647L153.27078539583331,138.3249589920044L153.31490173958332,140.56629867553713L153.51692084375,138.416703414917L153.53692989583334,98.40374321937561L153.66236817013888,91.29665966033936L153.90496788194443,80.00959475040436L154.1482104548611,95.14352674484253L154.65333857291665,124.41454882621765L154.80746452430557,127.77845091819763L155.01430508680556,112.62757594585419L155.14970770833332,127.0901424407959L155.18884187847223,142.20282812118532L155.57889785763888,108.41150064468384L155.66504124652778,78.99603517055512L156.50638572569443,95.81444163322449L157.11662163541666,149.08582277297975L157.16949696180555,153.5087285757065L157.26415826041668,129.5182604312897L157.41257881944443,139.9271068096161L157.86362624652776,142.7955619812012L157.96801081944443,130.92765934467317L157.9958145625,192.519000184536L158.19060147916667,121.92695016860962L158.5534965763889,80.69143695831299L158.94644543055557,164.44071192741396L159.07975875347222,125.80691463947296L159.11069644444444,148.42094607353212L159.45575214583334,121.31828720569611L159.9433622986111,110.76657457351685L160.01664846527777,149.44313485622408L160.0908989236111,79.49594314098358L160.6609560138889,151.13819868564607L160.84409107291665,81.41471285820008L160.90741289236112,170.52513356208803L161.0121188958333,119.82162744998932L161.27987054861114,113.61463959217072L161.57373843402777,166.98485101461412L161.6221940902778,162.038425219059L161.75253418055556,162.4831896543503L161.9719105347222,183.17054314613344L162.20615305208335,148.25158388614656L162.6623433680556,204.83622969388963L162.74149564236112,82.73254759311676L162.9100056111111,200.13287479877474L163.2172128645833,179.98303277492525L163.3738299027778,199.6311193227768L163.58324190972223,164.898938369751L163.61450103125,196.90692729949953L163.6268761076389,78.25128765106201L163.7005640625,105.28507061004639L163.76485017361114,215.6098682999611L163.87992231249999,80.53372306823731L164.1200309375,228.8220452785492L164.16800444791664,88.7153113603592L164.75284734374998,157.5897557258606L165.12112640277778,101.53310222625733L165.2650469340278,79.38380856513977L165.59282574305556,163.9615545988083L165.88805970833334,222.9878705263138L166.00007825694445,262.9351879477501L166.53461727083334,148.46756179332735L166.93664653819445,118.52756245136261L167.00615589583336,181.84761650562288L167.11496013888888,166.6344558119774L167.19708564583334,262.8505744457245L167.2538984965278,127.22701556682587L167.29480053472224,156.57980103492739L167.42899779166666,111.35153539180756L168.2574850486111,152.17845697402956L168.50241513194442,236.09888530969621L168.6884430659722,255.41342951059343L168.8571941076389,156.59331936836244L169.06716861805555,112.5152836561203L169.29345572916668,212.11552555561067L169.36071507291666,254.16816006302835L169.54746622569442,80.93222100734711L169.88336115625,104.06751937866211L169.93157573958334,79.93675346374512L170.41227513541668,273.56735719442366L170.6443479965278,182.1638666510582L170.8786708715278,254.94388709664346L171.0543326701389,249.18860308527948L171.49935327430555,213.13854796886446L171.72628324652777,111.60430569648743L171.88932889583333,268.37595666646956L171.97241869444446,216.3325133442879L172.03027619444444,152.08770389556886L172.46814496875,160.60577477216722L172.92795137847222,80.04936118125916L173.02462161805556,224.04660387039186L173.0835237673611,168.27569414377214L173.23941758680556,107.30867500305176L173.57499108680557,260.17777462005614L173.81389434722223,262.73480118513106L173.88822516319445,94.27837593555451L173.93780582638888,277.6232965707779L174.1149944201389,266.8042307317257L174.60332779166666,80.12208981513977L174.85524898958332,79.16368503570557L174.92837444097225,185.4556033730507L174.97843724999998,204.09326208829881L175.09150044791664,236.7766832828522L175.1962064513889,237.1683206677437L175.41855603819445,78.53927321434021L175.81849600694443,237.09391350746156L175.85835339583332,223.66144402027132L175.9394342534722,242.18267608880998L176.05691712152776,127.19639654159546L176.2316949861111,134.3303815841675L176.2787042048611,231.63741846084596L176.36910654861111,216.90747059583666L176.44391951041666,243.48187805414202L176.63862606944446,215.6397438168526L176.85293989236112,133.89815540313722L177.1712365,253.49153367877008L177.208843875,243.39785034656526L177.22660291319445,196.04041339159014L177.50319390625,237.40618700981142L177.9595449375,177.13930488824846L178.07429564583333,151.31168396472933L178.51682516319445,185.0808977007866L178.69208517361113,275.8699743568897L178.81856809722223,284.29209886193274L179.08527510069445,104.02286381721497L180.71637445486112,185.0023336529732L180.9190364201389,220.7236961245537L181.00501909374998,205.8715312600136L181.33745864583332,203.12993438243868L181.4113876736111,207.34434242248537L181.63068367013886,177.41592378616335L181.74615759722224,228.39456177949907L182.20909795486108,167.37202734947206L182.58163596875,268.66536165475844L182.85372693402778,202.08538402318956L183.35756932986112,103.6271821975708L183.42748047569447,275.81478012800216L183.4537574236111,125.8219425201416L183.52728466319445,244.43152971267702L183.8442955486111,272.27970213890075L184.07162730902775,188.6899773001671L184.16403859375,88.2420345067978L184.26167312500002,190.84339148998262L184.43982601041668,173.65159739255907L185.11507125000003,251.26889998912813L185.24356311458337,262.44879267811774L185.5278684409722,167.68907732963564L186.06972000000002,89.96095819473267L186.2947213888889,131.0748289346695L186.8103763576389,213.7568540096283L186.94449325694447,220.81057394742967L187.09162809374996,268.7892515480518L187.25965591666667,298.22672374248504L187.32257594791668,265.3981832385063L187.81765936111114,81.33653182983399L187.8444184548611,243.22338498830797L188.21446538194442,241.0614993095398L188.39816294444444,201.33922834396364L188.49668140972224,99.78392000198365L188.54433348958332,280.3718779206276L188.7722277534722,262.67298860549926L188.8541121875,280.4293139398098L189.05147054861112,199.64220435619356L189.11487272569445,275.55789799690245L189.71811752083332,84.95338447093964L190.13019149305555,162.77525324821474L190.49220265625,294.9351137548685L190.58075677430557,207.58913691043855L190.6532393645833,242.08462311029436L191.2495734027778,229.0381696343422L191.31281486458334,213.0701001405716L191.52793226388889,305.52769118249415L191.98958689930558,211.79387934207918L192.0260692673611,202.6654895067215L192.2654546736111,189.45432640314104L192.34870518749997,267.69210360646247L192.6538231423611,160.42340118885042L192.98144123611112,271.1615388214588L193.70530284722219,298.13523278832434L193.95818833680553,287.3212870180607L194.77510409374997,236.4191233634949L195.27878577430553,307.12505970597266L195.4532422083333,90.47222156524658L195.78785141666668,300.60892446041106L196.01703140277777,82.67570300102234L196.30591711458334,96.41983766555786L196.70216063194442,267.52626181840895L196.78316113194447,301.57433624267577L196.98646595833333,298.0751775920391L197.62860385069445,202.7588335990906L198.2370718923611,210.26688219308855L198.56766321875,280.1492760300636L198.60382415625,314.89816057384013L198.6325921909722,247.87960596084596L199.3768646423611,238.82769609689714L200.11727992708333,253.7222690999508L201.26301914236112,214.81900073289873L201.44277918055553,284.21886892318724L202.85860042013888,301.56840507388114L202.89741315972222,294.28387649059295L203.1912810451389,186.61204047203066L203.32692473958335,295.0397174924612L203.44834513194442,203.06419022083284L204.9935421701389,241.42428631782533L205.43173237500002,236.00664521455766L205.93894979166666,219.50222457647325L206.02670033333334,315.98511625528334L206.5598732673611,294.3110004633665L206.81115160416667,262.60492942929267L207.49973621180555,168.89458597898485L207.63650491319447,250.984924864769L207.79344338194443,268.92694703936576L208.04496279166668,253.18236376047136L209.31814922222222,306.01726044416426L209.48915027777778,280.4513657212257L209.68353540625,307.6852509945631L210.3447180590278,280.1998852908611L210.59921070138887,258.38902310729026L211.3123043888889,209.40761185884477L211.53111823958335,85.85086662769318L211.70854790624998,254.97126172184946L211.79420914930554,115.94256420135498L212.04508569791668,243.06950129270555L212.52160649652782,151.7637595653534L213.34366514236112,188.55002875328066L214.02582113888892,240.4613191008568L214.74566486805554,249.39719097018244L215.09875633333334,94.48917181491852L215.17164071180557,191.04567081928255L215.24420365972222,207.0223244547844L215.38049021527775,254.46603654026987L216.03010136805554,319.06784827709197L216.9636160590278,173.07999719381334L217.101590125,253.59166510105135L217.4797531736111,196.005017888546L217.57545912152776,106.52663941383362L217.88483603125002,313.81596447229384L218.4433216215278,78.53449673652649L218.62726025694442,95.80651087760926L218.85933311805556,156.14852113723757L219.19257624652778,85.66154236793518L219.55796243055556,152.25333727598192L219.6564808958333,315.62361348867415L221.68269876041668,80.90863151550293L222.7586071875,208.31718928813936L223.16569898611112,90.8001763343811L224.90062040972222,216.29594625234606L225.25138150347223,191.1689242243767L225.40028420833335,237.0329908847809L225.65831258680558,78.22868950366974L225.71440221874997,317.6689119905233L227.69778946180557,204.56781191825868L227.7725220659722,247.43516258597376L227.88470132986112,92.29187936782837L228.50819625000003,105.56467480659485L229.13064652083332,199.1194954633713L229.575667125,104.41642756462097L229.84856166666668,223.13902802467348L230.44063675,78.45372469425202L230.95958638194443,84.28988213539124L231.44542866666666,193.8200158596039L233.44641423263892,136.5826711177826L234.93632521527778,126.40451509952545L235.01893286805554,78.40010197162628L236.33856601388888,88.560098361969L237.57044861805554,79.74607737064362L237.66157418055556,236.49935467243196L238.0074334583333,86.07132811546326L238.2252830173611,170.96486241817476L238.29406915624998,90.37993640899658L239.38596875347224,262.0919593691826L239.64142568749998,269.29598064422606L240.79528102430552,81.40416855812073L241.0897917708333,103.68057961463929L242.60975651041664,96.55445773601532L242.71848039583332,99.1057502746582L242.9759462708333,81.64425415992737L243.9718184895833,145.44182081222536L245.61248040277778,144.4648733854294L246.3471099375,82.81820876598358L246.47680716666665,107.49311013221741L246.66572797569444,267.0018293380737L247.4991170486111,158.21252281665804L248.5235162291667,268.22034375071524L248.7080173680556,95.17011280059815L249.92439094791666,266.3262055635452L250.63740427777776,168.58831686973573L251.09552317708335,111.59551877975464L251.63416043055554,255.2623170733452L252.86965912847225,102.41976971626282L254.02962164583332,78.46411128044129L254.13955089583337,78.19311375617981L255.15237857638888,96.63628871440888L256.6564325034722,143.17092103958132L256.8973447048611,203.69496692419054L257.79397523958335,154.27264959812166L257.9621637777778,156.77572674751283L258.40565758680555,113.82068152427674L258.87856229166664,108.38635654449463L259.38160111111114,280.8303578317165L259.7890946979167,85.39714629650116L260.22029378819445,91.06558628082276L260.71931472569446,254.06989304423334L261.2969254340278,148.21393532752992L262.7098537986111,247.4441015839577L264.0280405069444,79.36947913169861L264.2750598888889,106.12782604694367L264.5105077708333,185.12711913585665L264.7723129583333,142.11586017608644L264.9498229826389,135.04626746177675L265.9359719270833,95.38455862998963L266.0841514131945,195.2496810078621L267.78508155555556,194.34372736215593L268.2079234513889,101.08623118400574L268.30025437847223,264.36133269667624L268.4437731215278,241.01046760082247L268.5816668298611,110.48780400753022L268.92077606597223,78.19622297286988L269.3789753229167,259.08994869589804L270.5469736041667,94.15943713188172L270.83923433680553,238.24574310779573L271.68363240625,133.29075415134432L271.82972259375,89.0569872379303L271.93378573611113,330.508920096606L273.3637499201389,183.65215630531313L273.9305927048611,254.337268781662L274.1492458402778,131.40532965660097L274.2823180902778,284.84962872862815L274.5425964826389,307.13898640573024L275.11297500347223,271.0327766954899L275.3585479479167,146.94262619018556L275.52778113541666,296.6053291976452L275.6715409513889,99.67126722335816L275.7731130069444,124.01503701210022L276.46209940277777,114.64748532772064L279.0564457743056,123.78191335201264L280.7096434791667,83.64900047779084L282.3303766979167,132.60431571006777L283.9239490347222,96.51732738018036L284.31392465625,167.2258265733719L285.89688978472225,214.338784468174L287.20800502083335,166.79013068675997L288.49959335069445,329.55873756185173L288.8395865208334,132.9376778125763L290.0008347604167,139.9534900903702L290.32957786111115,257.8572400331497L290.9063046354167,89.59096140861512L292.5061448680555,87.18366165161133L292.75846785416667,115.96387810707093L293.1171039965278,215.32360632419588L294.1922088472222,334.52278929278253L294.8336235208334,186.31128008365633L297.04731575694444,262.32414801120757L297.4464521493055,254.69416968226435L297.5698814826389,135.24070615768434L298.60062891666666,176.0463363647461L298.7258261180555,256.5136866688728L298.8430679131945,275.83658970594405L299.2446953923611,269.9096172273159L299.56950096875,230.36908335685732L302.30905359375,334.7275987330824L305.95568324652777,216.2924427509308L307.1959230451389,264.0657599687576L308.6673517708333,248.78415144681932L310.0533603263889,317.6571538567543L310.91696387152774,162.59255297183992L311.9956848159722,239.71834022998812L312.6026260625,151.6764086008072L313.5020691145833,245.99387730360033L313.85966060763883,87.75877661705017L314.12154615277774,247.84327543973924L314.65737088888886,103.30206627845764L315.2394012673611,330.47969162911176L315.69856481597225,80.112153840065L317.14942198611107,111.09923822879792L317.3804501979166,142.13600249290468L319.6368123402778,228.9072671055794L319.8622155173611,112.61601777076721L320.1261100034722,119.29533619880677L322.78120674999997,190.0062461614609L323.39329088541666,259.66547484397887L323.877606375,79.57752628326416L324.49603876388886,316.0136399388313L324.6327271076389,244.70569278001787L325.1558553368056,197.3703132390976L325.35313334027774,254.77134246826174L325.68428717013893,89.76951606273651L326.91030366666666,276.17961178421973L327.5261646111111,274.94520206451415L328.0190783680556,180.55954463481905L328.94945911111114,78.83764536380768L329.71711563541663,209.41468645334245L330.3778965,253.71358357071878L331.10199918402776,84.25518507957459L331.8367090763889,89.79220433235169L335.04313958333336,112.17245872020722L336.2187718402777,153.1349241256714L337.543547875,95.28925437927246L337.7654153159722,81.68057341575623L338.16535528472224,89.15934355258942L338.6130276909722,95.32692546844483L338.86342209375,251.17311133146288L339.46216686111114,253.49961088299753L339.96150922916667,78.41179533004761L340.86400587152775,303.6299086779356L341.4813936111111,172.9994842529297L342.39883677430555,89.40877933502198L342.7296691736111,205.29160602092745L343.7917560868055,81.74854810237885L344.11190092013885,306.88773409724234L344.2698036805555,321.58589698076247L344.88084316666664,83.50653977394104L345.6594283298611,107.25667448043824L346.92988260069444,151.2533072948456L347.3299832847223,330.61311617195605L347.50034147916665,152.9434932589531L349.9316422013889,322.333435472846L350.25877814930556,191.81156326532366L351.28084695833337,82.08625860214234L351.9821280729167,186.9506972551346L352.39058595138886,171.23783136606218L352.4895062048611,244.12114877700807L353.4049404270834,167.96954895257952L353.88347016666665,201.05235804319383L354.3300979236111,169.1822223186493L355.3921044791666,252.4968434393406L355.6959367118055,128.23415393829347L357.1559546527777,97.40476090908051L357.1788565798611,327.0776636123657L357.8058872361111,187.03488267660143L358.22752376736105,81.82722480297089L359.05994854861115,78.48254127502442L360.1812590416667,101.93256897926331L362.8830435763889,103.13497967720032L363.1721703611111,80.92336649894715L363.7288880833333,100.15333099365235L363.8966748333333,122.27750308513642L365.2360759583333,153.72116918563844L365.94249996180554,80.06238384246826L367.6298496631944,236.4667078971863L368.3889079201389,78.19536681175232L368.9620186006945,339.4878452616278L371.65592808680555,336.7542989652604L372.5587461597222,125.03305764198304L373.03775804513884,144.7591449737549L373.6267795381944,197.3800013780594L374.2250421597222,199.14520282745363L374.47808836458336,216.8302696466446L375.18194092361114,280.55908994078635L375.5230591006944,96.14915556907654L375.931999125,108.5513252735138L376.328323,109.64378685951233L376.82380820138894,139.6298611879349L377.04430956249996,335.5010174408555L377.9255114305556,180.48773975372316L378.7282038854166,91.72435719966889L379.3819132777778,324.97459535747765L380.4490627222222,338.00570746120064L383.4149828159722,153.73900212049486L384.04514742013896,337.90332632772623L384.71669620833336,85.47571034431458L387.208345517361,118.13334531784058L388.3487007708333,81.77416534423828L388.85519496875,81.34986991882325L389.73961114236107,270.7789249241352L390.4700620798611,81.89492912292481L391.37770161111115,125.07365770339966L391.92678535763883,78.55788345336914L392.41310978819445,152.0396236896515L395.7174158993056,81.44760746955872L395.91115816666667,194.6742844104767L396.06295374652774,113.43135352134705L396.48370634375004,99.3628464460373L399.2590181180555,246.97901458740236L399.5664664444445,78.49326581954956L399.6498776736112,316.50010843276976L399.79460178125004,241.22440649271013L401.80081059375004,250.55433778166773L403.8617429583333,280.74072564840316L407.94021456250005,86.50053520202637L411.61360330902784,105.80291290283203L412.4737514756944,315.1487651288509L412.67649379861103,78.78958768844605L413.10190713888886,107.43389983177185L413.7255627743055,81.3033217906952L415.5569937222222,277.92572422027587L415.90357621874995,335.31271057650446L417.2246558020833,155.14857001304628L421.13654602083335,334.91836213208734L423.1542459756944,227.1467182159424L423.33866675694446,93.95445413589478L426.8253043506944,114.59498913288117L428.6711996736111,112.8087441444397L430.2190485138888,208.82961298227312L430.4219515520833,121.28230590820313L430.9547226979167,81.84281594753266L431.73563823263885,109.82732076644898L433.51097954861115,111.45071489810944L439.07349602777776,188.32058883905412L439.78144682638884,218.67622060775759L440.94807902777774,108.2001415014267L441.2934561597222,81.6091740846634L443.7388998263889,210.7836993455887L444.34190354861107,209.75888575315477L444.92497857638887,332.3053686104715L445.0752473611111,259.5419623374939L445.38277604513894,78.19036502838135L449.21503184375,294.0287742733955L449.5138015451389,152.60944397449495L450.60795115625,281.3710066795349L451.4421438055556,142.50250704288484L452.0454689583334,82.85905666351319L452.5770347395833,92.82880504131317L453.5718623090277,112.00237555503845L454.3748761944445,108.58471555709839L454.68529775347224,323.17105253487824L455.46364184374994,79.13980264663697L458.28805213541665,151.61798686981203L459.2844868576389,274.1019509553909L460.4407529236111,222.75847567319872L460.76788887152776,301.64272492825984L461.9565390659722,140.15209693908693L462.79266029861105,78.52886409759522L465.2681577222222,81.66225607395172L465.64045466319453,215.4540244460106L466.7898099722222,218.3664254665375L467.46393020486113,97.2718080997467L469.14099412847224,79.29395670890808L469.87128435069445,209.75709457397463L471.94852931597217,83.28118915557862L472.7077482881944,280.67420981526374L472.85849921875,322.5473490178585L473.01937521180554,90.75493497848511L473.1751083159722,267.35757554769515L473.8067997152778,85.10467715263367L474.729466125,176.82990403175356L476.3723780520833,287.7921024084091L476.6133706111111,236.3723499298096L477.66364495138896,289.46509755849837L480.4711801388889,99.20684487819672L482.13619041666664,306.597382825613L483.11647325347224,236.74263961315157L483.8677368194444,170.01364488601686L484.16208685069444,105.1034743309021L485.9344549340278,329.2907443463802L486.4804047326389,174.13690556287767L488.23565663888894,290.8300211548805L488.90455362499995,273.54799218177794L489.7735411319445,94.42908282279969L490.08123053125,243.60589749813082L490.99666475347215,86.4040593624115L497.4177222465278,97.8297322511673L498.8333024131945,304.05507997870444L499.36342175694443,80.01198298931122L501.1049325069444,209.12003184556963L503.0400248090277,242.0442145586014L506.7609049201389,86.37941093444825L507.68469633680553,135.58301289081575L508.3380842986111,220.1462830424309L512.5234315625,92.90317840576172L515.3271095833334,337.68767352942376L515.6569776909722,144.6971183538437L516.6305104861111,147.7906312465668L517.5579983541667,222.61789627075197L520.5966421111111,166.1378035068512L521.119609625,120.95944304466248L521.6836398923612,196.20989949703218L521.9987221944444,226.86623532772066L522.1354908958333,78.36069602966309L522.2491969548611,107.70606894493103L527.1278699270833,121.8762113571167L537.3633438229167,82.92281813621521L537.7735695694445,122.48820884227753L538.2067776006944,245.82586694955828L541.6297719444444,93.62212843894959L546.5477398020834,160.3573528647423L547.7430596805556,227.89929510354997L552.4677674166667,193.13328452110292L552.9825384513889,171.0081661462784L554.4967174409722,301.2594491958618L555.4543394236111,78.19879145622254L556.1235578402778,90.47589404582978L556.9951167916666,110.79410691261292L566.2212987430556,80.38155169487L568.6976801006945,183.15089650154115L569.2582549895834,104.00623626708985L569.6762754270834,165.89012510776521L572.1918713125,188.44848353862764L573.1367967881944,234.07862670421602L574.9811653159722,252.32362852692606L575.3092655555555,172.55904568433763L575.4664450972222,119.08864088058472L576.7145599444444,238.6048125743866L578.6455540069445,84.42526824474335L579.3474779826389,101.87015933990479L581.9781460069445,100.95586938858033L582.2064420590277,339.65232122275046L582.5917569375001,178.56025071144106L583.7025405798611,99.03302164077759L584.6612875694443,209.93118817806246L587.0747488958333,101.43356223106385L588.2836492152778,223.69840539693834L589.0878684652777,236.02455700635912L589.3159234444445,186.0318786621094L589.8158283159722,196.602167737484L592.3640494027778,277.84416924118995L593.6402894236112,310.39642035663127L596.5964058854167,190.81997097730638L599.6878446111111,107.66026432514191L601.6975088020833,79.08604474067688L602.2896642430555,96.09611864089966L602.6005679479166,260.17634956240653L603.5117432152779,133.76288194656374L607.0839616944444,115.473432970047L609.3453863680555,135.9785818576813L609.855657375,336.3065604966134L610.4401788402777,79.45710046291352L610.6327961006945,339.76503398017957L610.9200746597222,128.59669311046602L611.1937727777777,78.33868367671967L611.7096688194445,85.27140326499939L612.741219829861,324.492834341526L613.4240186875,119.2696964263916L614.3952211111111,80.51754612922669L615.3583877708334,337.19673184007405L615.8144977291666,79.47987885475159L616.2246431180556,274.0120202422142L616.5586094652779,206.92641187906267L617.2001848541668,332.9564826607704L617.2386761631943,318.11378062963485L617.2639084618056,251.2200312137604L617.2796585590278,330.52208005338906L617.5138207187499,338.6799500070512L617.9187428611111,79.29535360336304L617.9650288611113,336.65443826168774L618.0494847395834,220.40790785551073L618.0953689513889,195.67800940275194L618.1353870555555,334.6885958768427L618.3321025555555,338.2404043877497L618.4371299895834,333.9610405795276L618.4983625104168,332.464927893877L618.85032896875,338.639036806114L619.0075085104168,282.1725086688995L619.3184925729167,264.10886655449866L619.7446291319444,92.50639278888703L620.1676317430556,306.6822357147932L621.0853159791667,223.14197952747347L621.2432990972222,329.8081585586071L621.2885404479167,96.82471175193787L621.6602748854167,130.4998266220093L621.8544992986111,135.56118078231813L622.6089771701388,134.08950741291048L622.9811133958334,131.47857649326326L623.3100172118056,111.66036171913147L623.4500805763888,87.52693719863892L623.5206345833333,205.1855546951294L623.5897421527778,149.42432184219362L624.627319986111,188.71432156562807L625.9774890347221,83.93908138275147L627.50870384375,279.37815086245536L629.2449109895833,238.9445958852768L629.3874654409722,330.5595547042787L631.1584674444443,214.0499540090561L631.6521847777778,127.9076861858368L640.8173752812501,166.5226479291916L641.8677299791667,116.70513339042664L642.1515531597222,220.29170651435854L643.4010340868056,272.4611688673496L643.9469035277777,129.8196291446686L644.1256189166668,302.1042014032602L644.6031843645833,305.2425444692373L644.9631865868055,235.77925558090212L649.7246177638889,274.3592217385769L651.1126352604166,153.99892587661745L652.3478125277778,181.25733847618105L656.9981090902778,157.57202417850496L660.2971919548611,94.50724132061005L667.3202888784723,155.60042030811312L668.9681026215278,220.32979441881182L670.6920954062501,338.9845513271168L671.7579591284722,304.6128182530403L672.1692295243056,94.327920627594L677.4759676388888,135.98849530220033L678.0104262951389,78.85100598335266L678.7027877118056,217.53598297834398L684.0629636562501,340.01793738895793L692.6343112083333,339.3022719433531L695.7633573090278,79.74136848449707L696.2136011597223,296.65544841885566L696.5405763923611,108.50459690093994L698.5566691944445,168.77784390449526L703.4074580659723,78.75876588821411L704.8784850034723,116.48070652484894L713.1379645590278,318.45016605108975L717.1399356909722,297.88053612113L722.1860739826388,84.69770772457123L722.5596566458333,89.032834482193L728.6866051805555,338.31609279736875L732.0024024340278,338.00783730279653L734.5957041562501,333.8333549916744L737.0789962708334,98.39135141372681L739.0994283854167,106.5860524892807L745.0523222743055,85.8966712474823L748.7057823263889,80.36077852249146L756.3800975555555,123.09446103572846L793.3479061076389,160.14816792011263L806.9834724201388,202.66842974424364L816.9416321041667,81.67728395462036L841.2990771006945,166.5934839963913L854.3021484374999,339.7307470508851L860.3001229618055,102.84582252502442L863.0450595486111,80.95026798248291L881.6340314375,333.81842145770787L884.15010946875,89.530894947052L891.2243942083334,335.24265779815613L898.4818140069444,221.8307237148285L913.9870615034722,340.1215198146994L916.8364630208333,171.45750428438188L931.1244530034724,310.8833422780037L941.2299082395832,80.13668961524964L949.1524482152778,340.0383685655426L954.2995960590277,150.28981060981752L964.1725766458334,313.49585033655165L980.8700100729167,336.2935857128352L982.1877949930556,94.55714650154114L985.6960487916666,219.06633718013765L986.7656089652778,102.98012716770172L987.4064611354167,149.9044930458069L987.7821330972223,191.06101412773134L988.3446365694443,86.04131741523743L988.8811845243056,144.25189204216005L991.9946412430554,97.39306755065918L992.53890353125,146.56388754844667L992.6909401840277,193.1097062945366L993.7038482222222,251.0173970282078L993.972403451389,215.4003341317177L994.6323003819446,155.73153687715532L994.9519630694444,305.61650944948195L995.8305131354168,212.24758840799333L995.9723443680556,221.64554507732393L996.6191430034723,271.4865927815437L997.9265617881944,221.03342367410661L1002.8839852465278,170.2215455889702L1004.3583068472221,80.99118347167969L1006.2273451701388,109.85888607501984L1009.8208584236111,78.80806274414063L1010.1628605347222,86.53861184120179L1011.6530125902777,149.3699105501175L1012.4644640277778,94.11061341762543L1016.06087015625,247.86989529132845L1016.5441409965277,331.8898565813899L1016.8799555694445,210.03919966220857L1017.2876098715278,79.92370827198029L1019.5942758958333,219.81721301078798L1020.3999415833332,162.69698209762575L1025.4940533854167,339.60785321057773L1028.0946676527778,250.8319423913956L1029.3961399722223,338.6867310002446L1034.6880119236112,340.12864897538674L1035.6052140138888,91.70572443008423L1040.1420455902778,339.772109850822L1046.5305582395833,146.546403837204L1058.132594142361,340.1805965256164L1058.3608098368054,92.16624898910523L1060.217071295139,340.0948642090545L1061.6441426041667,340.1188081336033L1063.3054564305558,134.44535501003267L1071.8348572951388,299.3891990303993L1072.8925245381945,340.12865777638507L1075.1762082777777,125.901655626297L1075.6985329305558,340.1112989458081L1076.4009390520832,340.00173993261996L1077.5203209618055,284.5080148100853L1080.4718570381945,340.1025921016582L1083.1095965347222,340.15691063396224L1085.2525740486112,340.19397016032525L1087.7921165104167,340.0981281913002L1093.4419013854167,321.3703527867794L1098.6538174861112,151.1351570606232L1103.7025272222222,115.36979241371155L1105.019588923611,157.78981579542162L1105.5399046354166,338.62088421899824L1105.645414215278,139.7960465669632L1105.7142807118055,339.8573710403172L1105.7940758472223,337.5291446669027L1105.85426371875,119.21729035377503L1106.2205338368055,259.6909963309765L1106.6637062152777,339.42353737894445L1106.9181988576388,220.15814538002016L1107.592078017361,79.60668082237244L1109.6458585520834,134.3915069818497L1109.8822707256945,86.92681331634522L1109.9750837986112,335.08441479206084L1110.17549575,88.40315051078797L1110.3989703437499,295.6147141724825L1110.4602832222222,318.9088952064514L1110.7362313541666,90.97517116069794L1110.777133392361,337.5503313101828L1110.8346694618056,340.09033432421273L1111.5717097256945,265.107831966877L1112.0038731076388,335.71806484535335L1113.5382218645834,293.74912219941615L1114.3316731909722,189.33337111473085L1115.1141958784722,329.63975814431905L1115.3213578715277,223.76725877523424L1115.4192334756945,334.98728028573095L1117.3723258888888,175.47568244934084L1117.4141118611112,78.40922684669495L1117.4843444374999,331.78959701657294L1117.8613824791667,239.16517002582552L1117.9789457048612,287.78560797572135L1118.3188585173612,109.86512703895569L1118.5805833472223,297.97787938714026L1118.9444427361111,78.57608814239502L1119.0087288472223,240.49625272750856L1119.1298278090278,212.21571893692018L1119.512330170139,332.70461991503834L1119.5909199409723,174.20239062309267L1119.96136865625,182.61346389055254L1121.0530271805555,79.78390617370606L1122.1579447152778,82.22094626426697L1122.7750913819443,107.07462759017945L1123.0435662534721,152.22744966745378L1123.2233262916666,219.38540364503862L1123.8230353506945,132.18164248466493L1124.1439034027778,160.185839009285L1124.5857900590277,164.02373893260958L1125.337616128472,91.25427968502045L1125.8073065277777,160.7075114965439L1127.292637125,334.2180677510798L1128.6588777013887,340.18114101725513L1129.8026883333334,339.6688458452001L1132.12590803125,340.1006454418413L1136.0142534618058,190.56272835731508L1139.931688357639,156.05540235042574L1141.721494048611,316.54295028448104L1145.2738641909723,339.112884932477L1157.835611375,339.1489579363726L1159.2787542118056,340.06336445691994L1175.7437129895834,293.8771380007267L1176.8868004027777,219.5795719742775L1177.1255429479168,90.63295454978943L1185.4355674583333,78.68662304878235L1189.0161431319445,331.824682020396L1190.8154310243058,336.4493640873581L1192.5988884618055,277.6012898504734L1194.3823458993058,335.4916778214276L1199.9819876076388,154.90851820707323L1203.582652690972,338.94458212126045L1226.0731486631944,335.4487905565649L1229.266480875,81.59937329292298L1234.7549076111113,117.9305703163147L1235.0325432534723,79.70101625919342L1235.1967139097223,82.73072261810303L1235.7201635694444,315.1439548552036L1235.8131373576389,120.09028179645539L1236.0399869722223,283.8982929110527L1237.7072472638888,84.48191006183625L1238.123098045139,258.76612265110015L1238.51138615625,211.54745138883592L1240.122074670139,312.34015674591063L1241.7002986979167,93.50158996582032L1242.7091888541668,82.21583182811737L1242.8114037708333,254.53998745679857L1243.3159693854166,222.28025336265566L1244.8708093402777,136.03580946922304L1245.0397210972224,146.77432293891908L1246.8554823055556,296.4313933074474L1246.9355988715276,79.57227666378022L1247.0571799791667,103.59142620563507L1247.3298334479168,282.7338180363178L1247.4807450937499,295.17247034311293L1247.6513443611113,159.44305164813997L1247.719487638889,99.26332898139954L1247.777988,273.01964501738547L1247.858104565972,334.1861891269684L1248.589519795139,78.19311375617981L1248.6976008194445,338.94421890405937L1248.8294677048611,309.1300876557827L1248.948959513889,192.09058166742327L1249.0719870590278,329.4614977955818L1249.8075005277776,323.32137499451636L1251.997005114583,80.90633339881897L1254.840138736111,81.66791124343872L1255.6505455243052,121.4149658203125L1255.8101357951389,157.3060734987259L1259.029986027778,213.89007718563082L1260.065554920139,80.5145045042038L1264.60945796875,332.2886558666825L1265.1752561041667,116.4830046415329L1265.8415012881946,336.565493260324L1266.7546854965276,78.41111941337586L1267.5573779513886,254.25859208106996L1269.002931517361,249.98790271282198L1271.1320071597222,297.88317782878875L1271.4457233819444,329.6662428125739L1275.9868139131945,78.754349899292L1277.8258788368057,288.17313916683196L1279.85346278125,80.22379274368286L1282.0669943020832,279.5651206791401L1283.7793352291667,312.2997876226902L1285.7799993645833,322.01230605393647L1287.5008582013888,319.9750608175993L1290.995852989583,285.24311925172805L1293.3844838055556,339.9962145998608L1296.8032995520832,78.26735193729401L1298.2340673125002,153.23624403476717L1304.0005314791665,270.17585517168044L1308.2009056215277,262.9769370675087L1309.4175202743056,332.2635849907994L1309.961139701389,97.8229956150055L1310.8079484999998,89.73668904304505L1314.3269702222221,177.32248957157137L1315.1170465277778,269.85926706790923L1315.850309982639,94.71258480548859L1323.7302604097224,79.55427474975586L1325.61006665625,335.11862251237034L1325.9170328368054,130.48853881359102L1326.6785821805556,80.82571907043457L1327.8671520173611,339.23302348824217L1328.2718330868056,339.7165923172608L1328.91951565625,80.56274242401123L1330.9044296944446,340.0036321912659L1332.1013567256946,339.40092831831424L1333.9861451458335,270.08724812865256L1336.661009871528,139.23267002105715L1337.3157639131944,331.45744945183395L1337.8835709895832,244.35598475933077L1338.3123593506944,337.127526069805L1339.8986995,198.66527945995333L1340.4551761493055,115.67834837436676L1344.2801194027777,258.4097117900848L1345.7014049618056,188.86351890563967L1346.23047965625,86.81677408218384L1352.2939456562501,79.53652067184449L1352.7071446354166,151.70308477878572L1353.8194550729168,169.89161939620973L1354.222689704861,151.52329094409944L1357.1288237152778,248.63681287765505L1358.3828850277778,78.98828465938568L1361.0436871666666,338.23314374014734L1361.9926305243055,303.65199143886565L1362.3472487847223,80.33428258895874L1363.0422620034722,151.9806386947632" style="fill: none;" fill="none"></path></g></g></g></g></g></g><g transform="translate(51, 378)" clip-path="url(#clip_1)"><clipPath id="clip_1"><rect width="1446" height="22"></rect></clipPath><g><g><line x1="0" y1="0" x2="0" y2="5" style="visibility: inherit;" fill="rgb(0, 0, 0)" stroke="rgb(204, 204, 204)" stroke-width="1px"></line><line x1="144.64375" y1="0" x2="144.64375" y2="5" style="visibility: inherit;" fill="rgb(0, 0, 0)" stroke="rgb(204, 204, 204)" stroke-width="1px"></line><line x1="289.2875" y1="0" x2="289.2875" y2="5" style="visibility: inherit;" fill="rgb(0, 0, 0)" stroke="rgb(204, 204, 204)" stroke-width="1px"></line><line x1="433.93125" y1="0" x2="433.93125" y2="5" style="visibility: inherit;" fill="rgb(0, 0, 0)" stroke="rgb(204, 204, 204)" stroke-width="1px"></line><line x1="578.575" y1="0" x2="578.575" y2="5" style="visibility: inherit;" fill="rgb(0, 0, 0)" stroke="rgb(204, 204, 204)" stroke-width="1px"></line><line x1="723.21875" y1="0" x2="723.21875" y2="5" style="visibility: inherit;" fill="rgb(0, 0, 0)" stroke="rgb(204, 204, 204)" stroke-width="1px"></line><line x1="867.8625" y1="0" x2="867.8625" y2="5" style="visibility: inherit;" fill="rgb(0, 0, 0)" stroke="rgb(204, 204, 204)" stroke-width="1px"></line><line x1="1012.5062499999999" y1="0" x2="1012.5062499999999" y2="5" style="visibility: inherit;" fill="rgb(0, 0, 0)" stroke="rgb(204, 204, 204)" stroke-width="1px"></line><line x1="1157.15" y1="0" x2="1157.15" y2="5" style="visibility: inherit;" fill="rgb(0, 0, 0)" stroke="rgb(204, 204, 204)" stroke-width="1px"></line><line x1="1301.79375" y1="0" x2="1301.79375" y2="5" style="visibility: inherit;" fill="rgb(0, 0, 0)" stroke="rgb(204, 204, 204)" stroke-width="1px"></line><line x1="1446.4375" y1="0" x2="1446.4375" y2="5" style="visibility: inherit;" fill="rgb(0, 0, 0)" stroke="rgb(204, 204, 204)" stroke-width="1px"></line></g><g transform="translate(0, 8)"><text x="0" y="0" dx="0em" dy="0.95em" style="text-anchor: middle; visibility: hidden; font-family: Roboto, sans-serif; font-size: 12px; font-weight: 200;" fill="rgb(50, 49, 63)" stroke="none" stroke-width="1px">-0.5</text><text x="144.64375" y="0" dx="0em" dy="0.95em" style="text-anchor: middle; visibility: inherit; font-family: Roboto, sans-serif; font-size: 12px; font-weight: 200;" fill="rgb(50, 49, 63)" stroke="none" stroke-width="1px">0</text><text x="289.2875" y="0" dx="0em" dy="0.95em" style="text-anchor: middle; visibility: inherit; font-family: Roboto, sans-serif; font-size: 12px; font-weight: 200;" fill="rgb(50, 49, 63)" stroke="none" stroke-width="1px">0.5</text><text x="433.93125" y="0" dx="0em" dy="0.95em" style="text-anchor: middle; visibility: inherit; font-family: Roboto, sans-serif; font-size: 12px; font-weight: 200;" fill="rgb(50, 49, 63)" stroke="none" stroke-width="1px">1</text><text x="578.575" y="0" dx="0em" dy="0.95em" style="text-anchor: middle; visibility: inherit; font-family: Roboto, sans-serif; font-size: 12px; font-weight: 200;" fill="rgb(50, 49, 63)" stroke="none" stroke-width="1px">1.5</text><text x="723.21875" y="0" dx="0em" dy="0.95em" style="text-anchor: middle; visibility: inherit; font-family: Roboto, sans-serif; font-size: 12px; font-weight: 200;" fill="rgb(50, 49, 63)" stroke="none" stroke-width="1px">2</text><text x="867.8625" y="0" dx="0em" dy="0.95em" style="text-anchor: middle; visibility: inherit; font-family: Roboto, sans-serif; font-size: 12px; font-weight: 200;" fill="rgb(50, 49, 63)" stroke="none" stroke-width="1px">2.5</text><text x="1012.5062499999999" y="0" dx="0em" dy="0.95em" style="text-anchor: middle; visibility: inherit; font-family: Roboto, sans-serif; font-size: 12px; font-weight: 200;" fill="rgb(50, 49, 63)" stroke="none" stroke-width="1px">3</text><text x="1157.15" y="0" dx="0em" dy="0.95em" style="text-anchor: middle; visibility: inherit; font-family: Roboto, sans-serif; font-size: 12px; font-weight: 200;" fill="rgb(50, 49, 63)" stroke="none" stroke-width="1px">3.5</text><text x="1301.79375" y="0" dx="0em" dy="0.95em" style="text-anchor: middle; visibility: inherit; font-family: Roboto, sans-serif; font-size: 12px; font-weight: 200;" fill="rgb(50, 49, 63)" stroke="none" stroke-width="1px">4</text><text x="1446.4375" y="0" dx="0em" dy="0.95em" style="text-anchor: middle; visibility: hidden; font-family: Roboto, sans-serif; font-size: 12px; font-weight: 200;" fill="rgb(50, 49, 63)" stroke="none" stroke-width="1px">4.5</text></g><line x1="0" y1="0" x2="1446.4375" y2="0" fill="rgb(0, 0, 0)" stroke="rgb(204, 204, 204)" stroke-width="1px"></line></g></g></g></g></svg>