<svg viewBox="0 0 1498 400" xmlns="http://www.w3.org/2000/svg"><g><g><g><g><g><line x1="51.5625" y1="378" x2="46.5625" y2="378" style="visibility: inherit;" fill="rgb(0, 0, 0)" stroke="rgb(204, 204, 204)" stroke-width="1px"></line><line x1="51.5625" y1="343.6363636363636" x2="46.5625" y2="343.6363636363636" style="visibility: inherit;" fill="rgb(0, 0, 0)" stroke="rgb(204, 204, 204)" stroke-width="1px"></line><line x1="51.5625" y1="309.27272727272725" x2="46.5625" y2="309.27272727272725" style="visibility: inherit;" fill="rgb(0, 0, 0)" stroke="rgb(204, 204, 204)" stroke-width="1px"></line><line x1="51.5625" y1="274.90909090909093" x2="46.5625" y2="274.90909090909093" style="visibility: inherit;" fill="rgb(0, 0, 0)" stroke="rgb(204, 204, 204)" stroke-width="1px"></line><line x1="51.5625" y1="240.54545454545453" x2="46.5625" y2="240.54545454545453" style="visibility: inherit;" fill="rgb(0, 0, 0)" stroke="rgb(204, 204, 204)" stroke-width="1px"></line><line x1="51.5625" y1="206.18181818181816" x2="46.5625" y2="206.18181818181816" style="visibility: inherit;" fill="rgb(0, 0, 0)" stroke="rgb(204, 204, 204)" stroke-width="1px"></line><line x1="51.5625" y1="171.81818181818184" x2="46.5625" y2="171.81818181818184" style="visibility: inherit;" fill="rgb(0, 0, 0)" stroke="rgb(204, 204, 204)" stroke-width="1px"></line><line x1="51.5625" y1="137.45454545454547" x2="46.5625" y2="137.45454545454547" style="visibility: inherit;" fill="rgb(0, 0, 0)" stroke="rgb(204, 204, 204)" stroke-width="1px"></line><line x1="51.5625" y1="103.09090909090908" x2="46.5625" y2="103.09090909090908" style="visibility: inherit;" fill="rgb(0, 0, 0)" stroke="rgb(204, 204, 204)" stroke-width="1px"></line><line x1="51.5625" y1="68.7272727272727" x2="46.5625" y2="68.7272727272727" style="visibility: inherit;" fill="rgb(0, 0, 0)" stroke="rgb(204, 204, 204)" stroke-width="1px"></line><line x1="51.5625" y1="34.363636363636374" x2="46.5625" y2="34.363636363636374" style="visibility: inherit;" fill="rgb(0, 0, 0)" stroke="rgb(204, 204, 204)" stroke-width="1px"></line><line x1="51.5625" y1="0" x2="46.5625" y2="0" style="visibility: inherit;" fill="rgb(0, 0, 0)" stroke="rgb(204, 204, 204)" stroke-width="1px"></line></g><g transform="translate(41.5625, 0)"><text x="0" y="378" dx="0em" dy="0.3em" style="text-anchor: end; visibility: hidden; font-family: Roboto, sans-serif; font-size: 12px; font-weight: 200;" fill="rgb(50, 49, 63)" stroke="none" stroke-width="1px">-100</text><text x="0" y="343.6363636363636" dx="0em" dy="0.3em" style="text-anchor: end; visibility: inherit; font-family: Roboto, sans-serif; font-size: 12px; font-weight: 200;" fill="rgb(50, 49, 63)" stroke="none" stroke-width="1px">0</text><text x="0" y="309.27272727272725" dx="0em" dy="0.3em" style="text-anchor: end; visibility: inherit; font-family: Roboto, sans-serif; font-size: 12px; font-weight: 200;" fill="rgb(50, 49, 63)" stroke="none" stroke-width="1px">100</text><text x="0" y="274.90909090909093" dx="0em" dy="0.3em" style="text-anchor: end; visibility: inherit; font-family: Roboto, sans-serif; font-size: 12px; font-weight: 200;" fill="rgb(50, 49, 63)" stroke="none" stroke-width="1px">200</text><text x="0" y="240.54545454545453" dx="0em" dy="0.3em" style="text-anchor: end; visibility: inherit; font-family: Roboto, sans-serif; font-size: 12px; font-weight: 200;" fill="rgb(50, 49, 63)" stroke="none" stroke-width="1px">300</text><text x="0" y="206.18181818181816" dx="0em" dy="0.3em" style="text-anchor: end; visibility: inherit; font-family: Roboto, sans-serif; font-size: 12px; font-weight: 200;" fill="rgb(50, 49, 63)" stroke="none" stroke-width="1px">400</text><text x="0" y="171.81818181818184" dx="0em" dy="0.3em" style="text-anchor: end; visibility: inherit; font-family: Roboto, sans-serif; font-size: 12px; font-weight: 200;" fill="rgb(50, 49, 63)" stroke="none" stroke-width="1px">500</text><text x="0" y="137.45454545454547" dx="0em" dy="0.3em" style="text-anchor: end; visibility: inherit; font-family: Roboto, sans-serif; font-size: 12px; font-weight: 200;" fill="rgb(50, 49, 63)" stroke="none" stroke-width="1px">600</text><text x="0" y="103.09090909090908" dx="0em" dy="0.3em" style="text-anchor: end; visibility: inherit; font-family: Roboto, sans-serif; font-size: 12px; font-weight: 200;" fill="rgb(50, 49, 63)" stroke="none" stroke-width="1px">700</text><text x="0" y="68.7272727272727" dx="0em" dy="0.3em" style="text-anchor: end; visibility: inherit; font-family: Roboto, sans-serif; font-size: 12px; font-weight: 200;" fill="rgb(50, 49, 63)" stroke="none" stroke-width="1px">800</text><text x="0" y="34.363636363636374" dx="0em" dy="0.3em" style="text-anchor: end; visibility: inherit; font-family: Roboto, sans-serif; font-size: 12px; font-weight: 200;" fill="rgb(50, 49, 63)" stroke="none" stroke-width="1px">900</text><text x="0" y="0" dx="0em" dy="0.3em" style="text-anchor: end; visibility: hidden; font-family: Roboto, sans-serif; font-size: 12px; font-weight: 200;" fill="rgb(50, 49, 63)" stroke="none" stroke-width="1px">1e+3</text></g><line x1="51.5625" y1="0" x2="51.5625" y2="378" fill="rgb(0, 0, 0)" stroke="rgb(204, 204, 204)" stroke-width="1px"></line></g></g><g transform="translate(51, 0)" clip-path="url(#clip_0)"><clipPath id="clip_0"><rect width="1446" height="378"></rect></clipPath><g><g><g><line x1="0" y1="0" x2="0" y2="378" fill="rgb(0, 0, 0)" stroke="rgb(60, 60, 60)" stroke-width="1px" opacity="0.25"></line><line x1="144.64375" y1="0" x2="144.64375" y2="378" fill="rgb(0, 0, 0)" stroke="rgb(60, 60, 60)" stroke-width="1px" opacity="0.25"></line><line x1="289.2875" y1="0" x2="289.2875" y2="378" fill="rgb(0, 0, 0)" stroke="rgb(60, 60, 60)" stroke-width="1px" opacity="0.25"></line><line x1="433.93125" y1="0" x2="433.93125" y2="378" fill="rgb(0, 0, 0)" stroke="rgb(60, 60, 60)" stroke-width="1px" opacity="0.25"></line><line x1="578.575" y1="0" x2="578.575" y2="378" fill="rgb(0, 0, 0)" stroke="rgb(60, 60, 60)" stroke-width="1px" opacity="0.25"></line><line x1="723.21875" y1="0" x2="723.21875" y2="378" fill="rgb(0, 0, 0)" stroke="rgb(60, 60, 60)" stroke-width="1px" opacity="0.25"></line><line x1="867.8625" y1="0" x2="867.8625" y2="378" fill="rgb(0, 0, 0)" stroke="rgb(60, 60, 60)" stroke-width="1px" opacity="0.25"></line><line x1="1012.5062499999999" y1="0" x2="1012.5062499999999" y2="378" fill="rgb(0, 0, 0)" stroke="rgb(60, 60, 60)" stroke-width="1px" opacity="0.25"></line><line x1="1157.15" y1="0" x2="1157.15" y2="378" fill="rgb(0, 0, 0)" stroke="rgb(60, 60, 60)" stroke-width="1px" opacity="0.25"></line><line x1="1301.79375" y1="0" x2="1301.79375" y2="378" fill="rgb(0, 0, 0)" stroke="rgb(60, 60, 60)" stroke-width="1px" opacity="0.25"></line><line x1="1446.4375" y1="0" x2="1446.4375" y2="378" fill="rgb(0, 0, 0)" stroke="rgb(60, 60, 60)" stroke-width="1px" opacity="0.25"></line></g><g><line x1="0" y1="378" x2="1446.4375" y2="378" fill="rgb(0, 0, 0)" stroke="rgb(60, 60, 60)" stroke-width="1px" opacity="0.25"></line><line x1="0" y1="343.6363636363636" x2="1446.4375" y2="343.6363636363636" fill="rgb(0, 0, 0)" stroke="rgb(60, 60, 60)" stroke-width="1px" opacity="0.25"></line><line x1="0" y1="309.27272727272725" x2="1446.4375" y2="309.27272727272725" fill="rgb(0, 0, 0)" stroke="rgb(60, 60, 60)" stroke-width="1px" opacity="0.25"></line><line x1="0" y1="274.90909090909093" x2="1446.4375" y2="274.90909090909093" fill="rgb(0, 0, 0)" stroke="rgb(60, 60, 60)" stroke-width="1px" opacity="0.25"></line><line x1="0" y1="240.54545454545453" x2="1446.4375" y2="240.54545454545453" fill="rgb(0, 0, 0)" stroke="rgb(60, 60, 60)" stroke-width="1px" opacity="0.25"></line><line x1="0" y1="206.18181818181816" x2="1446.4375" y2="206.18181818181816" fill="rgb(0, 0, 0)" stroke="rgb(60, 60, 60)" stroke-width="1px" opacity="0.25"></line><line x1="0" y1="171.81818181818184" x2="1446.4375" y2="171.81818181818184" fill="rgb(0, 0, 0)" stroke="rgb(60, 60, 60)" stroke-width="1px" opacity="0.25"></line><line x1="0" y1="137.45454545454547" x2="1446.4375" y2="137.45454545454547" fill="rgb(0, 0, 0)" stroke="rgb(60, 60, 60)" stroke-width="1px" opacity="0.25"></line><line x1="0" y1="103.09090909090908" x2="1446.4375" y2="103.09090909090908" fill="rgb(0, 0, 0)" stroke="rgb(60, 60, 60)" stroke-width="1px" opacity="0.25"></line><line x1="0" y1="68.7272727272727" x2="1446.4375" y2="68.7272727272727" fill="rgb(0, 0, 0)" stroke="rgb(60, 60, 60)" stroke-width="1px" opacity="0.25"></line><line x1="0" y1="34.363636363636374" x2="1446.4375" y2="34.363636363636374" fill="rgb(0, 0, 0)" stroke="rgb(60, 60, 60)" stroke-width="1px" opacity="0.25"></line><line x1="0" y1="0" x2="1446.4375" y2="0" fill="rgb(0, 0, 0)" stroke="rgb(60, 60, 60)" stroke-width="1px" opacity="0.25"></line></g></g></g><g><g><line x1="0" y1="343.6363636363636" x2="1446.4375" y2="343.6363636363636" fill="rgb(0, 0, 0)" stroke="rgb(153, 153, 153)" stroke-width="1.5px"></line></g></g><g><g><line x1="144.64375" y1="0" x2="144.64375" y2="378" fill="rgb(0, 0, 0)" stroke="rgb(153, 153, 153)" stroke-width="1.5px"></line></g></g><g><g><g><g><g><path stroke="rgb(187, 187, 187)" stroke-width="2px" d="M144.64375,340.5436363636364L145.0315559652778,339.61488943488945L145.21758389930557,339.5751762523191L145.6374525625,338.0458597903881L145.69804222222223,338.07075361821035L145.76385512847224,337.01114670507224L145.78161416666666,337.7151676999326L145.844293125,337.23557048417814L146.0158566840278,337.1434418020855L146.07114273958334,337.6501349984437L146.25226885763888,338.1713884459052L146.4040644375,338.04539501576505L146.47084163541666,338.4716702335465L146.49631500694443,338.35846773313943L146.62062827430557,338.15282469527295L146.81477232986109,338.4288507725002L146.96600540625,338.82245582821037L147.19984613541666,339.14973575620826L147.28092699305554,339.0447613448003L147.31403434027777,338.58154774667963L147.49146400694443,338.83258619741724L147.65442929861112,339.09663817075824L147.97168125694444,338.68535253205187L148.1033874270833,337.54938410583617L148.40480893055556,337.9539338597035L148.63431034722223,338.400462101465L148.76987368402777,338.2040431073056L148.89450838194446,335.9539447181402L149.2461534097222,336.59662256351913L149.2659213888889,337.03740174990605L149.51559257291666,337.41112459916434L149.63910226388887,336.79515081706046L149.7069241111111,336.2725199296993L149.7244420763889,336.8639979772358L149.82858557638886,337.4695394372064L150.0931229236111,336.3294638191328L150.32318684375,336.7047805453812L150.3485798576389,336.86858588378294L150.36127636458335,337.47245619869335L150.49386646875,336.9013661832817L150.7814664583333,336.6226234954426L150.97561051388888,337.0050086531784L151.0884326388889,337.3299207557164L151.1600312951389,337.76077051932856L151.43887230208333,337.6626804657459L151.57604279166668,337.7856207801786L151.71088290972222,338.04481158122167L151.78264228125,338.00725628847835L151.85207128125,338.43940912551926L151.92816996527776,338.65201518350517L151.97461668055556,338.67803762983965L152.44824460416666,338.8032678367119L152.6395761423611,337.87860970956314L152.67212098611108,337.8144447102664L152.84617563194445,337.2443850116329L152.95289057638888,337.63622551417086L152.9881675798611,337.91772746866764L153.27078539583331,337.7445998500269L153.31490173958332,337.28815133119684L153.5168404861111,337.4672117852103L153.53692989583334,337.8256023011417L153.66236817013888,337.0477292307839L153.90488752430554,336.18035701112456L154.1481300972222,336.8348688083042L154.65333857291665,337.2365579561254L154.80746452430557,337.42335109211496L155.01430508680556,337.6852169528382L155.14962735069443,336.5160522227483L155.18876152083334,336.7593749436852L155.57889785763888,337.1208364821826L155.66504124652778,335.2116014969023L156.50630536805554,333.8464863294055L157.11662163541666,333.45932883616814L157.16941660416666,333.3364287752939L157.26415826041668,333.7989668117016L157.41257881944443,334.7075802638173L157.86362624652776,333.3665292049737L157.96801081944443,333.4121863304854L157.9958145625,334.12108753590525L158.19060147916667,333.7958327623581L158.5534965763889,333.570911961977L158.94644543055557,332.7611829382318L159.07967839583333,333.25846073219066L159.11069644444444,333.9388742421531L159.45575214583334,334.62031651550086L159.9432819409722,335.45726975058375L160.01656810763888,335.4470429169606L160.0908989236111,334.9744407342272L160.6609560138889,335.6036385893626L160.84409107291665,336.03536572005925L160.90741289236112,336.5569701499582L161.0121188958333,336.84569744742635L161.27987054861114,335.02929688012085L161.57373843402777,335.75335706149707L161.6221940902778,335.8533535219869L161.75253418055556,336.1960778238491L161.9719105347222,335.71421153617956L162.20607269444446,335.61389797542535L162.6622630104167,335.32244961275387L162.74141528472222,334.86853667658846L162.9099252534722,334.0188015664634L163.2172128645833,333.45116311379985L163.3738299027778,333.4325795548225L163.58324190972223,334.3961472110534L163.6144206736111,335.31827061973206L163.6268761076389,336.2051664196689L163.7005640625,336.64975510554984L163.76476981597224,336.30601910425116L163.87992231249999,333.3334798147502L164.1200309375,333.0232760190135L164.16800444791664,333.06887552591996L164.75284734374998,331.81899872693447L165.12104604513888,332.2514216497405L165.2649665763889,332.00043567275037L165.59274538541666,332.4056430522069L165.88797935069445,333.420160237329L166.00007825694445,333.56086347523376L166.53461727083334,333.7320066820246L166.93664653819445,333.3104784053122L167.00615589583336,332.9521793705733L167.11496013888888,332.38989791791226L167.19700528819445,332.0150495929435L167.2538984965278,332.16033760884994L167.29480053472224,332.79928696865335L167.42899779166666,332.1568484678434L168.2574850486111,332.59013938003915L168.50233477430552,330.53580028898216L168.6884430659722,331.212248428078L168.8571941076389,330.80786570900324L169.06708826041665,331.3919585803154L169.29345572916668,331.0121647930526L169.36071507291666,331.10170371050157L169.54746622569442,332.5695390636189L169.8832807986111,332.8378354768968L169.93157573958334,333.0143419735964L170.41227513541668,333.42209976856867L170.6443479965278,332.634693894024L170.8785905138889,333.82103526468165L171.0542523125,331.94287997468905L171.49927291666665,331.99590252394717L171.72620288888888,331.68015350895615L171.88932889583333,331.92722139172713L171.97241869444446,331.2094109101829L172.03027619444444,331.4755447282191L172.4680646111111,329.8461221098004L172.92795137847222,329.23429470239086L173.02454126041667,331.03378686074444L173.0835237673611,331.3262642861887L173.23933722916667,332.2965064614717L173.57491072916667,331.4717577649569L173.81389434722223,332.0593577365899L173.88822516319445,331.8371813488246L173.93772546875002,332.26687687378046L174.1149944201389,332.0135726154372L174.60332779166666,332.36526399585296L174.85524898958332,330.9632016691886L174.92837444097225,330.23535778244064L174.97843724999998,330.44141775143964L175.09142009027778,330.20420508872223L175.19612609375,328.40466523449567L175.41855603819445,329.6585109038722L175.81841564930554,328.76555245010627L175.85835339583332,329.5529014007746L175.9394342534722,330.1190570997508L176.05691712152776,329.31165308024094L176.23161462847224,330.8418142091168L176.27862384722224,331.11154207774973L176.36902619097222,329.6913562206308L176.44391951041666,329.10274369662636L176.63862606944446,328.4993321421318L176.85293989236112,328.96579595717606L177.1712365,329.00147201814514L177.208843875,329.85652394269664L177.22660291319445,331.4080453512929L177.50311354861114,331.69592945769006L177.9594645798611,331.2189945844909L178.07429564583333,330.8651453968172L178.51674480555556,330.2551008600217L178.69208517361113,330.76747209465486L178.81848773958333,330.2751694622748L179.08527510069445,331.5577122247519L180.71629409722223,327.59641902740225L180.9189560625,323.71386526420054L181.00501909374998,323.71260365638864L181.33745864583332,324.02080401702125L181.4113073159722,325.10750159628634L181.63060331250003,325.6703763568434L181.74615759722224,325.27254717604416L182.20901759722224,326.42921055418304L182.58155561111113,326.74228351651016L182.85372693402778,327.3692137163064L183.3574889722222,328.15983165886047L183.42740011805554,328.26485691003137L183.45367706597224,329.745855646254L183.52728466319445,329.3552500265886L183.8442955486111,330.05414434078216L184.07162730902775,328.4317499623921L184.16403859375,328.805260195306L184.26167312500002,327.6279257114646L184.43974565277776,326.26637321838126L185.1149908923611,326.191508144715L185.24348275694442,324.27223646846227L185.52778808333332,324.4449464527384L186.06972000000002,323.7154772121003L186.2947213888889,325.9819738121035L186.8103763576389,324.6611322857425L186.94449325694447,324.930144261063L187.09162809374996,325.1588044400853L187.25957555902775,326.1263474104362L187.32257594791668,326.6394862079616L187.81757900347222,327.5911087313129L187.8444184548611,329.12162423979777L188.21446538194442,327.12365333110085L188.39816294444444,323.10583260416297L188.49660105208332,322.73186680444763L188.54433348958332,324.3211776928714L188.7722277534722,326.3937283116679L188.8541121875,326.1966690649177L189.0513901909722,327.5239868869983L189.11487272569445,327.8790252175849L189.71811752083332,328.79935325312897L190.13019149305555,327.62290481061416L190.49212229861112,321.1591054526584L190.58075677430557,322.21114872566875L190.65315900694443,322.95074914409116L191.24949304513888,323.52786404520475L191.31273450694442,324.6885026202422L191.52793226388889,324.95340904538773L191.98950654166666,324.2507613249432L192.0260692673611,326.6946925807472L192.2654546736111,327.122579602726L192.3486248298611,326.8161926623171L192.65374278472223,328.0505819447877L192.98144123611112,329.76990374397866L193.70530284722219,329.7365090914728L193.95818833680553,327.64630545502456L194.7750237361111,326.8489960004072L195.27878577430553,322.87237387307346L195.4532422083333,323.0488814284761L195.7877710590278,322.32264012329557L196.01703140277777,324.07642592298305L196.30583675694444,321.7012347618083L196.70216063194442,322.10495863844613L196.78316113194447,322.8089421154065L196.98638560069446,319.6445098890046L197.62860385069445,321.43919704201755L198.23699153472222,321.1090447584422L198.56766321875,322.9417789537668L198.60374379861113,324.9119666561563L198.6325921909722,326.79280802136924L199.37678428472225,324.93797772725475L200.11727992708333,323.56755379543927L201.26293878472225,324.41296618066883L201.44269882291667,324.5130212535685L202.85852006250002,325.3197044291696L202.89741315972222,326.77856694661233L203.19120068750001,326.1629637228023L203.32684438194443,324.19642825529104L203.44834513194442,323.04032765336103L204.9934618125,323.7586421417205L205.43173237500002,321.99811854773515L205.93886943402777,323.6974916746658L206.02661997569442,323.6986861052841L206.5598732673611,324.62751955312785L206.81107124652777,324.2314825292496L207.4996558541667,325.0288510589531L207.63650491319447,325.9127961273828L207.79336302430556,326.56105852645726L208.04496279166668,327.83371792930683L209.31814922222222,329.5855693308199L209.4890699201389,329.21900665846965L209.68353540625,328.9074283869719L210.34463770138888,328.1271323107443L210.59921070138887,328.03088064595084L211.31222403124997,324.75324854905824L211.53103788194446,323.9775339939722L211.7084675486111,323.83363116760364L211.79412879166668,324.2783137651904L212.04500534027778,325.0686576095027L212.52152613888885,325.32808624080457L213.34358478472222,324.56923694104756L214.02582113888892,326.3468513998904L214.74558451041668,325.84755096263416L215.09875633333334,325.01078195460263L215.17164071180557,325.2788919341395L215.24420365972222,325.55833087129133L215.38040985763888,323.6309448769613L216.03002101041668,323.74521223632615L216.96353570138888,324.7186122190591L217.101590125,325.2882749316547L217.4797531736111,323.1436700555429L217.57545912152776,323.07330136539326L217.8847556736111,323.3227607060388L218.4433216215278,322.96780114558754L218.62717989930556,322.56299461011304L218.85933311805556,322.78590905495975L219.1924958888889,323.7485681512612L219.55796243055556,323.7421011103902L219.65640053819445,323.4788768529226L221.68269876041668,320.8840453249842L222.7586071875,320.3278930716911L223.1656186284722,319.855163656392L224.90062040972222,319.5048891079332L225.25138150347223,318.8978830144705L225.40020385069445,318.38192783502717L225.65831258680558,318.87118411431857L225.71432186111113,320.7818701335344L227.69778946180557,322.0451350680497L227.7725220659722,323.17045571693313L227.88470132986112,323.04452372302956L228.50819625000003,323.7106633463933L229.13056616319443,323.50370020807065L229.57558676736113,322.29687244958734L229.84848130902776,322.6627961276038L230.44063675,322.1491039811905L230.95958638194443,321.45473838401193L231.44542866666666,321.6892548991374L233.44633387499997,320.23913939153954L234.93624485763888,318.69726848280857L235.01885251041665,320.2216782103873L236.33856601388888,320.5380628424656L237.57036826041667,321.8894443251867L237.66157418055556,322.4711185854996L238.00735310069444,323.37790534312916L238.22520265972224,323.89094681438706L238.29406915624998,324.5847593376836L239.38596875347224,325.43222725521287L239.6413453298611,320.79184771238545L240.79528102430552,319.52788873734585L241.08971141319444,320.3091599721985L242.60975651041664,320.4062405218233L242.71840003819446,321.36503171627703L242.97586591319447,321.1490951406536L243.97173813194445,320.759367233192L245.61248040277778,318.9332803300314L246.34702957986113,318.72128828052666L246.4767268090278,318.79882231117494L246.66572797569444,320.15336260086235L247.4991170486111,318.1604491198239L248.52343587152777,318.5798362973049L248.7080173680556,317.13222448907277L249.92439094791666,317.6542999066209L250.63740427777776,318.561973102446L251.09544281944443,313.97276804616996L251.63408007291667,317.855307384699L252.86957877083333,318.16582945881237L254.02954128819445,315.74940958544505L254.13955089583337,316.7881799658101L255.15237857638888,315.24849842548406L256.65635214583335,314.86758729802506L256.89726434722223,315.31699465786676L257.79397523958335,314.97735455009587L257.96208342013887,313.60620591303604L258.4055772291666,314.347911389717L258.87856229166664,313.68972468125946L259.38160111111114,312.7179023427069L259.7890143402778,312.09803517311906L260.22029378819445,314.3546026244239L260.71931472569446,316.89123041257847L261.2969254340278,318.5834549416008L262.7097734409722,318.114663973088L264.02796014930556,319.21100983167025L264.27497953125,318.33881290237423L264.5105077708333,319.50462733065444L264.77223260069445,320.18629686741997L264.949742625,318.1368977918524L265.9359719270833,318.4567267594382L266.0841514131945,317.697672290977L267.78500119791664,317.0009305382395L268.2079234513889,317.2849727756854L268.30017402083337,318.608863222969L268.4436927638889,318.4455337395236L268.5816668298611,318.6159764058678L268.92077606597223,318.60621630862397L269.37889496527777,319.6803747714213L270.5469736041667,317.9130458284354L270.83915397916667,313.47272531780646L271.68363240625,315.72927106559L271.82972259375,316.30715313302426L271.9337053784722,317.82926198125244L273.3637499201389,316.54578177497365L273.9305123472222,316.4341872360003L274.1492458402778,317.42178642332755L274.2823180902778,316.9210639143739L274.542516125,319.1242679635814L275.11297500347223,320.0691732235897L275.35846759027777,315.35697905823304L275.52778113541666,316.04225038131625L275.67146059375,315.80000373320973L275.7731130069444,316.72809408231916L276.46209940277777,317.3107890608804L279.0564457743056,316.05353433811194L280.7096434791667,316.3250496419406L282.3303766979167,312.019837650195L283.9238686770833,312.0716801844839L284.31392465625,305.3117463386295L285.89688978472225,308.6378025696533L287.20800502083335,309.50622309329617L288.49951299305553,309.9351078111199L288.8395061631944,311.4852052758156L290.0008347604167,308.4729699389887L290.32957786111115,309.77847899359494L290.9063046354167,310.78507078091934L292.50606451041665,310.04276470923594L292.75838749652775,307.4015318210324L293.1171039965278,307.4760293206048L294.1922088472222,309.652715831605L294.8336235208334,311.6059902750461L297.04731575694444,313.5755462792437L297.44637179166665,314.8888507009935L297.569801125,315.798977641299L298.60062891666666,316.10867644964964L298.7258261180555,316.5781022549295L298.8430679131945,316.61629600759915L299.2446953923611,311.7003970610047L299.56950096875,310.305337501854L302.30905359375,300.2537186947577L305.95568324652777,300.47256998145315L307.1958426875,300.19468448423515L308.6673517708333,301.7625727206908L310.05327996874996,299.7448231762236L310.91696387152774,302.3080087906991L311.99560445833333,292.5281711084579L312.6026260625,290.7615818058256L313.5020691145833,294.72379908040625L313.85966060763883,299.3287746728908L314.12154615277774,302.4698221083208L314.65729053125,305.6036215193454L315.2394012673611,305.0199873823527L315.69856481597225,305.9671710931816L317.14942198611107,307.545459065568L317.3803698402778,309.09318566027827L319.6368123402778,311.3365714476002L319.8621351597222,309.635267548642L320.1261100034722,307.20979559816385L322.78120674999997,307.05532625843927L323.3932105277778,308.41884550149155L323.877606375,308.18610958535874L324.49603876388886,309.1738295111913L324.6327271076389,309.70411872087624L325.1558553368056,309.94868273092663L325.35313334027774,311.4451985031058L325.68428717013893,312.25332781854905L326.91030366666666,313.50723773667573L327.5261646111111,304.2639702579926L328.0190783680556,304.7575565374755L328.9493787534722,303.7338321477633L329.71711563541663,305.75021187105335L330.3778161423611,305.7631346358499L331.10191882638884,306.65039171319967L331.8367090763889,307.09528750167425L335.04313958333336,308.76208528551405L336.2186914826389,307.55004521995966L337.5434675173611,309.303265709693L337.7654153159722,309.86568494414814L338.16535528472224,306.6840140207077L338.6130276909722,308.67023009941977L338.8633417361111,307.9874228572341L339.46216686111114,302.5617639741035L339.96150922916667,299.4447721052607L340.86400587152775,302.7230562894716L341.4813132534722,302.72614330059633L342.39883677430555,303.6565854418705L342.7295888159722,304.2928248983172L343.7916757291666,306.68926479993326L344.11190092013885,308.46851144357964L344.26972332291666,308.5375983634063L344.88076280902783,307.8231404270772L345.6593479722222,309.2776693630156L346.92988260069444,305.153291685836L347.32990292708337,305.0495706602333L347.50034147916665,307.22940778847106L349.93156184375005,312.12345116565496L350.25877814930556,308.29384258171575L351.28076660069445,304.7294025580948L351.9821280729167,301.69962853801695L352.39058595138886,304.7943206209507L352.4894258472222,307.37326343689904L353.40486006944445,308.9468193759096L353.88338980902785,303.99579646952316L354.33001756597224,306.6945179081856L355.3921044791666,306.978158403776L355.69585635416666,305.15743464320957L357.1559546527777,307.4241830830918L357.1788565798611,312.340555620628L357.80580687847225,311.51956318662474L358.22744340972224,311.285628708631L359.05994854861115,305.0044207659727L360.18117868402777,304.7683940147132L362.8830435763889,307.3512258215971L363.1721703611111,306.093087402903L363.7288880833333,303.47730611064935L363.8965944756944,306.04761928496106L365.2360759583333,301.5830218467624L365.94249996180554,301.86020493338435L367.62976930555556,300.6009923751949L368.3889079201389,299.06675260982473L368.96193824305556,295.5461942638056L371.65592808680555,296.1619014878711L372.55866580208334,294.3141617192359L373.03775804513884,296.81567382498685L373.6267795381944,297.85950456942066L374.2250421597222,294.7777607021894L374.47800800694444,294.9932784150428L375.1818605659722,296.4135593800591L375.5230591006944,298.1362527457775L375.93191876736114,292.8480875611836L376.328323,296.4973289724606L376.82372784374996,295.166275081137L377.0442292048611,296.25133381896643L377.9255114305556,289.90572465521234L378.7282038854166,290.69741141147597L379.3818329201389,294.30843606339096L380.4489823645833,297.3262615629732L383.4149828159722,296.02550414670907L384.04514742013896,299.6620421610663L384.7166158506945,300.6912812914518L387.208345517361,297.08168000682497L388.34862041319445,299.5288825512558L388.8551146111111,295.2173683503856L389.73961114236107,297.42876309782775L390.4700620798611,298.22599408769906L391.37770161111115,300.86236770181694L391.92670499999997,295.5261034556353L392.41310978819445,292.17582430092637L395.7174158993056,287.73017792851465L395.91115816666667,290.2399239665102L396.0628733888889,293.91957173517005L396.4836259861111,296.73799961125815L399.2590181180555,298.8759360332058L399.56638608680555,296.51800017367947L399.6498776736112,301.1115728749003L399.79460178125004,303.3666551254834L401.80081059375004,296.26302049302456L403.8617429583333,293.2145674190709L407.94021456250005,291.7058368516648L411.61352295138886,288.9801431420969L412.4737514756944,287.53957621623687L412.67649379861103,290.43873069289225L413.10182678125,286.4598301798675L413.72548241666664,285.1911283801601L415.55691336458335,288.0817318504088L415.90357621874995,295.84792661830204L417.2245754444445,296.5730103528295L421.13654602083335,298.32333152717774L423.1541656180556,301.61519543446474L423.3385863993056,304.0524615738405L426.8253043506944,303.082955974128L428.6711996736111,304.1145125780088L430.21896815625,300.6099720549439L430.4219515520833,302.888748973975L430.9547226979167,301.7329820824242L431.73555787500004,298.9464893155151L433.5108991909723,299.6706977363697L439.0734156701389,298.9976385304597L439.78136646875,296.0544472963453L440.94807902777774,299.0165529291662L441.29337580208335,298.08079726251856L443.73881946875,302.4399504004135L444.34182319097226,301.35150329489693L444.92497857638887,303.5190505279351L445.0752473611111,305.7738293123812L445.3826956875,303.56675491552403L449.21503184375,304.6803780418318L449.5138015451389,304.2867758810116L450.60795115625,302.25121404431434L451.4421438055556,300.2632592103945L452.0453886006944,303.72804305610805L452.5770347395833,302.8072002340555L453.5717819513889,303.41621110803806L454.3748761944445,297.0267794418324L454.6852173958333,300.9254897982848L455.46364184374994,300.4250299649057L458.28805213541665,303.2470027428971L459.2844065,304.872497786008L460.4407529236111,301.3058049362886L460.76788887152776,303.6348432867544L461.9565390659722,296.6971622482867L462.79266029861105,296.00622427468005L465.2681577222222,292.7901088152962L465.64045466319453,292.22131976572905L466.7898099722222,291.4801218008697L467.46393020486113,296.00464898528475L469.1409137708333,287.3764970920375L469.87128435069445,284.32084071005L471.94852931597217,289.71307823990617L472.70766793055554,292.33775286755656L472.85849921875,296.1150899374231L473.01937521180554,298.96500826499147L473.1750279583333,301.5420752070609L473.8067997152778,299.81512756236543L474.729466125,302.93476751891967L476.3723780520833,302.8545523910817L476.6132902534722,304.0234604415104L477.66364495138896,304.9139413752838L480.4711801388889,304.1244865326276L482.13619041666664,302.1648135527335L483.11639289583337,298.0764551561871L483.8676564618056,299.65280506457725L484.16208685069444,299.8071570321634L485.93437457638885,303.1341743864298L486.480324375,299.1065936830107L488.23557628125,299.8067864487409L488.90455362499995,299.06176848142985L489.7735411319445,293.7894123001244L490.08123053125,292.03981863692394L490.99666475347215,296.78966402320356L497.4177222465278,295.4663053288139L498.8332220555556,292.22808680221914L499.36334139930557,289.0116919637044L501.10485214930554,289.21584726005784L503.0400248090277,294.1831065346855L506.7609049201389,297.94136782721L507.6846159791666,295.67207174403757L508.3380039409722,298.69153370970463L512.5234315625,294.24789456233987L515.3271095833334,297.4294376507161L515.6568973333333,297.19565836674514L516.6304301284722,300.45049142991513L517.5579983541667,303.1655540790643L520.5965617534722,296.968357330841L521.119609625,292.9893764584876L521.6836398923612,288.57633362607805L521.9986418368056,289.97979267307545L522.1354908958333,295.0386419539323L522.2491969548611,299.90566384266066L527.1277895694445,288.1150869935343L537.3633438229167,282.4744603081405L537.7734892118056,279.69020035282847L538.2066972430556,276.65348848172243L541.6297719444444,262.73228339128224L546.5476594444444,259.0434408825899L547.7430596805556,260.70165202292867L552.4677674166667,265.25540421948944L552.9825384513889,266.34263904111145L554.4966370833333,270.0502431849447L555.4542590659722,269.4388885253848L556.1234774826388,266.548146155668L556.9950364340277,273.420742414136L566.2212987430556,274.05635832474286L568.6976801006945,275.62754093966777L569.2581746319444,283.35468252599037L569.6761950694445,286.93311651072815L572.1918713125,286.7789672159371L573.1367164305556,273.29766758809205L574.9811653159722,280.9103810862419L575.3092655555555,285.1131875596692L575.4664450972222,289.4587548802643L576.7144795868056,282.8949416482246L578.6455540069445,286.3877004009909L579.3474779826389,273.73827261356956L581.9781460069445,279.6354408124432L582.2064420590277,288.6685792360313L582.5917569375001,292.0684741688084L583.7024602222222,286.1956575889417L584.6612072118055,273.67812713241864L587.0747488958333,278.8626807898286L588.2835688576389,281.6716423077179L589.0878684652777,274.57489596156023L589.3159234444445,278.0785706582353L589.8158283159722,273.17023960495453L592.3639690451389,280.38970366421137L593.6402894236112,285.9077026600342L596.5964058854167,287.55681998830175L599.6878446111111,278.8041151718747L601.6974284444444,277.6013160779117L602.2896642430555,279.2077550298613L602.6005679479166,279.6454099572003L603.5117432152779,278.2133257363475L607.0838813368056,271.3775996031681L609.3453060104166,275.7732323899656L609.855657375,285.4372475314708L610.4401788402777,287.41466040175015L610.6327961006945,295.43555225057855L610.9199943020833,297.304946685719L611.1936924201389,300.3887501374066L611.7096688194445,295.5874376167956L612.7411394722222,294.2897765197308L613.4240186875,282.4137645872257L614.3952211111111,286.8034271718692L615.3583877708334,291.9263676415433L615.8144977291666,293.96132158622095L616.2246431180556,297.1343051664696L616.558529107639,294.62525030059004L617.2001044965277,301.513008210047L617.2386761631943,307.31605697853996L617.2639084618056,312.0940120681226L617.2796585590278,316.4130011669951L617.5138207187499,320.0841419010368L617.9187428611111,322.1737024340631L617.9650288611113,324.8261016144082L618.0494847395834,326.10127728133784L618.09528859375,328.1645402345917L618.1353870555555,329.9183137448575L618.3320221979166,331.4090212285834L618.4371299895834,332.7276680442959L618.4983625104168,333.900063292197L618.85032896875,334.79350834382194L619.0074281527778,335.50139118315775L619.3184122152778,334.81445523295685L619.7446291319444,335.31301422074057L620.1675513854168,332.90178936035676L621.0852356215279,332.70788459266686L621.2432187395833,332.6461564492214L621.2884600902779,333.10914207274726L621.6602748854167,330.7707707618352L621.8544189409722,327.39142787483263L622.6089771701388,324.10662278451684L622.9811133958334,324.04644754865745L623.3100172118056,325.4385713254498L623.45000021875,326.7249674448141L623.5206345833333,327.4060405099102L623.589661795139,328.80967988796914L624.6272396284722,327.6316824502283L625.9774086770834,324.92938462814857L627.50870384375,317.6840678430172L629.2449109895833,317.19554857565555L629.3874654409722,317.19267083476177L631.1584674444443,314.9737702095475L631.6521044201389,316.7989774053881L640.8172949236111,316.4432217036708L641.8676496215278,314.2851929935747L642.1515531597222,314.71886858999306L643.4010340868056,314.88131102876685L643.9469035277777,313.1637507380882L644.1255385590277,312.58009721828404L644.6031843645833,310.7438099082687L644.9631062291667,305.3170566038466L649.72453740625,299.57031629508776L651.1125549027778,290.20113248718826L652.3478125277778,288.4227807959282L656.9980287326389,276.911363676539L660.2971919548611,260.7865682159672L667.3202888784723,267.90485571084486L668.968022263889,264.16176371785446L670.6920954062501,270.46449916017633L671.7578787708333,264.6880061043317L672.1692295243056,272.35507791595467L677.4759676388888,270.0578162285614L678.0103459375,266.3010528851863L678.7027073541666,258.1078949524084L684.062883298611,221.50507434591077L692.6342308506944,208.33049501220597L695.763276951389,219.39973894219327L696.2135208020834,225.50968719177337L696.5404960347222,233.74432502209822L698.5566691944445,234.8675853596926L703.4074580659723,246.69844755573874L704.8784850034723,255.62068042237794L713.1378842013889,228.77221472265762L717.1398553333333,194.45638251425896L722.185993625,171.061016046211L722.5596566458333,191.5865909120066L728.6865248229167,162.8486022752056L732.0024024340278,166.30740284301567L734.5957041562501,141.3612924165633L737.0789962708334,150.51737128135153L739.0993480277776,171.65031104369427L745.0523222743055,145.9027643871401L748.7057823263889,156.23325881997818L756.3800975555555,133.51990636061782L793.34782575,113.49192040652517L806.9833920625001,131.10667780009183L816.9415517465278,111.44067613007807L841.2990771006945,137.09493834692995L854.3021484374999,116.53069759489048L860.3000426041667,127.91654750111148L863.0449791909722,140.8418835577629L881.6340314375,119.71560102409853L884.15010946875,101.7582608704837L891.2243138506944,86.49452173991114L898.4817336493055,73.52034347892449L913.9869811458333,108.11001922981306L916.8363826631945,91.89351634534115L931.1243726458333,78.10948889353995L941.2299082395832,110.30979283223625L949.152367857639,110.20632390740082L954.2995157013889,93.67537532129066L964.1725766458334,79.62406902309708L980.8700100729167,85.56673139690523L982.1877949930556,103.40126714191494L985.6959684340278,130.57071343426404L986.7656089652778,155.46883369185173L987.4063807777777,175.75596318352848L987.7820527395834,191.45365961509012L988.3446365694443,210.20897430919027L988.8811041666667,226.563355435539L991.9945608854166,235.8254884838445L992.53890353125,246.43021066581332L992.6909401840277,256.83595179321406L993.7038482222222,263.30974084241376L993.972403451389,268.19391607968805L994.6323003819446,275.3351013950076L994.9519630694444,281.76592709484737L995.8305131354168,286.3558562124384L995.9723443680556,291.1335686896636L996.6190626458333,292.72044247712313L997.9264814305554,291.1827397419183L1002.8839852465278,290.3911469624487L1004.3583068472221,287.037929463536L1006.2273451701388,279.03314913491465L1009.8208584236111,279.49699494649565L1010.1628605347222,280.1489911590668L1011.6530125902777,281.57946066702493L1012.4644640277778,268.98117793060754L1016.0607897986112,276.77745578647097L1016.5440606388888,282.9403828730458L1016.8799555694445,287.8180527148162L1017.2876098715278,290.263072080321L1019.5942758958333,284.3002476319092L1020.3998612256944,287.32448321439557L1025.4940533854167,293.9156289140545L1028.094587295139,249.82828457694626L1029.3960596145832,241.94113279949525L1034.6879315659723,236.26796287957094L1035.60513365625,227.6314048112717L1040.1419652326388,222.60987590776273L1046.5304778819443,208.13557633978016L1058.1325137847223,226.55351261608584L1058.3608098368054,238.03357663276384L1060.2169909375,232.79190377421293L1061.6441426041667,238.2332091171719L1063.3053760729167,222.49786411323248L1071.8347769375,229.4832754053385L1072.8925245381945,237.4311477309014L1075.176127920139,235.06329375308434L1075.6984525729165,236.81343605375804L1076.4008586944444,233.9196933729671L1077.5203209618055,233.47028482156747L1080.4717766805554,241.43865118924145L1083.1095965347222,243.52112623812798L1085.2525740486112,226.63177548422695L1087.7921165104167,199.1317364343202L1093.441821027778,194.20997596917212L1098.6537371284724,194.9232977556145L1103.7024468645832,166.97343945590868L1105.019588923611,189.96778717388602L1105.5398242777778,212.45107364325767L1105.645333857639,231.0979580513145L1105.7142003541667,247.4632643436173L1105.7939954895833,261.27068378298384L1105.85426371875,272.0276266700817L1106.2204534791667,281.1710281241149L1106.6636258576389,287.7058284509522L1106.9181185,292.53877236512756L1107.592078017361,296.02822923763114L1109.6458585520834,297.80872212471377L1109.8822707256945,302.10559562418854L1109.9750837986112,305.86102900783294L1110.17549575,310.0840564748399L1110.398889986111,314.13753891270477L1110.4602832222222,317.89227171216265L1110.7362313541666,320.980703682611L1110.777133392361,323.8120526756739L1110.8346694618056,326.16715386523197L1111.5716293680557,327.55044442181077L1112.00379275,327.54069594035735L1113.5382218645834,320.5222279129401L1114.3316731909722,320.74198463509L1115.1141958784722,321.2380505761902L1115.3212775138888,323.2060702624889L1115.4192334756945,324.77579608675194L1117.3723258888888,326.72860849192097L1117.4140315034722,328.1823172181328L1117.4843444374999,328.59324236268566L1117.8613824791667,327.1384378264646L1117.9789457048612,328.22139942522216L1118.3187781597223,329.0388258750752L1118.5805833472223,329.88827472108665L1118.944362378472,330.4041244220146L1119.0087288472223,330.68796030416695L1119.129747451389,329.38285716763284L1119.5122498125,330.2837922288515L1119.5908395833333,330.0702233945238L1119.96136865625,329.06396261261796L1121.0529468229167,327.3839136752707L1122.1579447152778,325.85278116943465L1122.7750913819443,326.1492276303831L1123.0435662534721,326.2465707585529L1123.2233262916666,326.38085787204267L1123.8230353506945,325.97954737305446L1124.1439034027778,325.99925163073266L1124.5857900590277,325.6036366133955L1125.337616128472,324.3910911213861L1125.8072261701388,321.7109729077237L1127.292637125,320.1029633352015L1128.6588777013887,304.148791562194L1129.8026079756944,298.26801828241037L1132.12590803125,292.9085428127761L1136.0142534618058,270.15744320904145L1139.931608,229.63382672768523L1141.7214136909722,195.18875271853244L1145.2737838333333,165.9104398107526L1157.835531017361,179.06441929368518L1159.2787542118056,162.6169382178142L1175.7437129895834,174.20312475786935L1176.8868004027777,172.5052014987344L1177.125462590278,191.21623945574248L1185.4355674583333,162.5338035373811L1189.0161431319445,138.1537330067739L1190.8154310243058,117.43067305575782L1192.5988081041667,99.81607209739411L1194.3823458993058,84.84366128278504L1199.98190725,72.11711209036724L1203.5825723333335,61.91809073135764L1226.0730683055556,74.64028621256304L1229.2664005173613,89.73242509886043L1234.7549076111113,124.20983406130412L1235.0325432534723,154.85581349756308L1235.1967139097223,180.4925323820195L1235.7201635694444,201.87137979744386L1235.8131373576389,220.0949455551L1236.0399066145835,234.96643099456227L1237.7071669062498,248.53501179992338L1238.123098045139,260.53221457538945L1238.5113057986111,272.01847329817195L1240.122074670139,274.51388412162794L1241.7002986979167,281.48025604883827L1242.7091084965277,288.1233085506035L1242.8113234131945,293.76990317710386L1243.3159693854166,298.51796315508375L1244.8708093402777,299.9765414090939L1245.0396407395835,301.57715110682074L1246.8554823055556,305.4633966226158L1246.9355988715276,309.0244325837689L1247.0571799791667,310.81422224165806L1247.3298334479168,313.5726343599548L1247.480664736111,315.91728466050705L1247.6513443611113,317.9102374159765L1247.719487638889,320.11970180357997L1247.777988,322.10083744213387L1247.858104565972,324.8157118258138L1248.5894394375,327.1749005064872L1248.6976008194445,329.1802108850596L1248.8293873472223,330.8847247068461L1248.94887915625,331.5088341826374L1249.0719870590278,332.7609636006963L1249.8074201701388,328.72227360604643L1251.9969247569445,324.2584780196849L1254.840138736111,319.3817972258231L1255.6505455243052,314.2572549146769L1255.8100554374998,313.5095757683844L1259.029905670139,312.35859394858136L1260.0654745625,313.2874412199305L1264.609377611111,308.76777958239546L1265.1751757465279,295.3901580995816L1265.8415012881946,287.1634525664625L1266.7546854965276,281.4593892269477L1267.5572975937498,278.77584447926915L1269.002931517361,276.03092235283333L1271.1319268020834,279.57392036354474L1271.4456430243056,284.3895595817403L1275.9868139131945,277.0397620081156L1277.8258788368057,280.2252522523528L1279.853382423611,275.2526462326817L1282.0669943020832,280.14947657050675L1283.7793352291667,281.47678235765795L1285.7799993645833,280.8524468221911L1287.50077784375,278.72385252613515L1290.995852989583,273.7187291926694L1293.3844034479168,271.6808289046781L1296.8032191944444,276.03097729624915L1298.2340673125002,278.0276034290845L1304.0005314791665,269.05482655108545L1308.2009056215277,265.9124207502408L1309.4175202743056,268.49901218315927L1309.961139701389,275.07897853750353L1310.807868142361,260.67231357505983L1314.326889864583,243.27210290243724L1315.1169661701388,232.2962874670716L1315.850309982639,225.23484434701086L1323.7301800520834,229.69634496768654L1325.61006665625,240.75652958616993L1325.9169524791666,246.29177742097173L1326.6785821805556,247.44010171691684L1327.8671520173611,253.46763191392478L1328.2717527291668,253.02412349047245L1328.91951565625,261.46141405781066L1330.9044296944446,268.4269292218664L1332.1012763680556,270.0177989294955L1333.9861451458335,271.52467454461663L1336.661009871528,277.1353369992878L1337.3157639131944,282.41985463121284L1337.8835709895832,289.4374218910763L1338.3123593506944,291.53644497105125L1339.8986995,296.5164327708481L1340.4551761493055,293.9969678552209L1344.2801194027777,293.3502408587559L1345.7014049618056,282.4398865481243L1346.23047965625,274.97017629317844L1352.2939456562501,272.6930134855653L1352.7071446354166,269.8296069172759L1353.8193747152777,270.9008022433209L1354.2226093472223,270.0587728159137L1357.1287433576388,259.4463205298903L1358.3828046701387,250.47728154131585L1361.0436871666666,254.29668931011847L1361.9926305243055,257.59473136814614L1362.3471684270833,258.284703481106L1363.0421816458334,256.24236159530375" style="fill: none;" fill="none"></path></g></g></g></g><g opacity="0.2"><g><g><g><path stroke="rgb(187, 187, 187)" stroke-width="2px" d="M144.64375,340.5436363636364L145.0315559652778,338.82545454545453L145.21758389930557,339.51272727272726L145.6374525625,334.70181818181817L145.69804222222223,338.1381818181818L145.76385512847224,333.6709090909091L145.78161416666666,340.2L145.844293125,335.3890909090909L146.0158566840278,336.76363636363635L146.07114273958334,339.8563636363636L146.25226885763888,340.5436363636364L146.4040644375,337.4509090909091L146.47084163541666,340.5436363636364L146.49631500694443,337.79454545454547L146.62062827430557,337.10727272727274L146.81477232986109,339.8563636363636L146.96600540625,340.8872727272727L147.19984613541666,340.8872727272727L147.28092699305554,338.4818181818182L147.31403434027777,336.0763636363636L147.49146400694443,340.2L147.65442929861112,340.5436363636364L147.97168125694444,336.42L148.1033874270833,331.26545454545453L148.40480893055556,340.2L148.63431034722223,340.8872727272727L148.76987368402777,337.10727272727274L148.89450838194446,323.3618181818182L149.2461534097222,340.2L149.2659213888889,339.51272727272726L149.51559257291666,339.51272727272726L149.63910226388887,333.3272727272727L149.7069241111111,333.3272727272727L149.7244420763889,340.2L149.82858557638886,340.8872727272727L150.0931229236111,329.89090909090913L150.32318684375,338.82545454545453L150.3485798576389,337.79454545454547L150.36127636458335,340.8872727272727L150.49386646875,333.6709090909091L150.7814664583333,335.04545454545456L150.97561051388888,339.16909090909087L151.0884326388889,339.16909090909087L151.1600312951389,340.2L151.43887230208333,337.10727272727274L151.57604279166668,338.4818181818182L151.71088290972222,339.51272727272726L151.78264228125,337.79454545454547L151.85207128125,340.8872727272727L151.92816996527776,339.8563636363636L151.97461668055556,338.82545454545453L152.44824460416666,339.51272727272726L152.6395761423611,332.64L152.67212098611108,337.4509090909091L152.84617563194445,334.01454545454544L152.95289057638888,339.8563636363636L152.9881675798611,339.51272727272726L153.27078539583331,336.76363636363635L153.31490173958332,334.70181818181817L153.5168404861111,338.4818181818182L153.53692989583334,339.8563636363636L153.66236817013888,332.64L153.90488752430554,331.26545454545453L154.1481300972222,340.5436363636364L154.65333857291665,339.51272727272726L154.80746452430557,338.4818181818182L155.01430508680556,339.16909090909087L155.14962735069443,329.89090909090913L155.18876152083334,338.1381818181818L155.57889785763888,339.16909090909087L155.66504124652778,324.39272727272726L156.50630536805554,326.1109090909091L157.11662163541666,331.26545454545453L157.16941660416666,332.64L157.26415826041668,336.42L157.41257881944443,339.8563636363636L157.86362624652776,325.7672727272727L157.96801081944443,333.6709090909091L157.9958145625,338.1381818181818L158.19060147916667,331.95272727272726L158.5534965763889,332.29636363636365L158.94644543055557,328.1727272727273L159.07967839583333,336.0763636363636L159.11069644444444,337.79454545454547L159.45575214583334,338.4818181818182L159.9432819409722,340.2L160.01656810763888,335.3890909090909L160.0908989236111,332.29636363636365L160.6609560138889,339.16909090909087L160.84409107291665,338.4818181818182L160.90741289236112,339.51272727272726L161.0121188958333,338.4818181818182L161.27987054861114,324.73636363636365L161.57373843402777,339.8563636363636L161.6221940902778,336.42L161.75253418055556,338.1381818181818L161.9719105347222,332.9836363636363L162.20607269444446,335.04545454545456L162.6622630104167,333.6709090909091L162.74141528472222,332.29636363636365L162.9099252534722,329.20363636363635L163.2172128645833,330.23454545454547L163.3738299027778,333.3272727272727L163.58324190972223,339.8563636363636L163.6144206736111,340.5436363636364L163.6268761076389,341.2309090909091L163.7005640625,339.16909090909087L163.76476981597224,334.35818181818183L163.87992231249999,316.4890909090909L164.1200309375,331.26545454545453L164.16800444791664,333.3272727272727L164.75284734374998,324.73636363636365L165.12104604513888,334.70181818181817L165.2649665763889,330.5781818181818L165.59274538541666,334.70181818181817L165.88797935069445,339.16909090909087L166.00007825694445,334.35818181818183L166.53461727083334,334.70181818181817L166.93664653819445,330.9218181818182L167.00615589583336,330.9218181818182L167.11496013888888,329.20363636363635L167.19700528819445,329.89090909090913L167.2538984965278,332.9836363636363L167.29480053472224,336.42L167.42899779166666,328.5163636363637L168.2574850486111,335.04545454545456L168.50233477430552,318.89454545454544L168.6884430659722,335.04545454545456L168.8571941076389,328.5163636363637L169.06708826041665,334.70181818181817L169.29345572916668,328.86L169.36071507291666,331.6090909090909L169.54746622569442,340.8872727272727L169.8832807986111,334.35818181818183L169.93157573958334,334.01454545454544L170.41227513541668,335.7327272727273L170.6443479965278,328.1727272727273L170.8785905138889,340.5436363636364L171.0542523125,321.3L171.49927291666665,332.29636363636365L171.72620288888888,329.89090909090913L171.88932889583333,333.3272727272727L171.97241869444446,327.14181818181817L172.03027619444444,332.9836363636363L172.4680646111111,320.6127272727273L172.92795137847222,325.7672727272727L173.02454126041667,341.2309090909091L173.0835237673611,332.9836363636363L173.23933722916667,337.79454545454547L173.57491072916667,326.79818181818183L173.81389434722223,335.3890909090909L173.88822516319445,330.5781818181818L173.93772546875002,334.70181818181817L174.1149944201389,330.5781818181818L174.60332779166666,334.35818181818183L174.85524898958332,323.0181818181818L174.92837444097225,326.1109090909091L174.97843724999998,331.6090909090909L175.09142009027778,328.86L175.19612609375,318.2072727272727L175.41855603819445,336.76363636363635L175.81841564930554,323.70545454545453L175.85835339583332,334.01454545454544L175.9394342534722,333.3272727272727L176.05691712152776,324.73636363636365L176.23161462847224,339.51272727272726L176.27862384722224,332.64L176.36902619097222,321.6436363636364L176.44391951041666,325.7672727272727L176.63862606944446,325.08L176.85293989236112,331.6090909090909L177.1712365,329.20363636363635L177.208843875,334.70181818181817L177.22660291319445,340.2L177.50311354861114,333.3272727272727L177.9594645798611,328.5163636363637L178.07429564583333,328.86L178.51674480555556,326.79818181818183L178.69208517361113,333.6709090909091L178.81848773958333,327.48545454545456L179.08527510069445,338.82545454545453L180.71629409722223,305.1490909090909L180.9189560625,301.7127272727273L181.00501909374998,323.70545454545453L181.33745864583332,325.7672727272727L181.4113073159722,331.26545454545453L181.63060331250003,328.86L181.74615759722224,323.0181818181818L182.20901759722224,332.9836363636363L182.58155561111113,328.5163636363637L182.85372693402778,330.9218181818182L183.3574889722222,332.64L183.42740011805554,328.86L183.45367706597224,338.1381818181818L183.52728466319445,327.14181818181817L183.8442955486111,334.01454545454544L184.07162730902775,319.2381818181818L184.16403859375,330.9218181818182L184.26167312500002,320.9563636363636L184.43974565277776,318.5509090909091L185.1149908923611,325.7672727272727L185.24348275694442,313.3963636363636L185.52778808333332,325.4236363636363L186.06972000000002,319.58181818181816L186.2947213888889,338.82545454545453L186.8103763576389,317.17636363636365L186.94449325694447,326.45454545454544L187.09162809374996,326.45454545454544L187.25957555902775,331.6090909090909L187.32257594791668,329.54727272727274L187.81757900347222,332.9836363636363L187.8444184548611,337.79454545454547L188.21446538194442,315.8018181818182L188.39816294444444,300.3381818181818L188.49660105208332,320.6127272727273L188.54433348958332,333.3272727272727L188.7722277534722,338.1381818181818L188.8541121875,325.08L189.0513901909722,335.04545454545456L189.11487272569445,329.89090909090913L189.71811752083332,334.01454545454544L190.13019149305555,320.9563636363636L190.49212229861112,284.53090909090906L190.58075677430557,328.1727272727273L190.65315900694443,327.14181818181817L191.24949304513888,326.79818181818183L191.31273450694442,331.26545454545453L191.52793226388889,326.45454545454544L191.98950654166666,320.2690909090909L192.0260692673611,340.5436363636364L192.2654546736111,329.54727272727274L192.3486248298611,325.08L192.65374278472223,335.04545454545456L192.98144123611112,339.51272727272726L193.70530284722219,329.54727272727274L193.95818833680553,315.8018181818182L194.7750237361111,322.33090909090913L195.27878577430553,300.3381818181818L195.4532422083333,324.0490909090909L195.7877710590278,318.2072727272727L196.01703140277777,334.01454545454544L196.30583675694444,308.2418181818182L196.70216063194442,324.39272727272726L196.78316113194447,326.79818181818183L196.98638560069446,301.7127272727273L197.62860385069445,331.6090909090909L198.23699153472222,319.2381818181818L198.56766321875,333.3272727272727L198.60374379861113,336.0763636363636L198.6325921909722,337.4509090909091L199.37678428472225,314.42727272727274L200.11727992708333,315.8018181818182L201.26293878472225,329.20363636363635L201.44269882291667,325.08L202.85852006250002,329.89090909090913L202.89741315972222,335.04545454545456L203.19120068750001,322.67454545454547L203.32684438194443,313.0527272727272L203.44834513194442,316.4890909090909L204.9934618125,327.8290909090909L205.43173237500002,312.02181818181816L205.93886943402777,333.3272727272727L206.02661997569442,323.70545454545453L206.5598732673611,329.89090909090913L206.81107124652777,321.98727272727274L207.4996558541667,329.54727272727274L207.63650491319447,330.9218181818182L207.79336302430556,330.23454545454547L208.04496279166668,335.04545454545456L209.31814922222222,339.51272727272726L209.4890699201389,327.14181818181817L209.68353540625,327.14181818181817L210.34463770138888,323.70545454545453L210.59921070138887,327.48545454545456L211.31222403124997,306.18L211.53103788194446,319.58181818181816L211.7084675486111,323.0181818181818L211.79412879166668,326.79818181818183L212.04500534027778,329.54727272727274L212.52152613888885,326.79818181818183L213.34358478472222,320.2690909090909L214.02582113888892,336.42L214.74558451041668,323.0181818181818L215.09875633333334,320.2690909090909L215.17164071180557,326.79818181818183L215.24420365972222,327.14181818181817L215.38040985763888,312.7090909090909L216.03002101041668,324.39272727272726L216.96353570138888,330.23454545454547L217.101590125,328.5163636363637L217.4797531736111,310.9909090909091L217.57545912152776,322.67454545454547L217.8847556736111,324.73636363636365L218.4433216215278,320.9563636363636L218.62717989930556,320.2690909090909L218.85933311805556,324.0490909090909L219.1924958888889,329.20363636363635L219.55796243055556,323.70545454545453L219.65640053819445,321.98727272727274L221.68269876041668,306.18L222.7586071875,317.17636363636365L223.1656186284722,317.17636363636365L224.90062040972222,317.52L225.25138150347223,315.4581818181818L225.40020385069445,315.4581818181818L225.65831258680558,321.6436363636364L225.71432186111113,331.6090909090909L227.69778946180557,329.20363636363635L227.7725220659722,329.54727272727274L227.88470132986112,322.33090909090913L228.50819625000003,327.48545454545456L229.13056616319443,322.33090909090913L229.57558676736113,315.4581818181818L229.84848130902776,324.73636363636365L230.44063675,319.2381818181818L230.95958638194443,317.52L231.44542866666666,323.0181818181818L233.44633387499997,312.02181818181816L234.93624485763888,309.96000000000004L235.01885251041665,328.86L236.33856601388888,322.33090909090913L237.57036826041667,329.54727272727274L237.66157418055556,325.7672727272727L238.00735310069444,328.5163636363637L238.22520265972224,326.79818181818183L238.29406915624998,328.5163636363637L239.38596875347224,330.23454545454547L239.6413453298611,294.49636363636364L240.79528102430552,312.36545454545455L241.08971141319444,324.73636363636365L242.60975651041664,320.9563636363636L242.71840003819446,326.79818181818183L242.97586591319447,319.92545454545456L243.97173813194445,318.5509090909091L245.61248040277778,308.5854545454546L246.34702957986113,317.52L246.4767268090278,319.2381818181818L246.66572797569444,327.8290909090909L247.4991170486111,306.86727272727273L248.52343587152777,320.9563636363636L248.7080173680556,308.9290909090909L249.92439094791666,320.6127272727273L250.63740427777776,323.70545454545453L251.09544281944443,287.96727272727276L251.63408007291667,339.8563636363636L252.86957877083333,319.92545454545456L254.02954128819445,302.05636363636364L254.13955089583337,322.67454545454547L255.15237857638888,306.52363636363634L256.65635214583335,312.7090909090909L256.89726434722223,317.8636363636364L257.79397523958335,313.0527272727272L257.96208342013887,305.8363636363636L258.4055772291666,318.5509090909091L258.87856229166664,309.96000000000004L259.38160111111114,307.21090909090907L259.7890143402778,308.5854545454546L260.22029378819445,327.14181818181817L260.71931472569446,331.26545454545453L261.2969254340278,328.1727272727273L262.7097734409722,315.4581818181818L264.02796014930556,325.4236363636363L264.27497953125,313.3963636363636L264.5105077708333,326.1109090909091L264.77223260069445,324.0490909090909L264.949742625,306.52363636363634L265.9359719270833,320.2690909090909L266.0841514131945,313.3963636363636L267.78500119791664,313.0527272727272L268.2079234513889,318.89454545454544L268.30017402083337,326.1109090909091L268.4436927638889,317.52L268.5816668298611,319.58181818181816L268.92077606597223,318.5509090909091L269.37889496527777,325.7672727272727L270.5469736041667,307.89818181818185L270.83915397916667,288.3109090909091L271.68363240625,328.5163636363637L271.82972259375,319.58181818181816L271.9337053784722,326.45454545454544L273.3637499201389,309.27272727272725L273.9305123472222,315.8018181818182L274.1492458402778,323.0181818181818L274.2823180902778,314.08363636363634L274.542516125,331.6090909090909L275.11297500347223,325.4236363636363L275.35846759027777,288.6545454545455L275.52778113541666,319.92545454545456L275.67146059375,314.42727272727274L275.7731130069444,321.98727272727274L276.46209940277777,320.6127272727273L279.0564457743056,308.9290909090909L280.7096434791667,317.8636363636364L282.3303766979167,287.62363636363636L283.9238686770833,312.36545454545455L284.31392465625,267.00545454545454L285.89688978472225,327.48545454545456L287.20800502083335,314.42727272727274L288.49951299305553,312.36545454545455L288.8395061631944,320.2690909090909L290.0008347604167,291.40363636363634L290.32957786111115,317.17636363636365L290.9063046354167,316.4890909090909L292.50606451041665,305.8363636363636L292.75838749652775,292.43454545454546L293.1171039965278,307.89818181818185L294.1922088472222,321.98727272727274L294.8336235208334,322.67454545454547L297.04731575694444,324.73636363636365L297.44637179166665,322.33090909090913L297.569801125,320.9563636363636L298.60062891666666,317.8636363636364L298.7258261180555,319.2381818181818L298.8430679131945,316.83272727272725L299.2446953923611,283.8436363636364L299.56950096875,302.40000000000003L302.30905359375,243.2945454545454L305.95568324652777,301.7127272727273L307.1958426875,298.62L308.6673517708333,310.6472727272727L310.05327996874996,288.3109090909091L310.91696387152774,316.83272727272725L311.99560445833333,237.1090909090909L312.6026260625,280.7509090909091L313.5020691145833,317.17636363636365L313.85966060763883,325.4236363636363L314.12154615277774,320.2690909090909L314.65729053125,323.3618181818182L315.2394012673611,301.7127272727273L315.69856481597225,311.33454545454543L317.14942198611107,316.4890909090909L317.3803698402778,317.8636363636364L319.6368123402778,324.0490909090909L319.8621351597222,299.99454545454546L320.1261100034722,293.4654545454545L322.78120674999997,306.18L323.3932105277778,316.1454545454546L323.877606375,306.86727272727273L324.49603876388886,314.77090909090913L324.6327271076389,312.7090909090909L325.1558553368056,311.33454545454543L325.35313334027774,319.92545454545456L325.68428717013893,316.83272727272725L326.91030366666666,320.6127272727273L327.5261646111111,251.88545454545456L328.0190783680556,307.55454545454546L328.9493787534722,297.9327272727273L329.71711563541663,317.17636363636365L330.3778161423611,305.8363636363636L331.10191882638884,311.6781818181818L331.8367090763889,309.61636363636364L335.04313958333336,318.2072727272727L336.2186914826389,300.6818181818182L337.5434675173611,319.2381818181818L337.7654153159722,313.0527272727272L338.16535528472224,288.6545454545455L338.6130276909722,319.92545454545456L338.8633417361111,304.1181818181818L339.46216686111114,271.81636363636363L339.96150922916667,281.7818181818182L340.86400587152775,321.3L341.4813132534722,302.74363636363637L342.39883677430555,308.9290909090909L342.7295888159722,307.89818181818185L343.7916757291666,320.2690909090909L344.11190092013885,318.5509090909091L344.26972332291666,308.9290909090909L344.88076280902783,303.7745454545455L345.6593479722222,317.52L346.92988260069444,281.7818181818182L347.32990292708337,304.46181818181816L347.50034147916665,319.58181818181816L349.93156184375005,339.8563636363636L350.25877814930556,286.59272727272725L351.28076660069445,284.53090909090906L351.9821280729167,284.53090909090906L352.39058595138886,322.33090909090913L352.4894258472222,321.98727272727274L353.40486006944445,317.8636363636364L353.88338980902785,275.94L354.33001756597224,321.98727272727274L355.3921044791666,308.5854545454546L355.69585635416666,294.84000000000003L357.1559546527777,320.2690909090909L357.1788565798611,340.2L357.80580687847225,306.86727272727273L358.22744340972224,309.96000000000004L359.05994854861115,269.41090909090906L360.18117868402777,303.4309090909091L362.8830435763889,321.98727272727274L363.1721703611111,298.96363636363634L363.7288880833333,288.6545454545455L363.8965944756944,320.6127272727273L365.2360759583333,276.2836363636364L365.94249996180554,303.4309090909091L367.62976930555556,293.4654545454545L368.3889079201389,290.3727272727273L368.96193824305556,275.5963636363636L371.65592808680555,299.65090909090907L372.55866580208334,283.8436363636364L373.03775804513884,310.9909090909091L373.6267795381944,303.7745454545455L374.2250421597222,277.31454545454545L374.47800800694444,296.2145454545455L375.1818605659722,304.46181818181816L375.5230591006944,307.89818181818185L375.93191876736114,262.8818181818182L376.328323,317.17636363636365L376.82372784374996,287.62363636363636L377.0442292048611,302.40000000000003L377.9255114305556,253.94727272727275L378.7282038854166,295.18363636363637L379.3818329201389,314.77090909090913L380.4489823645833,314.42727272727274L383.4149828159722,288.6545454545455L384.04514742013896,320.2690909090909L384.7166158506945,306.52363636363634L387.208345517361,276.6272727272727L388.34862041319445,313.3963636363636L388.8551146111111,270.7854545454545L389.73961114236107,309.96000000000004L390.4700620798611,302.74363636363637L391.37770161111115,315.8018181818182L391.92670499999997,265.28727272727275L392.41310978819445,273.1909090909091L395.7174158993056,262.53818181818184L395.91115816666667,304.46181818181816L396.0628733888889,314.77090909090913L396.4836259861111,312.7090909090909L399.2590181180555,310.9909090909091L399.56638608680555,283.1563636363636L399.6498776736112,327.14181818181817L399.79460178125004,316.1454545454546L401.80081059375004,256.0090909090909L403.8617429583333,275.94L407.94021456250005,283.1563636363636L411.61352295138886,273.5345454545455L412.4737514756944,279.37636363636364L412.67649379861103,306.86727272727273L413.10182678125,263.9127272727273L413.72548241666664,278.0018181818182L415.55691336458335,304.46181818181816L415.90357621874995,339.8563636363636L417.2245754444445,300.6818181818182L421.13654602083335,308.2418181818182L423.1541656180556,320.2690909090909L423.3385863993056,317.8636363636364L426.8253043506944,297.5890909090909L428.6711996736111,309.96000000000004L430.21896815625,280.7509090909091L430.4219515520833,315.8018181818182L430.9547226979167,295.18363636363637L431.73555787500004,283.1563636363636L433.5108991909723,303.7745454545455L439.0734156701389,295.18363636363637L439.78136646875,279.37636363636364L440.94807902777774,315.8018181818182L441.29337580208335,292.7781818181818L443.73881946875,327.14181818181817L444.34182319097226,295.18363636363637L444.92497857638887,315.8018181818182L445.0752473611111,318.5509090909091L445.3826956875,291.06L449.21503184375,310.9909090909091L449.5138015451389,302.05636363636364L450.60795115625,290.7163636363636L451.4421438055556,288.9981818181818L452.0453886006944,323.3618181818182L452.5770347395833,297.5890909090909L453.5717819513889,306.86727272727273L454.3748761944445,260.82L454.6852173958333,323.0181818181818L455.46364184374994,297.5890909090909L458.28805213541665,319.2381818181818L459.2844065,314.08363636363634L460.4407529236111,281.0945454545455L460.76788887152776,316.83272727272725L461.9565390659722,257.38363636363636L462.79266029861105,292.09090909090907L465.2681577222222,274.56545454545454L465.64045466319453,288.9981818181818L466.7898099722222,287.28000000000003L467.46393020486113,321.6436363636364L469.1409137708333,238.48363636363635L469.87128435069445,267.00545454545454L471.94852931597217,320.2690909090909L472.70766793055554,307.21090909090907L472.85849921875,317.52L473.01937521180554,315.11454545454546L473.1750279583333,316.1454545454546L473.8067997152778,290.02909090909094L474.729466125,320.6127272727273L476.3723780520833,302.40000000000003L476.6132902534722,310.6472727272727L477.66364495138896,309.96000000000004L480.4711801388889,299.65090909090907L482.13619041666664,291.06L483.11639289583337,274.90909090909093L483.8676564618056,308.5854545454546L484.16208685069444,300.6818181818182L485.93437457638885,321.98727272727274L486.480324375,276.2836363636364L488.23557628125,303.7745454545455L488.90455362499995,294.84000000000003L489.7735411319445,263.9127272727273L490.08123053125,282.12545454545455L490.99666475347215,323.70545454545453L497.4177222465278,287.96727272727276L498.8332220555556,273.8781818181818L499.36334139930557,270.7854545454545L501.10485214930554,290.3727272727273L503.0400248090277,322.33090909090913L506.7609049201389,319.2381818181818L507.6846159791666,282.8127272727273L508.3380039409722,315.8018181818182L512.5234315625,269.0672727272727L515.3271095833334,315.4581818181818L515.6568973333333,295.8709090909091L516.6304301284722,318.89454545454544L517.5579983541667,318.5509090909091L520.5965617534722,261.8509090909091L521.119609625,270.4418181818182L521.6836398923612,263.5690909090909L521.9986418368056,297.9327272727273L522.1354908958333,323.70545454545453L522.2491969548611,327.48545454545456L527.1277895694445,221.3018181818182L537.3633438229167,250.51090909090908L537.7734892118056,263.9127272727273L538.2066972430556,259.44545454545454L541.6297719444444,183.84545454545454L546.5476594444444,238.14000000000001L547.7430596805556,270.09818181818184L552.4677674166667,291.06L552.9825384513889,272.50363636363636L554.4966370833333,291.06L555.4542590659722,265.9745454545454L556.1234774826388,250.16727272727275L556.9950364340277,312.36545454545455L566.2212987430556,277.65818181818184L568.6976801006945,284.53090909090906L569.2581746319444,327.14181818181817L569.6761950694445,307.21090909090907L572.1918713125,285.9054545454545L573.1367164305556,196.9036363636364L574.9811653159722,324.0490909090909L575.3092655555555,308.9290909090909L575.4664450972222,314.08363636363634L576.7144795868056,245.70000000000002L578.6455540069445,306.18L579.3474779826389,202.05818181818182L581.9781460069445,313.0527272727272L582.2064420590277,339.8563636363636L582.5917569375001,311.33454545454543L583.7024602222222,252.91636363636363L584.6612072118055,202.74545454545455L587.0747488958333,308.2418181818182L588.2835688576389,297.5890909090909L589.0878684652777,234.35999999999999L589.3159234444445,297.9327272727273L589.8158283159722,245.35636363636365L592.3639690451389,321.3L593.6402894236112,317.17636363636365L596.5964058854167,296.90181818181816L599.6878446111111,229.2054545454546L601.6974284444444,270.7854545454545L602.2896642430555,288.3109090909091L602.6005679479166,282.12545454545455L603.5117432152779,270.09818181818184L607.0838813368056,232.6418181818182L609.3453060104166,300.6818181818182L609.855657375,340.2L610.4401788402777,298.62L610.6327961006945,340.8872727272727L610.9199943020833,307.89818181818185L611.1936924201389,317.8636363636364L611.7096688194445,268.38L612.7411394722222,286.93636363636364L613.4240186875,215.11636363636364L614.3952211111111,311.6781818181818L615.3583877708334,320.9563636363636L615.8144977291666,305.4927272727273L616.2246431180556,315.11454545454546L616.558529107639,280.40727272727275L617.2001044965277,340.5436363636364L617.2386761631943,340.2L617.2639084618056,339.16909090909087L617.2796585590278,340.8872727272727L617.5138207187499,340.8872727272727L617.9187428611111,334.01454545454544L617.9650288611113,339.8563636363636L618.0494847395834,333.3272727272727L618.09528859375,339.8563636363636L618.1353870555555,339.8563636363636L618.3320221979166,339.8563636363636L618.4371299895834,340.2L618.4983625104168,340.5436363636364L618.85032896875,339.8563636363636L619.0074281527778,339.51272727272726L619.3184122152778,330.9218181818182L619.7446291319444,338.1381818181818L620.1675513854168,319.2381818181818L621.0852356215279,331.6090909090909L621.2432187395833,332.29636363636365L621.2884600902779,335.7327272727273L621.6602748854167,317.52L621.8544189409722,308.2418181818182L622.6089771701388,305.4927272727273L622.9811133958334,323.70545454545453L623.3100172118056,333.3272727272727L623.45000021875,334.01454545454544L623.5206345833333,331.26545454545453L623.589661795139,336.76363636363635L624.6272396284722,320.9563636363636L625.9774086770834,309.61636363636364L627.50870384375,276.6272727272727L629.2449109895833,314.42727272727274L629.3874654409722,317.17636363636365L631.1584674444443,302.40000000000003L631.6521044201389,327.14181818181817L640.8172949236111,314.42727272727274L641.8676496215278,302.05636363636364L642.1515531597222,317.17636363636365L643.4010340868056,315.8018181818182L643.9469035277777,303.4309090909091L644.1255385590277,309.27272727272725L644.6031843645833,300.3381818181818L644.9631062291667,274.56545454545454L649.72453740625,267.00545454545454L651.1125549027778,237.1090909090909L652.3478125277778,278.3454545454545L656.9980287326389,211.68L660.2971919548611,169.4127272727273L667.3202888784723,308.2418181818182L668.968022263889,242.95090909090908L670.6920954062501,306.18L671.7578787708333,231.95454545454547L672.1692295243056,315.8018181818182L677.4759676388888,257.03999999999996L678.0103459375,245.0127272727273L678.7027073541666,211.68L684.062883298611,14.089090909090896L692.6342308506944,133.67454545454547L695.763276951389,282.12545454545455L696.2135208020834,260.13272727272727L696.5404960347222,280.40727272727275L698.5566691944445,241.23272727272726L703.4074580659723,313.74L704.8784850034723,306.18L713.1378842013889,76.6309090909091L717.1398553333333,0L722.185993625,38.487272727272725L722.5596566458333,307.89818181818185L728.6865248229167,0L732.0024024340278,185.90727272727273L734.5957041562501,0L737.0789962708334,202.40181818181816L739.0993480277776,291.40363636363634L745.0523222743055,0L748.7057823263889,214.77272727272725L756.3800975555555,4.81090909090908L793.34782575,0L806.9833920625001,230.92363636363635L816.9415517465278,0L841.2990771006945,282.46909090909094L854.3021484374999,0L860.3000426041667,192.4363636363636L863.0449791909722,214.08545454545455L881.6340314375,0L884.15010946875,0L891.2243138506944,0L898.4817336493055,0L913.9869811458333,304.1181818181818L916.8363826631945,0L931.1243726458333,0L941.2299082395832,292.7781818181818L949.152367857639,109.62000000000002L954.2995157013889,0L964.1725766458334,0L980.8700100729167,119.24181818181818L982.1877949930556,204.46363636363637L985.6959684340278,284.53090909090906L986.7656089652778,296.5581818181818L987.4063807777777,290.7163636363636L987.7820527395834,280.40727272727275L988.3446365694443,316.4890909090909L988.8811041666667,319.2381818181818L991.9945608854166,288.3109090909091L992.53890353125,306.52363636363634L992.6909401840277,315.8018181818182L993.7038482222222,299.99454545454546L993.972403451389,295.8709090909091L994.6323003819446,315.8018181818182L994.9519630694444,318.2072727272727L995.8305131354168,312.36545454545455L995.9723443680556,318.2072727272727L996.6190626458333,301.7127272727273L997.9264814305554,282.46909090909094L1002.8839852465278,285.9054545454545L1004.3583068472221,268.03636363636366L1006.2273451701388,233.67272727272726L1009.8208584236111,282.12545454545455L1010.1628605347222,283.8436363636364L1011.6530125902777,289.68545454545455L1012.4644640277778,197.5909090909091L1016.0607897986112,320.9563636363636L1016.5440606388888,317.8636363636364L1016.8799555694445,315.4581818181818L1017.2876098715278,304.1181818181818L1019.5942758958333,250.51090909090908L1020.3998612256944,304.46181818181816L1025.4940533854167,331.26545454545453L1028.094587295139,0L1029.3960596145832,197.2472727272727L1034.6879315659723,204.12L1035.60513365625,178.69090909090912L1040.1419652326388,194.15454545454546L1046.5304778819443,126.11454545454545L1058.1325137847223,330.9218181818182L1058.3608098368054,303.0872727272727L1060.2169909375,203.08909090909094L1061.6441426041667,269.0672727272727L1063.3053760729167,133.3309090909091L1071.8347769375,269.0672727272727L1072.8925245381945,282.46909090909094L1075.176127920139,221.64545454545456L1075.6984525729165,246.73090909090908L1076.4008586944444,217.5218181818182L1077.5203209618055,230.92363636363635L1080.4717766805554,286.59272727272725L1083.1095965347222,255.3218181818182L1085.2525740486112,130.92545454545453L1087.7921165104167,43.2981818181818L1093.441821027778,166.32L1098.6537371284724,198.96545454545455L1103.7024468645832,8.590909090909083L1105.019588923611,320.2690909090909L1105.5398242777778,339.8563636363636L1105.645333857639,336.76363636363635L1105.7142003541667,340.2L1105.7939954895833,339.51272727272726L1105.85426371875,332.9836363636363L1106.2204534791667,332.9836363636363L1106.6636258576389,324.73636363636365L1106.9181185,319.92545454545456L1107.592078017361,315.8018181818182L1109.6458585520834,307.89818181818185L1109.8822707256945,326.45454545454544L1109.9750837986112,327.14181818181817L1110.17549575,334.01454545454544L1110.398889986111,337.10727272727274L1110.4602832222222,339.16909090909087L1110.7362313541666,338.4818181818182L1110.777133392361,339.8563636363636L1110.8346694618056,339.51272727272726L1111.5716293680557,335.3890909090909L1112.00379275,327.48545454545456L1113.5382218645834,280.7509090909091L1114.3316731909722,321.98727272727274L1115.1141958784722,324.0490909090909L1115.3212775138888,334.35818181818183L1115.4192334756945,333.6709090909091L1117.3723258888888,337.79454545454547L1117.4140315034722,336.42L1117.4843444374999,330.9218181818182L1117.8613824791667,318.89454545454544L1117.9789457048612,334.35818181818183L1118.3187781597223,333.6709090909091L1118.5805833472223,334.70181818181817L1118.944362378472,333.3272727272727L1119.0087288472223,332.29636363636365L1119.129747451389,321.98727272727274L1119.5122498125,335.3890909090909L1119.5908395833333,328.86L1119.96136865625,323.3618181818182L1121.0529468229167,317.8636363636364L1122.1579447152778,317.17636363636365L1122.7750913819443,327.8290909090909L1123.0435662534721,326.79818181818183L1123.2233262916666,327.14181818181817L1123.8230353506945,323.70545454545453L1124.1439034027778,326.1109090909091L1124.5857900590277,323.3618181818182L1125.337616128472,317.52L1125.8072261701388,306.52363636363634L1127.292637125,310.9909090909091L1128.6588777013887,213.74181818181816L1129.8026079756944,264.94363636363636L1132.12590803125,262.53818181818184L1136.0142534618058,141.23454545454547L1139.931608,0L1141.7214136909722,0L1145.2737838333333,0L1157.835531017361,253.60363636363635L1159.2787542118056,69.41454545454545L1175.7437129895834,239.8581818181818L1176.8868004027777,162.88363636363636L1177.125462590278,297.24545454545455L1185.4355674583333,0L1189.0161431319445,0L1190.8154310243058,0L1192.5988081041667,0L1194.3823458993058,0L1199.98190725,0L1203.5825723333335,4.123636363636348L1226.0730683055556,146.73272727272726L1229.2664005173613,175.25454545454545L1234.7549076111113,319.58181818181816L1235.0325432534723,328.5163636363637L1235.1967139097223,325.7672727272727L1235.7201635694444,323.0181818181818L1235.8131373576389,323.3618181818182L1236.0399066145835,319.2381818181818L1237.7071669062498,325.4236363636363L1238.123098045139,328.5163636363637L1238.5113057986111,337.10727272727274L1240.122074670139,288.6545454545455L1241.7002986979167,320.9563636363636L1242.7091084965277,325.7672727272727L1242.8113234131945,325.7672727272727L1243.3159693854166,325.4236363636363L1244.8708093402777,308.2418181818182L1245.0396407395835,310.6472727272727L1246.8554823055556,327.48545454545456L1246.9355988715276,329.20363636363635L1247.0571799791667,320.9563636363636L1247.3298334479168,329.20363636363635L1247.480664736111,329.20363636363635L1247.6513443611113,329.20363636363635L1247.719487638889,332.64L1247.777988,333.3272727272727L1247.858104565972,340.2L1248.5894394375,340.5436363636364L1248.6976008194445,340.5436363636364L1248.8293873472223,340.5436363636364L1248.94887915625,335.04545454545456L1249.0719870590278,339.8563636363636L1249.8074201701388,305.8363636363636L1251.9969247569445,298.96363636363634L1254.840138736111,291.74727272727273L1255.6505455243052,285.2181818181818L1255.8100554374998,309.27272727272725L1259.029905670139,305.8363636363636L1260.0654745625,318.5509090909091L1264.609377611111,283.1563636363636L1265.1751757465279,219.58363636363637L1265.8415012881946,240.54545454545453L1266.7546854965276,249.13636363636365L1267.5572975937498,263.5690909090909L1269.002931517361,260.47636363636366L1271.1319268020834,299.65090909090907L1271.4456430243056,311.6781818181818L1275.9868139131945,235.3909090909091L1277.8258788368057,298.2763636363636L1279.853382423611,247.07454545454544L1282.0669943020832,307.89818181818185L1283.7793352291667,288.9981818181818L1285.7799993645833,277.31454545454545L1287.50077784375,266.6618181818182L1290.995852989583,245.35636363636365L1293.3844034479168,260.13272727272727L1296.8032191944444,300.6818181818182L1298.2340673125002,289.34181818181816L1304.0005314791665,218.20909090909092L1308.2009056215277,248.10545454545453L1309.4175202743056,283.1563636363636L1309.961139701389,312.36545454545455L1310.807868142361,179.03454545454545L1314.326889864583,144.67090909090908L1315.1169661701388,170.1L1315.850309982639,185.22L1323.7301800520834,254.9781818181818L1325.61006665625,303.4309090909091L1325.9169524791666,277.65818181818184L1326.6785821805556,253.94727272727275L1327.8671520173611,287.62363636363636L1328.2717527291668,250.51090909090908L1328.91951565625,309.27272727272725L1330.9044296944446,307.89818181818185L1332.1012763680556,279.03272727272724L1333.9861451458335,280.06363636363636L1336.661009871528,308.9290909090909L1337.3157639131944,312.36545454545455L1337.8835709895832,329.20363636363635L1338.3123593506944,303.4309090909091L1339.8986995,324.73636363636365L1340.4551761493055,279.71999999999997L1344.2801194027777,289.68545454545455L1345.7014049618056,220.61454545454544L1346.23047965625,232.6418181818182L1352.2939456562501,259.78909090909093L1352.7071446354166,253.60363636363635L1353.8193747152777,276.97090909090906L1354.2226093472223,265.28727272727275L1357.1287433576388,199.30909090909094L1358.3828046701387,199.65272727272728L1361.0436871666666,275.94L1361.9926305243055,276.2836363636364L1362.3471684270833,262.19454545454545L1363.0421816458334,244.6690909090909" style="fill: none;" fill="none"></path></g></g></g></g></g></g><g transform="translate(51, 378)" clip-path="url(#clip_1)"><clipPath id="clip_1"><rect width="1446" height="22"></rect></clipPath><g><g><line x1="0" y1="0" x2="0" y2="5" style="visibility: inherit;" fill="rgb(0, 0, 0)" stroke="rgb(204, 204, 204)" stroke-width="1px"></line><line x1="144.64375" y1="0" x2="144.64375" y2="5" style="visibility: inherit;" fill="rgb(0, 0, 0)" stroke="rgb(204, 204, 204)" stroke-width="1px"></line><line x1="289.2875" y1="0" x2="289.2875" y2="5" style="visibility: inherit;" fill="rgb(0, 0, 0)" stroke="rgb(204, 204, 204)" stroke-width="1px"></line><line x1="433.93125" y1="0" x2="433.93125" y2="5" style="visibility: inherit;" fill="rgb(0, 0, 0)" stroke="rgb(204, 204, 204)" stroke-width="1px"></line><line x1="578.575" y1="0" x2="578.575" y2="5" style="visibility: inherit;" fill="rgb(0, 0, 0)" stroke="rgb(204, 204, 204)" stroke-width="1px"></line><line x1="723.21875" y1="0" x2="723.21875" y2="5" style="visibility: inherit;" fill="rgb(0, 0, 0)" stroke="rgb(204, 204, 204)" stroke-width="1px"></line><line x1="867.8625" y1="0" x2="867.8625" y2="5" style="visibility: inherit;" fill="rgb(0, 0, 0)" stroke="rgb(204, 204, 204)" stroke-width="1px"></line><line x1="1012.5062499999999" y1="0" x2="1012.5062499999999" y2="5" style="visibility: inherit;" fill="rgb(0, 0, 0)" stroke="rgb(204, 204, 204)" stroke-width="1px"></line><line x1="1157.15" y1="0" x2="1157.15" y2="5" style="visibility: inherit;" fill="rgb(0, 0, 0)" stroke="rgb(204, 204, 204)" stroke-width="1px"></line><line x1="1301.79375" y1="0" x2="1301.79375" y2="5" style="visibility: inherit;" fill="rgb(0, 0, 0)" stroke="rgb(204, 204, 204)" stroke-width="1px"></line><line x1="1446.4375" y1="0" x2="1446.4375" y2="5" style="visibility: inherit;" fill="rgb(0, 0, 0)" stroke="rgb(204, 204, 204)" stroke-width="1px"></line></g><g transform="translate(0, 8)"><text x="0" y="0" dx="0em" dy="0.95em" style="text-anchor: middle; visibility: hidden; font-family: Roboto, sans-serif; font-size: 12px; font-weight: 200;" fill="rgb(50, 49, 63)" stroke="none" stroke-width="1px">-0.5</text><text x="144.64375" y="0" dx="0em" dy="0.95em" style="text-anchor: middle; visibility: inherit; font-family: Roboto, sans-serif; font-size: 12px; font-weight: 200;" fill="rgb(50, 49, 63)" stroke="none" stroke-width="1px">0</text><text x="289.2875" y="0" dx="0em" dy="0.95em" style="text-anchor: middle; visibility: inherit; font-family: Roboto, sans-serif; font-size: 12px; font-weight: 200;" fill="rgb(50, 49, 63)" stroke="none" stroke-width="1px">0.5</text><text x="433.93125" y="0" dx="0em" dy="0.95em" style="text-anchor: middle; visibility: inherit; font-family: Roboto, sans-serif; font-size: 12px; font-weight: 200;" fill="rgb(50, 49, 63)" stroke="none" stroke-width="1px">1</text><text x="578.575" y="0" dx="0em" dy="0.95em" style="text-anchor: middle; visibility: inherit; font-family: Roboto, sans-serif; font-size: 12px; font-weight: 200;" fill="rgb(50, 49, 63)" stroke="none" stroke-width="1px">1.5</text><text x="723.21875" y="0" dx="0em" dy="0.95em" style="text-anchor: middle; visibility: inherit; font-family: Roboto, sans-serif; font-size: 12px; font-weight: 200;" fill="rgb(50, 49, 63)" stroke="none" stroke-width="1px">2</text><text x="867.8625" y="0" dx="0em" dy="0.95em" style="text-anchor: middle; visibility: inherit; font-family: Roboto, sans-serif; font-size: 12px; font-weight: 200;" fill="rgb(50, 49, 63)" stroke="none" stroke-width="1px">2.5</text><text x="1012.5062499999999" y="0" dx="0em" dy="0.95em" style="text-anchor: middle; visibility: inherit; font-family: Roboto, sans-serif; font-size: 12px; font-weight: 200;" fill="rgb(50, 49, 63)" stroke="none" stroke-width="1px">3</text><text x="1157.15" y="0" dx="0em" dy="0.95em" style="text-anchor: middle; visibility: inherit; font-family: Roboto, sans-serif; font-size: 12px; font-weight: 200;" fill="rgb(50, 49, 63)" stroke="none" stroke-width="1px">3.5</text><text x="1301.79375" y="0" dx="0em" dy="0.95em" style="text-anchor: middle; visibility: inherit; font-family: Roboto, sans-serif; font-size: 12px; font-weight: 200;" fill="rgb(50, 49, 63)" stroke="none" stroke-width="1px">4</text><text x="1446.4375" y="0" dx="0em" dy="0.95em" style="text-anchor: middle; visibility: hidden; font-family: Roboto, sans-serif; font-size: 12px; font-weight: 200;" fill="rgb(50, 49, 63)" stroke="none" stroke-width="1px">4.5</text></g><line x1="0" y1="0" x2="1446.4375" y2="0" fill="rgb(0, 0, 0)" stroke="rgb(204, 204, 204)" stroke-width="1px"></line></g></g></g></g></svg>