<svg viewBox="0 0 1498 400" xmlns="http://www.w3.org/2000/svg"><g><g><g><g><g><line x1="51.5625" y1="378" x2="46.5625" y2="378" style="visibility: inherit;" fill="rgb(0, 0, 0)" stroke="rgb(204, 204, 204)" stroke-width="1px"></line><line x1="51.5625" y1="340.2" x2="46.5625" y2="340.2" style="visibility: inherit;" fill="rgb(0, 0, 0)" stroke="rgb(204, 204, 204)" stroke-width="1px"></line><line x1="51.5625" y1="302.40000000000003" x2="46.5625" y2="302.40000000000003" style="visibility: inherit;" fill="rgb(0, 0, 0)" stroke="rgb(204, 204, 204)" stroke-width="1px"></line><line x1="51.5625" y1="264.59999999999997" x2="46.5625" y2="264.59999999999997" style="visibility: inherit;" fill="rgb(0, 0, 0)" stroke="rgb(204, 204, 204)" stroke-width="1px"></line><line x1="51.5625" y1="226.79999999999998" x2="46.5625" y2="226.79999999999998" style="visibility: inherit;" fill="rgb(0, 0, 0)" stroke="rgb(204, 204, 204)" stroke-width="1px"></line><line x1="51.5625" y1="189" x2="46.5625" y2="189" style="visibility: inherit;" fill="rgb(0, 0, 0)" stroke="rgb(204, 204, 204)" stroke-width="1px"></line><line x1="51.5625" y1="151.20000000000002" x2="46.5625" y2="151.20000000000002" style="visibility: inherit;" fill="rgb(0, 0, 0)" stroke="rgb(204, 204, 204)" stroke-width="1px"></line><line x1="51.5625" y1="113.40000000000002" x2="46.5625" y2="113.40000000000002" style="visibility: inherit;" fill="rgb(0, 0, 0)" stroke="rgb(204, 204, 204)" stroke-width="1px"></line><line x1="51.5625" y1="75.60000000000002" x2="46.5625" y2="75.60000000000002" style="visibility: inherit;" fill="rgb(0, 0, 0)" stroke="rgb(204, 204, 204)" stroke-width="1px"></line><line x1="51.5625" y1="37.79999999999999" x2="46.5625" y2="37.79999999999999" style="visibility: inherit;" fill="rgb(0, 0, 0)" stroke="rgb(204, 204, 204)" stroke-width="1px"></line><line x1="51.5625" y1="0" x2="46.5625" y2="0" style="visibility: inherit;" fill="rgb(0, 0, 0)" stroke="rgb(204, 204, 204)" stroke-width="1px"></line></g><g transform="translate(41.5625, 0)"><text x="0" y="378" dx="0em" dy="0.3em" style="text-anchor: end; visibility: hidden; font-family: Roboto, sans-serif; font-size: 12px; font-weight: 200;" fill="rgb(50, 49, 63)" stroke="none" stroke-width="1px">-0.1</text><text x="0" y="340.2" dx="0em" dy="0.3em" style="text-anchor: end; visibility: inherit; font-family: Roboto, sans-serif; font-size: 12px; font-weight: 200;" fill="rgb(50, 49, 63)" stroke="none" stroke-width="1px">0</text><text x="0" y="302.40000000000003" dx="0em" dy="0.3em" style="text-anchor: end; visibility: inherit; font-family: Roboto, sans-serif; font-size: 12px; font-weight: 200;" fill="rgb(50, 49, 63)" stroke="none" stroke-width="1px">0.1</text><text x="0" y="264.59999999999997" dx="0em" dy="0.3em" style="text-anchor: end; visibility: inherit; font-family: Roboto, sans-serif; font-size: 12px; font-weight: 200;" fill="rgb(50, 49, 63)" stroke="none" stroke-width="1px">0.2</text><text x="0" y="226.79999999999998" dx="0em" dy="0.3em" style="text-anchor: end; visibility: inherit; font-family: Roboto, sans-serif; font-size: 12px; font-weight: 200;" fill="rgb(50, 49, 63)" stroke="none" stroke-width="1px">0.3</text><text x="0" y="189" dx="0em" dy="0.3em" style="text-anchor: end; visibility: inherit; font-family: Roboto, sans-serif; font-size: 12px; font-weight: 200;" fill="rgb(50, 49, 63)" stroke="none" stroke-width="1px">0.4</text><text x="0" y="151.20000000000002" dx="0em" dy="0.3em" style="text-anchor: end; visibility: inherit; font-family: Roboto, sans-serif; font-size: 12px; font-weight: 200;" fill="rgb(50, 49, 63)" stroke="none" stroke-width="1px">0.5</text><text x="0" y="113.40000000000002" dx="0em" dy="0.3em" style="text-anchor: end; visibility: inherit; font-family: Roboto, sans-serif; font-size: 12px; font-weight: 200;" fill="rgb(50, 49, 63)" stroke="none" stroke-width="1px">0.6</text><text x="0" y="75.60000000000002" dx="0em" dy="0.3em" style="text-anchor: end; visibility: inherit; font-family: Roboto, sans-serif; font-size: 12px; font-weight: 200;" fill="rgb(50, 49, 63)" stroke="none" stroke-width="1px">0.7</text><text x="0" y="37.79999999999999" dx="0em" dy="0.3em" style="text-anchor: end; visibility: inherit; font-family: Roboto, sans-serif; font-size: 12px; font-weight: 200;" fill="rgb(50, 49, 63)" stroke="none" stroke-width="1px">0.8</text><text x="0" y="0" dx="0em" dy="0.3em" style="text-anchor: end; visibility: hidden; font-family: Roboto, sans-serif; font-size: 12px; font-weight: 200;" fill="rgb(50, 49, 63)" stroke="none" stroke-width="1px">0.9</text></g><line x1="51.5625" y1="0" x2="51.5625" y2="378" fill="rgb(0, 0, 0)" stroke="rgb(204, 204, 204)" stroke-width="1px"></line></g></g><g transform="translate(51, 0)" clip-path="url(#clip_0)"><clipPath id="clip_0"><rect width="1446" height="378"></rect></clipPath><g><g><g><line x1="0" y1="0" x2="0" y2="378" fill="rgb(0, 0, 0)" stroke="rgb(60, 60, 60)" stroke-width="1px" opacity="0.25"></line><line x1="120.53645833333333" y1="0" x2="120.53645833333333" y2="378" fill="rgb(0, 0, 0)" stroke="rgb(60, 60, 60)" stroke-width="1px" opacity="0.25"></line><line x1="241.07291666666666" y1="0" x2="241.07291666666666" y2="378" fill="rgb(0, 0, 0)" stroke="rgb(60, 60, 60)" stroke-width="1px" opacity="0.25"></line><line x1="361.609375" y1="0" x2="361.609375" y2="378" fill="rgb(0, 0, 0)" stroke="rgb(60, 60, 60)" stroke-width="1px" opacity="0.25"></line><line x1="482.1458333333333" y1="0" x2="482.1458333333333" y2="378" fill="rgb(0, 0, 0)" stroke="rgb(60, 60, 60)" stroke-width="1px" opacity="0.25"></line><line x1="602.6822916666666" y1="0" x2="602.6822916666666" y2="378" fill="rgb(0, 0, 0)" stroke="rgb(60, 60, 60)" stroke-width="1px" opacity="0.25"></line><line x1="723.2187499999999" y1="0" x2="723.2187499999999" y2="378" fill="rgb(0, 0, 0)" stroke="rgb(60, 60, 60)" stroke-width="1px" opacity="0.25"></line><line x1="843.7552083333333" y1="0" x2="843.7552083333333" y2="378" fill="rgb(0, 0, 0)" stroke="rgb(60, 60, 60)" stroke-width="1px" opacity="0.25"></line><line x1="964.2916666666664" y1="0" x2="964.2916666666664" y2="378" fill="rgb(0, 0, 0)" stroke="rgb(60, 60, 60)" stroke-width="1px" opacity="0.25"></line><line x1="1084.8281249999998" y1="0" x2="1084.8281249999998" y2="378" fill="rgb(0, 0, 0)" stroke="rgb(60, 60, 60)" stroke-width="1px" opacity="0.25"></line><line x1="1205.3645833333333" y1="0" x2="1205.3645833333333" y2="378" fill="rgb(0, 0, 0)" stroke="rgb(60, 60, 60)" stroke-width="1px" opacity="0.25"></line><line x1="1325.9010416666665" y1="0" x2="1325.9010416666665" y2="378" fill="rgb(0, 0, 0)" stroke="rgb(60, 60, 60)" stroke-width="1px" opacity="0.25"></line><line x1="1446.4375" y1="0" x2="1446.4375" y2="378" fill="rgb(0, 0, 0)" stroke="rgb(60, 60, 60)" stroke-width="1px" opacity="0.25"></line></g><g><line x1="0" y1="378" x2="1446.4375" y2="378" fill="rgb(0, 0, 0)" stroke="rgb(60, 60, 60)" stroke-width="1px" opacity="0.25"></line><line x1="0" y1="340.2" x2="1446.4375" y2="340.2" fill="rgb(0, 0, 0)" stroke="rgb(60, 60, 60)" stroke-width="1px" opacity="0.25"></line><line x1="0" y1="302.40000000000003" x2="1446.4375" y2="302.40000000000003" fill="rgb(0, 0, 0)" stroke="rgb(60, 60, 60)" stroke-width="1px" opacity="0.25"></line><line x1="0" y1="264.59999999999997" x2="1446.4375" y2="264.59999999999997" fill="rgb(0, 0, 0)" stroke="rgb(60, 60, 60)" stroke-width="1px" opacity="0.25"></line><line x1="0" y1="226.79999999999998" x2="1446.4375" y2="226.79999999999998" fill="rgb(0, 0, 0)" stroke="rgb(60, 60, 60)" stroke-width="1px" opacity="0.25"></line><line x1="0" y1="189" x2="1446.4375" y2="189" fill="rgb(0, 0, 0)" stroke="rgb(60, 60, 60)" stroke-width="1px" opacity="0.25"></line><line x1="0" y1="151.20000000000002" x2="1446.4375" y2="151.20000000000002" fill="rgb(0, 0, 0)" stroke="rgb(60, 60, 60)" stroke-width="1px" opacity="0.25"></line><line x1="0" y1="113.40000000000002" x2="1446.4375" y2="113.40000000000002" fill="rgb(0, 0, 0)" stroke="rgb(60, 60, 60)" stroke-width="1px" opacity="0.25"></line><line x1="0" y1="75.60000000000002" x2="1446.4375" y2="75.60000000000002" fill="rgb(0, 0, 0)" stroke="rgb(60, 60, 60)" stroke-width="1px" opacity="0.25"></line><line x1="0" y1="37.79999999999999" x2="1446.4375" y2="37.79999999999999" fill="rgb(0, 0, 0)" stroke="rgb(60, 60, 60)" stroke-width="1px" opacity="0.25"></line><line x1="0" y1="0" x2="1446.4375" y2="0" fill="rgb(0, 0, 0)" stroke="rgb(60, 60, 60)" stroke-width="1px" opacity="0.25"></line></g></g></g><g><g><line x1="0" y1="340.2" x2="1446.4375" y2="340.2" fill="rgb(0, 0, 0)" stroke="rgb(153, 153, 153)" stroke-width="1.5px"></line></g></g><g><g><line x1="120.53645833333333" y1="0" x2="120.53645833333333" y2="378" fill="rgb(0, 0, 0)" stroke="rgb(153, 153, 153)" stroke-width="1.5px"></line></g></g><g><g><g><g><g><path stroke="rgb(187, 187, 187)" stroke-width="2px" d="M120.53645833333333,108.00018281936646L120.6136351490162,110.91471115060764L121.14617191840277,98.46425232206077L121.564031640625,92.25036414321917L121.68105245225694,88.8634985192928L121.98557442129626,86.55281612944603L122.15248393373841,85.84573679446989L122.63580164930555,95.45662957592535L123.5686199074074,104.00405528481332L123.79646729600694,109.82967545389639L123.98647962962963,113.27864283459057L124.107518323206,117.14703944527005L124.18720631510415,119.71920396397383L124.33570053530092,121.953981428801L124.86221048177082,123.46010626034119L124.94809270833332,123.86954154135633L125.0636068142361,119.64470492395837L125.14865198206019,118.62631823843921L125.20724609375,118.20394778049739L125.88342214265046,116.16705882308456L126.08213988715276,116.3621934211052L126.36556797598378,115.8742419528146L126.46434090711804,114.88204408045074L126.52142831307869,115.0005035179265L126.59224348234952,115.69175050286414L127.04559449508102,114.59037208879518L127.77584453848378,111.28387292410511L127.85821111834491,109.42984731301114L128.27556860532405,107.47927386439461L129.25291838831018,104.0531409607736L129.45079907407407,103.06876956105349L129.50822130353006,102.67331628385224L129.932610083912,102.19312716968916L130.1194415943287,100.87974449133569L130.24181958188655,99.4218807456717L130.70822871093748,97.80344087060614L130.99768362268517,104.22158251694512L131.04656785300926,102.06683557984667L131.63552238136572,99.11235849456408L131.75589142795138,98.94970725002894L131.81800118634257,96.43026125277251L131.88044576822915,94.2508537952226L132.45031535734952,94.09159116547151L132.78229285300924,91.91172428749569L132.96527389322915,91.33293247593734L133.093511291956,89.39714607345874L133.62353688512732,87.71930201055481L133.9717533203125,86.28971420141569L134.01879602141204,90.34143679110379L134.19039306278935,88.80884186354153L134.8496605251736,88.44750643365396L134.9367146339699,87.10180436711627L135.0498849754051,86.32361252498762L135.30669459635416,85.19036994244176L135.4417958767361,84.79982336794976L135.58677445023147,85.2883719070188L135.77009031394675,84.23401381844457L136.3096583767361,87.46464781943934L136.45597624421293,88.19419662132853L137.01429442274303,90.3679098170759L137.71039246961806,90.80306214206554L137.79175457899305,90.29288890696232L137.85938892505786,96.71500465219171L138.3922605179398,94.66687858085538L139.70895391348378,92.67519685392601L139.75934484953703,90.57193378159432L140.0193352936921,96.60328920818189L140.3303863208912,94.67788857772904L140.68379252025463,93.1811657038972L140.83496532841434,91.00663831708204L140.92034531973377,89.35544011297051L141.0942861255787,92.78277298522181L142.65489843749998,96.62743805784565L143.47471376591432,95.93148247348276L143.8627741970486,104.20740517286957L144.0129425347222,100.34650272128702L144.08091170428239,97.12461318850639L144.2592052155671,96.28773152493675L144.49692989728007,104.14801245221238L144.79006786747686,100.78246833646814L144.89721138599538,97.39974311930665L145.55513955439815,105.03574407328576L147.52658029513887,103.32676802114285L148.09142753182869,107.66917827916087L148.1406465856481,103.58175521257118L148.36514573929395,110.89924289642187L148.507110901331,108.56995674783849L149.05220355179395,104.93365143598629L149.35672552083332,103.70701563125859L149.6769841941551,101.23136380266583L150.0991966218171,102.7175138720841L150.7593011429398,120.04664359964517L150.80667866753473,122.87413846902379L150.98580923755785,130.3313609880795L151.60506529224537,139.3549490432197L151.70450787037038,130.18227075595374L151.90088185040506,136.06424870510176L152.21427664207175,145.4438331172171L153.58755520833333,136.41625088197537L153.94983423032406,135.73562782374822L154.89671507523147,131.04214765342746L155.88544885706017,139.80705213049166L156.06709060329862,155.28847324624311L157.07005438368054,163.6003730574764L157.5724570384838,169.3649868893525L157.96604205729167,176.90750121788517L158.46007412471064,187.9118318895803L158.82151608796292,188.8525958441688L159.49953366608793,172.31710459600396L159.65120870949073,161.28964845837706L159.8038882233796,167.48419616455277L160.11979419126155,178.0955810390953L161.23324972511574,185.17656182134834L162.0391698784722,187.5559390116257L162.22047680121523,190.41724925014773L162.41718560474536,194.13799977968276L164.66251196469904,197.5283929162607L166.186628515625,187.7066232611143L167.12831959635415,195.75643549792179L167.3359101634838,205.69318579126238L167.79964070457174,214.86339196618272L168.10834796730322,223.67676488310897L168.79373166232634,205.1156300224632L169.81343661747684,212.46470234732212L170.035089771412,218.9143552661543L170.077110120081,208.20856377966268L170.71511629050923,192.7227729345325L171.61746561053238,193.9421273406902L172.67667973813656,189.09402100004255L172.72924702690972,195.20721874122466L173.14509780815968,200.5605215444933L173.33092484809026,207.4202520076292L174.3114554542824,215.30480753688164L174.43952544126157,221.92209214393327L176.04081880787032,232.37488472861125L176.6389809823495,229.44665882734014L176.82095755208334,233.08254572146873L176.9893737702546,241.39537019994742L177.40589419849533,238.48793463589357L179.7310759620949,240.36358237995879L180.24971755642358,220.27146407642087L180.69218680555556,224.8144645924352L181.0777360604745,218.38882266904065L181.6067571831597,223.97808972477887L182.60268967013886,221.0429906678274L182.81228917824072,219.539783679894L184.00560011574072,205.00742474508024L184.46464312789348,190.298934360762L184.52641806278933,196.98807873861148L184.75861815682867,208.51261315162725L184.8061630931713,219.90078598368757L185.34405703848375,212.55176430303328L185.6104091290509,211.46619787447622L186.5564529152199,199.61419123115053L186.8805620587384,209.02649847654004L188.00389488570602,217.63913736470377L188.4955831886574,224.31951274031636L188.89686914785878,227.8366372555852L189.04301960358794,227.1489106856549L189.2432440538194,231.21544147030096L190.0036282118055,237.29081065956643L190.76083154658562,242.83743654748162L191.0636793981481,248.51417510194676L191.64895086805555,247.9734626361776L191.9569884837963,224.99597024660991L192.37903349971063,237.098311185467L192.4267458478009,242.35351958572093L192.68640146846064,238.4909050620973L192.91542073929395,243.43557834196406L193.35069128327544,225.64322261920842L193.50923020833335,232.98035183703118L194.07273815104162,228.91415886443488L194.23278378182866,235.307466639457L194.71995196759255,240.01935259518396L195.11872675057865,244.1704823851084L195.4527131872106,220.84207812006093L196.55863519241893,233.15774360375593L196.96377162181707,228.18256982659605L197.9186882306134,231.71424824795218L198.57494228153934,242.87634706011562L198.76512202690967,252.1035782693787L199.11735634403937,259.76757477319535L201.71742819733794,261.8601870346753L203.16687910879625,269.1985189428322L203.44059731626157,268.596457173609L203.8335126880787,255.41755309944833L203.89763138744215,262.72190441353825L204.02586878616896,264.3270414585288L204.2219079427083,249.6106634254502L204.49847214988424,256.8284504275483L205.02129903790507,247.91895104247484L205.8687373046875,257.13703020844315L206.22666362123843,261.6189615547503L206.99910142505786,269.88008309750455L207.62019900896985,276.837297954921L208.60591937934026,277.6099987822269L209.2563140190972,278.78640627174286L209.45369246961806,248.83043955457578L209.76892879050925,250.28260019241287L210.0133499421296,246.06260264988475L210.30866426504627,256.59141133620716L210.5634649450231,256.4419475899659L210.73556422164347,265.6300785887782L211.42195238715274,268.7422592326266L211.65616142216433,257.89549139336975L211.98629738859955,252.37735920743938L212.52670251012728,252.6931422664451L213.09104751157406,262.24350329634234L213.26398384693286,267.26279831198036L214.75311134259258,269.87524703251427L215.50445526620368,268.95471186758124L216.3972621166088,268.0573933879821L216.87254406828697,275.0990173738942L217.20334968171295,271.36786706114646L217.54972458767358,259.5953200759004L218.2603874565972,255.6318926070416L218.81619445891204,263.8978514551264L219.61257214265046,267.91284288667345L219.77044142071756,250.6467793596516L220.20922761140048,244.7773092775365L220.3577218315972,255.29180265252762L221.78423733362266,261.8682583028796L223.04066249999997,269.77300378054525L223.3930642288773,268.60294124131025L223.62543173466435,262.5311546686086L224.66003633535877,258.3427058216308L225.2494930989583,248.8799011579074L225.55066683304398,258.70931831953726L226.01155137442126,264.2775797242337L226.2899571108217,266.6057841835669L226.54743637876155,264.02468530312314L226.73543977141205,272.1667925361183L226.99944809751153,246.89295148997292L227.93745611979165,253.07768227613437L228.4817117115162,256.80649218005937L228.71073098234947,261.945167503422L229.25632586805554,240.62796467166706L229.56469830729165,235.7221515820258L229.76107228732639,241.247215322848L230.23501494502312,252.40918250125296L230.4158196325231,238.62461058532594L231.7202919704861,241.41670417815538L232.4771604817708,250.2821794172682L232.6820724609375,256.77853037769336L233.54223402054393,257.26711296545L233.9587544487847,261.6761665871794L234.49631357060184,265.4910330746966L234.70306707899303,250.0047139640885L234.83398306568284,257.06181831775126L235.5304159360532,263.70391502435325L235.82238202401615,267.9530776427887L236.38655961371526,250.59586071587566L236.66245417390047,228.83356186900954L237.09605060040505,234.00679605167366L237.59292866753466,238.47171112494735L237.93143522135412,247.7815536542486L238.16179378616897,243.34613596987606L238.54365998263884,233.20842781795164L239.53842058738422,242.22411633723115L239.77631268084488,247.98484922492665L240.04567818287032,254.1328752891972L240.73909764178237,244.27332386635155L241.54166956018514,222.34562667561622L242.149039380787,200.74758967538764L243.03113187934025,214.59852359288016L243.3222609085648,212.08029192322607L243.7759467447916,220.5228208841781L244.30295892650463,221.73044463680336L245.37405928819442,212.15628033343185L246.66597574508094,224.12733956897006L247.72870551938652,219.0150087187209L248.54634449508097,218.98484482577348L251.58771371527774,216.22296471555302L253.2527909577546,224.67588981355607L253.80374301938653,236.137919695085L254.14224957320596,242.1777699466247L254.9749556061921,254.5971839217935L255.47015955584487,260.3391505691712L255.69901141493054,265.3166286949624L256.4570518084491,268.8315913385811L256.8429358868634,261.31879961278673L257.26481349103005,251.06607157884673L257.92357871817126,225.87919049604577L258.27731974103006,240.79558039359515L258.4502560763889,249.1188118351939L258.85288132957174,254.18666817868015L259.59719395978004,232.3181895602308L260.54524668692125,216.6059203036902L261.7393946831597,198.27907700072092L261.89458537326385,189.02054372033285L262.0660150028935,187.24398828139587L262.24497816116894,184.73573086641315L262.8682520978009,199.95402157569697L263.5236690899884,213.6003558914369L263.6512368417245,204.64317926033632L263.83271117621524,215.07855497305246L264.3993999421296,231.05137026306448L264.5644679253472,210.25487851974356L264.7926501374421,191.58600013629035L264.9552069444444,206.34606746364756L267.1566714265046,219.40718122228736L267.43675128038194,233.57531026004793L268.35031718749997,242.19052652447607L269.7535624565972,250.47457118923273L270.3321374565972,256.2712329850653L272.77099179687497,266.2126250431091L272.9628456597222,269.16384596460836L273.58494771412035,272.1671158863973L273.94220438368046,269.94467330304684L274.2614585865162,252.8068916455777L275.1572788483796,249.35442594244986L275.54466963252315,253.1073378165729L275.9613574725115,226.97852661332908L276.35042237413194,205.7314782190642L277.4789449652778,215.21658269902795L277.8599741030092,195.8337263759933L279.12426762152774,190.74845422212462L279.37890088975695,210.65713862377953L279.545308166956,218.1331066663938L279.77549932002313,214.80920417780635L280.8241665075231,218.8441742937139L281.1291907118055,228.78737074447827L281.341133984375,239.16815644349836L282.06100449942124,250.64998403985552L282.3014077690972,227.8237713347809L283.90270113570597,236.45815837863051L284.5797142433449,232.96522704949496L285.4201212167245,247.1510463844184L285.8297777633102,256.5090603604791L286.01292621527773,253.6104232615874L286.62632285879624,254.26202361013978L287.57353852719905,253.9786394434424L287.73910874565973,258.61950938608885L287.89881955295135,258.6176144806608L288.1239883535879,260.6417480435823L289.12711954571756,237.22107627350354L291.26764615162034,242.667650788372L292.16162488425925,229.1440022853448L292.7517512948495,228.22757656925114L293.1722896050347,233.26916129291268L293.39645393518515,245.281975084247L294.23167114438655,246.04627525751445L294.3455111328125,254.5856556249952L294.78145132378467,238.38377266310664L295.76533016493056,249.11111198376176L298.53130706018516,251.6327403810022L298.83448973524304,255.57439153000095L299.1475497034143,229.2187625308208L299.64878047598376,233.1835369171169L302.0585051721643,235.13385836822258L302.12161940104164,220.52731064698193L302.4430499565972,201.76269080698424L302.9081197916666,216.84585741630139L303.88312581018516,222.37444314341047L305.1147740379051,224.3165442587262L305.75964408998834,203.79424371551738L307.12287795138883,211.20833628303384L307.30987687355315,209.75446264612268L307.4819761501736,211.4577281022812L309.36016854745367,191.70088924378487L309.742871802662,199.7849258887647L312.29958401331015,191.69618519442247L313.75707068865734,174.76147981020233L314.0009896050347,160.33499247712447L314.3980902705439,171.91861902803353L317.55530842013883,165.69045009951438L318.1671983579282,155.71074797917953L319.72195125868046,179.4172543417227L321.53016554542813,178.88475740643247L321.77994387297446,179.03215637970087L322.94646893084484,198.0356181862245L324.4774493634259,207.6023568560626L325.12566765046296,211.87895850245695L325.64849453848376,209.16036024887225L330.09277420428236,215.1907487352593L331.0073445818865,218.2928438784597L331.99038636429395,221.44664017157058L332.229115516493,220.23440636204532L332.44658337673604,219.6757518364571L333.0604822554977,218.78604318346032L333.3479282262731,209.12750018913184L333.8950298177083,217.29401590145466L339.49578983651617,196.74628090996853L340.5566780815971,199.91566485164975L341.08469473379625,186.94422466336343L341.3436807074652,173.4479000234788L342.17554968171294,161.62171531941073L342.3598700159143,166.67874414048336L342.6951957465277,172.8404420867908L343.93119667968745,178.59756049464602L344.08186725260407,192.36084878879674L344.6123950810185,180.575342371585L345.1538046730323,188.88699448321634L346.5985680555555,179.2703293925744L346.92786696325226,177.1132520078906L348.14461554542817,162.78089129143905L348.98267875434016,150.14189083985346L349.7430629123263,139.4279603337256L350.5108131872106,158.67818949190345L350.8176789207175,180.30542349430354L351.3487089843749,167.03635445982783L355.28640070167825,168.29263874359907L357.0974609881365,165.59673302648253L358.55578472222214,153.72516567276043L358.815942578125,142.91796313753923L359.07643525752314,154.3178058470937L359.77119401041665,165.73443478175048L360.7579188512731,162.2744889381909L361.6865518156828,168.03326521246396L362.8912467520254,158.16229137698258L364.9776993634259,171.32610053828884L367.34071618200227,178.1517039372504L368.3801757233796,181.26059790818724L369.51137690248834,191.20163334402946L369.9496608579282,174.34899530534426L371.1417999131944,198.26440110810904L372.0071512369791,203.25471975840193L372.6988965784143,201.58772845418753L374.458226634838,189.4879262281336L377.249984939236,187.79849345941804L379.24000838396984,174.86304443697674L379.8485500868056,186.95029728420042L383.426641370081,176.51731646424872L385.05087014612263,184.7281154174744L386.0635438078703,191.90136541230166L386.5788371672453,178.4868822017042L386.87683007812495,183.170176679782L390.0854436342592,174.8689272497675L391.32261644965274,162.3272404321426L393.88870371817126,170.62320568751642L394.77799492187495,180.31083089692044L396.29223417968745,197.21600814312944L396.6741003761573,199.37913650654468L398.11970081741896,213.35067983622653L398.8335445095486,212.87133900733798L401.7548795066551,193.91148043900935L401.86587349537035,212.28889618168947L402.52681507523147,218.38546039614153L403.6064534360532,220.7723829005173L405.11885116464117,222.1473632736911L405.31572737991894,227.17172214729817L405.6202493489582,209.9819756986871L405.8802397931134,200.27226994175203L406.3166822193287,217.0096005512547L408.6040289279513,203.4971561982513L411.15136608072913,214.79394219161458L414.35830551938653,219.76134743536687L415.88928595196757,226.0073592199723L416.7789119791666,231.00476096985383L420.23261633391206,245.15042822147404L421.8387646412036,255.56563932475692L425.31490217013885,248.06297371030507L426.45531099537027,248.27125869924384L427.7581092158564,223.35338382725294L428.9765319155092,238.36697672966835L429.5256424479166,218.4917286015467L430.9506512442129,228.5796320839106L431.4597503689236,241.51723036253173L432.2162840567129,253.8926062567896L433.0702513816551,230.95725635034705L434.4522353587963,232.18872052750422L446.0234005353009,210.69453628513435L446.70928646556706,218.63652229542768L447.14338512731473,230.2889712036148L447.98697292390045,226.659098305446L449.76940580150466,241.3464688432423L451.33537528935176,253.0178685956326L453.2606103877314,236.116830693201L453.63109258535866,248.86479256795187L453.94884008246527,260.08246343100456L455.99159822771986,256.3850650939318L456.3645916015624,247.790832811398L456.704604861111,225.73171473397042L457.3837943214699,240.45271368739748L458.5873173755786,221.79847285757543L459.4498226996527,226.66430717357565L460.62990810908565,242.118410111902L464.35682843605315,252.36732283460316L467.54870081741893,239.38541685862475L467.8276087890624,239.95228122676082L472.85280721932867,240.56335289710725L473.0609000217013,253.45175418008242L478.3491023075809,255.77257348563813L481.3466096498842,260.1276134006834L482.9825572482638,264.3307154300568L483.6088445963541,268.1975288333837L485.97135917968745,265.2408001988125L486.6801805193864,274.8488718419416L487.37795268373833,253.14411461897413L491.79343752893516,255.42210303292237L492.4393120515046,254.3277416690561L493.0105209346064,233.28510672675736L493.5740288773147,232.45928432626616L495.6407269024884,230.2087730154458L496.66210597511565,223.0163732533955L497.12918475115725,230.75919957742175L497.7931397424768,232.970707731419L502.6095757233796,220.1639018518003L505.2233753399884,233.95703555926L505.6266702401619,210.7603855450617L507.0781300925925,228.35693175802297L511.4587932942707,237.29792936452446L512.7016581090857,219.34748501695182L519.3462303747106,199.40681606461047L521.5244246238425,192.236144564748L522.7910619068286,176.6305527743401L523.819304861111,198.0000788225429L524.6682498336227,194.80533629294655L527.9125220920138,208.84597629627544L528.251698292824,193.40231188985518L531.3283913917822,185.62705127800396L531.8723121600116,169.58756868863262L536.3031988859954,185.11872802754772L537.7854625,201.65235254340823L538.7626448712384,194.2802400606616L540.6180692708332,194.33650279373745L543.8122854166666,210.41761199396052L544.5472229890046,193.18850780205946L546.1130250651041,201.91310657417247L546.8541568721064,186.02272094321395L547.3784904658563,182.08020193137057L549.8439632740161,199.93291570617487L551.2996084201387,212.95366807552847L554.6307673755786,226.88289967215826L555.3610174189814,232.5137827417379L557.1842987630208,212.2012474602418L557.8902741030092,218.22130370577807L558.4069067563657,197.2237397517218L558.9175125868055,202.71838987475985L559.7415132089119,221.9226441843599L560.5966524160879,217.21239782192276L563.0696587528934,216.06546712493173L565.0097934968171,221.04668953189235L566.1676131438078,224.28654640241103L568.1713643518518,213.33566673005708L569.8456492404513,231.49341125065413L571.8346682146989,241.3674525552807L572.5870166087961,255.34862089438315L575.600762890625,256.24911925018444L576.1478644820602,230.37639138278885L576.4759915075231,208.19079076529437L580.6934282552083,190.71278908122338L582.0312155309606,193.47479981192396L583.1162110677083,209.33097440711836L585.2157217954282,211.17261749094078L585.5321299985532,204.0166798842703L588.0918556206597,219.56301101583657L588.3429732421874,234.4830143367266L590.1608974103008,217.76978701112301L593.2103023943865,225.2244476583996L594.8822435185184,232.1540843858608L595.2758285373262,232.9572768837358L595.9669042317707,222.64888416067993L596.9586514250578,239.53442324142458L598.3963835141781,248.6210498847532L600.1537046296296,257.7827434097998L604.7024492259837,263.83299045786083L605.2749974030671,236.78495562027985L609.4810501519097,244.66769807774259L611.0282695240161,229.7754722966022L611.3923900752314,220.24023616425958L612.0655527126735,229.13753843283507L616.7445436487268,219.81976721743223L619.2287665726273,224.91127221912694L619.8132009837962,203.2810546700256L620.369007986111,207.7919861764195L620.9179511067708,227.02416176593277L622.2965868489583,231.00867387182095L624.4871695674188,219.72986969875882L625.0506775101273,198.8761392968739L626.3742347873264,204.28683928103925L627.0124083695022,221.0556263756149L627.5533157262731,203.85535871035697L629.342277662037,186.58042791157774L630.6695179976851,178.7996134733095L630.9983146701388,197.2561403181845L631.061428899016,218.06837394386554L636.798294668692,197.6022077704223L638.7796127025462,213.4508384642044L643.3283572989004,210.30901300494705L645.4496315538192,223.90229185722382L645.8902592737268,202.2734489712794L650.4445284577546,213.12033884183842L650.9876121672453,201.9504785484854L651.3832061270253,185.08287042406857L651.6900718605323,206.07779340648165L653.4127387442129,224.82211042397205L654.1095064380786,238.8734503225986L654.2564939525462,218.18565772166133L657.0639889612268,229.5353458083345L657.1428398943864,243.40107125875085L658.3158940104166,218.8670468418918L659.4963142433447,218.9878968093548L661.3090486472801,206.28821847515212L662.4906407624421,219.28761961986987L664.8412691116897,201.65970796317674L667.3440747395832,220.75816039727573L668.9678012803819,228.7374178165543L669.0337615089697,245.21848049001537L670.8111720341434,246.8989710269486L672.2728440031827,222.13367369248448L674.1525431061921,234.16773151787996L675.759026236979,249.7455549346545L676.6002702690971,257.9006426062751L677.2344259693285,259.47028794393765L677.5250527633101,271.02047793822317L678.1091523509837,280.13650407944675L680.9953308810764,260.2280354107556L681.5857921151619,249.67196835402316L681.9850691333911,252.1995916451525L685.6291206452545,256.61096357411986L686.1010543619791,242.5529273899478L686.4400631510416,230.87026096853313L687.5376145688656,242.5857016653497L688.3810349537036,234.17073019912613L694.327667643229,244.03379308770258L699.4832798249421,220.21500736009708L700.7160999348957,232.0228989430456L702.5870936270254,242.321883579588L703.0697416956018,219.00470129670862L705.278070059317,221.10887774227896L706.0193692780671,235.62822677350553L706.4615037037037,232.03226825384337L708.942545804398,234.1008906796558L709.9463466435185,210.97243764974036L711.9571291449652,208.9445321978207L713.9946975260416,223.34338111886524L714.2339289134837,217.11110820181938L714.5458169994213,196.98829568243627L716.4096119864004,213.37478952829153L716.7775830078124,197.3520111632396L718.7406531611689,209.3288974405569L719.5229682581017,197.29790233205316L720.2940667679397,180.4879692665336L721.9641663628472,167.56964305031872L723.6870006582753,193.26099243696447L725.7550379774303,210.97963484873898L727.1795445384837,197.89735068796026L730.1797304687499,216.0759652615612L730.5994317201965,225.89105660566406L731.5491585648147,205.1093716114899L732.8008962022568,186.1807656560957L735.9964516420716,187.02477697247534L736.4665438295716,174.0457406643741L736.7166569806134,186.2111196747577L736.8018695601851,177.55077015206044L744.4545953703702,163.81097247101962L745.7746370008678,190.23646682225927L746.8587954788771,212.27618736178707L747.29975802228,214.5092678815958L748.2946860387729,222.1922478850893L749.0477040798611,226.1593931022068L750.1695302010993,238.72942551800242L750.8313088396989,238.5549905467464L752.0115616608794,251.6507374882617L754.4705054108795,255.79224017529992L756.1516541811341,263.8002505708129L756.6915570674189,267.96590952030147L757.0086349175346,270.9471831330521L757.6113172092013,270.32944345131847L758.8896733145252,241.58366251177623L760.4693705656827,241.10602842906096L761.3298669487846,237.187832800032L762.753201627604,237.25310597236862L763.9361330367476,239.14380838953974L764.2344607711225,229.12060497890906L765.75556391059,210.36646106806742L767.0970342447916,216.95727223309126L770.505035192419,201.19992459127712L770.9063211516201,186.76905255459744L771.3454421657984,194.9443395543252L773.429216189236,178.0711303089988L775.3030558810763,177.92498767104664L775.6507700810183,165.9689261997529L775.9241534649882,190.20445722677505L776.9378315972219,176.2226124690718L777.3289054398148,170.86764956332593L778.0224923104745,168.0288796779985L778.653969422743,161.31398264684813L779.8605058883101,182.35303991070145L780.1010765697337,195.85300261334717L780.5991265190971,183.39937167220037L782.5817838469327,169.44796705648116L783.4124809389467,176.1158821187823L785.9412353877312,163.26513559322035L786.3458695818863,152.29150331194603L786.8203144748263,146.0423209014445L787.2155736111109,148.6031657278014L787.5303076967592,164.80333993281442L788.4530812499997,178.76492957580774L789.0869021267359,163.84856219830502L789.8668734592012,162.12978070240248L790.014363208912,181.4747228905745L790.4889755135993,202.3435969391624L790.8383638310185,187.25814709874848L791.2167143807869,207.32849305019704L791.3114694299768,191.74924730712212L791.451760474537,182.90899852530094L792.0018754774305,176.45847374750718L793.3622633391201,178.33733663907165L793.7116516565393,183.03704222379065L794.0786182074652,179.5118286556725L795.376226663773,178.5331401917056L795.5126672381364,184.2825001693575L795.7848787398725,192.06683886570605L795.84364026331,185.8193454774662L796.021264127604,172.6814656273104L796.0714876519095,196.3648141791414L796.1156843532985,211.93878972132927L796.2345466941549,229.0988013095154L796.2846028067128,208.9754047962546L796.4130076171873,189.44754574841676L796.5857765407984,186.5088863353377L797.1201548394097,205.47727922512874L797.2865621166088,219.5572079090448L799.328483203125,237.51618342398132L799.8109638599535,252.43683534993477L800.2149284071179,242.48773789101526L800.6475203631364,249.68716237614183L801.298082414641,226.78083678185132L801.8992580005786,220.9797138260236L803.4955290147568,215.83368431840995L806.8941549045137,204.92270151274863L807.9426546802662,196.74687604161943L808.4998009765624,207.14736130411345L809.439650528067,187.88579379587057L809.5472962818286,201.53784895229714L809.9855802372683,196.61986535613858L810.2495885633679,178.95980860026037L810.3716317274304,202.28658114558485L810.4457951316549,222.34277858120078L810.5738651186341,238.32288479663026L810.6366445240161,250.7271026870462L811.1167814163772,244.9349690162862L811.7884373480902,246.61776162824694L812.4373252821179,250.69058341756875L813.122708977141,261.3554667375644L814.2929170934605,270.1507711354729L815.6486174262152,280.56889450354765L815.7011847149882,289.37851716716534L816.6771952039928,258.1058849043998L816.8603436559604,242.35126630398133L817.077476692708,257.00038632618345L817.564142643229,252.67815180040313L817.8678275535299,258.775832342698L818.3943375,268.323983264595L818.6836249999999,278.0204886117679L819.0711831958911,263.7490960040924L819.3825690465854,258.9265872523538L819.7676160662614,232.0608425130992L820.3721398871526,220.08285786310498L820.7851446686919,217.686405691899L821.2333059172452,231.04333187434827L821.5855402343749,209.11667628665458L822.6745536530669,189.50532389603794L822.7808601128471,172.8098205513192L822.9916315031826,163.37714677119928L823.8924741174768,152.07403376087524L824.4603347656249,142.16151548730562L824.9994005931711,152.04445349962657L827.0344577980323,141.30575854482723L828.7348589192708,133.06844212161602L829.7252668185763,145.66263570184543L831.4516167607059,162.27219229843L832.1262861038772,168.35692747632572L832.6074274667243,172.00971475193825L834.9068278211804,181.6684240667764L835.1102330946179,205.3897390249987L835.5460058738425,190.09019431561995L836.0701720558449,212.40535849010845L836.9497533781827,192.43529905581988L837.2028799406826,179.73674948343472L837.4690646195021,199.06845237870527L840.7443080512152,180.93924354742552L841.1688642433447,177.70520829683542L841.3818119864003,163.25259697513874L841.8974401692707,157.35756435936224L843.0887421657984,159.19546837790512L844.3334485098379,148.1713883756215L846.3633159505207,141.801750445845L848.5492111400463,132.36777023236942L849.4528997540508,159.51723534243152L850.2589873191549,161.09565933545744L850.657259866898,149.35235533794037L851.5137383680553,145.1840149850471L855.343282096354,139.0071656798521L858.2939141493054,167.3771272239754L860.0485566767939,157.15878000507945L863.4578969184028,145.80084016057515L863.727262420428,166.86725242329402L865.2667808521411,154.99381633563684L867.3616040509258,181.4900749028898L868.8557538990161,166.5463014308612L870.7774733506942,154.1005333853166L872.6754203342012,157.52108146861596L874.1332418330439,146.2196264612485L874.7094730685762,136.01713657216607L875.0630466796874,159.22536335926176L875.7937989583332,147.62697431882006L879.2245679036456,137.55377726658L880.3622981409142,161.27737481517835L880.8431046802659,169.48044516975438L881.9634240957754,168.78579420511468L884.1489844618054,194.4864013749712L885.5696405526618,198.10044174915555L890.7821727285879,181.8527731932909L891.2770418547453,168.558729608859L891.974814019097,155.0476697333699L896.3208229890046,180.15721199327098L898.1904773871526,200.53719319558522L899.3211763310184,202.80613111046873L903.0189670138888,197.61487389683458L904.5690323857059,218.84769123877362L907.8757492259837,234.63609117408578L908.9436687644675,247.80127556173986L910.1242564091433,258.04907129055897L911.6108727285878,267.2364149294758L912.8041836660877,243.09165792267467L914.4709350260415,239.11564939807658L918.1220178313077,242.01823137235826L920.3377123119211,245.54895220704236L921.1796259910299,248.45400279423848L922.7285194806133,256.76350436922974L923.6310362123842,269.26882541736893L928.0630948206017,241.46215854045545L931.048381105324,233.01981085482512L933.8963897569442,216.8232578529098L936.397521267361,224.02343641541415L938.2934593098958,202.57170093137736L939.2391682725693,190.16660809464162L942.0834938657407,209.00262923747172L944.4880287977428,189.38084029985853L945.3301098885993,206.01964230724556L948.154011248553,224.02198633300884L949.5467095775462,241.4138715357525L953.4701712962961,217.56883672528477L954.464597077546,197.299904876799L955.982854217303,206.48812860208054L971.2126357277198,188.07687608146375L972.9450124927661,180.4398912734007L976.5107153067129,172.58855039798047L977.3529638093169,188.8529945648154L977.9099426938656,205.78868957201385L978.817481778067,186.7810657018799L981.815658767361,170.51616499853347L983.2667837962961,173.01081818349547L987.7006839337382,172.95527964121382L992.5159480324072,160.10947648459015L994.937893786169,147.89527792421316L997.6903103298608,152.00297678276138L1002.7499955801502,170.693065653042L1022.1597136067707,167.39032210223536L1023.7209955656828,193.27241853868725L1031.0087637659142,176.23496771133338L1035.7997531611688,198.81497949960266L1039.3698086805553,218.3319066371602L1041.2170299045138,217.7539812875956L1044.552708977141,225.27037010572298L1049.4642348307289,236.29631286675385L1054.0339058955437,246.91418256185904L1068.157263165509,222.55604340065602L1070.4576679904512,236.74700403481447L1082.1215792751734,213.93116738904777L1097.0814930483214,204.4736475190806L1100.7469732638885,194.15498670370326L1105.6829412326388,213.82594195377132L1110.2378800636573,232.7814629144635L1125.540485684317,246.85285789930236L1129.6827545572917,257.76602804480893L1130.9053625506363,263.1835685829427L1136.0012087384257,237.46612319837914L1137.9272808955438,252.855369389193L1139.8866679904513,265.9387610731969L1151.9835060546875,258.6904618551018L1167.0949274594905,270.87564202263206L1177.103303971354,278.43946866941565L1184.5834282696758,286.85414986815846L1185.8982801359953,293.9590788885159L1187.3345055193863,300.58376167609146L1192.4603184100113,305.992164533732L1204.4463298972798,296.25961287119793L1215.8201166232639,301.4164143114312L1219.791290690104,270.7066987515161L1225.933292889178,241.8957115793794L1233.2694430844906,256.5826052148828L1243.5414930989582,240.58002321618153L1248.5392360026042,255.29389195573455L1263.6568516420716,267.98552716811577L1268.6601191333912,278.78068536460637L1278.681386349826,273.75513933131305L1288.5484673466435,283.7125521859895L1292.9696441912615,289.24219018185295L1298.1707923683446,288.5751299068285L1316.6468550781249,258.39014786205786L1319.9919092086225,270.61428456816975L1321.3526318938077,269.88066970752493L1321.421103298611,280.3871805864253L1322.284110857928,286.57277452595804L1323.214417939815,284.3333319890559L1324.4541019314233,285.0306782673648L1324.81956177662,293.1728104991967L1324.9831230541085,300.1268160550778L1325.18552385706,278.9891848371066L1325.3166072554973,287.7389697322136L1325.4013175998261,284.8421454919927L1325.6279931061922,292.4103825531609L1325.8431172019675,274.0199453357733L1326.024758948206,283.5142975048176L1326.2023828125,291.36999123393207L1326.330955034722,298.163077092402L1326.712318995949,279.0800582464515L1326.962264735243,278.39190695281644L1327.3550126953126,249.4882327401285L1327.3965308087384,261.3238790108857L1327.4410623336225,249.35134540408683L1327.5692997323495,225.27714380352054L1327.6071347873262,236.15136474916443L1327.818575824653,241.05345292435823L1327.8934088758679,250.00562116871006L1328.068354152199,263.2284830796273L1328.1065240306714,272.8317500915298L1328.1505533203124,262.8249991406246L1328.1972611979165,270.69664194627177L1328.235933311632,246.79298677600457L1328.2734335431135,258.2991597994266L1328.3124404803239,266.60920382991264L1328.6576435040508,264.38102207100997L1328.783034903067,274.2555861357636L1329.0299672309027,283.5504404084602L1329.6798596354167,291.56376814681647L1329.735440335648,297.36943368190384L1329.7749495081016,301.67059155335306L1334.2850219907407,289.44595684216154L1342.4371370442707,270.0639889781164L1347.1614965639465,280.4197075211786L1348.8088281611688,262.47274988047434L1349.7912002965854,251.79644472657972L1351.5239118851273,245.69525708606278L1351.747239156539,246.81331200999887L1355.166624103009,260.6389931814304L1358.206821440972,263.6798297383355L1358.4751824725113,258.95473519794854L1358.8622384331595,270.5588289840798L1359.2325532190391,280.6423715136381L1359.2928214482058,289.5160871266607L1359.59700859375,297.0241920028091L1360.4762550925925,303.39693858246005L1361.0154883318864,308.77904141481L1361.3337380642358,275.2902772638697L1361.4748661675349,284.8050596135456L1361.5850230975113,292.9182005979499L1362.0726935185185,298.024808345581L1362.5782769965276,301.8262159969838L1363.293459982639,307.5367541342592L1365.3537963614003,311.74614984170074L1365.6301931568285,298.52187058527426L1366.1322609881365,304.56772291481093L1366.4257337818287,309.6130208888411L1366.5087700086806,313.85424215859194L1366.6659696397567,316.6100487887846L1367.3553712167245,286.83204770892746L1367.994214445891,256.05796797244153L1368.0365696180554,268.42510983712367L1368.2602317129626,278.3656302482322L1368.7304913122105,287.2904939288921L1369.1605720920138,290.50308016317814L1369.3917677155669,297.04603973975844L1369.5312217013889,303.0270561445905L1369.572070167824,307.5810085468521L1369.7428301504629,311.10409227446473L1370.0306109447338,312.8225400994261L1370.6540522931132,316.7953235438468L1371.800822764757,320.2542635940788L1371.8470284071182,323.2305171604686L1373.1026165147568,320.76695939266415L1373.53487364728,294.05522379665746L1373.6164031684027,272.2512387043317L1373.9222644314236,282.43152174611834L1373.9594298394095,278.9475022311107L1374.1335380570022,288.1169378351825L1374.271987572338,287.83978648194756L1374.3138405092593,256.404999387341L1374.486776844618,268.94585568192537L1374.8065332826966,278.89288391424213L1374.8510648075808,285.08059154321796L1375.0820930193863,280.74601365471426L1375.6132904947917,274.01686201813675L1375.818369885706,282.6412574659231L1375.9019083478008,283.69071094958747L1375.940580461516,273.03216355774254L1376.0696549189813,281.97694654343957L1376.1043091507522,279.6569786985384L1376.465081467014,282.7573728446878L1376.7475050853589,289.8730010389049L1376.921613302951,264.7506756501342L1376.9634662398726,275.9590185800161L1377.1394159866895,285.56258774476396L1377.221280331308,292.97435897948174L1377.3078322048611,293.56003054194207L1377.3521963179976,297.6070855889288" style="fill: none;" fill="none"></path></g></g></g></g><g opacity="0.2"><g><g><g><path stroke="rgb(187, 187, 187)" stroke-width="2px" d="M120.53645833333333,108.00018281936646L120.6136351490162,113.39206023216248L121.14617191840277,78.88590581417084L121.564031640625,78.66292090415955L121.68105245225694,79.68972845077515L121.98557442129626,79.26876754760742L122.15248393373841,83.35011012554169L122.63580164930555,132.4591738700867L123.5686199074074,139.24127669334413L123.79646729600694,135.1954197406769L123.98647962962963,128.97504873275759L124.107518323206,135.39963669776918L124.18720631510415,132.22154409885408L124.33570053530092,133.0866047859192L124.86221048177082,131.11770458221437L124.94809270833332,125.98700137138367L125.0636068142361,97.48159010410309L125.14865198206019,113.21967895030976L125.20724609375,115.93891425132752L125.88342214265046,105.15101380348206L126.08213988715276,117.42509729862213L126.36556797598378,113.20028014183045L126.46434090711804,109.41703934669495L126.52142831307869,115.65579528808594L126.59224348234952,119.52956385612488L127.04559449508102,108.45656175613404L127.77584453848378,92.82094187736512L127.85821111834491,99.05424542427063L128.27556860532405,96.542764377594L129.25291838831018,84.8126811504364L129.45079907407407,97.53323013782502L129.50822130353006,100.44694919586182L129.932610083912,99.48705739974976L130.1194415943287,93.47211999893189L130.24181958188655,91.19355983734131L130.70822871093748,88.6633333683014L130.99768362268517,140.4863827943802L131.04656785300926,89.8864721775055L131.63552238136572,82.40513355731964L131.75589142795138,98.02964587211609L131.81800118634257,82.17484874725342L131.88044576822915,81.9166485786438L132.45031535734952,93.19008250236512L132.78229285300924,79.57054181098938L132.96527389322915,88.05568428039551L133.093511291956,78.43500180244446L133.62353688512732,78.21690602302552L133.9717533203125,78.19261808395386L134.01879602141204,113.2917992591858L134.19039306278935,80.12715919017792L134.8496605251736,86.40054459571839L134.9367146339699,79.47807641029358L135.0498849754051,81.91480107307434L135.30669459635416,78.76982839107514L135.4417958767361,82.58706779479981L135.58677445023147,88.05645031929016L135.77009031394675,78.2599844455719L136.3096583767361,105.76983804702759L136.45597624421293,92.32797331809998L137.01429442274303,102.68477411270142L137.71039246961806,93.26878173351288L137.79175457899305,87.4020503282547L137.85938892505786,133.1054628610611L138.3922605179398,83.06124587059021L139.70895391348378,81.38934345245362L139.75934484953703,78.65375096797943L140.0193352936921,130.78021938800813L140.3303863208912,83.76748867034912L140.68379252025463,84.69987065792084L140.83496532841434,78.68448264598847L140.92034531973377,79.99875755310059L141.0942861255787,112.2041366815567L142.65489843749998,118.41369302272797L143.47471376591432,91.987761926651L143.8627741970486,151.1040198326111L144.0129425347222,78.4681667804718L144.08091170428239,78.86731810569763L144.2592052155671,91.54541952610016L144.49692989728007,148.68946523666384L144.79006786747686,81.71110231876374L144.89721138599538,78.23101015090943L145.55513955439815,148.30633313655855L147.52658029513887,93.64258618354798L148.09142753182869,132.276135635376L148.1406465856481,80.41971845626831L148.36514573929395,152.36496491432192L148.507110901331,95.37067980766297L149.05220355179395,84.32793624401093L149.35672552083332,96.75608367919922L149.6769841941551,87.20267744064331L150.0991966218171,111.13902719020844L150.7593011429398,218.24500830173494L150.80667866753473,138.8966042518616L150.98580923755785,172.58894373178484L151.60506529224537,190.4886028289795L151.70450787037038,78.20377070903778L151.90088185040506,169.39545149803163L152.21427664207175,198.59480388164522L153.58755520833333,85.25995774269104L153.94983423032406,131.87876422405245L154.89671507523147,104.44576234817505L155.88544885706017,189.47484047412874L156.06709060329862,243.016520690918L157.07005438368054,210.70113612413408L157.5724570384838,202.03113044500353L157.96604205729167,219.64841408729555L158.46007412471064,250.26970363855364L158.82151608796292,194.1835914373398L159.49953366608793,78.61598975658417L159.65120870949073,98.80073161125183L159.8038882233796,202.58663256168367L160.11979419126155,238.22676111459734L161.23324972511574,225.30211908817293L162.0391698784722,201.0390762805939L162.22047680121523,206.63134045600893L162.41718560474536,215.22225261926653L164.66251196469904,216.74062056541445L166.186628515625,132.049928855896L167.12831959635415,241.37203795909883L167.3359101634838,262.00143722891806L167.79964070457174,266.82789344787597L168.10834796730322,273.619211268425L168.79373166232634,99.9358660697937L169.81343661747684,254.10944543480875L170.035089771412,255.46238840818407L170.077110120081,147.5424121141434L170.71511629050923,104.96995825767517L171.61746561053238,200.85180230140688L172.67667973813656,161.62141842842104L172.72924702690972,229.848672580719L173.14509780815968,230.8959040760994L173.33092484809026,246.29205794334413L174.3114554542824,259.983955514431L174.43952544126157,259.4200382351875L176.04081880787032,291.60737602114676L176.6389809823495,212.8533787250519L176.82095755208334,253.6859047830105L176.9893737702546,288.50137556791304L177.40589419849533,222.012466442585L179.7310759620949,250.9922529280186L180.24971755642358,106.41612703800202L180.69218680555556,250.5581341803074L181.0777360604745,181.97685177326204L181.6067571831597,255.6506030380726L182.60268967013886,204.4107626795769L182.81228917824072,211.02161074876787L184.00560011574072,122.65739078521729L184.46464312789348,106.95082218647003L184.52641806278933,234.8932302117348L184.75861815682867,273.81830815672873L184.8061630931713,284.4337653636932L185.34405703848375,170.907308113575L185.6104091290509,205.31465477943422L186.5564529152199,132.4528202533722L186.8805620587384,262.36290619969367L188.00389488570602,266.44409106373786L188.4955831886574,262.1749732017517L188.89686914785878,247.7670095086098L189.04301960358794,223.2517934560776L189.2432440538194,254.25911591649057L190.0036282118055,271.71790273189544L190.76083154658562,274.26831657886504L191.0636793981481,280.6823602437973L191.64895086805555,244.90942533016207L191.9569884837963,94.79018003940583L192.37903349971063,305.6782431721687L192.4267458478009,272.1330338537693L192.68640146846064,216.60275609493257L192.91542073929395,271.4553935945034L193.35069128327544,124.81987352371216L193.50923020833335,274.55741740465163L194.07273815104162,205.872398686409L194.23278378182866,271.5362106978893L194.71995196759255,266.7200396776199L195.11872675057865,267.6935511946678L195.4527131872106,88.64778728485108L196.55863519241893,302.9465146780014L196.96377162181707,199.989918422699L197.9186882306134,251.72709263563158L198.57494228153934,306.12824032902716L198.76512202690967,304.39122178852557L199.11735634403937,303.196888294816L201.71742819733794,273.7183231830597L203.16687910879625,310.7823997557163L203.44059731626157,265.1847738146782L203.8335126880787,180.73709667921068L203.89763138744215,304.11322852671145L204.02586878616896,273.42281804680823L204.2219079427083,166.21785457134249L204.49847214988424,297.72924343943595L205.02129903790507,197.43178786039354L205.8687373046875,309.37281214892863L206.22666362123843,287.0165725171566L206.99910142505786,316.69310517311095L207.62019900896985,316.2615154802799L208.60591937934026,281.988636803627L209.2563140190972,285.4527153789997L209.45369246961806,79.0799614906311L209.76892879050925,258.51151047348975L210.0133499421296,222.14928324222566L210.30866426504627,316.25466055870055L210.5634649450231,255.5949863612652L210.73556422164347,317.69615424871444L211.42195238715274,286.3779495477676L211.65616142216433,196.4304736375809L211.98629738859955,221.10794348716738L212.52670251012728,254.48257960081102L213.09104751157406,316.36221579909324L213.26398384693286,295.70547006726264L214.75311134259258,284.67912311553954L215.50445526620368,263.7383459329605L216.3972621166088,262.97258867025374L216.87254406828697,315.0015532940626L217.20334968171295,250.22468195557596L217.54972458767358,192.88422049283983L218.2603874565972,233.17247028350832L218.81619445891204,310.73828492760657L219.61257214265046,290.66446099877356L219.77044142071756,152.80575270652773L220.20922761140048,211.51697881221773L220.3577218315972,314.87393177747725L221.78423733362266,299.1348403215408L223.04066249999997,314.5665614873171L223.3930642288773,261.9725868523121L223.62543173466435,228.12436408996584L224.66003633535877,234.608162355423L225.2494930989583,195.25734139680864L225.55066683304398,314.4093489021063L226.01155137442126,295.83106101751326L226.2899571108217,279.79894278645514L226.54743637876155,249.39845831394197L226.73543977141205,318.30540018975734L226.99944809751153,103.67451889514923L227.93745611979165,288.12449006438254L228.4817117115162,277.9364149689674L228.71073098234947,291.06432766914367L229.25632586805554,119.83048195838929L229.56469830729165,207.92254407405855L229.76107228732639,272.55590985417365L230.23501494502312,315.66032984554766L230.4158196325231,160.51203639507295L231.7202919704861,257.2385678708553L232.4771604817708,300.5198724389076L232.6820724609375,293.5911858201027L233.54223402054393,260.03574762940406L233.9587544487847,286.66080377697944L234.49631357060184,287.1086098372936L234.70306707899303,162.24890567064287L234.83398306568284,297.0520763218403L235.5304159360532,301.3424630284309L235.82238202401615,292.03166581392287L236.38655961371526,152.23829813003542L236.66245417390047,105.51386840343476L237.09605060040505,263.32178975343703L237.59292866753466,263.77289654016494L237.93143522135412,300.53732798695563L238.16179378616897,218.21210242509844L238.54365998263884,175.76141495704653L239.53842058738422,293.3130179464817L239.77631268084488,280.6290022552013L240.04567818287032,288.9716896533966L240.73909764178237,188.4025324702263L241.54166956018514,98.08867592811585L242.149039380787,78.35871334075928L243.03113187934025,293.0871491253376L243.3222609085648,197.81031246185304L243.7759467447916,268.36381832957267L244.30295892650463,228.57364590168L245.37405928819442,157.9026826143265L246.66597574508094,291.9633419036865L247.72870551938652,190.0451339006424L248.54634449508097,218.81391609907152L251.58771371527774,200.57231075763704L253.2527909577546,272.57579870224L253.80374301938653,301.08942235708236L254.14224957320596,276.4035880386829L254.9749556061921,324.9738631144166L255.47015955584487,292.87696157097815L255.69901141493054,293.5223380744457L256.4570518084491,288.749712985754L256.8429358868634,218.74631316661836L257.26481349103005,192.9672793865204L257.92357871817126,83.15353102684021L258.27731974103006,325.3217898130417L258.4502560763889,296.2837900042534L258.85288132957174,282.904520791769L259.59719395978004,108.39681072235108L260.54524668692125,127.56972784996033L261.7393946831597,94.42696495056153L261.89458537326385,136.55552179813387L262.0660150028935,177.17684079408647L262.24497816116894,170.52227218151094L262.8682520978009,286.19100226163863L263.5236690899884,290.9295836806297L263.6512368417245,153.88584501743318L263.83271117621524,274.2123506784439L264.3993999421296,321.563990239799L264.5644679253472,92.40809197425843L264.7926501374421,85.79568929672241L264.9552069444444,289.9864489853382L267.1566714265046,293.42015918791293L267.43675128038194,313.8613748073578L268.35031718749997,291.0100853562355L269.7535624565972,297.41749095618724L270.3321374565972,289.1189831614494L272.77099179687497,322.54718003869056L272.9628456597222,285.8874311864376L273.58494771412035,289.18564544320105L273.94220438368046,257.35083199739455L274.2614585865162,155.69279558658602L275.1572788483796,229.79045362472536L275.54466963252315,274.37383843660353L275.9613574725115,78.91526312828064L276.35042237413194,85.33153731822968L277.4789449652778,268.96550808548926L277.8599741030092,85.99754054546356L279.12426762152774,161.9319120168686L279.37890088975695,323.47301689982413L279.545308166956,260.4969255745411L279.77549932002313,195.97375674247743L280.8241665075231,241.7090049505234L281.1291907118055,285.132150632143L281.341133984375,297.99260873794555L282.06100449942124,315.7136737525463L282.3014077690972,98.47523267269135L283.90270113570597,285.3863516271114L284.5797142433449,213.17194951772692L285.4201212167245,327.5373559489846L285.8297777633102,309.537806224823L286.01292621527773,237.18481303453447L286.62632285879624,257.9544255852699L287.57353852719905,252.37279583215715L287.73910874565973,284.9177723944187L287.89881955295135,258.60687668323516L288.1239883535879,272.1118382334709L289.12711954571756,104.50393624305725L291.26764615162034,273.5315730392933L292.16162488425925,152.50999410152437L292.7517512948495,223.0344975113869L293.1722896050347,261.8381413936615L293.39645393518515,313.35458656847476L294.23167114438655,250.3773095726967L294.3455111328125,302.975477707386L294.78145132378467,146.57310254573824L295.76533016493056,309.89936813414096L298.53130706018516,265.92196796536444L298.83448973524304,277.91041470766066L299.1475497034143,79.87019820213318L299.64878047598376,255.65059177279474L302.0585051721643,246.18567992448808L302.12161940104164,137.7568735599518L302.4430499565972,95.42984504699707L302.9081197916666,302.31713486909865L303.88312581018516,253.70309559702875L305.1147740379051,235.32178391218187L305.75964408998834,87.50120730400086L307.12287795138883,253.2215274989605L307.30987687355315,201.51584537029268L307.4819761501736,221.10956568717958L309.36016854745367,79.74546904563904L309.742871802662,245.59446687698366L312.29958401331015,145.85998792648317L313.75707068865734,78.79814929962158L314.0009896050347,78.58489758968354L314.3980902705439,237.55916948318483L317.55530842013883,130.3974928379059L318.1671983579282,99.15910263061524L319.72195125868046,313.7541237294674L321.53016554542813,175.8672747731209L321.77994387297446,179.8674172282219L322.94646893084484,305.721901756525L324.4774493634259,261.81387598514556L325.12566765046296,236.11303449869158L325.64849453848376,193.75497014522554L330.09277420428236,249.36295015811922L331.0073445818865,235.87138302326204L331.99038636429395,239.31815249919893L332.229115516493,213.36508144140245L332.44658337673604,216.5100428581238L333.0604822554977,213.74436081647875L333.3479282262731,154.3957565546036L333.8950298177083,263.5709382712841L339.49578983651617,80.30911595821381L340.5566780815971,217.87550718784334L341.08469473379625,113.43939692974091L341.3436807074652,96.9687270641327L342.17554968171294,94.6066686630249L342.3598700159143,195.33524079322817L342.6951957465277,207.7567304491997L343.93119667968745,211.22123147249224L344.08186725260407,270.3528157889843L344.6123950810185,113.79080600738526L345.1538046730323,235.98635644912721L346.5985680555555,124.77589387893677L346.92786696325226,164.88981349468233L348.14461554542817,81.56418056488037L348.98267875434016,78.52088828086853L349.7430629123263,78.71568746566773L350.5108131872106,267.7628213882446L350.8176789207175,302.85974950790404L351.3487089843749,91.84496326446533L355.28640070167825,175.41158301830293L357.0974609881365,150.31993396282198L358.55578472222214,86.45295066833496L358.815942578125,81.67714877128601L359.07643525752314,218.9169145345688L359.77119401041665,230.42866541147234L360.7579188512731,142.66812915802004L361.6865518156828,200.66633076667787L362.8912467520254,102.22677297592163L364.9776993634259,245.9210191190243L367.34071618200227,216.8301231980324L368.3801757233796,198.87766374349596L369.51137690248834,247.53416748046877L369.9496608579282,78.85071308612824L371.1417999131944,333.78503399044274L372.0071512369791,231.53319211006166L372.6988965784143,192.14144439697267L374.458226634838,120.92238028049469L377.249984939236,178.22504110336305L379.24000838396984,101.5621666431427L379.8485500868056,255.44473008513452L383.426641370081,117.39709181785584L385.05087014612263,231.25597615242006L386.0635438078703,232.54978204965593L386.5788371672453,102.47147734165192L386.87683007812495,209.70884538888933L390.0854436342592,127.8285138130188L391.32261644965274,91.25768179893494L393.88870371817126,217.633675467968L394.77799492187495,235.20737375020983L396.29223417968745,293.01201253831385L396.6741003761573,211.63686389923097L398.11970081741896,292.5227587044239L398.8335445095486,210.15507431030275L401.7548795066551,86.4722818851471L401.86587349537035,316.42758539021014L402.52681507523147,252.9326576113701L403.6064534360532,234.29827709198L405.11885116464117,229.9389187216759L405.31572737991894,255.64308909773828L405.6202493489582,112.57341248989106L405.8802397931134,145.25060398578646L406.3166822193287,311.8544740051031L408.6040289279513,126.92663819789887L411.15136608072913,278.809062820673L414.35830551938653,247.9099771499634L415.88928595196757,261.401425999403L416.7789119791666,259.323370885849L420.23261633391206,325.3092093139887L421.8387646412036,314.58516891002654L425.31490217013885,205.5478685617447L426.45531099537027,249.4515403032303L427.7581092158564,82.15209288597107L428.9765319155092,323.44400317668914L429.5256424479166,105.86532254219055L430.9506512442129,285.74441848397254L431.4597503689236,314.8302872747183L432.2162840567129,324.0197363242507L433.0702513816551,100.99027354717255L434.4522353587963,239.16701753139498L446.0234005353009,88.89415891170502L446.70928646556706,263.6411096870899L447.14338512731473,296.319515016675L447.98697292390045,206.0898185491562L449.76940580150466,324.5749018907547L451.33537528935176,319.1558005258441L453.2606103877314,140.344282579422L453.63109258535866,321.10324319154023L453.94884008246527,323.6492649883032L455.99159822771986,235.43314118385317L456.3645916015624,199.09018321037294L456.704604861111,100.73004562854767L457.3837943214699,323.87170775681733L458.5873173755786,116.09110815525055L459.4498226996527,254.23736829757692L460.62990810908565,329.6916600957513L464.35682843605315,310.4444949299097L467.54870081741893,165.82128299474718L467.8276087890624,243.1645126461983L472.85280721932867,244.0260923624039L473.0609000217013,326.48602811694144L478.3491023075809,268.92388288378714L481.3466096498842,284.80617291927337L482.9825572482638,288.1482935965061L483.6088445963541,290.10947145223616L485.97135917968745,248.4860046029091L486.6801805193864,329.29461115300654L487.37795268373833,130.15049035549166L491.79343752893516,268.3307040452957L492.4393120515046,248.12636060714723L493.0105209346064,114.04350872039795L493.5740288773147,227.77962405681612L495.6407269024884,217.4558755874634L496.66210597511565,182.25944126844408L497.12918475115725,274.6352154135704L497.7931397424768,245.5025872707367L502.6095757233796,147.59200186729433L505.2233753399884,312.1181265681982L505.6266702401619,79.31270213127137L507.0781300925925,328.0706936314702L511.4587932942707,287.9635824680328L512.7016581090857,117.62830038070679L519.3462303747106,86.40969200134278L521.5244246238425,151.60233939886095L522.7910619068286,88.1988659620285L523.819304861111,319.09405976235865L524.6682498336227,176.70179529190065L527.9125220920138,288.4096029818058L528.251698292824,105.88821358680725L531.3283913917822,141.56724114418031L531.8723121600116,78.6971673488617L536.3031988859954,273.1286309480667L537.7854625,295.3428914666176L538.7626448712384,152.50493599176409L540.6180692708332,194.65532494783403L543.8122854166666,301.54389746189116L544.5472229890046,95.55691738128662L546.1130250651041,251.3524996161461L546.8541568721064,95.9772023677826L547.3784904658563,159.73926086425783L549.8439632740161,301.0982937633991L551.2996084201387,286.7379315018654L554.6307673755786,305.8152120530605L555.3610174189814,264.42212013602256L557.1842987630208,97.09688086509705L557.8902741030092,252.33495576381685L558.4069067563657,78.2375440120697L558.9175125868055,233.85474057197573L559.7415132089119,330.74675193876027L560.5966524160879,190.5210017681122L563.0696587528934,209.56619317531587L565.0097934968171,249.2736165046692L566.1676131438078,242.64573533535005L568.1713643518518,151.2806819200516L569.8456492404513,334.3872968673706L571.8346682146989,297.32035328149794L572.5870166087961,334.57524148263036L575.600762890625,261.35194326639174L576.1478644820602,83.76426680088043L576.4759915075231,82.47238726615906L580.6934282552083,91.6707795381546L582.0312155309606,209.12619395256044L583.1162110677083,299.1826304465532L585.2157217954282,221.60859496593477L585.5321299985532,163.46636677980425L588.0918556206597,307.65888742804526L588.3429732421874,319.0296998217702L590.1608974103008,123.06149883270264L593.2103023943865,267.4675246596336L594.8822435185184,271.4220258414745L595.2758285373262,237.5087010383606L595.9669042317707,164.23465873003008L596.9586514250578,335.21914469897746L598.3963835141781,300.111934196949L600.1537046296296,309.69900671839713L604.7024492259837,298.1177237302065L605.2749974030671,83.51275820732117L609.4810501519097,289.33657200336455L611.0282695240161,145.3861928701401L611.3923900752314,166.2072314143181L612.0655527126735,279.55558462142943L616.7445436487268,167.01906366348268L619.2287665726273,253.7631338953972L619.8132009837962,80.70982189178467L620.369007986111,233.35393137931825L620.9179511067708,336.0064901065081L622.2965868489583,253.58757580518724L624.4871695674188,155.81664605140688L625.0506775101273,80.7050003528595L626.3742347873264,234.94747252464296L627.0124083695022,316.07875324487685L627.5533157262731,106.38717527389527L629.342277662037,88.68915338516236L630.6695179976851,134.708331656456L630.9983146701388,301.8431257724762L631.061428899016,336.00436448939143L636.798294668692,81.62726612091065L638.7796127025462,303.25974572896956L643.3283572989004,192.50533540248873L645.4496315538192,300.9308720201254L645.8902592737268,79.71000595092774L650.4445284577546,274.5860481083393L650.9876121672453,138.65460355281832L651.3832061270253,89.49975771903992L651.6900718605323,325.0490236401558L653.4127387442129,331.03990685641764L654.1095064380786,318.4977097481489L654.2564939525462,100.95483298301697L657.0639889612268,293.8502449661493L657.1428398943864,321.9735154777765L658.3158940104166,79.84090847969055L659.4963142433447,219.67271329164507L661.3090486472801,134.323374581337L662.4906407624421,292.9508927732706L664.8412691116897,101.76820857524872L667.3440747395832,328.98272419050335L668.9678012803819,273.95320985913276L669.0337615089697,338.6111689729616L670.8111720341434,256.42175073623656L672.2728440031827,81.79698879718781L674.1525431061921,302.3607258617878L675.759026236979,338.0198876297101L676.6002702690971,304.1128060787916L677.2344259693285,268.3649448573589L677.5250527633101,336.4715545725077L678.1091523509837,331.79398554638027L680.9953308810764,147.41337962150575L681.5857921151619,189.85425503253938L681.9850691333911,266.5227902948856L685.6291206452545,281.60873783826827L686.1010543619791,162.89072234630586L686.4400631510416,164.66848458051683L687.5376145688656,308.97319894731044L688.3810349537036,186.48589189052583L694.327667643229,299.92448278963565L699.4832798249421,85.24188823699951L700.7160999348957,298.93428457975386L702.5870936270254,300.6827965199947L703.0697416956018,86.87400169372559L705.278070059317,233.0325442671776L706.0193692780671,317.90453795045613L706.4615037037037,211.65516997575762L708.942545804398,245.82308442592623L709.9463466435185,79.91120381355286L711.9571291449652,197.4530679702759L713.9946975260416,304.9368583381176L714.2339289134837,181.79489500522615L714.5458169994213,82.95902473926544L716.4096119864004,306.2315879881382L716.7775830078124,106.55626709461212L718.7406531611689,277.19791967868804L719.5229682581017,129.12226338386537L720.2940667679397,85.23168189525605L721.9641663628472,94.36579449176789L723.6870006582753,338.845305627957L725.7550379774303,311.38527518212794L727.1795445384837,123.76440711021424L730.1797304687499,319.0881145119667L730.5994317201965,281.5099075555801L731.5491585648147,87.34648997783661L732.8008962022568,78.91866524219513L735.9964516420716,191.80750776529314L736.4665438295716,100.49786825180054L736.7166569806134,255.14826740026476L736.8018695601851,128.47545619010927L744.4545953703702,85.95211894512177L745.7746370008678,339.9809348126175L746.8587954788771,337.1679370857775L747.29975802228,227.16339082717897L748.2946860387729,265.72913457155227L749.0477040798611,248.6398826658726L750.1695302010993,309.95960920751094L750.8313088396989,237.56652570962908L752.0115616608794,325.8599701568484L754.4705054108795,279.26075540184974L756.1516541811341,309.1789761453867L756.6915570674189,291.5713102340698L757.0086349175346,287.8410669386387L757.6113172092013,266.82891858816146L758.8896733145252,78.69090385437012L760.4693705656827,238.3994352936745L761.3298669487846,214.98472423553469L762.753201627604,237.62298728227617L763.9361330367476,249.85778875350954L764.2344607711225,172.32245231866838L765.75556391059,104.09297890663147L767.0970342447916,254.30520216822626L770.505035192419,111.90828795433045L770.9063211516201,104.99411101341248L771.3454421657984,241.27096588611604L773.429216189236,82.45627791881562L775.3030558810763,177.0968460559845L775.6507700810183,98.21791119575501L775.9241534649882,327.53913304656743L776.9378315972219,96.9921588420868L777.3289054398148,140.52285976409914L778.0224923104745,151.94251699447634L778.653969422743,123.26289947032929L779.8605058883101,301.5743644058704L780.1010765697337,272.35279126167296L780.5991265190971,112.82879633903504L782.5817838469327,90.3900075674057L783.4124809389467,213.9007341384888L785.9412353877312,90.44423861503601L786.3458695818863,90.1075870513916L786.8203144748263,110.63028724193573L787.2155736111109,163.11461974382402L787.5303076967592,256.6043270945549L788.4530812499997,257.88060421943663L789.0869021267359,79.32248039245606L789.8668734592012,152.39001889228823L790.014363208912,291.09606195688247L790.4889755135993,320.60054988116025L790.8383638310185,101.7739313364029L791.2167143807869,321.06045344173907L791.3114694299768,103.46685476303101L791.451760474537,132.81425542831423L792.0018754774305,139.90550000667574L793.3622633391201,188.98422635793688L793.7116516565393,209.66870720386507L794.0786182074652,159.53561843633653L795.376226663773,172.9872388958931L795.5126672381364,216.86220670938494L795.7848787398725,236.1780914783478L795.84364026331,150.41688294410707L796.021264127604,98.23347980976105L796.0714876519095,330.5704559728503L796.1156843532985,300.1913177937269L796.2345466941549,326.3388669759035L796.2846028067128,94.94282455444336L796.4130076171873,78.78967781066895L796.5857765407984,169.85648299455644L797.1201548394097,312.9648389339447L797.2865621166088,299.34347045123576L799.328483203125,339.28371134195476L799.8109638599535,336.9871962636709L800.2149284071179,186.10951895713808L800.6475203631364,290.48390112519263L801.298082414641,96.97832508087158L801.8992580005786,188.10668374300005L803.4955290147568,186.6728504419327L806.8941549045137,143.0937989473343L807.9426546802662,150.41719837188722L808.4998009765624,266.0834444582462L809.439650528067,78.73691124916077L809.5472962818286,278.8994948387146L809.9855802372683,168.75129164457323L810.2495885633679,78.88615365028382L810.3716317274304,334.47162556909024L810.4457951316549,335.99456404969095L810.5738651186341,328.8768200173974L810.6366445240161,321.0176707327366L811.1167814163772,212.11287821531297L811.7884373480902,256.1535864293575L812.4373252821179,273.7699068903923L813.122708977141,321.78980555087327L814.2929170934605,319.9908293902874L815.6486174262152,339.60492692263796L815.7011847149882,339.2997122609988L816.6771952039928,80.89430208206177L816.8603436559604,153.0750942349434L817.077476692708,340.0120664519956L817.564142643229,228.18548948764803L817.8678275535299,293.32935541570185L818.3943375,322.43017182201146L818.6836249999999,332.96735224574803L819.0711831958911,182.87787122726442L819.3825690465854,231.59903765916826L819.7676160662614,79.82162232398987L820.3721398871526,152.20761151313783L820.7851446686919,204.10651005506517L821.2333059172452,306.7325802415609L821.5855402343749,84.86562795639038L822.6745536530669,78.37432701587677L822.7808601128471,78.20196826457978L822.9916315031826,109.92532868385315L823.8924741174768,88.02306003570557L824.4603347656249,85.99057860374451L824.9994005931711,208.04776890277864L827.0344577980323,80.45315380096436L828.7348589192708,86.39031572341919L829.7252668185763,217.0297326564789L831.4516167607059,256.3930130124092L832.1262861038772,202.83709348440172L832.6074274667243,192.70884264707567L834.9068278211804,236.40111018419267L835.1102330946179,339.8105237882584L835.5460058738425,103.39277429580689L836.0701720558449,338.8579554788768L836.9497533781827,79.27162892818451L837.2028799406826,107.7783019065857L837.4690646195021,308.61476878523825L840.7443080512152,78.20706017017365L841.1688642433447,159.37900854349138L841.3818119864003,81.35446615219116L841.8974401692707,123.95237953662873L843.0887421657984,169.61025781631471L844.3334485098379,85.70160169601441L846.3633159505207,105.70713551044464L848.5492111400463,78.90854902267456L849.4528997540508,313.3642042994499L850.2589873191549,170.04006196260454L850.657259866898,82.80696601867676L851.5137383680553,121.56341965198517L855.343282096354,104.00501961708069L858.2939141493054,328.1402426406741L860.0485566767939,99.25481243133545L863.4578969184028,81.43918104171753L863.727262420428,286.243588578701L865.2667808521411,87.71101183891297L867.3616040509258,331.6355401173234L868.8557538990161,81.86491842269898L870.7774733506942,83.57451446056366L872.6754203342012,176.9041872739792L874.1332418330439,82.17804808616638L874.7094730685762,78.20302720069886L875.0630466796874,290.7386484861374L875.7937989583332,81.90276975631714L879.2245679036456,80.47232730388642L880.3622981409142,295.7110942572355L880.8431046802659,215.964510512352L881.9634240957754,164.84943873882295L884.1489844618054,340.12317533749155L885.5696405526618,218.58000386953356L890.7821727285879,89.78265137672425L891.2770418547453,93.22581596374512L891.974814019097,78.48499710559845L896.3208229890046,322.44461813271045L898.1904773871526,316.0237533420324L899.3211763310184,215.6634459614754L903.0189670138888,168.19774968624117L904.5690323857059,339.1669895097613L907.8757492259837,324.10369080752133L908.9436687644675,322.4039870917797L910.1242564091433,316.11991375386714L911.6108727285878,319.29802888333796L912.8041836660877,106.27136821746826L914.4709350260415,216.58493442535402L918.1220178313077,258.46619589328765L920.3377123119211,265.5563702702522L921.1796259910299,264.9159561216831L922.7285194806133,303.8506799608469L923.6310362123842,340.13231135682435L928.0630948206017,83.89104623794556L931.048381105324,185.17984063625337L933.8963897569442,125.04279084205628L936.397521267361,264.8244482696056L938.2934593098958,81.01186652183533L939.2391682725693,119.87108201980591L942.0834938657407,315.7400823801756L944.4880287977428,78.19070298671723L945.3301098885993,300.30618701577185L948.154011248553,326.03526914566754L949.5467095775462,339.967887684633L953.4701712962961,82.44697279930115L954.464597077546,82.4426244020462L955.982854217303,258.5547297120094L971.2126357277198,83.74644513130188L972.9450124927661,137.16364402770998L976.5107153067129,128.09761877059938L977.3529638093169,281.01817817687987L977.9099426938656,301.75762794613837L978.817481778067,79.07119710445404L981.815658767361,78.34839434623719L983.2667837962961,187.14718623161318L987.7006839337382,172.64056123495104L992.5159480324072,87.31659193038941L994.937893786169,78.68148608207703L997.6903103298608,175.2799369812012L1002.7499955801502,276.6035692512989L1022.1597136067707,148.67477531433107L1023.7209955656828,339.9376316785812L1031.0087637659142,79.689413022995L1035.7997531611688,326.76837963312863L1039.3698086805553,328.9278270833194L1041.2170299045138,214.47907097339632L1044.552708977141,267.8632400751114L1049.4642348307289,298.77665517926215L1054.0339058955437,307.0821108341217L1068.157263165509,84.52658815383911L1070.4576679904512,317.16244762837886L1082.1215792751734,84.64142639636994L1097.0814930483214,150.8810349225998L1100.7469732638885,135.68257541656496L1105.6829412326388,325.29468837082385L1110.2378800636573,340.19608169171914L1125.540485684317,326.5907628133893L1129.6827545572917,319.60732553601264L1130.9053625506363,293.8829649657011L1136.0012087384257,91.73393268585205L1137.9272808955438,340.061097803805L1139.8866679904513,340.07798061588545L1151.9835060546875,217.61676628589632L1167.0949274594905,339.92499630530364L1177.103303971354,321.3011530011892L1184.5834282696758,334.5373433277011L1185.8982801359953,334.220343337208L1187.3345055193863,338.1236308056861L1192.4603184100113,336.63978072702884L1204.4463298972798,241.1084867835045L1215.8201166232639,330.6382891394198L1219.791290690104,96.68497724533081L1225.933292889178,78.63345093727112L1233.2694430844906,339.80833581606856L1243.5414930989582,149.89872522354128L1248.5392360026042,338.6724814798683L1263.6568516420716,339.9047933716094L1268.6601191333912,339.9532484780531L1278.681386349826,245.27704514265062L1288.5484673466435,340.13789169582304L1292.9696441912615,320.57680549174546L1298.1707923683446,284.7951216816902L1316.6468550781249,87.34191627502442L1319.9919092086225,339.8843925694702L1321.3526318938077,265.7235188305378L1321.421103298611,339.92407556686084L1322.284110857928,321.62447351664304L1323.214417939815,271.6431576132774L1324.4541019314233,288.98230717778205L1324.81956177662,339.31155981291084L1324.9831230541085,339.53284753840416L1325.18552385706,159.20927460193636L1325.3166072554973,337.3210841378197L1325.4013175998261,268.4268081307411L1325.6279931061922,335.2970592331141L1325.8431172019675,169.8074677705765L1326.024758948206,337.3156264627352L1326.2023828125,335.88558903224765L1326.330955034722,336.657230290398L1326.712318995949,170.9429514527321L1326.962264735243,274.49238295555114L1327.3550126953126,85.70074553489685L1327.3965308087384,328.3925412118435L1327.4410623336225,181.506988298893L1327.5692997323495,88.85666806697846L1327.6071347873262,297.77195010781287L1327.818575824653,268.8319525837898L1327.8934088758679,300.73457455337046L1328.068354152199,338.15803390815853L1328.1065240306714,327.250263158977L1328.1505533203124,206.120077085495L1328.1972611979165,315.3026178449392L1328.235933311632,111.33894081115723L1328.2734335431135,323.5008069321513L1328.3124404803239,313.69945333600043L1328.6576435040508,251.75465877056124L1328.783034903067,330.21144916936754L1329.0299672309027,336.2212812870741L1329.6798596354167,336.97262533083557L1329.735440335648,330.2682050473988L1329.7749495081016,326.0438194915652L1334.2850219907407,220.17302681207659L1342.4371370442707,160.23283774852754L1347.1614965639465,339.10211259853094L1348.8088281611688,160.7733232498169L1349.7912002965854,191.29738218784334L1351.5239118851273,211.1218604564667L1351.747239156539,253.14895657896997L1355.166624103009,338.98451981954275L1358.206821440972,280.9112368941307L1358.4751824725113,232.17919946908953L1358.8622384331595,336.3153604388237L1359.2325532190391,337.78244584780185L1359.2928214482058,339.80047560045494L1359.59700859375,339.5701196343172L1360.4762550925925,339.50916920048184L1361.0154883318864,339.27762413145973L1361.3337380642358,85.5206137418747L1361.4748661675349,338.72215959504246L1361.5850230975113,338.8926661762409L1362.0726935185185,326.96225224882363L1362.5782769965276,323.36752602159976L1363.293459982639,339.8964702454861L1365.3537963614003,335.59939218387007L1365.6301931568285,223.58428813219072L1366.1322609881365,338.82755278218536L1366.4257337818287,338.20304274167864L1366.5087700086806,337.8878293538466L1366.6659696397567,332.2262863598764L1367.3553712167245,118.09004158973694L1367.994214445891,81.67151613235474L1368.0365696180554,338.50558040365576L1368.2602317129626,334.69524591118096L1368.7304913122105,337.86472145263104L1369.1605720920138,308.70773549079894L1369.3917677155669,334.1228106737137L1369.5312217013889,336.9194824386388L1369.572070167824,333.38673882633447L1369.7428301504629,331.068233397603L1370.0306109447338,322.5604111075401L1370.6540522931132,339.30776306223123L1371.800822764757,339.85492387872654L1371.8470284071182,340.0959540366777L1373.1026165147568,306.80679870843886L1373.53487364728,142.68872208595278L1373.6164031684027,148.69532318115236L1373.9222644314236,340.1197923162428L1373.9594298394095,259.2047249794006L1374.1335380570022,340.0770729249227L1374.271987572338,286.26926214694976L1374.3138405092593,78.27453918457032L1374.486776844618,340.01070801790337L1374.8065332826966,335.2593772307038L1374.8510648075808,320.14426810741423L1375.0820930193863,256.1834056198597L1375.6132904947917,235.88500274419786L1375.818369885706,331.51283167004584L1375.9019083478008,289.63761402368544L1375.940580461516,212.63372833728792L1376.0696549189813,332.66405012905597L1376.1043091507522,266.51049424409865L1376.465081467014,300.3262730062008L1376.7475050853589,330.19489413946866L1376.921613302951,122.39083178043366L1376.9634662398726,339.47296184934675L1377.1394159866895,339.9828130116686L1377.221280331308,334.9743959762156L1377.3078322048611,296.87883606255053L1377.3521963179976,320.54039752185344" style="fill: none;" fill="none"></path></g></g></g></g></g></g><g transform="translate(51, 378)" clip-path="url(#clip_1)"><clipPath id="clip_1"><rect width="1446" height="22"></rect></clipPath><g><g><line x1="0" y1="0" x2="0" y2="5" style="visibility: inherit;" fill="rgb(0, 0, 0)" stroke="rgb(204, 204, 204)" stroke-width="1px"></line><line x1="120.53645833333333" y1="0" x2="120.53645833333333" y2="5" style="visibility: inherit;" fill="rgb(0, 0, 0)" stroke="rgb(204, 204, 204)" stroke-width="1px"></line><line x1="241.07291666666666" y1="0" x2="241.07291666666666" y2="5" style="visibility: inherit;" fill="rgb(0, 0, 0)" stroke="rgb(204, 204, 204)" stroke-width="1px"></line><line x1="361.609375" y1="0" x2="361.609375" y2="5" style="visibility: inherit;" fill="rgb(0, 0, 0)" stroke="rgb(204, 204, 204)" stroke-width="1px"></line><line x1="482.1458333333333" y1="0" x2="482.1458333333333" y2="5" style="visibility: inherit;" fill="rgb(0, 0, 0)" stroke="rgb(204, 204, 204)" stroke-width="1px"></line><line x1="602.6822916666666" y1="0" x2="602.6822916666666" y2="5" style="visibility: inherit;" fill="rgb(0, 0, 0)" stroke="rgb(204, 204, 204)" stroke-width="1px"></line><line x1="723.2187499999999" y1="0" x2="723.2187499999999" y2="5" style="visibility: inherit;" fill="rgb(0, 0, 0)" stroke="rgb(204, 204, 204)" stroke-width="1px"></line><line x1="843.7552083333333" y1="0" x2="843.7552083333333" y2="5" style="visibility: inherit;" fill="rgb(0, 0, 0)" stroke="rgb(204, 204, 204)" stroke-width="1px"></line><line x1="964.2916666666664" y1="0" x2="964.2916666666664" y2="5" style="visibility: inherit;" fill="rgb(0, 0, 0)" stroke="rgb(204, 204, 204)" stroke-width="1px"></line><line x1="1084.8281249999998" y1="0" x2="1084.8281249999998" y2="5" style="visibility: inherit;" fill="rgb(0, 0, 0)" stroke="rgb(204, 204, 204)" stroke-width="1px"></line><line x1="1205.3645833333333" y1="0" x2="1205.3645833333333" y2="5" style="visibility: inherit;" fill="rgb(0, 0, 0)" stroke="rgb(204, 204, 204)" stroke-width="1px"></line><line x1="1325.9010416666665" y1="0" x2="1325.9010416666665" y2="5" style="visibility: inherit;" fill="rgb(0, 0, 0)" stroke="rgb(204, 204, 204)" stroke-width="1px"></line><line x1="1446.4375" y1="0" x2="1446.4375" y2="5" style="visibility: inherit;" fill="rgb(0, 0, 0)" stroke="rgb(204, 204, 204)" stroke-width="1px"></line></g><g transform="translate(0, 8)"><text x="0" y="0" dx="0em" dy="0.95em" style="text-anchor: middle; visibility: hidden; font-family: Roboto, sans-serif; font-size: 12px; font-weight: 200;" fill="rgb(50, 49, 63)" stroke="none" stroke-width="1px">-0.2</text><text x="120.53645833333333" y="0" dx="0em" dy="0.95em" style="text-anchor: middle; visibility: inherit; font-family: Roboto, sans-serif; font-size: 12px; font-weight: 200;" fill="rgb(50, 49, 63)" stroke="none" stroke-width="1px">0</text><text x="241.07291666666666" y="0" dx="0em" dy="0.95em" style="text-anchor: middle; visibility: inherit; font-family: Roboto, sans-serif; font-size: 12px; font-weight: 200;" fill="rgb(50, 49, 63)" stroke="none" stroke-width="1px">0.2</text><text x="361.609375" y="0" dx="0em" dy="0.95em" style="text-anchor: middle; visibility: inherit; font-family: Roboto, sans-serif; font-size: 12px; font-weight: 200;" fill="rgb(50, 49, 63)" stroke="none" stroke-width="1px">0.4</text><text x="482.1458333333333" y="0" dx="0em" dy="0.95em" style="text-anchor: middle; visibility: inherit; font-family: Roboto, sans-serif; font-size: 12px; font-weight: 200;" fill="rgb(50, 49, 63)" stroke="none" stroke-width="1px">0.6</text><text x="602.6822916666666" y="0" dx="0em" dy="0.95em" style="text-anchor: middle; visibility: inherit; font-family: Roboto, sans-serif; font-size: 12px; font-weight: 200;" fill="rgb(50, 49, 63)" stroke="none" stroke-width="1px">0.8</text><text x="723.2187499999999" y="0" dx="0em" dy="0.95em" style="text-anchor: middle; visibility: inherit; font-family: Roboto, sans-serif; font-size: 12px; font-weight: 200;" fill="rgb(50, 49, 63)" stroke="none" stroke-width="1px">1</text><text x="843.7552083333333" y="0" dx="0em" dy="0.95em" style="text-anchor: middle; visibility: inherit; font-family: Roboto, sans-serif; font-size: 12px; font-weight: 200;" fill="rgb(50, 49, 63)" stroke="none" stroke-width="1px">1.2</text><text x="964.2916666666664" y="0" dx="0em" dy="0.95em" style="text-anchor: middle; visibility: inherit; font-family: Roboto, sans-serif; font-size: 12px; font-weight: 200;" fill="rgb(50, 49, 63)" stroke="none" stroke-width="1px">1.4</text><text x="1084.8281249999998" y="0" dx="0em" dy="0.95em" style="text-anchor: middle; visibility: inherit; font-family: Roboto, sans-serif; font-size: 12px; font-weight: 200;" fill="rgb(50, 49, 63)" stroke="none" stroke-width="1px">1.6</text><text x="1205.3645833333333" y="0" dx="0em" dy="0.95em" style="text-anchor: middle; visibility: inherit; font-family: Roboto, sans-serif; font-size: 12px; font-weight: 200;" fill="rgb(50, 49, 63)" stroke="none" stroke-width="1px">1.8</text><text x="1325.9010416666665" y="0" dx="0em" dy="0.95em" style="text-anchor: middle; visibility: inherit; font-family: Roboto, sans-serif; font-size: 12px; font-weight: 200;" fill="rgb(50, 49, 63)" stroke="none" stroke-width="1px">2</text><text x="1446.4375" y="0" dx="0em" dy="0.95em" style="text-anchor: middle; visibility: hidden; font-family: Roboto, sans-serif; font-size: 12px; font-weight: 200;" fill="rgb(50, 49, 63)" stroke="none" stroke-width="1px">2.2</text></g><line x1="0" y1="0" x2="1446.4375" y2="0" fill="rgb(0, 0, 0)" stroke="rgb(204, 204, 204)" stroke-width="1px"></line></g></g></g></g></svg>