<svg viewBox="0 0 1498 400" xmlns="http://www.w3.org/2000/svg"><g><g><g><g><g><line x1="72.34375" y1="378" x2="67.34375" y2="378" style="visibility: inherit;" fill="rgb(0, 0, 0)" stroke="rgb(204, 204, 204)" stroke-width="1px"></line><line x1="72.34375" y1="348.92307692307696" x2="67.34375" y2="348.92307692307696" style="visibility: inherit;" fill="rgb(0, 0, 0)" stroke="rgb(204, 204, 204)" stroke-width="1px"></line><line x1="72.34375" y1="319.84615384615387" x2="67.34375" y2="319.84615384615387" style="visibility: inherit;" fill="rgb(0, 0, 0)" stroke="rgb(204, 204, 204)" stroke-width="1px"></line><line x1="72.34375" y1="290.7692307692307" x2="67.34375" y2="290.7692307692307" style="visibility: inherit;" fill="rgb(0, 0, 0)" stroke="rgb(204, 204, 204)" stroke-width="1px"></line><line x1="72.34375" y1="261.6923076923077" x2="67.34375" y2="261.6923076923077" style="visibility: inherit;" fill="rgb(0, 0, 0)" stroke="rgb(204, 204, 204)" stroke-width="1px"></line><line x1="72.34375" y1="232.61538461538464" x2="67.34375" y2="232.61538461538464" style="visibility: inherit;" fill="rgb(0, 0, 0)" stroke="rgb(204, 204, 204)" stroke-width="1px"></line><line x1="72.34375" y1="203.53846153846152" x2="67.34375" y2="203.53846153846152" style="visibility: inherit;" fill="rgb(0, 0, 0)" stroke="rgb(204, 204, 204)" stroke-width="1px"></line><line x1="72.34375" y1="174.46153846153848" x2="67.34375" y2="174.46153846153848" style="visibility: inherit;" fill="rgb(0, 0, 0)" stroke="rgb(204, 204, 204)" stroke-width="1px"></line><line x1="72.34375" y1="145.38461538461536" x2="67.34375" y2="145.38461538461536" style="visibility: inherit;" fill="rgb(0, 0, 0)" stroke="rgb(204, 204, 204)" stroke-width="1px"></line><line x1="72.34375" y1="116.30769230769232" x2="67.34375" y2="116.30769230769232" style="visibility: inherit;" fill="rgb(0, 0, 0)" stroke="rgb(204, 204, 204)" stroke-width="1px"></line><line x1="72.34375" y1="87.23076923076921" x2="67.34375" y2="87.23076923076921" style="visibility: inherit;" fill="rgb(0, 0, 0)" stroke="rgb(204, 204, 204)" stroke-width="1px"></line><line x1="72.34375" y1="58.15384615384616" x2="67.34375" y2="58.15384615384616" style="visibility: inherit;" fill="rgb(0, 0, 0)" stroke="rgb(204, 204, 204)" stroke-width="1px"></line><line x1="72.34375" y1="29.07692307692306" x2="67.34375" y2="29.07692307692306" style="visibility: inherit;" fill="rgb(0, 0, 0)" stroke="rgb(204, 204, 204)" stroke-width="1px"></line><line x1="72.34375" y1="0" x2="67.34375" y2="0" style="visibility: inherit;" fill="rgb(0, 0, 0)" stroke="rgb(204, 204, 204)" stroke-width="1px"></line></g><g transform="translate(62.34375, 0)"><text x="0" y="378" dx="0em" dy="0.3em" style="text-anchor: end; visibility: hidden; font-family: Roboto, sans-serif; font-size: 12px; font-weight: 200;" fill="rgb(50, 49, 63)" stroke="none" stroke-width="1px">-100</text><text x="0" y="348.92307692307696" dx="0em" dy="0.3em" style="text-anchor: end; visibility: inherit; font-family: Roboto, sans-serif; font-size: 12px; font-weight: 200;" fill="rgb(50, 49, 63)" stroke="none" stroke-width="1px">0</text><text x="0" y="319.84615384615387" dx="0em" dy="0.3em" style="text-anchor: end; visibility: inherit; font-family: Roboto, sans-serif; font-size: 12px; font-weight: 200;" fill="rgb(50, 49, 63)" stroke="none" stroke-width="1px">100</text><text x="0" y="290.7692307692307" dx="0em" dy="0.3em" style="text-anchor: end; visibility: inherit; font-family: Roboto, sans-serif; font-size: 12px; font-weight: 200;" fill="rgb(50, 49, 63)" stroke="none" stroke-width="1px">200</text><text x="0" y="261.6923076923077" dx="0em" dy="0.3em" style="text-anchor: end; visibility: inherit; font-family: Roboto, sans-serif; font-size: 12px; font-weight: 200;" fill="rgb(50, 49, 63)" stroke="none" stroke-width="1px">300</text><text x="0" y="232.61538461538464" dx="0em" dy="0.3em" style="text-anchor: end; visibility: inherit; font-family: Roboto, sans-serif; font-size: 12px; font-weight: 200;" fill="rgb(50, 49, 63)" stroke="none" stroke-width="1px">400</text><text x="0" y="203.53846153846152" dx="0em" dy="0.3em" style="text-anchor: end; visibility: inherit; font-family: Roboto, sans-serif; font-size: 12px; font-weight: 200;" fill="rgb(50, 49, 63)" stroke="none" stroke-width="1px">500</text><text x="0" y="174.46153846153848" dx="0em" dy="0.3em" style="text-anchor: end; visibility: inherit; font-family: Roboto, sans-serif; font-size: 12px; font-weight: 200;" fill="rgb(50, 49, 63)" stroke="none" stroke-width="1px">600</text><text x="0" y="145.38461538461536" dx="0em" dy="0.3em" style="text-anchor: end; visibility: inherit; font-family: Roboto, sans-serif; font-size: 12px; font-weight: 200;" fill="rgb(50, 49, 63)" stroke="none" stroke-width="1px">700</text><text x="0" y="116.30769230769232" dx="0em" dy="0.3em" style="text-anchor: end; visibility: inherit; font-family: Roboto, sans-serif; font-size: 12px; font-weight: 200;" fill="rgb(50, 49, 63)" stroke="none" stroke-width="1px">800</text><text x="0" y="87.23076923076921" dx="0em" dy="0.3em" style="text-anchor: end; visibility: inherit; font-family: Roboto, sans-serif; font-size: 12px; font-weight: 200;" fill="rgb(50, 49, 63)" stroke="none" stroke-width="1px">900</text><text x="0" y="58.15384615384616" dx="0em" dy="0.3em" style="text-anchor: end; visibility: inherit; font-family: Roboto, sans-serif; font-size: 12px; font-weight: 200;" fill="rgb(50, 49, 63)" stroke="none" stroke-width="1px">1e+3</text><text x="0" y="29.07692307692306" dx="0em" dy="0.3em" style="text-anchor: end; visibility: inherit; font-family: Roboto, sans-serif; font-size: 12px; font-weight: 200;" fill="rgb(50, 49, 63)" stroke="none" stroke-width="1px">1.1e+3</text><text x="0" y="0" dx="0em" dy="0.3em" style="text-anchor: end; visibility: hidden; font-family: Roboto, sans-serif; font-size: 12px; font-weight: 200;" fill="rgb(50, 49, 63)" stroke="none" stroke-width="1px">1.2e+3</text></g><line x1="72.34375" y1="0" x2="72.34375" y2="378" fill="rgb(0, 0, 0)" stroke="rgb(204, 204, 204)" stroke-width="1px"></line></g></g><g transform="translate(72, 0)" clip-path="url(#clip_0)"><clipPath id="clip_0"><rect width="1425" height="378"></rect></clipPath><g><g><g><line x1="0" y1="0" x2="0" y2="378" fill="rgb(0, 0, 0)" stroke="rgb(60, 60, 60)" stroke-width="1px" opacity="0.25"></line><line x1="118.8046875" y1="0" x2="118.8046875" y2="378" fill="rgb(0, 0, 0)" stroke="rgb(60, 60, 60)" stroke-width="1px" opacity="0.25"></line><line x1="237.609375" y1="0" x2="237.609375" y2="378" fill="rgb(0, 0, 0)" stroke="rgb(60, 60, 60)" stroke-width="1px" opacity="0.25"></line><line x1="356.4140625" y1="0" x2="356.4140625" y2="378" fill="rgb(0, 0, 0)" stroke="rgb(60, 60, 60)" stroke-width="1px" opacity="0.25"></line><line x1="475.21875" y1="0" x2="475.21875" y2="378" fill="rgb(0, 0, 0)" stroke="rgb(60, 60, 60)" stroke-width="1px" opacity="0.25"></line><line x1="594.0234375" y1="0" x2="594.0234375" y2="378" fill="rgb(0, 0, 0)" stroke="rgb(60, 60, 60)" stroke-width="1px" opacity="0.25"></line><line x1="712.8281249999999" y1="0" x2="712.8281249999999" y2="378" fill="rgb(0, 0, 0)" stroke="rgb(60, 60, 60)" stroke-width="1px" opacity="0.25"></line><line x1="831.6328124999999" y1="0" x2="831.6328124999999" y2="378" fill="rgb(0, 0, 0)" stroke="rgb(60, 60, 60)" stroke-width="1px" opacity="0.25"></line><line x1="950.4374999999998" y1="0" x2="950.4374999999998" y2="378" fill="rgb(0, 0, 0)" stroke="rgb(60, 60, 60)" stroke-width="1px" opacity="0.25"></line><line x1="1069.2421874999998" y1="0" x2="1069.2421874999998" y2="378" fill="rgb(0, 0, 0)" stroke="rgb(60, 60, 60)" stroke-width="1px" opacity="0.25"></line><line x1="1188.046875" y1="0" x2="1188.046875" y2="378" fill="rgb(0, 0, 0)" stroke="rgb(60, 60, 60)" stroke-width="1px" opacity="0.25"></line><line x1="1306.8515625" y1="0" x2="1306.8515625" y2="378" fill="rgb(0, 0, 0)" stroke="rgb(60, 60, 60)" stroke-width="1px" opacity="0.25"></line><line x1="1425.65625" y1="0" x2="1425.65625" y2="378" fill="rgb(0, 0, 0)" stroke="rgb(60, 60, 60)" stroke-width="1px" opacity="0.25"></line></g><g><line x1="0" y1="378" x2="1425.65625" y2="378" fill="rgb(0, 0, 0)" stroke="rgb(60, 60, 60)" stroke-width="1px" opacity="0.25"></line><line x1="0" y1="348.92307692307696" x2="1425.65625" y2="348.92307692307696" fill="rgb(0, 0, 0)" stroke="rgb(60, 60, 60)" stroke-width="1px" opacity="0.25"></line><line x1="0" y1="319.84615384615387" x2="1425.65625" y2="319.84615384615387" fill="rgb(0, 0, 0)" stroke="rgb(60, 60, 60)" stroke-width="1px" opacity="0.25"></line><line x1="0" y1="290.7692307692307" x2="1425.65625" y2="290.7692307692307" fill="rgb(0, 0, 0)" stroke="rgb(60, 60, 60)" stroke-width="1px" opacity="0.25"></line><line x1="0" y1="261.6923076923077" x2="1425.65625" y2="261.6923076923077" fill="rgb(0, 0, 0)" stroke="rgb(60, 60, 60)" stroke-width="1px" opacity="0.25"></line><line x1="0" y1="232.61538461538464" x2="1425.65625" y2="232.61538461538464" fill="rgb(0, 0, 0)" stroke="rgb(60, 60, 60)" stroke-width="1px" opacity="0.25"></line><line x1="0" y1="203.53846153846152" x2="1425.65625" y2="203.53846153846152" fill="rgb(0, 0, 0)" stroke="rgb(60, 60, 60)" stroke-width="1px" opacity="0.25"></line><line x1="0" y1="174.46153846153848" x2="1425.65625" y2="174.46153846153848" fill="rgb(0, 0, 0)" stroke="rgb(60, 60, 60)" stroke-width="1px" opacity="0.25"></line><line x1="0" y1="145.38461538461536" x2="1425.65625" y2="145.38461538461536" fill="rgb(0, 0, 0)" stroke="rgb(60, 60, 60)" stroke-width="1px" opacity="0.25"></line><line x1="0" y1="116.30769230769232" x2="1425.65625" y2="116.30769230769232" fill="rgb(0, 0, 0)" stroke="rgb(60, 60, 60)" stroke-width="1px" opacity="0.25"></line><line x1="0" y1="87.23076923076921" x2="1425.65625" y2="87.23076923076921" fill="rgb(0, 0, 0)" stroke="rgb(60, 60, 60)" stroke-width="1px" opacity="0.25"></line><line x1="0" y1="58.15384615384616" x2="1425.65625" y2="58.15384615384616" fill="rgb(0, 0, 0)" stroke="rgb(60, 60, 60)" stroke-width="1px" opacity="0.25"></line><line x1="0" y1="29.07692307692306" x2="1425.65625" y2="29.07692307692306" fill="rgb(0, 0, 0)" stroke="rgb(60, 60, 60)" stroke-width="1px" opacity="0.25"></line><line x1="0" y1="0" x2="1425.65625" y2="0" fill="rgb(0, 0, 0)" stroke="rgb(60, 60, 60)" stroke-width="1px" opacity="0.25"></line></g></g></g><g><g><line x1="0" y1="348.92307692307696" x2="1425.65625" y2="348.92307692307696" fill="rgb(0, 0, 0)" stroke="rgb(153, 153, 153)" stroke-width="1.5px"></line></g></g><g><g><line x1="118.8046875" y1="0" x2="118.8046875" y2="378" fill="rgb(0, 0, 0)" stroke="rgb(153, 153, 153)" stroke-width="1.5px"></line></g></g><g><g><g><g><g><path stroke="rgb(187, 187, 187)" stroke-width="2px" d="M118.8046875,344.27076923076925L118.8809205078125,344.58511434511433L119.40580621744792,344.01080062794347L119.81766246744792,340.625004631739L119.93300201822915,341.2944396627773L120.23298385416663,341.5910712495567L120.39749534505206,342.1826831752791L120.87386914062499,342.97292060283525L121.79345042317706,343.56685561958875L122.01802428385416,344.02416808896396L122.20530667317708,343.859068405152L122.3244413736979,344.2361530140448L122.40314947916666,344.34128755994743L122.54951025390625,344.47533162910696L123.06845572916666,344.48950035166655L123.15310406901041,344.5011727569161L123.2669585611979,344.2780699047865L123.35078186848958,344.3690883877517L123.40853414713541,344.6278313586291L124.07499544270833,344.79898270859627L124.2706931640625,345.0327603233468L124.5500491861979,344.96004061883525L124.64756803385416,344.8094499875429L124.70383525390623,345.03859172639807L124.77346800130206,345.1432959586069L125.22047063802083,345.14326261586865L125.9400640299479,345.01074198390864L126.02124723307293,344.98672316286866L126.43260846354165,345.2304410946193L127.39591647135416,344.42612198000995L127.59095416666666,344.2709665530794L127.64755139973956,344.5340798650005L128.06584290364583,344.88878396000615L128.24999016927083,345.14602951484295L128.37077493489582,345.145585121447L128.83048307291665,345.3201728827809L129.11577932942708,345.0312093049365L129.16396123046874,345.2228494653614L129.74445413411456,345.25455500542523L129.86309381510415,345.3688511541663L129.92414622395833,345.4222840201558L129.98585865885414,345.46768300145345L130.5475408203125,345.549914110026L130.87474873046872,345.2269429468682L131.05510084635415,344.9961322666597L131.18149583333332,344.5381452424825L131.70374143880207,344.67256511625L132.04711998697917,344.7431707906146L132.09348681640626,345.0213304215487L132.26261848958333,345.2141109529085L132.91241412760414,344.3309261234916L132.99821751302082,344.2782759541548L133.1097619140625,344.40801966568347L133.36288190104165,344.73640587724594L133.49587714843747,344.7537934313148L133.63877278645833,344.2015089645124L133.819619921875,343.77570378541947L134.35143590494792,342.80311598761773L134.49565159505207,342.4562402116747L135.04594830729167,342.9465250361618L135.73204537760415,343.4068767577938L135.81207353515623,343.5800833001695L135.878901171875,343.8581576720417L136.40411689453123,342.21899958259695L137.7017280924479,342.65762251605884L137.75156005859372,343.2049142345631L138.00781516927083,343.4956440648126L138.3142322591146,343.9172272211525L138.66256100260418,343.5777154821617L138.81172688802081,343.02743646698866L138.8957152018229,343.25755400846975L139.06732197265623,343.6276162799409L140.60551266276042,344.0293997434865L141.4135495442708,344.3709149025553L141.79603463541665,344.48673979477735L141.9440454752604,344.45434407011226L142.01103811848955,344.6448854675273L142.18677005208332,344.89407650273165L142.42107929687498,345.1058886666459L142.71000569661456,345.1986978838033L142.81544485677082,345.36481659683346L143.46408544921874,345.331555591534L145.40703710937498,344.12566673525885L145.96393408203122,344.3218938792262L146.01244599609373,344.6195331723221L146.23371972656247,344.8725264887428L146.3734802408854,344.21526242450744L146.91074143880206,343.83104974762267L147.21105328776042,342.02154518573565L147.5267107421875,340.8760052065726L147.9428571614583,341.6905278101374L148.59331282552083,342.2520257419495L148.64000966796874,342.9037605200362L148.81673164062497,342.41096555850027L149.42709072265623,342.9516285236249L149.52510458984375,343.0186534870823L149.71849222005207,342.20331688634394L150.02738440755206,342.775127114932L151.3810978190104,342.34524261883575L151.73817190755207,341.89261003256945L152.67144873046874,341.59510312094744L153.64581217447915,341.34222225220736L153.82500924479163,340.95281197037957L154.81339824218747,340.6654286232382L155.30858277994793,341.4243066668998L155.6965130859375,342.2001991540014L156.1836123046875,342.6852462175803L156.53969635416664,341.78907464819696L157.20797272135414,341.4634826751398L157.35746861979166,341.3175756559714L157.50795455729164,341.19355469037555L157.8193218424479,340.78282917401634L158.91694514973958,341.52409711344615L159.71128649088539,340.9329440795764L159.8898235351562,340.6921563119538L160.08370618489582,340.2257944005931L162.29677350260414,339.87300216163334L163.7991577799479,338.8316672171169L164.72731940104165,339.9528402159447L164.93192747395832,339.59737572080934L165.38883050130207,339.6441539782073L165.6931025065104,339.4658385733471L166.36880416666662,338.96534740168755L167.3738588216146,338.84523759891414L167.5923274414062,339.9643750376837L167.6335790690104,341.002872629513L168.26241888020832,339.443134041083L169.15196897786456,339.7747408583038L170.1958001627604,339.882145114258L170.24777721354167,340.8021310400411L170.6574883789062,341.5841190767863L170.84081061197915,341.0275781380769L171.80708873697915,341.3395952636471L171.93331871744792,341.47396366645455L173.5116059895833,341.45733065494295L174.10117425130204,340.6145002872586L174.280536328125,340.3342483210329L174.4465328776041,341.2736495345873L174.85723408203123,340.5456021042867L177.14900950520834,340.1448387116679L177.66019967447914,341.15626675118455L178.09631188151042,341.0564421231128L178.476321875,341.32051426620563L178.9975774414062,339.01528327996283L179.9793661783854,338.80045232641737L180.18578932291666,338.5306152466722L181.36195572916665,338.3884844981269L181.81456858723956,338.22405797724815L181.87545598958332,339.39275697300417L182.10432001953123,340.3861511193869L182.15118186848957,341.2741515284215L182.68118277994787,339.9790287991341L182.9437081380208,340.1866360177288L183.87632493489582,339.5344098458299L184.19561253255208,338.23855606124823L185.30297122395834,337.7476957289793L185.78759534505204,338.0719259850197L186.1831159505208,338.52198324111606L186.32716663411455,338.9045319087971L186.52434941406247,338.7499290455537L187.27380898437497,338.53128584256586L188.02013343098957,337.9965160431021L188.3186302083333,337.0621924827877L188.89549296874998,336.8350174565228L189.19910494791665,337.7323032995848L189.61525136718748,337.53545780464674L189.66211321614583,338.8946775954904L189.9182033203125,338.2181682638582L190.14393222656247,337.8612122550483L190.5729491536458,338.5609534937148L190.72921031901043,338.719579700427L191.2846222330729,339.8575658222868L191.44236845703122,339.90893094894386L191.9223723958333,340.82489899891044L192.3155829101562,340.3386256875352L192.64460589192706,340.3178318344049L193.73480390624997,341.1288493669367L194.1341196614583,339.94275273112663L195.075316796875,339.0654167445344L195.72197731119792,339.1047580790081L195.9094247070312,339.00735205946455L196.25659840494794,339.0990184813141L198.81947952473956,338.7407810937324L200.24810589192705,338.65435623736477L200.51789153645834,337.9702797248369L200.90516181640623,337.60689161226526L200.96819430338542,338.8245501781178L201.09475429687498,339.2053291898617L201.2879769205729,339.0056067344593L201.56056767578121,339.18476572429046L202.07588300781248,339.0317431733392L202.91114596354166,340.16652015887684L203.2637648763021,338.4705421350452L204.02526992187498,337.42149927632687L204.63727906901036,337.5329666925702L205.60883740234374,337.0170986117616L206.24988769531248,337.62537997384345L206.44459537760417,337.70626528545927L206.7551376302083,337.9058639541788L206.99621214192706,337.46490743797506L207.28711861979164,337.87517132227885L207.5382585286458,337.3952033162447L207.70805022786456,337.7286920495772L208.3845769205729,338.05577285752526L208.61525602213538,337.7667915442811L208.9406488606771,336.6488497357158L209.4734548828125,334.7826761215123L210.02969182942707,335.63889008790085L210.2001435546875,336.27944119010033L211.66787646484374,336.38775578081606L212.40826067708332,336.436207798309L213.28840540364584,336.6518535516396L213.7568588867187,337.3149216727398L214.08291175130208,338.00937572952114L214.42431022135412,338.38158475470834L215.12459785156247,337.738423964579L215.67258447265624,338.80550652373836L216.45752044270833,337.40091131440835L216.61312158203123,337.8207746172471L217.04543863932292,335.6479661169677L217.1919644205729,336.41800196865336L218.5979848958333,336.15660936566303L219.83619374999998,335.01850257619816L220.18353245442708,335.83934257438386L220.41272649739582,335.8828258036109L221.4324667317708,334.4804788561462L222.01328964843748,335.2075608738781L222.3103013671875,334.7351959735656L222.76439928385412,335.68576273137694L223.03897011718743,335.4469752447473L223.2925851236979,335.0695443426506L223.47788743489585,336.1444203835607L223.7381027018229,336.49106501833427L224.66279918619787,337.26548218866105L225.1992353515625,337.5748137065158L225.42496425781243,337.22713011207685L225.96255546874997,337.978368287573L226.2666624674479,336.95953612136014L226.46005009765625,337.00945185700226L226.92734853515623,337.0082648476827L227.10539055989577,337.39979435129953L228.39112128906248,337.86344058322L229.13728072916663,338.51923218804467L229.33924869791664,338.3788088982995L230.18705214843746,334.15960294816995L230.59758834635417,334.4114317367137L231.12742425130207,334.4074092838989L231.33120729166663,334.8401440451603L231.46024238281248,335.90581474607853L232.1466694661458,331.7958656110898L232.43444082031246,332.00971653865713L232.99034775390624,333.06379751939704L233.26227848307292,334.3959201991798L233.68964534505204,336.05160909237975L234.17954967447912,336.8483292669843L234.5130278320312,337.08938756924437L234.74007679036455,336.85813328001154L235.1166216471354,335.39672098031747L236.09709033203123,335.9427512948084L236.3315645833333,335.83987706212554L236.59689505208328,336.8428185797298L237.28035201822914,336.517703485078L238.07139322916663,336.5902787315471L238.67003684895832,336.0413523064304L239.53945615234372,335.22584176815815L239.82640247395832,334.88158088754983L240.27373512369786,335.33042067749426L240.79317561848958,333.8800883451009L241.84872226562499,333.34515201641267L243.12224251302078,334.0244561370277L244.16953883463538,333.3806338703197L244.9755956380208,333.57484648207947L247.9732689127604,334.21969643284444L249.6144236653645,334.37528042945627L250.1574600911458,333.460757595807L250.49110325520826,332.9014901102821L251.3116806315104,334.3451896706629L251.79976988932287,334.8744881431404L252.02533378906247,335.01908415243855L252.77248326822917,335.2292215295728L253.15298828124997,336.36737676167536L253.56880468749995,335.76465486280864L254.21777529296872,336.08103355646426L254.56676406249997,336.43718621530235L254.7372157877604,336.78353135993007L255.13389143880204,336.554540117479L255.86767539062495,337.1449744844725L256.80194225260414,336.6436898502632L257.9789336914062,338.005828680416L258.13189472656245,338.33495437835364L258.30102639973956,338.48386506775444L258.477418359375,338.3923622306682L259.0917375976562,337.878430972991L259.73773808593745,337.3979740193501L259.86330804036453,338.1235856087552L260.04234010416667,338.2605862289804L260.60088714192705,337.89726752540264L260.76341855468746,338.1990620119768L260.9883224283854,337.80135655633416L261.14870875651036,337.98669153442245L263.31854436848954,338.5803801119514L263.59460026041666,337.7765538643895L264.4950407877604,336.9624554001157L265.8779603515625,337.40447170548293L266.44838785807286,337.1259547958143L268.8522027018229,335.75521542259605L269.04130016276036,336.16024080151436L269.6544643554687,335.76305083513336L270.0065882486978,334.64036244063254L270.3212556640625,334.12223115146077L271.2040404947916,332.1116657095109L271.5858655598958,331.1877620069304L271.99673177083326,331.6672900135831L272.38004189453125,333.12165805000717L273.4925157877604,333.83448626558305L273.8680706054687,332.73939024882253L275.114034765625,333.727635557653L275.3650096679687,333.86979791631273L275.52902613932287,334.8193282288658L275.7560750976562,335.1030443791513L276.7896758789062,334.42828002997095L277.0903177408854,334.0728072562445L277.2990509765625,334.55573232165403L278.0087439778645,334.8789878580213L278.24569332682285,335.0665242947027L279.82398059895826,335.3567764197281L280.4911019205729,336.73749072599963L281.31959960937496,334.24740557863817L281.7232055338541,334.6169101264578L281.9038876627604,335.19268129979685L282.50847151692705,335.3331637202119L283.44207835286454,334.01326608525704L283.6052697916667,334.8104300186223L283.76268600260414,335.4444039773675L283.9844547526041,335.5471279961469L284.9733387695312,335.5908280274941L287.08311201171875,335.14820382337L287.96408177083333,330.14874248063376L288.54589472656244,330.12989264700025L288.96039108072915,331.3351010576425L289.1811697916666,332.1414512836115L290.0045522786458,332.12900282183904L290.11675670572913,334.21196009087083L290.5462686523437,334.19424300031716L291.51601191406246,334.1791834733465L294.24241448567705,333.03238287542143L294.54107626953123,332.9735254441082L294.8496384440104,334.9298043197997L295.3438329427083,334.7607952102913L297.7187716471354,334.7043682364399L297.78114410807285,336.3574053086662L298.09779160156245,336.0178714354432L298.5563446940104,336.2526522585882L299.5173426106771,335.44906211210775L300.73113050130206,335.42024125683L301.36673557942703,334.69789737599785L302.71038359374995,334.95621276959815L302.89469586588535,335.5247039310815L303.0644875651041,336.18238295680385L304.9156956054687,337.3520255132833L305.2927354817708,335.99099091706006L307.81287991536453,334.83411151027025L309.2494265950521,333.8943793991143L309.4896760742188,334.0987609507857L309.8812365234375,332.9640237312447L312.99292929687493,329.9495740177118L313.59602809244785,329.8733686842859L315.1286085611979,328.10759415087375L316.9106788736978,328.91830118208884L317.1568685872395,329.60740215862165L318.30663395182285,330.23675337328996L319.81578349609373,326.97716344421957L320.45452369791667,324.86074277374047L320.9698390299479,323.93409289614095L325.35026686197915,323.23367126941207L326.2518624348958,324.20846673284643L327.22061565755206,325.47319672291945L327.45607994791663,326.89714029140464L327.67025839843745,328.4128000169247L328.2753372721354,329.78834155284756L328.55881845703124,330.2597057045358L329.09789472656246,328.3923652334708L334.6183525390624,326.630664294604L335.6639987955729,327.75014157349034L336.1842643229166,329.4431587990053L336.43969440104166,330.2279926714622L337.25961175130203,328.0601014630505L337.4411189127604,329.70662470513145L337.7717919596354,330.6264002301309L338.98987001953117,329.8380555802267L339.1383758789062,331.4795780124234L339.661446516927,331.74087207979073L340.19491256510406,331.13427972936057L341.6189187499999,330.0080608468796L341.9434865559896,330.66454402753993L343.1429188802083,329.8268624234089L343.9689414713541,329.0712176752822L344.7182360351562,328.254458100913L345.47495589192704,327.211289385776L345.7774128255208,329.9882882856019L346.30081347656244,330.42966042737703L350.18209661458326,328.79851905557814L351.96713704427077,329.5492027357029L353.40434374999995,328.48628386380904L353.6609288736979,329.41464897654544L353.9175139973958,330.2473747069867L354.60245602213536,330.82434542401563L355.57483938802073,329.52653976425944L356.49013050130196,328.8159434150051L357.6776823567708,329.12785959506203L359.7341584960937,327.3866806558027L362.06322539062495,328.26190932666304L363.0877508138021,325.99639215843285L364.2026998046875,327.51631795005255L364.6346868489582,327.06363948831387L365.809533203125,327.59478587275913L366.66261686197913,323.46664491492214L367.3444237630208,321.48426356229925L369.0783121744792,320.7151624894928L371.82996074218744,322.28581119299196L373.79139313151035,322.007093360197L374.39119179687503,324.2562601253982L377.9180409505208,322.76605187581924L379.51876910807283,322.502528709831L380.51705849609374,317.3936109418179L381.0249485351562,317.84872314669906L381.31849511718747,319.8929531362327L384.48100989583327,317.748779396567L385.7005730143228,317.7580778716973L388.2297928059895,319.2489046524812L389.10614238281244,320.86503049307055L390.59862626953117,320.3196605344946L390.97517112630203,321.2954037620127L392.39983733723955,320.55463165924925L393.1035901041666,318.39843691036185L395.9829537109374,319.26982521996143L396.0923530273437,322.84550528312104L396.7436337239583,321.13075641372984L397.8079257161458,322.81352756705496L399.29859453125,323.63326766276595L399.49264218749994,325.769354436428L399.79278902994787,326.75633588634844L400.0490441406249,327.90057781108845L400.4792161132812,327.21579883173285L402.73370006510413,326.67735208389604L405.2442741210937,329.4035954251578L408.40513883463535,326.3125945729226L409.9142883789062,326.5202438485226L410.7911329752603,326.08613034816733L414.19521728515616,325.23736464209605L415.7781247395833,326.12968302270474L419.20431992187497,323.83507672314516L420.32850927734376,324.15266136851955L421.6124249348958,322.2418390863186L422.8133423177083,321.1410247618323L423.3547286783853,320.5978710475574L424.7592640950521,321.6627288519623L425.2610488932291,321.30301183186026L426.0067133138021,322.43656005708124L426.8484115234374,319.03853758698057L428.210540266927,318.59268002585657L439.61546025390624,321.2231626373627L440.2913269205728,319.4464574725275L440.71918880208324,320.20425808241765L441.5506566080729,317.18469629313194L443.30764593098945,320.59337646454674L444.8511168294271,321.8333699948647L446.7486916992186,321.8842106494812L447.11385110677077,322.88696366744364L447.4270334635416,324.1318421942501L449.44044290364576,325.8878350958819L449.8079124023436,326.29004444688417L450.1432056315104,326.8499993183131L450.8124720377604,328.4599609590277L451.99886884765624,326.1211206613274L452.84898238932277,323.4788756390513L454.01194827473955,323.5009673701167L457.68548821614576,324.47928380306075L460.8315023437499,319.3355450787555L461.1062381835937,321.4620594707883L466.0594036132812,322.96428901170856L466.2645067057291,325.1571071984138L471.47656735026027,321.87438727249787L474.43100891927077,321.2212291816232L476.0436175455728,320.4043524966874L476.6607418945312,318.96854577603045L478.9893137695312,318.1406485250105L479.6879513346353,317.2188589385666L480.3758634765625,315.99918394393546L484.72774518229164,316.88153712157595L485.36450530598944,316.2794603994934L485.92750751953116,316.07300287803093L486.48291943359374,316.4208986001724L488.5199248046874,314.49222534860814L489.5264645182291,316.9090838540092L489.98683268229155,317.7857981989847L490.6412485026041,316.87362077682934L495.3886508138021,317.27588535261265L497.96473245442706,320.1911179343361L498.3623981445312,321.0116810134165L499.7930045898437,324.7622365537117L504.11072994791664,321.0153626091165L505.3357382812499,320.36021206390285L511.88468167317694,313.7407956389328L514.0315813802082,316.13952244693905L515.2801856445312,310.2404402337443L516.2936556315103,313.55675881406734L517.1304036458332,311.70878345349564L520.3278998046874,312.9730043970098L520.662368001302,315.1815921989968L523.6948576497396,315.88127644607033L524.2309638020834,316.38877728685213L528.5980261067708,318.1722299245935L530.0591587565104,320.2551646666737L531.0223017578124,318.8853515051342L532.8509039062499,317.89547185628714L535.9993931315103,319.58376646245944L536.7236067057291,320.66989380078286L538.2670776041666,320.24102511528076L538.9975614257812,321.22856365568094L539.5141968098957,320.71589449194425L541.9444126953124,316.8345103181526L543.3789792968748,318.3766414627374L546.6624438476562,317.55029908948063L547.3822022460937,319.3339849952893L549.1792881510415,321.59157955368823L549.8749555989583,323.33607338986576L550.3841656901042,322.63812391984743L550.8876005533854,322.3065591780242L551.6995975911458,324.0310368397821L552.5424508463541,324.10115054458396L554.979927018229,324.24797796289636L556.8923524739582,322.6281658838466L558.0335375,323.30124869357724L560.008500423177,322.128753697233L561.6587305338542,322.8331329503403L563.6190078776041,322.908470700097L564.360712141927,325.98196932585165L567.3311593424478,323.360597003897L567.8702356119791,322.5717382225432L568.1938133789062,323.6894390276233L572.3506573893228,319.53648471194134L573.669059407552,318.31808892822704L574.7386316080728,319.5504525120699L576.8079782552082,318.6788846352594L577.1196755533853,320.598590401509L579.6427901041666,322.2303403028211L579.8902998697916,324.140712334321L581.6819405598957,322.4933747149421L584.6876991536458,319.82829158462386L586.335619173177,320.5288170776995L586.7235494791666,321.34234066989075L587.4045313476562,319.6786049540225L588.3820299153646,315.7347372878422L589.7991058268228,314.6940651562043L591.531344173177,313.9839553827737L596.0147360677082,313.2495159215115L596.5790583333333,313.7592423794386L600.7246819010415,310.1362790994459L602.249507063802,307.3184526191444L602.6083962239584,310.4188385724266L603.2720524088542,310.4808589404088L607.8836543619791,314.11003779165515L610.3323509765625,317.2820705844453L610.9082236979165,317.18691384293237L611.4562103190104,317.2368767664925L611.9971016601562,317.27934525151863L613.3559302734375,314.3495973099447L615.5150404622395,314.43261925191456L616.0706173828124,314.5468032872043L617.3751588541666,312.07055202489283L618.0039986653644,311.75396922115897L618.5371347005208,312.5752584533697L620.3003942708333,312.3574312238258L621.6085658854166,311.56166269409806L621.9328036783853,314.41810559767566L621.9948461263019,319.07046668110127L627.6494542317707,318.8378966789361L629.6023062825519,315.499904484788L634.0856981770833,314.40722650437743L636.1764956705729,316.26983483641317L636.6107928059895,317.46051345710504L641.0996299153644,316.33543643853926L641.6349110351562,316.5567363573738L642.0246564127602,317.8352259037677L642.3272783528645,322.06224971051023L644.025195345052,325.044604561626L644.7119524414062,328.1902215696898L644.8566631510415,330.1225344880825L647.6238223307291,329.36615431487013L647.7017054036457,331.68907732148574L648.8579060221354,332.180638800186L650.0212019205728,331.24638913400423L651.8080574218749,329.9725076869805L652.9726733723957,328.01740076470264L655.2893647786458,327.7512521884588L657.7563771158854,326.60910282172847L659.3566102539062,324.76596816769995L659.4216228190103,327.90976525023723L661.1734969401041,322.6003773857786L662.614168782552,321.6202438548349L664.4670268880208,318.95528419968656L666.0504293619791,321.92391464665667L666.8795870768229,322.96432744965813L667.5044667317707,325.5496783322094L667.7910830403646,326.56961119776264L668.3666257486979,324.90686182579054L671.2113379882812,325.76152485961427L671.7934809570312,326.662449976826L672.1870214843749,326.51231324953284L675.778553190104,326.5591585697952L676.2438715494791,325.81390016894136L676.5778447265625,326.3580459128309L677.6597924153644,323.1568774874447L678.4910952148437,323.27088432586646L684.3522914713542,324.24009783083267L689.4336669596353,323.53739084851543L690.6489399088541,324.59747452893043L692.4928876627604,326.1091610418986L692.9687664388019,325.03886380869073L695.1452023111979,325.8737265450794L695.8758511393229,322.745206024856L696.3117983398436,322.87734819805064L698.7571948242187,319.2823613529584L699.7464088541666,315.17985330386085L701.7283020507812,318.4531060775125L703.7365962890625,318.74929401203946L703.9725555989583,321.0945922179258L704.2797977213542,322.6955572313908L706.1168152018229,319.21506980052834L706.4794995117187,320.53096317660294L708.4143658528645,322.73985716165095L709.1854412760415,324.4865708950956L709.9456262695312,324.09581603006205L711.5917312174478,323.02221285632197L713.2896482096353,324.85741938941214L715.3279736328124,322.44834494253877L716.7321790364581,318.5687855088503L719.6890957031248,319.24015999021503L720.1027670247394,320.028905222452L721.0388489583331,321.5716463621612L722.272767643229,321.9670532539908L725.4224119140623,323.3935337274307L725.8857501953123,323.0358882837007L726.1322699218748,324.43288965653016L726.2160932291665,327.36495620805067L733.7590358398437,325.23398200761227L735.0599471679685,325.6470385526243L736.1286943359373,327.2193673851153L736.5633214843749,326.898462277348L737.5439551757811,326.8437698588227L738.2861544596352,323.83143514923006L739.3918630859373,323.40810449223017L740.0441338216144,324.13865804916486L741.2074297200519,321.6193208802517L743.6308803385415,322.2256535174447L745.2880407226561,323.787805489828L745.8200217122395,325.20286543558456L746.1325440429686,326.18758946640077L746.7267324869789,326.9373741233637L747.9865571940102,326.96407569716683L749.5435586263019,326.6378489579764L750.3918570963541,327.88709469120306L751.7947424479166,327.85856894906107L752.9606784505207,326.8747836067019L753.2547200520833,327.783181450312L754.7538041992185,325.63308884814984L756.0760013671875,325.4628947516965L759.4350388997395,326.32138361586516L759.8307245117186,326.2660222273315L760.2633715820311,327.352965047078L762.3173726236978,327.9715587515547L764.1642904947914,328.49736340036L764.5068440104166,328.4645281210752L764.7762996419268,329.26531044137545L765.7755790690104,328.8119754136307L766.1608692708332,328.47025602466306L766.8444912434895,329.3137945440405L767.4670608072914,330.11803305474206L768.6560977213541,330.01655886576157L768.8933770833331,330.80261349743574L769.3842714518227,330.6420676266666L771.3384435546874,329.9386036365127L772.1572058593748,329.5587361679589L774.6496291992186,329.19223343507275L775.0484499348958,328.8370907275042L775.5159133789061,327.8373732722247L775.9056587565103,327.51099805062177L776.2158709960936,327.9750406507208L777.1252218749997,328.15139993772806L777.7501015299478,328.03961302399193L778.518866861979,330.56151722423925L778.6639075846352,332.09452040983416L779.1320310546873,333.6156500406667L779.476399641927,334.4288409961052L779.8493143554687,334.5094379236125L779.9427080403643,335.8864068504552L780.0809834960936,336.66429197673307L780.6231948893227,337.15103279560776L781.9640377929687,335.6893009531897L782.3082413736978,334.31598273328814L782.6699356445312,333.1486622463718L783.9489011067707,333.37767060172376L784.0835464192706,334.57548154992674L784.3518470052082,336.33508239436077L784.4097642903644,337.7871277275144L784.5846711914061,338.7160585683872L784.6343381510416,339.8545728600522L784.6778998697915,340.8659253925828L784.7950544921874,341.5947288913877L784.844391438802,342.30144263460267L784.9709514322915,342.9021493163353L785.1412381510415,343.32551922657734L785.6679389322915,340.7195374964369L785.8319554036457,340.64160687197136L787.8445398111978,340.7062119950218L788.3200885742185,337.8825109649993L788.7180842773437,336.04936508948015L789.1444611002603,337.28257571067354L789.7858414062499,335.88834320022636L790.3783797851562,333.874553258654L791.9515518554687,334.3436010390866L795.3015140299478,334.0880608832236L796.334784798177,331.6028517507401L796.8840914713539,332.2818086035137L797.8102730143228,329.54415269760204L797.9163722005208,331.5786836391156L798.3483592447915,333.56972724709436L798.608739518229,334.7387296984918L798.7290292643228,335.9068433206411L798.8019621419269,337.20504759177567L798.9283571289062,338.6138289145478L798.9902345703123,339.7240622696733L799.4633082356769,338.4869913907608L800.1253143554686,334.4260196052236L800.7650445963541,334.8995782029016L801.4405812499999,335.432949164774L802.5938117513018,335.362929866981L803.9301994791665,336.96079807924156L803.9820115234374,338.27537067504767L804.9439994791666,336.38329584302124L805.1245166015624,336.47603223579887L805.3385300455728,337.8633197081213L805.8180389648436,337.3851294442108L806.1173607747394,336.49889848911766L806.63630625,337.0976791003654L806.9216025065102,336.3854118506952L807.303592578125,336.172523150014L807.6105046874999,335.51179852366573L807.9900196614582,334.1214902835774L808.5858581705728,331.3695744333485L808.9929292317707,332.8249844221924L809.4344866536456,334.0620829127096L809.7818253580728,333.3253858604186L810.8551927083332,333.96403951981733L810.9599718424477,335.33558743799864L811.1675500325518,336.45778778383726L812.0556150716144,335.1000426931848L812.6151521484375,333.4661901353609L813.1466381184894,334.3454154612106L815.1524572591144,332.3449877574136L816.8284283854166,331.6041626707247L817.8044418945312,331.2797690393467L819.5061540364583,331.57103445267546L820.1709652669269,330.2048408232357L820.6451939778643,330.9190377766734L822.9115583984374,330.78464364863396L823.112206315104,331.8044086398004L823.5417182617188,333.32543965152263L824.0583536458331,335.2289313961019L824.925132845052,334.4044378405328L825.1746226888018,334.488695241376L825.4369830403643,334.4294678782465L828.6651704101562,334.6408169272787L829.0836269205727,333.2066943881869L829.2935152018227,333.7323056145743L829.8019002604165,331.69299823392663L830.9759215820311,330.04681772960686L832.2029099934894,324.98387199324276L834.2034489257811,322.8611373481025L836.358103938802,323.3248128997333L837.2488090820311,322.49770634938864L838.0433154296874,319.65751193544185L838.4358659179686,320.60173129897174L839.2800392252602,317.39170237335674L843.0545631510415,319.06833163273785L845.9628028971352,321.40938958013487L847.6922361328125,322.61421191234547L851.0525937174477,322.85323397164746L851.3179241861977,324.36486426051573L852.8353240559895,322.81475000605377L854.9000505208332,321.497152889761L856.372733626302,318.6761953409123L858.2668433593748,320.46545834746775L860.137687174479,319.1077165184245L861.5745638671874,320.3960975021993L862.1423512695311,319.6157597999463L862.4908450195311,320.9151650607236L863.2112634440102,321.5398903016151L866.5925768554686,323.07406060252663L867.7139611002602,323.11325920445535L868.1880248046875,324.3241934007101L869.2920833658853,320.8174874675267L871.4462433593749,321.9802489627823L872.8464886067707,324.01536546451877L877.9842963216145,321.5145221833025L878.4718905598958,321.2206515481148L879.1598027018227,319.1390153543591L883.443206705729,313.7059322819745L885.2859994140623,312.79511936275526L886.4006183919269,314.41977453526505L890.0452821940102,313.0093468165137L891.5730774739582,308.32125248634435L894.8322860677082,306.77883384416197L895.884862597656,304.11570107523L897.0484885091146,300.8488843754839L898.513581315104,295.67324402685364L899.6897477213539,300.4767958843641L901.3327175455728,302.50989188632485L904.9311795247394,302.88594656491455L907.1152056966145,302.59497765710046L907.9448584309894,302.1731925469969L909.4714986653644,300.33175212648587L910.3610487630208,302.6482969998207L914.7294311197915,306.056667834463L917.6719922200518,304.1560907362166L920.4790829752602,298.3099078950149L922.9441152343747,298.8798063261473L924.8129789713539,299.0589123003021L925.7451007486976,298.4260754552568L928.5485613606769,296.40524106004517L930.9185498697915,300.57560874719223L931.7485326171875,304.1204212812673L934.5318624348956,301.63797347369257L935.904551595052,300.7927389911002L939.7714791666665,301.46998198858904L940.7516178385415,300.1265616133776L942.2480618815102,294.7103466021402L957.2591991536458,296.0382561502807L958.966521516927,288.7492100354309L962.4809951822915,281.7684439147316L963.3113079427081,284.6887157890604L963.8602846028645,289.3953314976244L964.754784895833,290.12480100374995L967.7097214843749,295.36808085318745L969.140162923177,290.7964841098247L973.5101953450519,269.4208576471972L978.2564426106768,255.8311905385791L980.6435917968748,257.8879734962538L983.3564638346353,264.2158543948927L988.3432905924476,237.53724546642798L1007.4741454101561,224.6302740310792L1009.012996126302,229.92788677257116L1016.1962245442706,233.4277037566855L1020.9183808593748,239.9353943470288L1024.4371446940102,245.3797005795899L1026.2576615234375,254.71782241572836L1029.54558125,249.78868751490756L1034.3863772460936,222.0466151569022L1038.8905599609375,232.48585365259765L1052.8110041992186,227.70759098932336L1055.078358658854,226.30660618707867L1066.5745272460936,208.6291537205554L1081.3196740234373,188.28224220093358L1084.9324915690102,191.2685212554089L1089.7975435221354,189.88147383632835L1094.2870406575519,175.0072527608791L1109.3696257486977,157.47924176982414L1113.4523818359373,183.3172016581967L1114.65742438151,204.27631371715955L1119.6802225585936,182.3579435826625L1121.5786224609374,190.55079050680152L1123.509858658854,196.86047962308902L1135.4327340820312,176.0544846027026L1150.327211751302,175.24854268152797L1160.191630957031,157.68433820237567L1167.564286848958,179.4353028566347L1168.860412988281,193.47485358198568L1170.2760038411457,207.02224092930317L1175.3280081705727,184.82282786683078L1187.1419792968748,191.68640368680616L1198.3521916015625,171.65652005686215L1202.2663110351561,163.5286574329482L1208.3202348958332,150.2521280487752L1215.5509851888019,136.43738576453586L1225.6754546549478,124.6948548229324L1230.6012290039062,114.71370352256946L1245.5018119140625,106.22972491726101L1250.433196484375,99.01834310274877L1260.3104861979166,92.8886685604134L1270.0356399088541,87.67844519942831L1274.3934618489582,83.24975534259097L1279.5197191080726,79.48536896427925L1297.7304976236978,105.33348669656043L1301.0273277018227,120.15146369207639L1302.368665625,151.63220567672644L1302.4359882812496,180.70245174829444L1303.2867618489581,204.62708398605025L1304.2037030273436,224.74494446506577L1305.425576236979,242.01958741069055L1305.785620442708,257.61895699139467L1305.946831803385,270.9220365196086L1306.1464896809894,282.22965411859036L1306.2756897786458,291.8847444623403L1306.3591830729165,300.0915712545277L1306.5824368815104,306.9801432586562L1306.794635253906,312.87904484678086L1306.9735023111978,317.89311119668685L1307.14857421875,322.1986829787223L1307.2754642252603,325.8584189934524L1307.6513490559896,328.9255792213576L1307.8975387695311,331.5326654150771L1308.2846440429687,333.7923040643539L1308.325565657552,335.7129969162393L1308.3696223958332,337.3019704557265L1308.4958523763019,338.65259796429063L1308.533143847656,339.80063134657007L1308.7415470703127,340.77645972150765L1308.8153049804685,341.6931446094353L1308.9879017903645,342.3850959949431L1309.0253582682292,342.9732546726247L1309.068919986979,343.5168049332695L1309.114791796875,343.9352072702021L1309.1530733072916,344.3344646412103L1309.1898697591146,344.7174487911826L1309.228481282552,345.042985318659L1309.5687247070312,345.23246059778324L1309.6921495768227,345.4371299696542L1309.9355341796875,345.56748355112916L1310.576089453125,345.6346687107675L1310.6308716145832,345.69177609646005L1310.6698131510414,345.78393275891415L1315.115253548177,337.18280438353855L1323.1500805664061,330.2207683413924L1327.8065642903643,319.02557616710664L1329.4303933593749,317.70935512665596L1330.3986515625,312.5779518576576L1332.106303938802,300.88887446362435L1332.3265876302082,306.0440817556191L1335.6968456054688,305.84639256919934L1338.6931988281249,309.3856644530502L1338.9578692708333,312.78658401586193L1339.3393643229165,317.72728872117494L1339.7043587239582,321.1418107976141L1339.7637610677084,324.7856161010489L1340.0635778971352,327.88285060896845L1340.9301920898436,330.60273070993094L1341.4616780598958,332.91462879574897L1341.7751904296872,332.5681267840789L1341.9144559244792,334.58521545877477L1342.0228652018227,336.29974083226625L1342.5035291666668,336.57947201511865L1343.0020138346351,336.8172435205431L1343.706756640625,338.153349300154L1345.7376567708332,337.76250075128473L1346.0099175130206,336.6452025616689L1346.5047720377604,338.0943452543417L1346.7941934570313,339.3697319277289L1346.876036686198,340.453810600108L1347.0308127929686,340.06681593316875L1347.7104746093748,339.4325627739627L1348.340139453125,335.31698605017596L1348.38172109375,337.00897660418804L1348.6021697916665,338.44716857509826L1349.0658380859375,339.62601636575664L1349.4897398111978,338.53449852627773L1349.7176138020832,339.6566314396438L1349.85489921875,340.6976751852357L1349.895325813802,341.58256236898876L1350.0634674479165,340.982639552102L1350.347113639323,341.78116669620977L1350.961762890625,342.45991476870137L1352.0918924804687,335.49138909185774L1352.1375992838541,337.1136038050021L1353.3749831054686,325.9748709265595L1353.8010299153646,329.02456336449865L1353.8813880859375,331.26787885982384L1354.183019986979,333.52362010777335L1354.2196514322918,335.4410001685304L1354.3912582031248,337.02715783555857L1354.5277185872396,338.37539185253246L1354.5689702148436,339.60862153619104L1354.739421940104,340.5696359980701L1355.0545843749999,341.38649829066725L1355.0983111002602,342.16806200860566L1355.3261850911458,342.83239116885323L1355.849750748698,343.3970709550637L1356.0517187174478,343.87704877334266L1356.1342219726562,344.28502991887973L1356.1723384765623,344.5881985079708L1356.2995584960936,344.8458918086983L1356.3335498372394,345.108546498932L1356.6893038736978,345.33180298563065L1356.9676698567707,345.43434023009377L1357.1391116210934,345.60872765711815L1357.1805282552082,345.71334158547353L1357.3539500976563,345.8022634245756L1357.4344732747395,345.8778469878123L1357.5199466471354,345.94209301656355L1357.5636733723957,346.04031752561747" style="fill: none;" fill="none"></path></g></g></g></g><g opacity="0.2"><g><g><g><path stroke="rgb(187, 187, 187)" stroke-width="2px" d="M118.8046875,344.27076923076925L118.8809205078125,344.8523076923077L119.40580621744792,343.10769230769233L119.81766246744792,333.22153846153844L119.93300201822915,343.10769230769233L120.23298385416663,342.5261538461539L120.39749534505206,344.27076923076925L120.87386914062499,346.0153846153846L121.79345042317706,346.0153846153846L122.01802428385416,346.0153846153846L122.20530667317708,343.10769230769233L122.3244413736979,346.0153846153846L122.40314947916666,344.8523076923077L122.54951025390625,345.14307692307693L123.06845572916666,344.5615384615385L123.15310406901041,344.5615384615385L123.2669585611979,343.10769230769233L123.35078186848958,344.8523076923077L123.40853414713541,346.0153846153846L124.07499544270833,345.7246153846154L124.2706931640625,346.30615384615385L124.5500491861979,344.5615384615385L124.64756803385416,343.98L124.70383525390623,346.30615384615385L124.77346800130206,345.7246153846154L125.22047063802083,345.14307692307693L125.9400640299479,344.27076923076925L126.02124723307293,344.8523076923077L126.43260846354165,346.5969230769231L127.39591647135416,339.90923076923076L127.59095416666666,343.3984615384615L127.64755139973956,346.0153846153846L128.06584290364583,346.8876923076923L128.24999016927083,346.5969230769231L128.37077493489582,345.14307692307693L128.83048307291665,346.30615384615385L129.11577932942708,343.3984615384615L129.16396123046874,346.30615384615385L129.74445413411456,345.43384615384616L129.86309381510415,346.0153846153846L129.92414622395833,345.7246153846154L129.98585865885414,345.7246153846154L130.5475408203125,346.0153846153846L130.87474873046872,343.3984615384615L131.05510084635415,343.6892307692308L131.18149583333332,341.94461538461536L131.70374143880207,345.43384615384616L132.04711998697917,345.14307692307693L132.09348681640626,346.5969230769231L132.26261848958333,346.30615384615385L132.91241412760414,339.3276923076923L132.99821751302082,343.98L133.1097619140625,345.14307692307693L133.36288190104165,346.5969230769231L133.49587714843747,344.8523076923077L133.63877278645833,341.0723076923077L133.819619921875,341.36307692307696L134.35143590494792,337.29230769230765L134.49565159505207,340.4907692307692L135.04594830729167,345.7246153846154L135.73204537760415,346.0153846153846L135.81207353515623,344.5615384615385L135.878901171875,345.43384615384616L136.40411689453123,332.9307692307692L137.7017280924479,345.14307692307693L137.75156005859372,346.30615384615385L138.00781516927083,345.14307692307693L138.3142322591146,346.30615384615385L138.66256100260418,341.65384615384613L138.81172688802081,339.90923076923076L138.8957152018229,344.5615384615385L139.06732197265623,345.7246153846154L140.60551266276042,346.30615384615385L141.4135495442708,346.30615384615385L141.79603463541665,345.14307692307693L141.9440454752604,344.27076923076925L142.01103811848955,345.7246153846154L142.18677005208332,346.30615384615385L142.42107929687498,346.30615384615385L142.71000569661456,345.7246153846154L142.81544485677082,346.30615384615385L143.46408544921874,345.14307692307693L145.40703710937498,337.29230769230765L145.96393408203122,345.43384615384616L146.01244599609373,346.30615384615385L146.23371972656247,346.30615384615385L146.3734802408854,340.4907692307692L146.91074143880206,341.65384615384613L147.21105328776042,331.7676923076923L147.5267107421875,334.38461538461536L147.9428571614583,346.30615384615385L148.59331282552083,345.43384615384616L148.64000966796874,346.5969230769231L148.81673164062497,339.61846153846153L149.42709072265623,346.0153846153846L149.52510458984375,343.3984615384615L149.71849222005207,337.58307692307693L150.02738440755206,346.0153846153846L151.3810978190104,339.90923076923076L151.73817190755207,339.3276923076923L152.67144873046874,339.90923076923076L153.64581217447915,339.90923076923076L153.82500924479163,338.74615384615385L154.81339824218747,339.0369230769231L155.30858277994793,345.7246153846154L155.6965130859375,346.5969230769231L156.1836123046875,345.43384615384616L156.53969635416664,336.71076923076924L157.20797272135414,339.61846153846153L157.35746861979166,340.4907692307692L157.50795455729164,340.4907692307692L157.8193218424479,338.4553846153846L158.91694514973958,345.7246153846154L159.71128649088539,337.58307692307693L159.8898235351562,339.3276923076923L160.08370618489582,337.58307692307693L162.29677350260414,337.87384615384616L163.7991577799479,332.9307692307692L164.72731940104165,346.30615384615385L164.93192747395832,337.58307692307693L165.38883050130207,339.90923076923076L165.6931025065104,338.4553846153846L166.36880416666662,336.1292307692308L167.3738588216146,338.1646153846154L167.5923274414062,346.30615384615385L167.6335790690104,346.8876923076923L168.26241888020832,330.6046153846154L169.15196897786456,341.65384615384613L170.1958001627604,340.4907692307692L170.24777721354167,346.0153846153846L170.6574883789062,346.0153846153846L170.84081061197915,337.87384615384616L171.80708873697915,343.10769230769233L171.93331871744792,342.2353846153846L173.5116059895833,341.36307692307696L174.10117425130204,335.8384615384615L174.280536328125,338.74615384615385L174.4465328776041,346.5969230769231L174.85723408203123,336.42L177.14900950520834,337.87384615384616L177.66019967447914,346.8876923076923L178.09631188151042,340.4907692307692L178.476321875,342.8169230769231L178.9975774414062,325.9523076923077L179.9793661783854,337.58307692307693L180.18578932291666,337.0015384615385L181.36195572916665,337.58307692307693L181.81456858723956,337.29230769230765L181.87545598958332,346.0153846153846L182.10432001953123,346.0153846153846L182.15118186848957,346.30615384615385L182.68118277994787,332.64L182.9437081380208,341.36307692307696L183.87632493489582,335.8384615384615L184.19561253255208,330.8953846153846L185.30297122395834,334.9661538461539L185.78759534505204,339.90923076923076L186.1831159505208,341.0723076923077L186.32716663411455,341.0723076923077L186.52434941406247,337.87384615384616L187.27380898437497,337.29230769230765L188.02013343098957,334.9661538461539L188.3186302083333,331.7676923076923L188.89549296874998,335.5476923076923L189.19910494791665,342.8169230769231L189.61525136718748,336.42L189.66211321614583,346.5969230769231L189.9182033203125,334.38461538461536L190.14393222656247,335.8384615384615L190.5729491536458,342.5261538461539L190.72921031901043,339.61846153846153L191.2846222330729,346.30615384615385L191.44236845703122,340.2L191.9223723958333,346.0153846153846L192.3155829101562,337.58307692307693L192.64460589192706,340.2L193.73480390624997,345.7246153846154L194.1341196614583,333.22153846153844L195.075316796875,334.09384615384613L195.72197731119792,339.3276923076923L195.9094247070312,338.4553846153846L196.25659840494794,339.61846153846153L198.81947952473956,336.71076923076924L200.24810589192705,338.1646153846154L200.51789153645834,334.09384615384613L200.90516181640623,335.5476923076923L200.96819430338542,345.7246153846154L201.09475429687498,341.36307692307696L201.2879769205729,337.87384615384616L201.56056767578121,340.2L202.07588300781248,338.1646153846154L202.91114596354166,346.5969230769231L203.2637648763021,328.86L204.02526992187498,331.4769230769231L204.63727906901036,338.1646153846154L205.60883740234374,334.09384615384613L206.24988769531248,341.0723076923077L206.44459537760417,338.1646153846154L206.7551376302083,339.0369230769231L206.99621214192706,334.9661538461539L207.28711861979164,340.2L207.5382585286458,334.67538461538464L207.70805022786456,339.61846153846153L208.3845769205729,339.90923076923076L208.61525602213538,336.1292307692308L208.9406488606771,330.31384615384616L209.4734548828125,324.20769230769235L210.02969182942707,340.4907692307692L210.2001435546875,339.90923076923076L211.66787646484374,337.0015384615385L212.40826067708332,336.71076923076924L213.28840540364584,337.87384615384616L213.7568588867187,341.0723076923077L214.08291175130208,341.94461538461536L214.42431022135412,340.4907692307692L215.12459785156247,334.09384615384613L215.67258447265624,344.8523076923077L216.45752044270833,329.44153846153847L216.61312158203123,340.2L217.04543863932292,323.3353846153846L217.1919644205729,340.78153846153845L218.5979848958333,334.67538461538464L219.83619374999998,328.5692307692308L220.18353245442708,340.4907692307692L220.41272649739582,336.1292307692308L221.4324667317708,326.5338461538461L222.01328964843748,339.3276923076923L222.3103013671875,332.05846153846153L222.76439928385412,341.0723076923077L223.03897011718743,334.09384615384613L223.2925851236979,332.9307692307692L223.47788743489585,342.2353846153846L223.7381027018229,338.4553846153846L224.66279918619787,341.65384615384613L225.1992353515625,339.3276923076923L225.42496425781243,335.2569230769231L225.96255546874997,342.2353846153846L226.2666624674479,331.18615384615384L226.46005009765625,337.29230769230765L226.92734853515623,337.0015384615385L227.10539055989577,339.61846153846153L228.39112128906248,340.4907692307692L229.13728072916663,342.2353846153846L229.33924869791664,337.58307692307693L230.18705214843746,310.25076923076927L230.59758834635417,335.8384615384615L231.12742425130207,334.38461538461536L231.33120729166663,337.29230769230765L231.46024238281248,341.94461538461536L232.1466694661458,308.50615384615384L232.43444082031246,333.22153846153844L232.99034775390624,339.0369230769231L233.26227848307292,341.94461538461536L233.68964534505204,345.43384615384616L234.17954967447912,341.36307692307696L234.5130278320312,338.4553846153846L234.74007679036455,335.5476923076923L235.1166216471354,327.11538461538464L236.09709033203123,339.0369230769231L236.3315645833333,335.2569230769231L236.59689505208328,342.5261538461539L237.28035201822914,334.67538461538464L238.07139322916663,337.0015384615385L238.67003684895832,332.9307692307692L239.53945615234372,330.6046153846154L239.82640247395832,332.9307692307692L240.27373512369786,337.87384615384616L240.79317561848958,325.6615384615385L241.84872226562499,330.31384615384616L243.12224251302078,337.87384615384616L244.16953883463538,329.7323076923077L244.9755956380208,334.67538461538464L247.9732689127604,337.87384615384616L249.6144236653645,335.2569230769231L250.1574600911458,328.2784615384615L250.49110325520826,329.7323076923077L251.3116806315104,342.5261538461539L251.79976988932287,337.87384615384616L252.02533378906247,335.8384615384615L252.77248326822917,336.42L253.15298828124997,342.8169230769231L253.56880468749995,332.34923076923076L254.21777529296872,337.87384615384616L254.56676406249997,338.4553846153846L254.7372157877604,338.74615384615385L255.13389143880204,335.2569230769231L255.86767539062495,340.4907692307692L256.80194225260414,333.8030769230769L257.9789336914062,345.7246153846154L258.13189472656245,340.2L258.30102639973956,339.3276923076923L258.477418359375,337.87384615384616L259.0917375976562,334.9661538461539L259.73773808593745,334.67538461538464L259.86330804036453,342.2353846153846L260.04234010416667,339.0369230769231L260.60088714192705,335.8384615384615L260.76341855468746,339.90923076923076L260.9883224283854,335.5476923076923L261.14870875651036,339.0369230769231L263.31854436848954,341.94461538461536L263.59460026041666,333.22153846153844L264.4950407877604,332.34923076923076L265.8779603515625,339.90923076923076L266.44838785807286,335.5476923076923L268.8522027018229,327.98769230769227L269.04130016276036,338.4553846153846L269.6544643554687,333.51230769230773L270.0065882486978,328.2784615384615L270.3212556640625,331.18615384615384L271.2040404947916,320.71846153846155L271.5858655598958,325.9523076923077L271.99673177083326,334.38461538461536L272.38004189453125,341.36307692307696L273.4925157877604,337.87384615384616L273.8680706054687,326.5338461538461L275.114034765625,339.3276923076923L275.3650096679687,334.67538461538464L275.52902613932287,340.2L275.7560750976562,336.71076923076924L276.7896758789062,330.6046153846154L277.0903177408854,332.05846153846153L277.2990509765625,337.29230769230765L278.0087439778645,336.71076923076924L278.24569332682285,336.1292307692308L279.82398059895826,337.0015384615385L280.4911019205729,344.5615384615385L281.31959960937496,320.13692307692304L281.7232055338541,336.71076923076924L281.9038876627604,338.4553846153846L282.50847151692705,336.1292307692308L283.44207835286454,326.5338461538461L283.6052697916667,339.3276923076923L283.76268600260414,339.0369230769231L283.9844547526041,336.1292307692308L284.9733387695312,335.8384615384615L287.08311201171875,332.64L287.96408177083333,301.8184615384615L288.54589472656244,330.0230769230769L288.96039108072915,338.1646153846154L289.1811697916666,336.71076923076924L290.0045522786458,332.05846153846153L290.11675670572913,346.0153846153846L290.5462686523437,334.09384615384613L291.51601191406246,334.09384615384613L294.24241448567705,326.5338461538461L294.54107626953123,332.64L294.8496384440104,346.0153846153846L295.3438329427083,333.8030769230769L297.7187716471354,334.38461538461536L297.78114410807285,345.7246153846154L298.09779160156245,334.09384615384613L298.5563446940104,337.58307692307693L299.5173426106771,330.8953846153846L300.73113050130206,335.2569230769231L301.36673557942703,330.6046153846154L302.71038359374995,336.42L302.89469586588535,338.74615384615385L303.0644875651041,339.90923076923076L304.9156956054687,343.98L305.2927354817708,328.2784615384615L307.81287991536453,328.2784615384615L309.2494265950521,328.5692307692308L309.4896760742188,335.2569230769231L309.8812365234375,326.5338461538461L312.99292929687493,312.8676923076923L313.59602809244785,329.44153846153847L315.1286085611979,318.1015384615385L316.9106788736978,333.51230769230773L317.1568685872395,333.51230769230773L318.30663395182285,333.8030769230769L319.81578349609373,308.50615384615384L320.45452369791667,312.8676923076923L320.9698390299479,318.6830769230769L325.35026686197915,319.2646153846154L326.2518624348958,329.7323076923077L327.22061565755206,332.64L327.45607994791663,334.9661538461539L327.67025839843745,337.0015384615385L328.2753372721354,337.58307692307693L328.55881845703124,332.9307692307692L329.09789472656246,317.8107692307692L334.6183525390624,316.6476923076923L335.6639987955729,334.09384615384613L336.1842643229166,339.0369230769231L336.43969440104166,334.67538461538464L337.25961175130203,315.7753846153846L337.4411189127604,339.0369230769231L337.7717919596354,335.8384615384615L338.98987001953117,325.3707692307692L339.1383758789062,340.78153846153845L339.661446516927,333.22153846153844L340.19491256510406,327.6969230769231L341.6189187499999,323.62615384615384L341.9434865559896,334.38461538461536L343.1429188802083,325.08L343.9689414713541,324.78923076923076L344.7182360351562,323.62615384615384L345.47495589192704,321.3L345.7774128255208,345.7246153846154L346.30081347656244,332.9307692307692L350.18209661458326,319.55538461538464L351.96713704427077,333.8030769230769L353.40434374999995,322.4630769230769L353.6609288736979,334.67538461538464L353.9175139973958,334.9661538461539L354.60245602213536,334.09384615384613L355.57483938802073,322.1723076923077L356.49013050130196,324.78923076923076L357.6776823567708,330.8953846153846L359.7341584960937,317.52L362.06322539062495,333.22153846153844L363.0877508138021,313.15846153846155L364.2026998046875,336.1292307692308L364.6346868489582,324.4984615384615L365.809533203125,330.6046153846154L366.66261686197913,300.07384615384615L367.3444237630208,310.25076923076927L369.0783121744792,316.35692307692307L371.82996074218744,331.18615384615384L373.79139313151035,320.4276923076923L374.39119179687503,337.0015384615385L377.9180409505208,314.32153846153847L379.51876910807283,321.0092307692308L380.51705849609374,288.44307692307694L381.0249485351562,320.4276923076923L381.31849511718747,331.4769230769231L384.48100989583327,305.59846153846155L385.7005730143228,317.8107692307692L388.2297928059895,327.6969230769231L389.10614238281244,330.0230769230769L390.59862626953117,317.22923076923075L390.97517112630203,326.82461538461536L392.39983733723955,316.35692307692307L393.1035901041666,306.18L395.9829537109374,324.20769230769235L396.0923530273437,343.10769230769233L396.7436337239583,311.4138461538462L397.8079257161458,332.34923076923076L399.29859453125,328.2784615384615L399.49264218749994,337.87384615384616L399.79278902994787,332.34923076923076L400.0490441406249,334.38461538461536L400.4792161132812,323.3353846153846L402.73370006510413,323.62615384615384L405.2442741210937,344.8523076923077L408.40513883463535,308.79692307692306L409.9142883789062,327.6969230769231L410.7911329752603,323.62615384615384L414.19521728515616,320.4276923076923L415.7781247395833,331.18615384615384L419.20431992187497,310.83230769230767L420.32850927734376,325.9523076923077L421.6124249348958,311.4138461538462L422.8133423177083,314.9030769230769L423.3547286783853,317.52L424.7592640950521,327.6969230769231L425.2610488932291,319.2646153846154L426.0067133138021,328.86L426.8484115234374,299.7830769230769L428.210540266927,316.06615384615384L439.61546025390624,336.1292307692308L440.2913269205728,309.3784615384615L440.71918880208324,324.4984615384615L441.5506566080729,300.07384615384615L443.30764593098945,339.90923076923076L444.8511168294271,328.86L446.7486916992186,322.1723076923077L447.11385110677077,328.5692307692308L447.4270334635416,331.18615384615384L449.44044290364576,335.8384615384615L449.8079124023436,328.5692307692308L450.1432056315104,330.0230769230769L450.8124720377604,337.58307692307693L451.99886884765624,312.8676923076923L452.84898238932277,308.50615384615384L454.01194827473955,323.62615384615384L457.68548821614576,330.0230769230769L460.8315023437499,290.1876923076923L461.1062381835937,333.51230769230773L466.0594036132812,331.4769230769231L466.2645067057291,337.58307692307693L471.47656735026027,303.27230769230766L474.43100891927077,317.52L476.0436175455728,315.7753846153846L476.6607418945312,310.83230769230767L478.9893137695312,313.4492307692308L479.6879513346353,311.99538461538464L480.3758634765625,309.0876923076923L484.72774518229164,321.88153846153847L485.36450530598944,312.8676923076923L485.92750751953116,314.9030769230769L486.48291943359374,318.39230769230767L488.5199248046874,303.5630769230769L489.5264645182291,330.6046153846154L489.98683268229155,322.75384615384615L490.6412485026041,311.7046153846154L495.3886508138021,319.55538461538464L497.96473245442706,336.71076923076924L498.3623981445312,325.6615384615385L499.7930045898437,346.0153846153846L504.11072994791664,299.7830769230769L505.3357382812499,316.6476923076923L511.88468167317694,276.2307692307693L514.0315813802082,329.7323076923077L515.2801856445312,276.8123076923077L516.2936556315103,332.34923076923076L517.1304036458332,301.23692307692306L520.3278998046874,320.13692307692304L520.662368001302,327.6969230769231L523.6948576497396,319.84615384615387L524.2309638020834,319.2646153846154L528.5980261067708,328.2784615384615L530.0591587565104,332.05846153846153L531.0223017578124,311.1230769230769L532.8509039062499,312.2861538461538L535.9993931315103,329.15076923076924L536.7236067057291,326.82461538461536L538.2670776041666,317.8107692307692L538.9975614257812,326.82461538461536L539.5141968098957,317.8107692307692L541.9444126953124,294.84000000000003L543.3789792968748,327.11538461538464L546.6624438476562,312.8676923076923L547.3822022460937,329.44153846153847L549.1792881510415,334.38461538461536L549.8749555989583,333.22153846153844L550.3841656901042,318.6830769230769L550.8876005533854,320.4276923076923L551.6995975911458,333.8030769230769L552.5424508463541,324.4984615384615L554.979927018229,325.08L556.8923524739582,313.4492307692308L558.0335375,327.11538461538464L560.008500423177,315.4846153846154L561.6587305338542,326.82461538461536L563.6190078776041,323.3353846153846L564.360712141927,343.3984615384615L567.3311593424478,308.50615384615384L567.8702356119791,318.1015384615385L568.1938133789062,330.0230769230769L572.3506573893228,296.00307692307695L573.669059407552,311.4138461538462L574.7386316080728,326.5338461538461L576.8079782552082,313.74L577.1196755533853,331.4769230769231L579.6427901041666,331.4769230769231L579.8902998697916,334.9661538461539L581.6819405598957,313.15846153846155L584.6876991536458,304.72615384615386L586.335619173177,324.4984615384615L586.7235494791666,325.9523076923077L587.4045313476562,310.25076923076927L588.3820299153646,293.3861538461539L589.7991058268228,308.79692307692306L591.531344173177,309.96000000000004L596.0147360677082,309.0876923076923L596.5790583333333,316.6476923076923L600.7246819010415,289.60615384615386L602.249507063802,291.35076923076923L602.6083962239584,327.98769230769227L603.2720524088542,310.83230769230767L607.8836543619791,334.67538461538464L610.3323509765625,335.2569230769231L610.9082236979165,316.6476923076923L611.4562103190104,317.52L611.9971016601562,317.52L613.3559302734375,297.7476923076923L615.5150404622395,314.9030769230769L616.0706173828124,315.19384615384615L617.3751588541666,298.03846153846155L618.0039986653644,309.96000000000004L618.5371347005208,317.22923076923075L620.3003942708333,311.1230769230769L621.6085658854166,307.0523076923077L621.9328036783853,330.6046153846154L621.9948461263019,345.43384615384616L627.6494542317707,317.52L629.6023062825519,296.5846153846154L634.0856981770833,308.2153846153846L636.1764956705729,326.82461538461536L636.6107928059895,324.20769230769235L641.0996299153644,309.96000000000004L641.6349110351562,317.8107692307692L642.0246564127602,325.08L642.3272783528645,346.0153846153846L644.025195345052,341.94461538461536L644.7119524414062,346.0153846153846L644.8566631510415,341.0723076923077L647.6238223307291,325.08L647.7017054036457,344.8523076923077L648.8579060221354,334.9661538461539L650.0212019205728,325.9523076923077L651.8080574218749,322.75384615384615L652.9726733723957,316.9384615384615L655.2893647786458,326.2430769230769L657.7563771158854,320.13692307692304L659.3566102539062,314.32153846153847L659.4216228190103,345.7246153846154L661.1734969401041,292.51384615384615L662.614168782552,316.06615384615384L664.4670268880208,303.8538461538462L666.0504293619791,338.74615384615385L666.8795870768229,328.86L667.5044667317707,340.2L667.7910830403646,332.34923076923076L668.3666257486979,315.4846153846154L671.2113379882812,330.6046153846154L671.7934809570312,331.7676923076923L672.1870214843749,325.6615384615385L675.778553190104,326.82461538461536L676.2438715494791,321.59076923076924L676.5778447265625,329.44153846153847L677.6597924153644,305.01692307692304L678.4910952148437,323.91692307692307L684.3522914713542,329.7323076923077L689.4336669596353,319.55538461538464L690.6489399088541,330.6046153846154L692.4928876627604,334.67538461538464L692.9687664388019,318.9738461538462L695.1452023111979,330.6046153846154L695.8758511393229,305.01692307692304L696.3117983398436,323.62615384615384L698.7571948242187,298.91076923076923L699.7464088541666,291.9323076923077L701.7283020507812,337.0015384615385L703.7365962890625,320.4276923076923L703.9725555989583,334.38461538461536L704.2797977213542,331.7676923076923L706.1168152018229,299.4923076923077L706.4794995117187,327.98769230769227L708.4143658528645,335.2569230769231L709.1854412760415,334.38461538461536L709.9456262695312,321.88153846153847L711.5917312174478,316.9384615384615L713.2896482096353,335.2569230769231L715.3279736328124,308.79692307692306L716.7321790364581,296.5846153846154L719.6890957031248,323.0446153846154L720.1027670247394,324.4984615384615L721.0388489583331,330.31384615384616L722.272767643229,324.20769230769235L725.4224119140623,331.4769230769231L725.8857501953123,321.0092307692308L726.1322699218748,332.34923076923076L726.2160932291665,343.98L733.7590358398437,313.15846153846155L735.0599471679685,327.98769230769227L736.1286943359373,336.1292307692308L736.5633214843749,325.08L737.5439551757811,326.5338461538461L738.2861544596352,306.76153846153846L739.3918630859373,321.0092307692308L740.0441338216144,328.2784615384615L741.2074297200519,307.3430769230769L743.6308803385415,325.6615384615385L745.2880407226561,332.64L745.8200217122395,333.22153846153844L746.1325440429686,331.7676923076923L746.7267324869789,331.18615384615384L747.9865571940102,327.11538461538464L749.5435586263019,324.78923076923076L750.3918570963541,334.9661538461539L751.7947424479166,327.6969230769231L752.9606784505207,321.3L753.2547200520833,332.9307692307692L754.7538041992185,313.4492307692308L756.0760013671875,324.4984615384615L759.4350388997395,331.18615384615384L759.8307245117186,325.9523076923077L760.2633715820311,333.51230769230773L762.3173726236978,331.4769230769231L764.1642904947914,331.4769230769231L764.5068440104166,328.2784615384615L764.7762996419268,333.8030769230769L765.7755790690104,326.2430769230769L766.1608692708332,326.5338461538461L766.8444912434895,334.09384615384613L767.4670608072914,334.67538461538464L768.6560977213541,329.44153846153847L768.8933770833331,335.2569230769231L769.3842714518227,329.7323076923077L771.3384435546874,325.9523076923077L772.1572058593748,327.40615384615387L774.6496291992186,327.11538461538464L775.0484499348958,326.82461538461536L775.5159133789061,322.1723076923077L775.9056587565103,325.6615384615385L776.2158709960936,330.6046153846154L777.1252218749997,329.15076923076924L777.7501015299478,327.40615384615387L778.518866861979,344.8523076923077L778.6639075846352,340.78153846153845L779.1320310546873,342.2353846153846L779.476399641927,339.0369230769231L779.8493143554687,334.9661538461539L779.9427080403643,343.6892307692308L780.0809834960936,341.0723076923077L780.6231948893227,339.90923076923076L781.9640377929687,327.40615384615387L782.3082413736978,326.5338461538461L782.6699356445312,326.5338461538461L783.9489011067707,334.67538461538464L784.0835464192706,341.36307692307696L784.3518470052082,346.30615384615385L784.4097642903644,346.0153846153846L784.5846711914061,343.98L784.6343381510416,346.30615384615385L784.6778998697915,346.5969230769231L784.7950544921874,345.7246153846154L784.844391438802,346.30615384615385L784.9709514322915,346.30615384615385L785.1412381510415,345.7246153846154L785.6679389322915,325.9523076923077L785.8319554036457,340.2L787.8445398111978,341.0723076923077L788.3200885742185,321.88153846153847L788.7180842773437,325.6615384615385L789.1444611002603,344.27076923076925L789.7858414062499,327.98769230769227L790.3783797851562,322.4630769230769L791.9515518554687,337.0015384615385L795.3015140299478,332.64L796.334784798177,317.52L796.8840914713539,336.1292307692308L797.8102730143228,314.0307692307692L797.9163722005208,343.10769230769233L798.3483592447915,344.8523076923077L798.608739518229,341.36307692307696L798.7290292643228,342.5261538461539L798.8019621419269,344.5615384615385L798.9283571289062,346.5969230769231L798.9902345703123,346.0153846153846L799.4633082356769,331.4769230769231L800.1253143554686,311.4138461538462L800.7650445963541,337.58307692307693L801.4405812499999,338.4553846153846L802.5938117513018,334.9661538461539L803.9301994791665,346.0153846153846L803.9820115234374,345.7246153846154L804.9439994791666,325.6615384615385L805.1245166015624,337.0015384615385L805.3385300455728,345.7246153846154L805.8180389648436,334.67538461538464L806.1173607747394,331.4769230769231L806.63630625,340.4907692307692L806.9216025065102,332.34923076923076L807.303592578125,334.9661538461539L807.6105046874999,331.7676923076923L807.9900196614582,326.2430769230769L808.5858581705728,315.7753846153846L808.9929292317707,341.0723076923077L809.4344866536456,341.0723076923077L809.7818253580728,329.15076923076924L810.8551927083332,337.58307692307693L810.9599718424477,343.10769230769233L811.1675500325518,342.8169230769231L812.0556150716144,327.40615384615387L812.6151521484375,324.20769230769235L813.1466381184894,339.3276923076923L815.1524572591144,321.0092307692308L816.8284283854166,327.40615384615387L817.8044418945312,329.44153846153847L819.5061540364583,333.22153846153844L820.1709652669269,322.4630769230769L820.6451939778643,334.9661538461539L822.9115583984374,330.0230769230769L823.112206315104,337.58307692307693L823.5417182617188,341.94461538461536L824.0583536458331,346.0153846153846L824.925132845052,329.7323076923077L825.1746226888018,334.9661538461539L825.4369830403643,334.09384615384613L828.6651704101562,335.8384615384615L829.0836269205727,325.08L829.2935152018227,336.71076923076924L829.8019002604165,320.13692307692304L830.9759215820311,320.71846153846155L832.2029099934894,296.2938461538462L834.2034489257811,310.83230769230767L836.358103938802,325.9523076923077L837.2488090820311,317.8107692307692L838.0433154296874,303.5630769230769L838.4358659179686,325.9523076923077L839.2800392252602,299.20153846153846L843.0545631510415,328.5692307692308L845.9628028971352,334.67538461538464L847.6922361328125,329.44153846153847L851.0525937174477,324.20769230769235L851.3179241861977,332.9307692307692L852.8353240559895,314.0307692307692L854.9000505208332,314.0307692307692L856.372733626302,302.69076923076926L858.2668433593748,330.6046153846154L860.137687174479,311.4138461538462L861.5745638671874,327.6969230769231L862.1423512695311,315.19384615384615L862.4908450195311,328.2784615384615L863.2112634440102,325.08L866.5925768554686,331.7676923076923L867.7139611002602,323.3353846153846L868.1880248046875,331.18615384615384L869.2920833658853,300.9461538461539L871.4462433593749,328.5692307692308L872.8464886067707,335.5476923076923L877.9842963216145,307.3430769230769L878.4718905598958,319.55538461538464L879.1598027018227,307.3430769230769L883.443206705729,282.91846153846154L885.2859994140623,307.63384615384615L886.4006183919269,323.62615384615384L890.0452821940102,305.01692307692304L891.5730774739582,281.75538461538457L894.8322860677082,298.03846153846155L895.884862597656,289.0246153846154L897.0484885091146,282.3369230769231L898.513581315104,266.3446153846154L899.6897477213539,327.6969230769231L901.3327175455728,314.0307692307692L904.9311795247394,305.01692307692304L907.1152056966145,300.9461538461539L907.9448584309894,299.7830769230769L909.4714986653644,289.8969230769231L910.3610487630208,315.7753846153846L914.7294311197915,325.3707692307692L917.6719922200518,293.3861538461539L920.4790829752602,265.1815384615385L922.9441152343747,302.10923076923075L924.8129789713539,300.07384615384615L925.7451007486976,294.84000000000003L928.5485613606769,284.95384615384614L930.9185498697915,324.20769230769235L931.7485326171875,324.20769230769235L934.5318624348956,287.5707692307692L935.904551595052,296.00307692307695L939.7714791666665,305.3076923076923L940.7516178385415,292.51384615384615L942.2480618815102,264.01846153846157L957.2591991536458,303.5630769230769L958.966521516927,247.4446153846154L962.4809951822915,242.21076923076922L963.3113079427081,301.23692307692306L963.8602846028645,316.06615384615384L964.754784895833,294.2584615384615L967.7097214843749,325.08L969.140162923177,264.89076923076925L973.5101953450519,148.2923076923077L978.2564426106768,178.8230769230769L980.6435917968748,269.5430769230769L983.3564638346353,300.07384615384615L988.3432905924476,86.35846153846155L1007.4741454101561,151.49076923076922L1009.012996126302,259.9476923076923L1016.1962245442706,253.25999999999996L1020.9183808593748,276.8123076923077L1024.4371446940102,276.2307692307693L1026.2576615234375,307.63384615384615L1029.54558125,221.85692307692307L1034.3863772460936,64.84153846153846L1038.8905599609375,291.64153846153846L1052.8110041992186,200.63076923076923L1055.078358658854,218.36769230769232L1066.5745272460936,108.45692307692309L1081.3196740234373,72.98307692307691L1084.9324915690102,208.19076923076923L1089.7975435221354,182.02153846153848L1094.2870406575519,90.72L1109.3696257486977,58.15384615384616L1113.4523818359373,329.7323076923077L1114.65742438151,323.0446153846154L1119.6802225585936,58.15384615384616L1121.5786224609374,236.97692307692307L1123.509858658854,232.61538461538464L1135.4327340820312,58.15384615384616L1150.327211751302,170.68153846153848L1160.191630957031,58.15384615384616L1167.564286848958,302.69076923076926L1168.860412988281,273.0323076923077L1170.2760038411457,283.79076923076923L1175.3280081705727,59.02615384615386L1187.1419792968748,230.57999999999998L1198.3521916015625,58.15384615384616L1202.2663110351561,117.47076923076924L1208.3202348958332,75.01846153846154L1215.5509851888019,58.15384615384616L1225.6754546549478,58.15384615384616L1230.6012290039062,58.15384615384616L1245.5018119140625,58.15384615384616L1250.433196484375,58.15384615384616L1260.3104861979166,58.15384615384616L1270.0356399088541,58.15384615384616L1274.3934618489582,58.15384615384616L1279.5197191080726,58.15384615384616L1297.7304976236978,251.80615384615382L1301.0273277018227,204.12L1302.368665625,330.0230769230769L1302.4359882812496,345.43384615384616L1303.2867618489581,340.2L1304.2037030273436,338.74615384615385L1305.425576236979,339.90923076923076L1305.785620442708,346.0153846153846L1305.946831803385,346.30615384615385L1306.1464896809894,346.30615384615385L1306.2756897786458,346.5969230769231L1306.3591830729165,346.5969230769231L1306.5824368815104,346.0153846153846L1306.794635253906,346.30615384615385L1306.9735023111978,346.30615384615385L1307.14857421875,346.5969230769231L1307.2754642252603,346.5969230769231L1307.6513490559896,346.30615384615385L1307.8975387695311,346.30615384615385L1308.2846440429687,346.5969230769231L1308.325565657552,346.5969230769231L1308.3696223958332,346.30615384615385L1308.4958523763019,346.30615384615385L1308.533143847656,346.30615384615385L1308.7415470703127,346.30615384615385L1308.8153049804685,346.8876923076923L1308.9879017903645,346.30615384615385L1309.0253582682292,346.30615384615385L1309.068919986979,346.5969230769231L1309.114791796875,346.30615384615385L1309.1530733072916,346.5969230769231L1309.1898697591146,346.8876923076923L1309.228481282552,346.8876923076923L1309.5687247070312,346.30615384615385L1309.6921495768227,346.5969230769231L1309.9355341796875,346.30615384615385L1310.576089453125,346.0153846153846L1310.6308716145832,346.0153846153846L1310.6698131510414,346.30615384615385L1315.115253548177,288.44307692307694L1323.1500805664061,290.7692307692307L1327.8065642903643,255.58615384615382L1329.4303933593749,310.25076923076927L1330.3986515625,283.5L1332.106303938802,234.6507692307692L1332.3265876302082,335.2569230769231L1335.6968456054688,304.72615384615386L1338.6931988281249,329.44153846153847L1338.9578692708333,332.05846153846153L1339.3393643229165,345.7246153846154L1339.7043587239582,340.4907692307692L1339.7637610677084,345.43384615384616L1340.0635778971352,345.43384615384616L1340.9301920898436,346.0153846153846L1341.4616780598958,346.0153846153846L1341.7751904296872,330.6046153846154L1341.9144559244792,346.0153846153846L1342.0228652018227,346.0153846153846L1342.5035291666668,338.1646153846154L1343.0020138346351,338.1646153846154L1343.706756640625,345.7246153846154L1345.7376567708332,335.5476923076923L1346.0099175130206,330.31384615384616L1346.5047720377604,346.30615384615385L1346.7941934570313,346.5969230769231L1346.876036686198,346.5969230769231L1347.0308127929686,337.87384615384616L1347.7104746093748,335.8384615384615L1348.340139453125,311.99538461538464L1348.38172109375,346.5969230769231L1348.6021697916665,346.5969230769231L1349.0658380859375,346.30615384615385L1349.4897398111978,332.34923076923076L1349.7176138020832,346.0153846153846L1349.85489921875,346.5969230769231L1349.895325813802,346.5969230769231L1350.0634674479165,337.58307692307693L1350.347113639323,346.30615384615385L1350.961762890625,346.30615384615385L1352.0918924804687,296.00307692307695L1352.1375992838541,346.30615384615385L1353.3749831054686,262.8553846153846L1353.8010299153646,346.30615384615385L1353.8813880859375,343.98L1354.183019986979,346.30615384615385L1354.2196514322918,346.30615384615385L1354.3912582031248,346.0153846153846L1354.5277185872396,346.0153846153846L1354.5689702148436,346.5969230769231L1354.739421940104,346.0153846153846L1355.0545843749999,346.0153846153846L1355.0983111002602,346.5969230769231L1355.3261850911458,346.5969230769231L1355.849750748698,346.5969230769231L1356.0517187174478,346.5969230769231L1356.1342219726562,346.5969230769231L1356.1723384765623,346.30615384615385L1356.2995584960936,346.30615384615385L1356.3335498372394,346.5969230769231L1356.6893038736978,346.5969230769231L1356.9676698567707,346.0153846153846L1357.1391116210934,346.5969230769231L1357.1805282552082,346.30615384615385L1357.3539500976563,346.30615384615385L1357.4344732747395,346.30615384615385L1357.5199466471354,346.30615384615385L1357.5636733723957,346.5969230769231" style="fill: none;" fill="none"></path></g></g></g></g></g></g><g transform="translate(72, 378)" clip-path="url(#clip_1)"><clipPath id="clip_1"><rect width="1425" height="22"></rect></clipPath><g><g><line x1="0" y1="0" x2="0" y2="5" style="visibility: inherit;" fill="rgb(0, 0, 0)" stroke="rgb(204, 204, 204)" stroke-width="1px"></line><line x1="118.8046875" y1="0" x2="118.8046875" y2="5" style="visibility: inherit;" fill="rgb(0, 0, 0)" stroke="rgb(204, 204, 204)" stroke-width="1px"></line><line x1="237.609375" y1="0" x2="237.609375" y2="5" style="visibility: inherit;" fill="rgb(0, 0, 0)" stroke="rgb(204, 204, 204)" stroke-width="1px"></line><line x1="356.4140625" y1="0" x2="356.4140625" y2="5" style="visibility: inherit;" fill="rgb(0, 0, 0)" stroke="rgb(204, 204, 204)" stroke-width="1px"></line><line x1="475.21875" y1="0" x2="475.21875" y2="5" style="visibility: inherit;" fill="rgb(0, 0, 0)" stroke="rgb(204, 204, 204)" stroke-width="1px"></line><line x1="594.0234375" y1="0" x2="594.0234375" y2="5" style="visibility: inherit;" fill="rgb(0, 0, 0)" stroke="rgb(204, 204, 204)" stroke-width="1px"></line><line x1="712.8281249999999" y1="0" x2="712.8281249999999" y2="5" style="visibility: inherit;" fill="rgb(0, 0, 0)" stroke="rgb(204, 204, 204)" stroke-width="1px"></line><line x1="831.6328124999999" y1="0" x2="831.6328124999999" y2="5" style="visibility: inherit;" fill="rgb(0, 0, 0)" stroke="rgb(204, 204, 204)" stroke-width="1px"></line><line x1="950.4374999999998" y1="0" x2="950.4374999999998" y2="5" style="visibility: inherit;" fill="rgb(0, 0, 0)" stroke="rgb(204, 204, 204)" stroke-width="1px"></line><line x1="1069.2421874999998" y1="0" x2="1069.2421874999998" y2="5" style="visibility: inherit;" fill="rgb(0, 0, 0)" stroke="rgb(204, 204, 204)" stroke-width="1px"></line><line x1="1188.046875" y1="0" x2="1188.046875" y2="5" style="visibility: inherit;" fill="rgb(0, 0, 0)" stroke="rgb(204, 204, 204)" stroke-width="1px"></line><line x1="1306.8515625" y1="0" x2="1306.8515625" y2="5" style="visibility: inherit;" fill="rgb(0, 0, 0)" stroke="rgb(204, 204, 204)" stroke-width="1px"></line><line x1="1425.65625" y1="0" x2="1425.65625" y2="5" style="visibility: inherit;" fill="rgb(0, 0, 0)" stroke="rgb(204, 204, 204)" stroke-width="1px"></line></g><g transform="translate(0, 8)"><text x="0" y="0" dx="0em" dy="0.95em" style="text-anchor: middle; visibility: hidden; font-family: Roboto, sans-serif; font-size: 12px; font-weight: 200;" fill="rgb(50, 49, 63)" stroke="none" stroke-width="1px">-0.2</text><text x="118.8046875" y="0" dx="0em" dy="0.95em" style="text-anchor: middle; visibility: inherit; font-family: Roboto, sans-serif; font-size: 12px; font-weight: 200;" fill="rgb(50, 49, 63)" stroke="none" stroke-width="1px">0</text><text x="237.609375" y="0" dx="0em" dy="0.95em" style="text-anchor: middle; visibility: inherit; font-family: Roboto, sans-serif; font-size: 12px; font-weight: 200;" fill="rgb(50, 49, 63)" stroke="none" stroke-width="1px">0.2</text><text x="356.4140625" y="0" dx="0em" dy="0.95em" style="text-anchor: middle; visibility: inherit; font-family: Roboto, sans-serif; font-size: 12px; font-weight: 200;" fill="rgb(50, 49, 63)" stroke="none" stroke-width="1px">0.4</text><text x="475.21875" y="0" dx="0em" dy="0.95em" style="text-anchor: middle; visibility: inherit; font-family: Roboto, sans-serif; font-size: 12px; font-weight: 200;" fill="rgb(50, 49, 63)" stroke="none" stroke-width="1px">0.6</text><text x="594.0234375" y="0" dx="0em" dy="0.95em" style="text-anchor: middle; visibility: inherit; font-family: Roboto, sans-serif; font-size: 12px; font-weight: 200;" fill="rgb(50, 49, 63)" stroke="none" stroke-width="1px">0.8</text><text x="712.8281249999999" y="0" dx="0em" dy="0.95em" style="text-anchor: middle; visibility: inherit; font-family: Roboto, sans-serif; font-size: 12px; font-weight: 200;" fill="rgb(50, 49, 63)" stroke="none" stroke-width="1px">1</text><text x="831.6328124999999" y="0" dx="0em" dy="0.95em" style="text-anchor: middle; visibility: inherit; font-family: Roboto, sans-serif; font-size: 12px; font-weight: 200;" fill="rgb(50, 49, 63)" stroke="none" stroke-width="1px">1.2</text><text x="950.4374999999998" y="0" dx="0em" dy="0.95em" style="text-anchor: middle; visibility: inherit; font-family: Roboto, sans-serif; font-size: 12px; font-weight: 200;" fill="rgb(50, 49, 63)" stroke="none" stroke-width="1px">1.4</text><text x="1069.2421874999998" y="0" dx="0em" dy="0.95em" style="text-anchor: middle; visibility: inherit; font-family: Roboto, sans-serif; font-size: 12px; font-weight: 200;" fill="rgb(50, 49, 63)" stroke="none" stroke-width="1px">1.6</text><text x="1188.046875" y="0" dx="0em" dy="0.95em" style="text-anchor: middle; visibility: inherit; font-family: Roboto, sans-serif; font-size: 12px; font-weight: 200;" fill="rgb(50, 49, 63)" stroke="none" stroke-width="1px">1.8</text><text x="1306.8515625" y="0" dx="0em" dy="0.95em" style="text-anchor: middle; visibility: inherit; font-family: Roboto, sans-serif; font-size: 12px; font-weight: 200;" fill="rgb(50, 49, 63)" stroke="none" stroke-width="1px">2</text><text x="1425.65625" y="0" dx="0em" dy="0.95em" style="text-anchor: middle; visibility: hidden; font-family: Roboto, sans-serif; font-size: 12px; font-weight: 200;" fill="rgb(50, 49, 63)" stroke="none" stroke-width="1px">2.2</text></g><line x1="0" y1="0" x2="1425.65625" y2="0" fill="rgb(0, 0, 0)" stroke="rgb(204, 204, 204)" stroke-width="1px"></line></g></g></g></g></svg>