<svg viewBox="0 0 1498 400" xmlns="http://www.w3.org/2000/svg"><g><g><g><g><g><line x1="51.5625" y1="378" x2="46.5625" y2="378" style="visibility: inherit;" fill="rgb(0, 0, 0)" stroke="rgb(204, 204, 204)" stroke-width="1px"></line><line x1="51.5625" y1="330.75" x2="46.5625" y2="330.75" style="visibility: inherit;" fill="rgb(0, 0, 0)" stroke="rgb(204, 204, 204)" stroke-width="1px"></line><line x1="51.5625" y1="283.5" x2="46.5625" y2="283.5" style="visibility: inherit;" fill="rgb(0, 0, 0)" stroke="rgb(204, 204, 204)" stroke-width="1px"></line><line x1="51.5625" y1="236.25" x2="46.5625" y2="236.25" style="visibility: inherit;" fill="rgb(0, 0, 0)" stroke="rgb(204, 204, 204)" stroke-width="1px"></line><line x1="51.5625" y1="189" x2="46.5625" y2="189" style="visibility: inherit;" fill="rgb(0, 0, 0)" stroke="rgb(204, 204, 204)" stroke-width="1px"></line><line x1="51.5625" y1="141.75" x2="46.5625" y2="141.75" style="visibility: inherit;" fill="rgb(0, 0, 0)" stroke="rgb(204, 204, 204)" stroke-width="1px"></line><line x1="51.5625" y1="94.5" x2="46.5625" y2="94.5" style="visibility: inherit;" fill="rgb(0, 0, 0)" stroke="rgb(204, 204, 204)" stroke-width="1px"></line><line x1="51.5625" y1="47.25" x2="46.5625" y2="47.25" style="visibility: inherit;" fill="rgb(0, 0, 0)" stroke="rgb(204, 204, 204)" stroke-width="1px"></line><line x1="51.5625" y1="0" x2="46.5625" y2="0" style="visibility: inherit;" fill="rgb(0, 0, 0)" stroke="rgb(204, 204, 204)" stroke-width="1px"></line></g><g transform="translate(41.5625, 0)"><text x="0" y="378" dx="0em" dy="0.3em" style="text-anchor: end; visibility: hidden; font-family: Roboto, sans-serif; font-size: 12px; font-weight: 200;" fill="rgb(50, 49, 63)" stroke="none" stroke-width="1px">-100</text><text x="0" y="330.75" dx="0em" dy="0.3em" style="text-anchor: end; visibility: inherit; font-family: Roboto, sans-serif; font-size: 12px; font-weight: 200;" fill="rgb(50, 49, 63)" stroke="none" stroke-width="1px">0</text><text x="0" y="283.5" dx="0em" dy="0.3em" style="text-anchor: end; visibility: inherit; font-family: Roboto, sans-serif; font-size: 12px; font-weight: 200;" fill="rgb(50, 49, 63)" stroke="none" stroke-width="1px">100</text><text x="0" y="236.25" dx="0em" dy="0.3em" style="text-anchor: end; visibility: inherit; font-family: Roboto, sans-serif; font-size: 12px; font-weight: 200;" fill="rgb(50, 49, 63)" stroke="none" stroke-width="1px">200</text><text x="0" y="189" dx="0em" dy="0.3em" style="text-anchor: end; visibility: inherit; font-family: Roboto, sans-serif; font-size: 12px; font-weight: 200;" fill="rgb(50, 49, 63)" stroke="none" stroke-width="1px">300</text><text x="0" y="141.75" dx="0em" dy="0.3em" style="text-anchor: end; visibility: inherit; font-family: Roboto, sans-serif; font-size: 12px; font-weight: 200;" fill="rgb(50, 49, 63)" stroke="none" stroke-width="1px">400</text><text x="0" y="94.5" dx="0em" dy="0.3em" style="text-anchor: end; visibility: inherit; font-family: Roboto, sans-serif; font-size: 12px; font-weight: 200;" fill="rgb(50, 49, 63)" stroke="none" stroke-width="1px">500</text><text x="0" y="47.25" dx="0em" dy="0.3em" style="text-anchor: end; visibility: inherit; font-family: Roboto, sans-serif; font-size: 12px; font-weight: 200;" fill="rgb(50, 49, 63)" stroke="none" stroke-width="1px">600</text><text x="0" y="0" dx="0em" dy="0.3em" style="text-anchor: end; visibility: hidden; font-family: Roboto, sans-serif; font-size: 12px; font-weight: 200;" fill="rgb(50, 49, 63)" stroke="none" stroke-width="1px">700</text></g><line x1="51.5625" y1="0" x2="51.5625" y2="378" fill="rgb(0, 0, 0)" stroke="rgb(204, 204, 204)" stroke-width="1px"></line></g></g><g transform="translate(51, 0)" clip-path="url(#clip_0)"><clipPath id="clip_0"><rect width="1446" height="378"></rect></clipPath><g><g><g><line x1="0" y1="0" x2="0" y2="378" fill="rgb(0, 0, 0)" stroke="rgb(60, 60, 60)" stroke-width="1px" opacity="0.25"></line><line x1="131.4943181818182" y1="0" x2="131.4943181818182" y2="378" fill="rgb(0, 0, 0)" stroke="rgb(60, 60, 60)" stroke-width="1px" opacity="0.25"></line><line x1="262.9886363636364" y1="0" x2="262.9886363636364" y2="378" fill="rgb(0, 0, 0)" stroke="rgb(60, 60, 60)" stroke-width="1px" opacity="0.25"></line><line x1="394.4829545454545" y1="0" x2="394.4829545454545" y2="378" fill="rgb(0, 0, 0)" stroke="rgb(60, 60, 60)" stroke-width="1px" opacity="0.25"></line><line x1="525.9772727272727" y1="0" x2="525.9772727272727" y2="378" fill="rgb(0, 0, 0)" stroke="rgb(60, 60, 60)" stroke-width="1px" opacity="0.25"></line><line x1="657.4715909090909" y1="0" x2="657.4715909090909" y2="378" fill="rgb(0, 0, 0)" stroke="rgb(60, 60, 60)" stroke-width="1px" opacity="0.25"></line><line x1="788.965909090909" y1="0" x2="788.965909090909" y2="378" fill="rgb(0, 0, 0)" stroke="rgb(60, 60, 60)" stroke-width="1px" opacity="0.25"></line><line x1="920.4602272727273" y1="0" x2="920.4602272727273" y2="378" fill="rgb(0, 0, 0)" stroke="rgb(60, 60, 60)" stroke-width="1px" opacity="0.25"></line><line x1="1051.9545454545455" y1="0" x2="1051.9545454545455" y2="378" fill="rgb(0, 0, 0)" stroke="rgb(60, 60, 60)" stroke-width="1px" opacity="0.25"></line><line x1="1183.4488636363637" y1="0" x2="1183.4488636363637" y2="378" fill="rgb(0, 0, 0)" stroke="rgb(60, 60, 60)" stroke-width="1px" opacity="0.25"></line><line x1="1314.9431818181818" y1="0" x2="1314.9431818181818" y2="378" fill="rgb(0, 0, 0)" stroke="rgb(60, 60, 60)" stroke-width="1px" opacity="0.25"></line><line x1="1446.4375" y1="0" x2="1446.4375" y2="378" fill="rgb(0, 0, 0)" stroke="rgb(60, 60, 60)" stroke-width="1px" opacity="0.25"></line></g><g><line x1="0" y1="378" x2="1446.4375" y2="378" fill="rgb(0, 0, 0)" stroke="rgb(60, 60, 60)" stroke-width="1px" opacity="0.25"></line><line x1="0" y1="330.75" x2="1446.4375" y2="330.75" fill="rgb(0, 0, 0)" stroke="rgb(60, 60, 60)" stroke-width="1px" opacity="0.25"></line><line x1="0" y1="283.5" x2="1446.4375" y2="283.5" fill="rgb(0, 0, 0)" stroke="rgb(60, 60, 60)" stroke-width="1px" opacity="0.25"></line><line x1="0" y1="236.25" x2="1446.4375" y2="236.25" fill="rgb(0, 0, 0)" stroke="rgb(60, 60, 60)" stroke-width="1px" opacity="0.25"></line><line x1="0" y1="189" x2="1446.4375" y2="189" fill="rgb(0, 0, 0)" stroke="rgb(60, 60, 60)" stroke-width="1px" opacity="0.25"></line><line x1="0" y1="141.75" x2="1446.4375" y2="141.75" fill="rgb(0, 0, 0)" stroke="rgb(60, 60, 60)" stroke-width="1px" opacity="0.25"></line><line x1="0" y1="94.5" x2="1446.4375" y2="94.5" fill="rgb(0, 0, 0)" stroke="rgb(60, 60, 60)" stroke-width="1px" opacity="0.25"></line><line x1="0" y1="47.25" x2="1446.4375" y2="47.25" fill="rgb(0, 0, 0)" stroke="rgb(60, 60, 60)" stroke-width="1px" opacity="0.25"></line><line x1="0" y1="0" x2="1446.4375" y2="0" fill="rgb(0, 0, 0)" stroke="rgb(60, 60, 60)" stroke-width="1px" opacity="0.25"></line></g></g></g><g><g><line x1="0" y1="330.75" x2="1446.4375" y2="330.75" fill="rgb(0, 0, 0)" stroke="rgb(153, 153, 153)" stroke-width="1.5px"></line></g></g><g><g><line x1="131.4943181818182" y1="0" x2="131.4943181818182" y2="378" fill="rgb(0, 0, 0)" stroke="rgb(153, 153, 153)" stroke-width="1.5px"></line></g></g><g><g><g><g><g><path stroke="rgb(0, 119, 187)" stroke-width="2px" d="M131.4943181818182,323.19L131.50114858112374,323.7008108108108L131.56359011916038,324.9716326530612L131.6171923169192,324.85736359000515L131.78831756155304,325.0448010468822L131.81814120344063,324.93948659553655L132.04036660116793,322.36259676869594L132.057862650726,321.5589790352832L132.14139806897097,321.231704957496L132.22633974589644,321.2444604423554L132.38650713068182,319.12648799694125L132.39567520675504,318.84555429383084L132.43811865056819,318.05501568963285L132.90485042771465,318.6765089981165L133.10119701309975,314.3705105133073L133.19605555318813,312.96683446500094L133.60688398200756,311.0480854782418L133.81133938368055,310.0518005467897L133.90154083333334,309.1462372793435L133.9501937310606,308.6833608126426L134.27684753314395,308.3683535882877L134.38259088068182,307.8848094967718L134.51759171401517,309.5831387377974L134.59891729719067,308.19406315327734L134.95395195628157,309.1126259485766L135.03312249368688,307.9469419259465L135.46730942708334,308.4680000012434L135.58260437578915,306.5452425968884L135.6011231589331,304.2729318461035L135.71035475852275,301.9900721153943L135.7559394554924,302.9080152107049L135.9487429995265,302.6888546478665L137.15018101641414,303.21499205698285L137.51467596117425,300.81518408325275L138.09611826783458,301.62264036315776L138.2663120943813,302.947933418983L139.0140216611427,285.74278035736853L139.0504200189394,289.3119096288367L139.9943300662879,282.7585406734846L141.69926348011364,279.67575329713327L144.18644198232323,272.5858367906984L145.8368783065025,248.11439966459878L145.9715504040404,248.4613097744382L146.58581150094696,230.45599334752106L146.71924170770203,230.82921812921165L148.53965270123106,216.18328713973474L148.87799488715277,222.6692927508725L149.84013150804924,220.38208754138398L150.16678531013258,232.40545804327425L151.53323043323863,211.00455970728362L152.3581929119318,218.62054040846638L153.66038845012628,222.61243737553772L154.9290346740846,218.98741333262137L155.46889190261996,226.89364698407144L156.14259938920455,236.8742847190305L159.2561108972538,223.80905961798348L161.03555775804926,222.62746364182073L161.70002411616164,192.84556888126298L162.11919878156564,184.75542934127893L162.79849477667298,194.0394055320204L162.91599956044823,163.7271194193145L163.066085714173,159.50899904973286L164.95743058712122,178.88796717589142L168.47254765861743,175.0890316284428L168.95458391335225,182.27886264274443L169.6986591232639,185.83861142143303L169.96283486111113,139.03832110028316L170.37231182054924,148.8716039571113L172.01295912326387,155.52882814756668L172.65207629892677,159.27379685662828L173.3213458522727,167.7726851425315L176.2461812768308,167.2712782182374L177.67431915088386,153.02436118514626L180.50977496527778,151.1914460389849L181.500785546875,150.8383523371245L186.6707951388889,160.88601792792716L187.26005405224114,176.93929923453828L188.10395536537246,169.32200555483985L189.38100261521467,143.2148854023249L189.82972697601008,151.71279677098923L189.9164401736111,133.63359257268925L191.58954100457703,118.33715374415596L191.98869931265781,115.96645239668294L194.99460463699495,110.12410265418775L195.50701242660983,126.63325378836542L197.6807413478535,139.31940151845998L199.47047033380682,130.8246101445962L199.51468529829546,141.81892538426035L202.78962434501258,153.57384272136775L203.9154166027462,170.22777371296417L204.1028325323548,149.3004747522291L204.41677521701388,159.15353170248918L205.63746254103532,167.174254135752L205.67154148516414,174.62974274462866L206.09478882181185,185.07765839274646L206.21475912405302,161.4976306823418L206.38199432844064,172.42698763678183L207.70559421953914,176.4013149724565L208.68394847301136,185.8747437015347L209.07649553898358,181.027906722319L215.83334934185604,188.10634624029012L217.5198552880366,195.6822697830597L218.10095059580178,196.52267936074895L219.58307419270832,203.4740277740588L224.2291702422664,208.81567381528006L227.841173057923,205.84332264492483L230.56016508522725,210.54607438006556L232.26232250789144,180.5234125074181L232.59440045059975,140.61652482274815L235.552200770202,164.10442150384287L238.28127402856694,166.63388331529436L239.71584051373105,167.29555082623324L241.12562397253788,177.63871831169192L241.69691199573865,179.48466058153306L241.76587346038514,187.99946155936863L241.83193109217171,180.35329227579965L244.55225632575755,183.56392345215542L249.6542176081124,191.112459969756L251.2231457181187,198.73359100469247L252.26996833254418,199.39980235624742L257.14309297506315,202.30495701118286L257.95938048137623,209.31033847666637L258.0414000623422,208.1774127028074L261.2330959004103,213.66405080709706L263.9692552414773,215.49269318878353L264.4156601886048,222.07916421888842L266.1146763581124,234.5525395996129L266.83743853061867,232.11390865741794L267.04658754892677,228.62357235606427L268.50745289772726,223.74316149939685L270.88594769333963,227.67456227671798L271.8166535195707,221.58987793227573L272.97175805239897,224.49764624362638L275.8178795170454,175.65574929006365L278.4894605374053,187.36726190002287L278.84615713857323,196.11717261722222L281.34511534011995,199.23122172530526L281.7896757141729,203.0830384672101L282.05739449337125,190.764582695224L283.13027855113637,194.8941452914831L283.3704931021149,195.3566484978123L285.11792474905303,193.76527622298937L286.9342995975379,195.2476097896606L287.36624016966545,204.16209332182308L287.4499947451073,206.6364043236939L290.5452796796086,207.67644367519134L296.9454368813131,158.45185212183887L298.6286006802399,132.84132430264592L299.9317276365215,142.96612565755717L304.03906224352903,150.01295680910593L306.5800986268939,157.27851328789984L306.83401050268304,162.46198629481174L307.33770679371844,156.44931335049444L313.6483565435606,150.34629134783782L316.2013369941604,162.38134764580033L317.39130578440654,152.05739549882952L319.543064196654,156.8191611740446L320.2039327241162,162.70941199797943L322.52705380129424,169.55887519832356L326.6145729450758,154.047543918496L327.37928545770205,149.72228733070287L327.63480448626893,157.74019423112694L337.90936872080175,166.11466509648415L338.3009661055871,126.52634033190624L344.52565144491786,141.07126428215318L346.5171328937816,154.2140746398555L353.7118810392992,166.44858844389717L361.0401507070707,167.06717517731343L362.3861776846591,175.24747390072608L363.29045680555555,179.64922781562157L367.6935623129734,184.38296864328237L369.2565366524621,186.49302334679155L373.9248771575126,191.5468198447759L374.0408113147096,195.84254686806182L376.025005786774,202.04541483785528L377.23500919744316,206.67997761217873L379.33110168166036,213.24173097035404L379.720580546875,218.11047132480226L380.8445282315341,221.75277562608278L383.55510096985483,223.2186092821706L384.2230921062184,220.99169288984467L384.33752868923614,220.16193895636783L385.5826520407197,217.11777311291232L385.6464085219381,220.8381071459758L385.93224429608586,220.66926607407945L387.3393065530304,212.3751261629669L388.2455763517992,214.96410723852208L389.47077466145834,217.23561615274386L390.11383666666666,214.41777372983213L391.6230809666982,210.2507326703572L393.00830055634464,176.72862276980246L399.31597342092806,188.91707935433246L399.70125177320074,198.4976424511828L401.74701115451387,203.3099960835055L402.6485873366477,210.80249667097976L403.0741175607639,213.4147471703329L403.2803992724116,214.92641009478294L403.93255630129426,220.32207358056556L407.0560211987059,220.23063754348075L408.2540805421402,204.8439169119585L408.52417352430564,206.57807937516478L409.95145303267043,212.3046174688901L410.9273417676768,215.61292484855662L411.56382905697603,218.42498612127312L412.61735422900887,222.51623820308217L417.1185691082702,221.52867747261985L418.1252494294508,221.96500085172687L420.8640386568813,214.1852507239678L421.52034140940657,211.96671311537267L422.7569724195076,211.28583114806673L425.13683694760107,217.72370647585672L426.61875965041037,216.46277550447823L426.74676571654044,217.4463591788065L427.3094518197601,219.41640530198552L428.61455119081444,220.5239445066877L434.6340688675821,218.91385283068453L435.2150728598485,215.56077490608183L436.20602865214653,212.35628367016957L442.78611391256305,213.88496611964413L444.1127454782197,219.29509620169748L445.09188504498104,222.90145677144287L449.3451235558712,225.18723825572647L449.72455771622475,223.16115251736744L451.78684520280933,215.8398546397624L455.5502308522727,217.271251443798L457.44099130602905,219.9054387272283L461.070179698548,223.34937291814407L461.73300237768314,221.66984198042246L462.09671200915403,223.0063656833591L462.1391737160669,220.8112858308552L463.0091364725379,223.5523429562269L463.9259440798611,226.52011651279292L464.7389259651199,221.60084903587395L466.74280805871217,216.99422168049287L467.1352090198864,221.01658842841894L467.2558185306187,221.74235016415608L467.877257025726,223.91849763953266L469.2417845233586,224.35072299360277L473.32711209517043,222.30836454456235L474.7538437105429,221.28110986287797L476.5749121756629,220.2661933834463L476.88739381234217,221.52976437592935L479.99139024542296,222.39117471953995L481.19931166272096,219.65049851160896L481.6064692084911,218.8092987348676L483.2252373177083,220.92927892463746L486.1735042992424,224.43226208594186L487.35229607244315,228.47292277305056L489.2863218095013,231.056984357093L490.51188538115525,232.61556170352898L490.92972684027774,232.52285244799967L491.3716025386679,231.66442458079976L491.98619237136995,232.5648858936798L495.4234538486426,236.2361530096278L496.5099621788195,234.96248005818362L496.7059982915088,233.38373304945608L499.1077054869003,235.93992309203767L500.6197257780935,230.74168462823204L501.5460301972854,234.8281819339972L501.6995863399621,236.17545464389764L501.97152389520204,238.454636447313L504.6718510345644,238.19481598021605L504.7593678085543,237.61959358318362L505.69896776436235,237.0597795457061L505.9930219333965,239.06456261385023L507.7577304726957,237.57925322177266L508.8813676846591,236.17499023850675L509.9147669207702,235.5483667027308L509.93984215672356,239.12648669732118L511.9256803077652,239.47463869272295L516.3126594981061,240.19581788881453L516.4188411600379,239.95832020549236L518.1241946251578,240.81957217466848L518.3180391658775,243.81963634846824L518.9603889101958,240.841440896198L519.0497137310606,240.5779747617683L519.7799272482639,238.65302854750303L520.0819989180872,239.0013242653776L520.8200107788826,240.85662562557093L521.409981953125,241.29963178173531L522.0776808798927,238.274187014475L522.2961075528725,231.37918396230376L524.1043005326705,230.26705636795822L524.3841642732008,229.53437291276444L531.1053685053662,227.70671697584976L531.392866221591,227.71245942947232L532.3193897979797,227.71734051505146L534.4560811529357,225.4534894377938L535.6270015301452,230.2623410221247L536.269953956755,234.84598986880596L537.6486901459912,236.1197163884851L537.7445348934659,237.13150893021233L538.4271912989268,235.5817825906805L538.657598565341,237.17039020207844L539.7037271819761,229.37783167176664L542.0973620872791,228.1406569210017L542.4677377501579,229.4279333828514L542.6892143607954,232.0104933754237L543.1427967061237,233.78041936911015L543.8902688525884,235.14310646374366L545.1918799715909,238.4276404941821L546.1341280768623,240.01461942005477L546.8678663723169,243.27717650704653L547.3840911497789,244.13672503098957L549.7110657410038,243.09546627634117L552.3452621961804,241.64339633488999L552.4783271409407,241.61401188465652L554.0035516532513,242.226910101958L555.0179390025253,235.7312485866643L558.0959470446654,222.13018629866468L562.1004786631944,208.8682833538649L562.3734937413194,192.77616585078516L562.508037997159,193.8398659731674L563.872547231692,200.3431360771923L565.593588699495,206.01266566561347L567.205928197601,212.8162658157715L567.856094548611,218.31582594340574L571.0677702178031,218.59620205189483L571.8437327998738,209.3372717441106L572.1601044767993,208.55468098249406L576.0530485558711,212.85072883511992L576.180780675505,217.06936950985198L576.9416579371843,216.26096408337415L578.9997631739268,217.91269447086805L579.342689397885,220.2380403002378L579.4850685235164,221.78933425520214L580.6318450828599,224.66718411692182L581.9367070336174,224.1366064993836L584.2842641382576,226.237115524476L585.0484835471907,222.56517319580462L585.6764784951073,226.46064721643396L586.4227818031881,224.38530013396888L587.2774583451704,223.61350511387354L589.1822813857324,217.35835434679248L591.4624659154041,220.75910119477362L591.5040875197286,218.4758610155576L592.2817120438763,222.7721068632239L592.5434953156565,223.2345408337403L593.5317846953914,224.8324847086793L593.9150906328914,224.9149870023774L594.1055017108586,226.26086395202083L594.5565820115214,226.55435935921764L594.8765149928978,229.92233045533501L595.3407447253787,226.33548088703475L596.811252990846,227.68090875397954L596.9327391303661,227.97402244088264L598.5673230839647,226.16779407475022L598.8634227201704,217.40324996353772L600.0586147569445,214.70201246900706L600.3141520486112,217.225460598656L600.4074034359218,214.6926415088576L602.2019538802084,212.96499528252895L602.5245532741478,212.70137099014957L603.1946264038826,204.11404034162715L603.4312431242109,207.3751842903831L606.4027772948233,206.88690664682562L607.3873227391099,204.2038706498018L607.9144871133208,176.1247900523315L610.926309681976,175.1501965444818L612.6846261363636,168.7935420628095L612.8015282378473,167.5011357533881L612.8492862436867,172.00171539037987L615.6303180208334,175.54370808182287L616.1402055026831,177.98740186954942L623.1787493560605,185.592791589117L624.874368589015,195.45937285074945L625.4333290198864,201.22359192313706L626.2866175662879,208.6038031346665L626.526211171875,214.52260766446648L626.9785333633207,217.42734151479652L627.4875442163826,220.60511528757706L628.4490051025884,222.1722229944405L630.0183715269885,225.06351454527444L630.6285051633522,224.47348736348323L630.9921234793245,229.71283925896077L633.2054102746213,218.71553837011666L636.5711899794823,222.62145761459917L639.008528482481,223.31911397240927L639.663479765625,215.1944968765479L639.8127258167614,218.70719734506568L640.3304846946022,222.40174274330582L640.9669902470011,222.77798133180997L641.2394756952335,221.39678413203848L642.4627563794191,218.0256415122327L646.0290283933081,220.68842028539783L646.8109264827967,223.80228224258815L646.9352434027778,225.10243990619992L647.4829537642046,226.70369892026991L648.9840161955493,227.14339408222946L651.247416936553,225.17825996989498L651.3363399692236,224.8545209744108L651.9058199455492,224.36671782824916L655.6757985740214,221.4714601540118L656.9873630823863,205.61511613091L657.9916692005997,199.2955987112735L663.6655577146465,191.1598839045825L668.0645174984217,195.58452631889514L670.1355530097853,194.66772237106085L671.5730050647096,195.80206401540173L673.8833237089647,195.06525441309145L674.5644094878471,198.76234125112774L675.9263984146149,202.18836506345858L679.2667741477272,204.9587353039398L679.9184563360164,193.5638000083488L680.9326245280934,182.8858550070965L683.6982787752526,180.18835175603203L684.456325256471,183.21109899262726L687.3607425355113,185.70955914373317L688.1919875205176,187.33712527217318L689.5869048161301,194.8158064813472L690.5763995604482,189.1948105091451L691.2893544483901,176.12458893277335L692.1395382678346,181.52877559285736L692.4143431297348,170.74245925392876L693.1960585882259,172.34709036583942L694.9629221732955,173.0731518109635L696.6741198303346,173.123304039319L699.5624655815972,159.98318343342115L705.8574638549558,114.72320591840793L708.5245156265784,106.94110003064675L713.4124333798927,129.7394350260497L713.7346857749369,142.81014477214225L714.7929228267045,137.6189980563209L717.0598848721592,146.17664834787277L718.1757785298296,160.39640109569189L719.6702114559658,162.13544093133808L721.4691998334912,175.87499979163738L721.9345436150568,188.04974982289178L722.1291552059658,196.13028734945806L722.3087180026831,201.58124424703934L724.2987931928662,190.76380760998344L724.4811502438447,188.65648646848592L726.7881815301452,171.060138498213L728.4712905397727,170.77436772348108L731.146378075284,159.12058756495887L733.4952135969066,153.67999943021508L735.569372098327,109.36549951568279L737.1346658514836,81.62067458833039L738.5254739496528,68.81057340008083L741.9620231660354,90.80798739006873L743.2714143655302,70.3119142815584L743.4914481912879,83.79175213932463L743.9228043442236,95.24961431842593L744.2622057899306,110.16267217066205L745.7778604379735,122.48439634506275L748.6220460140468,140.32886189330333L752.5768837381629,155.07140760930784L754.7993203464331,163.70444646791168L754.8337097632575,172.60177949772492L755.040594157197,178.25088757306617L755.3724712058081,186.38375443710626L755.9210764591226,195.21031627154034L756.3280148476956,200.37401883080926L756.5367620778094,202.84954100618788L758.9188181778725,204.81198485525974L760.6853165009469,208.81893712697075L762.3288858996212,209.38984655792515L763.7147264346592,208.67024457423636L764.686305078125,206.07408288810092L764.8203014409722,208.19072045488576L767.5561503093434,210.1316123866529L767.7166646930241,213.34062052865494L768.7263036363636,213.5876524493567L769.0210152769887,216.0656295819532L769.173439107481,213.99028514466022L769.3742418892045,216.90399237296117L771.397994235322,218.175768517017L772.5258319602273,220.17815323946445L772.5560939165089,222.58893025354482L772.809567477904,224.42546571551307L772.9609137855113,225.49039585818613L773.5708282646781,224.4819614794582L776.1884966145833,221.71116725753947L776.889397856692,221.62399216890853L778.3027426199495,222.4003933435723L778.351943410669,215.9728343420364L779.3151027651514,216.46290919073098L782.537663241793,212.4143478121213L784.6123696362058,213.50907064030312L786.1621762807765,215.21921004425764L786.3031308846275,220.287453537619L787.7751001980746,222.96533550697617L788.3481962681503,224.88716018092973L790.383417840909,226.73333615379025L792.2601704971592,230.57058573072172L793.0735541706124,230.64287287111344L795.7047737405303,233.46844194044644L796.6933370667613,231.6176756493795L797.2443530492425,232.4542743019726L797.2999459248738,231.3226331566767L798.2600370785985,226.95873818317514L799.2594121598801,230.9748024556989L801.3511762894572,227.44270708734402L808.341231613005,223.02292602424242L809.3964004640151,225.78661212060607L809.8450517724116,222.4657453025152L810.0564106257891,218.57988350713788L811.8855331178978,216.12740098106724L812.0048094223486,214.39716583390714L812.7228414520201,216.8954659588211L813.3945217345329,216.1840210649979L817.6611105713384,220.54054290524823L818.2118526073232,223.10958646946096L820.3122551830808,225.64764849904182L821.7049809067233,228.58462622418557L822.4936728693182,225.12755729055772L825.3611621606692,225.66192369697401L825.727848677399,223.35201014242796L825.8611510424557,226.49158362106374L827.7469987223801,224.1280960779042L830.5407233538509,220.7016316662186L831.4546819176136,214.17451191628575L832.2099706707702,207.8468351288429L834.4225452051768,207.3586848595165L835.9118279371843,206.66025713058903L838.9389367203283,208.40546856100067L841.1456122735163,211.66077327685053L842.1387048484847,216.908407285323L842.3002419657512,217.47077119252452L845.5000831463068,216.88565551364587L847.1556148753157,211.427057186599L849.9589093710542,213.73299860860908L853.5325231510416,215.90567381731776L853.5743273863636,214.9883227447201L854.9271117108585,205.98707433301206L855.3623031147412,211.37701318306028L855.9716879640151,213.26521120560122L857.8224704924244,212.956554524761L865.4287228014521,210.99319634604691L866.7875887381629,207.83596689413983L868.4400340033143,209.7591968600189L869.5769119625947,196.58106733101604L871.5415283917297,190.34090723136362L872.2218653835226,194.10877114665908L874.2928826317867,198.7998304746602L874.6977025007891,193.36085590346121L876.2153295636048,188.737727517942L877.2817302209596,182.9653183902507L877.3949979655935,180.96464563171307L879.1704086813447,163.95507378695612L879.2783070746527,151.8358127189127L879.3427210274622,158.1900658110758L879.5282741208965,164.08730593941442L881.1434261363636,164.13871004850225L884.8825583893623,154.18902854122695L886.755000954072,156.4339242600429L888.2131268379104,142.8913356210365L889.9075407062816,116.00026027788101L890.7696868560605,130.13959623619886L891.3291951799242,116.85565680076903L897.3165150118372,121.44030828065365L898.474614693024,128.3848870385556L899.031639235322,133.29552898277228L899.868472728851,148.52607463535642L900.3476416769255,162.109913440053L900.6904765853851,168.19880142404503L900.7790343560606,165.01110621043827L902.3616597908775,177.46881527887254L902.7849071275253,184.44324298704169L903.6622116500946,189.2375065389854L904.3253265388257,197.70688055813758L907.8564420857007,198.52709847441696L910.1829966256313,203.8311587032544L910.2495838873107,205.50460989776624L911.9954449076705,209.19504341310133L913.0107088857324,213.60766190113608L915.7509408980428,220.26426261596575L915.976727600221,225.07187322357086L916.3615859011996,229.2292172400352L916.4501071456755,232.90470965402997L916.6937186332073,234.61137820592543L917.4178870643939,236.62904647503666L918.2405666556186,236.71393950378115L918.5425470099432,237.77834857821398L919.6010580082071,241.16372129148186L920.2420014938447,242.6237880977596L920.7020489764835,245.28234488309567L922.4622100039456,248.2508681506313L923.0712478543245,247.93911292803665L923.8730892487373,246.96537098883115L925.2417989962121,247.76781534050647L926.3145004229798,249.3712680394305L928.5850237728852,249.45845283351593L928.6083457512626,247.83155990848852L930.5988775189394,248.6458259222153L930.8142907804609,248.55832703388296L931.8147616477273,247.84607797880054L933.3220700591856,244.90179128198048L934.9278896306818,245.51764758968338L935.0932254726957,244.97800045123086L935.8626681281565,243.03092538354625L936.7622901586174,245.2740365760143L938.2093668671087,246.8971810896122L939.3702608025568,248.20597892617036L940.355920295928,249.46020708724478L940.9134562050189,250.10105102415807L941.3690657544191,250.71664337053437L941.4964143489584,249.1845218649542L942.0382257291666,249.93759358521106L942.5286812728851,250.9320795474294L943.0560100149937,252.982267615315L944.772394392361,251.39380247301773L946.120704257418,251.46110710206506L947.4121793560605,254.4950660367553L948.3683439433396,254.87680613124198L948.4476788486427,256.5479102115557L948.9375682362689,256.19647367982236L953.1426469531251,258.52012762784904L953.4531561750316,257.30585848367167L953.5127669326074,256.3446047111209L953.963281077178,257.29941400445273L954.087597997159,258.60712690378483L955.3036464938448,256.95455786821714L955.6469927690971,255.8333741879846L956.5598190206756,252.61236805978686L956.7159502604168,252.4260128508189L957.0949826325758,249.645235923196L957.4052361710858,248.69907553471666L957.629634877683,248.95796420450915L958.7582761789772,250.73726957383278L958.9281230066288,249.69817913775788L959.0204612389521,250.2324522670942L959.1468966785037,249.48170942703004L960.7116973279672,248.7727030129755L961.4891574842171,248.0991725610292L962.1267040333018,245.8256716768748L964.1035384761678,245.31069592534357L964.8080558120265,247.28271653654204L965.7946649865847,246.47830905606074L966.3398185140468,245.36931269765162L966.5393246156881,243.2217907930039L967.7678650726011,237.85264717405332L968.1478653890467,234.98987509794534L968.291760351957,236.24201883325352L968.4618080737058,236.38496600826548L968.559296500158,233.67147110702567L970.8805912673611,231.8611254409718L970.9240574447601,226.84945662482605L971.0003058862058,225.6371631311021L972.2733535172033,229.9932136614368L972.3666414307133,227.60060661222133L973.2558352312185,230.8825156203881L974.0896553132891,230.1283882773299L974.179491500947,230.40875503573042L974.3071140419823,230.64706678037084L975.7291885669191,229.36125676331525L976.1379532654671,229.26056824881795L976.3919381936553,230.02548301149523L976.450325323548,230.53391055977096L977.4320765135732,231.39132397580536L977.6768020501894,231.76575037943456L978.0037663249685,235.76951282251935L979.1759468560605,236.55033589914143L980.3500632757261,238.27716051427026L981.5626600465594,237.47696143712972L981.8956876704544,238.35604222156024L981.9250364717486,238.46538588832624L982.4757967708332,235.79420300507726L982.5230981991792,236.92569755431572L982.6363294176135,239.16321792116833L982.8776762807765,241.06511023299308L985.6513480287248,242.46909369804413L985.6757840561869,241.81972964333752L986.1774531431503,241.62214519683687L987.9624702493687,238.90269841731134L987.9924582591541,238.7174186547146L988.0940376199495,238.2764308565074L988.1228567913511,238.82296622803133L989.2785274802715,237.79914629382665L989.5207144460227,235.86577434975266L990.1748804158776,233.0884081972898L991.0897703977273,233.98789696769632L991.750383241793,236.4534624225419L992.7635469633838,235.00544305916063L993.8391522230113,235.19212660028649L995.2201895628157,231.80705761024353L995.4897346519887,226.874373968707L996.4068162058081,228.49334287340093L996.667613270202,224.83734144239085L996.7839309524937,227.54149022603218L998.8678419491794,229.13126669212738L1001.2229782402146,221.41057668830825L1002.1571357922979,218.24999018506196L1005.6814209398674,216.9809916573027L1005.7888810187815,216.1858429087073L1005.944774838226,218.3449664724012L1008.4210320067866,214.86459650154103L1009.2181249952653,203.82653202630985L1011.7390719689079,210.03667722236335L1012.9062118844696,210.92105063900885L1012.9387019389204,214.2242680431575L1015.4217347174874,214.40962783668388L1017.3341734706439,218.2526836611813L1017.6912353338067,219.4639061120041L1018.554312901673,218.8633201952035L1018.5819084453914,221.68394716592294L1019.6723616051137,222.59310509103452L1020.3085201586174,226.90963932737938L1020.4469727178031,229.44469342827247L1020.9667405366162,231.5286144140316L1021.1354367889836,230.81932225192688L1021.726704643308,231.84654891413786L1021.891675223327,231.0895665770172L1023.7774133246528,229.24125659046462L1025.5147272143308,227.5284431018949L1026.383575921717,226.63955163661063L1026.5901315798612,226.02574389111908L1028.9939025055241,227.20500730745124L1033.0795588131314,227.28600621133356L1033.904411713226,224.09460527963356L1034.3064738541666,224.92566448768852L1035.1961059690657,217.1270648145352L1035.4278099155617,216.8770050923549L1035.781383526673,212.34107932850168L1035.9723424976326,212.59629242922645L1036.230418360164,209.05684856484248L1036.7145000820706,206.0483212801161L1037.631307689394,211.14557308809867L1039.6184425205176,216.25786212488387L1039.6969007970326,218.3353078061513L1040.8732453148673,219.25063663522857L1041.8132653219698,221.6587911399443L1042.8220093734217,222.21734746895268L1045.272095520044,224.67662034860973L1045.6275502304295,228.04275229631833L1048.2521585582385,230.26608945187056L1048.4345156092172,232.43942603408996L1048.7427967329545,233.6488871289765L1050.002749721433,234.10992905963L1050.0587626483587,235.06881470068546L1050.332690881471,234.04111749558263L1050.3566703314393,235.01032487124525L1050.4760014251895,235.62152614055847L1052.7595828914143,237.70029721947472L1052.8381142203282,237.90800263655348L1056.6904046393622,238.43892724107047L1056.7969333001895,237.6144631549099L1056.817260130208,239.74866868167345L1057.261345663668,239.71999337942242L1057.621274833491,241.8927443725091L1057.8769034406566,243.2434577166327L1058.129920424558,241.76918905913777L1058.2480644168245,239.45293570026715L1058.3732031762943,240.03562034522704L1058.4550218631628,242.72802729344298L1058.5924151625632,244.44957319942657L1059.2450470320393,245.41676221951255L1059.495160183081,246.09712288658568L1060.2009194097222,246.81717945359787L1060.2448056384155,248.35060253555818L1061.3196986371527,246.96076215522442L1061.8491093726327,246.41727283194078L1063.0265131502524,247.08930690714968L1063.6047776775567,247.9440358710772L1064.0326455784405,249.23755549041562L1064.3459673177083,249.62829716685332L1065.0801621906564,250.5983025918253L1067.6637698595327,250.1470572030515L1068.882959609375,247.92074862259378L1070.3870537152777,249.00513632920473L1070.8698752833018,248.013240879824L1071.1770423579544,249.36725474785038L1071.7267981865532,248.88804153567284L1073.3387358964644,247.41758530532192L1073.7212017313764,246.45119750952364L1074.7424560061554,240.81026788309512L1075.3793816098487,239.0631027006308L1075.744862761995,237.86151229553622L1078.3598464362374,236.41491045120577L1078.6711044452336,235.32704888352492L1081.3953197190656,230.9294915509962L1083.4375725852274,222.30119281834675L1084.9863199700128,206.8165138955947L1085.0537108080807,208.53828681125552L1086.1815850591859,202.2764187895672L1087.7893587823548,205.10445597113213L1089.7470352335858,199.57028757546232L1091.5638483964644,201.95374443914295L1091.6409004142993,203.97968277327152L1091.9235766721908,208.74935535728085L1092.9510769270832,209.04720205368866L1093.8234321496213,209.9382467456354L1094.3074773453282,212.18400973379008L1096.6554362381628,209.98215827372158L1101.5217122182767,203.78720953266335L1103.768950116004,196.46612810276383L1104.0039231573546,193.36170888734924L1107.4367101751893,180.72957755424684L1109.2621069949496,187.78189092110986L1110.218308108428,194.91035728294338L1110.9566669681185,201.04042869050187L1111.187567338226,200.86448938692658L1112.9966917361112,204.6839409788876L1114.7372929837436,206.4420998320545L1115.761925931976,212.4016598572463L1116.2983131715594,215.27016087865937L1116.4874823587438,217.70838674686044L1117.5503034485478,220.70225373483137L1118.4360637863006,217.71879067460665L1118.8864135629738,220.07322207341565L1119.9035586403093,212.3646137624033L1121.13514903488,213.3250466980428L1123.7932518876262,210.73941469333636L1125.9610087752526,211.66012748933593L1126.6311549573863,216.62435836593554L1126.964365212279,216.8749546110452L1127.1283130587124,221.62396141938837L1127.1836867771465,223.67611720648017L1129.5717149108273,226.5544496255081L1131.3487875686553,228.57578218168192L1134.354145,230.57741485442963L1134.7786890167297,229.08942762626518L1136.2947271898674,228.3207634823254L1137.0989610503473,229.5101489599766L1139.1609015380368,230.02500161598013L1140.0088937855112,228.61987637358305L1143.0404770280936,221.04676991754562L1144.2102833562185,224.88650442991377L1145.3307427888258,224.1104037654267L1145.9525648090275,221.7497182006127L1146.6083927209597,210.6711354705208L1148.4158551767678,208.05834014994267L1152.1099140995896,209.59383912745128L1152.7469675449813,201.68526325833358L1153.3921115435608,198.43584876958352L1154.375816885259,179.726971454146L1154.8145330673926,171.1245507360241L1155.563320157039,172.3883681256205L1158.562942975063,180.55011290677743L1158.614864967645,173.2417209707608L1159.2959142203283,167.66746282514666L1164.360984041193,172.42659340137465L1164.9513752667297,182.42535439116844L1165.365984157197,185.04167623249322L1168.0157042471592,193.85692479761917L1168.2954766721907,202.05863607797633L1168.4822533933082,207.47084066627986L1170.4696986971276,209.0235895663379L1171.8597762713066,214.17067613138718L1176.965518015309,212.5921997116791L1178.2469666721906,215.71561975492725L1179.7344778835227,218.93752679168813L1179.7974307883524,218.98289777293496L1181.070606261048,217.8165881069947L1181.1017083199179,219.58934989094547L1181.1364447356375,218.26119740730365L1181.7468705815972,214.93514279620814L1182.2836961355745,216.36049637677687L1182.3796139354483,209.56317192026037L1186.8210171630367,208.95932113222128L1193.6586851822915,204.9022979623881L1194.0698971362058,208.3287032680299L1197.2355863202336,209.4692727778254L1197.485498577178,204.83963186115164L1197.737602406092,203.38506208197887L1197.904673242582,185.49305276968204L1197.9497648358588,186.44434485422974L1201.4774651830808,179.52756812609528L1203.0431059351326,185.200932907181L1204.8586224179294,194.34666797110384L1208.7188207591541,198.5059177754383L1209.0902191556186,196.93828010912256L1209.4648866469383,195.53491309275412L1211.1495297569445,201.14605112884104L1211.96925072601,192.37839345951488L1213.3406634122475,193.00563444058764L1213.4330381707703,194.6727892744995L1214.3998318821025,195.94812088332458L1214.7302844089331,201.2137777508259L1215.0257265735481,195.979711088202L1215.8668153693181,199.3978794249717L1218.2531815609218,196.98769751122597L1219.249671072443,196.28566788454205L1219.375649934501,190.72769270186075L1220.4555287594696,189.68891379658163L1225.4791778701074,171.9377017270944L1231.4423721472538,135.30317146803026L1231.5716018410671,134.99444574782572L1233.0240661639837,139.76415388565187L1233.9348104221906,148.4252808028041L1234.677315005524,159.89798868238347L1238.237505407197,167.52354038002593L1242.120824832702,178.61213432302205L1242.7704432907196,188.25006417456876L1242.957950535827,195.52092954838344L1243.8382867329547,201.70116511612594L1245.3689719120896,209.64761534870703L1246.9129708909406,213.56709804640096L1247.3252786308396,217.04040833944086L1249.9612100804925,215.9528470885247L1250.8355194547034,210.421545025246L1251.8457245541351,214.36668827145908L1253.690808995423,213.11318503074023L1260.6028626199493,204.74758227612918L1263.14203616714,209.2603199347098L1263.8592098311237,212.10389694450336L1264.5888571922349,215.30056240282786L1265.3457348350694,209.4418530424037L1265.9881941579863,208.71445008604312L1266.130536757418,214.40403257313667L1266.6326806849747,206.12830268716618L1266.9950571101642,208.80380728409122L1267.496251356534,204.7701111914776L1268.2729444625948,207.43671951275596L1270.392979870581,209.91596158584255L1271.3191747111741,212.87381734796617L1271.722314375,213.26174474577127L1272.046027818024,218.55273303390558L1272.2562360961174,220.00244807881975L1272.3945425505049,224.35320586699677L1273.386155814394,226.3503499869472L1274.9411126530933,223.72454748890513L1277.5154061410985,224.25674036556936L1278.619209626736,225.20522931073398L1278.8262583885733,224.6648199141239L1279.0674408838383,228.10359692700533L1280.536415048927,231.0265573879545L1280.6330085834913,231.45569877976132L1281.308998957544,230.54471896279713L1281.6936563644256,230.76263611837754L1282.2044387381627,233.14499070062092L1282.6989669531251,232.1932420955278L1286.4464819689078,230.3211307811986L1288.6287397577337,231.2813361640188L1288.6600061845015,227.91588573941598L1288.7871538849433,221.29887787850362L1289.8056504316603,221.27354619672806L1290.4846359540718,216.14901426721883L1291.8973232457386,215.33691212713597L1294.3800820778094,218.6865003080656L1294.5583481944445,217.2102752618557L1295.7630187799873,196.67748397257736L1297.956563164457,197.15598637669078L1298.5281433972536,191.8218384201872L1300.1310226096907,199.54918765715905L1301.2796620052084,202.85718450858522L1302.5737669902148,206.44860683229743L1303.1708242471589,208.01294080745276L1303.3436479600693,214.37474968633487L1303.7725751207388,210.5685372333847L1304.4661528598485,212.50713164837697L1305.6687231889205,211.6034369011204L1305.769937287721,212.96154636595236L1307.147449849274,210.07606441105952L1308.7866726302084,216.76627974940055L1309.1513867321655,221.10633778699054L1309.7964211521464,218.2040121189419L1309.9530637586806,221.97403530110066L1310.0540769633837,223.54843000593553L1312.9173474786933,225.24104050504522L1312.976081607481,229.58563442928843L1313.484508041351,232.56978926489515L1313.9031348137628,234.04319587516088L1314.596091607481,234.79946649388674L1316.0948711513572,237.63942151980376L1316.4861945896464,236.58050829183318L1316.955811936553,238.5154320480582L1316.9792434935289,241.36499224084946L1318.1167058720014,242.22786840472205L1320.63286791351,242.53606314401375L1321.2843126815023,245.77477867241168L1321.9580932204863,245.6926868715499L1323.3007049984217,246.4734088408174L1324.511932036774,242.88452251469482L1325.597417633365,242.8815941374906L1325.7119272687814,242.453855016867L1328.0602331605114,242.72815176433693L1328.3101636805554,243.17392899968638L1330.9969213368054,238.5915896497334L1332.3745069507577,241.00447620227342L1333.2256221882892,242.77192977193235L1333.7230542361112,242.99851530614256L1334.320440228851,242.12798801022115L1334.6435875157829,243.86866480868798L1335.672347924558,244.00161508738475L1335.7041622443182,242.05924782427707L1336.4268331013257,241.61311065063552L1338.0349903495896,236.76876905304016L1338.1799993615846,237.47057869508416L1338.5337008143938,231.19224189082155L1340.093040797033,229.1159056071983L1340.5767755200443,231.24914476611855L1340.8727473145518,231.92839805120076L1341.4027059430239,234.91551334352067L1342.02133192077,234.61956134199258L1343.275057192235,230.8951271406937L1345.2125711813449,227.8711080695896L1345.4091369239268,227.07256685915118L1345.6643637428976,222.21218183027847L1347.3679822135416,222.26247955573672L1347.6316648476957,224.43148262237628L1348.8260167818814,219.04588522901977L1349.5264979726958,217.58662744466682L1349.9557173429607,214.29088332796678L1353.013909921875,217.72650082877178L1355.9383252951388,215.26027570445603L1356.2947296867108,218.26698434878762L1357.499893375947,220.1848116964695L1357.588195463226,214.65658994199904L1358.069848192866,213.14697645069924" style="fill: none;" fill="none"></path></g></g></g></g><g opacity="0.2"><g><g><g><path stroke="rgb(0, 119, 187)" stroke-width="2px" d="M131.4943181818182,323.19L131.50114858112374,324.135L131.56359011916038,326.96999999999997L131.6171923169192,324.6075L131.78831756155304,325.5525L131.81814120344063,324.6075L132.04036660116793,313.2675L132.057862650726,318.46500000000003L132.14139806897097,319.8825L132.22633974589644,321.3L132.38650713068182,309.4875L132.39567520675504,317.52L132.43811865056819,314.21250000000003L132.90485042771465,321.77250000000004L133.10119701309975,292.47749999999996L133.19605555318813,305.7075L133.60688398200756,300.9825L133.81133938368055,304.7625L133.90154083333334,304.28999999999996L133.9501937310606,306.18L134.27684753314395,306.65250000000003L134.38259088068182,305.235L134.51759171401517,318.9375L134.59891729719067,300.51L134.95395195628157,314.21250000000003L135.03312249368688,301.455L135.46730942708334,311.3775L135.58260437578915,295.78499999999997L135.6011231589331,291.53249999999997L135.71035475852275,289.17L135.7559394554924,308.07L135.9487429995265,301.455L137.15018101641414,306.18L137.51467596117425,287.28000000000003L138.09611826783458,306.18L138.2663120943813,310.4325L139.0140216611427,188.5275L139.0504200189394,309.4875L139.9943300662879,245.70000000000002L141.69926348011364,262.2375L144.18644198232323,232.47L145.8368783065025,109.62000000000002L145.9715504040404,250.42499999999998L146.58581150094696,128.51999999999998L146.71924170770203,232.9425L148.53965270123106,133.245L148.87799488715277,259.40250000000003L149.84013150804924,207.42750000000004L150.16678531013258,300.51L151.53323043323863,89.77500000000002L152.3581929119318,261.765L153.66038845012628,245.22749999999996L154.9290346740846,198.45000000000002L155.46889190261996,271.6875L156.14259938920455,293.4225L159.2561108972538,149.7825L161.03555775804926,215.9325L161.70002411616164,24.09749999999999L162.11919878156564,138.91500000000002L162.79849477667298,246.64500000000004L162.91599956044823,-8.032499999999997L163.066085714173,135.60750000000002L164.95743058712122,288.6975L168.47254765861743,153.5625L168.95458391335225,223.02000000000004L169.6986591232639,206.00999999999996L169.96283486111113,-126.1575L170.37231182054924,204.5925L172.01295912326387,193.2525L172.65207629892677,180.495L173.3213458522727,215.9325L176.2461812768308,164.43L177.67431915088386,72.29250000000002L180.50977496527778,140.805L181.500785546875,148.8375L186.6707951388889,217.82249999999996L187.26005405224114,267.90749999999997L188.10395536537246,126.1575L189.38100261521467,-4.724999999999984L189.82972697601008,199.8675L189.9164401736111,31.185000000000006L191.58954100457703,31.657499999999995L191.98869931265781,102.5325L194.99460463699495,77.0175L195.50701242660983,220.185L197.6807413478535,211.20750000000004L199.47047033380682,82.6875L199.51468529829546,204.12L202.78962434501258,220.185L203.9154166027462,264.59999999999997L204.1028325323548,30.712500000000016L204.41677521701388,214.98749999999998L205.63746254103532,212.625L205.67154148516414,216.8775L206.09478882181185,244.2825L206.21475912405302,27.877499999999994L206.38199432844064,234.35999999999999L207.70559421953914,198.92249999999999L208.68394847301136,239.5575L209.07649553898358,153.5625L215.83334934185604,228.2175L217.5198552880366,238.61249999999998L218.10095059580178,201.285L219.58307419270832,242.86500000000004L224.2291702422664,239.08500000000004L227.841173057923,189L230.56016508522725,237.195L232.26232250789144,10.394999999999989L232.59440045059975,-85.52250000000002L235.552200770202,297.2025L238.28127402856694,180.9675L239.71584051373105,171.04500000000002L241.12562397253788,236.25L241.69691199573865,189.945L241.76587346038514,236.25L241.83193109217171,137.025L244.55225632575755,201.7575L249.6542176081124,233.88750000000002L251.2231457181187,241.92000000000002L252.26996833254418,203.17499999999998L257.14309297506315,218.76749999999998L257.95938048137623,249.0075L258.0414000623422,201.7575L261.2330959004103,244.755L263.9692552414773,225.85499999999996L264.4156601886048,259.40250000000003L266.1146763581124,305.235L266.83743853061867,218.29500000000002L267.04658754892677,208.845L268.50745289772726,196.0875L270.88594769333963,249.95250000000001L271.8166535195707,187.10999999999999L272.97175805239897,240.975L275.8178795170454,-101.11500000000002L278.4894605374053,253.73250000000002L278.84615713857323,245.70000000000002L281.34511534011995,216.8775L281.7896757141729,224.91L282.05739449337125,120.95999999999998L283.13027855113637,218.29500000000002L283.3704931021149,197.97749999999996L285.11792474905303,184.7475L286.9342995975379,203.64750000000004L287.36624016966545,254.67750000000004L287.4499947451073,220.6575L290.5452796796086,213.57L296.9454368813131,-120.48750000000004L298.6286006802399,-12.28499999999999L299.9317276365215,200.34L304.03906224352903,189.945L306.5800986268939,198.45000000000002L306.83401050268304,191.83500000000004L307.33770679371844,122.3775L313.6483565435606,115.7625L316.2013369941604,230.57999999999998L317.39130578440654,93.55500000000002L319.543064196654,183.80249999999998L320.2039327241162,196.0875L322.52705380129424,208.3725L326.6145729450758,66.15000000000002L327.37928545770205,125.21250000000002L327.63480448626893,203.17499999999998L337.90936872080175,213.57L338.3009661055871,-97.80750000000002L344.52565144491786,223.4925L346.5171328937816,228.69L353.7118810392992,235.7775L361.0401507070707,170.57250000000002L362.3861776846591,221.60249999999996L363.29045680555555,204.5925L367.6935623129734,211.20750000000004L369.2565366524621,198.45000000000002L373.9248771575126,220.185L374.0408113147096,220.185L376.025005786774,237.195L377.23500919744316,232.9425L379.33110168166036,250.42499999999998L379.720580546875,245.70000000000002L380.8445282315341,242.39249999999998L383.55510096985483,231.525L384.2230921062184,208.3725L384.33752868923614,215.46000000000004L385.5826520407197,199.8675L385.6464085219381,241.92000000000002L385.93224429608586,219.7125L387.3393065530304,165.375L388.2455763517992,229.63499999999996L389.47077466145834,230.10750000000002L390.11383666666666,198.45000000000002L391.6230809666982,186.63750000000002L393.00830055634464,-13.22999999999997L399.31597342092806,257.985L399.70125177320074,252.7875L401.74701115451387,230.57999999999998L402.6485873366477,253.25999999999996L403.0741175607639,228.2175L403.2803992724116,223.4925L403.93255630129426,250.89750000000004L407.0560211987059,219.7125L408.2540805421402,117.6525L408.52417352430564,216.405L409.95145303267043,244.755L410.9273417676768,234.35999999999999L411.56382905697603,234.35999999999999L412.61735422900887,245.70000000000002L417.1185691082702,215.9325L418.1252494294508,224.4375L420.8640386568813,170.1L421.52034140940657,199.39500000000004L422.7569724195076,207.42750000000004L425.13683694760107,254.20499999999998L426.61875965041037,209.3175L426.74676571654044,223.02000000000004L427.3094518197601,230.57999999999998L428.61455119081444,226.79999999999998L434.6340688675821,209.78999999999996L435.2150728598485,196.56L436.20602865214653,194.19749999999996L442.78611391256305,222.54749999999999L444.1127454782197,249.95250000000001L445.09188504498104,243.3375L449.3451235558712,238.14000000000001L449.72455771622475,211.68L451.78684520280933,174.35250000000002L455.5502308522727,225.3825L457.44099130602905,234.83250000000004L461.070179698548,242.86500000000004L461.73300237768314,212.1525L462.09671200915403,230.57999999999998L462.1391737160669,208.3725L463.0091364725379,239.08500000000004L463.9259440798611,243.3375L464.7389259651199,193.725L466.74280805871217,190.89000000000001L467.1352090198864,243.81L467.2558185306187,225.85499999999996L467.877257025726,236.25L469.2417845233586,226.79999999999998L473.32711209517043,210.73499999999999L474.7538437105429,215.46000000000004L476.5749121756629,214.51500000000001L476.88739381234217,228.69L479.99139024542296,227.27250000000004L481.19931166272096,204.12L481.6064692084911,214.04249999999996L483.2252373177083,232.9425L486.1735042992424,244.2825L487.35229607244315,251.37L489.2863218095013,245.70000000000002L490.51188538115525,241.44749999999996L490.92972684027774,231.9975L491.3716025386679,226.79999999999998L491.98619237136995,237.66749999999996L495.4234538486426,257.03999999999996L496.5099621788195,227.745L496.7059982915088,224.4375L499.1077054869003,250.42499999999998L500.6197257780935,201.285L501.5460301972854,257.985L501.6995863399621,243.81L501.97152389520204,251.37L504.6718510345644,236.7225L504.7593678085543,234.35999999999999L505.69896776436235,233.88750000000002L505.9930219333965,250.42499999999998L507.7577304726957,229.1625L508.8813676846591,228.2175L509.9147669207702,231.9975L509.93984215672356,259.40250000000003L511.9256803077652,241.44749999999996L516.3126594981061,244.2825L516.4188411600379,238.61249999999998L518.1241946251578,245.70000000000002L518.3180391658775,260.82L518.9603889101958,223.965L519.0497137310606,239.08500000000004L519.7799272482639,227.745L520.0819989180872,240.975L520.8200107788826,251.37L521.409981953125,243.81L522.0776808798927,221.13L522.2961075528725,192.3075L524.1043005326705,223.965L524.3841642732008,225.3825L531.1053685053662,217.35L531.392866221591,227.745L532.3193897979797,227.745L534.4560811529357,212.625L535.6270015301452,257.5125L536.269953956755,260.82L537.6486901459912,243.3375L537.7445348934659,242.86500000000004L538.4271912989268,226.79999999999998L538.657598565341,246.17249999999999L539.7037271819761,185.22L542.0973620872791,221.13L542.4677377501579,236.7225L542.6892143607954,246.64500000000004L543.1427967061237,243.81L543.8902688525884,242.86500000000004L545.1918799715909,257.03999999999996L546.1341280768623,249.0075L546.8678663723169,261.765L547.3840911497789,249.0075L549.7110657410038,237.195L552.3452621961804,233.41499999999996L552.4783271409407,241.44749999999996L554.0035516532513,245.70000000000002L555.0179390025253,198.92249999999999L558.0959470446654,145.0575L562.1004786631944,133.7175L562.3734937413194,101.58750000000002L562.508037997159,199.8675L563.872547231692,237.195L565.593588699495,238.14000000000001L567.205928197601,251.37L567.856094548611,249.47999999999996L571.0677702178031,220.185L571.8437327998738,156.87L572.1601044767993,204.12L576.0530485558711,237.195L576.180780675505,240.975L576.9416579371843,211.68L578.9997631739268,227.27250000000004L579.342689397885,233.41499999999996L579.4850685235164,230.57999999999998L580.6318450828599,240.975L581.9367070336174,221.13L584.2842641382576,238.14000000000001L585.0484835471907,201.7575L585.6764784951073,248.535L586.4227818031881,212.625L587.2774583451704,219.24000000000004L589.1822813857324,181.9125L591.4624659154041,240.03L591.5040875197286,205.5375L592.2817120438763,247.1175L592.5434953156565,225.85499999999996L593.5317846953914,233.88750000000002L593.9150906328914,225.3825L594.1055017108586,233.88750000000002L594.5565820115214,228.2175L594.8765149928978,249.0075L595.3407447253787,206.00999999999996L596.811252990846,235.305L596.9327391303661,229.63499999999996L598.5673230839647,215.9325L598.8634227201704,167.73749999999998L600.0586147569445,199.39500000000004L600.3141520486112,231.525L600.4074034359218,200.34L602.2019538802084,203.17499999999998L602.5245532741478,211.20750000000004L603.1946264038826,155.45250000000001L603.4312431242109,225.85499999999996L606.4027772948233,204.12L607.3873227391099,189L607.9144871133208,17.010000000000016L610.926309681976,169.6275L612.6846261363636,132.77249999999998L612.8015282378473,160.17749999999998L612.8492862436867,197.505L615.6303180208334,195.61500000000004L616.1402055026831,191.83500000000004L623.1787493560605,228.69L624.874368589015,251.37L625.4333290198864,233.88750000000002L626.2866175662879,250.42499999999998L626.526211171875,248.0625L626.9785333633207,233.88750000000002L627.4875442163826,238.61249999999998L628.4490051025884,231.05250000000004L630.0183715269885,241.44749999999996L630.6285051633522,221.13L630.9921234793245,259.40250000000003L633.2054102746213,156.39749999999998L636.5711899794823,244.755L639.008528482481,227.27250000000004L639.663479765625,169.155L639.8127258167614,238.61249999999998L640.3304846946022,243.3375L640.9669902470011,224.91L641.2394756952335,213.57L642.4627563794191,198.92249999999999L646.0290283933081,235.7775L646.8109264827967,241.44749999999996L646.9352434027778,232.47L647.4829537642046,235.7775L648.9840161955493,229.63499999999996L651.247416936553,214.04249999999996L651.3363399692236,223.02000000000004L651.9058199455492,221.60249999999996L655.6757985740214,205.065L656.9873630823863,115.7625L657.9916692005997,163.48499999999999L663.6655577146465,145.0575L668.0645174984217,220.6575L670.1355530097853,189.4725L671.5730050647096,202.22999999999996L673.8833237089647,190.89000000000001L674.5644094878471,219.7125L675.9263984146149,221.60249999999996L679.2667741477272,220.6575L679.9184563360164,128.9925L680.9326245280934,122.3775L683.6982787752526,164.9025L684.456325256471,200.34L687.3607425355113,199.8675L688.1919875205176,196.56L689.5869048161301,237.195L690.5763995604482,157.3425L691.2893544483901,102.06L692.1395382678346,212.1525L692.4143431297348,109.62000000000002L693.1960585882259,181.44L694.9629221732955,177.1875L696.6741198303346,173.4075L699.5624655815972,85.52249999999998L705.8574638549558,-141.75L708.5245156265784,62.8425L713.4124333798927,258.93L713.7346857749369,216.8775L714.7929228267045,108.2025L717.0598848721592,194.67000000000002L718.1757785298296,240.975L719.6702114559658,171.98999999999998L721.4691998334912,253.73250000000002L721.9345436150568,257.03999999999996L722.1291552059658,241.92000000000002L722.3087180026831,232.47L724.2987931928662,129.465L724.4811502438447,176.715L726.7881815301452,71.3475L728.4712905397727,169.155L731.146378075284,93.08249999999998L733.4952135969066,122.84999999999998L735.569372098327,-141.75L738.5254739496528,-3.7800000000000034L741.9620231660354,215.46000000000004L743.2714143655302,-45.83250000000003L743.4914481912879,160.17749999999998L743.9228043442236,160.17749999999998L744.2622057899306,194.67000000000002L745.7778604379735,192.3075L748.6220460140468,241.44749999999996L752.5768837381629,238.61249999999998L754.7993203464331,212.625L754.8337097632575,223.02000000000004L755.040594157197,210.26250000000002L755.3724712058081,232.47L755.9210764591226,245.22749999999996L756.3280148476956,229.63499999999996L756.5367620778094,216.8775L758.9188181778725,215.9325L760.6853165009469,231.525L762.3288858996212,212.625L763.7147264346592,204.5925L764.686305078125,191.36249999999998L764.8203014409722,220.185L767.5561503093434,221.13L767.7166646930241,231.525L768.7263036363636,214.98749999999998L769.0210152769887,230.10750000000002L769.173439107481,202.22999999999996L769.3742418892045,233.41499999999996L771.397994235322,225.3825L772.5258319602273,231.525L772.5560939165089,236.25L772.809567477904,234.83250000000004L772.9609137855113,231.525L773.5708282646781,218.76749999999998L776.1884966145833,206.00999999999996L776.889397856692,221.13L778.3027426199495,226.79999999999998L778.351943410669,179.54999999999998L779.3151027651514,219.24000000000004L782.537663241793,189.4725L784.6123696362058,219.7125L786.1621762807765,224.91L786.3031308846275,249.0075L787.7751001980746,238.14000000000001L788.3481962681503,235.7775L790.383417840909,237.195L792.2601704971592,252.315L793.0735541706124,231.05250000000004L795.7047737405303,249.47999999999996L796.6933370667613,221.13L797.2443530492425,237.195L797.2999459248738,224.91L798.2600370785985,202.22999999999996L799.2594121598801,253.73250000000002L801.3511762894572,207.42750000000004L808.341231613005,197.97749999999996L809.3964004640151,241.44749999999996L809.8450517724116,203.64750000000004L810.0564106257891,196.56L811.8855331178978,202.22999999999996L812.0048094223486,204.5925L812.7228414520201,231.05250000000004L813.3945217345329,212.1525L817.6611105713384,245.22749999999996L818.2118526073232,237.66749999999996L820.3122551830808,240.03L821.7049809067233,245.22749999999996L822.4936728693182,205.5375L825.3611621606692,228.69L825.727848677399,210.26250000000002L825.8611510424557,244.2825L827.7469987223801,210.73499999999999L830.5407233538509,201.285L831.4546819176136,177.1875L832.2099706707702,171.98999999999998L834.4225452051768,204.5925L835.9118279371843,202.70250000000001L838.9389367203283,218.29500000000002L841.1456122735163,230.10750000000002L842.1387048484847,246.64500000000004L842.3002419657512,220.6575L845.5000831463068,213.57L847.1556148753157,180.495L849.9589093710542,226.79999999999998L853.5325231510416,228.2175L853.5743273863636,209.78999999999996L854.9271117108585,154.98000000000002L855.3623031147412,241.92000000000002L855.9716879640151,223.965L857.8224704924244,211.20750000000004L865.4287228014521,199.8675L866.7875887381629,189.945L868.4400340033143,220.6575L869.5769119625947,121.905L871.5415283917297,154.98000000000002L872.2218653835226,215.46000000000004L874.2928826317867,225.3825L874.6977025007891,162.54000000000002L876.2153295636048,162.54000000000002L877.2817302209596,150.255L877.3949979655935,169.6275L879.1704086813447,67.56749999999998L879.2783070746527,83.16L879.3427210274622,194.19749999999996L879.5282741208965,197.505L881.1434261363636,164.43L884.8825583893623,97.80750000000002L886.755000954072,169.155L888.2131268379104,66.15000000000002L889.9075407062816,-36.38249999999998L890.7696868560605,210.26250000000002L891.3291951799242,41.58L897.3165150118372,147.42000000000002L898.474614693024,167.73749999999998L899.031639235322,161.1225L899.868472728851,234.83250000000004L900.3476416769255,239.08500000000004L900.6904765853851,202.70250000000001L900.7790343560606,146.94750000000002L902.3616597908775,248.0625L902.7849071275253,223.965L903.6622116500946,216.405L904.3253265388257,245.70000000000002L907.8564420857007,203.17499999999998L910.1829966256313,233.88750000000002L910.2495838873107,214.98749999999998L911.9954449076705,230.10750000000002L913.0107088857324,238.61249999999998L915.7509408980428,257.985L915.976727600221,252.315L916.3615859011996,252.7875L916.4501071456755,253.73250000000002L916.6937186332073,244.2825L917.4178870643939,248.0625L918.2405666556186,237.195L918.5425470099432,243.81L919.6010580082071,260.34749999999997L920.2420014938447,250.89750000000004L920.7020489764835,260.34749999999997L922.4622100039456,265.0725L923.0712478543245,246.17249999999999L923.8730892487373,241.44749999999996L925.2417989962121,252.315L926.3145004229798,258.45750000000004L928.5850237728852,249.95250000000001L928.6083457512626,238.61249999999998L930.5988775189394,253.25999999999996L930.8142907804609,248.0625L931.8147616477273,243.81L933.3220700591856,228.2175L934.9278896306818,249.0075L935.0932254726957,241.92000000000002L935.8626681281565,231.9975L936.7622901586174,257.985L938.2093668671087,256.09499999999997L939.3702608025568,255.6225L940.355920295928,256.5675L940.9134562050189,253.73250000000002L941.3690657544191,254.20499999999998L941.4964143489584,240.5025L942.0382257291666,254.20499999999998L942.5286812728851,256.5675L943.0560100149937,264.59999999999997L944.772394392361,242.39249999999998L946.120704257418,251.8425L947.4121793560605,271.6875L948.3683439433396,257.03999999999996L948.4476788486427,266.0175L948.9375682362689,254.20499999999998L953.1426469531251,271.6875L953.4531561750316,250.42499999999998L953.5127669326074,250.89750000000004L953.963281077178,262.71000000000004L954.087597997159,266.0175L955.3036464938448,247.59L955.6469927690971,249.47999999999996L956.5598190206756,234.35999999999999L956.7159502604168,251.37L957.0949826325758,233.88750000000002L957.4052361710858,243.3375L957.629634877683,250.42499999999998L958.7582761789772,260.82L958.9281230066288,243.81L959.0204612389521,253.25999999999996L959.1468966785037,245.22749999999996L960.7116973279672,244.755L961.4891574842171,244.2825L962.1267040333018,232.9425L964.1035384761678,242.39249999999998L964.8080558120265,258.45750000000004L965.7946649865847,241.92000000000002L966.3398185140468,239.08500000000004L966.5393246156881,231.05250000000004L967.7678650726011,207.42750000000004L968.1478653890467,218.76749999999998L968.291760351957,243.3375L968.4618080737058,237.195L968.559296500158,218.29500000000002L970.8805912673611,221.60249999999996L970.9240574447601,198.45000000000002L971.0003058862058,218.76749999999998L972.2733535172033,254.67750000000004L972.3666414307133,214.04249999999996L973.2558352312185,249.47999999999996L974.0896553132891,225.85499999999996L974.179491500947,231.9975L974.3071140419823,231.9975L975.7291885669191,222.07500000000002L976.1379532654671,228.69L976.3919381936553,234.35999999999999L976.450325323548,233.41499999999996L977.4320765135732,236.25L977.6768020501894,233.88750000000002L978.0037663249685,258.45750000000004L979.1759468560605,240.975L980.3500632757261,248.0625L981.5626600465594,232.9425L981.8956876704544,243.3375L981.9250364717486,239.08500000000004L982.4757967708332,220.6575L982.5230981991792,243.3375L982.6363294176135,251.8425L982.8776762807765,251.8425L985.6513480287248,250.42499999999998L985.6757840561869,238.14000000000001L986.1774531431503,240.5025L987.9624702493687,223.4925L987.9924582591541,237.66749999999996L988.0940376199495,235.7775L988.1228567913511,241.92000000000002L989.2785274802715,231.9975L989.5207144460227,224.91L990.1748804158776,217.35L991.0897703977273,239.08500000000004L991.750383241793,250.42499999999998L992.7635469633838,226.79999999999998L993.8391522230113,236.25L995.2201895628157,212.625L995.4897346519887,198.92249999999999L996.4068162058081,237.66749999999996L996.667613270202,204.12L996.7839309524937,242.86500000000004L998.8678419491794,238.14000000000001L1001.2229782402146,177.66L1002.1571357922979,200.34L1005.6814209398674,209.78999999999996L1005.7888810187815,211.68L1005.944774838226,230.57999999999998L1008.4210320067866,195.14249999999998L1009.2181249952653,141.2775L1011.7390719689079,245.22749999999996L1012.9062118844696,215.9325L1012.9387019389204,232.9425L1015.4217347174874,215.46000000000004L1017.3341734706439,240.03L1017.6912353338067,226.32750000000001L1018.554312901673,215.46000000000004L1018.5819084453914,237.66749999999996L1019.6723616051137,227.745L1020.3085201586174,251.37L1020.4469727178031,243.81L1020.9667405366162,243.3375L1021.1354367889836,226.79999999999998L1021.726704643308,237.66749999999996L1021.891675223327,226.79999999999998L1023.7774133246528,218.76749999999998L1025.5147272143308,217.82249999999996L1026.383575921717,221.60249999999996L1026.5901315798612,222.54749999999999L1028.9939025055241,233.88750000000002L1033.0795588131314,227.745L1033.904411713226,206.00999999999996L1034.3064738541666,229.63499999999996L1035.1961059690657,172.935L1035.4278099155617,215.46000000000004L1035.781383526673,186.63750000000002L1035.9723424976326,214.04249999999996L1036.230418360164,189L1036.7145000820706,189L1037.631307689394,240.03L1039.6184425205176,245.22749999999996L1039.6969007970326,230.10750000000002L1040.8732453148673,224.4375L1041.8132653219698,235.305L1042.8220093734217,225.3825L1045.272095520044,238.61249999999998L1045.6275502304295,247.1175L1048.2521585582385,242.86500000000004L1048.4345156092172,244.755L1048.7427967329545,240.5025L1050.002749721433,236.7225L1050.0587626483587,240.5025L1050.332690881471,228.2175L1050.3566703314393,240.5025L1050.4760014251895,239.08500000000004L1052.7595828914143,249.47999999999996L1052.8381142203282,239.08500000000004L1056.6904046393622,241.44749999999996L1056.7969333001895,232.9425L1056.817260130208,251.8425L1057.261345663668,239.5575L1057.621274833491,254.20499999999998L1057.8769034406566,250.89750000000004L1058.129920424558,233.41499999999996L1058.2480644168245,226.32750000000001L1058.3732031762943,243.3375L1058.4550218631628,257.985L1058.5924151625632,254.20499999999998L1059.2450470320393,250.89750000000004L1059.495160183081,249.95250000000001L1060.2009194097222,250.89750000000004L1060.2448056384155,257.03999999999996L1061.3196986371527,239.08500000000004L1061.8491093726327,243.3375L1063.0265131502524,250.89750000000004L1063.6047776775567,252.7875L1064.0326455784405,256.5675L1064.3459673177083,251.8425L1065.0801621906564,256.09499999999997L1067.6637698595327,247.59L1068.882959609375,235.305L1070.3870537152777,255.15L1070.8698752833018,242.39249999999998L1071.1770423579544,257.03999999999996L1071.7267981865532,246.17249999999999L1073.3387358964644,239.08500000000004L1073.7212017313764,240.975L1074.7424560061554,208.845L1075.3793816098487,229.1625L1075.744862761995,231.05250000000004L1078.3598464362374,228.2175L1078.6711044452336,229.1625L1081.3953197190656,206.00999999999996L1083.4375725852274,173.4075L1084.9863199700128,119.06999999999998L1085.0537108080807,218.29500000000002L1086.1815850591859,166.79250000000002L1087.7893587823548,221.13L1089.7470352335858,168.20999999999998L1091.5638483964644,215.46000000000004L1091.6409004142993,215.46000000000004L1091.9235766721908,235.7775L1092.9510769270832,210.73499999999999L1093.8234321496213,214.98749999999998L1094.3074773453282,224.91L1096.6554362381628,197.505L1101.5217122182767,168.6825L1103.768950116004,154.98000000000002L1104.0039231573546,175.76999999999998L1107.4367101751893,109.14749999999998L1109.2621069949496,227.745L1110.218308108428,235.305L1110.9566669681185,235.7775L1111.187567338226,199.8675L1112.9966917361112,226.32750000000001L1114.7372929837436,216.405L1115.761925931976,246.17249999999999L1116.2983131715594,231.525L1116.4874823587438,231.525L1117.5503034485478,237.66749999999996L1118.4360637863006,200.8125L1118.8864135629738,233.41499999999996L1119.9035586403093,168.6825L1121.13514903488,218.76749999999998L1123.7932518876262,196.0875L1125.9610087752526,216.8775L1126.6311549573863,244.755L1126.964365212279,218.29500000000002L1127.1283130587124,248.535L1127.1836867771465,235.305L1129.5717149108273,242.86500000000004L1131.3487875686553,240.03L1134.354145,241.92000000000002L1134.7786890167297,220.6575L1136.2947271898674,223.965L1137.0989610503473,236.25L1139.1609015380368,232.9425L1140.0088937855112,220.6575L1143.0404770280936,178.1325L1144.2102833562185,246.64500000000004L1145.3307427888258,219.7125L1145.9525648090275,208.3725L1146.6083927209597,147.89249999999998L1148.4158551767678,193.2525L1152.1099140995896,218.29500000000002L1152.7469675449813,156.87L1153.3921115435608,180.02249999999998L1154.375816885259,73.70999999999998L1154.8145330673926,122.3775L1155.563320157039,179.54999999999998L1158.562942975063,226.79999999999998L1158.614864967645,131.82750000000001L1159.2959142203283,136.07999999999998L1164.360984041193,199.39500000000004L1164.9513752667297,239.08500000000004L1165.365984157197,199.8675L1168.0157042471592,243.81L1168.2954766721907,248.535L1168.4822533933082,238.14000000000001L1170.4696986971276,217.82249999999996L1171.8597762713066,243.3375L1176.965518015309,203.64750000000004L1178.2469666721906,233.41499999999996L1179.7344778835227,237.195L1179.7974307883524,219.24000000000004L1181.070606261048,211.20750000000004L1181.1017083199179,229.63499999999996L1181.1364447356375,210.73499999999999L1181.7468705815972,196.0875L1182.2836961355745,224.4375L1182.3796139354483,171.04500000000002L1186.8210171630367,205.5375L1193.6586851822915,181.9125L1194.0698971362058,227.745L1197.2355863202336,215.9325L1197.485498577178,178.60500000000002L1197.737602406092,195.14249999999998L1197.904673242582,84.10500000000002L1197.9497648358588,191.83500000000004L1201.4774651830808,140.33249999999998L1203.0431059351326,217.35L1204.8586224179294,246.17249999999999L1208.7188207591541,222.07500000000002L1209.0902191556186,188.055L1209.4648866469383,187.58249999999998L1211.1495297569445,232.9425L1211.96925072601,142.695L1213.3406634122475,196.56L1213.4330381707703,204.12L1214.3998318821025,203.17499999999998L1214.7302844089331,231.05250000000004L1215.0257265735481,166.32L1215.8668153693181,218.76749999999998L1218.2531815609218,183.32999999999998L1219.249671072443,192.3075L1219.375649934501,159.23250000000002L1220.4555287594696,183.80249999999998L1225.4791778701074,71.3475L1231.4423721472538,-72.29249999999998L1231.5716018410671,133.245L1233.0240661639837,166.79250000000002L1233.9348104221906,197.505L1234.677315005524,224.91L1238.237505407197,210.73499999999999L1242.120824832702,241.44749999999996L1242.7704432907196,242.86500000000004L1242.957950535827,236.7225L1243.8382867329547,236.7225L1245.3689719120896,254.67750000000004L1246.9129708909406,235.7775L1247.3252786308396,236.7225L1249.9612100804925,209.78999999999996L1250.8355194547034,179.07750000000001L1251.8457245541351,236.7225L1253.690808995423,206.00999999999996L1260.6028626199493,157.3425L1263.14203616714,234.83250000000004L1263.8592098311237,228.2175L1264.5888571922349,233.41499999999996L1265.3457348350694,176.2425L1265.9881941579863,204.5925L1266.130536757418,246.64500000000004L1266.6326806849747,159.23250000000002L1266.9950571101642,223.965L1267.496251356534,181.9125L1268.2729444625948,222.54749999999999L1270.392979870581,223.965L1271.3191747111741,229.63499999999996L1271.722314375,215.46000000000004L1272.046027818024,248.535L1272.2562360961174,228.2175L1272.3945425505049,249.0075L1273.386155814394,237.66749999999996L1274.9411126530933,208.845L1277.5154061410985,227.27250000000004L1278.619209626736,230.57999999999998L1278.8262583885733,221.60249999999996L1279.0674408838383,247.59L1280.536415048927,247.59L1280.6330085834913,233.88750000000002L1281.308998957544,225.3825L1281.6936563644256,231.9975L1282.2044387381627,246.64500000000004L1282.6989669531251,226.79999999999998L1286.4464819689078,219.7125L1288.6287397577337,236.7225L1288.6600061845015,208.845L1288.7871538849433,183.80249999999998L1289.8056504316603,221.13L1290.4846359540718,187.10999999999999L1291.8973232457386,210.73499999999999L1294.3800820778094,237.66749999999996L1294.5583481944445,208.845L1295.7630187799873,80.325L1297.956563164457,199.8675L1298.5281433972536,161.595L1300.1310226096907,243.3375L1301.2796620052084,221.60249999999996L1302.5737669902148,226.79999999999998L1303.1708242471589,216.8775L1303.3436479600693,250.42499999999998L1303.7725751207388,189L1304.4661528598485,223.4925L1305.6687231889205,206.48250000000002L1305.769937287721,220.6575L1307.147449849274,193.725L1308.7866726302084,254.67750000000004L1309.1513867321655,245.70000000000002L1309.7964211521464,201.7575L1309.9530637586806,243.3375L1310.0540769633837,232.47L1312.9173474786933,234.83250000000004L1312.976081607481,254.20499999999998L1313.484508041351,249.47999999999996L1313.9031348137628,242.39249999999998L1314.596091607481,239.08500000000004L1316.0948711513572,253.73250000000002L1316.4861945896464,230.57999999999998L1316.955811936553,249.47999999999996L1316.9792434935289,257.5125L1318.1167058720014,247.1175L1320.63286791351,244.2825L1321.2843126815023,264.1275L1321.9580932204863,245.22749999999996L1323.3007049984217,250.89750000000004L1324.511932036774,222.54749999999999L1325.597417633365,242.86500000000004L1325.7119272687814,240.03L1328.0602331605114,244.2825L1328.3101636805554,245.70000000000002L1330.9969213368054,212.625L1332.3745069507577,254.67750000000004L1333.2256221882892,252.7875L1333.7230542361112,244.2825L1334.320440228851,237.195L1334.6435875157829,253.73250000000002L1335.672347924558,244.755L1335.7041622443182,231.05250000000004L1336.4268331013257,239.08500000000004L1338.0349903495896,209.3175L1338.1799993615846,241.44749999999996L1338.5337008143938,195.61500000000004L1340.093040797033,217.35L1340.5767755200443,243.3375L1340.8727473145518,235.7775L1341.4027059430239,251.8425L1342.02133192077,232.9425L1343.275057192235,209.78999999999996L1345.2125711813449,210.73499999999999L1345.4091369239268,222.54749999999999L1345.6643637428976,194.67000000000002L1347.3679822135416,222.54749999999999L1347.6316648476957,236.7225L1348.8260167818814,188.5275L1349.5264979726958,209.3175L1349.9557173429607,195.61500000000004L1353.013909921875,237.195L1355.9383252951388,201.285L1356.2947296867108,235.305L1357.499893375947,231.05250000000004L1357.588195463226,183.32999999999998L1358.069848192866,204.5925" style="fill: none;" fill="none"></path></g></g></g></g></g></g><g transform="translate(51, 378)" clip-path="url(#clip_1)"><clipPath id="clip_1"><rect width="1446" height="22"></rect></clipPath><g><g><line x1="0" y1="0" x2="0" y2="5" style="visibility: inherit;" fill="rgb(0, 0, 0)" stroke="rgb(204, 204, 204)" stroke-width="1px"></line><line x1="131.4943181818182" y1="0" x2="131.4943181818182" y2="5" style="visibility: inherit;" fill="rgb(0, 0, 0)" stroke="rgb(204, 204, 204)" stroke-width="1px"></line><line x1="262.9886363636364" y1="0" x2="262.9886363636364" y2="5" style="visibility: inherit;" fill="rgb(0, 0, 0)" stroke="rgb(204, 204, 204)" stroke-width="1px"></line><line x1="394.4829545454545" y1="0" x2="394.4829545454545" y2="5" style="visibility: inherit;" fill="rgb(0, 0, 0)" stroke="rgb(204, 204, 204)" stroke-width="1px"></line><line x1="525.9772727272727" y1="0" x2="525.9772727272727" y2="5" style="visibility: inherit;" fill="rgb(0, 0, 0)" stroke="rgb(204, 204, 204)" stroke-width="1px"></line><line x1="657.4715909090909" y1="0" x2="657.4715909090909" y2="5" style="visibility: inherit;" fill="rgb(0, 0, 0)" stroke="rgb(204, 204, 204)" stroke-width="1px"></line><line x1="788.965909090909" y1="0" x2="788.965909090909" y2="5" style="visibility: inherit;" fill="rgb(0, 0, 0)" stroke="rgb(204, 204, 204)" stroke-width="1px"></line><line x1="920.4602272727273" y1="0" x2="920.4602272727273" y2="5" style="visibility: inherit;" fill="rgb(0, 0, 0)" stroke="rgb(204, 204, 204)" stroke-width="1px"></line><line x1="1051.9545454545455" y1="0" x2="1051.9545454545455" y2="5" style="visibility: inherit;" fill="rgb(0, 0, 0)" stroke="rgb(204, 204, 204)" stroke-width="1px"></line><line x1="1183.4488636363637" y1="0" x2="1183.4488636363637" y2="5" style="visibility: inherit;" fill="rgb(0, 0, 0)" stroke="rgb(204, 204, 204)" stroke-width="1px"></line><line x1="1314.9431818181818" y1="0" x2="1314.9431818181818" y2="5" style="visibility: inherit;" fill="rgb(0, 0, 0)" stroke="rgb(204, 204, 204)" stroke-width="1px"></line><line x1="1446.4375" y1="0" x2="1446.4375" y2="5" style="visibility: inherit;" fill="rgb(0, 0, 0)" stroke="rgb(204, 204, 204)" stroke-width="1px"></line></g><g transform="translate(0, 8)"><text x="0" y="0" dx="0em" dy="0.95em" style="text-anchor: middle; visibility: hidden; font-family: Roboto, sans-serif; font-size: 12px; font-weight: 200;" fill="rgb(50, 49, 63)" stroke="none" stroke-width="1px">-2</text><text x="131.4943181818182" y="0" dx="0em" dy="0.95em" style="text-anchor: middle; visibility: inherit; font-family: Roboto, sans-serif; font-size: 12px; font-weight: 200;" fill="rgb(50, 49, 63)" stroke="none" stroke-width="1px">0</text><text x="262.9886363636364" y="0" dx="0em" dy="0.95em" style="text-anchor: middle; visibility: inherit; font-family: Roboto, sans-serif; font-size: 12px; font-weight: 200;" fill="rgb(50, 49, 63)" stroke="none" stroke-width="1px">2</text><text x="394.4829545454545" y="0" dx="0em" dy="0.95em" style="text-anchor: middle; visibility: inherit; font-family: Roboto, sans-serif; font-size: 12px; font-weight: 200;" fill="rgb(50, 49, 63)" stroke="none" stroke-width="1px">4</text><text x="525.9772727272727" y="0" dx="0em" dy="0.95em" style="text-anchor: middle; visibility: inherit; font-family: Roboto, sans-serif; font-size: 12px; font-weight: 200;" fill="rgb(50, 49, 63)" stroke="none" stroke-width="1px">6</text><text x="657.4715909090909" y="0" dx="0em" dy="0.95em" style="text-anchor: middle; visibility: inherit; font-family: Roboto, sans-serif; font-size: 12px; font-weight: 200;" fill="rgb(50, 49, 63)" stroke="none" stroke-width="1px">8</text><text x="788.965909090909" y="0" dx="0em" dy="0.95em" style="text-anchor: middle; visibility: inherit; font-family: Roboto, sans-serif; font-size: 12px; font-weight: 200;" fill="rgb(50, 49, 63)" stroke="none" stroke-width="1px">10</text><text x="920.4602272727273" y="0" dx="0em" dy="0.95em" style="text-anchor: middle; visibility: inherit; font-family: Roboto, sans-serif; font-size: 12px; font-weight: 200;" fill="rgb(50, 49, 63)" stroke="none" stroke-width="1px">12</text><text x="1051.9545454545455" y="0" dx="0em" dy="0.95em" style="text-anchor: middle; visibility: inherit; font-family: Roboto, sans-serif; font-size: 12px; font-weight: 200;" fill="rgb(50, 49, 63)" stroke="none" stroke-width="1px">14</text><text x="1183.4488636363637" y="0" dx="0em" dy="0.95em" style="text-anchor: middle; visibility: inherit; font-family: Roboto, sans-serif; font-size: 12px; font-weight: 200;" fill="rgb(50, 49, 63)" stroke="none" stroke-width="1px">16</text><text x="1314.9431818181818" y="0" dx="0em" dy="0.95em" style="text-anchor: middle; visibility: inherit; font-family: Roboto, sans-serif; font-size: 12px; font-weight: 200;" fill="rgb(50, 49, 63)" stroke="none" stroke-width="1px">18</text><text x="1446.4375" y="0" dx="0em" dy="0.95em" style="text-anchor: middle; visibility: hidden; font-family: Roboto, sans-serif; font-size: 12px; font-weight: 200;" fill="rgb(50, 49, 63)" stroke="none" stroke-width="1px">20</text></g><line x1="0" y1="0" x2="1446.4375" y2="0" fill="rgb(0, 0, 0)" stroke="rgb(204, 204, 204)" stroke-width="1px"></line></g></g></g></g></svg>