<svg viewBox="0 0 1498 400" xmlns="http://www.w3.org/2000/svg"><g><g><g><g><g><line x1="51.5625" y1="378" x2="46.5625" y2="378" style="visibility: inherit;" fill="rgb(0, 0, 0)" stroke="rgb(204, 204, 204)" stroke-width="1px"></line><line x1="51.5625" y1="330.74999999999994" x2="46.5625" y2="330.74999999999994" style="visibility: inherit;" fill="rgb(0, 0, 0)" stroke="rgb(204, 204, 204)" stroke-width="1px"></line><line x1="51.5625" y1="283.5" x2="46.5625" y2="283.5" style="visibility: inherit;" fill="rgb(0, 0, 0)" stroke="rgb(204, 204, 204)" stroke-width="1px"></line><line x1="51.5625" y1="236.25" x2="46.5625" y2="236.25" style="visibility: inherit;" fill="rgb(0, 0, 0)" stroke="rgb(204, 204, 204)" stroke-width="1px"></line><line x1="51.5625" y1="188.99999999999997" x2="46.5625" y2="188.99999999999997" style="visibility: inherit;" fill="rgb(0, 0, 0)" stroke="rgb(204, 204, 204)" stroke-width="1px"></line><line x1="51.5625" y1="141.75" x2="46.5625" y2="141.75" style="visibility: inherit;" fill="rgb(0, 0, 0)" stroke="rgb(204, 204, 204)" stroke-width="1px"></line><line x1="51.5625" y1="94.49999999999996" x2="46.5625" y2="94.49999999999996" style="visibility: inherit;" fill="rgb(0, 0, 0)" stroke="rgb(204, 204, 204)" stroke-width="1px"></line><line x1="51.5625" y1="47.25000000000004" x2="46.5625" y2="47.25000000000004" style="visibility: inherit;" fill="rgb(0, 0, 0)" stroke="rgb(204, 204, 204)" stroke-width="1px"></line><line x1="51.5625" y1="0" x2="46.5625" y2="0" style="visibility: inherit;" fill="rgb(0, 0, 0)" stroke="rgb(204, 204, 204)" stroke-width="1px"></line></g><g transform="translate(41.5625, 0)"><text x="0" y="378" dx="0em" dy="0.3em" style="text-anchor: end; visibility: hidden; font-family: Roboto, sans-serif; font-size: 12px; font-weight: 200;" fill="rgb(50, 49, 63)" stroke="none" stroke-width="1px">0.35</text><text x="0" y="330.74999999999994" dx="0em" dy="0.3em" style="text-anchor: end; visibility: inherit; font-family: Roboto, sans-serif; font-size: 12px; font-weight: 200;" fill="rgb(50, 49, 63)" stroke="none" stroke-width="1px">0.4</text><text x="0" y="283.5" dx="0em" dy="0.3em" style="text-anchor: end; visibility: inherit; font-family: Roboto, sans-serif; font-size: 12px; font-weight: 200;" fill="rgb(50, 49, 63)" stroke="none" stroke-width="1px">0.45</text><text x="0" y="236.25" dx="0em" dy="0.3em" style="text-anchor: end; visibility: inherit; font-family: Roboto, sans-serif; font-size: 12px; font-weight: 200;" fill="rgb(50, 49, 63)" stroke="none" stroke-width="1px">0.5</text><text x="0" y="188.99999999999997" dx="0em" dy="0.3em" style="text-anchor: end; visibility: inherit; font-family: Roboto, sans-serif; font-size: 12px; font-weight: 200;" fill="rgb(50, 49, 63)" stroke="none" stroke-width="1px">0.55</text><text x="0" y="141.75" dx="0em" dy="0.3em" style="text-anchor: end; visibility: inherit; font-family: Roboto, sans-serif; font-size: 12px; font-weight: 200;" fill="rgb(50, 49, 63)" stroke="none" stroke-width="1px">0.6</text><text x="0" y="94.49999999999996" dx="0em" dy="0.3em" style="text-anchor: end; visibility: inherit; font-family: Roboto, sans-serif; font-size: 12px; font-weight: 200;" fill="rgb(50, 49, 63)" stroke="none" stroke-width="1px">0.65</text><text x="0" y="47.25000000000004" dx="0em" dy="0.3em" style="text-anchor: end; visibility: inherit; font-family: Roboto, sans-serif; font-size: 12px; font-weight: 200;" fill="rgb(50, 49, 63)" stroke="none" stroke-width="1px">0.7</text><text x="0" y="0" dx="0em" dy="0.3em" style="text-anchor: end; visibility: hidden; font-family: Roboto, sans-serif; font-size: 12px; font-weight: 200;" fill="rgb(50, 49, 63)" stroke="none" stroke-width="1px">0.75</text></g><line x1="51.5625" y1="0" x2="51.5625" y2="378" fill="rgb(0, 0, 0)" stroke="rgb(204, 204, 204)" stroke-width="1px"></line></g></g><g transform="translate(51, 0)" clip-path="url(#clip_0)"><clipPath id="clip_0"><rect width="1446" height="378"></rect></clipPath><g><g><g><line x1="0" y1="0" x2="0" y2="378" fill="rgb(0, 0, 0)" stroke="rgb(60, 60, 60)" stroke-width="1px" opacity="0.25"></line><line x1="131.4943181818182" y1="0" x2="131.4943181818182" y2="378" fill="rgb(0, 0, 0)" stroke="rgb(60, 60, 60)" stroke-width="1px" opacity="0.25"></line><line x1="262.9886363636364" y1="0" x2="262.9886363636364" y2="378" fill="rgb(0, 0, 0)" stroke="rgb(60, 60, 60)" stroke-width="1px" opacity="0.25"></line><line x1="394.4829545454545" y1="0" x2="394.4829545454545" y2="378" fill="rgb(0, 0, 0)" stroke="rgb(60, 60, 60)" stroke-width="1px" opacity="0.25"></line><line x1="525.9772727272727" y1="0" x2="525.9772727272727" y2="378" fill="rgb(0, 0, 0)" stroke="rgb(60, 60, 60)" stroke-width="1px" opacity="0.25"></line><line x1="657.4715909090909" y1="0" x2="657.4715909090909" y2="378" fill="rgb(0, 0, 0)" stroke="rgb(60, 60, 60)" stroke-width="1px" opacity="0.25"></line><line x1="788.965909090909" y1="0" x2="788.965909090909" y2="378" fill="rgb(0, 0, 0)" stroke="rgb(60, 60, 60)" stroke-width="1px" opacity="0.25"></line><line x1="920.4602272727273" y1="0" x2="920.4602272727273" y2="378" fill="rgb(0, 0, 0)" stroke="rgb(60, 60, 60)" stroke-width="1px" opacity="0.25"></line><line x1="1051.9545454545455" y1="0" x2="1051.9545454545455" y2="378" fill="rgb(0, 0, 0)" stroke="rgb(60, 60, 60)" stroke-width="1px" opacity="0.25"></line><line x1="1183.4488636363637" y1="0" x2="1183.4488636363637" y2="378" fill="rgb(0, 0, 0)" stroke="rgb(60, 60, 60)" stroke-width="1px" opacity="0.25"></line><line x1="1314.9431818181818" y1="0" x2="1314.9431818181818" y2="378" fill="rgb(0, 0, 0)" stroke="rgb(60, 60, 60)" stroke-width="1px" opacity="0.25"></line><line x1="1446.4375" y1="0" x2="1446.4375" y2="378" fill="rgb(0, 0, 0)" stroke="rgb(60, 60, 60)" stroke-width="1px" opacity="0.25"></line></g><g><line x1="0" y1="378" x2="1446.4375" y2="378" fill="rgb(0, 0, 0)" stroke="rgb(60, 60, 60)" stroke-width="1px" opacity="0.25"></line><line x1="0" y1="330.74999999999994" x2="1446.4375" y2="330.74999999999994" fill="rgb(0, 0, 0)" stroke="rgb(60, 60, 60)" stroke-width="1px" opacity="0.25"></line><line x1="0" y1="283.5" x2="1446.4375" y2="283.5" fill="rgb(0, 0, 0)" stroke="rgb(60, 60, 60)" stroke-width="1px" opacity="0.25"></line><line x1="0" y1="236.25" x2="1446.4375" y2="236.25" fill="rgb(0, 0, 0)" stroke="rgb(60, 60, 60)" stroke-width="1px" opacity="0.25"></line><line x1="0" y1="188.99999999999997" x2="1446.4375" y2="188.99999999999997" fill="rgb(0, 0, 0)" stroke="rgb(60, 60, 60)" stroke-width="1px" opacity="0.25"></line><line x1="0" y1="141.75" x2="1446.4375" y2="141.75" fill="rgb(0, 0, 0)" stroke="rgb(60, 60, 60)" stroke-width="1px" opacity="0.25"></line><line x1="0" y1="94.49999999999996" x2="1446.4375" y2="94.49999999999996" fill="rgb(0, 0, 0)" stroke="rgb(60, 60, 60)" stroke-width="1px" opacity="0.25"></line><line x1="0" y1="47.25000000000004" x2="1446.4375" y2="47.25000000000004" fill="rgb(0, 0, 0)" stroke="rgb(60, 60, 60)" stroke-width="1px" opacity="0.25"></line><line x1="0" y1="0" x2="1446.4375" y2="0" fill="rgb(0, 0, 0)" stroke="rgb(60, 60, 60)" stroke-width="1px" opacity="0.25"></line></g></g></g><g><g><line x1="0" y1="708.75" x2="1446.4375" y2="708.75" fill="rgb(0, 0, 0)" stroke="rgb(153, 153, 153)" stroke-width="1.5px"></line></g></g><g><g><line x1="131.4943181818182" y1="0" x2="131.4943181818182" y2="378" fill="rgb(0, 0, 0)" stroke="rgb(153, 153, 153)" stroke-width="1.5px"></line></g></g><g><g><g><g><g><path stroke="rgb(0, 119, 187)" stroke-width="2px" d="M131.4943181818182,67.56603866815567L131.49957064930555,67.42004675639657L131.5404872979798,66.02485778988637L131.5840192225379,62.189256499676745L131.71027568371213,60.12276710178408L131.82915385258838,62.019238622424815L131.83740146843434,64.24253111030144L131.88669722727275,64.3053887868606L131.91709433049243,70.78463691818467L131.9939454542298,75.0000822818813L131.99719628598484,75.45382982533631L132.0069049498106,80.87532265350244L132.3309069498106,86.94335227160418L132.4439336215278,84.34008955388943L132.52652666382576,92.94609749961954L132.53521989930556,89.60026834354066L132.63495103440655,93.67293933978347L132.66131564520202,95.48807923247102L132.71766826578283,92.66374713167993L132.81644241445707,96.45751098205773L132.83263082607326,101.63609390285718L132.98525920328282,101.32141731430472L133.02457600441917,103.07953017629016L133.03914265277777,104.878311845774L133.10808220170455,111.13832700691539L133.3853452768308,120.22244552096465L133.4996941969697,121.66983870087019L133.6297859090909,126.58286262191841L133.73922570801767,125.83632695901255L133.9416466003788,131.013523372482L134.17044671401516,125.90935587436302L134.30507498011366,120.43971150940807L134.31065618339645,129.34418089648324L134.3522522193813,121.81122426353988L134.36157370549242,125.51716643966135L134.50089193560606,116.63072925020965L134.52128816540406,118.70705189585661L134.63939197885102,120.2143070674849L134.72935600820705,127.70644115669788L134.89960462405304,128.4590921602902L135.00789750031566,131.31547942541286L135.05503090814395,131.8306021740278L135.09748896243687,125.85836419806137L135.41598281155302,125.82283737671932L135.55474584343435,127.2830992458861L135.5638043409091,127.79915956584267L135.88871219065658,122.65376832380618L135.9795674592803,122.71125112564506L136.01170320959596,121.09841931183685L136.13034761079547,126.05852004283926L136.17100127083333,127.15312054967289L136.20983592613638,125.8688895779736L136.44797944160354,130.73493340433882L136.61791393213383,132.61640502415932L136.93171781723484,132.7623580542502L136.9691133402778,131.50415266496069L137.0703785757576,129.07598724713415L137.08791115151513,146.54361672840483L137.17333132165405,165.3851115341474L137.31637522411617,150.96981416683235L137.59568376641414,154.8319404129445L137.75406136742424,154.01403987505248L137.8086753409091,156.00472715311832L137.8157906445707,161.65922004465943L137.8381665943813,168.0687648300293L137.91538298011363,168.78601261137348L137.91876530618688,169.1749018994816L137.9591267566288,162.84095528498568L137.97191823169194,168.3762027084899L138.0638181496212,172.54377393899938L138.1045667777778,165.1165700798529L138.61027200978535,159.16222107678627L138.79890060921718,150.66555760282967L139.59771398169192,152.40350820711487L139.8703674504419,149.96841100403273L139.87871003440657,139.30753394049785L140.08061955997474,137.25645160871377L140.30544562310607,146.75938443279253L140.57806256565655,165.64361406783595L140.62779663888887,162.3240134838639L140.63372118844697,178.46229342726616L140.63670172632575,172.33222396852562L140.85021927809345,194.9400158421085L141.49451221622476,190.06320990679177L142.0286567471591,211.1710139258214L142.03541409406566,199.2110467696617L142.2102869267677,202.73643017397015L142.4727422806187,211.93979566789116L142.6505883459596,218.31403784789865L142.72781203693182,231.63625670504382L142.75161250852273,214.7082963337872L143.1288112654672,213.93825167411285L143.2384775268308,195.66439476553097L143.34467379924243,198.2027442273242L143.53782434217175,215.81792054057092L143.7750839236111,213.46406018883815L144.14580293276515,208.36292482500303L144.27167952146465,195.88279675857996L144.29627626420455,196.45127580159402L144.5995532986111,219.83824668271384L144.6083195864899,221.96445100670948L144.87191455776517,237.2559673783919L145.18000574526516,237.2466387935514L145.23435673011363,230.82651163625076L145.31242052367423,254.47059996470688L145.84036290593434,231.6343026267722L145.85774207165403,228.78925570031188L145.87928522411616,239.17068186762995L146.33023768308078,235.8339869136935L146.39119991003787,221.24227016194484L146.5377503276515,216.4499638488732L146.58224654387627,207.54565094847655L146.754898583649,207.7738021904349L147.04944585637625,225.55383225669675L147.3644770217803,210.53887732110368L147.371731125,225.51388503095316L147.59978610416667,228.32971518634372L147.70834196906566,219.11893195149995L148.08434266666666,212.9706189019806L148.50700923674245,198.38666389267354L148.55898601862376,188.4769995910298L148.83180020265152,179.48536436709642L149.3353138626894,182.36443548811886L149.87291377209596,188.35313669411713L150.0779791613005,176.31435945639996L150.45006425031565,196.48917054738052L150.54463058080808,199.683912283323L150.7192842563131,203.032878067429L150.7513688699495,194.71471583923616L150.93084400378788,187.01390960962902L151.0347829570707,178.35680426442795L151.33490412784093,177.31018583020307L151.4383682405303,181.78368858714134L151.9285060063131,186.78853719991326L151.9744048285985,173.27830103759766L152.2728238784722,166.89099510912314L152.31818211300507,176.0562454416455L152.34057267329547,169.5634483376243L152.63844383017675,166.16834322730202L152.72703447443183,161.0224920017868L153.0140792657828,161.10329936722295L153.63235093939394,152.61417085013133L153.86469409438132,156.4707969377485L153.97436766098485,163.57520890160856L154.20544700946968,159.9619619361022L154.35821418623738,151.75717403597102L154.37655033838382,151.45832218815104L154.4267665574495,159.06761696341894L154.57211161047982,154.87081133653624L155.0573402550505,146.44137911804984L155.54462897727274,156.015581741019L155.65905825505052,154.77915442580792L156.17297457670455,158.60314726443792L156.20993909059342,174.36999712577835L156.38771210353536,166.6715766842542L156.82357924210856,162.59579246507792L157.1164463096591,166.23716111461079L157.36822870801768,179.66324187733048L157.48128460069444,174.35239984394627L157.79438718276515,166.74112547663248L157.8308768560606,171.14921289528607L157.84434771843434,173.17351356316775L157.91604134280303,175.6100916206297L158.07668356818183,179.35311355080597L158.97474592992424,169.43546778660192L159.29298409564393,177.00123125014176L159.44989334343433,172.44166596871713L159.48858919917927,178.63256385943936L159.6678305653409,180.15641644466498L160.5444666584596,181.70257451274446L160.9159892440025,178.93594506698287L161.4959887657828,177.09687454819365L161.70046243055555,184.92624492269977L162.4645759135101,187.36858443120153L162.4876385558712,214.09075918640065L162.53201788825757,218.51262547243374L163.04778243560605,214.69642912366288L163.06023786963385,202.35141889517723L163.21682568686867,191.70476091231095L163.27695511647727,185.91235251701175L163.78613764267678,180.63034987206024L163.9617702203283,173.2470314541602L164.26092709943183,166.19248720141883L165.2647912506313,165.11234535587556L165.39392597632573,162.94019658606044L165.4103408503788,180.4687511608482L165.5152002638889,188.10343069162607L165.54976865909092,178.9708602575222L165.93027668970961,192.588458937963L165.96912595549244,191.8590053768716L166.30003871243687,198.9575242424011L167.62281311142675,196.95822375619414L167.9436081111111,199.79762414061435L168.1029061723485,209.47747215746756L168.6833001770833,203.55882947992362L168.89879744886366,199.34507352161822L169.44031296685608,201.18803469579578L169.4848749302399,203.76290108268444L169.55248492550507,199.29720546979937L169.90403498516415,193.50211252026097L170.07522597695709,194.71356464787803L170.22392413510102,190.13138250370633L170.347448436553,182.35092775504623L171.25417481281568,172.91732115058798L171.60664533270202,193.29843372238076L172.57400520012627,185.3295944493268L172.72398908049243,183.19428041150826L173.92432035353536,179.52784322584714L173.9761875568182,184.82686369073681L174.69570255018937,189.64977649037485L174.71482766824494,191.5252246022898L174.89249840782827,202.7248242176152L175.29424277083334,233.9362087200175L175.5765537667298,225.53218426282962L176.11130463257575,227.5459853801071L176.30092674463384,232.56879130939632L176.41457436174244,225.70026935089626L176.54560844981063,222.86690618899107L176.8327335988005,206.81750139455642L177.15077452304294,197.4788828912531L177.1547777945076,190.27048953768434L177.2890846300505,184.6966521256893L177.56048159753786,177.10724013215997L177.76991552020203,178.3134295452803L177.83034446464646,198.05328547684292L178.1865844883207,198.88431469866381L178.20947911016415,232.40766904978383L178.42870935953283,217.18072360152172L178.45086615214646,231.09111909652788L178.60218689141416,258.45517514047316L178.63604667834593,243.29737792623735L178.64734788446972,243.78866114895334L179.10677442171718,239.96364967404477L180.6977533983586,221.43314147414634L181.09862843781565,211.11112151800182L181.2276462796717,204.1279247166693L182.3747881010101,202.2780138798239L182.39490673169192,203.57512630676527L182.89324097664144,213.33572508898382L184.08639119886362,213.47952993418727L184.46221657070706,202.4454298759507L184.6396900688131,192.3912547651187L184.8846128469066,193.62256025073597L184.984964927399,190.07659494457667L185.1208935261995,185.04084922016986L185.2901778503788,182.56875367532302L185.9061118472222,186.2028788907787L186.0755714971591,189.5465031341654L186.204165635101,199.55388766423368L186.7336055915404,219.61980972052794L187.5604710852273,238.22611327327303L188.35329416098483,235.042763238683L188.38418071527778,238.5918021204118L188.68666147853537,224.81393715756508L188.92762481660355,221.15734675392275L189.70417181786615,230.92832592909582L189.92723731818185,215.3711340687403L189.95574236426768,223.15698820178403L190.10404603945705,213.02663622946528L190.51517033049242,208.85812194996424L191.09989634248737,202.50074799433702L191.11837129419192,204.49209149916024L191.24435015625,198.94659530920978L192.12131498516416,205.28248401267052L192.82607339393937,194.2440972031684L194.54389325094695,198.8335616098147L194.74607307039142,195.74848371747697L195.5270178260732,193.39161688390408L196.08893687910353,190.2008634622651L196.61308784185604,196.19364264541807L197.10059572127528,211.95426845792784L197.2266549409722,219.41794181224972L197.47048923832068,212.7794158131249L197.62472476830806,213.05393897193795L197.71915229924247,203.64396360311315L197.8435240085227,198.56707521055543L198.26794383617425,198.2653048247918L198.85304972064395,197.13169672779253L199.60385305650252,192.51661676057387L199.92206200126265,201.4458346908786L199.9527147878788,194.82918150858816L200.85266920675505,198.26063681136787L201.19638804924244,208.16753928331082L201.5999806379419,208.9864180465282L201.80674084280304,214.8226972230056L202.28660744128788,213.8574224299801L202.30552801262624,218.19958194579883L203.1036985239899,236.50092247439696L203.46427055492427,240.00814598616242L203.79248767834596,234.03967609548408L204.1724697316919,226.87359365286687L205.0781587638889,213.55398481183164L205.2516216852904,213.6658871454892L206.0355104526515,215.78367632036034L207.4812101234217,229.86556634996268L208.12711751957073,224.53124138553787L208.18591739551766,219.41368993534516L208.24137877683077,222.49937420290496L208.41530192834597,236.85906793844222L208.59508388226013,235.42904633031085L209.16953142171718,234.27357471072602L209.6114692146465,229.49635449718767L210.08678464867424,217.14001457513007L210.68577048895202,216.34360165921387L211.51465953409092,214.7734521458388L211.55784080713386,224.05964313053727L211.87084842108584,215.2694697070926L211.9607978399621,225.3577656751363L212.06470757228533,213.3234504585132L213.00496499968435,204.65980692366418L213.09601020454545,207.13868730873574L213.32260413573232,205.56085761456785L213.98600758143942,204.39571107584968L214.20582225000004,198.55690174187143L215.5721504892677,195.69916611862365L216.0711641215278,195.40994163413203L216.66948518497477,200.07815020929232L217.17752809374997,199.48999288681028L218.0312257335858,201.87557278128912L218.53693096559343,196.28127375090708L219.9584283765783,207.17260622250936L219.97997152904037,202.75012050844947L220.30263667013892,198.8722321943548L220.57622520959595,197.44351729976046L221.18407230587118,190.20377720338968L222.7795878364899,191.13139966330374L223.0171907642045,195.5300172897301L223.08068060416667,199.39307575646077L223.7263907588384,200.46767838239253L225.34960775915403,223.83130801045542L225.48162805460862,226.5446937975794L226.41198688194447,217.10483126470282L226.60445073232322,210.96221008633077L227.70049970580808,205.8885346941584L228.32812939172982,200.49795025374175L228.56796772285355,205.2386947047495L228.78240573484854,208.42116732756458L229.23384033964643,210.53782445148764L229.49435249968434,207.5055728819243L230.06404432796717,201.0872879074346L230.8837287708333,211.17052922938083L231.90898266445703,209.1304149304801L232.2870361344697,210.48042416212243L233.44993535827024,206.28643291882364L233.47360433554292,216.16283196993604L233.9238993229167,213.39082087049633L234.09712847664142,220.40523713304884L234.6086486796086,208.76906679722813L236.660318,216.81701107228974L236.98556189078283,214.45849978322192L237.33890173421716,217.18643233562753L238.61665393970958,228.29670064476593L238.98616027904038,224.4856985499793L239.10629494917927,229.01908855654634L239.12758241824494,221.1109412199772L239.39735762247474,212.91537400717922L239.4044510104167,204.0502384765951L239.421713292298,200.50453057332902L239.57895127588384,192.2672708568718L239.97943913762626,183.61738574277203L240.34087318686866,187.41454995677094L240.56198818813132,201.58543322935137L240.6289991537247,217.4732407186059L241.6067251565657,225.27264188633197L241.69736126799242,224.47799511522018L242.02914334848484,234.1701185763327L242.1399346167929,233.99142753098215L242.2924972468434,268.59053692580994L243.06198738636363,255.2731269315628L245.8746581575126,256.713655119974L246.19105540277778,245.7564803530403L246.3222721218434,232.24349600912967L246.621136791351,222.925884489373L246.94729383712124,214.65431129389236L247.05804127398991,216.73939325049759L247.78253113573228,219.0096184809005L249.2398680536616,209.44055636417337L249.79696564835857,206.59339218077807L251.3444638371212,204.26210117764353L251.36067416445707,205.60831196668767L252.88378746243686,209.28394131788184L254.23979339772725,201.7194236515888L254.30346586868686,218.68491419097674L255.58794620012625,217.36427184194085L256.65910622127524,218.62356325797535L256.7937783188131,205.72192690959028L256.99501576231063,196.95929473004625L257.213106394255,202.23166550753123L257.4738157957702,199.4031841081775L258.3883149472854,206.43266786575686L259.0125038652146,205.5793653728994L259.6501563402778,224.5570334600476L260.1063977929293,224.64259642223593L262.1461668775252,214.57028883875464L262.3332175451389,209.4947493419438L262.61250417171715,207.96486966248162L262.69484153061865,204.62502011230023L263.6004209842172,195.9507903882351L263.76451128282827,189.24176635486018L263.8866621991793,192.80741741081886L264.59097498832074,198.26912977146796L264.7405936066919,196.7595353640173L264.8078529504419,206.92904883667785L265.4834999782197,201.97372987308324L265.8357732566288,207.99919758262723L266.1525211534091,210.06677902161204L266.95872742866163,211.3669909631834L267.2603388683712,206.95544907513084L267.69605259690655,219.00883217357992L268.0551562746212,224.37925597526524L268.5976287790404,217.60517046772645L268.8735403847854,209.95283147727173L268.9528387638889,203.11142422139164L269.00426034753787,205.38698441060976L270.00420158491164,199.96911285153737L270.0121935173611,198.49503841655405L270.69267661395196,203.9616922900916L271.01069562247477,192.88079790383227L271.2966957645202,187.57934183670287L271.3255295464015,205.30908556207237L271.3850234201389,204.5140615076878L272.0835212383207,221.89271395409105L272.2271714756945,222.88328239076736L272.79204184564395,220.84317377150452L273.4836289068813,223.64405564019418L274.09307585069445,239.91181318776745L274.5827899125631,232.7908737768173L274.7284417856692,226.52352242797852L274.7423874886364,221.4358608947268L275.0082543895202,214.66468232096832L275.2596203892045,209.59270126758372L276.7200985602904,206.6747759587328L277.0158073661616,201.30097397026879L277.7455935268308,199.00465180654174L277.7719143061869,235.54740682892026L277.7825945669192,232.31255924507195L278.3569690539773,228.54252429737238L278.6933826565657,220.10199764513527L280.24437275,213.6843316433034L281.0259311458333,214.87693911051963L281.1597704460227,213.36869206992566L281.8651644106692,232.45207252773255L282.5215109946339,217.77319981924416L282.7027174703283,216.07439285646842L283.7359194649621,209.20707968584014L283.78303826231064,214.09628086839734L283.8596775340909,214.9191229693236L284.738527114899,214.14354494505332L284.9503279352904,221.2852607081257L285.8134201136363,221.28928248817067L286.34920832354794,221.5452234697758L288.3100004595959,215.39072941139898L288.81560341824496,221.6149381531897L289.50055001641414,217.21422234411833L289.60154495801766,212.998926076794L289.9166930072601,211.68479063955814L290.14169439614903,207.34822388013882L290.2246892266414,206.77351330908712L291.98268790309345,202.68276211533643L294.1892136988636,207.85164972768862L294.34464728819444,205.35229469371475L294.7667148285985,206.19749126114198L295.0935585669192,202.32613842870873L295.25081846622476,198.5931686511454L295.6214132863005,197.2973761616344L297.2482171594066,222.28777239814053L297.7074026237374,223.56423046768157L298.15914404861115,214.87530422303465L299.4103270965909,219.62072293241198L301.053041782197,229.00620324648884L301.94565443497476,243.40524732323334L302.96732145580813,230.2893134143359L302.98132560069445,224.18453583701904L304.61552237657827,246.725623822677L304.6936665277778,238.94334109524658L305.20774356470963,230.43398377413357L305.30624011426767,222.90830743856813L305.44473285227275,224.5274909751162L305.82022218308083,223.9580018623733L305.9287780479798,220.33522411271468L306.24546750284094,216.3843867626971L306.8057794030934,214.75895499488797L306.9937578361742,211.5375941992394L307.4447687370581,210.9100042284035L307.70775006818184,214.0010460690089L307.87106601136367,221.8503483910474L308.35700326420454,225.22368061912513L309.6353764150884,223.10012457387234L310.21921849305556,231.75331980212633L311.29301570580805,227.63442357073714L311.4618397998737,237.59578845140254L311.7544438787879,241.389610037718L312.6145043825757,235.79384014575356L313.32695520896465,242.45447519901765L314.54184582512625,239.9551449563192L316.2573937525253,230.35416337293117L316.7272594775884,226.03130217468214L317.08496054924245,224.16741434896136L318.43967345707074,222.82121824264055L319.00809417361114,218.26574374222363L319.02652529387626,233.59838546450996L319.46801016193183,225.11677930718318L319.7896964008838,220.07166546057474L320.8351565880682,213.83190501481488L323.1289946111112,207.27151195146305L324.0020438314394,195.23308495627862L325.3698842553662,198.4907049035526L325.4989240129419,201.44186674864812L327.56483855113635,210.19600601658192L327.8384636167929,203.3003375223797L328.17768243150255,195.4030568994873L328.88226551452016,194.91612699708583L329.4526586458333,200.79400691905667L330.7786546556187,196.14223787179776L331.97676513573236,189.95610386274757L332.44736869002526,187.4690807175748L332.6384153238636,189.0322836155987L332.76935444381314,190.1368214168153L334.09982126041666,197.663834122946L335.0930416770833,215.65763969114482L336.9802262159091,209.44001675702532L337.23902164457076,224.82836689202776L338.5220993699495,218.64068669876923L339.746684039457,212.63160919031745L341.17295907733586,208.95487649390157L341.7802582806187,217.39773519264364L342.5033309258207,212.97249053729274L343.68257197127525,210.89078689705124L345.5258154921086,210.2819975647049L345.8365657869318,204.8802513746231L345.9475981281566,196.8256573515771L346.20387324905306,191.88875082552357L347.2896729709596,203.41025639977994L347.3113037863005,200.30817820127706L347.5559051338384,201.66215049695487L349.5432225959596,197.62676901967117L349.7529195072601,195.70407343157305L351.62690347758837,219.32008155346855L353.0129704750631,208.9437902513822L356.6016184387626,206.5126394343504L357.9764572825126,213.48574407352106L357.97923327367425,245.1243138644609L358.4855667563131,241.69773216381532L358.5101269728535,240.71727932030595L359.6666925536616,246.37578254644512L361.83350706534094,265.8127441664415L363.0604074958964,253.02702720571517L363.2149644564394,250.44045660662263L363.3055932626263,243.08740709923174L363.3860970063132,238.7454024354328L363.40759632733585,232.6044413933906L364.8883319286616,234.4931387569796L365.7997190479798,231.92254933877263L368.88086469065655,229.03956298221104L370.2028647342172,230.44264097323628L372.5658687686238,230.82525139961658L372.7702547705177,230.635717471708L372.8885412149621,224.16765206677593L373.1871794220328,213.3240475563153L374.08621338068184,212.59999498841688L374.80432576799245,247.64792475948627L376.4669253166035,242.21426469358218L378.1457571082702,232.69861200383852L378.1650648573232,225.10267026813636L378.60077858585856,224.25921065065307L378.95931976010104,215.17146444405208L384.5639290315657,207.15268743706068L385.037104030303,204.94524513454704L385.97389146874997,207.51006346499668L387.1657851897096,211.91326165271187L388.6308583566919,211.70038479031643L388.8366396594066,213.37900450669022L390.25402422032823,212.29221544877637L390.66494396464645,203.62840465588928L391.4919190369318,204.22762138248515L396.76766832386363,236.9994257485954L397.76926785069446,276.83168055928496L398.1730576808712,261.9035566942814L398.4061532755682,252.3156134667381L398.74740294696966,242.07750732948645L399.031321095644,235.25397958321102L399.2071216938132,230.69152528214772L399.3329836720328,223.7155862852243L399.87886772348486,227.35955712185913L400.96979572380053,231.5425136505427L402.13917469539143,261.3812365826003L406.70085869791666,280.01100292470335L406.89614967613636,263.778988208039L407.1339644558081,256.9215135552623L408.6796874712752,250.33178915196834L408.74630395391415,242.52923178843707L409.14757347632576,236.66007501330222L409.682017522096,228.2819751955997L410.1241671669823,229.32433725885957L412.12083533617425,222.07192808159738L414.0251725782828,219.71535117728774L414.0419892405303,217.59662836400446L414.6313102484217,217.7909017023108L416.65544611963384,211.54417020620528L416.7327282525253,207.87609794895235L417.0675566180555,210.13404684053182L417.5567300921717,211.65275517869364L417.7011400744949,204.5186854621084L419.10294986395206,202.411060808824L420.5464068260733,203.29691958617923L421.22204654861116,201.5287050144175L422.55076010763895,206.97385452497548L423.5188504990531,202.47522317828987L427.34260299842174,201.59465723179696L427.6131598633208,211.89264009894404L427.66584525347224,213.37675434277705L429.20806905902776,212.6116335952015L429.92986328724743,211.48655933431496L432.1545060779672,207.6932296151713L432.6432266272096,207.06575430885718L433.14790182039144,203.91902762986618L434.52804426830807,201.19397105859503L440.6474026587752,204.76783052358795L442.15788519696963,206.34061237655789L445.5928163027146,205.13332659910427L450.65070872537876,201.53913192623614L451.5020321622474,200.85628895235752L454.20600096369947,200.61611197920433L457.5841484397096,200.82701663327236L458.0514134993687,201.83204453815247L458.7759983292298,242.87928491964777L459.9801867689394,234.8761854779185L461.565942499053,226.05975861646158L461.7356286114267,223.2187301119448L461.91535942866165,265.7892576252659L463.36614354640153,258.7081673031999L463.7511954362373,250.90374749829977L464.9566988191288,241.08210572243746L465.2366063910985,236.4415694012728L469.4776853301769,232.5286534899785L470.01656365656567,224.960579688665L470.9683487525252,223.539182834843L472.27333489236105,224.38613704747587L474.1913475435606,218.50959145149227L475.4623570126263,257.2279852196827L477.6398225640783,248.92147474790272L480.4892971338383,245.19682619282563L481.9794564946339,239.90683212690172L482.37978364109847,235.58927766075456L485.4497084352904,234.5111841892413L485.50289788699496,231.14586569815174L486.2672378323863,230.81957625604565L488.3258398254419,239.64785434721279L490.7677988926768,237.36544954012447L497.4933095637627,236.29495535439275L498.2176021840278,234.93431716187916L498.7761023847853,234.62874533902107L504.25980263068186,233.98490274295125L504.5208626837121,226.14173283868217L504.98496457449494,224.19041899928655L510.57064596938136,225.25463116045617L510.73661371464647,221.85474600985106L511.57498496117427,227.1209231103986L511.59233490593436,270.7019271401266L513.9342121865529,263.3494148557926L514.788698792298,262.2946721782002L515.0279453989899,252.85017761083998L515.1353981726642,248.76496227700187L516.3952160142045,246.53668061197672L520.6458502070708,240.2865694712176L524.6557402190657,233.53554828345654L524.9609312263258,228.58474993082777L528.9084052686237,224.54074304170373L529.0949737904041,221.4903924190692L529.396994323548,223.14967633536833L529.706962957702,219.5396036462354L530.1114906171085,226.1621914677732L531.6876326515152,226.27265822559352L532.3112152345327,227.66117196698278L533.4968702806187,222.48105811284378L535.2399151309976,218.02489342913466L537.2569576142677,215.3499150646887L539.3137479078282,213.4067574011473L539.9687503276515,217.83591125529102L540.2954479611742,215.32674477003937L542.6008428737374,212.83928288199L544.8136730915404,210.50487870674195L544.855714747159,209.83236974473527L545.9394763071338,207.81180835362642L549.7200694491792,210.17946169879949L551.3171044696969,210.08954513262594L551.334023405303,212.45472139579306L552.1448319816918,211.81967630478655L555.0463563857323,212.17354275603074L559.6395917193813,213.73424636469412L559.6514992604166,215.4143488513848L560.4313117039142,215.0839289070475L561.9130846493055,211.73294014584147L562.4977814403409,209.03612331870642L563.7193855719697,212.02610090747405L566.4678652001263,216.8727196263143L567.9046743939394,215.41853388705238L569.5875313727904,220.4293105624579L573.7607592436868,226.89810147922176L580.5983615157828,223.0957618046284L583.0952340713384,219.76934752218008L584.0588536559343,217.73193213491905L587.0912879589646,217.2237325576631L591.1683058203914,217.4748527544275L591.318910646149,215.41128528683433L593.7705272405302,217.56787023130747L593.9972599712753,253.8898226097836L594.391509158144,253.6601541568112L594.8570867073864,249.95113668440584L594.9966094842172,244.43689502238223L595.2636452234849,238.39134918068987L600.771021751894,237.98668799254168L600.9277995053661,233.09509947235318L606.1881566518309,227.8663268554677L606.3441673551137,223.78253081820398L608.3099635804923,224.1595766144463L616.5300751982322,224.5785719472019L616.906178169192,220.52467430831703L621.0040744062501,216.31299703241845L621.1428082171717,217.43525465412176L625.990309730745,216.0276221689657L626.7861498705809,214.55491275971283L629.688777365846,213.59804600156716L630.7734447755681,209.9696852984604L636.7656919917929,206.9956179349811L639.5751703731061,204.49239077725142L640.4664242512627,205.2936734475137L641.3230147660985,214.59014969665063L642.3391224993687,211.87464420456203L643.1064137616793,212.20860590825208L645.2206597670455,209.26154097165937L645.9807480628156,207.449451751603L646.0881716155303,211.63404649200973L658.055513344697,209.69607054042316L659.7005510965909,217.76997663597632L660.8880543683713,217.68284417010665L661.9841983099748,225.66774027590674L667.4807265571338,222.75337281314543L670.1001737329544,218.90328077092576L670.356741063447,215.9586573041736L670.8938661322601,214.00597422199147L671.367866623106,213.56510793214238L672.607244403409,213.71176525740245L674.9092642951389,213.80352373987594L683.1259497553662,209.9748637195392L689.4338929138257,211.36994761015657L691.1394984097223,212.48885316667784L698.053849532197,209.96339618231013L698.4597286609849,206.83581677779932L699.0041735801767,206.13487121015362L706.7478447569443,206.1350992477649L708.6246850760733,208.79750917685098L723.146355072601,207.10178971074285L724.0894542383207,206.8275588285418L726.6006377588384,200.33518693365338L730.1754130719697,207.80399989624846L739.1294602266414,208.08524742036087L744.2942648352272,206.75850460094875L746.854539567866,213.12291663426421L747.7081714605429,208.2167463531844L751.2191355031565,208.82666880648725L752.7889365893309,207.38490229891917L757.1090582241162,208.8227321271113L758.0249818974115,208.88945862446323L758.4101068396463,208.8844311592478L759.9723689182449,208.89457173683985L763.2390603491161,210.61754402923512L766.6130657541036,213.40948633150998L766.6348938109217,216.62522656249234L770.1211150059974,215.34874700156996L771.2461657818812,216.50345685830646L773.4503027642046,213.73114716349343L773.7644792165405,211.32153152562722L777.9087929479167,207.63185235129706L785.6672280145202,205.95447290367758L786.9312755899622,207.87725070777384L786.9369882875632,220.82110873573444L793.6677514261364,218.101333339576L799.3516152452653,215.79444999558677L801.7099220104167,217.68272492591052L802.2093155151515,217.69543412137014L818.7293046650884,216.65080150352696L821.0200744873737,214.46737653840344L824.8943500258839,218.56761345818083L826.433344915404,218.37906832120095L827.6149747743056,220.73435558307247L832.1587317181187,220.721357667584L833.7214978582703,216.10223908078467L834.0498903074495,212.55417210880944L834.9136837888259,216.1099995133323L837.5276228137627,217.40891598795713L839.4038641032197,215.6495162562989L849.7054577253789,213.14535603513258L853.9758598974116,211.00645297518815L860.1908584886365,213.5828153708451L865.0618171275253,215.1700930005353L865.5587852926136,215.45832638195506L867.901254297664,215.7230868698522L869.7952619305555,213.89898205768668L874.8750700729166,212.8056238614108L875.5183987193815,205.52823744159915L875.9406854169823,209.7461768453387L876.1564968140783,223.78214897913813L877.6347632443182,225.61139987779276L877.6753949886364,227.6924769440464L878.1270852768308,228.849311883777L878.316911935606,227.36454565147582L881.8271746751893,229.0583497757417L897.4279893200758,226.07041930690372L902.6552098983586,220.64175141061062L904.0454189668561,217.38438780480635L909.3379410845961,217.83997093705247L910.9070189520203,216.84149448382578L914.4044609955807,215.21964221359852L917.8776131164773,214.64611833579661L918.6337346669821,213.34773425752147L921.8236699422349,212.76669276575333L924.3378559163509,214.29757503069519L924.9985345075758,210.71012244410826L926.6427102411617,210.89481244901202L928.15217735101,206.42904430485245L929.3548170798612,210.43635433791084L935.9874781518308,207.3220504273604L936.4161496291036,215.33030865909512L939.460002022096,213.06114021016728L940.5390809232953,224.93081835272454L945.9966430208332,225.68122095622775L946.4019742566288,230.67693452283177L947.4990313532198,231.78312160529464L953.9701516553031,226.07415597899856L955.3722244333964,225.27003948961183L955.922615817866,224.01915067248856L956.7226856916034,221.0800405367346L960.5365322856691,218.2057253341388L965.8159195820707,215.06194443478532L969.5569694605429,216.11177565980154L972.1536315931186,219.35689674793642L972.9688306186868,223.24934068503103L973.0369958121844,246.21970456545353L973.1054020785986,275.63069500226857L978.609272091856,267.3773488009395L982.7666768131313,259.9176569097994L988.5750000044193,254.22326411969402L995.4151444999999,246.81657464545862L997.8607269662248,239.5546657100877L999.7912315776514,229.05341360640787L1000.9157125448231,228.0986036074303L1003.3304376777147,224.61303806109441L1015.9719215552399,219.44359149468673L1016.4524310148358,230.63922931544798L1024.7687015053662,236.37179907733096L1027.1657917891414,274.8470618249259L1027.8054239842172,265.22156560253L1030.0916353368054,255.87697073078405L1031.8593061508839,249.135506973841L1033.34146627399,243.52819512511437L1034.7777202695709,238.06395245781908L1035.1012839551768,233.93193604760032L1035.7700129207703,229.67970317980408L1035.8476530104165,226.00595975839735L1039.5588463734216,223.94868305509377L1041.312125864899,219.45565788455136L1041.4953412815657,216.2086992584788L1042.345897668245,222.05510889785035L1043.4147711493056,219.5173914134707L1043.7886752430554,221.73307307215282L1044.3047685261995,219.69152334833134L1046.4129438772095,219.3282831309079L1050.2787015059976,218.54216279667253L1053.5599741957071,214.2345463362275L1053.7296164766415,218.14635112215055L1054.535618205177,223.969167658981L1059.1798075871213,224.33963603864296L1059.4453603626894,223.2422147246864L1060.651572353851,224.13874973304738L1061.0651658159723,220.70533056587493L1063.7107365296717,217.74926726620342L1064.2265010770202,216.7238751591325L1067.1319703106062,216.12262474098986L1070.4126220549242,216.59611900756065L1072.5552708330176,219.44686070673578L1072.78002384375,217.98377445095747L1076.529562410985,214.90558655203247L1082.6177420375632,213.0810139126553L1085.0539591862375,208.33431710451129L1087.785658678346,208.21346961162376L1087.8631526631943,206.05265056884892L1088.0772181079546,204.93598306603351L1090.585231154356,204.27572782102277L1095.095157532197,208.83988559716536L1095.2895864921086,234.74751869243937L1096.2598611502524,241.71375293773585L1097.20022085101,238.76916712379304L1105.5118525142045,233.56245886263713L1107.4971756458333,231.39539999098426L1111.1998145729167,234.2745511678975L1114.0502388238635,230.16590264498225L1126.1454076407829,247.14746448894513L1126.6933663803661,241.98775349532713L1128.834612552399,277.5018123036014L1128.839463231692,308.2826944945831L1135.2713105640782,297.70777941691796L1137.6928222648357,285.81809259261416L1139.8285018440656,276.19231726015477L1143.4405411859218,271.67872629058496L1144.2649667294822,262.97149308292387L1151.4148314810604,254.81539662781427L1153.6335424169822,248.77621733831967L1155.3432899839015,244.86547077332398L1156.8067925243056,234.59860740541706L1163.7464343873105,232.58635510676496L1164.31854425,227.29760399681714L1166.1024180861743,225.35487470069555L1168.0057910366163,222.05147082093524L1169.8201934703284,220.4588925968676L1172.6254640334596,216.40809081111433L1173.2056607967172,212.8256535609262L1174.8238371815025,213.83336136418006L1180.8820507140151,211.81809513991885L1181.4408577348486,216.4726594472124L1184.842118989899,218.6967407193348L1185.443172213068,211.22091419474089L1190.2038144242424,209.07182085443966L1190.6478634315026,214.25967869401L1192.709000342803,215.53800489658138L1198.6752482102272,213.52263158292493L1199.9987896594064,249.98564204942468L1202.496334297033,245.32425010368814L1220.24576610101,241.4629728599464L1221.6250392253787,232.96962880625966L1230.4749136590908,229.54044685268843L1232.9471383352272,226.25796042063612L1236.1747029011995,227.4388827468153L1236.676718987058,223.7638363388595L1238.0086395464016,219.34695070736652L1239.5665038705808,217.04785496383997L1244.8887583147098,211.54588905306238L1245.9053993304924,221.52726525795296L1246.969144533144,226.9033336045549L1247.274262488005,227.05011405963447L1248.5459805653409,226.81508700207806L1251.1661436546717,225.59916622571686L1251.2536531234218,226.21606999697946L1251.9127391723484,230.03731470756992L1252.4233462203283,231.4393935872641L1253.4163913112372,249.9530334877469L1253.4395050902779,281.56447672261527L1254.4995173153409,272.8355776111451L1254.8067903159722,264.0905830178799L1255.1913235337752,259.27283097078606L1259.6164726025884,256.2701540311642L1260.0846581224748,244.9175660761592L1260.1549126145833,251.41620841717102L1261.7725045801767,248.22976127794453L1261.9268423835229,242.04342801572295L1262.8503927272727,236.76024704993966L1263.8602325647096,234.44478671101746L1269.5109525104167,229.84749010002432L1271.815974855745,228.72769078290906L1274.4388116628788,227.18886152977723L1275.2086962853534,226.57700859172874L1276.083170027462,229.60836031798692L1277.7655667761994,235.21524088779628L1281.4275374327651,236.030263487196L1288.6409869924241,230.1907247365928L1291.1641291906565,227.63469818753038L1291.316764873106,225.70900487893553L1293.1625140912247,219.90749654466583L1293.2322572165406,221.6735770473924L1293.7886388977274,220.66009888495404L1293.9954064078283,221.48480107415307L1295.5400482477905,220.1534347884287L1300.42833491572,216.42621963019818L1300.757019574495,213.36843859132432L1301.618570347222,214.0457124891863L1312.5590510299874,213.16468503828222L1318.4245596392045,223.25969495119722L1328.901493629419,220.3072956560131L1332.5298090457702,218.7615120415255L1335.4668588314396,217.38411049581666L1337.005612648043,216.47227975682944L1343.9043743885732,212.27396760397207L1348.8233795902777,210.24367878249387L1351.775339370581,210.3536215772175L1352.3740330012627,211.88608264897778L1352.7010593705807,264.220995826804L1353.2470603058712,289.452544713806L1359.5368718589016,291.9169047848108L1362.8517267364266,287.52412460936745L1363.5152470659723,285.24489750504085L1367.5623061385731,281.69381186151156L1370.1424584289773,273.19070125188534L1372.5871569611743,267.15956492604005L1376.4290848974117,260.4596917716067L1377.1872884412878,254.05725846730576L1379.4719876092172,249.89031540887026L1382.5094406120581,246.23555262293414L1384.1678542582072,246.12869287277354L1391.1404427531565,242.21047125789846L1391.2201721414142,239.27792037679083" style="fill: none;" fill="none"></path></g></g></g></g><g opacity="0.2"><g><g><g><path stroke="rgb(0, 119, 187)" stroke-width="2px" d="M131.4943181818182,67.56603866815567L131.49957064930555,67.29595363140106L131.5404872979798,63.83092314004898L131.5840192225379,53.80223482847214L131.71027568371213,54.52540934085846L131.82915385258838,67.9975551366806L131.83740146843434,72.08961099386215L131.88669722727275,64.54739481210709L131.91709433049243,97.49568521976471L131.9939454542298,93.35485070943832L131.99719628598484,77.51885533332825L132.0069049498106,106.45603090524673L132.3309069498106,116.43779933452606L132.4439336215278,71.37184381484985L132.52652666382576,136.70166850090027L132.53521989930556,72.29677945375443L132.63495103440655,115.0378069281578L132.66131564520202,105.12470036745071L132.71766826578283,77.5177851319313L132.81644241445707,116.97520941495895L132.83263082607326,129.84398692846298L132.98525920328282,99.59699749946594L133.02457600441917,112.76317834854126L133.03914265277777,114.82877969741821L133.10808220170455,145.8940225839615L133.3853452768308,170.81383109092712L133.4996941969697,129.75183695554733L133.6297859090909,154.07740205526352L133.73922570801767,121.6506376862526L133.9416466003788,160.08759677410126L134.17044671401516,97.20644921064377L134.30507498011366,89.64609593153L134.31065618339645,179.5246508717537L134.3522522193813,79.32451039552689L134.36157370549242,146.43385469913483L134.50089193560606,66.44474923610687L134.52128816540406,130.4390189051628L134.63939197885102,128.73452603816986L134.72935600820705,170.07358968257904L134.89960462405304,132.71657645702362L135.00789750031566,147.47735738754272L135.05503090814395,134.74590361118317L135.09748896243687,92.05241560935974L135.41598281155302,125.62170445919037L135.55474584343435,135.55142730474472L135.5638043409091,130.72155207395554L135.88871219065658,93.51307153701782L135.9795674592803,123.03683012723923L136.01170320959596,111.96278035640717L136.13034761079547,154.1559773683548L136.17100127083333,133.35402220487595L136.20983592613638,118.59341025352478L136.44797944160354,158.30328941345215L136.61791393213383,143.27614098787308L136.93171781723484,133.58929753303528L136.9691133402778,124.37525779008865L137.0703785757576,115.31791806221008L137.08791115151513,245.51746532320976L137.17333132165405,272.1449773013592L137.31637522411617,69.28872495889664L137.59568376641414,176.71604812145233L137.75406136742424,149.3794995546341L137.8086753409091,167.28481382131577L137.8157906445707,193.70020061731339L137.8381665943813,204.38841462135315L137.91538298011363,172.8503116965294L137.91876530618688,171.3785594701767L137.9591267566288,126.94926112890244L137.97191823169194,199.7421070933342L138.0638181496212,196.15969240665436L138.1045667777778,123.02956402301788L138.61027200978535,125.42123883962631L138.79890060921718,102.51819670200348L139.59771398169192,162.25182563066483L139.8703674504419,136.1696094274521L139.87871003440657,78.89620453119278L140.08061955997474,125.63370198011398L140.30544562310607,200.60913920402527L140.57806256565655,272.6539143919945L140.62779663888887,143.51299345493317L140.63372118844697,269.9123400449753L140.63670172632575,137.59523034095764L140.85021927809345,323.05062755942345L141.49451221622476,162.4280145764351L142.0286567471591,330.78176245093346L142.03541409406566,131.43796741962433L142.2102869267677,222.71358579397202L142.4727422806187,264.0921624004841L142.6505883459596,254.43472132086754L142.72781203693182,307.12879076600075L142.75161250852273,118.78323018550873L143.1288112654672,209.57466691732407L143.2384775268308,92.11257219314575L143.34467379924243,212.58672058582306L143.53782434217175,315.6372298300266L143.7750839236111,200.12552082538605L144.14580293276515,179.45649594068527L144.27167952146465,125.16208112239838L144.29627626420455,199.67265665531158L144.5995532986111,352.36440137028694L144.6083195864899,234.01294112205505L144.87191455776517,323.90788704156876L145.18000574526516,237.19377681612968L145.23435673011363,194.44579303264618L145.31242052367423,388.4537610411644L145.84036290593434,102.22862273454666L145.85774207165403,212.6673236489296L145.87928522411616,297.9987618327141L146.33023768308078,216.92604929208755L146.39119991003787,138.5558769106865L146.5377503276515,189.29356187582016L146.58224654387627,157.08787858486176L146.754898583649,209.06665921211243L147.04944585637625,326.30733489990234L147.3644770217803,125.45413345098495L147.371731125,310.37226140499115L147.59978610416667,244.2860859632492L147.70834196906566,166.92449390888214L148.08434266666666,178.1301784515381L148.50700923674245,115.74425250291824L148.55898601862376,132.3222354054451L148.83180020265152,128.5327649116516L149.3353138626894,198.6791718006134L149.87291377209596,222.28911012411118L150.0779791613005,108.09462189674377L150.45006425031565,310.81309989094734L150.54463058080808,217.78744876384735L150.7192842563131,222.0103508234024L150.7513688699495,147.5784632563591L150.93084400378788,143.37600767612457L151.0347829570707,129.29987400770187L151.33490412784093,171.37934803962708L151.4383682405303,207.13353753089905L151.9285060063131,215.14934599399567L151.9744048285985,96.72029614448547L152.2728238784722,130.6962615251541L152.31818211300507,227.99266397953033L152.34057267329547,132.77093142271042L152.63844383017675,146.92941427230835L152.72703447443183,131.86266839504242L153.0140792657828,161.56120777130127L153.63235093939394,104.50910925865173L153.86469409438132,178.32501143217087L153.97436766098485,203.8335433602333L154.20544700946968,139.48689579963684L154.35821418623738,105.26337593793869L154.37655033838382,149.76482838392258L154.4267665574495,202.18695402145386L154.57211161047982,131.08891278505325L155.0573402550505,98.67459654808044L155.54462897727274,210.26939660310745L155.65905825505052,147.77273297309875L156.17297457670455,180.27244001626968L156.20993909059342,263.7154796719551L156.38771210353536,123.04719418287277L156.82357924210856,139.49968189001083L157.1164463096591,186.87158346176147L157.36822870801768,255.74436619877815L157.48128460069444,144.25762832164764L157.79438718276515,123.61057072877884L157.8308768560606,196.12837493419647L157.84434771843434,184.6445506811142L157.91604134280303,189.41736727952957L158.07668356818183,200.56357115507126L158.97474592992424,113.23547512292862L159.29298409564393,219.87389087677002L159.44989334343433,146.60412937402725L159.48858919917927,213.71431857347488L159.6678305653409,188.79158109426498L160.5444666584596,190.4641368985176L160.9159892440025,163.25837820768356L161.4959887657828,166.6754749417305L161.70046243055555,229.29267704486847L162.4645759135101,201.20850831270218L162.4876385558712,365.5164161324501L162.53201788825757,243.569867759943L163.04778243560605,193.0713164806366L163.06023786963385,132.39636093378067L163.21682568686867,131.3736990094185L163.27695511647727,153.08870494365692L163.78613764267678,150.69900155067444L163.9617702203283,131.4082270860672L164.26092709943183,126.2167364358902L165.2647912506313,158.99154156446457L165.39392597632573,150.63135355710983L165.4103408503788,279.7972270846367L165.5152002638889,231.3666146993637L165.54976865909092,127.21962779760361L165.93027668970961,269.75485146045685L165.96912595549244,187.72543519735336L166.30003871243687,239.18246448040009L167.62281311142675,185.6288543343544L167.9436081111111,215.8875596523285L168.1029061723485,264.32994425296783L168.6833001770833,170.01985430717468L168.89879744886366,175.46712309122086L169.44031296685608,211.63148134946823L169.4848749302399,218.353810608387L169.55248492550507,173.9915969967842L169.90403498516415,160.6632524728775L170.07522597695709,201.57846003770828L170.22392413510102,164.16568368673325L170.347448436553,138.26168417930603L171.25417481281568,119.4602170586586L171.60664533270202,308.7914049625397L172.57400520012627,140.17283856868744L172.72398908049243,171.09416753053665L173.92432035353536,158.75136584043503L173.9761875568182,214.8546463251114L174.69570255018937,216.97961568832397L174.71482766824494,202.15276390314102L174.89249840782827,266.1892220377922L175.29424277083334,410.80072090029716L175.5765537667298,177.90937900543213L176.11130463257575,238.95752504467964L176.30092674463384,261.0313582420349L176.41457436174244,186.77864491939545L176.54560844981063,206.8111816048622L176.8327335988005,115.87087422609329L177.15077452304294,144.56004470586777L177.1547777945076,149.42292720079422L177.2890846300505,153.1115734577179L177.56048159753786,134.10057216882706L177.76991552020203,185.14850288629532L177.83034446464646,309.9124690890312L178.1865844883207,203.5934802889824L178.20947911016415,422.373343706131L178.42870935953283,130.8946993947029L178.45086615214646,309.9166935682297L178.60218689141416,413.51815938949585L178.63604667834593,157.4031937122345L178.64734788446972,246.57259941101074L179.10677442171718,218.28858464956284L180.6977533983586,116.4269283413887L181.09862843781565,152.6196750998497L181.2276462796717,164.55647617578506L182.3747881010101,191.79518580436707L182.39490673169192,210.92543005943298L182.89324097664144,268.6457848548889L184.08639119886362,214.29442405700684L184.46221657070706,139.91886287927628L184.6396900688131,135.41759580373764L184.8846128469066,200.5999580025673L184.984964927399,169.9827915430069L185.1208935261995,156.50495678186417L185.2901778503788,168.56021225452423L185.9061118472222,206.79625511169434L186.0755714971591,208.4937071800232L186.204165635101,256.26240000128746L186.7336055915404,333.32670137286186L187.5604710852273,343.6618334054947L188.35329416098483,217.00377970933914L188.38418071527778,258.70302245020866L188.68666147853537,146.73936903476715L188.92762481660355,200.43666779994965L189.70417181786615,286.2972079217434L189.92723731818185,127.21371352672577L189.95574236426768,267.276828289032L190.10404603945705,155.62130838632584L190.51517033049242,185.23654103279114L191.09989634248737,166.47562891244888L191.11837129419192,215.77637135982513L191.24435015625,167.52211689949036L192.12131498516416,241.1858533322811L192.82607339393937,131.69323861598969L194.54389325094695,224.84052658081055L194.74607307039142,178.2663756608963L195.5270178260732,180.0360381603241L196.08893687910353,172.11992740631104L196.61308784185604,230.15272468328476L197.10059572127528,301.264481395483L197.2266549409722,261.7120908200741L197.47048923832068,175.16110181808472L197.62472476830806,214.60957020521164L197.71915229924247,150.32076984643936L197.8435240085227,169.7980409860611L198.26794383617425,196.55527263879776L198.85304972064395,190.70791751146317L199.60385305650252,166.36449694633484L199.92206200126265,252.0447362959385L199.9527147878788,157.33481347560883L200.85266920675505,217.70555019378662L201.19638804924244,264.306653290987L201.5999806379419,213.62673103809357L201.80674084280304,247.89494588971138L202.28660744128788,208.38753193616867L202.30552801262624,242.80515253543854L203.1036985239899,340.20851880311966L203.46427055492427,259.88241255283356L203.79248767834596,200.21834671497345L204.1724697316919,186.2657931447029L205.0781587638889,138.07620137929916L205.2516216852904,214.3000003695488L206.0355104526515,227.78448164463043L207.4812101234217,309.66294318437576L208.12711751957073,194.30339992046356L208.18591739551766,190.41423171758652L208.24137877683077,239.9849183857441L208.41530192834597,318.2306657731533L208.59508388226013,227.3255905508995L209.16953142171718,227.72590219974518L209.6114692146465,202.42543995380402L210.08678464867424,147.12075501680374L210.68577048895202,211.83059513568878L211.51465953409092,205.8759382367134L211.55784080713386,276.68139204382896L211.87084842108584,165.45848697423935L211.9607978399621,282.524776160717L212.06470757228533,145.1289975643158L213.00496499968435,155.56582689285278L213.09601020454545,221.18567615747452L213.32260413573232,196.61982268095016L213.98600758143942,197.79321402311325L214.20582225000004,165.47031551599503L215.5721504892677,179.50533092021942L216.0711641215278,193.7710028886795L216.66948518497477,226.5313321352005L217.17752809374997,196.15710139274597L218.0312257335858,215.3938588500023L218.53693096559343,164.58024591207504L219.9584283765783,268.89015689492226L219.97997152904037,177.68936812877655L220.30263667013892,176.897531747818L220.57622520959595,189.34746623039246L221.18407230587118,149.17858332395554L222.7795878364899,196.3879269361496L223.0171907642045,220.45551717281342L223.08068060416667,221.283740401268L223.7263907588384,206.55709326267242L225.34960775915403,356.225209236145L225.48162805460862,241.9205465912819L226.41198688194447,163.61227691173553L226.60445073232322,176.15402340888977L227.70049970580808,177.13770747184753L228.32812939172982,169.95130509138107L228.56796772285355,232.1029132604599L228.78240573484854,226.45517885684967L229.23384033964643,222.53221482038498L229.49435249968434,190.32281398773193L230.06404432796717,164.71700638532639L230.8837287708333,268.3088967204094L231.90898266445703,197.5697672367096L232.2870361344697,218.13047647476196L233.44993535827024,182.52048254013062L233.47360433554292,272.129093259573L233.9238993229167,197.68275797367096L234.09712847664142,260.15359595417976L234.6086486796086,142.8307682275772L236.660318,262.4220286309719L236.98556189078283,201.09360247850418L237.33890173421716,232.6447167992592L238.61665393970958,291.2548877298832L238.98616027904038,202.89002001285553L239.10629494917927,254.70829859375954L239.12758241824494,176.29810631275177L239.39735762247474,166.47382646799088L239.4044510104167,153.81447046995163L239.421713292298,180.4121857881546L239.57895127588384,145.58946579694748L239.97943913762626,134.60137009620667L240.34087318686866,208.93181383609772L240.56198818813132,281.88710510730743L240.6289991537247,307.5041498243809L241.6067251565657,269.4692485034466L241.69736126799242,219.9749967455864L242.02914334848484,289.0921515226364L242.1399346167929,232.97884494066238L242.2924972468434,464.652156829834L243.06198738636363,179.80780363082886L245.8746581575126,264.87664818763733L246.19105540277778,183.66582334041595L246.3222721218434,155.66991806030273L246.621136791351,170.12608587741852L246.94729383712124,167.78206318616867L247.05804127398991,228.55485767126083L247.78253113573228,231.87422811985016L249.2398680536616,155.2158710360527L249.79696564835857,190.45946180820465L251.3444638371212,191.0514521598816L251.36067416445707,213.23683977127075L252.88378746243686,230.11250764131546L254.23979339772725,158.8538235425949L254.30346586868686,314.82269391417503L255.58794620012625,209.8806318640709L256.65910622127524,225.75954794883728L256.7937783188131,132.6126542687416L256.99501576231063,147.3043790459633L257.213106394255,232.10843324661255L257.4738157957702,183.37512284517288L258.3883149472854,246.26640915870667L259.0125038652146,200.74398458003998L259.6501563402778,332.09715262055397L260.1063977929293,225.12745320796967L262.1461668775252,157.49387919902802L262.3332175451389,180.73335886001587L262.61250417171715,199.29555147886276L262.69484153061865,185.69920599460602L263.6004209842172,146.79682195186615L263.76451128282827,151.2239634990692L263.8866621991793,213.01277339458466L264.59097498832074,229.21883314847946L264.7405936066919,188.20516705513L264.8078529504419,264.5562918484211L265.4834999782197,173.89358907938004L265.8357732566288,242.1435146033764L266.1525211534091,221.78307384252548L266.95872742866163,218.7348586320877L267.2603388683712,181.95671170949936L267.69605259690655,287.3113363981247L268.0551562746212,254.81165751814842L268.5976287790404,179.21868592500687L268.8735403847854,166.58957719802856L268.9528387638889,164.34344977140427L269.00426034753787,218.2818254828453L270.00420158491164,169.26784068346024L270.0121935173611,190.1419499516487L270.69267661395196,234.93939757347107L271.01069562247477,130.08906304836273L271.2966957645202,157.53775745630264L271.3255295464015,305.77763333916664L271.3850234201389,200.00892519950867L272.0835212383207,320.37174448370934L272.2271714756945,228.49650353193283L272.79204184564395,209.28255826234818L273.4836289068813,239.51571956276894L274.09307585069445,332.0957726240158L274.5827899125631,192.4388837814331L274.7284417856692,191.00853145122528L274.7423874886364,192.60577887296677L275.0082543895202,176.2946704030037L275.2596203892045,180.8514752984047L276.7200985602904,190.13986587524414L277.0158073661616,170.84942936897278L277.7455935268308,185.9921595454216L277.7719143061869,442.6230186223984L277.7825945669192,213.9817562699318L278.3569690539773,207.17899292707443L278.6933826565657,172.27234661579132L280.24437275,177.31755763292313L281.0259311458333,221.6350480914116L281.1597704460227,204.82195883989334L281.8651644106692,340.5912284553051L282.5215109946339,134.59292113780975L282.7027174703283,206.4478200674057L283.7359194649621,170.29230505228043L283.78303826231064,241.8017542362213L283.8596775340909,219.58189487457275L284.738527114899,209.74860280752182L284.9503279352904,261.75498336553574L285.8134201136363,221.31207257509232L286.34920832354794,222.9955556988716L288.3100004595959,180.51526308059692L288.81560341824496,256.8854543566704L289.50055001641414,192.27683275938034L289.60154495801766,189.11224722862244L289.9166930072601,204.23802316188812L290.14169439614903,182.77434557676315L290.2246892266414,203.51682007312775L291.98268790309345,179.50183868408203L294.1892136988636,237.14201286435127L294.34464728819444,191.18928283452988L294.7667148285985,210.9869384765625L295.0935585669192,180.38847237825394L295.25081846622476,177.43967324495316L295.6214132863005,189.9545520544052L297.2482171594066,363.9000177383423L297.7074026237374,230.79749286174774L298.15914404861115,165.63805550336838L299.4103270965909,246.5114289522171L301.053041782197,282.1905916929245L301.94565443497476,324.9998304247856L302.96732145580813,155.96568793058395L302.98132560069445,189.5907962322235L304.61552237657827,374.4584557414055L304.6936665277778,194.84373897314072L305.20774356470963,182.21429228782654L305.30624011426767,180.2628082036972L305.44473285227275,233.7028643488884L305.82022218308083,220.73089689016342L305.9287780479798,199.8061501979828L306.24546750284094,193.99630844593048L306.8057794030934,205.54817497730255L306.9937578361742,193.28321635723114L307.4447687370581,207.35366106033325L307.70775006818184,231.51694983243942L307.87106601136367,266.32972821593285L308.35700326420454,244.33922991156578L309.6353764150884,211.06664031744003L310.21921849305556,280.7880927622318L311.29301570580805,204.294011592865L311.4618397998737,294.0435227751732L311.7544438787879,262.8879323601723L312.6145043825757,204.08447742462158L313.32695520896465,280.19807383418083L314.54184582512625,225.79227358102798L316.2573937525253,175.9486010670662L316.7272594775884,201.53508871793747L317.08496054924245,213.60538333654404L318.43967345707074,215.1927736401558L319.00809417361114,192.45138823986053L319.02652529387626,320.48335522413254L319.46801016193183,177.05434441566467L319.7896964008838,191.48268699645996L320.8351565880682,178.473262488842L323.1289946111112,170.0959512591362L324.0020438314394,127.01533198356628L325.3698842553662,216.9505512714386L325.4989240129419,218.1651172041893L327.56483855113635,259.80279520154L327.8384636167929,164.22488272190094L328.17768243150255,150.65180003643036L328.88226551452016,192.1568575501442L329.4526586458333,234.1019931435585L330.7786546556187,169.78221327066422L331.97676513573236,154.90134447813034L332.44736869002526,173.37594956159592L332.6384153238636,197.89043337106705L332.76935444381314,196.3958689570427L334.09982126041666,240.3169061243534L335.0930416770833,317.62253791093826L336.9802262159091,174.2068201303482L337.23902164457076,312.02901765704155L338.5220993699495,183.5771656036377L339.746684039457,178.5801699757576L341.17295907733586,188.12005788087845L341.7802582806187,265.2406011521816L342.5033309258207,187.89610415697098L343.68257197127525,199.09446626901627L345.5258154921086,206.83219134807587L345.8365657869318,174.27035629749298L345.9475981281566,151.18295788764954L346.20387324905306,163.91294717788696L347.2896729709596,268.6987879872322L347.3113037863005,182.72973507642746L347.5559051338384,209.33466017246246L349.5432225959596,174.75960731506348L349.7529195072601,184.80879843235016L351.62690347758837,353.14412757754326L353.0129704750631,150.14480620622635L356.6016184387626,192.73611813783646L357.9764572825126,253.00000369548798L357.97923327367425,424.4095426797867L358.4855667563131,222.280435860157L358.5101269728535,235.1613798737526L359.6666925536616,278.4406341612339L361.83350706534094,375.95552667975426L363.0604074958964,180.57463109493256L363.2149644564394,235.7832232117653L363.3055932626263,201.42012655735016L363.3860970063132,214.14070934057236L363.40759632733585,197.80566215515137L364.8883319286616,245.19575715065002L365.7997190479798,217.3558759689331L368.88086469065655,212.7026402950287L370.2028647342172,238.3934162557125L372.5658687686238,232.99337714910507L372.7702547705177,229.56169188022614L372.8885412149621,187.51528143882751L373.1871794220328,151.87695533037186L374.08621338068184,208.49703043699265L374.80432576799245,446.25286012887955L376.4669253166035,211.42352432012558L378.1457571082702,178.77658009529114L378.1650648573232,182.0590004324913L378.60077858585856,219.4796061515808L378.95931976010104,163.67423593997955L384.5639290315657,161.7129510641098L385.037104030303,192.43640542030334L385.97389146874997,222.04403400421143L387.1657851897096,236.86471804976463L388.6308583566919,210.494082570076L388.8366396594066,222.8911828994751L390.25402422032823,206.13374412059784L390.66494396464645,154.5334768295288L391.4919190369318,207.62318283319473L396.76766832386363,422.70631715655327L397.76926785069446,502.5477911531925L398.1730576808712,177.3108547925949L398.4061532755682,197.9839351773262L398.74740294696966,184.0615725517273L399.031321095644,196.5873223543167L399.2071216938132,204.83761757612228L399.3329836720328,184.18526530265808L399.87886772348486,248.00872519612312L400.96979572380053,255.24593397974968L402.13917469539143,430.4673331975937L406.70085869791666,385.579678863287L406.89614967613636,171.7975714802742L407.1339644558081,218.06249052286148L408.6796874712752,212.9900175333023L408.74630395391415,198.31474006175995L409.14757347632576,203.40151995420456L409.682017522096,180.80607622861862L410.1241671669823,235.23105561733246L412.12083533617425,180.97494274377823L414.0251725782828,206.36141538619995L414.0419892405303,205.59053242206573L414.6313102484217,218.891783952713L416.65544611963384,176.14602506160736L416.7327282525253,187.09035515785217L417.0675566180555,222.92909055948257L417.5567300921717,220.258769094944L417.7011400744949,164.09229040145874L419.10294986395206,190.46785444021225L420.5464068260733,208.31678599119186L421.22204654861116,191.50882244110107L422.55076010763895,237.82970175147057L423.5188504990531,176.98297888040543L427.34260299842174,196.60478353500366L427.6131598633208,270.2478763461113L427.66584525347224,221.7867350578308L429.20806905902776,208.27594935894012L429.92986328724743,205.11113852262497L432.1545060779672,186.1976945400238L432.6432266272096,203.51006090641022L433.14790182039144,186.0875764489174L434.52804426830807,185.75198382139206L440.6474026587752,225.0197008252144L442.15788519696963,215.25304287672043L445.5928163027146,198.2920405268669L450.65070872537876,181.17202877998352L451.5020321622474,196.986845433712L454.20600096369947,199.2551091313362L457.5841484397096,202.02214300632477L458.0514134993687,207.52720266580582L458.7759983292298,475.48031374812126L459.9801867689394,189.5252886414528L461.565942499053,176.10000640153885L461.7356286114267,207.1195685863495L461.91535942866165,507.0222468674183L463.36614354640153,218.58198881149292L463.7511954362373,206.67870193719864L464.9566988191288,185.42613565921783L465.2366063910985,210.14519691467285L469.4776853301769,210.35546332597733L470.01656365656567,182.07482814788818L470.9683487525252,215.48460066318512L472.27333489236105,229.18554425239563L474.1913475435606,185.20916640758514L475.4623570126263,476.63221657276154L477.6398225640783,201.8512487411499L480.4892971338383,224.09048438072205L481.9794564946339,209.9301990866661L482.37978364109847,211.12313568592072L485.4497084352904,228.40198785066605L485.50289788699496,212.07572758197784L486.2672378323863,228.9706027507782L488.3258398254419,289.6747635304928L490.7677988926768,224.43182229995728L497.4933095637627,230.22882163524628L498.2176021840278,227.22403407096863L498.7761023847853,232.8971716761589L504.25980263068186,230.33646136522293L504.5208626837121,181.69710338115692L504.98496457449494,213.13297390937805L510.57064596938136,231.28516674041748L510.73661371464647,202.58873015642166L511.57498496117427,256.9625933468342L511.59233490593436,517.6609499752522L513.9342121865529,221.68517857789993L514.788698792298,256.31779700517654L515.0279453989899,199.33137506246567L515.1353981726642,225.61540871858597L516.3952160142045,233.9097511768341L520.6458502070708,204.86927300691605L524.6557402190657,195.27976155281067L524.9609312263258,200.5302259325981L528.9084052686237,201.62470400333405L529.0949737904041,204.20507222414017L529.396994323548,232.55228519439697L529.706962957702,199.08252507448196L530.1114906171085,263.6901891231537L531.6876326515152,226.8986365199089L532.3112152345327,235.52941650152206L533.4968702806187,193.1270796060562L535.2399151309976,192.77329355478287L537.2569576142677,200.19170433282852L539.3137479078282,202.39553064107895L539.9687503276515,242.93444976210594L540.2954479611742,201.10813468694687L542.6008428737374,198.7436655163765L544.8136730915404,197.27658838033676L544.855714747159,206.02148562669754L545.9394763071338,196.36196047067642L549.7200694491792,223.5961639881134L551.3171044696969,209.58001792430878L551.334023405303,225.85738688707352L552.1448319816918,208.2210874557495L555.0463563857323,214.17878597974777L559.6395917193813,222.5782334804535L559.6514992604166,224.9349296092987L560.4313117039142,213.21154922246933L561.9130846493055,192.74400383234024L562.4977814403409,193.754161298275L563.7193855719697,228.969307243824L566.4678652001263,244.3368923664093L567.9046743939394,207.17814803123474L569.5875313727904,248.82371172308922L573.7607592436868,263.55458334088326L580.5983615157828,201.54917031526566L583.0952340713384,200.91966658830643L584.0588536559343,206.1865782737732L587.0912879589646,214.34393495321274L591.1683058203914,218.8978672027588L591.318910646149,203.7177363038063L593.7705272405302,229.78851824998856L593.9972599712753,459.7142194211483L594.391509158144,252.35869958996773L594.8570867073864,228.93337100744247L594.9966094842172,213.18952560424805L595.2636452234849,204.13325607776642L600.771021751894,235.6936079263687L600.9277995053661,205.37609785795212L606.1881566518309,198.23661535978317L606.3441673551137,200.64101994037628L608.3099635804923,226.2961694598198L616.5300751982322,226.95287883281708L616.906178169192,197.5525876879692L621.0040744062501,192.4468258023262L621.1428082171717,223.79471451044083L625.990309730745,208.05103808641434L626.7861498705809,206.2095594406128L629.688777365846,208.17580103874207L630.7734447755681,189.40897464752197L636.7656919917929,190.14256954193115L639.5751703731061,190.30743688344955L640.4664242512627,209.8342752456665L641.3230147660985,267.2701817750931L642.3391224993687,196.48677974939346L643.1064137616793,214.10105556249619L645.2206597670455,192.56150633096695L645.9807480628156,197.18094617128372L646.0881716155303,235.34675002098083L658.055513344697,198.71420681476593L659.7005510965909,263.52211117744446L660.8880543683713,217.18909353017807L661.9841983099748,270.9154848754406L667.4807265571338,206.23862385749817L670.1001737329544,197.08609253168106L670.356741063447,199.27245765924454L670.8938661322601,202.9407700896263L671.367866623106,211.06686562299728L672.607244403409,214.54282343387604L674.9092642951389,214.3234884738922L683.1259497553662,188.27912360429764L689.4338929138257,219.2754229903221L691.1394984097223,218.82931798696518L698.053849532197,195.6524732708931L698.4597286609849,189.11286681890488L699.0041735801767,202.162846326828L706.7478447569443,206.13639146089554L708.6246850760733,223.88449877500534L723.146355072601,197.49271273612976L724.0894542383207,205.27358382940292L726.6006377588384,163.54507952928543L730.1754130719697,250.12727335095406L739.1294602266414,209.67898339033127L744.2942648352272,199.24029529094696L746.854539567866,249.18791815638542L747.7081714605429,180.41511476039886L751.2191355031565,212.28289604187012L752.7889365893309,199.2148920893669L757.1090582241162,216.970434486866L758.0249818974115,209.26757544279099L758.4101068396463,208.85594218969345L759.9723689182449,208.952035009861L763.2390603491161,220.38105368614197L766.6130657541036,229.2304927110672L766.6348938109217,234.84775453805923L770.1211150059974,208.1153628230095L771.2461657818812,223.0468127131462L773.4503027642046,198.02139222621918L773.7644792165405,197.6670429110527L777.9087929479167,186.7236703634262L785.6672280145202,196.4493227005005L786.9312755899622,218.77299159765244L786.9369882875632,294.1696375608444L793.6677514261364,202.6892727613449L799.3516152452653,202.72211104631424L801.7099220104167,228.38294953107834L802.2093155151515,217.76745289564133L818.7293046650884,210.73121666908264L821.0200744873737,202.09463506937027L824.8943500258839,241.80228933691978L826.433344915404,217.31064587831497L827.6149747743056,234.08098340034485L832.1587317181187,220.6477028131485L833.7214978582703,189.92723375558853L834.0498903074495,192.44845926761627L834.9136837888259,236.2596881389618L837.5276228137627,224.76944267749786L839.4038641032197,205.67958444356918L849.7054577253789,198.95511478185654L853.9758598974116,198.8860023021698L860.1908584886365,228.18220227956772L865.0618171275253,224.16466623544693L865.5587852926136,217.09164887666702L867.901254297664,217.22339630126953L869.7952619305555,203.56238812208176L874.8750700729166,206.60992741584778L875.5183987193815,164.2897143959999L875.9406854169823,233.64783346652985L876.1564968140783,303.31932440400124L877.6347632443182,235.97715497016907L877.6753949886364,239.48524698615074L878.1270852768308,235.40470987558365L878.316911935606,218.95087033510208L881.8271746751893,238.65657314658165L897.4279893200758,209.13881331682205L902.6552098983586,189.8792999982834L904.0454189668561,198.92599403858185L909.3379410845961,220.42160868644714L910.9070189520203,211.18346124887466L914.4044609955807,206.02914601564407L917.8776131164773,211.3961496949196L918.6337346669821,205.99022448062897L921.8236699422349,209.47412431240082L924.3378559163509,222.972574532032L924.9985345075758,190.38122445344925L926.6427102411617,211.94138914346695L928.15217735101,181.12302482128143L929.3548170798612,233.14444452524185L935.9874781518308,189.6743282675743L936.4161496291036,260.71043863892555L939.460002022096,200.20251899957657L940.5390809232953,292.1923278272152L945.9966430208332,229.93350237607956L946.4019742566288,258.98597806692123L947.4990313532198,238.05151507258415L953.9701516553031,193.72335076332092L955.3722244333964,220.71337938308716L955.922615817866,216.93078070878983L956.7226856916034,204.42508310079575L960.5365322856691,201.9179391860962L965.8159195820707,197.2471860051155L969.5569694605429,222.06081926822662L972.1536315931186,237.74591624736786L972.9688306186868,245.30652299523354L973.0369958121844,376.3850998878479L973.1054020785986,442.29297414422035L978.609272091856,220.6083869934082L982.7666768131313,217.64606952667236L988.5750000044193,221.9550383090973L995.4151444999999,204.84533429145813L997.8607269662248,198.4038484096527L999.7912315776514,169.54631835222244L1000.9157125448231,222.68801361322403L1003.3304376777147,204.8614999651909L1015.9719215552399,190.15006095170975L1016.4524310148358,294.08117696642876L1024.7687015053662,268.8563610613346L1027.1657917891414,492.87355072796345L1027.8054239842172,210.6770870089531L1030.0916353368054,202.92426645755768L1031.8593061508839,210.9338790178299L1033.34146627399,211.75342798233032L1034.7777202695709,207.09991067647934L1035.1012839551768,210.5171763896942L1035.7700129207703,205.5837169289589L1035.8476530104165,205.18808037042618L1039.5588463734216,212.2907817363739L1041.312125864899,193.99518191814423L1041.4953412815657,197.80926704406738L1042.345897668245,255.18476352095604L1043.4147711493056,205.13699233531952L1043.7886752430554,234.28860247135162L1044.3047685261995,208.12274158000946L1046.4129438772095,217.26992189884186L1050.2787015059976,214.0874809026718L1053.5599741957071,189.82471972703934L1053.7296164766415,240.31324490904808L1054.535618205177,256.96512803435326L1059.1798075871213,226.4389568567276L1059.4453603626894,217.0234939455986L1060.651572353851,229.21911478042603L1061.0651658159723,201.2492886185646L1063.7107365296717,200.9982419013977L1064.2265010770202,210.91331988573074L1067.1319703106062,212.7155390381813L1070.4126220549242,219.27925318479538L1072.5552708330176,235.60106366872787L1072.78002384375,209.69295233488083L1076.529562410985,197.46252179145813L1082.6177420375632,202.7417689561844L1085.0539591862375,181.43636852502823L1087.785658678346,207.52866715192795L1087.8631526631943,193.80800932645798L1088.0772181079546,198.60820055007935L1090.585231154356,200.53428143262863L1095.095157532197,234.70344632863998L1095.2895864921086,381.55743956565857L1096.2598611502524,281.18908032774925L1097.20022085101,222.08318084478378L1105.5118525142045,204.05777871608734L1107.4971756458333,219.1153997182846L1111.1998145729167,250.58974117040634L1114.0502388238635,206.8835610151291L1126.1454076407829,343.3763149380684L1126.6933663803661,212.74939119815826L1128.834612552399,478.7481455504894L1128.839463231692,482.70769357681274L1135.2713105640782,237.7832606434822L1137.6928222648357,218.44320058822632L1139.8285018440656,221.64625704288483L1143.4405411859218,246.1017107963562L1144.2649667294822,213.63050490617752L1151.4148314810604,208.59751671552658L1153.6335424169822,214.5542013645172L1155.3432899839015,222.70457357168198L1156.8067925243056,176.41971498727798L1163.7464343873105,221.18359208106995L1164.31854425,197.3280143737793L1166.1024180861743,214.34607535600662L1168.0057910366163,203.33218216896057L1169.8201934703284,211.4342826604843L1172.6254640334596,193.45354735851288L1173.2056607967172,192.52517580986023L1174.8238371815025,219.5437055826187L1180.8820507140151,200.39825320243835L1181.4408577348486,242.84852385520935L1184.842118989899,231.2998679280281L1185.443172213068,168.85789722204208L1190.2038144242424,196.8936252593994L1190.6478634315026,243.6575397849083L1192.709000342803,222.78185337781906L1198.6752482102272,202.10218280553818L1199.9987896594064,456.60936802625656L1202.496334297033,218.90969574451447L1220.24576610101,219.58240181207657L1221.6250392253787,184.84067916870117L1230.4749136590908,210.10841578245163L1232.9471383352272,207.65720397233963L1236.1747029011995,234.13077592849731L1236.676718987058,202.93857336044312L1238.0086395464016,194.31793212890625L1239.5665038705808,204.0196457505226L1244.8887583147098,180.36808222532272L1245.9053993304924,278.08839708566666L1246.969144533144,257.3677209019661L1247.274262488005,227.88186997175217L1248.5459805653409,225.48326700925827L1251.1661436546717,218.70894849300385L1251.2536531234218,229.7118580341339L1251.9127391723484,251.69103473424911L1252.4233462203283,239.3845072388649L1253.4163913112372,354.8636595904827L1253.4395050902779,460.69598838686943L1254.4995173153409,223.37181597948074L1254.8067903159722,214.535613656044L1255.1913235337752,231.97223603725433L1259.6164726025884,239.25498470664024L1260.0846581224748,180.58623433113098L1260.1549126145833,288.2418483495712L1261.7725045801767,230.1732274889946L1261.9268423835229,206.98753952980042L1262.8503927272727,206.8222215771675L1263.8602325647096,221.32384479045868L1269.5109525104167,203.79614263772964L1271.815974855745,222.38216131925583L1274.4388116628788,218.46882909536362L1275.2086962853534,223.10984194278717L1276.083170027462,246.78602010011673L1277.7655667761994,266.9875641167164L1281.4275374327651,240.64872488379478L1288.6409869924241,197.1000051498413L1291.1641291906565,213.15054774284363L1291.316764873106,214.7967427968979L1293.1625140912247,187.03228265047073L1293.2322572165406,231.68136656284332L1293.7886388977274,214.9170559644699L1293.9954064078283,226.15811347961426L1295.5400482477905,212.6090258359909L1300.42833491572,195.30533373355865L1300.757019574495,196.0410127043724L1301.618570347222,217.8835979104042L1312.5590510299874,208.17219614982605L1318.4245596392045,280.464751124382L1328.901493629419,203.57703298330307L1332.5298090457702,210.00207155942917L1335.4668588314396,209.5788350701332L1337.005612648043,211.30523890256882L1343.9043743885732,188.4835320711136L1348.8233795902777,198.73870879411697L1351.775339370581,210.97663074731827L1352.3740330012627,220.57002872228622L1352.7010593705807,560.785503834486L1353.2470603058712,432.43132174015045L1359.5368718589016,305.88161185383797L1362.8517267364266,262.6317036151886L1363.5152470659723,272.3292772471905L1367.5623061385731,261.57099321484566L1370.1424584289773,225.00640779733658L1372.5871569611743,232.98312574625015L1376.4290848974117,222.49374389648438L1377.1872884412878,217.77680307626724L1379.4719876092172,226.2776380777359L1382.5094406120581,225.52523016929626L1384.1678542582072,245.52315428853035L1391.1404427531565,220.00721544027328L1391.2201721414142,222.66013205051422" style="fill: none;" fill="none"></path></g></g></g></g></g></g><g transform="translate(51, 378)" clip-path="url(#clip_1)"><clipPath id="clip_1"><rect width="1446" height="22"></rect></clipPath><g><g><line x1="0" y1="0" x2="0" y2="5" style="visibility: inherit;" fill="rgb(0, 0, 0)" stroke="rgb(204, 204, 204)" stroke-width="1px"></line><line x1="131.4943181818182" y1="0" x2="131.4943181818182" y2="5" style="visibility: inherit;" fill="rgb(0, 0, 0)" stroke="rgb(204, 204, 204)" stroke-width="1px"></line><line x1="262.9886363636364" y1="0" x2="262.9886363636364" y2="5" style="visibility: inherit;" fill="rgb(0, 0, 0)" stroke="rgb(204, 204, 204)" stroke-width="1px"></line><line x1="394.4829545454545" y1="0" x2="394.4829545454545" y2="5" style="visibility: inherit;" fill="rgb(0, 0, 0)" stroke="rgb(204, 204, 204)" stroke-width="1px"></line><line x1="525.9772727272727" y1="0" x2="525.9772727272727" y2="5" style="visibility: inherit;" fill="rgb(0, 0, 0)" stroke="rgb(204, 204, 204)" stroke-width="1px"></line><line x1="657.4715909090909" y1="0" x2="657.4715909090909" y2="5" style="visibility: inherit;" fill="rgb(0, 0, 0)" stroke="rgb(204, 204, 204)" stroke-width="1px"></line><line x1="788.965909090909" y1="0" x2="788.965909090909" y2="5" style="visibility: inherit;" fill="rgb(0, 0, 0)" stroke="rgb(204, 204, 204)" stroke-width="1px"></line><line x1="920.4602272727273" y1="0" x2="920.4602272727273" y2="5" style="visibility: inherit;" fill="rgb(0, 0, 0)" stroke="rgb(204, 204, 204)" stroke-width="1px"></line><line x1="1051.9545454545455" y1="0" x2="1051.9545454545455" y2="5" style="visibility: inherit;" fill="rgb(0, 0, 0)" stroke="rgb(204, 204, 204)" stroke-width="1px"></line><line x1="1183.4488636363637" y1="0" x2="1183.4488636363637" y2="5" style="visibility: inherit;" fill="rgb(0, 0, 0)" stroke="rgb(204, 204, 204)" stroke-width="1px"></line><line x1="1314.9431818181818" y1="0" x2="1314.9431818181818" y2="5" style="visibility: inherit;" fill="rgb(0, 0, 0)" stroke="rgb(204, 204, 204)" stroke-width="1px"></line><line x1="1446.4375" y1="0" x2="1446.4375" y2="5" style="visibility: inherit;" fill="rgb(0, 0, 0)" stroke="rgb(204, 204, 204)" stroke-width="1px"></line></g><g transform="translate(0, 8)"><text x="0" y="0" dx="0em" dy="0.95em" style="text-anchor: middle; visibility: hidden; font-family: Roboto, sans-serif; font-size: 12px; font-weight: 200;" fill="rgb(50, 49, 63)" stroke="none" stroke-width="1px">-5</text><text x="131.4943181818182" y="0" dx="0em" dy="0.95em" style="text-anchor: middle; visibility: inherit; font-family: Roboto, sans-serif; font-size: 12px; font-weight: 200;" fill="rgb(50, 49, 63)" stroke="none" stroke-width="1px">0</text><text x="262.9886363636364" y="0" dx="0em" dy="0.95em" style="text-anchor: middle; visibility: inherit; font-family: Roboto, sans-serif; font-size: 12px; font-weight: 200;" fill="rgb(50, 49, 63)" stroke="none" stroke-width="1px">5</text><text x="394.4829545454545" y="0" dx="0em" dy="0.95em" style="text-anchor: middle; visibility: inherit; font-family: Roboto, sans-serif; font-size: 12px; font-weight: 200;" fill="rgb(50, 49, 63)" stroke="none" stroke-width="1px">10</text><text x="525.9772727272727" y="0" dx="0em" dy="0.95em" style="text-anchor: middle; visibility: inherit; font-family: Roboto, sans-serif; font-size: 12px; font-weight: 200;" fill="rgb(50, 49, 63)" stroke="none" stroke-width="1px">15</text><text x="657.4715909090909" y="0" dx="0em" dy="0.95em" style="text-anchor: middle; visibility: inherit; font-family: Roboto, sans-serif; font-size: 12px; font-weight: 200;" fill="rgb(50, 49, 63)" stroke="none" stroke-width="1px">20</text><text x="788.965909090909" y="0" dx="0em" dy="0.95em" style="text-anchor: middle; visibility: inherit; font-family: Roboto, sans-serif; font-size: 12px; font-weight: 200;" fill="rgb(50, 49, 63)" stroke="none" stroke-width="1px">25</text><text x="920.4602272727273" y="0" dx="0em" dy="0.95em" style="text-anchor: middle; visibility: inherit; font-family: Roboto, sans-serif; font-size: 12px; font-weight: 200;" fill="rgb(50, 49, 63)" stroke="none" stroke-width="1px">30</text><text x="1051.9545454545455" y="0" dx="0em" dy="0.95em" style="text-anchor: middle; visibility: inherit; font-family: Roboto, sans-serif; font-size: 12px; font-weight: 200;" fill="rgb(50, 49, 63)" stroke="none" stroke-width="1px">35</text><text x="1183.4488636363637" y="0" dx="0em" dy="0.95em" style="text-anchor: middle; visibility: inherit; font-family: Roboto, sans-serif; font-size: 12px; font-weight: 200;" fill="rgb(50, 49, 63)" stroke="none" stroke-width="1px">40</text><text x="1314.9431818181818" y="0" dx="0em" dy="0.95em" style="text-anchor: middle; visibility: inherit; font-family: Roboto, sans-serif; font-size: 12px; font-weight: 200;" fill="rgb(50, 49, 63)" stroke="none" stroke-width="1px">45</text><text x="1446.4375" y="0" dx="0em" dy="0.95em" style="text-anchor: middle; visibility: hidden; font-family: Roboto, sans-serif; font-size: 12px; font-weight: 200;" fill="rgb(50, 49, 63)" stroke="none" stroke-width="1px">50</text></g><line x1="0" y1="0" x2="1446.4375" y2="0" fill="rgb(0, 0, 0)" stroke="rgb(204, 204, 204)" stroke-width="1px"></line></g></g></g></g></svg>