<svg viewBox="0 0 1498 400" xmlns="http://www.w3.org/2000/svg"><g><g><g><g><g><line x1="51.5625" y1="378" x2="46.5625" y2="378" style="visibility: inherit;" fill="rgb(0, 0, 0)" stroke="rgb(204, 204, 204)" stroke-width="1px"></line><line x1="51.5625" y1="336" x2="46.5625" y2="336" style="visibility: inherit;" fill="rgb(0, 0, 0)" stroke="rgb(204, 204, 204)" stroke-width="1px"></line><line x1="51.5625" y1="293.99999999999994" x2="46.5625" y2="293.99999999999994" style="visibility: inherit;" fill="rgb(0, 0, 0)" stroke="rgb(204, 204, 204)" stroke-width="1px"></line><line x1="51.5625" y1="252" x2="46.5625" y2="252" style="visibility: inherit;" fill="rgb(0, 0, 0)" stroke="rgb(204, 204, 204)" stroke-width="1px"></line><line x1="51.5625" y1="210" x2="46.5625" y2="210" style="visibility: inherit;" fill="rgb(0, 0, 0)" stroke="rgb(204, 204, 204)" stroke-width="1px"></line><line x1="51.5625" y1="167.99999999999994" x2="46.5625" y2="167.99999999999994" style="visibility: inherit;" fill="rgb(0, 0, 0)" stroke="rgb(204, 204, 204)" stroke-width="1px"></line><line x1="51.5625" y1="126.00000000000001" x2="46.5625" y2="126.00000000000001" style="visibility: inherit;" fill="rgb(0, 0, 0)" stroke="rgb(204, 204, 204)" stroke-width="1px"></line><line x1="51.5625" y1="84" x2="46.5625" y2="84" style="visibility: inherit;" fill="rgb(0, 0, 0)" stroke="rgb(204, 204, 204)" stroke-width="1px"></line><line x1="51.5625" y1="42.00000000000002" x2="46.5625" y2="42.00000000000002" style="visibility: inherit;" fill="rgb(0, 0, 0)" stroke="rgb(204, 204, 204)" stroke-width="1px"></line><line x1="51.5625" y1="0" x2="46.5625" y2="0" style="visibility: inherit;" fill="rgb(0, 0, 0)" stroke="rgb(204, 204, 204)" stroke-width="1px"></line></g><g transform="translate(41.5625, 0)"><text x="0" y="378" dx="0em" dy="0.3em" style="text-anchor: end; visibility: hidden; font-family: Roboto, sans-serif; font-size: 12px; font-weight: 200;" fill="rgb(50, 49, 63)" stroke="none" stroke-width="1px">0.3</text><text x="0" y="336" dx="0em" dy="0.3em" style="text-anchor: end; visibility: inherit; font-family: Roboto, sans-serif; font-size: 12px; font-weight: 200;" fill="rgb(50, 49, 63)" stroke="none" stroke-width="1px">0.35</text><text x="0" y="293.99999999999994" dx="0em" dy="0.3em" style="text-anchor: end; visibility: inherit; font-family: Roboto, sans-serif; font-size: 12px; font-weight: 200;" fill="rgb(50, 49, 63)" stroke="none" stroke-width="1px">0.4</text><text x="0" y="252" dx="0em" dy="0.3em" style="text-anchor: end; visibility: inherit; font-family: Roboto, sans-serif; font-size: 12px; font-weight: 200;" fill="rgb(50, 49, 63)" stroke="none" stroke-width="1px">0.45</text><text x="0" y="210" dx="0em" dy="0.3em" style="text-anchor: end; visibility: inherit; font-family: Roboto, sans-serif; font-size: 12px; font-weight: 200;" fill="rgb(50, 49, 63)" stroke="none" stroke-width="1px">0.5</text><text x="0" y="167.99999999999994" dx="0em" dy="0.3em" style="text-anchor: end; visibility: inherit; font-family: Roboto, sans-serif; font-size: 12px; font-weight: 200;" fill="rgb(50, 49, 63)" stroke="none" stroke-width="1px">0.55</text><text x="0" y="126.00000000000001" dx="0em" dy="0.3em" style="text-anchor: end; visibility: inherit; font-family: Roboto, sans-serif; font-size: 12px; font-weight: 200;" fill="rgb(50, 49, 63)" stroke="none" stroke-width="1px">0.6</text><text x="0" y="84" dx="0em" dy="0.3em" style="text-anchor: end; visibility: inherit; font-family: Roboto, sans-serif; font-size: 12px; font-weight: 200;" fill="rgb(50, 49, 63)" stroke="none" stroke-width="1px">0.65</text><text x="0" y="42.00000000000002" dx="0em" dy="0.3em" style="text-anchor: end; visibility: inherit; font-family: Roboto, sans-serif; font-size: 12px; font-weight: 200;" fill="rgb(50, 49, 63)" stroke="none" stroke-width="1px">0.7</text><text x="0" y="0" dx="0em" dy="0.3em" style="text-anchor: end; visibility: hidden; font-family: Roboto, sans-serif; font-size: 12px; font-weight: 200;" fill="rgb(50, 49, 63)" stroke="none" stroke-width="1px">0.75</text></g><line x1="51.5625" y1="0" x2="51.5625" y2="378" fill="rgb(0, 0, 0)" stroke="rgb(204, 204, 204)" stroke-width="1px"></line></g></g><g transform="translate(51, 0)" clip-path="url(#clip_0)"><clipPath id="clip_0"><rect width="1446" height="378"></rect></clipPath><g><g><g><line x1="0" y1="0" x2="0" y2="378" fill="rgb(0, 0, 0)" stroke="rgb(60, 60, 60)" stroke-width="1px" opacity="0.25"></line><line x1="131.4943181818182" y1="0" x2="131.4943181818182" y2="378" fill="rgb(0, 0, 0)" stroke="rgb(60, 60, 60)" stroke-width="1px" opacity="0.25"></line><line x1="262.9886363636364" y1="0" x2="262.9886363636364" y2="378" fill="rgb(0, 0, 0)" stroke="rgb(60, 60, 60)" stroke-width="1px" opacity="0.25"></line><line x1="394.4829545454545" y1="0" x2="394.4829545454545" y2="378" fill="rgb(0, 0, 0)" stroke="rgb(60, 60, 60)" stroke-width="1px" opacity="0.25"></line><line x1="525.9772727272727" y1="0" x2="525.9772727272727" y2="378" fill="rgb(0, 0, 0)" stroke="rgb(60, 60, 60)" stroke-width="1px" opacity="0.25"></line><line x1="657.4715909090909" y1="0" x2="657.4715909090909" y2="378" fill="rgb(0, 0, 0)" stroke="rgb(60, 60, 60)" stroke-width="1px" opacity="0.25"></line><line x1="788.965909090909" y1="0" x2="788.965909090909" y2="378" fill="rgb(0, 0, 0)" stroke="rgb(60, 60, 60)" stroke-width="1px" opacity="0.25"></line><line x1="920.4602272727273" y1="0" x2="920.4602272727273" y2="378" fill="rgb(0, 0, 0)" stroke="rgb(60, 60, 60)" stroke-width="1px" opacity="0.25"></line><line x1="1051.9545454545455" y1="0" x2="1051.9545454545455" y2="378" fill="rgb(0, 0, 0)" stroke="rgb(60, 60, 60)" stroke-width="1px" opacity="0.25"></line><line x1="1183.4488636363637" y1="0" x2="1183.4488636363637" y2="378" fill="rgb(0, 0, 0)" stroke="rgb(60, 60, 60)" stroke-width="1px" opacity="0.25"></line><line x1="1314.9431818181818" y1="0" x2="1314.9431818181818" y2="378" fill="rgb(0, 0, 0)" stroke="rgb(60, 60, 60)" stroke-width="1px" opacity="0.25"></line><line x1="1446.4375" y1="0" x2="1446.4375" y2="378" fill="rgb(0, 0, 0)" stroke="rgb(60, 60, 60)" stroke-width="1px" opacity="0.25"></line></g><g><line x1="0" y1="378" x2="1446.4375" y2="378" fill="rgb(0, 0, 0)" stroke="rgb(60, 60, 60)" stroke-width="1px" opacity="0.25"></line><line x1="0" y1="336" x2="1446.4375" y2="336" fill="rgb(0, 0, 0)" stroke="rgb(60, 60, 60)" stroke-width="1px" opacity="0.25"></line><line x1="0" y1="293.99999999999994" x2="1446.4375" y2="293.99999999999994" fill="rgb(0, 0, 0)" stroke="rgb(60, 60, 60)" stroke-width="1px" opacity="0.25"></line><line x1="0" y1="252" x2="1446.4375" y2="252" fill="rgb(0, 0, 0)" stroke="rgb(60, 60, 60)" stroke-width="1px" opacity="0.25"></line><line x1="0" y1="210" x2="1446.4375" y2="210" fill="rgb(0, 0, 0)" stroke="rgb(60, 60, 60)" stroke-width="1px" opacity="0.25"></line><line x1="0" y1="167.99999999999994" x2="1446.4375" y2="167.99999999999994" fill="rgb(0, 0, 0)" stroke="rgb(60, 60, 60)" stroke-width="1px" opacity="0.25"></line><line x1="0" y1="126.00000000000001" x2="1446.4375" y2="126.00000000000001" fill="rgb(0, 0, 0)" stroke="rgb(60, 60, 60)" stroke-width="1px" opacity="0.25"></line><line x1="0" y1="84" x2="1446.4375" y2="84" fill="rgb(0, 0, 0)" stroke="rgb(60, 60, 60)" stroke-width="1px" opacity="0.25"></line><line x1="0" y1="42.00000000000002" x2="1446.4375" y2="42.00000000000002" fill="rgb(0, 0, 0)" stroke="rgb(60, 60, 60)" stroke-width="1px" opacity="0.25"></line><line x1="0" y1="0" x2="1446.4375" y2="0" fill="rgb(0, 0, 0)" stroke="rgb(60, 60, 60)" stroke-width="1px" opacity="0.25"></line></g></g></g><g><g><line x1="0" y1="630" x2="1446.4375" y2="630" fill="rgb(0, 0, 0)" stroke="rgb(153, 153, 153)" stroke-width="1.5px"></line></g></g><g><g><line x1="131.4943181818182" y1="0" x2="131.4943181818182" y2="378" fill="rgb(0, 0, 0)" stroke="rgb(153, 153, 153)" stroke-width="1.5px"></line></g></g><g><g><g><g><g><path stroke="rgb(51, 187, 238)" stroke-width="2px" d="M131.4943181818182,50.39860010147095L131.49933688162878,49.75053200850622L131.56520092455807,51.672434563539504L131.6108075372475,54.55284606141796L131.75347887247474,54.25665815627028L131.77584751704543,56.55036454259627L131.92071772948233,55.138660599534894L131.93510174684343,58.50551650013818L131.98753145359848,60.74305725908726L132.03031093844697,60.465050282989466L132.11776927051767,59.74640031319026L132.12271491792927,62.71231092273853L132.13876452998736,65.93205516966992L132.4126087528409,69.44225522229046L132.51000951641416,72.8583658473625L132.550882333649,85.22379898655777L132.72251894507576,85.85605850361559L132.86022271717172,85.00839582331102L132.87538108996213,87.22233982765017L133.01580241130048,85.76804107116989L133.05527262247475,83.40009353816681L133.11670969002526,96.57169017353598L133.22631020422978,105.13657280070969L133.2464361401515,106.78593483092315L133.3796325792298,106.30740034861587L133.41515065561867,102.42179840770304L133.46093989930557,110.5639970513273L133.47760315151515,118.32189023312029L133.5554550931187,117.0210932314985L133.95390479292928,127.07549655057699L134.0904616423611,121.51513302639982L134.23484970896465,127.26473613842336L134.34625461742425,128.4082800180669L134.59182025662878,130.49981889025278L134.82649378314392,140.26983298399952L135.0024331808712,151.9683615831236L135.01055660763888,153.49191521480583L135.0516193611111,160.58088925462226L135.06286943055557,162.64257756281822L135.20009836205807,165.38718943403725L135.22573975410353,163.77306807587212L135.35580955050506,166.04344149456264L135.4363717361111,171.94586124761358L135.60502780965908,175.0802738280096L135.68846825978534,183.71648283696166L135.7293045508207,193.51542104201206L135.77821313194445,189.15312029114764L135.95266956597223,185.59747819476502L136.111142135101,180.23073660114903L136.15763268181817,175.15391053972644L136.17869368844697,173.83046816648383L136.2245559845328,169.11265498991116L136.23439614267676,176.20205085490528L136.37768111805556,175.68310896280465L136.59511427840908,170.9609035065063L136.67417888983587,181.12549247844836L136.68596224179294,189.89743171405638L136.71317426041668,202.16822415166197L136.8393065325126,205.43634434145233L136.88563636395202,205.8138457275935L136.93407010448234,189.05433482206433L137.23106463257577,192.38601702174435L137.42531826672982,191.2896627638952L137.73574713099748,193.14991896086113L137.7752319526515,198.88854781642908L137.8880686881313,196.00731957441664L137.91044463794194,191.04800440265873L137.9793403554293,171.0374281404555L138.0025344921086,185.14113884181506L138.16530254229798,171.1699459698664L138.2079359223485,183.32311270255744L138.44604291161613,177.7897889473949L138.6129457275884,169.71725598101386L138.67948915782827,184.42340764969651L138.68630494665405,178.9642045427352L138.70594143150254,175.93272093566375L138.7914565697601,191.43211079531656L138.7951164949495,183.8993651003735L138.85004459375,183.0547129716058L138.87058692834597,183.2724929265618L138.96331233838384,170.0450876272244L139.01628263289143,172.61155130523605L139.0359264229798,188.11904906613628L139.5160487048611,179.21046828206104L139.71982106660354,183.53077805276652L139.9089975590278,188.4754393545584L140.2979650574495,198.82854049837022L140.54350147569446,219.35355276120532L140.82243014551767,213.20395939667824L140.8308750028409,214.4604343409419L141.04518882575755,220.13745908766344L141.2799354046717,220.46894213375475L141.5373574482323,227.72881199032565L141.59534644255052,222.0522193829884L141.59890409438134,232.20097138023388L141.60284161868685,239.2382470490243L141.8456385719697,252.5653438640286L142.51400958080808,246.1982279997695L143.05089357670454,251.84003574938538L143.06235549810606,230.83763675745885L143.24259768213383,213.82135413054516L143.49626483238637,205.2571030873313L143.7290536070076,199.22607323468299L143.82402903093435,223.12644882659757L143.84791716540406,242.7779612530534L144.28572749779042,224.44394501666537L144.38385878535354,212.41850745459988L144.50983764741162,205.98988223660217L144.71876750852275,198.84903713798406L144.9923487427399,197.74047970874796L145.38024967613637,194.51594318287113L145.50313111647728,185.696958973904L145.52720918718435,172.69666768635918L145.89777478630052,172.89434205567483L145.90388196685606,188.74066940549542L146.2304042746212,178.2698337238712L146.6449181969697,180.84351926490325L146.7165168532197,186.65688166791355L146.80168133996213,184.64588095248283L147.19065614362373,181.16945885508196L147.34168467329545,196.19936227615585L147.35952406912878,213.04956636824863L147.394947177399,208.08279087799605L147.84713422190657,206.9950245108737L147.9135315473485,202.39929434398374L148.09717797316918,204.51648656031654L148.14874566161615,214.06951005281238L148.339543917298,213.15263794544106L148.66220905839646,237.52722394076198L148.6792814040404,236.2110577004918L148.99506500915405,236.02223504384614L149.00325418308083,231.68169435133035L149.24751948958334,242.06854117172645L149.3780568213384,227.96167955720645L149.84919365814395,207.4468319954867L150.2624218582702,209.00320980399655L150.33353836868687,234.41382970392408L150.39213369791665,222.78275776773475L150.66679610763887,228.93726116056348L151.11248879387625,224.3815259211219L151.25929489488635,218.78072689530404L151.80548576641417,218.11752593484755L151.88162097664141,214.36232561411109L152.0758161688763,207.90511198158862L152.4800297029672,235.09752086180495L152.57148400126263,228.78339512785104L152.5898932058081,232.91141782314943L152.7899618109217,210.23756091706875L152.83079810195707,210.32305104708917L153.02429929640152,190.83848933030242L153.13972939204547,203.61353207359693L153.43930266982323,194.11253290775036L153.5277545145202,232.30066764208973L154.08436996338384,227.37172950971726L154.137515583649,222.830730529756L154.46632443150253,219.4877698960684L154.53525667518937,229.5357702475989L154.57296632354797,223.77627286875892L154.64528089330807,228.52555410596545L154.96505315940655,220.32812233814292L155.08585991161615,212.2991161608486L155.11509548169192,211.94606263480657L155.43887832449496,209.33994222864456L156.1971549207702,200.5369555930779L156.4495582645202,196.37526315284936L156.58453718213383,233.0998675780028L156.83811666950757,237.66591904989133L157.03521934722224,222.94156269892554L157.05176571559343,229.72648387318486L157.1091410697601,212.05448762962223L157.28622739015154,197.62826271781734L157.86955810132577,185.8174463285917L157.906208489899,184.36828211424933L157.99402477872474,190.69042084770194L158.5012056691919,200.14710967176848L158.64171465340908,199.8342921214166L158.77027226515153,191.89836517923152L159.281989709596,179.05349041580916L159.32619371622476,182.0693765652762L159.5476739794823,184.99031203853127L160.09434699684343,203.2079478818902L160.49926913920456,206.16792454430697L160.68794157007576,195.07133722298067L160.8126347099116,191.52336299413216L160.9543271429924,193.13990470761772L161.06131968655302,184.9348215207004L161.30999735795456,181.9046773665012L161.36846849810604,176.6179831057716L161.38573077998737,186.63473691000982L161.46330512247474,184.4438995186116L161.64107083017674,177.24328284204793L162.6655868945707,168.776794592834L162.70355953156565,175.74753432696286L163.08192712689393,173.01268727423178L163.24201415404042,173.85177036340258L163.315234573548,163.4254486479652L163.53902329261365,162.4917279532103L163.97648297348485,170.7188154680497L164.18059137626264,170.8457543859404L164.57381782954548,173.96368213972383L164.82481856723484,171.41101459869535L165.07194752777778,178.8916174290327L165.83306586237376,178.74833716552308L166.08383283238635,181.74921637337135L166.12299622348485,183.93544183896603L166.6367372193813,188.82783705709005L166.96600629734849,189.955318555335L167.16635980681818,183.0851884060451L167.1942658232323,195.48628189835415L167.24245118560606,195.26796603076107L167.84277388478534,190.3410824168879L167.861095426452,186.34461339560985L168.06767300031566,201.59240060856612L168.12420825189395,195.39715073246825L168.4823549431818,206.2754242467702L168.7118271388889,201.60270332501804L168.9467855697601,203.70798599049954L169.34270765656566,237.5169689121512L170.16701631628789,237.65839311115624L170.58508058522725,230.71427560585514L170.7438599744318,230.10854790833702L170.77124001357325,215.6057753532434L170.92763789457072,211.9908193562337L170.9819304375,212.39655795115456L171.42990235858585,208.22055583253987L171.47239693907827,201.1883309314366L171.92373657575757,193.5072467332342L173.1929270400884,188.0833287601143L173.23268215561868,198.0759603808124L173.41949175031564,188.558095095091L174.27977141130052,191.6200465241105L174.98138856691918,185.47364734979232L176.3736650183081,190.13410260146853L176.4213463191288,207.2924847045153L176.79819442455806,211.05371590880736L177.09912647695708,210.95906326138925L177.68459762342172,204.5400760036643L177.73964991130052,206.64528896834906L177.8372990530303,201.97447366379188L178.27886427872474,199.15127369595683L178.51465550694448,201.30781037517534L178.71428579766416,193.11846426598157L178.86445961426767,192.78138329338168L179.9615459318182,200.94310564089287L180.46067644791665,197.49977004473604L181.64087447979801,221.56391344620204L181.84924183743684,221.64735827674872L182.51715992140151,219.37239365533833L183.41026202525254,212.3336328192797L183.48511151325758,202.51817849830883L184.4152365729167,204.88983112000108L184.44581630713384,201.90617549229933L184.62604388068183,189.64659382539875L185.1599254229798,195.70693075847825L185.24742028125002,189.76587632460763L185.5721235842803,204.87771070290475L186.2793292484217,207.39274294024244L186.4414033008207,203.01658370314743L186.55974088194444,188.74322062220085L186.69638539425503,199.7244296537143L186.84909412910352,203.22035850647652L187.2581729529672,203.40118829736144L187.83832588478538,212.43030286510466L187.8503649201389,203.5219679293804L188.0584546786616,196.31093538950944L188.41317521243687,191.08975692171262L188.60566097853535,193.00305129132317L188.68657381565657,189.58502293512623L189.09921029135103,192.46071649345353L189.12328105681817,185.5030476037632L189.39236226325755,189.48857221368704L189.42136406565658,194.2763018445093L189.59203638541666,194.98972044989773L189.65120882859847,185.7239276827823L189.6663964223485,194.33621373397446L189.98337808680554,196.16455228754864L190.05786231281567,233.73975092058024L190.18107248895203,228.80071435175276L190.21984870233587,225.78533487252042L190.71247755492428,234.9700245183895L190.85241673042927,226.58832577704013L190.94598224305557,222.3751300539854L191.4909458342803,231.0913463504454L191.50496458964648,223.05926444735522L191.50627953282827,257.03347190435164L191.97519557670455,264.5110801317604L193.4137945542929,253.4273680984542L193.9472304769571,253.5002398290863L194.10534508933083,246.2241928407387L194.41424715845957,247.85756561502927L194.48721919981062,246.62882067107506L194.65148482417928,233.80738060416627L194.80883238636363,228.78775404523384L195.11210942077022,221.11271659171564L195.5746991268939,222.81337616533625L195.7854260770202,229.77389864163595L195.93189613699496,224.5750733239596L196.55235207733588,229.9188319662882L197.58548832481063,254.21044828958534L198.5198065921717,239.57988037762186L198.57376309406564,241.8854938147721L198.9380169659091,234.8108691243846L199.22325005776514,231.84401988270292L200.06200848200757,223.38155137886653L200.3135936388889,239.73738999447764L200.35213608459594,225.3250650722713L200.48677896117422,215.48826479266995L200.8089108197601,216.6026153152016L201.33359506502524,216.79765694211957L201.3663809816919,211.83463543594263L201.4932364725379,215.1762739861938L202.4339541300505,203.09457079948905L202.97397937910353,200.52179374222592L203.89785845864898,201.90325506762608L204.947825978851,208.63970185320136L205.18455227777775,207.92757156740097L205.78279298358586,198.88787969711328L206.2505036628788,206.09410147913758L206.89588508175504,225.19675727577206L207.071196228851,234.0126862178993L207.5029870435606,245.25405984552094L208.37664259880052,237.33815207299273L208.56810563131313,230.6631630667466L208.84341820738635,216.2825492329553L209.09311861237376,220.2111115267954L209.2302598809975,220.1313551147202L209.3659839330808,223.99231655374237L209.41320500378788,224.26939878393026L209.59867043434343,214.895178541536L209.9944025849116,213.1450215332167L210.4149068039773,207.5718623250314L210.8167169141414,207.19690801423292L211.95782460732323,209.8315096046852L212.47383753282824,216.0945139650879L212.50618513510096,209.73074368394623L212.71049077935606,208.7330292661352L213.1962673169192,209.18546948328205L213.5745326388889,212.17359207541148L214.11423645738637,213.2166675438468L214.64579493339647,217.82748116587467L214.86571918055554,230.93067550167078L215.46771477967172,229.8715494471683L215.51014361300506,222.07554910959897L216.22366830965908,213.8247511011837L216.52678462878788,214.04152298362115L216.89366838699493,205.7869519266725L217.31731385921722,216.267082636779L217.71992754577022,211.92159433508084L218.72967972032828,219.6576426470532L218.95258450536616,218.28525467093942L219.7860466306818,220.81087464958168L221.19888002714646,223.0115672512777L221.9748133882576,218.9320239503521L222.04758088289142,213.2799095429418L222.11658617897731,214.8100930591247L222.29267898674237,214.83610163319588L222.43110597758837,219.20710560341885L222.48568342487374,223.72147885125054L223.1759701534091,219.4601892440219L223.69477368055558,214.70902684901105L224.27137626578283,218.26915273107943L224.71351130018942,218.04316552164337L224.98617937941918,209.4153434329217L225.0201560501894,210.46510415763035L226.05064049558084,227.3989086137893L226.1273382092803,217.12154118902282L226.45283778345964,209.53120229029435L226.55791635416668,213.1231679695468L226.61592726420454,208.66777575522437L226.68484489741164,205.23482013775217L227.599687395202,211.04066532530697L227.6061671429924,208.69135862019226L227.6759321840278,203.91804508976716L227.7183464068813,204.53825971206723L227.89905612626262,199.7089226803442L228.58763342866158,197.63892346591464L228.83117551641416,206.31774798904965L229.2684671767677,209.07440777116852L230.53054964267676,211.8874958969132L231.31155284027778,210.5725696925749L231.9057975798611,204.85103372313228L232.46347228851008,202.13352325599394L232.69459546843436,201.8857184309249L233.54011123958333,206.55375323392073L234.3104999236111,200.3167881711578L234.58065500031563,195.72102487311935L236.1347790416667,200.07041123700387L236.15877675473482,196.60066395117252L236.58165517676767,193.852418906951L237.0166091603535,195.8119211498344L237.83399975789143,205.4526125806498L239.7826944166667,199.13039899917825L240.0880315287247,208.90604434902002L240.1766440886995,208.09394128839523L240.82078361679294,201.53280670009354L240.852313032197,197.84791330871937L242.73357302146465,201.66330613018343L242.90474940277775,204.68793000502467L244.11703204829547,204.63336337471628L244.32952686647727,211.10993435516883L246.1489845261995,212.4494015669295L247.13010746559345,219.96882362873842L247.42352242613637,230.9790212030686L247.67842416193184,235.5007205404992L248.27713970833335,226.65352905774435L248.83865697316918,231.07334912058383L249.754412625947,229.37178978523775L250.8620038784722,233.65809388777603L250.9163840842803,230.35479388284529L251.93235301799245,227.30333969395028L252.46201213162874,221.58711644600393L253.17706362342173,225.39130658608656L254.08792476546714,224.69031595286413L254.10857667866162,222.2443172497767L254.62117075189394,216.6240158069864L254.84878741666665,221.50856032276397L255.4395548620581,230.93965906062334L257.84884489646464,234.10590270593576L258.3277252875631,233.36063916007276L258.79110395959594,228.94340239307934L259.8636519763258,224.79195801407502L260.5892887607323,235.3043965378587L261.12043814330804,229.08155783984128L261.4462299270833,235.077670268487L261.4796221786616,239.0185032630269L261.8403110934343,249.9357255491275L261.85907825473487,246.17617712058222L261.8702917979798,249.01034223826684L261.9762177765151,250.81232304993435L262.3301931758207,253.5691169726818L263.0361861701389,246.79321321385842L263.59394123642676,237.2274204855867L264.36858887531565,222.55177577841792L264.484135854798,226.39148517879084L265.8964505792298,225.00397767392198L266.10355413036615,223.4137628764142L266.5418027771465,216.90149781571776L266.63013043276516,215.9179244423599L266.98240371117424,209.6937685099231L268.4198630713384,223.50078838606072L269.6092291792929,227.6744643738715L271.9632185476641,217.88361695480555L272.33586614015155,212.53007524223503L272.3784045520833,211.30062127172621L272.5112503396465,217.97358872940853L273.059413625947,241.32218762321386L273.7155775789141,246.18941719800875L273.9066753494318,254.70184980978618L275.0132730893308,249.69498946545065L277.2740768175505,247.57942578331543L278.1863551761364,238.72035706008995L280.3416712402147,243.26518219084238L280.35211773327023,244.1981660044699L282.65920015625,243.27953339706193L284.82887832196974,246.52773357358353L284.95951062184344,236.39724545069294L286.9783282784091,234.1077360762119L287.8946829608586,228.59937698294877L289.05179643465914,239.2181326354805L289.3988099403409,235.23125207369264L289.7892384867424,233.00978679014273L290.1762262651515,240.27607033421668L290.564850417298,238.3001428177413L291.80216081470957,235.79491964289429L292.6923116016414,235.35595129542102L293.80085984059343,245.97270381471188L294.5178472209596,240.23234359639454L294.96012836016416,244.98269831523237L297.8090039002525,243.93170720415512L298.00319909248736,243.26160877114154L298.042859239899,257.34103945683216L298.38237026420455,247.95089172941604L298.5063547957702,248.0646300164743L299.3622440075758,247.18035720494396L299.64548276893936,240.31837101082957L300.3760213693182,231.5643708905162L300.643334707702,228.93686867261871L300.82329198737375,226.03853998610575L301.8522058061869,233.13189662818928L302.03599833680556,234.51787497327825L302.1751777673611,233.91734943655308L303.22907550662876,235.2752190230996L303.63271923200756,236.63759426165657L304.07266269444443,232.44216166442314L305.38130145422974,227.051196616191L305.73635802904045,228.23478349358197L306.3938442304293,230.52026749714022L306.6572784864268,233.97570175830757L306.7595591502525,234.60745311248897L307.483318488005,237.51512185730843L307.8316177159091,237.61768378415275L307.92434312594696,237.78071804800416L307.97958535006313,237.30381120607223L309.50491944097223,232.68690499623835L309.51608184753786,230.42476401742488L309.5507671265783,228.7374523293352L310.3535253285985,240.64936228192545L310.88200829861114,241.5198534474491L311.3890869157197,243.70025075315047L311.4281772544192,254.85570765845796L311.5086590823864,250.60547606861485L312.481271417298,248.71817292976888L312.7669720445076,246.60855232553914L312.926701114899,243.5672834122742L313.7734806925505,244.06209800778632L314.7942053374369,246.2293830118376L315.609988782197,257.94600061690096L316.3813198421717,256.1094784368871L316.6342929946339,263.31001195165805L316.654601561553,262.3274899515042L317.0391274741162,261.0884109381488L317.1317579160353,253.60332468719312L317.3346682594697,253.60851193105555L319.1960287752525,241.00336888372962L319.5263059763257,241.5309335003203L320.7431982282197,244.0799810119887L320.78966685921716,248.58100594919492L320.8093837017045,243.67049644952348L321.6520650397727,237.12857943753932L322.0593979113005,237.49213429970993L323.03672943118687,243.2557433921192L324.3585249280303,248.20796445671516L325.18474756060607,256.2980190348052L325.37173978630057,256.3835705435981L326.04117005492424,255.42794219148195L326.3407214169823,252.9480740305606L327.71984843655304,250.83439574095604L328.8418164011995,247.18577253455962L329.2545113188131,247.91197116662846L331.02132741982325,253.33040379649714L331.0785420587121,249.21810956489412L331.1672422815657,243.59437811312733L332.5918663352273,253.1349730665188L332.9865100050505,249.88955558821522L334.50761436205806,244.63538376750768L335.30457220359847,242.27870091818656L338.3727364349748,235.1419709252264L339.1931148756313,236.36680348792706L339.20875539425504,237.9638038125354L340.70169805145207,233.39388920264548L340.8273481777146,233.8359968899443L341.38131912973483,235.25668049682588L341.9142875170455,237.186549873203L342.0415594065657,234.04567704140388L343.48744170833334,239.0700035066243L345.0587476739268,241.34791342965863L345.67849500599743,241.74739149480348L345.82093987878784,240.14214407581977L350.39633581660354,237.02349976203897L350.84033368718434,240.76912943697718L351.1726198292298,243.1328850443188L351.6986628491162,238.1777473525971L351.7948071114268,241.2990091841672L352.11032042266413,247.01406312098763L352.3183955707071,244.44578780029278L352.63556717140153,245.45631735821516L353.12555152714646,239.64730445449516L354.58942663478535,229.33669174034614L354.66342871496215,224.55249082715645L355.5772411739268,225.21451667865747L356.2510838074495,224.58502303096193L357.05196456281567,221.19712695432366L358.89143857986113,217.7018279354747L361.29739742487374,224.189458980444L361.42971723516416,237.30130508556013L361.6441479419192,234.74691019219094L362.65068581092174,237.05488794940354L362.91780190782833,243.52293790194392L364.92219171559344,243.708661116074L364.96998990025253,240.7318120791255L368.7389311846591,239.00738584545036L368.8323213715278,240.44407357190815L368.8740854280303,235.12938800456675L370.0105981253157,239.85300796779165L370.2445776540404,244.1787324837778L370.32299940435604,246.8210890807851L370.459622000947,251.1640710910581L371.3530017039141,250.70085491621083L371.540541822601,252.50449622671852L372.1791951155303,246.97558391343446L373.1490387645202,258.30049820754186L373.6192624463383,254.96437726230687L374.7160930804925,257.6527837032038L375.21941680429296,256.3759046442175L375.6698140650252,261.8304455280139L375.96672823547976,256.33341747520956L376.7223457244318,250.38858682214024L379.5123483361743,245.98640354229985L380.6550339611742,246.61719164243226L382.6095070647096,244.8764460965222L382.851105958649,245.3543534310253L383.27823603030305,249.0919201043102L384.3870691736111,251.44274266529334L384.58263775094696,250.43705925517298L385.43471362752524,252.69543295499747L385.85400517676766,259.0471939304223L386.14941446780307,261.54215233027315L388.638083238952,253.1166405282862L391.92959787499996,249.7706853530883L392.6948728910985,247.3184974098968L393.4682421130051,245.44819295794295L394.4147747414773,248.91055080624363L395.3899219946338,246.52255137097987L396.6737594649621,236.87443120710375L396.702841625,240.50172911005694L396.8650983083965,238.86598628789042L397.49687737058076,237.55667733873304L398.12522297001266,239.9787188029942L400.12025476546717,240.99898693841283L403.8553800943813,245.10592476724935L406.1423950233586,243.88385774462864L407.5746895789141,243.80002458397576L408.5278553652147,246.9112674750728L409.06797558238634,244.20281923852028L409.26235340561874,247.51353664681722L412.82380396117424,245.39406682017048L413.6106148244949,244.26514092304515L414.2370537563131,241.30510717367605L415.08226270738635,242.57301397398268L416.9704188431187,244.2126167732863L417.8475078611111,255.7992189705997L418.96867955460857,270.5168228689368L420.0082371079545,260.2563401204353L420.48769461300503,260.0164673646991L420.8799275536616,255.65072000350546L421.1052868993056,256.0511542288173L422.46895603125,279.6166585275086L423.8092118693182,270.6831662486265L426.4110899431819,282.4006033277243L426.77315954829544,277.65529438707927L429.27376508143936,281.25111987318235L431.8947244419192,267.6954623521049L434.2648437799874,266.338624774573L435.42738504703283,260.17888441312715L436.6137852275884,259.62080520822747L437.6969258421717,259.36927259036923L439.2245464731692,262.89598521648514L441.926579386048,257.97623962660504L442.3082781707702,259.1444076788911L442.8651273873106,275.86928477273534L443.0727057790404,269.57390526759855L443.52194150662876,268.81078983201576L445.6669133510101,268.07725784307615L445.7252456916035,264.7823752518198L446.1839343996212,262.0589560391849L450.1698851404671,262.19285450418727L450.49475646401515,259.0848250163987L453.90419958775254,259.0397403764115L456.5029144927399,257.63107248229556L458.6395437531565,262.08191607267025L464.1214469100379,259.6981257378043L467.1525516594066,261.22522793731423L467.20240261647734,252.1628065520836L468.65383690056814,255.41692088764572L468.66911946243687,251.92478960865148L469.7118182689394,253.9075751522819L469.7553282777777,250.07376030153975L473.109675282197,241.64977888074415L478.48137158996207,238.97701949711504L481.13297643181824,243.93092601707062L481.3808797477904,251.28641507852984L481.6022358219697,246.8576141054886L481.7663918677399,245.53368062547236L481.83123317708333,243.9182525193262L484.1029509337121,238.06603035511895L485.47426865183076,236.93243661527805L487.40308575284087,238.46047976766255L491.2795820842803,237.92722177784734L491.5351778178662,242.06617166041266L492.8763102847222,237.5023584368139L495.78307985101014,236.49158363361792L496.0395010767045,234.64810637729056L497.0875034873737,237.57149046542426L497.321300385101,244.03680266936476L497.44929549337115,241.96518306632714L497.93803795833327,247.58207956944798L500.7858177124369,248.61537424719L501.58100768592175,241.32993063128305L502.7857805448233,243.57417806661988L507.6415954214016,249.53029267962108L511.8708617875631,247.17199206381073L511.98086408996204,247.04135167623235L512.8588808734216,247.6233397307095L513.3876341373106,243.17089782404724L522.9105914595958,245.33797127317044L523.9369338339646,248.5378364619022L526.3341117806186,248.03471836566374L528.6656886729797,239.57872502159603L531.6059016275252,239.0129699044307L532.4214513046086,240.37510379880152L537.8199286218434,241.07419549445373L539.60218069476,235.79647245175693L541.7177635590278,234.6983500604033L543.9623934861111,233.84960834598238L554.550177186553,235.88090110573512L558.730666465909,233.28592907826442L559.8709705827021,235.40178499345268L560.8527217727273,237.6535622821812L561.4865682178031,233.40734728818927L561.9506920243056,228.8752054706109L562.0454482910354,226.7848194444834L562.3425231767677,229.12153006434042L562.712066042298,232.92529655211823L563.765437804293,237.8894230306805L565.477362332702,243.68558127617456L569.3899173282829,239.28079421416197L572.766691419192,244.7417602422931L573.1913304040403,244.60420837607322L583.1227967414773,248.3579974573392L583.5627913405934,247.52821560912412L584.2336169100379,239.04934111020088L587.5946628194444,239.71791737639853L587.756188978851,237.89046186565716L588.1020482566288,232.8092752457207L588.2675411613005,228.15958565239748L588.4548255965909,217.18540139893634L588.6619583686868,223.44469294662224L596.711814065341,226.49305319644714L601.974165542298,229.88702449678428L602.0596587648358,236.835030480794L604.0456612837753,241.79157068320728L605.1518937616793,245.8471638012958L607.6829548399621,247.89361444529666L611.7469766796086,247.70023866796754L612.0229686429924,243.688037113931L613.8307598345959,245.17438542753288L616.7036842244319,245.79235992951544L617.5418582294823,250.8033367177333L623.3337007995581,253.88285443717368L625.985174147096,257.81715646092107L627.8825129693813,260.4259533931654L628.8597422159091,266.1741678876047L631.0555439195075,270.45155483663183L634.2940809558081,269.8373574659535L640.6825278579546,272.5185001143329L642.5958578503787,275.0064009637868L643.0255228402777,276.67233054633436L643.2599333781567,271.95164437170996L649.7755791174243,269.3469579996143L650.0190773737374,268.32997043771076L653.0751222121212,270.8007667250052L659.9756006840277,268.1822904267532L660.7475307736742,256.4980968108604L661.5109210378788,255.28667966824813L664.141245715909,256.36015741285416L668.3922743917299,257.2169930638693L678.2128471875001,257.83344666824235L679.0012725088384,256.409474179801L686.2289453705807,258.3579528240444L687.0295704425505,259.3704429191222L699.709370303346,265.5099987470696L701.2812679933712,260.9755266468774L702.1974400448232,263.3002640651557L703.7007269217171,256.27531508305265L704.6873287910354,261.7782070114593L710.124582321654,272.02313820453713L712.6318867597854,271.0701786075274L714.1002107585227,269.1230758433644L715.953659699495,270.7532676403064L718.6832187563132,297.8667844129292L721.590419331755,297.0441081597194L721.8417049738005,290.783004194768L722.2665119791666,288.05790388160045L725.5038728718434,286.8089386725141L726.152198302399,276.46376047215426L729.9661252541035,270.0024067027303L730.6918570066288,263.9867923322809L738.1471538383838,263.47243462145013L738.8731339690656,264.4585195682321L740.4443961032198,258.6826105690591L740.8750107743057,255.16994106869933L743.0331539662246,252.98862173046547L746.2809321309976,252.12477078838145L748.4592962269571,241.2662983952219L750.0703646133206,242.42465129152103L752.1550317023359,245.38328466869285L752.7699648813132,243.34696580318965L753.7727551622473,244.7076775426279L754.0137185003157,244.2126726235369L758.834234457702,243.6040398932105L759.0747813970959,240.9120040176427L762.2552271657197,242.780567177375L765.7103572597854,246.10171596507612L769.9230480366163,243.83404479677802L779.1057492001262,244.97379285412063L779.2485739453914,241.47070649235917L779.3288293109217,243.8837400925562L779.8575241328914,244.58038678512418L784.6775360287248,244.22053788238387L786.820133670139,245.44953038308597L787.7191968497475,245.85645038397655L788.7426317386364,245.88199294343403L789.2518800119949,244.9920652630388L797.4996346575126,246.61378697296882L797.8199109851641,246.82342527687322L799.9777911884469,248.62444870295934L800.145293034091,248.842027542287L803.8603800899622,239.14589017997164L804.7275558974117,238.90112380995828L810.0381584839016,240.02443672907657L810.8883276928661,241.3309283995476L812.2197222749369,242.94242073618068L812.830031237058,247.10643625353063L813.0987325710228,247.6541446216916L815.1376542477905,249.04593914576495L825.3768538159721,247.95077983889882L828.0173035565025,246.34725970726032L831.9838588854167,248.63470953996674L832.5221308768939,249.69786435317337L836.7610401597221,252.0678457762663L838.5478507023358,248.0293197009945L839.2102752458964,251.53515757996703L840.1594085397728,253.69570975102022L841.6027047866162,257.71851042814535L842.9065220880681,259.087974676702L844.0927980795454,259.7434558290557L846.9096693636363,257.4947682962386L847.708855303346,259.2233040684196L849.4270258118687,261.70430534488685L851.6584332547347,263.8420556226941L852.2103514343434,265.5271218124664L856.681823029356,268.2283039110989L860.2120436843435,264.7497535482424L861.7099319889519,263.4651960755458L862.262325009154,263.991549347968L865.6623662891413,261.8035467712694L869.5433772588385,260.839326660963L869.6820307121211,262.44678735629947L870.4323080707071,256.4361781469166L877.8498587279041,257.701730450243L878.0865338901514,258.16244083862773L881.127982859217,256.92422557362L881.2069159763256,255.72383325512078L882.8256475593433,255.25666998855908L887.2861685997475,252.95155856984593L893.4317528014521,250.0040462203928L893.5109342967171,247.51142052808316L896.0395554248737,250.6537574509688L897.1344501704547,256.3299369497023L898.5795654220328,254.4688710302595L899.2521150280936,259.9868162493816L899.9603726467803,262.89063318747026L902.4832591616163,264.50188283673015L906.0799355839647,267.17267475394823L910.384518973485,267.0161493181006L912.7411966701388,266.599889857073L914.2907914627525,265.8546497256799L919.8510944542298,273.2734397407927L931.3298544337122,273.8991539928391L935.0206223459595,271.64883294355L937.7849032080177,271.8958128378139L942.3965769671718,269.41440327490807L947.4142905703914,265.675885478622L947.5980757957702,262.91980845726664L952.2189176309975,265.0249450559175L953.6215456073232,265.53307731762953L954.0926093917299,263.45231832904733L954.8670013472222,264.2978334880536L955.0248748866793,266.4102991012897L955.4128269567549,268.5309281796158L960.0334131085858,269.5773261807808L962.6008469763258,272.73912498544473L962.7576101193181,273.0128053308744L962.8359880381945,274.1542223651246L969.182773157197,273.2870337392073L969.2278464873737,276.8695003262564L970.7495133478536,273.29397434996497L982.0157638986742,271.15806104497005L982.566513239899,270.8316204696149L987.396679419192,272.294184554305L987.7892995375631,269.5129974686934L990.94782958649,269.29726566903383L995.6127293235479,266.1836108677357L996.8118406215277,263.34726321159343L1001.2388671369948,263.5217977895316L1002.727682333649,258.38984983502627L1005.5317913636363,257.1675222788054L1005.7883075574495,257.233179452293L1010.3408819258208,257.9632074196457L1014.2227329981062,264.0989859278422L1015.4037565220958,266.0573992996522L1016.524299964962,266.66556286699995L1017.7797565782827,265.7443539967568L1018.7992685533461,267.3301402697828L1021.524707454861,266.7409227266299L1022.5909510495582,261.71177280726323L1022.7693888393309,257.4829088932767L1037.9694453285986,259.6811306470156L1042.3427271941287,256.9431456321967L1044.1932540391415,259.0175103480933L1045.646865284722,260.5371988450508L1051.8067166199494,259.10449420807436L1054.587894501894,258.61794698325815L1054.8725797007576,255.22099079564032L1055.5981872642046,252.72299240622513L1056.0221249460228,253.48162221913094L1057.7923452888256,257.6591097593692L1062.0799586060605,257.5554954994052L1065.297529603851,257.7558858384768L1072.574775823548,255.5455940476624L1077.1224849021464,256.5281214599642L1081.0668761332072,259.66623802404683L1083.0504240915407,255.86214052148577L1085.7161864883208,256.3429136329068L1090.6765247373737,255.71856732817463L1090.9995770561868,259.7428603997248L1091.3200433200757,261.53144487002044L1094.5433781521465,270.38666547357803L1098.937903655303,271.72880772617265L1100.6895394678031,271.4652089803098L1105.8462425653408,268.7708511004226L1112.0678523986742,265.1618658842614L1114.6973661950758,262.96978086637205L1118.3626169043562,261.5352125053181L1119.8170609472854,257.03230130889887L1122.674819659091,255.61057945078656L1127.7723503134469,251.4430352944944L1131.6765042831441,256.1971206430586L1133.1567358229165,253.90755151901573L1141.6331663929925,253.6585806897763L1149.104622415404,257.0195393391213L1153.0914863112373,256.9007549617288L1153.9382001417298,251.2164461655972L1158.3476794709597,255.77871114383385L1160.3012540299874,259.1857327403099L1164.838830740846,258.90556490165494L1165.9922988999367,262.2834112086011L1166.6882764103536,262.9903855087754L1168.8121799428661,260.75227213283745L1173.9589479141414,262.86396087729247L1178.4792769535984,265.4355470964791L1178.5221952380052,267.0981232260724L1178.904851009154,263.9615375742119L1180.6187917837754,266.13768052092L1182.19073330524,272.908405844134L1185.564315006313,275.76694155355057L1185.9600836830807,277.6353481106638L1191.3278570770203,279.66363184539256L1201.6356455426135,280.219707786586L1202.9980581732955,279.01347042581864L1203.0797161448863,276.7708502535245L1203.2704340429293,272.77536467468616L1212.7434819662249,272.7324545819809L1219.291709075442,269.38766554726783L1220.8126527171717,265.5151812868673L1223.3668129640153,260.32399598178813L1224.157371415404,250.7522653331847L1242.5931012869319,251.37277974406058L1245.6979159068815,252.968439456436L1248.896960816288,255.55796393466096L1253.7532067020202,253.2728355666527L1255.7888921575127,255.27156632239118L1258.7071017294822,257.0937483800483L1264.9762467588384,263.8286564051188L1265.6057831123737,263.97538597426967L1267.2439174125632,262.71335415826076L1267.5393486193182,263.1323188828226L1268.8049083794192,265.06131576933234L1272.2002304744317,269.8090758156986L1274.7444555950126,272.9534757234035L1278.5322517035984,276.78378302681165L1285.6996417256944,282.0114747981584L1286.7167575820708,282.9682403261763L1291.8664257335859,284.1166743474212L1297.7895215489268,282.55512163156834L1304.320164945707,282.1869839067L1305.2685019684343,282.0550735701648L1307.7886928497476,283.377695572684L1309.8778234403408,283.5657233580583L1316.2910204952652,283.03622837830966L1317.0783427253787,282.80996492081863L1317.5509186944446,283.15308714894337L1317.8672136663508,281.2317034924001L1319.2020344059345,275.5975287681197L1320.001943564394,273.4281492726573L1320.1591961584595,272.2923345985098L1321.0270878794192,272.1064793943138L1321.4988310511364,271.4466531174337L1327.0415211092172,267.90626997077584L1336.8018475915405,267.30558462118603L1341.283436943813,265.5615855763274L1341.8583008819444,269.6230474197298L1347.746207356692,264.23957958031855L1349.0104375631313,261.1906253107168L1349.8513729488636,259.8625615424525L1351.2211419561236,253.79049590315614L1356.772561775884,249.98650707228248L1358.3258384094065,252.3999197066801L1358.3300316171085,248.48284856119065L1360.826341669192,246.37589110227987L1365.82536846875,246.44532524842697L1367.0895475385103,245.93711500171696L1372.2667418339647,245.23336521867205L1376.119583798611,243.80752920380033L1377.3859325246212,243.43897741417265L1379.6156816780303,241.9089194454069L1381.6329287080177,242.92732386486898L1383.1446750527145,240.01928729208907L1383.6322486792928,239.88600021634207L1385.9133682796717,239.9240552100406" style="fill: none;" fill="none"></path></g></g></g></g><g opacity="0.2"><g><g><g><path stroke="rgb(51, 187, 238)" stroke-width="2px" d="M131.4943181818182,50.39860010147095L131.49933688162878,49.19967412948607L131.56520092455807,54.69462633132935L131.6108075372475,60.85122585296633L131.75347887247474,53.454394340515115L131.77584751704543,63.780899047851555L131.92071772948233,50.15607118606568L131.93510174684343,71.46812438964845L131.98753145359848,69.96743917465209L132.03031093844697,59.25456047058105L132.11776927051767,56.475791931152365L132.12271491792927,76.70662879943848L132.13876452998736,81.58204078674318L132.4126087528409,86.9284415245056L132.51000951641416,90.2269148826599L132.550882333649,149.1736078262329L132.72251894507576,89.17283535003662L132.86022271717172,80.50813436508177L132.87538108996213,99.09499168395995L133.01580241130048,77.90280103683473L133.05527262247475,70.50181388854979L133.11670969002526,168.75170946121216L133.22631020422978,152.3117637634277L133.2464361401515,115.90984582901001L133.3796325792298,103.65056991577147L133.41515065561867,80.78205585479735L133.46093989930557,156.0286545753479L133.47760315151515,161.73704624176025L133.5554550931187,109.7277617454529L133.95390479292928,183.53896379470825L134.0904616423611,90.24684190750123L134.23484970896465,159.63449478149414L134.34625461742425,134.85263586044312L134.59182025662878,142.2963309288025L134.82649378314392,195.41271686553958L135.0024331808712,218.0355727672577L135.01055660763888,162.1005392074585L135.0516193611111,200.6534743309021L135.06286943055557,174.30118560791016L135.20009836205807,180.91250181198117L135.22573975410353,154.64012145996094L135.35580955050506,178.89246225357056L135.4363717361111,205.3566026687622L135.60502780965908,192.8255581855774L135.68846825978534,232.61662244796753L135.7293045508207,249.00572419166565L135.77821313194445,164.4474220275879L135.95266956597223,165.45854330062866L136.111142135101,149.8316502571106L136.15763268181817,146.39523983001706L136.17869368844697,166.33317947387695L136.2245559845328,142.38510131835938L136.23439614267676,216.3667094707489L136.37768111805556,172.7429723739624L136.59511427840908,144.20587062835693L136.67417888983587,238.7172710895538L136.68596224179294,239.59954261779785L136.71317426041668,271.69612169265747L136.8393065325126,223.95419955253604L136.88563636395202,207.95287370681763L136.93407010448234,94.08930301666261L137.23106463257577,211.26461505889893L137.42531826672982,185.0772500038147L137.73574713099748,203.69099378585815L137.7752319526515,231.4064562320709L137.8880686881313,179.68078136444092L137.91044463794194,162.94583559036255L137.9793403554293,57.646279335021966L138.0025344921086,265.06089806556696L138.16530254229798,92.00092077255248L138.2079359223485,252.19026803970337L138.44604291161613,146.4345932006836L138.6129457275884,123.97328138351438L138.67948915782827,267.7576804161072L138.68630494665405,148.02890539169312L138.70594143150254,158.75440120697021L138.7914565697601,279.2616069316864L138.7951164949495,141.2139630317688L138.85004459375,178.26836585998535L138.87058692834597,184.50657606124875L138.96331233838384,95.08996009826659L139.01628263289143,187.15481758117673L139.0359264229798,275.99472641944885L139.5160487048611,128.7285804748535L139.71982106660354,208.01250457763672L139.9089975590278,216.49515867233276L140.2979650574495,257.49606370925903L140.54350147569446,335.66187143325806L140.82243014551767,178.35628509521484L140.8308750028409,221.58045530319214L141.04518882575755,252.3072516918182L141.2799354046717,222.34734535217285L141.5373574482323,268.8680613040924L141.59534644255052,189.88487005233765L141.59890409438134,289.71055269241333L141.60284161868685,279.11613464355463L141.8456385719697,328.0855464935303L142.51400958080808,210.11790990829465L143.05089357670454,283.81027579307556L143.06235549810606,111.82405471801758L143.24259768213383,117.39576101303102L143.49626483238637,156.72635078430173L143.7290536070076,165.05023956298828L143.82402903093435,358.5619032382965L143.84791716540406,354.13652658462524L144.28572749779042,120.55119037628172L144.38385878535354,144.27436351776123L144.50983764741162,169.56100702285767L144.71876750852275,158.38424921035767L144.9923487427399,191.4586544036865L145.38024967613637,176.24356985092163L145.50313111647728,135.72271585464478L145.52720918718435,99.02835130691525L145.89777478630052,174.01449680328366L145.90388196685606,278.53652358055115L146.2304042746212,118.9350986480713L146.6449181969697,195.42773723602295L146.7165168532197,219.5992684364319L146.80168133996213,173.25021028518677L147.19065614362373,161.46973371505737L147.34168467329545,281.36881470680237L147.35952406912878,308.53405594825745L147.394947177399,179.93772983551025L147.84713422190657,200.83101511001587L147.9135315473485,176.35682344436643L148.09717797316918,216.5139091014862L148.14874566161615,268.2033097743988L148.339543917298,207.95702934265137L148.66220905839646,375.64987778663635L148.6792814040404,228.75278234481812L148.99506500915405,234.95223999023438L149.00325418308083,207.0852971076965L149.24751948958334,300.9273397922516L149.3780568213384,148.0227971076965L149.84919365814395,91.19602918624878L150.2624218582702,217.8226840496063L150.33353836868687,378.40734243392944L150.39213369791665,156.87335014343262L150.66679610763887,263.812780380249L151.11248879387625,198.5656929016113L151.25929489488635,187.04286575317383L151.80548576641417,214.3593871593475L151.88162097664141,193.082857131958L152.0758161688763,171.31423473358154L152.4800297029672,389.1878378391266L152.57148400126263,193.0033493041992L152.5898932058081,256.3035464286804L152.7899618109217,81.75237178802492L152.83079810195707,210.8074951171875L153.02429929640152,80.4259729385376L153.13972939204547,276.0054409503937L153.43930266982323,140.27353763580322L153.5277545145202,448.70009779930115L154.08436996338384,199.4410800933838L154.137515583649,197.09840297698972L154.46632443150253,200.54432630538938L154.53525667518937,286.47443890571594L154.57296632354797,191.13912105560306L154.64528089330807,255.43814778327942L154.96505315940655,173.87600898742676L155.08585991161615,166.8014144897461L155.11509548169192,209.94542598724362L155.43887832449496,194.5719265937805L156.1971549207702,150.6533646583557L156.4495582645202,172.79233932495117L156.58453718213383,441.20595932006836L156.83811666950757,263.54021072387695L157.03521934722224,139.50354337692258L157.05176571559343,268.17437052726746L157.1091410697601,111.91317558288576L157.28622739015154,115.87965488433838L157.86955810132577,118.88948678970334L157.906208489899,176.1563515663147L157.99402477872474,226.51587367057797L158.5012056691919,253.73501300811765L158.64171465340908,198.0616593360901L158.77027226515153,146.92811250686646L159.281989709596,106.26586675643921L159.32619371622476,199.15939807891846L159.5476739794823,201.5422797203064L160.09434699684343,306.44121766090393L160.49926913920456,222.9411256313324L160.68794157007576,132.19067573547363L160.8126347099116,171.41817569732666L160.9543271429924,202.30030775070193L161.06131968655302,138.43935012817383L161.30999735795456,164.7338604927063L161.36846849810604,146.6600489616394L161.38573077998737,243.3963418006897L161.46330512247474,172.02915430068967L161.64107083017674,136.43978834152222L162.6655868945707,120.80002784729002L162.70355953156565,215.2483928203583L163.08192712689393,157.51522064208984L163.24201415404042,178.60657453536987L163.315234573548,104.34295892715456L163.53902329261365,157.20064401626587L163.97648297348485,217.33897805213928L164.18059137626264,171.5650749206543L164.57381782954548,191.63193941116333L164.82481856723484,156.94589853286743L165.07194752777778,221.28170013427734L165.83306586237376,177.93641567230225L166.08383283238635,198.75419855117798L166.12299622348485,196.32405281066895L166.6367372193813,216.5514099597931L166.96600629734849,196.34438037872314L167.16635980681818,144.1544508934021L167.1942658232323,265.7591450214386L167.24245118560606,194.0308427810669L167.84277388478534,162.42207527160642L167.861095426452,163.69795560836792L168.06767300031566,287.9965281486511L168.12420825189395,160.2907347679138L168.4823549431818,267.91897416114807L168.7118271388889,175.12395143508908L168.9467855697601,215.6379210948944L169.34270765656566,429.1012054681778L170.16701631628789,238.45979690551758L170.58508058522725,191.36427640914917L170.7438599744318,226.67609095573425L170.77124001357325,133.42339754104614L170.92763789457072,191.50606870651245L170.9819304375,214.69574332237244L171.42990235858585,184.55654382705686L171.47239693907827,161.3390564918518L171.92373657575757,149.9811029434204L173.1929270400884,157.34779357910153L173.23268215561868,254.7008728981018L173.41949175031564,134.62352514266968L174.27977141130052,208.97110462188718L174.98138856691918,150.64405202865598L176.3736650183081,216.54334902763367L176.4213463191288,304.5233166217804L176.79819442455806,232.36735939979553L177.09912647695708,210.42269825935364L177.68459762342172,168.1658148765564L177.73964991130052,218.5748291015625L177.8372990530303,175.50652027130124L178.27886427872474,183.15314054489136L178.51465550694448,213.5281848907471L178.71428579766416,146.7121696472168L178.86445961426767,190.87125778198242L179.9615459318182,247.19286561012268L180.46067644791665,177.98753499984738L181.64087447979801,357.92739272117615L181.84924183743684,222.1202123165131L182.51715992140151,206.4809274673462L183.41026202525254,172.44732141494748L183.48511151325758,146.89727067947388L184.4152365729167,218.32919597625732L184.44581630713384,184.99879360198975L184.62604388068183,120.17563104629518L185.1599254229798,230.04884004592896L185.24742028125002,156.09990119934082L185.5721235842803,290.51143884658813L186.2793292484217,221.64459228515628L186.4414033008207,178.21834802627563L186.55974088194444,107.86082983016969L186.69638539425503,261.95128083229065L186.84909412910352,223.03062200546262L187.2581729529672,204.4258904457092L187.83832588478538,263.59528541564936L187.8503649201389,153.04140329360962L188.0584546786616,155.4484176635742L188.41317521243687,161.50307893753052L188.60566097853535,203.84505271911618L188.68657381565657,170.2161955833435L189.09921029135103,208.7563133239746L189.12328105681817,146.07625722885132L189.39236226325755,212.07321166992185L189.42136406565658,221.40676975250244L189.59203638541666,199.0324258804321L189.65120882859847,133.21776866912842L189.6663964223485,243.1391680240631L189.98337808680554,206.525137424469L190.05786231281567,446.6658765077591L190.18107248895203,200.81284046173099L190.21984870233587,208.69818449020386L190.71247755492428,287.0165991783142L190.85241673042927,179.09203290939328L190.94598224305557,198.50035429000852L191.4909458342803,280.483238697052L191.50496458964648,177.54413366317746L191.50627953282827,449.55398082733154L191.97519557670455,306.88419342041016L193.4137945542929,190.6196665763855L193.9472304769571,253.9131796360016L194.10534508933083,204.9932599067688L194.41424715845957,257.11334466934204L194.48721919981062,239.66593265533444L194.65148482417928,161.1525535583496L194.80883238636363,200.3432035446167L195.11210942077022,177.62083768844604L195.5746991268939,232.45044708251953L195.7854260770202,269.2168593406677L195.93189613699496,195.1150631904602L196.55235207733588,260.20013093948364L197.58548832481063,391.86294078826904L198.5198065921717,156.67332887649536L198.57376309406564,254.95063662528992L198.9380169659091,194.72132921218872L199.22325005776514,215.03187417984012L200.06200848200757,175.4275631904602L200.3135936388889,332.4204754829407L200.35213608459594,143.65522384643555L200.48677896117422,159.74639654159543L200.8089108197601,222.9172682762146L201.33359506502524,217.90289282798764L201.3663809816919,183.71084690093994L201.4932364725379,234.11222577095032L202.4339541300505,134.63158607482907L202.97397937910353,185.94272375106812L203.89785845864898,209.73153591156006L204.947825978851,246.8129003047943L205.18455227777775,203.89216661453247L205.78279298358586,147.66295909881592L206.2505036628788,246.92935824394226L206.89588508175504,333.4451401233673L207.071196228851,283.9696168899536L207.5029870435606,308.9551770687103L208.37664259880052,192.4813413619995L208.56810563131313,192.83822536468506L208.84341820738635,134.79240417480466L209.09311861237376,242.4729645252228L209.2302598809975,219.67940211296082L209.3659839330808,245.87109804153442L209.41320500378788,225.83953142166138L209.59867043434343,161.77459716796872L209.9944025849116,203.22746515274048L210.4149068039773,175.9906268119812L210.8167169141414,205.07216691970825L211.95782460732323,224.76091861724854L212.47383753282824,251.58487200737L212.50618513510096,173.66937875747678L212.71049077935606,203.07931423187256L213.1962673169192,211.7492973804474L213.5745326388889,229.1062867641449L214.11423645738637,219.1274285316467L214.64579493339647,243.95542502403256L214.86571918055554,305.18211007118225L215.46771477967172,223.86983513832092L215.51014361300506,177.8982138633728L216.22366830965908,167.07022905349731L216.52678462878788,215.26989698410034L216.89366838699493,159.01104927062988L217.31731385921722,275.6544899940491L217.71992754577022,187.29716062545774L218.72967972032828,263.4952497482299L218.95258450536616,210.50838947296143L219.7860466306818,235.12272119522095L221.19888002714646,235.48215866088867L221.9748133882576,195.81461191177365L222.04758088289142,181.25126123428345L222.11658617897731,223.48113298416138L222.29267898674237,214.9834835529327L222.43110597758837,243.97612810134885L222.48568342487374,249.30292725563046L223.1759701534091,195.31288146972656L223.69477368055558,187.78577327728271L224.27137626578283,238.4431993961334L224.71351130018942,216.76257133483887L224.98617937941918,160.52435159683228L225.0201560501894,216.41374826431274L226.05064049558084,323.35713386535645L226.1273382092803,158.88312578201294L226.45283778345964,166.51928186416626L226.55791635416668,233.47764015197757L226.61592726420454,183.42055320739743L226.68484489741164,185.78140497207642L227.599687395202,243.9404547214508L227.6061671429924,195.37862062454224L227.6759321840278,176.8692684173584L227.7183464068813,208.05280923843387L227.89905612626262,172.34267950057983L228.58763342866158,185.90892791748047L228.83117551641416,255.4977536201477L229.2684671767677,224.69547986984253L230.53054964267676,227.82832860946658L231.31155284027778,203.1213212013245L231.9057975798611,172.42899656295776L232.46347228851008,186.7342972755432L232.69459546843436,200.4814910888672L233.54011123958333,233.00595045089722L234.3104999236111,164.97398614883423L234.58065500031563,169.67836618423462L236.1347790416667,224.71693396568298L236.15877675473482,176.93876266479492L236.58165517676767,178.27903032302856L237.0166091603535,206.91576719284058L237.83399975789143,260.0831973552704L239.7826944166667,163.3045220375061L240.0880315287247,264.30136799812317L240.1766440886995,203.49202394485474L240.82078361679294,164.35304403305054L240.852313032197,176.96685075759888L242.73357302146465,223.28386545181272L242.90474940277775,221.82746529579163L244.11703204829547,204.324152469635L244.32952686647727,247.8105032444L246.1489845261995,220.03971576690674L247.13010746559345,262.57888197898865L247.42352242613637,293.37014079093933L247.67842416193184,261.12368345260614L248.27713970833335,176.51944398880002L248.83865697316918,256.11899614334106L249.754412625947,219.72962021827698L250.8620038784722,257.9471504688263L250.9163840842803,211.63609385490417L251.93235301799245,210.01176595687866L252.46201213162874,189.19518470764163L253.17706362342173,246.94838404655454L254.08792476546714,220.718035697937L254.10857667866162,208.3836579322815L254.62117075189394,184.77564096450806L254.84878741666665,249.1876459121704L255.4395548620581,284.38255190849304L257.84884489646464,252.04795002937314L258.3277252875631,229.13747906684875L258.79110395959594,203.91239404678345L259.8636519763258,201.2671065330505L260.5892887607323,294.8748815059662L261.12043814330804,193.81880521774292L261.4462299270833,269.05564069747925L261.4796221786616,261.3498902320861L261.8403110934343,311.7999851703644L261.85907825473487,224.87206935882568L261.8702917979798,265.0706112384796L261.9762177765151,261.02354764938354L262.3301931758207,269.19094920158386L263.0361861701389,208.39642524719238L263.59394123642676,183.02126169204712L264.36858887531565,139.38978910446167L264.484135854798,248.1498384475708L265.8964505792298,217.1414351463318L266.10355413036615,214.40254569053647L266.5418027771465,179.9986624717712L266.63013043276516,210.34434199333188L266.98240371117424,174.42355155944824L268.4198630713384,301.7405676841736L269.6092291792929,251.32529497146606L271.9632185476641,162.40214824676514L272.33586614015155,182.1933388710022L272.3784045520833,204.33371543884277L272.5112503396465,255.78707098960876L273.059413625947,373.63091468811035L273.7155775789141,273.7703847885132L273.9066753494318,302.9389679431915L275.0132730893308,221.32278084754944L277.2740768175505,235.59123158454898L278.1863551761364,188.518967628479L280.3416712402147,269.0191912651062L280.35211773327023,249.48507428169248L282.65920015625,238.07394862174988L284.82887832196974,264.93420124053955L284.95951062184344,178.99114608764648L286.9783282784091,221.1338496208191L287.8946829608586,197.38534212112427L289.05179643465914,299.3910813331604L289.3988099403409,212.63892889022827L289.7892384867424,220.42148351669312L290.1762262651515,281.4516770839691L290.564850417298,227.1032202243805L291.80216081470957,221.59865498542786L292.6923116016414,232.86846399307248L293.80085984059343,306.1343014240265L294.5178472209596,207.7036356925964L294.96012836016416,271.9013750553131L297.8090039002525,237.97609090805057L298.00319909248736,239.46438431739804L298.042859239899,337.124480009079L298.38237026420455,194.74005460739136L298.5063547957702,248.70914697647092L299.3622440075758,242.16947793960574L299.64548276893936,201.43378257751468L300.3760213693182,181.9583702087402L300.643334707702,214.04768943786618L300.82329198737375,209.6146774291992L301.8522058061869,273.32758426666254L302.03599833680556,242.37175226211545L302.1751777673611,230.51437139511106L303.22907550662876,242.96981334686276L303.63271923200756,244.35772061347961L304.07266269444443,208.66804361343384L305.38130145422974,196.5023946762085L305.73635802904045,234.9417757987976L306.3938442304293,243.47134351730344L306.6572784864268,253.55649590492249L306.7595591502525,238.1873774528503L307.483318488005,253.9919114112854L307.8316177159091,238.1988680362701L307.92434312594696,238.70457887649536L307.97958535006313,234.60133910179138L309.50491944097223,206.52443647384644L309.51608184753786,217.6059651374817L309.5507671265783,219.17601943016052L310.3535253285985,308.1501853466034L310.88200829861114,246.45263671875L311.3890869157197,256.0558354854584L311.4281772544192,318.0699634552002L311.5086590823864,226.5208303928375L312.481271417298,238.02345514297483L312.7669720445076,234.6540355682373L312.926701114899,226.33342623710635L313.7734806925505,246.86604738235474L314.7942053374369,258.5106647014618L315.609988782197,324.34016704559326L316.3813198421717,245.70251941680908L316.6342929946339,304.11303520202637L316.654601561553,256.75986528396606L317.0391274741162,254.0669631958008L317.1317579160353,211.18783593177795L317.3346682594697,253.63790631294248L319.1960287752525,169.57422494888303L319.5263059763257,244.5204663276672L320.7431982282197,258.52458357810974L320.78966685921716,274.0868139266968L320.8093837017045,215.84427595138547L321.6520650397727,200.0577163696289L322.0593979113005,239.55227851867673L323.03672943118687,275.9161949157715L324.3585249280303,276.27055048942566L325.18474756060607,302.14166164398193L325.37173978630057,256.8683624267578L326.04117005492424,250.0127148628235L326.3407214169823,238.89548778533933L327.71984843655304,238.85688543319702L328.8418164011995,226.5102410316467L329.2545113188131,252.02709674835202L331.02132741982325,284.0348553657532L331.0785420587121,225.91510891914368L331.1672422815657,211.72656655311584L332.5918663352273,307.19834446907043L332.9865100050505,231.49885654449463L334.50761436205806,214.8617434501648L335.30457220359847,228.92416477203366L338.3727364349748,194.7005009651184L339.1931148756313,243.3075213432312L339.20875539425504,247.01347231864926L340.70169805145207,207.49770641326901L340.8273481777146,236.34127378463748L341.38131912973483,243.3072209358215L341.9142875170455,248.1224763393402L342.0415594065657,216.24739766120913L343.48744170833334,267.5411868095398L345.0587476739268,254.25606966018677L345.67849500599743,244.0111005306244L345.82093987878784,231.04574203491208L350.39633581660354,219.35118198394775L350.84033368718434,261.9943642616272L351.1726198292298,256.5275001525879L351.6986628491162,210.0986337661743L351.7948071114268,258.9861595630646L352.11032042266413,279.39936876296997L352.3183955707071,229.89222764968872L352.63556717140153,251.18265151977536L353.12555152714646,206.72956466674805L354.58942663478535,170.90988636016846L354.66342871496215,197.4420189857483L355.5772411739268,228.96599650382996L356.2510838074495,221.01789236068726L357.05196456281567,201.99904918670654L358.89143857986113,197.89513349533084L361.29739742487374,260.9527015686035L361.42971723516416,311.60176634788513L361.6441479419192,220.2720057964325L362.65068581092174,250.1334285736084L362.91780190782833,280.1752209663391L364.92219171559344,244.76109266281125L364.96998990025253,223.86300086975095L368.7389311846591,229.23563718795774L368.8323213715278,248.58530402183533L368.8740854280303,205.01283645629883L370.0105981253157,266.6201877593994L370.2445776540404,268.6911714076996L370.32299940435604,261.79444313049316L370.459622000947,275.774302482605L371.3530017039141,248.0759632587433L371.540541822601,262.72513031959534L372.1791951155303,215.64508080482483L373.1490387645202,322.47501254081726L373.6192624463383,236.0596919059753L374.7160930804925,272.88708686828613L375.21941680429296,249.14025664329526L375.6698140650252,292.73951053619385L375.96672823547976,225.18359184265137L376.7223457244318,216.70121312141416L379.5123483361743,221.04069828987122L380.6550339611742,250.19165754318234L382.6095070647096,235.01222133636475L382.851105958649,248.0624949932098L383.27823603030305,270.27146458625793L384.3870691736111,264.76407051086426L384.58263775094696,244.73818659782413L385.43471362752524,265.49288392066956L385.85400517676766,295.04050612449646L386.14941446780307,275.6802499294281L388.638083238952,205.37207365036008L391.92959787499996,230.81027269363403L392.6948728910985,233.42276573181152L393.4682421130051,234.84980106353757L394.4147747414773,268.53057861328125L395.3899219946338,232.99055457115173L396.6737594649621,182.2017502784729L396.702841625,261.0564172267914L396.8650983083965,229.59677696228027L397.49687737058076,230.1372599601746L398.12522297001266,253.70362043380737L400.12025476546717,246.78050637245175L403.8553800943813,268.37857246398926L406.1423950233586,236.95881128311157L407.5746895789141,243.32497000694275L408.5278553652147,264.54164385795593L409.06797558238634,228.85494589805603L409.26235340561874,266.27426862716675L412.82380396117424,233.38373780250546L413.6106148244949,237.86789417266843L414.2370537563131,224.53158259391785L415.08226270738635,249.7578191757202L416.9704188431187,253.50369930267337L417.8475078611111,321.45663142204285L418.96867955460857,353.9165782928467L420.0082371079545,202.11360454559326L420.48769461300503,258.65718841552734L420.8799275536616,230.91148495674133L421.1052868993056,258.3202815055847L422.46895603125,413.1545162200928L423.8092118693182,220.06004333496094L426.4110899431819,348.7994134426117L426.77315954829544,250.76521039009094L429.27376508143936,301.6274642944336L431.8947244419192,190.880069732666L434.2648437799874,258.6498785018921L435.42738504703283,225.27368903160095L436.6137852275884,256.45835638046265L437.6969258421717,257.94392108917236L439.2245464731692,282.88069009780884L441.926579386048,230.0976812839508L442.3082781707702,265.7640266418457L442.8651273873106,370.64358830451965L443.0727057790404,233.90008807182315L443.52194150662876,264.48646903038025L445.6669133510101,263.9205765724182L445.7252456916035,246.11137390136716L446.1839343996212,246.6262471675873L450.1698851404671,262.9516124725342L450.49475646401515,241.47265791893003L453.90419958775254,258.7842607498169L456.5029144927399,249.6486210823059L458.6395437531565,287.3033630847931L464.1214469100379,246.18998050689694L467.1525516594066,269.8788070678711L467.20240261647734,200.8090853691101L468.65383690056814,273.85690212249756L468.66911946243687,232.1360456943512L469.7118182689394,265.1433598995208L469.7553282777777,228.34880948066711L473.109675282197,193.91388416290283L478.48137158996207,223.83138298988342L481.13297643181824,272.0030629634857L481.3808797477904,292.96751976013184L481.6022358219697,221.76107525825503L481.7663918677399,238.03139090538025L481.83123317708333,234.76415991783142L484.1029509337121,204.90343809127805L485.47426865183076,230.50873875617978L487.40308575284087,247.11939096450803L491.2795820842803,234.90542650222778L491.5351778178662,265.52022099494934L492.8763102847222,211.640750169754L495.78307985101014,230.76385974884033L496.0395010767045,224.20173525810242L497.0875034873737,254.1373336315155L497.321300385101,280.67357182502747L497.44929549337115,230.22600531578064L497.93803795833327,279.41115975379944L500.7858177124369,254.47071075439456L501.58100768592175,200.0457501411438L502.7857805448233,256.2915802001953L507.6415954214016,283.28160881996155L511.8708617875631,233.80828857421875L511.98086408996204,246.30105614662168L512.8588808734216,250.92127203941345L513.3876341373106,217.94039368629453L522.9105914595958,257.61805415153503L523.9369338339646,266.6704058647156L526.3341117806186,245.1837158203125L528.6656886729797,191.66142940521237L531.6059016275252,235.80702424049375L532.4214513046086,248.09386253356934L537.8199286218434,245.0357151031494L539.60218069476,205.88937520980832L541.7177635590278,228.4756565093994L543.9623934861111,229.0400719642639L554.550177186553,247.3915600776672L558.730666465909,218.58108758926392L559.8709705827021,247.39163517951965L560.8527217727273,250.41363358497622L561.4865682178031,209.3454623222351L561.9506920243056,203.1930685043335L562.0454482910354,214.93929862976074L562.3425231767677,242.36289024353027L562.712066042298,254.47997331619263L563.765437804293,266.0194730758667L565.477362332702,276.53047800064087L569.3899173282829,214.3203341960907L572.766691419192,275.6872344017029L573.1913304040403,243.824747800827L583.1227967414773,269.6294689178467L583.5627913405934,242.82611846923828L584.2336169100379,191.0023856163025L587.5946628194444,243.50651621818542L587.756188978851,227.53488063812256L588.1020482566288,204.01588439941406L588.2675411613005,201.81134462356565L588.4548255965909,154.99835729599L588.6619583686868,258.91401171684265L596.711814065341,243.76709461212158L601.974165542298,249.11952853202817L602.0596587648358,276.2070643901825L604.0456612837753,269.87863183021545L605.1518937616793,268.82885813713074L607.6829548399621,259.490168094635L611.7469766796086,246.60444259643552L612.0229686429924,220.95222830772403L613.8307598345959,253.59702587127683L616.7036842244319,249.29421544075012L617.5418582294823,279.1988718509674L623.3337007995581,271.3334548473358L625.985174147096,280.11153459548945L627.8825129693813,275.2091360092163L628.8597422159091,298.74738335609436L631.0555439195075,294.6900808811188L634.2940809558081,266.35690569877625L640.6825278579546,287.71164178848267L642.5958578503787,289.104505777359L643.0255228402777,286.1125981807709L643.2599333781567,245.20108938217163L649.7755791174243,254.58706855773926L650.0190773737374,262.56704092025757L653.0751222121212,284.80194568634033L659.9756006840277,253.34425806999207L660.7475307736742,190.28766632080078L661.5109210378788,248.42198252677915L664.141245715909,262.44319796562195L668.3922743917299,262.07239508628845L678.2128471875001,261.3266837596893L679.0012725088384,248.34029674530026L686.2289453705807,269.3993318080902L687.0295704425505,265.10788679122925L699.709370303346,300.30081510543823L701.2812679933712,235.28018474578857L702.1974400448232,276.47377610206604L703.7007269217171,216.46727085113525L704.6873287910354,292.9612612724304L710.124582321654,330.077748298645L712.6318867597854,265.67007422447205L714.1002107585227,258.08949351310724L715.953659699495,279.99102115631104L718.6832187563132,451.5100461244583L721.590419331755,292.382276058197L721.8417049738005,255.30341506004333L722.2665119791666,272.6156687736511L725.5038728718434,279.7314691543579L726.152198302399,217.8410840034485L729.9661252541035,233.38806867599487L730.6918570066288,229.8983108997345L738.1471538383838,260.55774092674255L738.8731339690656,270.0463342666626L740.4443961032198,225.95245957374573L740.8750107743057,235.26481389999387L743.0331539662246,240.6278121471405L746.2809321309976,247.22961544990542L748.4592962269571,179.73495483398438L750.0703646133206,248.9886510372162L752.1550317023359,262.14887380599976L752.7699648813132,231.80782556533813L753.7727551622473,252.41837739944458L754.0137185003157,241.40764474868772L758.834234457702,240.15512108802795L759.0747813970959,225.6571340560913L762.2552271657197,253.36909174919128L765.7103572597854,264.9215590953827L769.9230480366163,230.9839081764221L779.1057492001262,251.4323651790619L779.2485739453914,221.61988377571106L779.3288293109217,257.55759716033936L779.8575241328914,248.5280513763428L784.6775360287248,242.1813941001892L786.820133670139,252.41382122039792L787.7191968497475,248.1623303890228L788.7426317386364,246.02673411369324L789.2518800119949,239.94914174079892L797.4996346575126,255.80354332923886L797.8199109851641,248.01137566566464L799.9777911884469,258.8302481174469L800.145293034091,250.07497429847717L803.8603800899622,184.20111179351807L804.7275558974117,237.5141143798828L810.0381584839016,246.3898766040802L810.8883276928661,248.73438119888303L812.2197222749369,252.0742106437683L812.830031237058,270.70252418518066L813.0987325710228,250.75782537460324L815.1376542477905,256.93277478218073L825.3768538159721,241.74487709999084L828.0173035565025,237.26064562797546L831.9838588854167,261.5969252586365L832.5221308768939,255.72240829467773L836.7610401597221,265.49774050712585L838.5478507023358,225.1443386077881L839.2102752458964,271.401572227478L840.1594085397728,265.93883872032166L841.6027047866162,280.5143809318542L842.9065220880681,266.8482720851898L844.0927980795454,263.45784902572626L846.9096693636363,244.75220561027524L847.708855303346,269.0183401107788L849.4270258118687,275.7633125782013L851.6584332547347,275.9559738636017L852.2103514343434,275.07583022117615L856.681823029356,283.5350024700165L860.2120436843435,245.03796815872192L861.7099319889519,256.18603706359863L862.262325009154,266.9742178916931L865.6623662891413,249.40486550331113L869.5433772588385,255.37541270256042L869.6820307121211,271.5557312965393L870.4323080707071,222.37605929374695L877.8498587279041,264.87319350242615L878.0865338901514,260.7731330394745L881.127982859217,249.90767240524292L881.2069159763256,248.9216101169586L882.8256475593433,252.60941147804257L887.2861685997475,239.8892605304718L893.4317528014521,233.30147624015808L893.5109342967171,233.38654160499573L896.0395554248737,268.46033334732056L897.1344501704547,288.4949541091919L898.5795654220328,243.92283082008362L899.2521150280936,291.2551724910736L899.9603726467803,279.3455958366394L902.4832591616163,273.63229751586914L906.0799355839647,282.3071622848511L910.384518973485,266.1291718482971L912.7411966701388,264.24108624458313L914.2907914627525,261.6316223144531L919.8510944542298,315.3132498264313L931.3298544337122,277.44486808776855L935.0206223459595,258.8970136642456L937.7849032080177,273.29536557197565L942.3965769671718,255.35308241844177L947.4142905703914,244.49095129966733L947.5980757957702,247.30203866958618L952.2189176309975,276.9540524482727L953.6215456073232,268.41249346733093L954.0926093917299,251.6613507270813L954.8670013472222,269.0890860557556L955.0248748866793,278.38093757629395L955.4128269567549,280.5478262901306L960.0334131085858,275.5069148540497L962.6008469763258,290.65598487854004L962.7576101193181,274.56366062164307L962.8359880381945,280.62225222587585L969.182773157197,268.3729648590088L969.2278464873737,297.1701443195343L970.7495133478536,253.03266048431396L982.0157638986742,259.05455231666565L982.566513239899,268.98179054260254L987.396679419192,280.58204770088196L987.7892995375631,253.7529373168945L990.94782958649,268.0747854709625L995.6127293235479,248.53956699371338L996.8118406215277,247.27462649345395L1001.2388671369948,264.51082706451416L1002.727682333649,229.30881142616275L1005.5317913636363,250.2409994602203L1005.7883075574495,257.60523676872253L1010.3408819258208,262.1000325679779L1014.2227329981062,298.86839747428894L1015.4037565220958,277.15507507324213L1016.524299964962,270.1118230819702L1017.7797565782827,260.52417039871216L1018.7992685533461,276.31626248359674L1021.524707454861,263.4020233154297L1022.5909510495582,233.21325659751892L1022.7693888393309,233.51934671401978L1037.9694453285986,272.1377205848694L1042.3427271941287,241.42789721488953L1044.1932540391415,270.77224373817444L1045.646865284722,269.1487669944763L1051.8067166199494,250.98583459854123L1054.587894501894,255.86084604263309L1054.8725797007576,235.9715723991394L1055.5981872642046,238.56766819953916L1056.0221249460228,257.7805244922638L1057.7923452888256,281.33153915405273L1062.0799586060605,256.96834802627563L1065.297529603851,258.89143109321594L1072.574775823548,243.02060723304746L1077.1224849021464,262.09577679634094L1081.0668761332072,277.44889855384827L1083.0504240915407,234.30558800697324L1085.7161864883208,259.06729459762573L1090.6765247373737,252.18060493469238L1090.9995770561868,282.5471878051758L1091.3200433200757,271.6667568683624L1094.5433781521465,320.5662488937378L1098.937903655303,279.33428049087524L1100.6895394678031,269.97148275375366L1105.8462425653408,253.50282311439514L1112.0678523986742,244.71094965934753L1114.6973661950758,250.54796576499936L1118.3626169043562,253.40599179267883L1119.8170609472854,231.51580452919006L1122.674819659091,247.55415558815002L1127.7723503134469,227.82695174217224L1131.6765042831441,283.13693761825556L1133.1567358229165,240.93332648277283L1141.6331663929925,252.24774599075317L1149.104622415404,276.06497168540955L1153.0914863112373,256.22764348983765L1153.9382001417298,219.00536298751834L1158.3476794709597,281.6315460205078L1160.3012540299874,278.4921884536743L1164.838830740846,257.31794714927673L1165.9922988999367,281.4245402812958L1166.6882764103536,266.9965732097626L1168.8121799428661,248.06962966918945L1173.9589479141414,274.830197095871L1178.4792769535984,280.00786900520325L1178.5221952380052,276.51938796043396L1178.904851009154,246.18755221366882L1180.6187917837754,278.4691572189331L1182.19073330524,311.2758493423462L1185.564315006313,291.9653105735779L1185.9600836830807,288.22298526763916L1191.3278570770203,291.15723967552185L1201.6356455426135,283.3708047866821L1202.9980581732955,272.1781253814697L1203.0797161448863,264.06266927719116L1203.2704340429293,250.1342797279358L1212.7434819662249,272.48929738998413L1219.291709075442,250.43386101722714L1220.8126527171717,243.57110381126407L1223.3668129640153,230.90727925300598L1224.157371415404,196.51245832443237L1242.5931012869319,254.88902807235715L1245.6979159068815,262.01051115989685L1248.896960816288,270.2319359779358L1253.7532067020202,240.32377481460574L1255.7888921575127,266.59770727157587L1258.7071017294822,267.41944670677185L1264.9762467588384,301.99313521385193L1265.6057831123737,264.80685353279114L1267.2439174125632,255.5618405342102L1267.5393486193182,265.5064523220062L1268.8049083794192,275.9922981262207L1272.2002304744317,296.7130494117737L1274.7444555950126,290.77174186706543L1278.5322517035984,298.48885774612427L1285.6996417256944,311.63506150245667L1286.7167575820708,288.3899116516113L1291.8664257335859,290.6244671344757L1297.7895215489268,273.70632290840143L1304.320164945707,280.1008701324463L1305.2685019684343,281.3075816631317L1307.7886928497476,290.87255358695984L1309.8778234403408,284.6312141418457L1316.2910204952652,280.03575682640076L1317.0783427253787,281.5278053283691L1317.5509186944446,285.0974464416504L1317.8672136663508,270.34386277198786L1319.2020344059345,243.67053866386414L1320.001943564394,261.13499879837036L1320.1591961584595,265.8560514450073L1321.0270878794192,271.05329990386963L1321.4988310511364,267.70763754844666L1327.0415211092172,247.84409880638123L1336.8018475915405,263.9017009735107L1341.283436943813,255.6789243221283L1341.8583008819444,292.6379978656769L1347.746207356692,233.73326182365417L1349.0104375631313,243.91321778297424L1349.8513729488636,252.33686685562134L1351.2211419561236,219.38212394714353L1356.772561775884,228.43057036399844L1358.3258384094065,266.0759246349335L1358.3300316171085,226.28611207008365L1360.826341669192,234.43646550178528L1365.82536846875,246.83878540992737L1367.0895475385103,243.05725693702698L1372.2667418339647,241.24544978141782L1376.119583798611,235.72779178619385L1377.3859325246212,241.35051727294922L1379.6156816780303,233.23859095573428L1381.6329287080177,248.6982822418213L1383.1446750527145,223.5404133796692L1383.6322486792928,239.13070678710935L1385.9133682796717,240.1397001743317" style="fill: none;" fill="none"></path></g></g></g></g></g></g><g transform="translate(51, 378)" clip-path="url(#clip_1)"><clipPath id="clip_1"><rect width="1446" height="22"></rect></clipPath><g><g><line x1="0" y1="0" x2="0" y2="5" style="visibility: inherit;" fill="rgb(0, 0, 0)" stroke="rgb(204, 204, 204)" stroke-width="1px"></line><line x1="131.4943181818182" y1="0" x2="131.4943181818182" y2="5" style="visibility: inherit;" fill="rgb(0, 0, 0)" stroke="rgb(204, 204, 204)" stroke-width="1px"></line><line x1="262.9886363636364" y1="0" x2="262.9886363636364" y2="5" style="visibility: inherit;" fill="rgb(0, 0, 0)" stroke="rgb(204, 204, 204)" stroke-width="1px"></line><line x1="394.4829545454545" y1="0" x2="394.4829545454545" y2="5" style="visibility: inherit;" fill="rgb(0, 0, 0)" stroke="rgb(204, 204, 204)" stroke-width="1px"></line><line x1="525.9772727272727" y1="0" x2="525.9772727272727" y2="5" style="visibility: inherit;" fill="rgb(0, 0, 0)" stroke="rgb(204, 204, 204)" stroke-width="1px"></line><line x1="657.4715909090909" y1="0" x2="657.4715909090909" y2="5" style="visibility: inherit;" fill="rgb(0, 0, 0)" stroke="rgb(204, 204, 204)" stroke-width="1px"></line><line x1="788.965909090909" y1="0" x2="788.965909090909" y2="5" style="visibility: inherit;" fill="rgb(0, 0, 0)" stroke="rgb(204, 204, 204)" stroke-width="1px"></line><line x1="920.4602272727273" y1="0" x2="920.4602272727273" y2="5" style="visibility: inherit;" fill="rgb(0, 0, 0)" stroke="rgb(204, 204, 204)" stroke-width="1px"></line><line x1="1051.9545454545455" y1="0" x2="1051.9545454545455" y2="5" style="visibility: inherit;" fill="rgb(0, 0, 0)" stroke="rgb(204, 204, 204)" stroke-width="1px"></line><line x1="1183.4488636363637" y1="0" x2="1183.4488636363637" y2="5" style="visibility: inherit;" fill="rgb(0, 0, 0)" stroke="rgb(204, 204, 204)" stroke-width="1px"></line><line x1="1314.9431818181818" y1="0" x2="1314.9431818181818" y2="5" style="visibility: inherit;" fill="rgb(0, 0, 0)" stroke="rgb(204, 204, 204)" stroke-width="1px"></line><line x1="1446.4375" y1="0" x2="1446.4375" y2="5" style="visibility: inherit;" fill="rgb(0, 0, 0)" stroke="rgb(204, 204, 204)" stroke-width="1px"></line></g><g transform="translate(0, 8)"><text x="0" y="0" dx="0em" dy="0.95em" style="text-anchor: middle; visibility: hidden; font-family: Roboto, sans-serif; font-size: 12px; font-weight: 200;" fill="rgb(50, 49, 63)" stroke="none" stroke-width="1px">-5</text><text x="131.4943181818182" y="0" dx="0em" dy="0.95em" style="text-anchor: middle; visibility: inherit; font-family: Roboto, sans-serif; font-size: 12px; font-weight: 200;" fill="rgb(50, 49, 63)" stroke="none" stroke-width="1px">0</text><text x="262.9886363636364" y="0" dx="0em" dy="0.95em" style="text-anchor: middle; visibility: inherit; font-family: Roboto, sans-serif; font-size: 12px; font-weight: 200;" fill="rgb(50, 49, 63)" stroke="none" stroke-width="1px">5</text><text x="394.4829545454545" y="0" dx="0em" dy="0.95em" style="text-anchor: middle; visibility: inherit; font-family: Roboto, sans-serif; font-size: 12px; font-weight: 200;" fill="rgb(50, 49, 63)" stroke="none" stroke-width="1px">10</text><text x="525.9772727272727" y="0" dx="0em" dy="0.95em" style="text-anchor: middle; visibility: inherit; font-family: Roboto, sans-serif; font-size: 12px; font-weight: 200;" fill="rgb(50, 49, 63)" stroke="none" stroke-width="1px">15</text><text x="657.4715909090909" y="0" dx="0em" dy="0.95em" style="text-anchor: middle; visibility: inherit; font-family: Roboto, sans-serif; font-size: 12px; font-weight: 200;" fill="rgb(50, 49, 63)" stroke="none" stroke-width="1px">20</text><text x="788.965909090909" y="0" dx="0em" dy="0.95em" style="text-anchor: middle; visibility: inherit; font-family: Roboto, sans-serif; font-size: 12px; font-weight: 200;" fill="rgb(50, 49, 63)" stroke="none" stroke-width="1px">25</text><text x="920.4602272727273" y="0" dx="0em" dy="0.95em" style="text-anchor: middle; visibility: inherit; font-family: Roboto, sans-serif; font-size: 12px; font-weight: 200;" fill="rgb(50, 49, 63)" stroke="none" stroke-width="1px">30</text><text x="1051.9545454545455" y="0" dx="0em" dy="0.95em" style="text-anchor: middle; visibility: inherit; font-family: Roboto, sans-serif; font-size: 12px; font-weight: 200;" fill="rgb(50, 49, 63)" stroke="none" stroke-width="1px">35</text><text x="1183.4488636363637" y="0" dx="0em" dy="0.95em" style="text-anchor: middle; visibility: inherit; font-family: Roboto, sans-serif; font-size: 12px; font-weight: 200;" fill="rgb(50, 49, 63)" stroke="none" stroke-width="1px">40</text><text x="1314.9431818181818" y="0" dx="0em" dy="0.95em" style="text-anchor: middle; visibility: inherit; font-family: Roboto, sans-serif; font-size: 12px; font-weight: 200;" fill="rgb(50, 49, 63)" stroke="none" stroke-width="1px">45</text><text x="1446.4375" y="0" dx="0em" dy="0.95em" style="text-anchor: middle; visibility: hidden; font-family: Roboto, sans-serif; font-size: 12px; font-weight: 200;" fill="rgb(50, 49, 63)" stroke="none" stroke-width="1px">50</text></g><line x1="0" y1="0" x2="1446.4375" y2="0" fill="rgb(0, 0, 0)" stroke="rgb(204, 204, 204)" stroke-width="1px"></line></g></g></g></g></svg>