<svg viewBox="0 0 1498 400" xmlns="http://www.w3.org/2000/svg"><g><g><g><g><g><line x1="51.5625" y1="378" x2="46.5625" y2="378" style="visibility: inherit;" fill="rgb(0, 0, 0)" stroke="rgb(204, 204, 204)" stroke-width="1px"></line><line x1="51.5625" y1="340.2" x2="46.5625" y2="340.2" style="visibility: inherit;" fill="rgb(0, 0, 0)" stroke="rgb(204, 204, 204)" stroke-width="1px"></line><line x1="51.5625" y1="302.40000000000003" x2="46.5625" y2="302.40000000000003" style="visibility: inherit;" fill="rgb(0, 0, 0)" stroke="rgb(204, 204, 204)" stroke-width="1px"></line><line x1="51.5625" y1="264.59999999999997" x2="46.5625" y2="264.59999999999997" style="visibility: inherit;" fill="rgb(0, 0, 0)" stroke="rgb(204, 204, 204)" stroke-width="1px"></line><line x1="51.5625" y1="226.79999999999998" x2="46.5625" y2="226.79999999999998" style="visibility: inherit;" fill="rgb(0, 0, 0)" stroke="rgb(204, 204, 204)" stroke-width="1px"></line><line x1="51.5625" y1="189" x2="46.5625" y2="189" style="visibility: inherit;" fill="rgb(0, 0, 0)" stroke="rgb(204, 204, 204)" stroke-width="1px"></line><line x1="51.5625" y1="151.20000000000002" x2="46.5625" y2="151.20000000000002" style="visibility: inherit;" fill="rgb(0, 0, 0)" stroke="rgb(204, 204, 204)" stroke-width="1px"></line><line x1="51.5625" y1="113.40000000000002" x2="46.5625" y2="113.40000000000002" style="visibility: inherit;" fill="rgb(0, 0, 0)" stroke="rgb(204, 204, 204)" stroke-width="1px"></line><line x1="51.5625" y1="75.60000000000002" x2="46.5625" y2="75.60000000000002" style="visibility: inherit;" fill="rgb(0, 0, 0)" stroke="rgb(204, 204, 204)" stroke-width="1px"></line><line x1="51.5625" y1="37.79999999999999" x2="46.5625" y2="37.79999999999999" style="visibility: inherit;" fill="rgb(0, 0, 0)" stroke="rgb(204, 204, 204)" stroke-width="1px"></line><line x1="51.5625" y1="0" x2="46.5625" y2="0" style="visibility: inherit;" fill="rgb(0, 0, 0)" stroke="rgb(204, 204, 204)" stroke-width="1px"></line></g><g transform="translate(41.5625, 0)"><text x="0" y="378" dx="0em" dy="0.3em" style="text-anchor: end; visibility: hidden; font-family: Roboto, sans-serif; font-size: 12px; font-weight: 200;" fill="rgb(50, 49, 63)" stroke="none" stroke-width="1px">-0.1</text><text x="0" y="340.2" dx="0em" dy="0.3em" style="text-anchor: end; visibility: inherit; font-family: Roboto, sans-serif; font-size: 12px; font-weight: 200;" fill="rgb(50, 49, 63)" stroke="none" stroke-width="1px">0</text><text x="0" y="302.40000000000003" dx="0em" dy="0.3em" style="text-anchor: end; visibility: inherit; font-family: Roboto, sans-serif; font-size: 12px; font-weight: 200;" fill="rgb(50, 49, 63)" stroke="none" stroke-width="1px">0.1</text><text x="0" y="264.59999999999997" dx="0em" dy="0.3em" style="text-anchor: end; visibility: inherit; font-family: Roboto, sans-serif; font-size: 12px; font-weight: 200;" fill="rgb(50, 49, 63)" stroke="none" stroke-width="1px">0.2</text><text x="0" y="226.79999999999998" dx="0em" dy="0.3em" style="text-anchor: end; visibility: inherit; font-family: Roboto, sans-serif; font-size: 12px; font-weight: 200;" fill="rgb(50, 49, 63)" stroke="none" stroke-width="1px">0.3</text><text x="0" y="189" dx="0em" dy="0.3em" style="text-anchor: end; visibility: inherit; font-family: Roboto, sans-serif; font-size: 12px; font-weight: 200;" fill="rgb(50, 49, 63)" stroke="none" stroke-width="1px">0.4</text><text x="0" y="151.20000000000002" dx="0em" dy="0.3em" style="text-anchor: end; visibility: inherit; font-family: Roboto, sans-serif; font-size: 12px; font-weight: 200;" fill="rgb(50, 49, 63)" stroke="none" stroke-width="1px">0.5</text><text x="0" y="113.40000000000002" dx="0em" dy="0.3em" style="text-anchor: end; visibility: inherit; font-family: Roboto, sans-serif; font-size: 12px; font-weight: 200;" fill="rgb(50, 49, 63)" stroke="none" stroke-width="1px">0.6</text><text x="0" y="75.60000000000002" dx="0em" dy="0.3em" style="text-anchor: end; visibility: inherit; font-family: Roboto, sans-serif; font-size: 12px; font-weight: 200;" fill="rgb(50, 49, 63)" stroke="none" stroke-width="1px">0.7</text><text x="0" y="37.79999999999999" dx="0em" dy="0.3em" style="text-anchor: end; visibility: inherit; font-family: Roboto, sans-serif; font-size: 12px; font-weight: 200;" fill="rgb(50, 49, 63)" stroke="none" stroke-width="1px">0.8</text><text x="0" y="0" dx="0em" dy="0.3em" style="text-anchor: end; visibility: hidden; font-family: Roboto, sans-serif; font-size: 12px; font-weight: 200;" fill="rgb(50, 49, 63)" stroke="none" stroke-width="1px">0.9</text></g><line x1="51.5625" y1="0" x2="51.5625" y2="378" fill="rgb(0, 0, 0)" stroke="rgb(204, 204, 204)" stroke-width="1px"></line></g></g><g transform="translate(51, 0)" clip-path="url(#clip_0)"><clipPath id="clip_0"><rect width="1446" height="378"></rect></clipPath><g><g><g><line x1="0" y1="0" x2="0" y2="378" fill="rgb(0, 0, 0)" stroke="rgb(60, 60, 60)" stroke-width="1px" opacity="0.25"></line><line x1="120.53645833333333" y1="0" x2="120.53645833333333" y2="378" fill="rgb(0, 0, 0)" stroke="rgb(60, 60, 60)" stroke-width="1px" opacity="0.25"></line><line x1="241.07291666666666" y1="0" x2="241.07291666666666" y2="378" fill="rgb(0, 0, 0)" stroke="rgb(60, 60, 60)" stroke-width="1px" opacity="0.25"></line><line x1="361.609375" y1="0" x2="361.609375" y2="378" fill="rgb(0, 0, 0)" stroke="rgb(60, 60, 60)" stroke-width="1px" opacity="0.25"></line><line x1="482.1458333333333" y1="0" x2="482.1458333333333" y2="378" fill="rgb(0, 0, 0)" stroke="rgb(60, 60, 60)" stroke-width="1px" opacity="0.25"></line><line x1="602.6822916666667" y1="0" x2="602.6822916666667" y2="378" fill="rgb(0, 0, 0)" stroke="rgb(60, 60, 60)" stroke-width="1px" opacity="0.25"></line><line x1="723.21875" y1="0" x2="723.21875" y2="378" fill="rgb(0, 0, 0)" stroke="rgb(60, 60, 60)" stroke-width="1px" opacity="0.25"></line><line x1="843.7552083333334" y1="0" x2="843.7552083333334" y2="378" fill="rgb(0, 0, 0)" stroke="rgb(60, 60, 60)" stroke-width="1px" opacity="0.25"></line><line x1="964.2916666666666" y1="0" x2="964.2916666666666" y2="378" fill="rgb(0, 0, 0)" stroke="rgb(60, 60, 60)" stroke-width="1px" opacity="0.25"></line><line x1="1084.828125" y1="0" x2="1084.828125" y2="378" fill="rgb(0, 0, 0)" stroke="rgb(60, 60, 60)" stroke-width="1px" opacity="0.25"></line><line x1="1205.3645833333335" y1="0" x2="1205.3645833333335" y2="378" fill="rgb(0, 0, 0)" stroke="rgb(60, 60, 60)" stroke-width="1px" opacity="0.25"></line><line x1="1325.9010416666665" y1="0" x2="1325.9010416666665" y2="378" fill="rgb(0, 0, 0)" stroke="rgb(60, 60, 60)" stroke-width="1px" opacity="0.25"></line><line x1="1446.4375" y1="0" x2="1446.4375" y2="378" fill="rgb(0, 0, 0)" stroke="rgb(60, 60, 60)" stroke-width="1px" opacity="0.25"></line></g><g><line x1="0" y1="378" x2="1446.4375" y2="378" fill="rgb(0, 0, 0)" stroke="rgb(60, 60, 60)" stroke-width="1px" opacity="0.25"></line><line x1="0" y1="340.2" x2="1446.4375" y2="340.2" fill="rgb(0, 0, 0)" stroke="rgb(60, 60, 60)" stroke-width="1px" opacity="0.25"></line><line x1="0" y1="302.40000000000003" x2="1446.4375" y2="302.40000000000003" fill="rgb(0, 0, 0)" stroke="rgb(60, 60, 60)" stroke-width="1px" opacity="0.25"></line><line x1="0" y1="264.59999999999997" x2="1446.4375" y2="264.59999999999997" fill="rgb(0, 0, 0)" stroke="rgb(60, 60, 60)" stroke-width="1px" opacity="0.25"></line><line x1="0" y1="226.79999999999998" x2="1446.4375" y2="226.79999999999998" fill="rgb(0, 0, 0)" stroke="rgb(60, 60, 60)" stroke-width="1px" opacity="0.25"></line><line x1="0" y1="189" x2="1446.4375" y2="189" fill="rgb(0, 0, 0)" stroke="rgb(60, 60, 60)" stroke-width="1px" opacity="0.25"></line><line x1="0" y1="151.20000000000002" x2="1446.4375" y2="151.20000000000002" fill="rgb(0, 0, 0)" stroke="rgb(60, 60, 60)" stroke-width="1px" opacity="0.25"></line><line x1="0" y1="113.40000000000002" x2="1446.4375" y2="113.40000000000002" fill="rgb(0, 0, 0)" stroke="rgb(60, 60, 60)" stroke-width="1px" opacity="0.25"></line><line x1="0" y1="75.60000000000002" x2="1446.4375" y2="75.60000000000002" fill="rgb(0, 0, 0)" stroke="rgb(60, 60, 60)" stroke-width="1px" opacity="0.25"></line><line x1="0" y1="37.79999999999999" x2="1446.4375" y2="37.79999999999999" fill="rgb(0, 0, 0)" stroke="rgb(60, 60, 60)" stroke-width="1px" opacity="0.25"></line><line x1="0" y1="0" x2="1446.4375" y2="0" fill="rgb(0, 0, 0)" stroke="rgb(60, 60, 60)" stroke-width="1px" opacity="0.25"></line></g></g></g><g><g><line x1="0" y1="340.2" x2="1446.4375" y2="340.2" fill="rgb(0, 0, 0)" stroke="rgb(153, 153, 153)" stroke-width="1.5px"></line></g></g><g><g><line x1="120.53645833333333" y1="0" x2="120.53645833333333" y2="378" fill="rgb(0, 0, 0)" stroke="rgb(153, 153, 153)" stroke-width="1.5px"></line></g></g><g><g><g><g><g><path stroke="rgb(238, 51, 119)" stroke-width="2px" d="M120.53645833333333,87.66284151077271L120.55269727285882,85.85641462480706L120.76333473379628,85.36172994886131L120.99124908709491,85.91948816124142L121.64803885561342,85.81075657807924L122.28748476707176,84.86515901203386L122.32994038628475,83.46080301571251L122.57593520833333,82.57509421796696L122.77294535300928,83.53250167432012L123.19408634548608,83.64569244825528L123.22509100115741,83.86422133415796L123.3014642404514,83.35766340188121L125.0898234939236,86.17000007319439L125.79368944589122,87.08440609509053L126.2144956148727,89.42910449342351L126.29465235966435,91.70278601581789L126.8458722800926,95.59913971982404L127.00246922887732,97.55683365894785L127.2893125173611,101.48373578460277L127.83152568576388,101.67931263419092L127.93920492187499,102.47141715414568L128.72376333622685,105.30371601135637L128.9452825607639,107.69499350174758L129.05045062065972,109.94483214016475L129.48156935329862,109.67725266041471L131.34449379918985,107.45241644009099L131.98819196903932,113.50223905297102L132.6981517086227,114.87356708304648L133.3513253833912,115.18102558214407L134.3886085720486,110.75405392171706L135.48009968460647,113.6916846442672L136.17120886140046,113.76399890051L136.205159963831,113.22620270991924L136.35117649016203,117.11233420820011L136.39527274450234,124.87198661786259L137.06404919415507,123.82066153868304L137.1330228342014,128.9166231106188L137.75341728877316,131.82122714532906L138.1578171064815,139.7362012732237L138.9485027907986,147.800068837377L139.5381939308449,145.89718133239634L139.79165531684026,144.05082779301233L140.03456976273145,151.4389027269224L141.6310081886574,153.00740440961707L143.3747689525463,144.75315669708093L143.43473584056716,137.81902647323858L145.03331713686342,130.6740877973498L145.40731498119214,126.55151724131085L145.56327576533565,127.16870343540619L146.16917236255784,128.78787141115575L146.48748905960647,124.38511648154758L146.69970019097224,129.50502663392837L148.18403971064816,135.127377704426L149.19711516059027,142.05364084023628L150.6264096976273,143.3364508109491L150.86939110821757,148.4331762176298L151.37045446903934,153.30160379986248L151.4355776388889,149.4689455998154L151.87225444155095,151.33914897128398L152.68416793547453,145.88436288531904L154.27126478587965,140.48404231457457L155.2038151851852,144.16350517329644L155.515971129919,148.28102578153667L155.5454690798611,148.0193273799693L155.66409704427085,143.0670571117387L156.1106511400463,142.60255668397946L156.11637662181712,149.23421682105112L156.29775050925923,150.05306113503678L156.39210377025464,145.82424611054913L156.99408293258102,148.06638160564705L157.32857160445602,144.26535098820142L159.88625480324075,141.19303632834124L160.86812470341434,145.31577438015657L165.13538318721066,155.29388824329382L166.44323724247684,155.0302715295911L166.5104363179977,150.74921507465695L167.74449527488426,146.7536126490461L169.03855460214123,141.29988492288504L170.33797110532407,144.12440078915006L170.62970281684028,150.15162112249206L170.66941288339117,146.58929153683601L170.6790892824074,148.07114988922532L171.77443086516203,142.40776944677697L175.28247707320602,139.62993402172452L178.13738308883103,137.66008364921993L178.182584260706,131.67956426389603L179.23660862413192,134.84849989243298L180.6635593967014,133.7303057502728L181.81260666811343,133.27633239145422L182.2232676851852,139.28106419617518L182.3756793402778,136.73433109895169L184.47746686776622,138.90781011458938L184.98874234519678,144.6530311944729L185.6029760474537,139.92296445771825L186.74050539062497,150.75260271476836L188.04668532841436,147.03875886799318L190.11150834201388,156.81345563855507L190.78313079137732,164.48244238909004L190.86928087673613,162.35531492538504L192.68328760995368,154.24212963798558L192.71579897135416,154.34053332232054L194.44841011284723,156.80151409969992L196.17445871383103,155.32735479786368L196.52749660734952,159.0312660781813L196.9866400665509,155.34861087006018L199.63579704427082,158.20907461346403L199.73323068142363,152.59783745394193L199.90603308738426,155.00158863510552L202.08767601851852,148.3953129397349L202.36440763744213,148.34883591279205L203.08504824652778,149.70878044383792L203.332516291956,149.61072028112105L204.10800098958333,149.76302073408246L205.49684884837964,162.9151734937218L206.99267281394677,163.77118734503637L207.0202957523148,172.01940798123755L208.10314841869211,166.88254219970318L208.6728505960648,173.19307733913354L210.86755164351854,170.36175543548867L213.047152151331,169.29346711263318L213.32167393518515,176.89423964109545L214.54829981047456,175.48813869324135L217.05036882667827,166.68738302128628L219.63785131655092,167.25039751268284L220.5626672931134,162.30719731676317L222.4191966102431,164.25940105313927L222.7484955179398,167.60292876453667L223.43304215422455,178.29667785726284L223.56235098813656,177.78669015127056L224.2784379976852,178.66588316225076L224.72616397569445,172.7854337704951L225.9802788599537,170.1657191531003L226.39854037037037,162.0012179521747L228.92247336082175,155.31546562973386L229.15008637297453,150.1892543681595L230.71776346064814,154.88965361126517L231.04515387442132,149.4837997819043L231.19830214120373,146.55504311302658L231.52187556712963,148.40712256442785L232.96228624421298,149.4565712186046L233.5242539988426,148.23737516036869L234.9553231004051,147.65152655642189L238.3655673654514,144.09698908191857L239.68557551359956,144.99604017385695L240.3472202228009,143.47196502380154L241.68792046296292,143.84477501849884L242.63470086082174,160.97270558359335L242.69520346643517,157.47950259484057L243.00350894097218,157.17117642433126L243.806080859375,158.5057241945818L246.5017783029514,155.71399739507177L249.12669405960648,158.02606660563936L249.79858436776624,159.18010038390912L252.48011877748843,152.73312901047984L252.6699302170139,152.6375758278349L253.70697902922456,147.35375064922007L255.89719344184027,145.6505338534148L257.5616680020255,142.62359124467295L258.6886504050926,141.96251695372956L259.34383302083336,141.62742454355342L260.87310585358796,137.4395996634339L261.05799538773147,153.68056748878465L261.11980380497687,159.21968458163263L261.4982882841435,164.49166213312552L262.27005644097227,157.65476032586326L266.76238327835654,171.59710330119145L268.436668166956,171.44169658599122L269.0658015147569,182.80913089993336L269.371796707176,176.27651449312322L270.3621376417824,171.2115522951743L275.0424678718171,169.089955896061L276.90422043547454,162.77399506889637L280.02102538917825,160.99849324618094L281.10334233796294,157.9283614942929L284.49041681712964,151.87090194215855L285.41643815827547,156.98276873401906L285.56941901331015,155.59934849794948L285.88646338107634,150.96693524169604L288.6032212225116,147.4533155308211L288.68990702546296,146.14958879174142L289.6645782204861,145.9782888847405L289.96210237847225,145.885297317519L292.93171892361113,146.94021960808064L294.1545947757523,149.63721605923044L296.1027987659143,144.71341950444665L299.8523866435185,144.78579830741924L301.85536775752314,147.4685335919624L302.7746256640625,151.51172699417302L302.8822379354745,147.90031184238956L303.67342585503474,152.17029516339667L303.85567028356485,147.68922534042895L305.82332751880784,143.44236592219417L306.0590432595487,143.19205418905835L307.9265882696759,137.9117391527596L315.40061878038193,136.2358187005686L317.5338797164352,141.023043329408L318.8065773046875,140.63027750597072L321.8437277488426,142.26905218714302L323.154896556713,143.32181166649613L326.1400823943866,140.63208523655572L326.3133200708912,143.32125053062978L326.73975127459494,144.22874892897113L329.1570429817708,142.11133582248985L330.27953875,142.49335652298225L331.17308221209487,142.6682098739398L331.90818719618056,146.49742962182506L337.58642537181714,140.78049829355675L339.9603574363426,141.56592674075594L345.79720150173614,142.8194153532006L346.9593403718171,145.08649998594572L354.48573727719906,145.58517312323912L354.8530721339699,146.4881637533355L359.42749769241897,151.11924886424055L359.6097086385995,151.22529367447794L360.47187913917827,159.94907256210615L362.8901083521412,154.99418321538025L364.7369277879051,157.27681914244937L368.63775543836806,158.90932495855907L370.34773251157407,160.6966379485933L371.002680750868,157.16381283502244L371.78710523582174,157.9532146363993L373.56317646701393,156.47134566616103L375.736080504919,155.86149715030612L375.7582458203125,155.47153994071243L376.71162224103006,158.90079725398218L378.10957729890043,156.11716459196361L379.0540139322917,153.92093468885938L379.4682575607639,149.50015771075212L381.9088529832176,148.44918869347873L382.06287179108796,147.40717687934418L383.29244411313664,145.94568722049712L383.5573564626736,143.12656486819458L384.66575616174765,148.34596201729508L384.90488710214123,146.61182042051328L384.99830285734953,145.4884994283877L387.0037616652199,141.73918021571913L390.5803462427662,142.25524471406575L391.50285193721066,145.61567946527174L391.85789877170134,147.52785255606676L394.5246005005787,148.4220268235738L394.6740991912616,146.59594003441083L397.52779984230324,147.70487892677212L403.98004949218745,147.63890285414809L406.18770820891206,149.5804239445329L407.2495674421296,148.89258592043223L408.6955027068866,152.10626944290414L409.11148741753476,161.27202051688027L409.7961010185186,160.13288880902007L410.6993878443287,166.21418089538665L414.51212343315973,163.58956284244232L415.64352550636573,159.07434668900044L416.20438834346066,159.83215966649104L419.5609269198495,157.96744671347895L425.0716529007523,159.4410700999765L430.0617953110533,160.9033531259108L430.25395051504626,161.2836837720888L432.0021979137731,164.3491874851003L433.98200924189814,162.76972310320858L439.54272437065976,161.37495029737428L440.7582341059028,158.36909236246737L440.9271190769676,163.71512783620992L441.75687866319447,165.86019146021306L443.92271792534723,162.84157998084711L446.80266873842595,168.27911379527782L446.97085058015045,165.2492217449643L447.69952695312503,167.8033569526725L452.76507161458335,170.08422185671776L455.5827452575231,169.50518770037672L465.9842380353009,166.6400730773389L467.3544362254051,162.82086399275983L472.69952502314817,162.52255359388482L476.426646244213,162.00049875490393L480.0197041377315,159.2254716063107L483.9979764626737,160.53600343136787L484.7901353703703,156.22132735389948L486.0221184215856,156.2697772520553L487.0735311617477,153.45350672752713L487.6967381336806,151.52631275393958L488.604344182581,152.980895162996L491.6114274768519,152.94681695696698L493.88903082175926,152.54193266568024L495.97471333912046,149.1875928796016L501.73284040075237,159.9059686006288L504.68139654803235,156.33163612763119L505.0073137384259,153.48269329575723L506.0959923336227,155.15635271739782L510.28771463686337,154.03017946452943L512.9654990234376,152.64519861137262L515.6730492187501,156.75626088535864L516.863313262442,155.900290070302L519.561153576389,153.4412461761412L519.7290340769677,153.1252708479971L524.5327132826968,157.65509862268257L526.4160954441551,161.76440604686385L528.1417757392938,163.85981401419338L529.9953251273148,167.53930048945887L534.7579549725116,169.56258682074986L535.8732520355903,169.11629708104746L540.0561349985534,169.68005902418895L547.6618850723379,169.0496059656341L551.1866724551505,169.42127418102515L551.5663622989005,169.42364793841483L552.3236660807291,166.4939260724264L553.174619994213,176.22870710041286L553.885182416088,175.6175301546279L554.2161554412615,170.3000234277308L557.2227365002893,172.66669606293942L560.0467717896413,168.52934430576215L562.63887484375,166.99062151746278L566.1431040639468,162.8043599353321L570.0698470529514,161.35633899869265L570.3473487659144,163.62644005285185L571.8682510112847,162.1854897347739L572.3060662138311,165.1495758398874L572.814930962095,165.2115393655328L577.5870363122108,165.52473875366684L578.0590035112847,159.5858387220957L578.2816276533565,157.92542411950225L579.4226391608797,162.69646859007022L583.1857873900462,163.62123848837018L584.5386417230902,164.09691872542294L591.6423239655671,167.6027378894231L594.7179791116898,168.2510149912775L597.2192445515046,165.1385095059106L599.9891053993056,166.18445788883614L605.3111918229167,168.6652741192175L608.8227871600117,168.60975032375595L616.7866309620949,172.13058233467132L616.8877141753472,172.07585839685083L618.3623438136574,172.7211370040758L620.0090057638889,178.15247627321048L623.431337157118,178.9340580847828L630.7930678674768,175.76926370788846L632.2813248220486,171.8386955177769L632.7582808912038,174.1573892808544L635.5543919010416,172.57939370255662L642.9546942780671,171.57510106458108L643.5053449985533,173.58137573569778L648.2384099291088,169.3959247428606L649.2151235474537,174.06011475748474L655.9767166247105,173.01142259302395L659.9777234649885,169.8552689876483L661.346448431713,168.04173684670297L662.3079275810185,169.7408223812849L664.7921170225695,168.9267922772278L666.7848525376157,171.03875998967024L670.8043081524884,174.51661865061683L675.0546245674191,176.0631928811892L679.2350968012153,175.55114827780528L681.2654664771412,175.69395599240374L687.2829478182871,176.27126693261826L687.3519214583334,178.5741712816873L689.2606832407407,176.5201302946678L689.9959891189236,178.91624323645337L692.0479214279515,179.79468504867197L699.1154762152778,181.2341008267706L700.3404614554397,177.97532535171703L702.2091113831018,178.5243181414382L707.9166466145833,183.85990748017332L709.7758880020255,186.49793298152989L710.8921225708912,188.86074187379796L710.9859735966435,183.0209105650431L712.2218071180555,179.6754164479046L712.2846869704861,179.85755164152275L712.4377347902199,181.048364316394L713.3928522931134,176.5713715866452L715.4310568388311,174.35542355040297L717.3332895630787,173.71195175976206L719.6748441956018,173.59180832009562L720.3330737051504,170.0328508314082L725.328606773727,171.3495164334874L726.2542263266783,171.36004704982892L727.9671833289931,173.55572706975767L728.4140052835648,173.47106216868255L730.1240493214699,172.4592804950716L735.9613956221064,174.12864595591083L747.584491922743,170.92826532848872L749.0084962485533,170.8308313705421L749.5610889453125,170.1571210824661L751.4196606857639,171.08717204140927L753.6331118489584,170.579066516322L754.3143102502894,172.06973899300672L758.3593463802083,169.33170691471705L766.0196726837385,167.6542819770197L769.4068476099537,169.70252870174414L774.5905180005788,168.42101142043217L774.606187740162,161.18581589986078L780.6375307740161,166.38158011108447L787.0954389409723,167.86159320373673L787.576680750868,167.58116391424772L791.6441835373264,176.3718595190423L795.6565074117477,177.95878318737357L796.4577065538195,179.16945010524836L798.1913221657986,178.97878479626348L799.2319870717592,179.8198015917995L800.3610453804978,186.3286539945215L804.7288513599538,186.62273139220758L807.9768736414932,185.14984641644298L811.3410461935763,183.11377170510093L814.201041526331,183.4432684201295L827.0313104571759,178.2165478054236L827.778469087095,175.64448705554187L828.7749372916667,175.08747172290236L829.0077400679977,171.42278472010324L833.6578692187499,171.8890928694648L834.2152833738426,174.4494746820814L834.6142255685764,177.8276077916407L836.5995280020255,176.90482522017317L836.9821308101851,173.41695387762365L837.2473110185185,177.19529920261442L839.3143103848381,181.561588215879L840.2896177445023,181.83718860213327L841.3575707653357,179.15253826910964L844.6885957913775,177.160519942388L845.8667392245371,176.4926615067654L847.7771081597223,171.35221460561783L848.9796937080439,165.3494618248513L850.7722717375577,169.07669917472555L851.6221207335069,169.45328127194543L851.8391198408564,172.1108581255052L851.9198792679398,175.1978893124707L854.6036235127315,175.81973135820036L854.6305433217592,179.40320050297532L856.4072841999421,179.7315941912095L857.7928507884837,178.25335561840097L858.9417976128473,179.77869097140538L859.0852025159144,180.72476491694687L859.2545227575232,184.67300486306632L862.3074768706597,186.80142078657192L862.8076696903935,184.12511693696538L864.9280734042245,181.17991492600544L867.114470828993,185.71310514026493L868.9004193532986,181.55643896481956L870.611601791088,180.140835158709L871.2290163165509,181.95802723624388L871.2748201707175,181.23936394303408L872.1448255410879,190.26811617426043L872.7534342086227,193.02720842381487L877.5327047815393,197.6851769770895L878.3403994994212,192.54940845080787L880.9288529774307,192.65831165276256L881.0410523307291,186.1559806856309L881.1106956177663,178.35305612602585L882.4236389901621,184.0819590856725L883.3593367303241,180.3167806786875L887.9999903761575,186.24992273273003L890.7098843359374,191.23764803408227L891.0686142288773,197.69693671881006L893.2398776316552,196.55064148422102L894.9001668981481,206.5188356477878L895.4599248177084,208.52901498089554L897.4230619357639,213.22283142754208L897.4754952951389,208.2241645349707L897.5849825781249,206.84267476077864L899.1788093807871,208.17579062804174L899.5925842563657,204.27463232379063L901.3785662630208,202.3399629041132L902.3720880208333,203.4657535846919L906.3338200651042,208.12448370749817L907.5059366753471,210.34298442732103L907.5227113324654,207.8681333290655L909.35211994647,203.9733695806117L909.5831481582754,193.79133998313478L910.4246600491898,191.59940222099516L911.2365735431134,187.5479732085847L911.5125015856482,184.27842537642974L916.4751549869792,182.95696964610855L923.9745316362847,185.02305691954348L924.4075923451968,187.39341630408492L925.6007693532986,184.61734130947715L926.595529958044,188.5686439365505L927.2313932581018,187.3172713463311L928.2642902589699,189.75936474810877L932.1877519777199,191.22885195443249L933.4764876114006,185.4694594651941L935.0339860648148,183.7989584775677L937.605095685764,188.5952490115289L941.7937041304978,197.44574140663005L944.256531833044,197.05649682344793L947.5466079456017,193.54705290965765L947.6249566435184,196.12745008375893L951.7081626519098,199.24047539095733L951.8054288773149,202.15511225284692L953.075682254051,201.65426026491645L953.3631951895255,198.39260939341858L953.6021252358217,205.35633970424297L954.4305455280671,206.6112494670952L954.6839064670139,208.1074847083354L955.423598532986,207.94928324658713L956.5031364467593,209.185249953997L957.0738096122685,212.6381511717062L958.5378253457754,206.35467330343204L959.2536779788774,209.6533769522873L959.7728887731482,212.2014895975145L961.0279076808449,211.67344003047737L963.5221753096065,219.94695445038147L964.7967144270835,220.2587633748519L966.7780994256365,224.29420778798237L967.0030338498264,225.85278310755984L967.5487626649306,229.32489940775517L969.0963838252316,231.3205188358339L970.2326073567708,232.18437017260348L972.5600659201391,233.28398014952344L975.8031328139466,232.7689763481633L976.6751136429397,234.04501659740345L977.3416467751737,234.87941124924953L979.24759604022,235.14851004417338L980.3519108926504,230.50993089114883L980.4006946759259,224.88141088068454L981.3344169574652,224.6209524214563L981.8641412094906,221.2083657977236L983.3612040219908,219.80995280302216L986.4591918952547,224.43804799838017L988.0005183738426,224.31131219471175L989.7689221469907,225.8507112010715L990.2744051779514,223.2023148785768L990.4599643590858,221.051112284375L993.8569830960649,229.47800590782944L994.3165283434606,230.1058707589025L995.0947585937499,230.8709508855142L996.5584395037614,235.89946262639245L997.4524852010995,240.58566881757238L999.4942053935184,237.0266881882158L1001.3590048509839,235.7506985755916L1001.9957386921296,231.9693637943598L1002.3243009881365,229.65887236752934L1002.5589787760417,229.06555482462048L1004.6693043026621,231.2191893556491L1006.2819816681135,233.49739607393334L1009.6159531409144,233.07931943800696L1010.0699738006365,234.84114498631806L1012.1703215870948,231.00263705160376L1014.533572782118,225.11349082629113L1016.9977732609955,221.05599889878624L1017.8696201605903,228.0264158268329L1018.3169443504049,219.06979281650217L1020.4214439482059,212.3759116210967L1025.4816983984376,208.31404270079383L1026.5660242881947,205.26064205591533L1027.2140416811342,201.4008986795043L1028.2153313440392,200.56302160377115L1032.5554139380788,200.01266081811576L1032.6573342100696,194.02706416357904L1033.7030549508104,189.74740087392877L1041.3355239395255,187.61926078471052L1041.8309957479746,185.4105319281581L1044.9389278790509,185.70388976267364L1046.520968894676,190.63484556557418L1051.1348366608795,195.80698743958698L1053.9692179962383,195.33586310003713L1053.994698064236,201.2413314455384L1054.6685303486688,214.27084894782195L1054.716041802662,216.98607638393844L1056.9327742361108,212.57127982634063L1060.763088058449,217.3851641933033L1062.632474597801,213.41127253869402L1062.7910135228587,217.77941561723097L1062.949518965567,221.75214608427578L1063.0912162688078,218.82353636631558L1063.1132811371526,215.34144352712048L1065.6132407653358,211.45485274287205L1067.0023230005788,214.1736343257459L1070.4913177517362,211.78932661294016L1072.0413161588542,219.2698521135967L1074.6863213252316,216.11368171859908L1074.9151397019675,214.16960227882623L1075.1476076548033,210.80580837047492L1075.5314158275462,206.96015244741176L1077.1546736154514,207.46549462870854L1078.162793677662,208.88539872901325L1080.3498272670718,208.38846646811743L1082.3292368070022,212.94709663675482L1082.4045051287615,208.45184997919515L1083.1865858492476,204.5797994688433L1083.5896463729746,207.13162128130492L1090.1929014192708,203.40018933395456L1090.8242780844907,199.67619080496752L1091.7997193735532,202.24702817161864L1092.9475277980325,202.55713049020358L1094.411275672743,200.02081544805654L1094.6627281177662,204.6538648520681L1097.1012141521992,204.1558988308466L1097.7583052618634,202.49407293411326L1098.4363228399884,203.73640163332618L1105.0102138657405,204.99347975583711L1106.8734396527777,202.27805410128892L1107.5826627806714,205.10353786584488L1108.2845197916668,217.11949948212742L1108.6782387398725,218.60191409349494L1109.2108759563077,219.63490244603202L1109.5139581843173,219.58623037246505L1109.6989816478588,218.5194952086756L1110.4504929832176,221.32058388339746L1111.8795866261573,227.85340683336233L1113.071056034433,231.1441289912055L1118.6504877965858,230.48998441783903L1118.852453328993,232.96220931753584L1119.1016289742477,230.49506195508746L1120.355877787905,230.40735177879347L1120.440922955729,224.60623100064288L1120.8970530034724,220.71111556930123L1121.6814105237268,225.78203128344177L1122.0439239221644,221.81269709628228L1124.9619106843172,217.8710961102167L1126.4902125289352,217.34074749578156L1126.525435960648,211.34469024345026L1127.2763111313657,216.046504786452L1130.4328931163195,221.24900837989082L1130.5582845153356,219.13210986250354L1131.1604310894097,218.84162532532866L1132.2366207682292,215.40355878013332L1132.5810536979168,214.6967151242223L1134.8071277068864,211.7169636660881L1135.9166992881944,221.20223864773484L1136.9248193504052,216.80873562902846L1138.1736440234374,223.75545577048302L1139.2111950708913,218.51118515276096L1142.3418617173033,221.2326181796363L1142.538871861979,218.5821847205455L1142.661551190683,221.2988634954225L1145.3686661154513,224.06822480169748L1146.356763732639,220.83618855353834L1148.4164639467592,214.4964403547361L1148.6800704846644,226.1140752379981L1149.067595198206,239.42545059483786L1150.0210720659722,236.21084552871497L1155.7038638411457,236.48375107116712L1156.9567063961226,239.29891208168993L1159.610617867477,240.7848083261009L1163.0870232552084,235.61893671838965L1163.9694170949074,232.34328102126963L1165.7169278819447,240.9909686414099L1168.4164757957176,239.62700578774428L1168.8700277025464,241.24467564875488L1169.5833356770834,245.84638603822802L1170.4334190494792,251.1322860050395L1171.371594483507,260.35882484932404L1171.443414123264,266.8458936591617L1171.5807587210647,269.6239562149565L1172.423743835359,271.65457913541417L1172.5353070240162,273.07425361081044L1173.7517542650462,264.37502352400094L1174.0778388671877,267.5073366044258L1176.8430456684027,258.4456072931042L1176.9817630425346,265.74455914818924L1177.4901590379052,262.324209203473L1178.0718144140626,252.5576350146816L1179.1530264453124,263.9145527575555L1180.295611623264,266.7101929687482L1181.2796913585069,272.8619781363078L1182.521886526331,278.7455021174608L1182.9996461718752,270.32810003609256L1183.2356632537617,272.48887801640404L1184.3363620124421,279.6285153640528L1184.4319206380208,274.04108916215466L1185.228465733507,281.4447381599348L1186.1794649074075,275.0041241751175L1186.9695813917824,277.1225147548469L1189.0617260026042,269.3622437482753L1189.2140037282986,267.4803969948319L1189.3406004918982,274.68094041531316L1190.9747400434028,270.66212925590355L1191.2261924884258,273.72490076686626L1191.6025340972221,275.01734911725754L1193.5094208680555,265.242515324622L1193.5742426967593,257.19111993115064L1194.0691787876158,252.37541198383548L1194.1189670413773,257.8406938377337L1195.4733280801504,259.6650905680476L1196.6769850636574,269.95214497710725L1197.2008164221645,277.8002968986396L1197.2717990031829,278.4515341206024L1197.3023349059606,280.56568357091004L1197.7224044632524,280.56394256909414L1200.0886021050349,284.39317525278295L1201.9278210474538,276.35834443870334L1202.0469512471066,280.5578433609275L1203.4251182364005,269.1134692493903L1203.5049736400463,274.89716736125484L1203.6851756452547,280.4240458263L1203.9992066015625,283.29105097359263L1204.42319359375,281.95259209116267L1205.461514735243,278.3805712498622L1205.7079448278355,275.02622574913374L1206.3617546672453,267.3657387870122L1207.066491160301,271.72114872723165L1208.1921342693868,264.6415651619527L1208.8685446947336,269.3584817273994L1209.104360882523,277.4678477728658L1209.2005221903935,278.55314086523146L1209.813483563368,280.98764488850554L1210.7584893967014,271.1234240956241L1210.829103671875,279.6156491959904L1211.4499668793403,284.5717814380022L1213.2547994487848,287.4136038745421L1213.9496586487269,293.9550180138877L1213.9546140364585,294.0106294308575L1214.2303077025463,283.22397383146495L1214.976260967882,289.33040665210837L1216.381481695602,292.4589685639572L1216.3944393648726,287.9857428121276L1216.925335499132,292.0979135772637L1217.415014861111,293.3093151713802L1217.5071917693867,294.9757812861189L1218.1265147887732,299.3409407295334L1219.0113863223378,300.98836309481806L1219.7061785575809,304.72961064511315L1220.1966614959492,303.38625293064825L1221.6059001056133,294.6893432319701L1223.9411265740741,284.4109291545013L1224.6746578877314,290.70469726214714L1225.0959328096064,292.37958505284206L1225.881026941551,284.100727485932L1226.8426400202547,285.8698645487621L1226.8758210286458,291.1324970247761L1228.181800072338,289.5605788247837L1228.5176950028933,291.2376798080897L1228.5905860778355,291.2173141322902L1228.7890694458913,296.6812008557732L1228.8389581467013,297.49346681637695L1228.9387355483218,300.4612004159904L1230.526033292824,302.33292599714434L1230.5473950318287,303.45261364377683L1231.9221803038192,303.8314238520719L1231.9626939467594,306.92128327344045L1232.489940504919,306.3737124396469L1235.0126681307872,301.6216529863218L1235.0969432045717,302.64189516495355L1236.0007657479746,301.46232648190943L1236.056848683449,304.6653456970058L1237.6594813440392,305.3077786837421L1238.064316432292,305.7860750924787L1239.345685949074,307.89325345231146L1239.582406160301,306.87319839896855L1241.0068792390045,305.31848581032733L1241.7674308087385,302.2286317052172L1241.9371193561922,301.3112827163902L1242.1450782291665,300.8546597306105L1242.4018208854168,289.42713509207437L1242.633585708912,284.02041995380966L1243.174995300926,289.0132866917198L1243.5330220645253,292.1002150295598L1243.6080225274884,297.61985079688674L1246.9999854296875,300.18773782736486L1248.014567585359,294.8150900258964L1248.4218134027778,297.6188313418819L1248.7206433723957,299.3176986363098L1249.873072361111,303.6603115448435L1250.52838890625,302.9281690624573L1250.5645833260996,303.8230105138456L1250.685822913773,305.2674497994423L1250.7542608362269,303.839574047997L1251.0667516044562,307.20349595858477L1251.849133666088,310.5529048664545L1253.6733525159143,307.25296710110695L1255.1195556394675,307.08328307549596L1255.6185096122683,304.1932119908767L1257.6075955512151,300.7963745930207L1257.7542817245371,297.22781399544573L1257.9796179369212,293.3205349861386L1260.075311676794,296.8445733125242L1260.485169117477,298.3038912587312L1261.2764240017361,299.132750498504L1263.8257700954862,302.08657016079917L1264.0395214149307,304.11248902671633L1264.5566897858796,306.57633713142707L1265.5097983478008,305.7745972047065L1268.471144752604,303.781540830666L1269.8494121889466,296.79949501064823L1270.8499652401622,287.26820936750664L1271.0462387731482,288.01355216938856L1271.9790235489004,288.92116973487344L1272.4353210083912,293.018913829472L1273.4543897989004,296.5356780825301L1273.6766121527778,298.569444286377L1273.8036107045716,299.77713969520545L1274.293859266493,297.5412236544097L1275.4372145384837,293.49290558315454L1276.2450097034143,291.0845057830668L1276.266371442419,289.24667622383816L1277.131187048611,291.1231238112442L1277.374637212095,293.93073932466444L1277.9977772193288,292.54189768380826L1278.045556532118,296.3642669817792L1279.0633864756944,295.7153239348371L1280.8478617766204,296.49218080014117L1281.1336001475695,295.6113211161356L1281.149973016493,296.3325790318342L1283.093121171875,298.10824436819735L1284.403888191551,302.0409427462742L1285.3045633940972,301.86448010925614L1285.4487383912035,293.64786200360004L1288.9578895167824,297.98659680331957L1289.476464146412,287.86102654356193L1290.460778258102,291.72451971769993L1290.8055125289354,288.49550330103006L1291.4902600593173,295.0766066722843L1292.8225562297453,295.2924288236953L1292.9397109707754,299.582522818896L1293.2264538122108,303.6880402074108L1293.298173004919,301.8807742285701L1293.5033863252315,302.1684591651237L1294.1988482074653,296.1848252034421L1294.6417862094906,295.4978301576574L1297.2445366507525,293.9695789294471L1298.08725390625,294.37962406957894L1299.8960708752893,295.86326352384725L1301.5092169936343,294.36692077927773L1301.710445914352,296.91819410464205L1301.9809163339119,297.238362739532L1302.283061056134,298.3579839205657L1303.5049324377894,300.0037734281051L1303.6077567332175,301.2789029057695L1303.6761611733218,297.797489534566L1303.7220319921873,296.71626687838324L1304.2161979890045,286.78378586426015L1304.2468343388311,289.0681777804239L1304.4288109085649,293.43156213730794L1304.5303628747106,294.7700123799313L1305.444765840567,294.88981020287656L1308.7164601432291,295.73943960706976L1308.833413990162,300.07414616484937L1309.918242115162,302.6808543049402L1310.3022176996528,304.45560360671493L1311.746244470486,305.35027341438536L1312.242452890625,304.3735672005934L1313.23433401331,302.60951157377L1314.2205566189236,301.71874710893593L1314.4638058883104,302.95449664304226L1315.6539360026043,301.32831033491226L1316.5117872800927,303.6867659921662L1316.7632732074653,305.8514801636769L1317.1347933579284,302.0503377832094L1317.435866644965,304.0035770833543L1317.6975646889466,303.4135834905548L1319.5106339163774,303.69494491975377L1319.6050206597222,305.51950566561754L1320.3900478269675,309.33123622550795L1320.728989651331,311.2343934656391L1322.4910317780673,311.6815085745879L1322.5570254890047,312.3865198326085L1322.7575847627313,312.73261439007297L1323.9628823813655,309.04539801281203L1324.270886514757,312.3819866439703L1324.391356008391,315.44897272268713L1324.5841473770256,316.5276940278491L1325.2824887413194,319.1893700634131L1326.517049933449,319.6617557004328L1327.343762625868,318.0590315085103L1327.5290204658563,315.5521321717632L1327.9366011067707,315.7410606447034L1328.1463010619213,314.74300193694205L1328.2790585778355,315.9102370290798L1328.5106225072338,315.8432028317964L1329.8943810489004,317.62781365452594L1330.722935270544,317.3039464593691L1332.012809304109,309.50587238646034L1333.4524164048032,312.1672010705125L1333.9063031351272,312.56962367126977L1334.3256025983796,315.2429017399767L1334.5626241507523,314.70882727918683L1335.000037565104,314.7396183286112L1337.9639621108217,312.66143399957826L1338.1715861603009,312.79752137577935L1339.8731256814237,313.6727842533235L1340.5083862991899,313.555396740645L1341.0087130483219,315.36045276826457L1341.417900842014,312.9347987868384L1341.7371550448495,304.57520859502716L1342.0180719574653,308.47204170173427L1342.2756516724537,307.1233963970752L1342.3515226765046,301.35793643064795L1342.4429629730903,299.20305570182575L1342.45384473669,303.07107314953976L1343.0799646730325,303.26744113933347L1343.4540964467592,305.2597125271023L1343.5332487210649,303.075500087162L1343.7295557364005,305.92356949283396L1344.0591894675924,306.2462787938978L1344.1936211009838,296.3645163281695L1344.305117324942,299.19423227919594L1344.6930773090276,302.4900539310667L1345.596297170139,303.35889836386934L1346.1641913006365,305.15166871155975L1346.2013567086228,306.16156576375L1346.322830672743,304.19815204302324L1347.1743203038195,306.12682045661785L1347.2257157103588,307.95016319869825L1347.4980946238425,304.53819571535826L1347.5877603559027,305.9029202577063L1348.6250100622108,303.73715699435274L1348.713369982639,308.7123172667409L1349.188149699074,301.98445441889436L1349.8416916796873,291.43747346960026L1350.3282571831596,288.74251844821515L1350.3621078385418,291.9682114600382L1351.0423352517362,289.9666443234042L1352.2739499971065,290.91116272196695L1352.7116982349537,297.26357061928957L1353.3241908550349,300.81808628645024L1353.3406976533565,298.22950717444724L1353.3940015538196,301.6258662263073L1353.96531088397,294.4499525556555L1354.8853388845487,297.47468042827165L1355.1195144372107,303.3930747325151L1355.697118449074,308.2335167616049L1355.8823093243634,308.2043701511148L1357.5422302850116,306.4269005126551L1357.8825783680556,300.62900378254807L1358.6005403891781,304.3573233350922L1359.1301976765048,297.04521852216004L1361.4279239134837,297.76326720157016L1361.5402571961806,301.0524680681074L1361.7494214337385,301.1926204390811L1362.1045352329284,297.34534038815536L1362.132024241898,296.6688642873028L1363.7720232045717,293.3118203764767L1364.2354858868632,299.16027607577735L1364.8811260329862,299.0704477814737L1365.6495124725118,302.1644529986101L1365.7733971657985,307.06569049656986L1367.3564761342593,304.98153414696964L1367.8146151229746,302.82218941246407L1368.2002983072916,307.7778999116465L1368.77030182581,307.16676767229814L1370.7987630078126,308.6847080078553L1370.9305495355902,311.62208616826L1371.2664779484955,311.1941230762412L1371.7382107711228,306.6042078476299L1372.177967949942,309.9756003072959L1372.8548806105323,309.04499273612464L1372.9698589988425,311.05506623712387L1373.3376291261575,307.7051891616794L1374.8434977965856,308.56501662930253L1375.0998051822917,301.5243085091347L1375.4602091927086,305.28791287524297L1375.9404800144675,305.06263951748986L1376.151351851852,305.1668191686453L1377.3048522757522,309.02032204528945L1377.4073752300346,311.1954883644358L1377.8679249479167,313.62114386742L1379.2881122858798,313.9690160445073L1379.7596442144097,313.2671726729416L1380.4549052025463,316.85233285363046L1385.1742758521411,319.90693737482223L1385.4644004108798,316.1897741172007L1387.2805500144675,313.54671073002595L1387.8649844256365,310.4708306006246L1388.5140732537616,306.326751650165L1388.60457604456,307.831856668961L1388.8997229557292,309.7201865062129L1389.2592899074073,312.02337261661984L1389.282761034433,305.14689532380635L1390.4623107262732,306.8891379100296L1391.1387546339697,304.67644000260844L1391.805120354456,297.28229587731255L1391.904931238426,288.19286468345786L1392.25395125,295.4416174879028L1392.8758189279515,298.3981361614963L1392.9410090625,298.43023038220457L1393.1111998451968,301.6215186550741L1393.3165470949075,304.93709768254024L1393.6060354890044,309.18616641908824L1393.7293509823496,309.048478359505L1394.1207596484373,307.20555280983035L1394.2048673104746,305.3145466699565L1394.3610289887154,307.4850868014455L1395.7134480512154,305.37659937260213L1395.8392747207754,302.2786179704468L1395.9356369227432,302.0262912323128L1396.3932401938657,304.32011471567483L1396.4281622844328,303.4323172733311L1396.5919244560187,301.6383653321222L1396.8468925477432,299.1134697234236L1398.2228497019676,302.31022485899547L1398.7443707783566,306.97902403266704L1399.2376662340855,303.12649982544536L1399.4321986848959,300.6191100756013L1399.5863179398148,305.91264500327225L1399.9065766131364,305.33938577643255L1400.7280995413773,308.4725819758627L1402.2226846600115,309.6128372413661L1402.7240828443287,307.6604791766736L1402.7559245587386,300.1769117828591L1403.1622663527198,303.50987450338164L1403.1745878573495,308.34930577874303L1403.269510318287,308.70129523232686L1403.3713301432292,303.3214838182115L1403.6674480425347,305.9751822878327" style="fill: none;" fill="none"></path></g></g></g></g><g opacity="0.2"><g><g><g><path stroke="rgb(238, 51, 119)" stroke-width="2px" d="M120.53645833333333,87.66284151077271L120.55269727285882,84.32095177173615L120.76333473379628,84.58383829593659L120.99124908709491,87.13909621238709L121.64803885561342,85.51624281406403L122.28748476707176,81.88431723117829L122.32994038628475,78.50414807796479L122.57593520833333,79.1650593996048L122.77294535300928,87.47946531772614L123.19408634548608,84.13854439258576L123.22509100115741,84.85875613689423L123.3014642404514,80.96752638816834L125.0898234939236,99.83972818851471L125.79368944589122,91.63955218791962L126.2144956148727,101.35026676654816L126.29465235966435,103.46149249076844L126.8458722800926,116.03906257152558L127.00246922887732,107.95027763843537L127.2893125173611,122.54241735935211L127.83152568576388,102.73704500198365L127.93920492187499,106.78603370189667L128.72376333622685,120.82464272975922L128.9452825607639,120.8660989522934L129.05045062065972,122.39044876098633L129.48156935329862,108.19164748191834L131.34449379918985,95.06183094978333L131.98819196903932,147.2834233760834L132.6981517086227,122.54786975383759L133.3513253833912,116.90488929748535L134.3886085720486,85.89308888912201L135.48009968460647,130.21123273372652L136.17120886140046,114.1711217880249L136.205159963831,110.1954925775528L136.35117649016203,139.0305484056473L136.39527274450234,168.66819895505907L137.06404919415507,117.88332374095917L137.1330228342014,157.71063215732576L137.75341728877316,148.2403861999512L138.1578171064815,184.4944611310959L138.9485027907986,193.41455597877504L139.5381939308449,135.13035149574281L139.79165531684026,133.6015181064606L140.03456976273145,193.25921906232836L141.6310081886574,161.88738037347795L143.3747689525463,98.01576704978943L143.43473584056716,98.55181403160095L145.03331713686342,90.20904214382172L145.40731498119214,103.20153493881226L145.56327576533565,130.6646601676941L146.16917236255784,137.95996398925783L146.48748905960647,99.4435508966446L146.69970019097224,158.51055700778963L148.18403971064816,166.9805589437485L149.19711516059027,181.29533625841142L150.6264096976273,150.60458500385286L150.86939110821757,177.31083000898363L151.37045446903934,180.8862827539444L151.4355776388889,127.75260837078095L151.87225444155095,161.93611396551134L152.68416793547453,114.97602589130402L154.27126478587965,109.88400764465332L155.2038151851852,165.0127627372742L155.515971129919,171.61266095638277L155.5454690798611,146.53642280101778L155.66409704427085,115.00504524707794L156.1106511400463,139.9704555988312L156.11637662181712,186.81279898881914L156.29775050925923,154.6930922985077L156.39210377025464,121.86134119033814L156.99408293258102,160.7716447234154L157.32857160445602,122.72642440795899L159.88625480324075,123.78342289924622L160.86812470341434,168.67776317596437L165.13538318721066,211.8361353993416L166.44323724247684,153.53645242452623L166.5104363179977,126.4900185585022L167.74449527488426,124.11196346282959L169.03855460214123,110.39554138183594L170.33797110532407,160.12994070053102L170.62970281684028,184.30577899217607L170.66941288339117,126.40280277729035L170.6790892824074,156.46833111047746L171.77443086516203,110.31533260345459L175.28247707320602,123.8888884305954L178.13738308883103,126.49761135578156L178.182584260706,97.78998835086823L179.23660862413192,152.80578650236131L180.6635593967014,127.39387686252594L181.81260666811343,130.70381827354433L182.2232676851852,173.30785996913912L182.3756793402778,122.30284996032715L184.47746686776622,151.2241865515709L184.98874234519678,177.20927352905275L185.6029760474537,113.119260263443L186.74050539062497,212.1205386042595L188.04668532841436,125.99364788532257L190.11150834201388,212.20339472293855L190.78313079137732,207.94002778530123L190.86928087673613,150.30159409046175L192.68328760995368,108.26741774082184L192.71579897135416,154.89815415143968L194.44841011284723,170.7470708012581L196.17445871383103,146.97378594875337L196.52749660734952,180.02009553909303L196.9866400665509,134.48023231029512L199.63579704427082,174.41836853027345L199.73323068142363,120.80082793235779L199.90603308738426,168.62284494638445L202.08767601851852,110.95975155830384L202.36440763744213,148.08546609878542L203.08504824652778,157.41513265371324L203.332516291956,149.05504603385927L204.10800098958333,150.62605662345888L205.49684884837964,237.44403834342958L206.99267281394677,168.62193245887758L207.0202957523148,218.7593245625496L208.10314841869211,137.77363629341127L208.6728505960648,208.95277626514437L210.86755164351854,154.31759805679323L213.047152151331,163.23983330726625L213.32167393518515,219.96528382301332L214.54829981047456,167.52023334503176L217.05036882667827,116.81643433570862L219.63785131655092,170.44081295728685L220.5626672931134,134.2957295894623L222.4191966102431,175.32188887596132L222.7484955179398,186.5495857715607L223.43304215422455,238.89458931684496L223.56235098813656,174.89675981998445L224.2784379976852,183.64797688722612L224.72616397569445,139.4628872394562L225.9802788599537,155.32066966295244L226.39854037037037,115.73571116924286L228.92247336082175,117.42953581809998L229.15008637297453,121.14072389602661L230.71776346064814,181.52524931430818L231.04515387442132,118.85062808990479L231.19830214120373,129.95875532627107L231.52187556712963,158.9022394537926L232.96228624421298,155.40344692468645L233.5242539988426,141.32859749794008L234.9553231004051,144.33171780109407L238.3655673654514,123.95461006164551L239.68557551359956,150.09066302776338L240.3472202228009,134.8355391740799L241.68792046296292,145.95736498832704L242.63470086082174,258.03097878098487L242.69520346643517,137.6846856594086L243.00350894097218,155.42399479150774L243.806080859375,166.06816155910494L246.5017783029514,139.89421219825746L249.12669405960648,171.1277921319008L249.79858436776624,165.71962512731554L252.48011877748843,116.20029122829438L252.6699302170139,152.09610779285433L253.70697902922456,117.41207463741303L255.89719344184027,135.9989720106125L257.5616680020255,125.47091646194458L258.6886504050926,138.21642930507662L259.34383302083336,139.72856755256655L260.87310585358796,113.70859200954438L261.05799538773147,245.71271849870683L261.11980380497687,190.60801477432253L261.4982882841435,194.36620159149172L262.27005644097227,118.9123167514801L266.76238327835654,250.60371349453928L268.436668166956,170.5610585331917L269.0658015147569,247.224592012167L269.371796707176,139.25835485458376L270.3621376417824,142.5100998401642L275.0424678718171,157.0675763010979L276.90422043547454,126.98355038166046L280.02102538917825,150.9373162508011L281.10334233796294,140.53094823360445L284.49041681712964,117.54529781341553L285.41643815827547,185.95001388788225L285.56941901331015,147.75996716022493L285.88646338107634,124.71659345626831L288.6032212225116,127.54280383586884L288.68990702546296,138.76180393695833L289.6645782204861,145.00758941173555L289.96210237847225,145.35834510326387L292.93171892361113,152.9181125879288L294.1545947757523,164.92019594907762L296.1027987659143,116.81190569400788L299.8523866435185,145.19594485759737L301.85536775752314,162.67070020437242L302.7746256640625,174.42315627336504L302.8822379354745,127.43562598228455L303.67342585503474,176.3668673157692L303.85567028356485,122.29649634361267L305.82332751880784,119.37682921886444L306.0590432595487,141.7736210346222L307.9265882696759,107.98995394706726L315.40061878038193,126.73893613815308L317.5338797164352,168.15064955949785L318.8065773046875,138.40460450649263L321.8437277488426,151.55544204711916L323.154896556713,149.28744871616365L326.1400823943866,125.39030213356018L326.3133200708912,158.55985386371614L326.73975127459494,149.3712398529053L329.1570429817708,130.11266155242922L330.27953875,144.6581404924393L331.17308221209487,143.65904552936556L331.90818719618056,168.19634152650835L337.58642537181714,108.38455410003662L339.9603574363426,146.01668794155123L345.79720150173614,149.92251749038698L346.9593403718171,157.93331290483476L354.48573727719906,148.41098756790163L354.8530721339699,151.60511065721514L359.42749769241897,177.3620644927025L359.6097086385995,151.82621426582338L360.47187913917827,209.38381959199907L362.8901083521412,126.91647691726685L364.7369277879051,170.21175606250765L368.63775543836806,168.16019124984743L370.34773251157407,170.82474489212038L371.002680750868,137.14447052478792L371.78710523582174,162.4264915108681L373.56317646701393,148.07408816814424L375.736080504919,152.40568889379503L375.7582458203125,153.26178241968157L376.71162224103006,178.3332553625107L378.10957729890043,140.34324617385866L379.0540139322917,141.47563190460207L379.4682575607639,124.44908816814423L381.9088529832176,142.49369759559633L382.06287179108796,141.50244326591493L383.29244411313664,137.66391248703005L383.5573564626736,127.15153820514679L384.66575616174765,177.9225458621979L384.90488710214123,136.7850180387497L384.99830285734953,139.1230138063431L387.0037616652199,120.49303801059723L390.5803462427662,145.17961020469667L391.50285193721066,164.658143055439L391.85789877170134,158.36350007057192L394.5246005005787,153.48901433944704L394.6740991912616,136.24811489582063L397.52779984230324,153.9888659834862L403.98004949218745,147.2650384426117L406.18770820891206,160.5823767900467L407.2495674421296,144.99483711719515L408.6955027068866,170.3171427369118L409.11148741753476,213.21127660274507L409.7961010185186,153.6778091311455L410.6993878443287,200.6748360514641L414.51212343315973,148.7167272090912L415.64352550636573,133.48812181949617L416.20438834346066,164.12643320560457L419.5609269198495,147.40073997974397L425.0716529007523,167.7916026234627L430.0617953110533,169.189623606205L430.25395051504626,163.4388907670975L432.0021979137731,181.7203751921654L433.98200924189814,153.8194249391556L439.54272437065976,153.47123773097994L440.7582341059028,141.335897397995L440.9271190769676,194.00932885408403L441.75687866319447,178.0155519962311L443.92271792534723,145.73611493110658L446.80266873842595,199.09180541038515L446.97085058015045,148.07983345985414L447.69952695312503,182.2767897963524L452.76507161458335,183.00912297964098L455.5827452575231,166.22399414777757L465.9842380353009,150.4044235467911L467.3544362254051,141.17867918014528L472.69952502314817,160.83212800025942L476.426646244213,159.04218800067903L480.0197041377315,143.50031776428224L483.9979764626737,167.96235044002535L484.7901353703703,131.77149624824526L486.0221184215856,156.54432667493822L487.0735311617477,137.4946404218674L487.6967381336806,140.60554690361025L488.604344182581,161.2235288143158L491.6114274768519,152.75370712280275L493.88903082175926,150.2475883483887L495.97471333912046,130.17966742515566L501.73284040075237,220.64343101978304L504.68139654803235,136.07708544731142L505.0073137384259,137.33868391513826L506.0959923336227,164.64042277336122L510.28771463686337,147.6485310316086L512.9654990234376,144.79697377681734L515.6730492187501,180.05228043794634L516.863313262442,151.0497887849808L519.561153576389,139.50666410923006L519.7290340769677,151.33474398851396L524.5327132826968,183.32412267923357L526.4160954441551,185.05048145055773L528.1417757392938,175.73379249572756L529.9953251273148,188.3897238492966L534.7579549725116,181.0278760313988L535.8732520355903,166.5873218894005L540.0561349985534,172.8747100353241L547.6618850723379,165.4770386338234L551.1866724551505,171.52739406824114L551.5663622989005,169.43709923028948L552.3236660807291,149.89216883182527L553.174619994213,231.3924662590027L553.885182416088,172.15419412851335L554.2161554412615,140.16748530864717L557.2227365002893,186.0778409957886L560.0467717896413,145.08435101509096L562.63887484375,158.2711923837662L566.1431040639468,139.08221096992494L570.0698470529514,153.15088702440264L570.3473487659144,176.4903460264206L571.8682510112847,154.02010459899904L572.3060662138311,181.9460637688637L572.814930962095,165.56266601085665L577.5870363122108,167.29953528642656L578.0590035112847,125.93207187652588L578.2816276533565,148.51640803813936L579.4226391608797,189.73238725662233L583.1857873900462,168.8616012454033L584.5386417230902,166.7924400687218L591.6423239655671,187.46904648542406L594.7179791116898,171.92458523511888L597.2192445515046,147.50097842216493L599.9891053993056,172.1114987254143L605.3111918229167,182.7232327580452L608.8227871600117,168.29511548280718L616.7866309620949,192.08196372985842L616.8877141753472,171.7657560825348L618.3623438136574,176.37771577835085L620.0090057638889,208.93006546497347L623.431337157118,183.36302168369295L630.7930678674768,157.83542890548708L632.2813248220486,149.56547577381136L632.7582808912038,187.29665393829347L635.5543919010416,163.6374187588692L642.9546942780671,165.8841094493866L643.5053449985533,184.9502655386925L648.2384099291088,145.67836911678316L649.2151235474537,200.49052484035494L655.9767166247105,167.06883366107942L659.9777234649885,151.97039855718614L661.346448431713,157.76505471467974L662.3079275810185,179.36897374391557L664.7921170225695,164.31395502090456L666.7848525376157,183.00657702684404L670.8043081524884,194.22448439598085L675.0546245674191,184.8271135210991L679.2350968012153,172.6495621919632L681.2654664771412,176.50319970846178L687.2829478182871,179.54269559383394L687.3519214583334,191.62396259307863L689.2606832407407,164.88056470155718L689.9959891189236,192.4942165732384L692.0479214279515,184.7725219845772L699.1154762152778,189.39079023599626L700.3404614554397,159.50893099308016L702.2091113831018,181.6352772831917L707.9166466145833,214.09491373300554L709.7758880020255,201.4467441558838L710.8921225708912,202.24999226331713L710.9859735966435,149.92853314876558L712.2218071180555,160.7176164507866L712.2846869704861,180.88965107202532L712.4377347902199,187.7963028073311L713.3928522931134,151.2017461180687L715.4310568388311,161.79838467836382L717.3332895630787,170.0656116127968L719.6748441956018,172.91099549531938L720.3330737051504,149.86542506217958L725.328606773727,178.8106215119362L726.2542263266783,171.4197205424309L727.9671833289931,185.9979138493538L728.4140052835648,172.99129439592363L730.1240493214699,166.72585101127626L735.9613956221064,183.58838356733324L747.584491922743,152.79277510643007L749.0084962485533,170.27870560884477L749.5610889453125,166.3394294500351L751.4196606857639,176.35746080875398L753.6331118489584,167.69980187416078L754.3143102502894,180.51688302755358L758.3593463802083,153.81619180440904L766.0196726837385,158.14887399673464L769.4068476099537,181.30926014184953L774.5905180005788,161.15908015966417L774.606187740162,120.18637461662293L780.6375307740161,195.8242439746857L787.0954389409723,176.24833406209947L787.576680750868,165.99206460714342L791.6441835373264,226.18580127954485L795.6565074117477,186.95135064125063L796.4577065538195,186.02989597320558L798.1913221657986,177.89834804534914L799.2319870717592,184.58556343317034L800.3610453804978,223.21215094327928L804.7288513599538,188.28916997909548L807.9768736414932,176.80349822044374L811.3410461935763,171.5760150074959L814.201041526331,185.31041647195818L827.0313104571759,148.59846432209017L827.778469087095,161.06947613954546L828.7749372916667,171.931051504612L829.0077400679977,150.65622503757479L833.6578692187499,174.53150571584703L834.2152833738426,188.95830495357515L834.6142255685764,196.97036207914354L836.5995280020255,171.67572398185732L836.9821308101851,153.65234960317613L837.2473110185185,198.60592271089556L839.3143103848381,206.30389262437822L840.2896177445023,183.3989241242409L841.3575707653357,163.93951971530916L844.6885957913775,165.8724160909653L845.8667392245371,172.7081303715706L847.7771081597223,142.223015499115L848.9796937080439,131.33386273384096L850.7722717375577,190.19771082401277L851.6221207335069,171.58724648952486L851.8391198408564,187.1704602956772L851.9198792679398,192.69106603860857L854.6036235127315,179.34350295066835L854.6305433217592,199.70952565670015L856.4072841999421,181.59249175786974L857.7928507884837,169.87667037248613L858.9417976128473,188.42225797176363L859.0852025159144,186.08585060834886L859.2545227575232,207.0463645577431L862.3074768706597,198.86244435310365L862.8076696903935,168.9593951225281L864.9280734042245,164.49043686389925L867.114470828993,211.4011830210686L868.9004193532986,158.00199730396272L870.611601791088,172.1190802574158L871.2290163165509,192.25544900894167L871.2748201707175,177.1669386148453L872.1448255410879,241.43104548454286L872.7534342086227,208.66206450462343L877.5327047815393,224.08033211231233L878.3403994994212,163.44672013521196L880.9288529774307,193.27542979717256L881.0410523307291,149.30943853855135L881.1106956177663,134.1364836215973L882.4236389901621,216.5457425236702L883.3593367303241,158.98076970577242L887.9999903761575,219.87106103897096L890.7098843359374,219.501424741745L891.0686142288773,234.2995725989342L893.2398776316552,190.05496848821642L894.9001668981481,263.005269241333L895.4599248177084,219.92003120183946L897.4230619357639,239.821124625206L897.4754952951389,179.89838547706606L897.5849825781249,199.01423270702364L899.1788093807871,215.73011387586595L899.5925842563657,182.16806859970094L901.3785662630208,191.3768361926079L902.3720880208333,209.8452341079712L906.3338200651042,234.52395440340044L907.5059366753471,222.91448850631716L907.5227113324654,193.84397710561754L909.35211994647,181.90304167270662L909.5831481582754,136.09317226409914L910.4246600491898,179.17842156887056L911.2365735431134,164.58987547159197L911.5125015856482,165.75098766088487L916.4751549869792,175.46872050762178L923.9745316362847,196.73088480234148L924.4075923451968,200.82545281648638L925.6007693532986,168.88624967336656L926.595529958044,210.95935882329943L927.2313932581018,180.22616000175478L928.2642902589699,203.59789402484896L932.1877519777199,199.55594612360002L933.4764876114006,152.83290202617647L935.0339860648148,174.33278621435167L937.605095685764,215.7742287039757L941.7937041304978,247.59853164553644L944.256531833044,194.85077751874925L947.5466079456017,173.66020406484606L947.6249566435184,210.74970073699953L951.7081626519098,216.88095213174822L951.8054288773149,218.67138780355455L953.075682254051,198.81609899997713L953.3631951895255,179.9099211215973L953.6021252358217,244.81747813224794L954.4305455280671,213.72240478992464L954.6839064670139,216.58615107536318L955.423598532986,207.05280829668047L956.5031364467593,216.1890612959862L957.0738096122685,232.2045914053917L958.5378253457754,170.74829871654512L959.2536779788774,228.3460309624672L959.7728887731482,226.64079458713533L961.0279076808449,208.68115915060045L963.5221753096065,266.8302028298378L964.7967144270835,222.02568061351778L966.7780994256365,247.16172612905504L967.0030338498264,234.684709918499L967.5487626649306,249.00022510886194L969.0963838252316,242.6290289282799L970.2326073567708,237.0795277476311L972.5600659201391,239.51510335206987L975.8031328139466,229.85062147378923L976.6751136429397,241.2759113430977L977.3416467751737,239.6076476097107L979.24759604022,236.67340321540834L980.3519108926504,204.22464902400972L980.4006946759259,192.98646415472032L981.3344169574652,223.14502115249635L981.8641412094906,201.87037492990495L983.3612040219908,211.88561249971391L986.4591918952547,250.66392077207567L988.0005183738426,223.59314264059068L989.7689221469907,234.57397223711015L990.2744051779514,208.19473571777345L990.4599643590858,208.8609642505646L993.8569830960649,277.2304031074047L994.3165283434606,233.6637715816498L995.0947585937499,235.20640493631365L996.5584395037614,264.39436249136924L997.4524852010995,267.14083723425864L999.4942053935184,216.85913128852846L1001.3590048509839,228.52009077072145L1001.9957386921296,210.5418000340462L1002.3243009881365,216.56608761548998L1002.5589787760417,225.7034220814705L1004.6693043026621,243.42311836481096L1006.2819816681135,246.40723414421083L1009.6159531409144,230.71021850109102L1010.0699738006365,244.82482309341432L1012.1703215870948,209.25109208822252L1014.533572782118,191.74166221618654L1016.9977732609955,198.06354464292528L1017.8696201605903,267.5254450857639L1018.3169443504049,168.3155957579613L1020.4214439482059,174.44391818046572L1025.4816983984376,185.2967854857445L1026.5660242881947,187.95803840160372L1027.2140416811342,179.5290195465088L1028.2153313440392,195.81505150794985L1032.5554139380788,196.89394969940187L1032.6573342100696,160.1086831212044L1033.7030549508104,165.49597556591036L1041.3355239395255,175.5598002791405L1041.8309957479746,172.89440174102785L1044.9389278790509,187.3662508249283L1046.520968894676,218.57692844867708L1051.1348366608795,225.11579139232637L1053.9692179962383,192.66615850925447L1053.994698064236,234.7056520700455L1054.6685303486688,288.104781460762L1054.716041802662,232.37236518859865L1056.9327742361108,187.5540993332863L1060.763088058449,244.6638422727585L1062.632474597801,190.89255316257479L1062.7910135228587,242.532226395607L1062.949518965567,244.26428539752962L1063.0912162688078,202.22808129787447L1063.1132811371526,195.60958410501482L1065.6132407653358,189.43083829879762L1067.0023230005788,229.5800632953644L1070.4913177517362,198.2782495737076L1072.0413161588542,261.6594966173172L1074.6863213252316,198.22871614694597L1074.9151397019675,203.1531521201134L1075.1476076548033,191.74430955648424L1075.5314158275462,185.1681022167206L1077.1546736154514,210.3291003227234L1078.162793677662,216.9315219640732L1080.3498272670718,205.57251698970796L1082.3292368070022,238.77933425903322L1082.4045051287615,182.97878558635713L1083.1865858492476,182.63817991018297L1083.5896463729746,221.59194488525392L1090.1929014192708,182.2554082989693L1090.8242780844907,178.573532474041L1091.7997193735532,216.81510658264162L1092.9475277980325,204.31437696218492L1094.411275672743,185.64836354255678L1094.6627281177662,230.90781147480013L1097.1012141521992,201.33409137725832L1097.7583052618634,193.07705951929094L1098.4363228399884,210.77626426219942L1105.0102138657405,212.11692245006563L1106.8734396527777,186.89064205884935L1107.5826627806714,221.114612531662L1108.2845197916668,285.20994864106177L1108.6782387398725,227.00226355791094L1109.2108759563077,225.4885031104088L1109.5139581843173,219.3104219555855L1109.6989816478588,212.47466261386873L1110.4504929832176,237.19341970682146L1111.8795866261573,264.87273688316344L1113.071056034433,249.79155455231668L1118.6504877965858,226.78316516876222L1118.852453328993,246.97148374915125L1119.1016289742477,216.51456023454668L1120.355877787905,229.91032744646074L1120.440922955729,191.73321325778963L1120.8970530034724,198.63879479169847L1121.6814105237268,254.51722033023836L1122.0439239221644,199.31980336904527L1124.9619106843172,195.53535718917848L1126.4902125289352,214.33543868064882L1126.525435960648,177.36703248023989L1127.2763111313657,242.6901205301285L1130.4328931163195,250.7298620760441L1130.5582845153356,207.13635159730913L1131.1604310894097,217.19554628133776L1132.2366207682292,195.92118169069292L1132.5810536979168,210.6912677407265L1134.8071277068864,194.83170540332796L1135.9166992881944,274.9521302103996L1136.9248193504052,191.91221852302553L1138.1736440234374,263.12020323872565L1139.2111950708913,188.79365165233614L1142.3418617173033,236.6540719985962L1142.538871861979,203.56306178569795L1142.661551190683,236.69337655305864L1145.3686661154513,239.7612722039223L1146.356763732639,202.5213164806366L1148.4164639467592,178.57120056152345L1148.6800704846644,291.94733957648276L1149.067595198206,314.85657761693L1150.0210720659722,217.99475015401842L1155.7038638411457,238.03021581172945L1156.9567063961226,255.2514911413193L1159.610617867477,249.2048870444298L1163.0870232552084,206.34566427469255L1163.9694170949074,213.78123207092287L1165.7169278819447,289.9945318222046L1168.4164757957176,231.89788295030596L1168.8700277025464,250.41147152781488L1169.5833356770834,271.9227449119091L1170.4334190494792,281.0857191503048L1171.371594483507,312.6425449669361L1171.443414123264,303.6059502482414L1171.5807587210647,285.36631069779395L1172.423743835359,283.16144235134124L1172.5353070240162,281.1190756380558L1173.7517542650462,215.07938636541368L1174.0778388671877,285.25711072683333L1176.8430456684027,207.09580786228182L1176.9817630425346,307.1052863270044L1177.4901590379052,242.94222618341448L1178.0718144140626,197.21371461153032L1179.1530264453124,328.2704199671745L1180.295611623264,282.55215416550635L1181.2796913585069,307.72209408581256L1182.521886526331,312.08547134399413L1182.9996461718752,222.62948824167253L1183.2356632537617,284.7332865715027L1184.3363620124421,320.08646033406256L1184.4319206380208,242.37900735139849L1185.228465733507,323.39874914735555L1186.1794649074075,238.50731159448625L1186.9695813917824,289.1267280399799L1189.0617260026042,225.3873747110367L1189.2140037282986,256.8165987253189L1189.3406004918982,315.4840197980404L1190.9747400434028,247.88886601924898L1191.2261924884258,291.08060599565505L1191.6025340972221,282.341223102808L1193.5094208680555,209.8517904996872L1193.5742426967593,211.56654603481294L1194.0691787876158,225.08640028238298L1194.1189670413773,288.8106243431568L1195.4733280801504,270.00333870649337L1196.6769850636574,328.24545329511164L1197.2008164221645,322.273157787323L1197.2717990031829,282.14187837839125L1197.3023349059606,292.54586378932L1197.7224044632524,280.5540768921375L1200.0886021050349,306.0921604603529L1201.9278210474538,230.82763649225237L1202.0469512471066,304.3550039201975L1203.4251182364005,204.2620159506798L1203.5049736400463,307.6714566618204L1203.6851756452547,311.74302379488944L1203.9992066015625,299.5374134749174L1204.42319359375,274.3679917573929L1205.461514735243,258.1391198158264L1205.7079448278355,256.0182679116726L1206.3617546672453,223.95631266832353L1207.066491160301,296.40180505514144L1208.1921342693868,224.52392495870592L1208.8685446947336,296.08767559826373L1209.104360882523,323.4209220305085L1209.2005221903935,284.70313505530356L1209.813483563368,294.78316768705844L1210.7584893967014,215.2261729359627L1210.829103671875,327.73825809806584L1211.4499668793403,312.65653080940245L1213.2547994487848,303.5172643482685L1213.9496586487269,331.02303147017955L1213.9546140364585,294.3257607936859L1214.2303077025463,222.09959210157396L1214.976260967882,323.93352596908807L1216.381481695602,310.18748606443404L1216.3944393648726,262.6374635517597L1216.925335499132,315.4002145797014L1217.415014861111,300.17392420470713L1217.5071917693867,304.41908926963805L1218.1265147887732,324.07684424221515L1219.0113863223378,310.32375649809836L1219.7061785575809,325.93001343011855L1220.1966614959492,295.7738925486803L1221.6059001056133,245.40685493946077L1223.9411265740741,226.16658271551134L1224.6746578877314,326.3693832054734L1225.0959328096064,301.87061586678027L1225.881026941551,237.18720127344133L1226.8426400202547,295.89497457146643L1226.8758210286458,320.95408105552195L1228.181800072338,280.65304235816L1228.5176950028933,300.7412520468235L1228.5905860778355,291.1019086360931L1228.7890694458913,327.6432256221771L1228.8389581467013,302.09630725979804L1228.9387355483218,317.27835748046635L1230.526033292824,312.93937095701693L1230.5473950318287,309.79751030802726L1231.9221803038192,305.9780150324106L1231.9626939467594,324.43048666119574L1232.489940504919,303.27081104815005L1235.0126681307872,274.6933160841465L1235.0969432045717,308.4232675105333L1236.0007657479746,294.7781039446592L1236.056848683449,322.81578791588544L1237.6594813440392,308.94823227524756L1238.064316432292,308.49642140865325L1239.345685949074,319.833930824697L1239.582406160301,301.0928864300251L1241.0068792390045,296.50844780802726L1241.7674308087385,284.7194584429264L1241.9371193561922,296.1129717797041L1242.1450782291665,298.26712947785853L1242.4018208854168,224.67116214036943L1242.633585708912,253.38236750364305L1243.174995300926,317.3061982065439L1243.5330220645253,309.5928089439869L1243.6080225274884,328.8977868117392L1246.9999854296875,314.7390976667404L1248.014567585359,264.37008581757544L1248.4218134027778,313.5066987991333L1248.7206433723957,308.9446133047342L1249.873072361111,328.26845135986804L1250.52838890625,298.7793616622686L1250.5645833260996,308.89377873837947L1250.685822913773,313.4526057511568L1250.7542608362269,295.7482781231403L1251.0667516044562,326.26572011858224L1251.849133666088,329.53288867771624L1253.6733525159143,288.55331976413726L1255.1195556394675,306.1217402637005L1255.6185096122683,287.8161425113678L1257.6075955512151,281.5476293385029L1257.7542817245371,277.00597060918807L1257.9796179369212,271.17928726673125L1260.075311676794,316.8141238287091L1260.485169117477,306.5733596205711L1261.2764240017361,303.82961952388285L1263.8257700954862,318.824881580472L1264.0395214149307,315.5926959335804L1264.5566897858796,320.5381430581212L1265.5097983478008,301.231404286623L1268.471144752604,292.4875547111034L1269.8494121889466,257.2345686972141L1270.8499652401622,233.25759072303774L1271.0462387731482,292.23716138005256L1271.9790235489004,294.0643359392881L1272.4353210083912,316.239463698864L1273.4543897989004,316.4640088498592L1273.6766121527778,310.09411944150924L1273.8036107045716,306.62074701189994L1274.293859266493,284.871032756567L1275.4372145384837,270.55243651270865L1276.2450097034143,277.4369069159031L1276.266371442419,278.83230872154235L1277.131187048611,301.75632680654525L1277.374637212095,309.840560567379L1277.9977772193288,284.67179505228995L1278.045556532118,318.0243596702814L1279.0633864756944,292.03798000216483L1280.8478617766204,300.89436970353125L1281.1336001475695,290.6197829067707L1281.149973016493,300.41970722079276L1283.093121171875,308.1703479409218L1284.403888191551,324.3262335553765L1285.3045633940972,300.8645251661539L1285.4487383912035,247.08702607154848L1288.9578895167824,322.57276066839694L1289.476464146412,230.48279507160188L1290.460778258102,313.61764770448207L1290.8055125289354,270.19774360656737L1291.4902600593173,332.3695257760584L1292.8225562297453,296.5154210150242L1292.9397109707754,323.89305545836686L1293.2264538122108,326.9526387423277L1293.298173004919,291.6396003484726L1293.5033863252315,303.79867380559443L1294.1988482074653,262.27756608724593L1294.6417862094906,291.6048582315445L1297.2445366507525,285.30948863625525L1298.08725390625,296.70321319699286L1299.8960708752893,304.2705537647009L1301.5092169936343,285.887645226717L1301.710445914352,311.3754096150398L1301.9809163339119,299.05265167057513L1302.283061056134,304.7025039464235L1303.5049324377894,309.32991397082804L1303.6077567332175,308.5046366125345L1303.6761611733218,278.06948043107985L1303.7220319921873,290.58933849334716L1304.2161979890045,230.4997267842293L1304.2468343388311,302.0130653053522L1304.4288109085649,318.1574068263173L1304.5303628747106,302.35456375479697L1305.444765840567,295.56866453289985L1308.7164601432291,300.55400623083113L1308.833413990162,324.6374833256006L1309.918242115162,317.45220043212174L1310.3022176996528,314.5125163167715L1311.746244470486,310.4200689911842L1312.242452890625,298.8388986557722L1313.23433401331,292.61319635510444L1314.2205566189236,296.6710818082094L1314.4638058883104,309.95707733631133L1315.6539360026043,292.1132545888424L1316.5117872800927,317.05134804993867L1316.7632732074653,318.1181938022375L1317.1347933579284,280.51053096055983L1317.435866644965,315.0719331175089L1317.6975646889466,300.07028646469115L1319.5106339163774,305.289326351881L1319.6050206597222,315.8586832255125L1320.3900478269675,330.9310427315533L1320.728989651331,322.01895115971564L1322.4910317780673,314.2151608586311L1322.5570254890047,316.3815836280584L1322.7575847627313,314.6938168823719L1323.9628823813655,288.151171875L1324.270886514757,331.2893222205341L1324.391356008391,332.8285605020821L1324.5841473770256,322.64044809043406L1325.2824887413194,334.27220093160867L1326.517049933449,322.33860764354466L1327.343762625868,308.97692775428294L1327.5290204658563,301.34636926352977L1327.9366011067707,316.8116553246975L1328.1463010619213,309.0873359262943L1328.2790585778355,322.5245692178607L1328.5106225072338,315.46334238052367L1329.8943810489004,327.7406083166599L1330.722935270544,315.4686990201473L1332.012809304109,265.31678597331046L1333.4524164048032,327.24806361347436L1333.9063031351272,314.8500184088945L1334.3256025983796,330.39147746264933L1334.5626241507523,311.68240533471106L1335.000037565104,314.91410094201564L1337.9639621108217,300.8850561350584L1338.1715861603009,313.5686831742525L1339.8731256814237,318.63260722607373L1340.5083862991899,312.8902008354664L1341.0087130483219,325.5891035914421L1341.417900842014,299.1894262254238L1341.7371550448495,257.2041975080967L1342.0180719574653,330.5540959730744L1342.2756516724537,299.4810730040073L1342.3515226765046,268.68699662089347L1342.4429629730903,286.9920649051666L1342.45384473669,324.9898386865854L1343.0799646730325,304.38019308149813L1343.4540964467592,316.54925039112567L1343.5332487210649,290.69829626083373L1343.7295557364005,322.0626294583082L1344.0591894675924,308.07496483325957L1344.1936211009838,240.3678623557091L1344.305117324942,315.2292893350124L1344.6930773090276,321.1663766250014L1345.596297170139,308.2823501497507L1346.1641913006365,315.3107006818056L1346.2013567086228,311.884315726161L1346.322830672743,293.0721409589052L1347.1743203038195,317.0559414669871L1347.2257157103588,318.282438737154L1347.4980946238425,285.20371330976485L1347.5877603559027,313.63635933101176L1348.6250100622108,291.46449850201606L1348.713369982639,336.9048921436071L1349.188149699074,263.8598982810974L1349.8416916796873,231.6712480902672L1350.3282571831596,273.47110666036605L1350.3621078385418,310.2471385270357L1351.0423352517362,278.62443054914473L1352.2739499971065,296.26343364715575L1352.7116982349537,333.2605487041175L1353.3241908550349,320.96034173369407L1353.3406976533565,283.5608922064304L1353.3940015538196,320.87190085351466L1353.96531088397,253.78644175529482L1354.8853388845487,314.61480503976344L1355.1195144372107,336.9306424565613L1355.697118449074,335.6626882597804L1355.8823093243634,308.0392060250044L1357.5422302850116,296.35457256138324L1357.8825783680556,267.7742556452751L1358.6005403891781,325.48446746617554L1359.1301976765048,255.60995791554453L1361.4279239134837,301.8322097182274L1361.5402571961806,319.6912729784846L1361.7494214337385,301.98681720793246L1362.1045352329284,275.54408676624297L1362.132024241898,292.83549971580504L1363.7720232045717,274.2885715484619L1364.2354858868632,332.30152503848075L1364.8811260329862,298.5614207804203L1365.6495124725118,319.69714922904967L1365.7733971657985,334.8393696516752L1367.3564761342593,293.17131483256816L1367.8146151229746,290.5859025835991L1368.2002983072916,335.86025940701364L1368.77030182581,303.7036849826574L1370.7987630078126,317.2863699093461L1370.9305495355902,328.26722907721995L1371.2664779484955,308.76899888813494L1371.7382107711228,280.594688218832L1372.177967949942,329.08015757873653L1372.8548806105323,303.7715498328209L1372.9698589988425,322.4454827427864L1373.3376291261575,288.7225524008274L1374.8434977965856,313.43737227916716L1375.0998051822917,261.62696249485015L1375.4602091927086,326.61500428318976L1375.9404800144675,303.78609049022197L1376.151351851852,305.7571705251932L1377.3048522757522,330.8568383462727L1377.4073752300346,323.52143083959817L1377.8679249479167,327.3665250509977L1379.2881122858798,315.94029171466826L1379.7596442144097,309.2900602340698L1380.4549052025463,337.16824054419993L1385.1742758521411,337.2163629949093L1385.4644004108798,295.1258489906788L1387.2805500144675,298.5693515360355L1387.8649844256365,293.0408432006836L1388.5140732537616,282.84363759756087L1388.60457604456,316.3607851088047L1388.8997229557292,320.4207222506404L1389.2592899074073,325.0747605755925L1389.282761034433,266.1801906645298L1390.4623107262732,316.7618458986282L1391.1387546339697,292.13781852722167L1391.805120354456,255.38214583396913L1391.904931238426,236.68608791828157L1392.25395125,336.5178833797574L1392.8758189279515,315.1517419785261L1392.9410090625,298.61209763288497L1393.1111998451968,319.70548553466796L1393.3165470949075,323.7253788381815L1393.6060354890044,333.26422259286045L1393.7293509823496,308.2682460218668L1394.1207596484373,296.7623080283403L1394.2048673104746,294.5988452106714L1394.3610289887154,319.7848142132163L1395.7134480512154,293.4285039424896L1395.8392747207754,284.7233900249004L1395.9356369227432,300.5964397162199L1396.3932401938657,317.3184477880597L1396.4281622844328,298.40146510004996L1396.5919244560187,291.47263766527175L1396.8468925477432,284.8057279407978L1398.2228497019676,320.42517062723635L1398.7443707783566,333.4355526834726L1399.2376662340855,281.2955293178558L1399.4321986848959,286.41056815981864L1399.5863179398148,335.90934292674063L1399.9065766131364,302.0909168243408L1400.7280995413773,326.2273604393005L1402.2226846600115,316.0742837458849L1402.7240828443287,296.5971168100834L1402.7559245587386,257.7700298845768L1403.1622663527198,322.3966632530093L1403.1745878573495,335.77274967245756L1403.269510318287,310.6959021359682L1403.3713301432292,272.8358858048916L1403.6674480425347,321.0128069490194" style="fill: none;" fill="none"></path></g></g></g></g></g></g><g transform="translate(51, 378)" clip-path="url(#clip_1)"><clipPath id="clip_1"><rect width="1446" height="22"></rect></clipPath><g><g><line x1="0" y1="0" x2="0" y2="5" style="visibility: inherit;" fill="rgb(0, 0, 0)" stroke="rgb(204, 204, 204)" stroke-width="1px"></line><line x1="120.53645833333333" y1="0" x2="120.53645833333333" y2="5" style="visibility: inherit;" fill="rgb(0, 0, 0)" stroke="rgb(204, 204, 204)" stroke-width="1px"></line><line x1="241.07291666666666" y1="0" x2="241.07291666666666" y2="5" style="visibility: inherit;" fill="rgb(0, 0, 0)" stroke="rgb(204, 204, 204)" stroke-width="1px"></line><line x1="361.609375" y1="0" x2="361.609375" y2="5" style="visibility: inherit;" fill="rgb(0, 0, 0)" stroke="rgb(204, 204, 204)" stroke-width="1px"></line><line x1="482.1458333333333" y1="0" x2="482.1458333333333" y2="5" style="visibility: inherit;" fill="rgb(0, 0, 0)" stroke="rgb(204, 204, 204)" stroke-width="1px"></line><line x1="602.6822916666667" y1="0" x2="602.6822916666667" y2="5" style="visibility: inherit;" fill="rgb(0, 0, 0)" stroke="rgb(204, 204, 204)" stroke-width="1px"></line><line x1="723.21875" y1="0" x2="723.21875" y2="5" style="visibility: inherit;" fill="rgb(0, 0, 0)" stroke="rgb(204, 204, 204)" stroke-width="1px"></line><line x1="843.7552083333334" y1="0" x2="843.7552083333334" y2="5" style="visibility: inherit;" fill="rgb(0, 0, 0)" stroke="rgb(204, 204, 204)" stroke-width="1px"></line><line x1="964.2916666666666" y1="0" x2="964.2916666666666" y2="5" style="visibility: inherit;" fill="rgb(0, 0, 0)" stroke="rgb(204, 204, 204)" stroke-width="1px"></line><line x1="1084.828125" y1="0" x2="1084.828125" y2="5" style="visibility: inherit;" fill="rgb(0, 0, 0)" stroke="rgb(204, 204, 204)" stroke-width="1px"></line><line x1="1205.3645833333335" y1="0" x2="1205.3645833333335" y2="5" style="visibility: inherit;" fill="rgb(0, 0, 0)" stroke="rgb(204, 204, 204)" stroke-width="1px"></line><line x1="1325.9010416666665" y1="0" x2="1325.9010416666665" y2="5" style="visibility: inherit;" fill="rgb(0, 0, 0)" stroke="rgb(204, 204, 204)" stroke-width="1px"></line><line x1="1446.4375" y1="0" x2="1446.4375" y2="5" style="visibility: inherit;" fill="rgb(0, 0, 0)" stroke="rgb(204, 204, 204)" stroke-width="1px"></line></g><g transform="translate(0, 8)"><text x="0" y="0" dx="0em" dy="0.95em" style="text-anchor: middle; visibility: hidden; font-family: Roboto, sans-serif; font-size: 12px; font-weight: 200;" fill="rgb(50, 49, 63)" stroke="none" stroke-width="1px">-1</text><text x="120.53645833333333" y="0" dx="0em" dy="0.95em" style="text-anchor: middle; visibility: inherit; font-family: Roboto, sans-serif; font-size: 12px; font-weight: 200;" fill="rgb(50, 49, 63)" stroke="none" stroke-width="1px">0</text><text x="241.07291666666666" y="0" dx="0em" dy="0.95em" style="text-anchor: middle; visibility: inherit; font-family: Roboto, sans-serif; font-size: 12px; font-weight: 200;" fill="rgb(50, 49, 63)" stroke="none" stroke-width="1px">1</text><text x="361.609375" y="0" dx="0em" dy="0.95em" style="text-anchor: middle; visibility: inherit; font-family: Roboto, sans-serif; font-size: 12px; font-weight: 200;" fill="rgb(50, 49, 63)" stroke="none" stroke-width="1px">2</text><text x="482.1458333333333" y="0" dx="0em" dy="0.95em" style="text-anchor: middle; visibility: inherit; font-family: Roboto, sans-serif; font-size: 12px; font-weight: 200;" fill="rgb(50, 49, 63)" stroke="none" stroke-width="1px">3</text><text x="602.6822916666667" y="0" dx="0em" dy="0.95em" style="text-anchor: middle; visibility: inherit; font-family: Roboto, sans-serif; font-size: 12px; font-weight: 200;" fill="rgb(50, 49, 63)" stroke="none" stroke-width="1px">4</text><text x="723.21875" y="0" dx="0em" dy="0.95em" style="text-anchor: middle; visibility: inherit; font-family: Roboto, sans-serif; font-size: 12px; font-weight: 200;" fill="rgb(50, 49, 63)" stroke="none" stroke-width="1px">5</text><text x="843.7552083333334" y="0" dx="0em" dy="0.95em" style="text-anchor: middle; visibility: inherit; font-family: Roboto, sans-serif; font-size: 12px; font-weight: 200;" fill="rgb(50, 49, 63)" stroke="none" stroke-width="1px">6</text><text x="964.2916666666666" y="0" dx="0em" dy="0.95em" style="text-anchor: middle; visibility: inherit; font-family: Roboto, sans-serif; font-size: 12px; font-weight: 200;" fill="rgb(50, 49, 63)" stroke="none" stroke-width="1px">7</text><text x="1084.828125" y="0" dx="0em" dy="0.95em" style="text-anchor: middle; visibility: inherit; font-family: Roboto, sans-serif; font-size: 12px; font-weight: 200;" fill="rgb(50, 49, 63)" stroke="none" stroke-width="1px">8</text><text x="1205.3645833333335" y="0" dx="0em" dy="0.95em" style="text-anchor: middle; visibility: inherit; font-family: Roboto, sans-serif; font-size: 12px; font-weight: 200;" fill="rgb(50, 49, 63)" stroke="none" stroke-width="1px">9</text><text x="1325.9010416666665" y="0" dx="0em" dy="0.95em" style="text-anchor: middle; visibility: inherit; font-family: Roboto, sans-serif; font-size: 12px; font-weight: 200;" fill="rgb(50, 49, 63)" stroke="none" stroke-width="1px">10</text><text x="1446.4375" y="0" dx="0em" dy="0.95em" style="text-anchor: middle; visibility: hidden; font-family: Roboto, sans-serif; font-size: 12px; font-weight: 200;" fill="rgb(50, 49, 63)" stroke="none" stroke-width="1px">11</text></g><line x1="0" y1="0" x2="1446.4375" y2="0" fill="rgb(0, 0, 0)" stroke="rgb(204, 204, 204)" stroke-width="1px"></line></g></g></g></g></svg>