<svg viewBox="0 0 1498 400" xmlns="http://www.w3.org/2000/svg"><g><g><g><g><g><line x1="72.34375" y1="378" x2="67.34375" y2="378" style="visibility: inherit;" fill="rgb(0, 0, 0)" stroke="rgb(204, 204, 204)" stroke-width="1px"></line><line x1="72.34375" y1="346.5" x2="67.34375" y2="346.5" style="visibility: inherit;" fill="rgb(0, 0, 0)" stroke="rgb(204, 204, 204)" stroke-width="1px"></line><line x1="72.34375" y1="315" x2="67.34375" y2="315" style="visibility: inherit;" fill="rgb(0, 0, 0)" stroke="rgb(204, 204, 204)" stroke-width="1px"></line><line x1="72.34375" y1="283.5" x2="67.34375" y2="283.5" style="visibility: inherit;" fill="rgb(0, 0, 0)" stroke="rgb(204, 204, 204)" stroke-width="1px"></line><line x1="72.34375" y1="252.00000000000003" x2="67.34375" y2="252.00000000000003" style="visibility: inherit;" fill="rgb(0, 0, 0)" stroke="rgb(204, 204, 204)" stroke-width="1px"></line><line x1="72.34375" y1="220.49999999999997" x2="67.34375" y2="220.49999999999997" style="visibility: inherit;" fill="rgb(0, 0, 0)" stroke="rgb(204, 204, 204)" stroke-width="1px"></line><line x1="72.34375" y1="189" x2="67.34375" y2="189" style="visibility: inherit;" fill="rgb(0, 0, 0)" stroke="rgb(204, 204, 204)" stroke-width="1px"></line><line x1="72.34375" y1="157.5" x2="67.34375" y2="157.5" style="visibility: inherit;" fill="rgb(0, 0, 0)" stroke="rgb(204, 204, 204)" stroke-width="1px"></line><line x1="72.34375" y1="126.00000000000001" x2="67.34375" y2="126.00000000000001" style="visibility: inherit;" fill="rgb(0, 0, 0)" stroke="rgb(204, 204, 204)" stroke-width="1px"></line><line x1="72.34375" y1="94.5" x2="67.34375" y2="94.5" style="visibility: inherit;" fill="rgb(0, 0, 0)" stroke="rgb(204, 204, 204)" stroke-width="1px"></line><line x1="72.34375" y1="62.999999999999986" x2="67.34375" y2="62.999999999999986" style="visibility: inherit;" fill="rgb(0, 0, 0)" stroke="rgb(204, 204, 204)" stroke-width="1px"></line><line x1="72.34375" y1="31.500000000000014" x2="67.34375" y2="31.500000000000014" style="visibility: inherit;" fill="rgb(0, 0, 0)" stroke="rgb(204, 204, 204)" stroke-width="1px"></line><line x1="72.34375" y1="0" x2="67.34375" y2="0" style="visibility: inherit;" fill="rgb(0, 0, 0)" stroke="rgb(204, 204, 204)" stroke-width="1px"></line></g><g transform="translate(62.34375, 0)"><text x="0" y="378" dx="0em" dy="0.3em" style="text-anchor: end; visibility: hidden; font-family: Roboto, sans-serif; font-size: 12px; font-weight: 200;" fill="rgb(50, 49, 63)" stroke="none" stroke-width="1px">-100</text><text x="0" y="346.5" dx="0em" dy="0.3em" style="text-anchor: end; visibility: inherit; font-family: Roboto, sans-serif; font-size: 12px; font-weight: 200;" fill="rgb(50, 49, 63)" stroke="none" stroke-width="1px">0</text><text x="0" y="315" dx="0em" dy="0.3em" style="text-anchor: end; visibility: inherit; font-family: Roboto, sans-serif; font-size: 12px; font-weight: 200;" fill="rgb(50, 49, 63)" stroke="none" stroke-width="1px">100</text><text x="0" y="283.5" dx="0em" dy="0.3em" style="text-anchor: end; visibility: inherit; font-family: Roboto, sans-serif; font-size: 12px; font-weight: 200;" fill="rgb(50, 49, 63)" stroke="none" stroke-width="1px">200</text><text x="0" y="252.00000000000003" dx="0em" dy="0.3em" style="text-anchor: end; visibility: inherit; font-family: Roboto, sans-serif; font-size: 12px; font-weight: 200;" fill="rgb(50, 49, 63)" stroke="none" stroke-width="1px">300</text><text x="0" y="220.49999999999997" dx="0em" dy="0.3em" style="text-anchor: end; visibility: inherit; font-family: Roboto, sans-serif; font-size: 12px; font-weight: 200;" fill="rgb(50, 49, 63)" stroke="none" stroke-width="1px">400</text><text x="0" y="189" dx="0em" dy="0.3em" style="text-anchor: end; visibility: inherit; font-family: Roboto, sans-serif; font-size: 12px; font-weight: 200;" fill="rgb(50, 49, 63)" stroke="none" stroke-width="1px">500</text><text x="0" y="157.5" dx="0em" dy="0.3em" style="text-anchor: end; visibility: inherit; font-family: Roboto, sans-serif; font-size: 12px; font-weight: 200;" fill="rgb(50, 49, 63)" stroke="none" stroke-width="1px">600</text><text x="0" y="126.00000000000001" dx="0em" dy="0.3em" style="text-anchor: end; visibility: inherit; font-family: Roboto, sans-serif; font-size: 12px; font-weight: 200;" fill="rgb(50, 49, 63)" stroke="none" stroke-width="1px">700</text><text x="0" y="94.5" dx="0em" dy="0.3em" style="text-anchor: end; visibility: inherit; font-family: Roboto, sans-serif; font-size: 12px; font-weight: 200;" fill="rgb(50, 49, 63)" stroke="none" stroke-width="1px">800</text><text x="0" y="62.999999999999986" dx="0em" dy="0.3em" style="text-anchor: end; visibility: inherit; font-family: Roboto, sans-serif; font-size: 12px; font-weight: 200;" fill="rgb(50, 49, 63)" stroke="none" stroke-width="1px">900</text><text x="0" y="31.500000000000014" dx="0em" dy="0.3em" style="text-anchor: end; visibility: inherit; font-family: Roboto, sans-serif; font-size: 12px; font-weight: 200;" fill="rgb(50, 49, 63)" stroke="none" stroke-width="1px">1e+3</text><text x="0" y="0" dx="0em" dy="0.3em" style="text-anchor: end; visibility: hidden; font-family: Roboto, sans-serif; font-size: 12px; font-weight: 200;" fill="rgb(50, 49, 63)" stroke="none" stroke-width="1px">1.1e+3</text></g><line x1="72.34375" y1="0" x2="72.34375" y2="378" fill="rgb(0, 0, 0)" stroke="rgb(204, 204, 204)" stroke-width="1px"></line></g></g><g transform="translate(72, 0)" clip-path="url(#clip_0)"><clipPath id="clip_0"><rect width="1425" height="378"></rect></clipPath><g><g><g><line x1="0" y1="0" x2="0" y2="378" fill="rgb(0, 0, 0)" stroke="rgb(60, 60, 60)" stroke-width="1px" opacity="0.25"></line><line x1="129.60511363636363" y1="0" x2="129.60511363636363" y2="378" fill="rgb(0, 0, 0)" stroke="rgb(60, 60, 60)" stroke-width="1px" opacity="0.25"></line><line x1="259.21022727272725" y1="0" x2="259.21022727272725" y2="378" fill="rgb(0, 0, 0)" stroke="rgb(60, 60, 60)" stroke-width="1px" opacity="0.25"></line><line x1="388.8153409090909" y1="0" x2="388.8153409090909" y2="378" fill="rgb(0, 0, 0)" stroke="rgb(60, 60, 60)" stroke-width="1px" opacity="0.25"></line><line x1="518.4204545454545" y1="0" x2="518.4204545454545" y2="378" fill="rgb(0, 0, 0)" stroke="rgb(60, 60, 60)" stroke-width="1px" opacity="0.25"></line><line x1="648.0255681818181" y1="0" x2="648.0255681818181" y2="378" fill="rgb(0, 0, 0)" stroke="rgb(60, 60, 60)" stroke-width="1px" opacity="0.25"></line><line x1="777.6306818181818" y1="0" x2="777.6306818181818" y2="378" fill="rgb(0, 0, 0)" stroke="rgb(60, 60, 60)" stroke-width="1px" opacity="0.25"></line><line x1="907.2357954545455" y1="0" x2="907.2357954545455" y2="378" fill="rgb(0, 0, 0)" stroke="rgb(60, 60, 60)" stroke-width="1px" opacity="0.25"></line><line x1="1036.840909090909" y1="0" x2="1036.840909090909" y2="378" fill="rgb(0, 0, 0)" stroke="rgb(60, 60, 60)" stroke-width="1px" opacity="0.25"></line><line x1="1166.4460227272727" y1="0" x2="1166.4460227272727" y2="378" fill="rgb(0, 0, 0)" stroke="rgb(60, 60, 60)" stroke-width="1px" opacity="0.25"></line><line x1="1296.0511363636363" y1="0" x2="1296.0511363636363" y2="378" fill="rgb(0, 0, 0)" stroke="rgb(60, 60, 60)" stroke-width="1px" opacity="0.25"></line><line x1="1425.65625" y1="0" x2="1425.65625" y2="378" fill="rgb(0, 0, 0)" stroke="rgb(60, 60, 60)" stroke-width="1px" opacity="0.25"></line></g><g><line x1="0" y1="378" x2="1425.65625" y2="378" fill="rgb(0, 0, 0)" stroke="rgb(60, 60, 60)" stroke-width="1px" opacity="0.25"></line><line x1="0" y1="346.5" x2="1425.65625" y2="346.5" fill="rgb(0, 0, 0)" stroke="rgb(60, 60, 60)" stroke-width="1px" opacity="0.25"></line><line x1="0" y1="315" x2="1425.65625" y2="315" fill="rgb(0, 0, 0)" stroke="rgb(60, 60, 60)" stroke-width="1px" opacity="0.25"></line><line x1="0" y1="283.5" x2="1425.65625" y2="283.5" fill="rgb(0, 0, 0)" stroke="rgb(60, 60, 60)" stroke-width="1px" opacity="0.25"></line><line x1="0" y1="252.00000000000003" x2="1425.65625" y2="252.00000000000003" fill="rgb(0, 0, 0)" stroke="rgb(60, 60, 60)" stroke-width="1px" opacity="0.25"></line><line x1="0" y1="220.49999999999997" x2="1425.65625" y2="220.49999999999997" fill="rgb(0, 0, 0)" stroke="rgb(60, 60, 60)" stroke-width="1px" opacity="0.25"></line><line x1="0" y1="189" x2="1425.65625" y2="189" fill="rgb(0, 0, 0)" stroke="rgb(60, 60, 60)" stroke-width="1px" opacity="0.25"></line><line x1="0" y1="157.5" x2="1425.65625" y2="157.5" fill="rgb(0, 0, 0)" stroke="rgb(60, 60, 60)" stroke-width="1px" opacity="0.25"></line><line x1="0" y1="126.00000000000001" x2="1425.65625" y2="126.00000000000001" fill="rgb(0, 0, 0)" stroke="rgb(60, 60, 60)" stroke-width="1px" opacity="0.25"></line><line x1="0" y1="94.5" x2="1425.65625" y2="94.5" fill="rgb(0, 0, 0)" stroke="rgb(60, 60, 60)" stroke-width="1px" opacity="0.25"></line><line x1="0" y1="62.999999999999986" x2="1425.65625" y2="62.999999999999986" fill="rgb(0, 0, 0)" stroke="rgb(60, 60, 60)" stroke-width="1px" opacity="0.25"></line><line x1="0" y1="31.500000000000014" x2="1425.65625" y2="31.500000000000014" fill="rgb(0, 0, 0)" stroke="rgb(60, 60, 60)" stroke-width="1px" opacity="0.25"></line><line x1="0" y1="0" x2="1425.65625" y2="0" fill="rgb(0, 0, 0)" stroke="rgb(60, 60, 60)" stroke-width="1px" opacity="0.25"></line></g></g></g><g><g><line x1="0" y1="346.5" x2="1425.65625" y2="346.5" fill="rgb(0, 0, 0)" stroke="rgb(153, 153, 153)" stroke-width="1.5px"></line></g></g><g><g><line x1="129.60511363636363" y1="0" x2="129.60511363636363" y2="378" fill="rgb(0, 0, 0)" stroke="rgb(153, 153, 153)" stroke-width="1.5px"></line></g></g><g><g><g><g><g><path stroke="rgb(0, 119, 187)" stroke-width="2px" d="M129.60511363636363,342.40500000000003L129.61029064062498,338.4887837837838L129.6506194318182,340.0111224489796L129.6935259247159,339.97154375710977L129.8179684346591,339.60846000293236L129.93513865767045,340.2060849689523L129.94326777840908,338.74431097191354L129.99184809517047,338.33002544552477L130.02181567755682,337.0347680709451L130.09756266619317,336.80228237798383L130.10076679261363,337.3576224263267L130.11033597017044,337.5241689296562L130.42968297017046,337.1745189919092L130.541085765625,336.10046050763737L130.62249217755684,337.0331125196986L130.631060515625,337.2910476017657L130.72935159374998,338.1098157203544L130.75534461931818,338.34125948959274L130.81088761079548,333.23707245309214L130.90823545170454,333.53714214570675L130.9241984815341,334.03316251317443L131.07463401704544,334.4501143560414L131.11338594602273,335.3336276434926L131.1277433125,335.2588199337119L131.19569239346592,336.20527387863376L131.46897197585227,336.28591156976586L131.5816780227273,335.34938813957154L131.7099006818182,335.03415050324753L131.8177681377841,334.8148088175574L132.017273609375,335.2478922504849L132.24279370738637,334.4261283324453L132.37548774289775,333.0639490835136L132.38098875994316,334.4242313303843L132.4219799772727,334.9619886819441L132.4311747400568,335.1340228544281L132.56849135795454,334.71145329758076L132.58859455113637,335.82094940412435L132.7050015440341,336.66856945809604L132.79367304261362,336.2998824170256L132.96147566335227,335.08757880924657L133.0682126747159,335.3350079439932L133.11466890767048,334.693810788889L133.1565169588068,334.6692164798275L133.4704349446023,335.6886334454863L133.60720434090908,333.52889879480125L133.61613269318184,333.4427651729437L133.936365328125,333.84229281085516L134.02592246164772,334.7963394404803L134.05759651136364,334.9927068521041L134.174529125,333.6944168359785L134.21460590625,334.9540709875902L134.25288261647728,334.93770684259806L134.48760467755682,335.538159880381L134.65509768607956,335.7649709159071L134.96439308948862,335.24890755431204L135.00125134375,334.4794855940694L135.10106168181818,334.34530003210466L135.11834236363634,335.5543524685348L135.20253528551137,336.53476676066134L135.34352404829545,337.1318365130334L135.61881250994318,336.36352300900217L135.77492186931818,336.18298696248496L135.82875119318183,335.74602329247807L135.83576426988637,336.08338005277994L135.8578187400568,334.81084016715187L135.93392574289774,334.5797090662442L135.9372594744318,334.5250016851002L135.97704104403408,333.8642409482346L135.98964874147728,334.15310870187375L136.08022831534092,334.6821484613456L136.1203915,334.2340718260202L136.61883116619316,333.0027008532587L136.80474970170454,333.6570503319848L137.59207916619317,333.835243848519L137.86081536931817,332.8999525138776L137.8690452940341,333.33346151108464L138.06804674573863,333.18219172850553L138.28964988920455,332.628361239202L138.5583500909091,334.0948609471528L138.607369625,333.4986304594419L138.61320905539773,334.12583709374167L138.6161467713068,334.3282118596761L138.82659667471592,335.5397317599207L139.46163293039774,335.05752142783064L139.98809610227272,336.3013944592737L139.99476356534092,336.0356850642129L140.1671239659091,334.6758313207086L140.42580857244317,335.22095695784714L140.60109948863635,336.0150638292802L140.67720649147728,336.92630465977766L140.70067221732955,335.7636085216857L141.07245168607955,336.4763174722315L141.18054235085225,336.2316197846254L141.28521288068183,336.40162685636335L141.47558839204547,336.2626328005061L141.70943921875,335.7664877972872L142.07483203551138,335.8645146416572L142.19890013068184,335.56983740973055L142.2231434872159,333.193111553673L142.52206328125,334.66939494976253L142.53070362215908,333.9397356530442L142.79050427272728,334.50077534054634L143.09416905397725,333.65465899400965L143.14773916761362,333.64421014443104L143.22468860369318,334.7220786646027L143.7450459346591,332.33076678601856L143.76217541051136,332.6134017760417L143.78340904829545,333.37339152775104L144.22788258522726,331.8931327685967L144.2879689559659,331.5326628470992L144.43241385511362,330.42301340379055L144.47626358522726,329.4798113814859L144.64644229971591,330.048339680276L144.93675775426135,331.1458387381011L145.24725560511362,330.6139629233216L145.25441268749998,332.004618493856L145.47918395596594,333.32842572708626L145.58618737784093,332.4219118637692L145.956786,332.59637508489976L146.37338003693182,331.3744188180217L146.42460285795454,331.3280059951847L146.69350466761364,331.3830550960418L147.18978424857954,330.86284683055237L147.71966035511363,330.94041980610683L147.92177952982954,329.8251068335129L148.2885187997159,330.9560908099322L148.3817264772727,332.43717719005224L148.55387086931816,332.0423506111796L148.58548731676134,331.7067480192391L148.7623910965909,330.2402358153743L148.86482953835227,328.00145044179794L149.1606388096591,327.6104828753397L149.26262363352274,326.0024104433795L149.74571949431817,326.0530488768902L149.79095887926138,326.3323415454394L150.08509048437497,327.2312403138498L150.12979704829547,328.04255426694596L150.1518659190341,329.25192112712404L150.4454575028409,328.673382957966L150.53277534801137,327.18937551407606L150.81569611079544,327.7234691870243L151.42508495454547,328.6499488090586L151.65408999005683,327.8309564876337L151.76218785511364,327.41831301446035L151.98994724147724,327.1620660622764L152.14051958238636,326.61350615290775L152.15859229545455,326.8087302299798L152.20808704829545,328.29767069553617L152.3513439005682,327.67327009118674L152.82960117045454,328.37102957752677L153.30988892045454,327.5466251408796L153.42267417045454,327.9326313697549L153.9292069559659,327.5519866642856L153.96563319318182,329.0711886646633L154.14085210653408,328.99226036496293L154.57046425710226,328.0746713102095L154.8591236463068,328.192470613679L155.1072886377841,328.5288500216296L155.218720234375,328.43677251838454L155.52732441051137,326.1850066406154L155.56328262926135,327.1532556445273L155.5765671534091,327.9762672978512L155.6472235411932,328.3450772031747L155.80556498863638,328.4223156226987L156.69072471306816,326.8342182792903L157.00438348863636,327.468835537398L157.15904559090907,328.6697602067903L157.19718549573864,329.35979617577266L157.37385166619316,329.4265767494069L158.23789295738638,327.1680902369936L158.6040778053977,327.98887670144524L159.17574436079545,326.2767951962272L159.37727311221593,326.9005259167935L160.1304156278409,327.66694702927487L160.1531469247159,328.6491549748841L160.19688865056818,329.6257817286519L160.70523590767047,326.43966446935303L160.71751959232955,325.3852147989498L160.87185768181817,324.5361825791071L160.93112322017046,323.86175519224093L161.43299022159093,324.37524191340486L161.60609945170455,324.4809556263942L161.9009510852273,324.14556228243504L162.8903997244318,324.38022794006974L163.01767914630682,325.7136937490594L163.0338581846591,325.61863968670053L163.1372110625,326.48284373369546L163.1712828068182,327.2646671736412L163.54632400426138,328.9214670975951L163.58461511505683,329.66824703295583L163.91077358380682,329.31075997801247L165.2145434247159,329.4793959813106L165.5307295,329.906236584114L165.68773889488637,329.6075510964969L166.25979426562498,329.3536684320224L166.47219544602274,327.862118167219L167.00593090482957,328.53155044213617L167.0498526377841,327.4468178758157L167.11648406676136,326.4775451944434L167.46299053835227,326.88216341527686L167.63172199573864,329.16333890298534L167.7782837784091,324.2510880675375L167.90003338210227,323.0996748574069L168.7937254431818,322.0264736287958L169.1411391505682,323.2405025844765L170.09460076988637,322.382427196805L170.2424298025568,322.73981311728426L171.42551568181818,319.2163411496916L171.47663769886364,320.94638997723786L172.1858152798295,322.0861814806522L172.20466562357953,321.9210042585543L172.37977653267043,323.1036036197712L172.77575615625,325.14831307680555L173.05401113494318,321.7833161152847L173.58107913068181,324.687568697992L173.76797690482954,325.4079333932932L173.87999172443182,325.5477433842992L174.00914322017047,324.01283187665433L174.29214318607956,322.9444070951562L174.60561475426138,323.92624603088274L174.60956050994318,325.18605912625037L174.7419377329545,324.55590025731277L175.0094354872159,323.5477652187159L175.2158604318182,323.87210043590846L175.2754211818182,325.3762853705222L175.62654303551136,325.5208425649439L175.64910872585227,328.1479661802023L175.86518205113637,328.34927125317193L175.8870277130682,329.4653805651962L176.03617439772728,331.12282348041674L176.06954771448864,330.07464995835426L176.0806793536932,330.3649524646011L176.53351242045454,329.99745959491094L178.1016334914773,326.75559065567427L178.4967490809659,323.24400205732314L178.62391329829543,323.3304017487247L179.75456670880683,321.797341486416L179.77440349147727,321.8644902634536L180.26557087073863,320.97656672393555L181.44158607102273,319.9855817153452L181.81201188636362,315.3632444580434L181.98693558806818,315.9702577893369L182.22833951278412,316.0609691209364L182.3272498153409,316.9413237527959L182.46121830113637,316.69737518987654L182.628070484375,315.21426891139504L183.2351624375,317.6391285746858L183.4021802272727,316.29825928848294L183.52893402840908,317.85177039521045L184.05076021732955,319.4557548359289L184.86575317329547,321.24439161053954L185.64718560511363,322.38673286895863L185.67762120596592,322.8379729386148L185.9757561690341,322.7962769978226L186.21326474005681,322.5245854481492L186.97865493892044,325.31764763092684L187.1985156136364,323.72275048628785L187.2266111221591,321.23308791334466L187.37277688920454,321.90462472634294L187.7780016775568,320.25468101739153L188.35432681676136,320.2697288647828L188.3725363352273,320.09351953506535L188.49670523437499,319.3767416048056L189.3610705383523,320.09048036408467L190.05570354545452,321.07515830947204L191.74884314914772,322.2901345630512L191.94811821164774,322.42511437859355L192.71784298153406,321.5948472218045L193.2716888338068,320.93637013853385L193.78830921732953,317.6834146177538L194.26881297585228,319.0764024250907L194.393061078125,321.1109420613271L194.63339216051133,320.95030075212804L194.7854117585227,320.76650563930883L194.87848263068184,321.6497797934125L195.00106746732953,318.52606282440064L195.4193895724432,316.1071534007406L195.9960891264205,313.2478303906294L196.73610552414772,313.03815583203505L197.04974269886364,312.7654324572298L197.0799550909091,313.1951175886453L197.96697968892047,314.4580999503485L198.30576025568183,316.90188495779626L198.70355435085227,317.3726022141268L198.9073439914773,315.5519618820078L199.3803162528409,318.4459175997066L199.39896498863635,320.0080299597506L200.18566802840908,321.71382546578803L200.5410596505682,319.95075164591987L200.86456121448862,316.4203888990318L201.23908399147726,314.2700805641771L202.1317536122159,311.4500684795505L202.30272435795456,311.03755820761796L203.07535804261363,310.21442447647524L204.50028706392044,310.41251080500393L205.13690738210227,304.81638418425337L205.1948696690341,305.91867655661537L205.24953422585224,308.0368750731231L205.42095858948863,311.0185938121546L205.59815758096593,309.9148047403314L206.16435192045455,312.1423340292817L206.59994030681818,314.27198392488947L207.0684267911932,312.869186336156L207.65880688494317,309.3615583857326L208.4757871193182,305.62407462787274L208.51834799857954,309.6764634336918L208.82685137073864,308.06524391863803L208.91550846875,310.19220733084234L209.01793250994314,309.684876231216L209.9446810752841,311.7106447965336L210.034411015625,313.9995480770536L210.2577566278409,315.0001158654955L210.91162882670457,312.2595984856712L211.12828537500005,312.71790871282053L212.4749833096591,312.3042224058974L212.966827515625,311.57458904501283L213.55655238352276,309.2534006882609L214.0572889403409,311.15489058502175L214.89872133948862,311.2119069972685L215.39716100568182,311.6856209476782L216.79824268607956,314.1200278055265L216.8194763238636,315.62227363469754L217.13750567187503,314.3949325894929L217.40716351136362,316.044942701069L218.0062703494318,315.9354512959086L219.57886999715907,312.5348836015223L219.8130592372159,314.08590106129395L219.87563690625,315.1207659020999L220.51207001704546,309.4326510167849L222.1119587414773,311.73250336426713L222.24208227556815,313.87637785962704L223.15908165625004,313.855921180683L223.348773140625,311.75953300358054L224.42908216477272,312.6708530530435L225.04769457244322,311.177475095087L225.28408709943182,311.2783538308239L225.49543703835224,306.4973507562003L225.94039299431816,308.7649981427703L226.1971623252841,310.69249842135474L226.75866927982955,308.1728736581515L227.56657715624996,309.4804426094288L228.5771010269886,307.0953762180145L228.94972292897728,310.1710697853123L230.09591455255685,309.00540931751544L230.11923627272728,301.6358479198882L230.56306898437504,297.02547073190493L230.73380932102273,299.5326501221192L231.2379804133523,299.96275260380133L233.26017299999998,303.4940897132311L233.58074404829546,301.34547625624646L233.92900738920454,304.5276548178095L235.18840187926133,309.9730065951381L235.55259944886362,312.52255560586735L235.6710081207386,313.13042226498726L235.69198254829547,309.96160892523915L235.9578890397727,312.2293675864533L235.96488051562503,313.6844624484853L235.98189478693183,312.9367930812125L236.13686650142046,312.3485241190306L236.53160767613636,310.47824550117605L236.88784893181816,306.99850867599963L237.10577993039772,310.93923237459967L237.17182813636364,314.3360975184097L238.13551415909095,315.14443289064826L238.22484808380682,316.77651795705106L238.55186338636364,317.1715402634934L238.66106289488633,317.3183092239694L238.81143362784087,321.17581284037396L239.56986835227272,318.3594409143179L242.34212173295452,319.08402477717016L242.6539804375,318.2824210605947L242.7833119403409,312.92330790150544L243.0778827627841,314.88856171627964L243.3993538465909,315.28327745883774L243.5085101534091,315.7605358400121L244.22258392755683,311.01595546401023L245.65899020170454,311.6135621444087L246.20808386647724,310.9875278227474L247.73334164630683,309.74664864933527L247.74932627698863,306.18765135193496L249.2505567088068,304.15475364914477L250.58708064204544,302.615790601773L250.64983831818182,306.8831720115071L251.91586426988636,307.958946209781L252.97162752556815,311.18860427831385L253.10437196306813,311.7130636365668L253.30271818892047,306.44160409108173L253.51767547017042,298.08636347741947L253.7746320085227,300.05640895580655L254.67599957244317,302.4396976124356L255.29121344602274,302.81174297057026L255.91971184375,306.3882315249847L256.3693983863636,307.63274679623703L258.37986171022726,307.8873347768015L258.564224984375,308.52898456028123L258.83949904545455,307.5623868762391L258.9206462471591,306.4100288448032L259.81322226420457,306.3282745180827L259.9749550454545,307.8180333403703L260.0953509957386,308.2810783393148L260.7895447855114,308.2021665884175L260.93701380397727,307.66259160015494L261.00330681960224,308.6214528601317L261.6692466946023,309.7199849311119L262.01645879403407,309.2362371914451L262.32864871164776,305.9428016127284L263.1232792642046,305.69488137081913L263.4205573934659,304.8698991651963L263.85001113778407,305.44441429041683L264.2039555028409,305.3657521468543L264.7386341988636,304.5901393248261L265.0105817286932,303.2221184261022L265.0887408125,295.5860506621869L265.1394236122159,287.77239306285884L266.12499849857954,291.62028410343004L266.132875609375,295.6469914879155L266.80358207244313,298.2191927647282L267.1170320397727,298.09031385001896L267.3989231619318,303.22551677251613L267.42734268323863,303.9994392566387L267.485981796875,298.7510233681429L268.17444416051137,304.68486986292146L268.316030546875,299.09738938348323L268.8727853139205,292.03278097596075L269.5544362088068,294.29661382956664L270.155127109375,297.30762175513166L270.6377981534091,299.7252284918619L270.78136461789774,301.59119421808265L270.79510996022725,300.43676508537027L271.0571570994318,301.7707503225647L271.30491167471587,299.40813777418L272.74440687073866,296.124167108053L273.03586717045454,299.80604204184505L273.7551611505682,301.09288573556825L273.78111097443184,306.43920287523304L273.7916377897727,306.5893224439481L274.3577601264205,307.37842407735593L274.68934040909096,304.7889104657525L276.218047125,306.03707389588965L276.98837671875,306.0112628115062L277.12029312357953,305.32782338978024L277.8155525553977,309.28289988131326L278.4624692798296,308.20321489911623L278.64107232670455,305.0647326642488L279.65943010653405,307.4527727646115L279.7058719389205,308.6321068499198L279.7814101193182,309.16204082243183L280.64763309659094,309.895984699067L280.8563909332386,312.69333699420696L281.7070828977272,313.8425864450759L282.2351733338068,313.96894847831453L284.16779438636365,306.94160620656737L284.6661332485795,307.9613652755823L285.34123188494317,307.5524104842449L285.4407830127841,306.21254891160817L285.75140326846594,307.76691657486697L285.97317201846596,306.9146290886369L286.0549744460227,307.74943472534136L287.78771561221595,308.36451951654016L289.9625398210227,307.94234158905914L290.115740265625,306.8747403507003L290.5317438792614,307.1957792980952L290.8538917897728,308.0356624033809L291.00889230539775,303.8828130428738L291.3741627173295,300.5418910864427L292.97758678125007,303.5611074234763L293.43018223863635,302.6309413099549L293.87543340625007,302.92705011346163L295.1086404630682,301.2414925964424L296.72775394602274,295.556268706976L297.6075350582386,296.96082840092964L298.61453078977274,302.5962041407902L298.62833373437496,306.4885235196717L300.23905168607956,311.3562449917209L300.3160659247159,308.3118082429628L300.8227643167614,304.8735370065184L300.91984574715906,303.2267564555406L301.0563487329546,304.4729929872095L301.4264433352273,298.5392940391281L301.5334395568182,300.0633999332589L301.84557907244323,302.44563994327007L302.3978408622159,300.59604395177956L302.5831185724432,298.1261373590126L303.02764971164777,297.0189667551607L303.2868455383523,299.6688717418866L303.4478222897727,304.0002909806036L303.9267779872159,299.03524733351304L305.18678450142045,301.90246023348607L305.76223840625,305.75709119846323L306.8206081647727,307.3325275186937L306.9869995298295,306.21464839088964L307.275406909091,309.0917011322562L308.1231107556818,309.5526959624178L308.8253256619318,311.83454156805516L310.02276170738634,310.79736033284684L311.7136620227273,306.32475628291985L312.17677709517045,303.94054284048184L312.52933900568183,299.8349614144096L313.86458128835227,301.49546720224816L314.42484259375004,298.46539712191094L314.44300891051137,300.14233755362426L314.8781508792614,301.09523692058065L315.19520818892045,303.3227013824935L316.22565524573866,304.2710461751195L318.48653725,304.69913924885157L319.34704320170454,307.28376836152387L320.69523159517047,307.44895310729527L320.8224102130682,305.226860141201L322.85865055397727,306.03133112002087L323.1283443948863,304.2108814520177L323.46268958664774,304.78974923421504L324.15714978693177,302.6357868490828L324.71934796874996,295.4656688217204L326.02629313494316,295.23006849846234L327.20719012784093,294.084808223693L327.6710324289773,293.914586990139L327.85932705823865,296.2268989416182L327.9883921505682,295.54636410037546L329.299743890625,301.58290948531914L330.278694515625,304.6822230625213L332.1387655056818,299.8983896031431L332.39384276988636,302.0218811626716L333.6584862670455,296.0778489882709L334.8654770894886,295.7976716400303L336.27126055539776,294.9925208940257L336.8698345724432,300.35614275992185L337.5825186917614,298.01672134593355L338.74481735085226,297.7292131440435L340.56157143181815,286.853581172437L340.86786431676137,288.14604399657145L340.9773014346591,287.59088739708574L341.22989460085233,284.0477542875229L342.30009442613635,279.71309114439447L342.32141446732953,277.8241274727353L342.5625015795454,275.13175835182494L344.52126686363636,278.51324459905123L344.7279510184659,273.26050790919356L346.57501109517045,280.84443172281453L347.94115699715906,274.10801696439233L351.4782533551136,269.8468144197335L352.8333396207386,270.6662922567735L352.83606852840904,280.5293484182574L353.3351346193181,285.6526961555188L353.3593419744318,286.936291732191L354.4992837514204,292.42159797236235L356.6349744161932,298.832358276508L357.8442477286932,294.9732545350318L357.9965841392046,295.284016354777L358.0859108636364,298.80841390156047L358.1652579943182,293.4409018163264L358.1864412301136,289.1620165438774L359.6459100142045,285.9974640622958L360.5442030568182,279.48034445295144L363.5810812784091,270.77504278500874L364.8840878892046,268.2422863672574L367.21313498295456,274.5944434121688L367.4145917315341,272.8117769003435L367.5311787315341,276.21051036529195L367.82552634517043,276.31168381049815L368.71163650710224,279.6579312389234L369.41943883380685,288.92824155308494L371.0581514900568,290.0040053201222L372.71286317755676,287.09115452210386L372.7318935284091,289.29298134378826L373.16134727272726,285.02203414222004L373.5147372159091,278.509479020887L379.03882397159094,272.406807167754L379.5052007727273,277.9452860925909L380.42852200284096,283.5979931787022L381.60329875426135,286.0875442018969L383.0473229289773,288.86516257161236L383.25014053125,292.3601381858705L384.6471684517045,292.59036745798994L385.05218443181815,292.4553123392915L385.8672709914773,289.8362654883977L391.0672297585227,297.9105756651381L392.054439109375,304.6319893153674L392.4524204119318,286.67294091806224L392.68217427698863,289.7407497803529L393.0185211477272,292.4428873133L393.2983601889205,293.180454216305L393.4716350255682,294.37438608385924L393.5956887201704,294.8694781712803L394.1337299488636,295.2430564455883L395.2089843735796,288.47309797875005L396.36156264914774,295.94863328193753L400.857708046875,300.8853382896469L401.0501932414773,296.24578754619984L401.2845912897728,295.8459194142699L402.8081066008522,292.2457815021294L402.8737659914773,292.02066427681L403.26927039630687,290.8843146352885L403.79603598011363,276.9719174399952L404.2318331747159,274.97437982399595L406.1998148224432,274.4577228503965L408.07679207954544,273.97131442283705L408.0933671335227,275.4951172594115L408.6742212514205,278.06609967049974L410.6692759673295,280.2514347199248L410.74544777272735,283.14846951193607L411.07546559375,287.12294908514565L411.5576110170454,289.9815067223738L411.69993903267044,291.51353071401775L413.0816159474432,270.5610011069151L414.5043344815341,268.4383509408778L415.17026715625,264.7913482997462L416.47989082812506,267.69214605478425L417.4340724758523,269.3073241465666L421.2028883764205,263.4509755245816L421.4695580980114,266.4110791958944L421.52148654687505,270.7226673165102L423.041552921875,273.11176721903365L423.7529769914772,268.71650213617863L425.94565790482955,264.2717768157519L426.42734971022725,245.98801029338907L426.92478133664775,242.2593087493807L428.2850950085227,247.4059124369736L434.3165353821022,250.36302557142756L435.8053165227272,248.5295717357134L439.1908973025568,239.41113597535642L444.17612199715904,246.9222155790529L445.0152143039772,253.07038324219502L447.6803346576704,240.34132575586577L451.0099476292614,242.32637689248588L451.4704994005682,230.783670358613L452.1846739786932,246.29836980482102L453.3715616079545,245.64161433409788L454.9345344758522,253.35212218398317L455.1017826747159,241.24230385638572L455.27892406392044,256.36945827792783L456.70887168323867,256.37553953623865L457.0883914573863,253.26220860580284L458.2765751377841,250.3796273149324L458.5524612230114,260.0254332176926L462.732607752841,236.3778682350387L463.2637439090909,235.13018799978292L464.2018545227272,242.19665979981548L465.48809167187494,241.96616082984312L467.37854066051136,251.26748670536668L468.6312964886364,264.98536369956173L470.77747796732956,229.96255914462745L473.5860135795454,233.55167527293332L475.0547635298296,223.93942398199331L475.44933909801136,218.7930103846943L478.47515768323865,229.96380882699015L478.5275829517046,241.30173750294165L479.2809414758522,237.28372687750038L481.3099599318181,248.37416784587535L483.716842096591,215.84304266899406L490.34572604261365,208.7453362686449L491.05961260937505,182.15853582834816L491.61008872869314,180.44425545409592L497.0150035823864,198.7376171359815L497.2723129346591,201.62397456558432L497.7297469829545,209.7001283807467L503.23517780255685,221.1953591236347L503.3987610568182,215.65730525508948L504.22508725994317,228.5742094668261L504.2421879346591,245.69607804680217L506.5504190071022,248.2954163397818L507.39262903693185,258.91535388881454L507.62843834090904,261.3273008054923L507.7343473196023,267.0629556846685L508.97606511221585,263.00801233196825L513.1656296136364,236.69231048217299L517.1179087528409,232.84596390984706L517.4187150213069,224.00106932337L521.3094749332386,210.0569089248645L521.4933629886364,220.64812258613478L521.7910443338069,234.5646541982146L522.0965595880681,244.92895606848242L522.4952753196022,254.54186265821002L524.0487726136364,228.83458325947853L524.6633960639203,242.84614577055675L525.8320165724432,211.14422390497322L527.5500187571024,184.1975903192272L529.5380819971591,190.06820177134313L531.5653219829545,166.28297150564168L532.2109138551136,183.81827577979539L532.5329177599432,160.9705344128261L534.8051906136363,168.62420425090218L536.9862286676137,173.71232361326685L537.0276663025568,191.31447507127683L538.0958572485795,200.7480538105853L541.8221338707385,208.24684573899754L543.3962239772726,220.66881887814787L543.4128998352273,229.5264960464257L544.2120593664772,204.35852163946183L547.071897002841,178.42974339354257L551.5991404275568,196.3165318845112L551.6108768906249,211.7093021018345L552.3794856164773,184.67790678655933L553.8399624403409,183.62522076857545L554.4162659786931,160.8064376532891L555.6203190852273,179.54122200529577L558.3293035696023,197.68653870450137L559.7454770454545,185.8468078988262L561.4041560894887,189.81628671400225L565.5174263806819,205.56984370690196L572.2567914857955,179.45936715086663L574.7177909857954,173.56671207823663L575.667558859375,152.25670526650114L578.6564327869318,134.14319947652598L582.6748753366478,129.4724695550471L582.8233163934659,141.89809912179L585.2397101335226,167.7216342535215L585.4631781505682,193.12088911549327L585.8517702826705,203.5592557481693L586.3106587883524,200.33586738594394L586.4481698139206,186.7757372780523L586.7113761988637,163.48437668634443L592.1396271732955,177.6122201833928L592.2941524701704,155.69538715588388L597.4789258380681,138.67257908250127L597.6327023053977,122.5966922201261L599.5702555525568,116.06693838710721L607.6722600213068,120.25014762904112L608.0429666477273,130.23187548468496L612.0819804090909,147.59934416198226L612.2187282045455,135.05119253768493L616.9965847173296,130.3860136570322L617.7809908664773,126.37336160847737L620.6419157457387,112.14235736720575L621.7109995269886,124.00175376212488L627.6171549573863,146.74524069780617L630.3862690142046,162.10820459313524L631.2647180738636,161.46422390416498L632.1090017855113,181.89584031854022L633.1105109005682,159.3364642707592L633.8667783394886,140.16099463014532L635.9506485596592,123.86184543562351L636.6998165184658,131.78981862028002L636.8056966960228,159.50759582723802L648.6011012897727,140.30645645315226L650.2225044630682,163.95898798517945L651.392946643466,144.0901397874025L652.4733420710227,127.20161881929215L657.8909006235795,136.0933759963983L660.4727136903408,145.58861959693857L660.7255876676137,141.9888266573978L661.2549957556819,140.6300026587881L661.7221861889205,126.10325225996989L662.9437647869318,111.91276442097444L665.212711109375,99.85084975782824L673.3113458451705,122.956722294154L679.5286615525569,135.93446395003087L681.2097550809659,142.33504435752627L688.0247735710227,134.5927877038973L688.4248213551136,119.1288695483127L688.9614441278409,126.06578911606583L696.5938532684659,133.75767074865593L698.4437358565341,150.6435201363575L712.7567701846591,132.7719921159039L713.6863196605113,129.58269329851834L716.1614245170455,147.8507893037406L719.6848403352274,167.77292090817951L728.5102429460227,147.33198277195257L733.6008437982954,171.01743535615972L736.1243345639203,192.75657005273578L736.9657021605113,183.0738345448254L740.4262234971591,198.3267593631016L741.9734709446022,191.44674545863631L746.2315173480113,173.5972336398409L747.1342817670454,163.05564859386473L747.5138807443182,168.08130130478503L749.0536974985795,154.4453561090673L752.2734557357954,143.23280269270714L755.5989789460227,140.1281322888011L755.6205005951705,158.13741244548092L759.0566345696021,165.6963005786588L760.1655215213067,156.62335549186L762.337991237216,170.693602168081L762.6476538551137,149.81456184286884L766.7324254218751,162.8271275664385L774.3793935369318,143.12805843147268L775.6252802940342,154.87559966675175L775.6309037159091,180.35900971673897L782.2649646661931,164.12540825922815L787.8671673039772,144.23159702034394L790.191599015625,127.3218574672923L790.6838176363636,150.4178288471985L806.9664608764205,160.12690452011873L809.2243187613635,163.32386884210095L813.0429318267046,169.58503851578584L814.5598156761363,165.83503273841796L815.7244688281249,185.32752782765527L820.2029447286932,163.056648653507L821.7432583025569,143.32315135548097L822.0669326732955,126.54967865215878L822.9183158650569,133.69647685433495L825.4946999176137,144.8742553261847L827.3439848821023,127.86811702725697L837.4975734971591,113.41289947316842L841.7066219673295,101.12596455219317L847.8323284602275,90.68206986936418L852.6333050852273,123.24300938895955L853.1231332116477,109.48155798061565L855.4319403068183,111.91207428352331L857.2987435624999,99.85026314099477L862.3055691093749,89.59772366984556L862.939654927557,118.39956511936875L863.3558745497158,135.4628803514634L863.5685853423296,164.8504482987439L865.0256132301135,144.84788105393233L865.0656612102273,163.75569889584247L865.5108619758523,154.7848440614661L865.6979613579545,156.32611745224622L869.1577914673295,173.41769983440926L884.5344661619318,152.1300448592479L889.6865862414774,134.0355381303607L891.0568219048296,118.6552074108066L896.2732981235795,105.58192629918564L897.8198399431818,94.46963735430778L901.2670335539772,85.0241917511616L904.6902862201705,108.5585629884874L905.4355444247157,135.08327854021428L908.5796420767045,153.84928675918215L911.057713450284,172.25739374530482L911.7088999431818,163.5705346835091L913.3294534829546,143.75995448098274L914.8172337840908,162.68921130883533L916.0025949531251,166.58857961251002L922.5399632883523,162.0122926706335L922.962475958807,183.25944877003852L925.9625895298296,198.81528145453277L927.0261722940339,214.16398923635282L932.4053245312499,186.7643908508999L932.8048322940341,198.06173222326493L933.8861277571025,188.7644723897752L940.2642762102274,172.87655153130888L941.6462051349431,188.05256880161258L942.1886889389203,192.1636834813707L942.9772568522728,168.06413095916506L946.7363163678976,147.57951131529035L951.9398536761363,158.13958461799675L955.6271551605113,139.14364692529722L958.1865105411931,155.78859988650265L958.9899974431817,179.1978099035273L959.0571760937501,199.94613841799818L959.1246067542614,221.36221765529845L964.5494015923296,192.8828850070037L968.6470760681818,168.67545225595313L974.3719499460228,167.37713441756011L981.1138207499998,186.26031425492613L983.5242670553978,163.0462671166872L985.4270357301135,168.26232704918414L986.535353859375,172.6487279918065L988.9153933650568,184.5986687930355L1001.3752473750001,161.6338684740802L1001.8488604616477,184.44978820296814L1010.0456494701704,205.16631997252298L1012.4083002897728,225.79937197664452L1013.0387427642046,196.6544661801478L1015.292107671875,171.88129625312564L1017.0343820142047,150.82410181515678L1018.495247653409,132.92548654288328L1019.9108667073864,139.44666356145078L1020.2297816903409,160.2986640272332L1020.888902896307,174.1011144231482L1020.9654275156249,152.710947259676L1024.6233014389204,141.61680517072458L1026.3513912215908,125.0992843951159L1026.531974346591,111.05939173584852L1027.3703106235796,134.75198297547126L1028.4238201903408,123.0441855291506L1028.79235953125,134.16605769977798L1029.3010380014205,118.76614904481131L1031.3789175852273,134.8767266880896L1035.189135119318,130.14321768487616L1038.4232723238638,115.34673503214475L1038.5904773210227,138.53797477732306L1039.384899065341,159.0065285607246L1043.962364471591,175.74329927661591L1044.2241019985795,154.10680438512355L1045.41297690625,169.688533727355L1045.8206353906248,188.9810036682518L1048.4281966732954,165.358853118014L1048.9365511306817,150.43027515031193L1051.8002769204547,132.59073387776513L1055.0337949005682,117.42712379610035L1057.145652625,105.67205522668532L1057.367183765625,94.54624694268253L1061.0628519801137,85.08930990128013L1067.0635615411932,77.05091341608812L1069.4647698821022,70.21827640367489L1072.1572225142047,80.3810349431237L1072.233610328125,73.04887970165518L1072.4445930525567,78.01479774640688L1074.9165801860795,103.97082808444586L1079.3617043707386,130.75845387177898L1079.553339931818,158.53643579101214L1080.5096744644886,175.01297042236033L1081.4365310340909,175.03202485900624L1089.6287478622157,153.5022211301553L1091.5855474687498,135.20188796063204L1095.234989859375,141.5233547665372L1098.0444615085225,128.04385155155663L1109.9658566732955,158.82777381882318L1110.5059427826704,167.4643577459997L1112.6164252528408,193.84720408409976L1112.6211990411934,214.52437347148472L1118.9606387670453,187.07071745076206L1121.3473673366477,163.92410983314775L1123.452363190341,144.06049335817556L1127.0125076576705,162.14141935444923L1127.825088518466,150.9084564512818L1134.8722297670454,132.99718798358958L1137.0590640497157,131.19160978605117L1138.7442473394885,160.13311831814346L1140.1867162528408,162.24240057042192L1147.0266621264202,142.63104048485866L1147.590552375,125.96138441212983L1149.3487969474434,111.7921767503104L1151.2248237670456,99.74835023776382L1153.0131511264206,89.51109770209928L1155.7781250198864,80.80943304678438L1156.3499859829546,73.41301808976671L1157.9449137116476,105.20956537630173L1163.9160877073862,118.53413056985644L1164.4668662386364,138.55401098437798L1167.8192609090909,122.49590933672128L1168.4116786832385,147.2607729362131L1173.1039238181818,129.8966569957812L1173.5415930866477,146.98365844641404L1175.5731172414771,129.6611096794519L1181.4536468607955,153.11494322753416L1182.7581655312501,181.74470174340402L1185.2198346576704,172.05999648189345L1202.714256909091,169.73424700960942L1204.0737065468747,148.999109958168L1212.796440306818,160.33849346444282L1215.2331460482953,142.9027194447764L1218.4143323636365,126.19231152805997L1218.9091430866476,111.98846479885097L1220.2219204829546,99.91519507902336L1221.7574098664772,89.65291581716986L1227.0031984417615,80.92997844459434L1228.0052331775569,116.4657316779052L1229.0536953451704,143.2218719262194L1229.3544296107953,158.02659113728652L1230.6078766661933,162.15285246669356L1233.1903953607955,142.55492459668952L1233.2766475639205,164.73618590718607L1233.9262643948864,158.40600802110816L1234.4295354517044,181.75335681794195L1235.4083132698863,202.73260329525064L1235.4310877684659,221.17921280096309L1236.4758777911932,212.7140808808186L1236.778736140625,204.8099687486958L1237.1577446946023,209.00622343639145L1241.5193095823863,182.38028992093277L1241.980775789773,203.31274643279286L1242.0500209218749,215.71883446787396L1243.644372627841,188.08600929769284L1243.7964930298297,187.08910790303892L1244.7067745454547,163.75074171758305L1245.7021058167613,153.07963045994558L1251.2716335653408,134.84268589095376L1253.5435464048296,119.34128300731066L1256.128700403409,106.16509055621407L1256.8875239431818,98.650826972782L1257.749433950284,123.8739529268647L1259.4076593764205,148.99910998783497L1263.0170177855114,131.37424348965976L1270.1268303068182,135.9546069662108L1272.613722028409,120.28641592127919L1272.7641647642045,109.14195353308729L1274.5833957428977,135.8154105031242L1274.6521368551137,124.94034892765558L1275.2005248920455,143.99929658850724L1275.4043217329547,169.50765210023116L1276.9267714019886,148.80650428519647L1281.7448271008525,131.210528642417L1282.0687894829546,116.25394934605445L1282.9179621874998,103.5408569441463L1293.7012516477273,92.73472840252437L1299.482496549716,96.02351914214572L1309.8089063835228,113.93899127082388L1313.3850930838069,131.5296425802003L1316.2799457017047,116.52519619317023L1317.7965919417616,103.77141676419471L1324.596237825284,112.44495424956554L1329.44457071875,100.30321111213071L1332.3541191164775,128.01897944531115L1332.9442039985795,113.54113252851448L1333.2665391164771,147.96521264923732L1333.804688349432,175.05218075185175L1340.0041401519886,159.378353639074L1343.2713698622158,184.1391005932129L1343.925357265625,198.71248550423095L1347.914271450284,207.0836126785963L1350.4573541889206,180.74607077680685L1352.8669292599432,158.35916016028582L1356.6536594673296,139.33028613624293L1357.4009697528409,158.64049321580652L1359.6528442017045,139.56941923343553L1362.6466575241477,157.28450634842022L1364.2812444176138,181.6033303961572L1371.153649171875,159.08783083673362L1371.2322402727273,139.94965621122356" style="fill: none;" fill="none"></path></g></g></g></g><g opacity="0.2"><g><g><g><path stroke="rgb(0, 119, 187)" stroke-width="2px" d="M129.60511363636363,342.40500000000003L129.61029064062498,335.16L129.6506194318182,342.40500000000003L129.6935259247159,339.885L129.8179684346591,338.625L129.93513865767045,342.09000000000003L129.94326777840908,333.58500000000004L129.99184809517047,336.735L130.02181567755682,331.695L130.09756266619317,335.78999999999996L130.10076679261363,339.885L130.11033597017044,338.31L130.42968297017046,335.47499999999997L130.541085765625,330.75L130.62249217755684,341.775L130.631060515625,338.625L130.72935159374998,342.40500000000003L130.75534461931818,339.57L130.81088761079548,305.865L130.90823545170454,335.16L130.9241984815341,336.735L131.07463401704544,336.735L131.11338594602273,340.2L131.1277433125,334.845L131.19569239346592,341.46L131.46897197585227,336.735L131.5816780227273,330.12L131.7099006818182,333.27000000000004L131.8177681377841,333.58500000000004L132.017273609375,337.68L132.24279370738637,329.805L132.37548774289775,325.395L132.38098875994316,342.09000000000003L132.4219799772727,337.995L132.4311747400568,336.105L132.56849135795454,332.325L132.58859455113637,342.09000000000003L132.7050015440341,341.46L132.79367304261362,334.215L132.96147566335227,328.23L133.0682126747159,336.735L133.11466890767048,331.065L133.1565169588068,334.53000000000003L133.4704349446023,341.46L133.60720434090908,321.3L133.61613269318184,332.955L133.936365328125,336.105L134.02592246164772,340.2L134.05759651136364,336.105L134.174529125,326.34L134.21460590625,342.09000000000003L134.25288261647728,334.845L134.48760467755682,338.94L134.65509768607956,337.04999999999995L134.96439308948862,332.325L135.00125134375,330.12L135.10106168181818,333.58500000000004L135.11834236363634,342.40500000000003L135.20253528551137,342.09000000000003L135.34352404829545,340.51500000000004L135.61881250994318,332.01L135.77492186931818,335.16L135.82875119318183,333.27000000000004L135.83576426988637,337.995L135.8578187400568,327.6L135.93392574289774,333.27000000000004L135.9372594744318,334.215L135.97704104403408,330.12L135.98964874147728,335.78999999999996L136.08022831534092,337.68L136.1203915,331.695L136.61883116619316,326.02500000000003L136.80474970170454,337.365L137.59207916619317,334.845L137.86081536931817,327.6L137.8690452940341,335.78999999999996L138.06804674573863,332.325L138.28964988920455,329.49L138.5583500909091,342.40500000000003L138.607369625,330.12L138.61320905539773,337.68L138.6161467713068,335.47499999999997L138.82659667471592,342.40500000000003L139.46163293039774,332.325L139.98809610227272,343.35L139.99476356534092,334.53000000000003L140.1671239659091,326.96999999999997L140.42580857244317,338.31L140.60109948863635,340.51500000000004L140.67720649147728,342.09000000000003L140.70067221732955,329.175L141.07245168607955,340.51500000000004L141.18054235085225,334.845L141.28521288068183,337.365L141.47558839204547,335.47499999999997L141.70943921875,332.955L142.07483203551138,336.42L142.19890013068184,333.9L142.2231434872159,319.725L142.52206328125,343.03499999999997L142.53070362215908,329.805L142.79050427272728,337.68L143.09416905397725,328.86L143.14773916761362,333.58500000000004L143.22468860369318,340.83L143.7450459346591,318.78L143.76217541051136,334.215L143.78340904829545,337.68L144.22788258522726,323.505L144.2879689559659,329.49L144.43241385511362,324.135L144.47626358522726,324.135L144.64644229971591,333.27000000000004L144.93675775426135,337.365L145.24725560511362,327.6L145.25441268749998,339.885L145.47918395596594,340.83L145.58618737784093,327.285L145.956786,333.58500000000004L146.37338003693182,324.45000000000005L146.42460285795454,331.065L146.69350466761364,331.695L147.18978424857954,327.91499999999996L147.71966035511363,331.38L147.92177952982954,323.505L148.2885187997159,337.365L148.3817264772727,340.83L148.55387086931816,329.805L148.58548731676134,329.805L148.7623910965909,321.93L148.86482953835227,315.315L149.1606388096591,325.395L149.26262363352274,316.89000000000004L149.74571949431817,326.34L149.79095887926138,327.91499999999996L150.08509048437497,332.325L150.12979704829547,332.64L150.1518659190341,336.105L150.4454575028409,325.395L150.53277534801137,318.78L150.81569611079544,330.75L151.42508495454547,333.9L151.65408999005683,323.19L151.76218785511364,325.08L151.98994724147724,325.71000000000004L152.14051958238636,323.505L152.15859229545455,327.91499999999996L152.20808704829545,336.735L152.3513439005682,324.135L152.82960117045454,332.325L153.30988892045454,322.875L153.42267417045454,330.12L153.9292069559659,325.395L153.96563319318182,337.68L154.14085210653408,328.545L154.57046425710226,322.875L154.8591236463068,328.86L155.1072886377841,330.435L155.218720234375,327.91499999999996L155.52732441051137,313.42499999999995L155.56328262926135,332.64L155.5765671534091,332.64L155.6472235411932,330.435L155.80556498863638,328.86L156.69072471306816,317.835L157.00438348863636,331.065L157.15904559090907,335.47499999999997L157.19718549573864,333.27000000000004L157.37385166619316,329.805L158.23789295738638,314.37L158.6040778053977,332.64L159.17574436079545,316.575L159.37727311221593,330.435L160.1304156278409,332.01L160.1531469247159,334.215L160.19688865056818,335.16L160.70523590767047,308.385L160.71751959232955,319.40999999999997L160.87185768181817,319.725L160.93112322017046,320.04L161.43299022159093,327.285L161.60609945170455,325.08L161.9009510852273,322.245L162.8903997244318,325.71000000000004L163.01767914630682,333.27000000000004L163.0338581846591,325.08L163.1372110625,331.38L163.1712828068182,331.695L163.54632400426138,338.31L163.58461511505683,333.9L163.91077358380682,327.285L165.2145434247159,330.435L165.5307295,332.325L165.68773889488637,327.91499999999996L166.25979426562498,327.91499999999996L166.47219544602274,319.40999999999997L167.00593090482957,332.325L167.0498526377841,321.3L167.11648406676136,320.98499999999996L167.46299053835227,329.175L167.63172199573864,342.09000000000003L167.7782837784091,296.415L167.90003338210227,316.575L168.7937254431818,315.945L169.1411391505682,330.12L170.09460076988637,317.52L170.2424298025568,324.765L171.42551568181818,299.25L171.47663769886364,330.75L172.1858152798295,328.545L172.20466562357953,320.98499999999996L172.37977653267043,329.805L172.77575615625,336.735L173.05401113494318,302.715L173.58107913068181,341.145L173.76797690482954,329.49L173.87999172443182,326.34L174.00914322017047,315.315L174.29214318607956,316.89000000000004L174.60561475426138,329.49L174.60956050994318,332.325L174.7419377329545,320.98499999999996L175.0094354872159,317.835L175.2158604318182,325.71000000000004L175.2754211818182,333.9L175.62654303551136,326.34L175.64910872585227,343.03499999999997L175.86518205113637,329.49L175.8870277130682,335.78999999999996L176.03617439772728,340.51500000000004L176.06954771448864,324.135L176.0806793536932,332.01L176.53351242045454,327.91499999999996L178.1016334914773,308.385L178.4967490809659,303.34499999999997L178.62391329829543,323.82L179.75456670880683,313.11L179.77440349147727,322.245L180.26557087073863,315.945L181.44158607102273,314.37L181.81201188636362,289.17L181.98693558806818,319.40999999999997L182.22833951278412,316.575L182.3272498153409,321.93L182.46121830113637,315.315L182.628070484375,306.81L183.2351624375,331.38L183.4021802272727,308.7L183.52893402840908,326.655L184.05076021732955,328.545L184.86575317329547,331.38L185.64718560511363,328.86L185.67762120596592,325.395L185.9757561690341,322.56L186.21326474005681,320.98499999999996L186.97865493892044,341.145L187.1985156136364,314.685L187.2266111221591,307.125L187.37277688920454,325.71000000000004L187.7780016775568,310.90500000000003L188.35432681676136,320.355L188.3725363352273,319.095L188.49670523437499,315.315L189.3610705383523,324.135L190.05570354545452,326.655L191.74884314914772,329.175L191.94811821164774,323.19L192.71784298153406,316.89000000000004L193.2716888338068,317.205L193.78830921732953,299.25L194.26881297585228,326.96999999999997L194.393061078125,332.64L194.63339216051133,320.04L194.7854117585227,319.725L194.87848263068184,326.655L195.00106746732953,300.82500000000005L195.4193895724432,302.40000000000003L195.9960891264205,297.045L196.73610552414772,311.84999999999997L197.04974269886364,311.22L197.0799550909091,315.63L197.96697968892047,321.615L198.30576025568183,330.75L198.70355435085227,320.04L198.9073439914773,305.235L199.3803162528409,334.845L199.39896498863635,328.86L200.18566802840908,331.38L200.5410596505682,309.96000000000004L200.86456121448862,296.415L201.23908399147726,302.08500000000004L202.1317536122159,295.47L202.30272435795456,308.7L203.07535804261363,305.55L204.50028706392044,311.535L205.13690738210227,273.10499999999996L205.1948696690341,312.16499999999996L205.24953422585224,320.04L205.42095858948863,327.91499999999996L205.59815758096593,303.66L206.16435192045455,324.765L206.59994030681818,326.34L207.0684267911932,304.92L207.65880688494317,289.485L208.4757871193182,284.445L208.51834799857954,332.64L208.82685137073864,298.935L208.91550846875,322.245L209.01793250994314,306.81L209.9446810752841,323.19L210.034411015625,326.96999999999997L210.2577566278409,320.67L210.91162882670457,296.73L211.12828537500005,315.315L212.4749833096591,309.96000000000004L212.966827515625,307.44L213.55655238352276,296.1L214.0572889403409,321.93L214.89872133948862,311.535L215.39716100568182,314.37L216.79824268607956,327.91499999999996L216.8194763238636,324.135L217.13750567187503,307.44L217.40716351136362,325.395L218.0062703494318,315.315L219.57886999715907,293.26500000000004L219.8130592372159,322.875L219.87563690625,320.98499999999996L220.51207001704546,277.20000000000005L222.1119587414773,324.765L222.24208227556815,326.02500000000003L223.15908165625004,313.74L223.348773140625,299.88L224.42908216477272,317.835L225.04769457244322,302.715L225.28408709943182,311.84999999999997L225.49543703835224,279.40500000000003L225.94039299431816,321.615L226.1971623252841,321.615L226.75866927982955,293.895L227.56657715624996,316.89000000000004L228.5771010269886,293.58L228.94972292897728,327.6L230.09591455255685,302.40000000000003L230.11923627272728,259.875L230.56306898437504,270.9L230.73380932102273,313.74L231.2379804133523,302.40000000000003L233.26017299999998,323.505L233.58074404829546,289.17L233.92900738920454,322.56L235.18840187926133,340.83L235.55259944886362,326.96999999999997L235.6710081207386,316.575L235.69198254829547,292.005L235.9578890397727,325.08L235.96488051562503,321.93L235.98189478693183,308.7L236.13686650142046,309.015L236.53160767613636,299.88L236.88784893181816,287.28000000000003L237.10577993039772,333.27000000000004L237.17182813636364,333.58500000000004L238.13551415909095,319.725L238.22484808380682,326.02500000000003L238.55186338636364,319.40999999999997L238.66106289488633,318.15L238.81143362784087,343.03499999999997L239.56986835227272,302.40000000000003L242.34212173295452,323.19L242.6539804375,313.74L242.7833119403409,282.555L243.0778827627841,326.02500000000003L243.3993538465909,317.52L243.5085101534091,318.46500000000003L244.22258392755683,284.13L245.65899020170454,315L246.20808386647724,307.44L247.73334164630683,302.715L247.74932627698863,286.02L249.2505567088068,292.635L250.58708064204544,293.895L250.64983831818182,331.065L251.91586426988636,314.055L252.97162752556815,329.49L253.10437196306813,314.685L253.30271818892047,276.57L253.51767547017042,250.74L253.7746320085227,311.22L254.67599957244317,315.945L255.29121344602274,304.92L255.91971184375,326.655L256.3693983863636,314.685L258.37986171022726,309.33L258.564224984375,312.16499999999996L258.83949904545455,302.08500000000004L258.9206462471591,299.88L259.81322226420457,305.865L259.9749550454545,316.26L260.0953509957386,310.90500000000003L260.7895447855114,307.755L260.93701380397727,304.605L261.00330681960224,314.055L261.6692466946023,315.945L262.01645879403407,306.495L262.32864871164776,287.28000000000003L263.1232792642046,304.28999999999996L263.4205573934659,300.195L263.85001113778407,308.7L264.2039555028409,304.92L264.7386341988636,300.195L265.0105817286932,295.47L265.0887408125,252.315L265.1394236122159,243.495L266.12499849857954,313.42499999999995L266.132875609375,318.46500000000003L266.80358207244313,312.795L267.1170320397727,297.35999999999996L267.3989231619318,332.325L267.42734268323863,308.385L267.485981796875,269.01L268.17444416051137,338.31L268.316030546875,267.435L268.8727853139205,252.00000000000003L269.5544362088068,307.125L270.155127109375,314.37L270.6377981534091,313.42499999999995L270.78136461789774,312.16499999999996L270.79510996022725,293.895L271.0571570994318,309.33L271.30491167471587,286.02L272.74440687073866,277.515L273.03586717045454,320.67L273.7551611505682,308.385L273.78111097443184,336.735L273.7916377897727,307.44L274.3577601264205,311.84999999999997L274.68934040909096,290.115L276.218047125,313.11L276.98837671875,305.865L277.12029312357953,301.455L277.8155525553977,331.695L278.4624692798296,302.08500000000004L278.64107232670455,287.28000000000003L279.65943010653405,320.98499999999996L279.7058719389205,315.315L279.7814101193182,312.16499999999996L280.64763309659094,314.055L280.8563909332386,328.545L281.7070828977272,320.355L282.2351733338068,314.685L284.16779438636365,267.12L284.6661332485795,313.74L285.34123188494317,305.235L285.4407830127841,298.62L285.75140326846594,316.575L285.97317201846596,302.08500000000004L286.0549744460227,312.48L287.78771561221595,311.84999999999997L289.9625398210227,305.55L290.115740265625,300.82500000000005L290.5317438792614,309.015L290.8538917897728,312.795L291.00889230539775,280.35L291.3741627173295,281.61L292.97758678125007,320.67L293.43018223863635,297.35999999999996L293.87543340625007,304.605L295.1086404630682,291.69L296.72775394602274,263.34L297.6075350582386,304.92L298.61453078977274,334.53000000000003L298.62833373437496,328.545L300.23905168607956,338.94L300.3160659247159,291.06L300.8227643167614,285.39L300.91984574715906,293.895L301.0563487329546,311.535L301.4264433352273,264.91499999999996L301.5334395568182,308.7L301.84557907244323,315.945L302.3978408622159,290.115L302.5831185724432,284.13L303.02764971164777,290.745L303.2868455383523,314.685L303.4478222897727,328.545L303.9267779872159,270.9L305.18678450142045,318.15L305.76223840625,327.6L306.8206081647727,316.26L306.9869995298295,299.88L307.275406909091,325.395L308.1231107556818,312.16499999999996L308.8253256619318,324.765L310.02276170738634,304.92L311.7136620227273,280.98L312.17677709517045,290.43L312.52933900568183,276.57L313.86458128835227,310.90500000000003L314.42484259375004,281.295L314.44300891051137,309.645L314.8781508792614,306.495L315.19520818892045,315.945L316.22565524573866,309.645L318.48653725,307.125L319.34704320170454,321.93L320.69523159517047,308.385L320.8224102130682,292.635L322.85865055397727,310.59L323.1283443948863,293.895L323.46268958664774,308.07L324.15714978693177,290.43L324.71934796874996,254.835L326.02629313494316,293.895L327.20719012784093,287.595L327.6710324289773,292.95L327.85932705823865,309.33L327.9883921505682,291.69L329.299743890625,335.78999999999996L330.278694515625,322.245L332.1387655056818,272.79L332.39384276988636,314.055L333.6584862670455,262.395L334.8654770894886,294.21L336.27126055539776,290.43L336.8698345724432,330.75L337.5825186917614,284.76L338.74481735085226,296.1L340.56157143181815,225.225L340.86786431676137,295.47L340.9773014346591,284.445L341.22989460085233,263.96999999999997L342.30009442613635,255.15L342.32141446732953,267.12L342.5625015795454,259.875L344.52126686363636,297.675L344.7279510184659,243.495L346.57501109517045,323.82L347.94115699715906,235.935L351.4782533551136,245.70000000000002L352.8333396207386,275.31L352.83606852840904,336.42L353.3351346193181,314.685L353.3593419744318,294.21L354.4992837514204,323.505L356.6349744161932,335.16L357.8442477286932,273.10499999999996L357.9965841392046,297.045L358.0859108636364,318.78L358.1652579943182,263.025L358.1864412301136,264.91499999999996L359.6459100142045,268.065L360.5442030568182,242.54999999999998L363.5810812784091,221.445L364.8840878892046,253.89L367.21313498295456,310.59L367.4145917315341,262.71000000000004L367.5311787315341,295.47L367.82552634517043,276.885L368.71163650710224,298.62L369.41943883380685,341.46L371.0581514900568,296.1L372.71286317755676,270.585L372.7318935284091,301.77L373.16134727272726,260.82L373.5147372159091,241.605L379.03882397159094,237.825L379.5052007727273,309.33L380.42852200284096,315.63L381.60329875426135,300.195L383.0473229289773,304.605L383.25014053125,312.16499999999996L384.6471684517045,293.895L385.05218443181815,291.69L385.8672709914773,274.995L391.0672297585227,343.665L392.054439109375,342.71999999999997L392.4524204119318,184.905L392.68217427698863,307.125L393.0185211477272,307.755L393.2983601889205,297.35999999999996L393.4716350255682,301.14L393.5956887201704,297.675L394.1337299488636,297.35999999999996L395.2089843735796,250.10999999999999L396.36156264914774,338.31L400.857708046875,328.86L401.0501932414773,269.955L401.2845912897728,293.58L402.8081066008522,271.845L402.8737659914773,290.745L403.26927039630687,284.445L403.79603598011363,198.135L404.2318331747159,263.65500000000003L406.1998148224432,271.53L408.07679207954544,271.21500000000003L408.0933671335227,284.13L408.6742212514205,292.635L410.6692759673295,292.635L410.74544777272735,299.565L411.07546559375,309.645L411.5576110170454,306.18L411.69993903267044,300.195L413.0816159474432,151.82999999999998L414.5043344815341,256.41L415.17026715625,244.12499999999997L416.47989082812506,284.13L417.4340724758523,278.46000000000004L421.2028883764205,230.265L421.4695580980114,283.185L421.52148654687505,295.155L423.041552921875,286.65L423.7529769914772,243.81L425.94565790482955,239.08500000000004L426.42734971022725,142.38000000000002L426.92478133664775,221.13L428.2850950085227,276.57L434.3165353821022,267.12L435.8053165227272,238.14000000000001L439.1908973025568,187.74L444.17612199715904,289.485L445.0152143039772,287.91L447.6803346576704,168.20999999999998L451.0099476292614,253.57500000000002L451.4704994005682,165.375L452.1846739786932,334.215L453.3715616079545,241.92000000000002L454.9345344758522,297.045L455.1017826747159,172.62L455.27892406392044,342.09000000000003L456.70887168323867,256.41L457.0883914573863,235.61999999999998L458.2765751377841,234.045L458.5524612230114,314.685L462.732607752841,102.37500000000001L463.2637439090909,228.05999999999997L464.2018545227272,282.23999999999995L465.48809167187494,240.66000000000003L467.37854066051136,303.975L468.6312964886364,342.71999999999997L470.77747796732956,31.500000000000014L473.5860135795454,253.89L475.0547635298296,169.47L475.44933909801136,189.63000000000002L478.47515768323865,293.26500000000004L478.5275829517046,305.55L479.2809414758522,214.51500000000001L481.3099599318181,311.22L483.716842096591,31.500000000000014L490.34572604261365,168.52499999999998L491.05961260937505,31.500000000000014L491.61008872869314,170.73L497.0150035823864,302.40000000000003L497.2723129346591,217.98L497.7297469829545,255.46499999999997L503.23517780255685,286.33500000000004L503.3987610568182,184.275L504.22508725994317,301.77L504.2421879346591,342.71999999999997L506.5504190071022,263.025L507.39262903693185,319.095L507.62843834090904,274.995L507.7343473196023,299.565L508.97606511221585,240.03L513.1656296136364,87.57000000000001L517.1179087528409,211.05L517.4187150213069,173.88L521.3094749332386,131.04L521.4933629886364,280.66499999999996L521.7910443338069,313.42499999999995L522.0965595880681,303.66L522.4952753196022,309.015L524.0487726136364,83.16L524.6633960639203,322.245L525.8320165724432,31.500000000000014L527.5500187571024,31.500000000000014L529.5380819971591,223.335L531.5653219829545,31.500000000000014L532.2109138551136,283.185L532.5329177599432,31.500000000000014L534.8051906136363,211.99499999999998L536.9862286676137,202.54500000000002L537.0276663025568,291.06L538.0958572485795,254.20499999999998L541.8221338707385,250.74L543.3962239772726,291.06L543.4128998352273,279.71999999999997L544.2120593664772,61.74L547.071897002841,31.500000000000014L551.5991404275568,297.675L551.6108768906249,298.935L552.3794856164773,31.500000000000014L553.8399624403409,177.66L554.4162659786931,31.500000000000014L555.6203190852273,285.705L558.3293035696023,300.51L559.7454770454545,118.75500000000001L561.4041560894887,212.31L565.5174263806819,294.84000000000003L572.2567914857955,31.500000000000014L574.7177909857954,140.175L575.667558859375,31.500000000000014L578.6564327869318,31.500000000000014L582.6748753366478,103.00499999999998L582.8233163934659,212.31L585.2397101335226,314.055L585.4631781505682,337.04999999999995L585.8517702826705,262.71000000000004L586.3106587883524,182.07000000000002L586.4481698139206,109.93500000000002L586.7113761988637,31.500000000000014L592.1396271732955,257.67L592.2941524701704,31.500000000000014L597.4789258380681,42.21000000000001L597.6327023053977,31.500000000000014L599.5702555525568,79.06499999999998L607.6722600213068,143.955L608.0429666477273,186.795L612.0819804090909,246.01500000000001L612.2187282045455,63.94500000000001L616.9965847173296,103.95L617.7809908664773,103.635L620.6419157457387,31.500000000000014L621.7109995269886,191.205L627.6171549573863,275.625L630.3862690142046,249.165L631.2647180738636,157.815L632.1090017855113,297.675L633.1105109005682,31.500000000000014L633.8667783394886,31.500000000000014L635.9506485596592,31.500000000000014L636.6998165184658,176.715L636.8056966960228,316.575L648.6011012897727,31.500000000000014L650.2225044630682,297.99L651.392946643466,31.500000000000014L652.4733420710227,31.500000000000014L657.8909006235795,186.48L660.4727136903408,199.39500000000004L660.7255876676137,121.58999999999999L661.2549957556819,132.93L661.7221861889205,43.785000000000004L662.9437647869318,31.500000000000014L665.212711109375,31.500000000000014L673.3113458451705,253.89L679.5286615525569,209.47500000000002L681.2097550809659,178.60500000000002L688.0247735710227,90.72L688.4248213551136,31.500000000000014L688.9614441278409,165.375L696.5938532684659,177.34499999999997L698.4437358565341,246.32999999999998L712.7567701846591,31.500000000000014L713.6863196605113,111.51000000000002L716.1614245170455,251.37L719.6848403352274,280.66499999999996L728.5102429460227,31.500000000000014L733.6008437982954,305.235L736.1243345639203,315.945L736.9657021605113,128.20499999999998L740.4262234971591,284.76L741.9734709446022,152.46L746.2315173480113,72.44999999999999L747.1342817670454,103.32L747.5138807443182,196.56L749.0536974985795,77.17500000000003L752.2734557357954,79.695L755.5989789460227,122.53500000000003L755.6205005951705,260.19L759.0566345696021,208.53000000000003L760.1655215213067,105.21L762.337991237216,250.42499999999998L762.6476538551137,31.500000000000014L766.7324254218751,236.565L774.3793935369318,31.500000000000014L775.6252802940342,221.445L775.6309037159091,324.765L782.2649646661931,72.13499999999999L787.8671673039772,31.500000000000014L790.191599015625,31.500000000000014L790.6838176363636,281.295L806.9664608764205,215.14499999999998L809.2243187613635,181.44L813.0429318267046,205.065L814.5598156761363,144.58499999999998L815.7244688281249,295.78499999999997L820.2029447286932,36.85500000000001L821.7432583025569,31.500000000000014L822.0669326732955,31.500000000000014L822.9183158650569,174.195L825.4946999176137,208.21499999999997L827.3439848821023,31.500000000000014L837.4975734971591,31.500000000000014L841.7066219673295,31.500000000000014L847.8323284602275,31.500000000000014L852.6333050852273,307.755L853.1231332116477,31.500000000000014L855.4319403068183,125.685L857.2987435624999,31.500000000000014L862.3055691093749,31.500000000000014L862.939654927557,281.61L863.3558745497158,232.15500000000003L863.5685853423296,331.38L865.0256132301135,31.500000000000014L865.0656612102273,270.9L865.5108619758523,103.95L865.6979613579545,165.06L869.1577914673295,270.27000000000004L884.5344661619318,31.500000000000014L889.6865862414774,31.500000000000014L891.0568219048296,31.500000000000014L896.2732981235795,31.500000000000014L897.8198399431818,31.500000000000014L901.2670335539772,31.500000000000014L904.6902862201705,241.92000000000002L905.4355444247157,285.39L908.5796420767045,260.19L911.057713450284,276.57L911.7088999431818,114.345L913.3294534829546,31.500000000000014L914.8172337840908,269.955L916.0025949531251,188.685L922.5399632883523,136.07999999999998L922.962475958807,303.66L925.9625895298296,286.965L927.0261722940339,301.14L932.4053245312499,31.500000000000014L932.8048322940341,262.08L933.8861277571025,136.07999999999998L940.2642762102274,82.84499999999998L941.6462051349431,274.05L942.1886889389203,215.46000000000004L942.9772568522728,31.500000000000014L946.7363163678976,31.500000000000014L951.9398536761363,217.98L955.6271551605113,31.500000000000014L958.1865105411931,250.10999999999999L958.9899974431817,311.84999999999997L959.0571760937501,317.52L959.1246067542614,342.71999999999997L964.5494015923296,31.500000000000014L968.6470760681818,31.500000000000014L974.3719499460228,160.02L981.1138207499998,293.26500000000004L983.5242670553978,31.500000000000014L985.4270357301135,197.82L986.535353859375,197.505L988.9153933650568,252.315L1001.3752473750001,31.500000000000014L1001.8488604616477,313.74L1010.0456494701704,322.56L1012.4083002897728,342.71999999999997L1013.0387427642046,31.500000000000014L1015.292107671875,31.500000000000014L1017.0343820142047,31.500000000000014L1018.495247653409,31.500000000000014L1019.9108667073864,176.4L1020.2297816903409,278.46000000000004L1020.888902896307,252.315L1020.9654275156249,31.500000000000014L1024.6233014389204,78.75000000000001L1026.3513912215908,31.500000000000014L1026.531974346591,31.500000000000014L1027.3703106235796,269.01L1028.4238201903408,56.70000000000001L1028.79235953125,197.19000000000003L1029.3010380014205,31.500000000000014L1031.3789175852273,226.17000000000002L1035.189135119318,103.32L1038.4232723238638,31.500000000000014L1038.5904773210227,269.955L1039.384899065341,274.995L1043.962364471591,270.585L1044.2241019985795,31.500000000000014L1045.41297690625,257.985L1045.8206353906248,298.305L1048.4281966732954,31.500000000000014L1048.9365511306817,65.83500000000001L1051.8002769204547,31.500000000000014L1055.0337949005682,31.500000000000014L1057.145652625,39.060000000000024L1057.367183765625,31.500000000000014L1061.0628519801137,31.500000000000014L1067.0635615411932,31.500000000000014L1069.4647698821022,31.500000000000014L1072.1572225142047,137.97L1072.233610328125,31.500000000000014L1072.4445930525567,106.15500000000002L1074.9165801860795,251.055L1079.3617043707386,282.555L1079.553339931818,315.945L1080.5096744644886,268.38L1081.4365310340909,175.14000000000001L1089.6287478622157,31.500000000000014L1091.5855474687498,31.500000000000014L1095.234989859375,177.34499999999997L1098.0444615085225,51.66000000000002L1109.9658566732955,333.27000000000004L1110.5059427826704,216.405L1112.6164252528408,343.35L1112.6211990411934,331.695L1118.9606387670453,31.500000000000014L1121.3473673366477,32.76L1123.452363190341,31.500000000000014L1127.0125076576705,264.59999999999997L1127.825088518466,87.255L1134.8722297670454,31.500000000000014L1137.0590640497157,120.95999999999998L1138.7442473394885,324.135L1140.1867162528408,174.195L1147.0266621264202,31.500000000000014L1147.590552375,31.500000000000014L1149.3487969474434,31.500000000000014L1151.2248237670456,31.500000000000014L1153.0131511264206,31.500000000000014L1155.7781250198864,31.500000000000014L1156.3499859829546,31.500000000000014L1157.9449137116476,285.39L1163.9160877073862,194.04L1164.4668662386364,252.00000000000003L1167.8192609090909,31.500000000000014L1168.4116786832385,287.595L1173.1039238181818,31.500000000000014L1173.5415930866477,243.81L1175.5731172414771,31.500000000000014L1181.4536468607955,286.02L1182.7581655312501,343.98L1185.2198346576704,117.18000000000002L1202.714256909091,156.555L1204.0737065468747,31.500000000000014L1212.796440306818,224.59500000000003L1215.2331460482953,44.10000000000001L1218.4143323636365,31.500000000000014L1218.9091430866476,31.500000000000014L1220.2219204829546,31.500000000000014L1221.7574098664772,31.500000000000014L1227.0031984417615,31.500000000000014L1228.0052331775569,317.835L1229.0536953451704,294.84000000000003L1229.3544296107953,241.92000000000002L1230.6078766661933,185.535L1233.1903953607955,31.500000000000014L1233.2766475639205,290.43L1233.9262643948864,122.53500000000003L1234.4295354517044,314.055L1235.4083132698863,321.615L1235.4310877684659,325.71000000000004L1236.4758777911932,164.74499999999998L1236.778736140625,160.02L1237.1577446946023,232.785L1241.5193095823863,31.500000000000014L1241.980775789773,321.93L1242.0500209218749,286.02L1243.644372627841,31.500000000000014L1243.7964930298297,181.44L1244.7067745454547,31.500000000000014L1245.7021058167613,92.61L1251.2716335653408,31.500000000000014L1253.5435464048296,31.500000000000014L1256.128700403409,31.500000000000014L1256.8875239431818,56.06999999999999L1257.749433950284,266.805L1259.4076593764205,291.375L1263.0170177855114,31.500000000000014L1270.1268303068182,161.91L1272.613722028409,31.500000000000014L1272.7641647642045,45.990000000000016L1274.5833957428977,286.965L1274.6521368551137,63.31499999999999L1275.2005248920455,252.00000000000003L1275.4043217329547,314.055L1276.9267714019886,31.500000000000014L1281.7448271008525,31.500000000000014L1282.0687894829546,31.500000000000014L1282.9179621874998,31.500000000000014L1293.7012516477273,31.500000000000014L1299.482496549716,114.66000000000001L1309.8089063835228,215.46000000000004L1313.3850930838069,231.21L1316.2799457017047,31.500000000000014L1317.7965919417616,31.500000000000014L1324.596237825284,161.595L1329.44457071875,31.500000000000014L1332.3541191164775,285.075L1332.9442039985795,31.500000000000014L1333.2665391164771,343.03499999999997L1333.804688349432,328.545L1340.0041401519886,70.55999999999999L1343.2713698622158,324.45000000000005L1343.925357265625,281.295L1347.914271450284,254.52L1350.4573541889206,31.500000000000014L1352.8669292599432,31.500000000000014L1356.6536594673296,31.500000000000014L1357.4009697528409,268.065L1359.6528442017045,31.500000000000014L1362.6466575241477,257.67L1364.2812444176138,319.40999999999997L1371.153649171875,31.500000000000014L1371.2322402727273,31.500000000000014" style="fill: none;" fill="none"></path></g></g></g></g></g></g><g transform="translate(72, 378)" clip-path="url(#clip_1)"><clipPath id="clip_1"><rect width="1425" height="22"></rect></clipPath><g><g><line x1="0" y1="0" x2="0" y2="5" style="visibility: inherit;" fill="rgb(0, 0, 0)" stroke="rgb(204, 204, 204)" stroke-width="1px"></line><line x1="129.60511363636363" y1="0" x2="129.60511363636363" y2="5" style="visibility: inherit;" fill="rgb(0, 0, 0)" stroke="rgb(204, 204, 204)" stroke-width="1px"></line><line x1="259.21022727272725" y1="0" x2="259.21022727272725" y2="5" style="visibility: inherit;" fill="rgb(0, 0, 0)" stroke="rgb(204, 204, 204)" stroke-width="1px"></line><line x1="388.8153409090909" y1="0" x2="388.8153409090909" y2="5" style="visibility: inherit;" fill="rgb(0, 0, 0)" stroke="rgb(204, 204, 204)" stroke-width="1px"></line><line x1="518.4204545454545" y1="0" x2="518.4204545454545" y2="5" style="visibility: inherit;" fill="rgb(0, 0, 0)" stroke="rgb(204, 204, 204)" stroke-width="1px"></line><line x1="648.0255681818181" y1="0" x2="648.0255681818181" y2="5" style="visibility: inherit;" fill="rgb(0, 0, 0)" stroke="rgb(204, 204, 204)" stroke-width="1px"></line><line x1="777.6306818181818" y1="0" x2="777.6306818181818" y2="5" style="visibility: inherit;" fill="rgb(0, 0, 0)" stroke="rgb(204, 204, 204)" stroke-width="1px"></line><line x1="907.2357954545455" y1="0" x2="907.2357954545455" y2="5" style="visibility: inherit;" fill="rgb(0, 0, 0)" stroke="rgb(204, 204, 204)" stroke-width="1px"></line><line x1="1036.840909090909" y1="0" x2="1036.840909090909" y2="5" style="visibility: inherit;" fill="rgb(0, 0, 0)" stroke="rgb(204, 204, 204)" stroke-width="1px"></line><line x1="1166.4460227272727" y1="0" x2="1166.4460227272727" y2="5" style="visibility: inherit;" fill="rgb(0, 0, 0)" stroke="rgb(204, 204, 204)" stroke-width="1px"></line><line x1="1296.0511363636363" y1="0" x2="1296.0511363636363" y2="5" style="visibility: inherit;" fill="rgb(0, 0, 0)" stroke="rgb(204, 204, 204)" stroke-width="1px"></line><line x1="1425.65625" y1="0" x2="1425.65625" y2="5" style="visibility: inherit;" fill="rgb(0, 0, 0)" stroke="rgb(204, 204, 204)" stroke-width="1px"></line></g><g transform="translate(0, 8)"><text x="0" y="0" dx="0em" dy="0.95em" style="text-anchor: middle; visibility: hidden; font-family: Roboto, sans-serif; font-size: 12px; font-weight: 200;" fill="rgb(50, 49, 63)" stroke="none" stroke-width="1px">-5</text><text x="129.60511363636363" y="0" dx="0em" dy="0.95em" style="text-anchor: middle; visibility: inherit; font-family: Roboto, sans-serif; font-size: 12px; font-weight: 200;" fill="rgb(50, 49, 63)" stroke="none" stroke-width="1px">0</text><text x="259.21022727272725" y="0" dx="0em" dy="0.95em" style="text-anchor: middle; visibility: inherit; font-family: Roboto, sans-serif; font-size: 12px; font-weight: 200;" fill="rgb(50, 49, 63)" stroke="none" stroke-width="1px">5</text><text x="388.8153409090909" y="0" dx="0em" dy="0.95em" style="text-anchor: middle; visibility: inherit; font-family: Roboto, sans-serif; font-size: 12px; font-weight: 200;" fill="rgb(50, 49, 63)" stroke="none" stroke-width="1px">10</text><text x="518.4204545454545" y="0" dx="0em" dy="0.95em" style="text-anchor: middle; visibility: inherit; font-family: Roboto, sans-serif; font-size: 12px; font-weight: 200;" fill="rgb(50, 49, 63)" stroke="none" stroke-width="1px">15</text><text x="648.0255681818181" y="0" dx="0em" dy="0.95em" style="text-anchor: middle; visibility: inherit; font-family: Roboto, sans-serif; font-size: 12px; font-weight: 200;" fill="rgb(50, 49, 63)" stroke="none" stroke-width="1px">20</text><text x="777.6306818181818" y="0" dx="0em" dy="0.95em" style="text-anchor: middle; visibility: inherit; font-family: Roboto, sans-serif; font-size: 12px; font-weight: 200;" fill="rgb(50, 49, 63)" stroke="none" stroke-width="1px">25</text><text x="907.2357954545455" y="0" dx="0em" dy="0.95em" style="text-anchor: middle; visibility: inherit; font-family: Roboto, sans-serif; font-size: 12px; font-weight: 200;" fill="rgb(50, 49, 63)" stroke="none" stroke-width="1px">30</text><text x="1036.840909090909" y="0" dx="0em" dy="0.95em" style="text-anchor: middle; visibility: inherit; font-family: Roboto, sans-serif; font-size: 12px; font-weight: 200;" fill="rgb(50, 49, 63)" stroke="none" stroke-width="1px">35</text><text x="1166.4460227272727" y="0" dx="0em" dy="0.95em" style="text-anchor: middle; visibility: inherit; font-family: Roboto, sans-serif; font-size: 12px; font-weight: 200;" fill="rgb(50, 49, 63)" stroke="none" stroke-width="1px">40</text><text x="1296.0511363636363" y="0" dx="0em" dy="0.95em" style="text-anchor: middle; visibility: inherit; font-family: Roboto, sans-serif; font-size: 12px; font-weight: 200;" fill="rgb(50, 49, 63)" stroke="none" stroke-width="1px">45</text><text x="1425.65625" y="0" dx="0em" dy="0.95em" style="text-anchor: middle; visibility: hidden; font-family: Roboto, sans-serif; font-size: 12px; font-weight: 200;" fill="rgb(50, 49, 63)" stroke="none" stroke-width="1px">50</text></g><line x1="0" y1="0" x2="1425.65625" y2="0" fill="rgb(0, 0, 0)" stroke="rgb(204, 204, 204)" stroke-width="1px"></line></g></g></g></g></svg>