<svg viewBox="0 0 1498 400" xmlns="http://www.w3.org/2000/svg"><g><g><g><g><g><line x1="41.171875" y1="378" x2="36.171875" y2="378" style="visibility: inherit;" fill="rgb(0, 0, 0)" stroke="rgb(204, 204, 204)" stroke-width="1px"></line><line x1="41.171875" y1="346.5" x2="36.171875" y2="346.5" style="visibility: inherit;" fill="rgb(0, 0, 0)" stroke="rgb(204, 204, 204)" stroke-width="1px"></line><line x1="41.171875" y1="315" x2="36.171875" y2="315" style="visibility: inherit;" fill="rgb(0, 0, 0)" stroke="rgb(204, 204, 204)" stroke-width="1px"></line><line x1="41.171875" y1="283.5" x2="36.171875" y2="283.5" style="visibility: inherit;" fill="rgb(0, 0, 0)" stroke="rgb(204, 204, 204)" stroke-width="1px"></line><line x1="41.171875" y1="252.00000000000003" x2="36.171875" y2="252.00000000000003" style="visibility: inherit;" fill="rgb(0, 0, 0)" stroke="rgb(204, 204, 204)" stroke-width="1px"></line><line x1="41.171875" y1="220.49999999999997" x2="36.171875" y2="220.49999999999997" style="visibility: inherit;" fill="rgb(0, 0, 0)" stroke="rgb(204, 204, 204)" stroke-width="1px"></line><line x1="41.171875" y1="189" x2="36.171875" y2="189" style="visibility: inherit;" fill="rgb(0, 0, 0)" stroke="rgb(204, 204, 204)" stroke-width="1px"></line><line x1="41.171875" y1="157.5" x2="36.171875" y2="157.5" style="visibility: inherit;" fill="rgb(0, 0, 0)" stroke="rgb(204, 204, 204)" stroke-width="1px"></line><line x1="41.171875" y1="126.00000000000001" x2="36.171875" y2="126.00000000000001" style="visibility: inherit;" fill="rgb(0, 0, 0)" stroke="rgb(204, 204, 204)" stroke-width="1px"></line><line x1="41.171875" y1="94.5" x2="36.171875" y2="94.5" style="visibility: inherit;" fill="rgb(0, 0, 0)" stroke="rgb(204, 204, 204)" stroke-width="1px"></line><line x1="41.171875" y1="62.999999999999986" x2="36.171875" y2="62.999999999999986" style="visibility: inherit;" fill="rgb(0, 0, 0)" stroke="rgb(204, 204, 204)" stroke-width="1px"></line><line x1="41.171875" y1="31.500000000000014" x2="36.171875" y2="31.500000000000014" style="visibility: inherit;" fill="rgb(0, 0, 0)" stroke="rgb(204, 204, 204)" stroke-width="1px"></line><line x1="41.171875" y1="0" x2="36.171875" y2="0" style="visibility: inherit;" fill="rgb(0, 0, 0)" stroke="rgb(204, 204, 204)" stroke-width="1px"></line></g><g transform="translate(31.171875, 0)"><text x="0" y="378" dx="0em" dy="0.3em" style="text-anchor: end; visibility: hidden; font-family: Roboto, sans-serif; font-size: 12px; font-weight: 200;" fill="rgb(50, 49, 63)" stroke="none" stroke-width="1px">-20</text><text x="0" y="346.5" dx="0em" dy="0.3em" style="text-anchor: end; visibility: inherit; font-family: Roboto, sans-serif; font-size: 12px; font-weight: 200;" fill="rgb(50, 49, 63)" stroke="none" stroke-width="1px">0</text><text x="0" y="315" dx="0em" dy="0.3em" style="text-anchor: end; visibility: inherit; font-family: Roboto, sans-serif; font-size: 12px; font-weight: 200;" fill="rgb(50, 49, 63)" stroke="none" stroke-width="1px">20</text><text x="0" y="283.5" dx="0em" dy="0.3em" style="text-anchor: end; visibility: inherit; font-family: Roboto, sans-serif; font-size: 12px; font-weight: 200;" fill="rgb(50, 49, 63)" stroke="none" stroke-width="1px">40</text><text x="0" y="252.00000000000003" dx="0em" dy="0.3em" style="text-anchor: end; visibility: inherit; font-family: Roboto, sans-serif; font-size: 12px; font-weight: 200;" fill="rgb(50, 49, 63)" stroke="none" stroke-width="1px">60</text><text x="0" y="220.49999999999997" dx="0em" dy="0.3em" style="text-anchor: end; visibility: inherit; font-family: Roboto, sans-serif; font-size: 12px; font-weight: 200;" fill="rgb(50, 49, 63)" stroke="none" stroke-width="1px">80</text><text x="0" y="189" dx="0em" dy="0.3em" style="text-anchor: end; visibility: inherit; font-family: Roboto, sans-serif; font-size: 12px; font-weight: 200;" fill="rgb(50, 49, 63)" stroke="none" stroke-width="1px">100</text><text x="0" y="157.5" dx="0em" dy="0.3em" style="text-anchor: end; visibility: inherit; font-family: Roboto, sans-serif; font-size: 12px; font-weight: 200;" fill="rgb(50, 49, 63)" stroke="none" stroke-width="1px">120</text><text x="0" y="126.00000000000001" dx="0em" dy="0.3em" style="text-anchor: end; visibility: inherit; font-family: Roboto, sans-serif; font-size: 12px; font-weight: 200;" fill="rgb(50, 49, 63)" stroke="none" stroke-width="1px">140</text><text x="0" y="94.5" dx="0em" dy="0.3em" style="text-anchor: end; visibility: inherit; font-family: Roboto, sans-serif; font-size: 12px; font-weight: 200;" fill="rgb(50, 49, 63)" stroke="none" stroke-width="1px">160</text><text x="0" y="62.999999999999986" dx="0em" dy="0.3em" style="text-anchor: end; visibility: inherit; font-family: Roboto, sans-serif; font-size: 12px; font-weight: 200;" fill="rgb(50, 49, 63)" stroke="none" stroke-width="1px">180</text><text x="0" y="31.500000000000014" dx="0em" dy="0.3em" style="text-anchor: end; visibility: inherit; font-family: Roboto, sans-serif; font-size: 12px; font-weight: 200;" fill="rgb(50, 49, 63)" stroke="none" stroke-width="1px">200</text><text x="0" y="0" dx="0em" dy="0.3em" style="text-anchor: end; visibility: hidden; font-family: Roboto, sans-serif; font-size: 12px; font-weight: 200;" fill="rgb(50, 49, 63)" stroke="none" stroke-width="1px">220</text></g><line x1="41.171875" y1="0" x2="41.171875" y2="378" fill="rgb(0, 0, 0)" stroke="rgb(204, 204, 204)" stroke-width="1px"></line></g></g><g transform="translate(41, 0)" clip-path="url(#clip_0)"><clipPath id="clip_0"><rect width="1456" height="378"></rect></clipPath><g><g><g><line x1="0" y1="0" x2="0" y2="378" fill="rgb(0, 0, 0)" stroke="rgb(60, 60, 60)" stroke-width="1px" opacity="0.25"></line><line x1="121.40234375" y1="0" x2="121.40234375" y2="378" fill="rgb(0, 0, 0)" stroke="rgb(60, 60, 60)" stroke-width="1px" opacity="0.25"></line><line x1="242.8046875" y1="0" x2="242.8046875" y2="378" fill="rgb(0, 0, 0)" stroke="rgb(60, 60, 60)" stroke-width="1px" opacity="0.25"></line><line x1="364.20703125" y1="0" x2="364.20703125" y2="378" fill="rgb(0, 0, 0)" stroke="rgb(60, 60, 60)" stroke-width="1px" opacity="0.25"></line><line x1="485.609375" y1="0" x2="485.609375" y2="378" fill="rgb(0, 0, 0)" stroke="rgb(60, 60, 60)" stroke-width="1px" opacity="0.25"></line><line x1="607.01171875" y1="0" x2="607.01171875" y2="378" fill="rgb(0, 0, 0)" stroke="rgb(60, 60, 60)" stroke-width="1px" opacity="0.25"></line><line x1="728.4140625" y1="0" x2="728.4140625" y2="378" fill="rgb(0, 0, 0)" stroke="rgb(60, 60, 60)" stroke-width="1px" opacity="0.25"></line><line x1="849.81640625" y1="0" x2="849.81640625" y2="378" fill="rgb(0, 0, 0)" stroke="rgb(60, 60, 60)" stroke-width="1px" opacity="0.25"></line><line x1="971.21875" y1="0" x2="971.21875" y2="378" fill="rgb(0, 0, 0)" stroke="rgb(60, 60, 60)" stroke-width="1px" opacity="0.25"></line><line x1="1092.62109375" y1="0" x2="1092.62109375" y2="378" fill="rgb(0, 0, 0)" stroke="rgb(60, 60, 60)" stroke-width="1px" opacity="0.25"></line><line x1="1214.0234375" y1="0" x2="1214.0234375" y2="378" fill="rgb(0, 0, 0)" stroke="rgb(60, 60, 60)" stroke-width="1px" opacity="0.25"></line><line x1="1335.42578125" y1="0" x2="1335.42578125" y2="378" fill="rgb(0, 0, 0)" stroke="rgb(60, 60, 60)" stroke-width="1px" opacity="0.25"></line><line x1="1456.828125" y1="0" x2="1456.828125" y2="378" fill="rgb(0, 0, 0)" stroke="rgb(60, 60, 60)" stroke-width="1px" opacity="0.25"></line></g><g><line x1="0" y1="378" x2="1456.828125" y2="378" fill="rgb(0, 0, 0)" stroke="rgb(60, 60, 60)" stroke-width="1px" opacity="0.25"></line><line x1="0" y1="346.5" x2="1456.828125" y2="346.5" fill="rgb(0, 0, 0)" stroke="rgb(60, 60, 60)" stroke-width="1px" opacity="0.25"></line><line x1="0" y1="315" x2="1456.828125" y2="315" fill="rgb(0, 0, 0)" stroke="rgb(60, 60, 60)" stroke-width="1px" opacity="0.25"></line><line x1="0" y1="283.5" x2="1456.828125" y2="283.5" fill="rgb(0, 0, 0)" stroke="rgb(60, 60, 60)" stroke-width="1px" opacity="0.25"></line><line x1="0" y1="252.00000000000003" x2="1456.828125" y2="252.00000000000003" fill="rgb(0, 0, 0)" stroke="rgb(60, 60, 60)" stroke-width="1px" opacity="0.25"></line><line x1="0" y1="220.49999999999997" x2="1456.828125" y2="220.49999999999997" fill="rgb(0, 0, 0)" stroke="rgb(60, 60, 60)" stroke-width="1px" opacity="0.25"></line><line x1="0" y1="189" x2="1456.828125" y2="189" fill="rgb(0, 0, 0)" stroke="rgb(60, 60, 60)" stroke-width="1px" opacity="0.25"></line><line x1="0" y1="157.5" x2="1456.828125" y2="157.5" fill="rgb(0, 0, 0)" stroke="rgb(60, 60, 60)" stroke-width="1px" opacity="0.25"></line><line x1="0" y1="126.00000000000001" x2="1456.828125" y2="126.00000000000001" fill="rgb(0, 0, 0)" stroke="rgb(60, 60, 60)" stroke-width="1px" opacity="0.25"></line><line x1="0" y1="94.5" x2="1456.828125" y2="94.5" fill="rgb(0, 0, 0)" stroke="rgb(60, 60, 60)" stroke-width="1px" opacity="0.25"></line><line x1="0" y1="62.999999999999986" x2="1456.828125" y2="62.999999999999986" fill="rgb(0, 0, 0)" stroke="rgb(60, 60, 60)" stroke-width="1px" opacity="0.25"></line><line x1="0" y1="31.500000000000014" x2="1456.828125" y2="31.500000000000014" fill="rgb(0, 0, 0)" stroke="rgb(60, 60, 60)" stroke-width="1px" opacity="0.25"></line><line x1="0" y1="0" x2="1456.828125" y2="0" fill="rgb(0, 0, 0)" stroke="rgb(60, 60, 60)" stroke-width="1px" opacity="0.25"></line></g></g></g><g><g><line x1="0" y1="346.5" x2="1456.828125" y2="346.5" fill="rgb(0, 0, 0)" stroke="rgb(153, 153, 153)" stroke-width="1.5px"></line></g></g><g><g><line x1="121.40234375" y1="0" x2="121.40234375" y2="378" fill="rgb(0, 0, 0)" stroke="rgb(153, 153, 153)" stroke-width="1.5px"></line></g></g><g><g><g><g><g><path stroke="rgb(238, 51, 119)" stroke-width="2px" d="M121.40234375,316.575L121.418699343533,323.38581081081077L121.63081621636285,306.65663265306125L121.86040153754341,309.27487839799164L122.52190941948784,313.79140227779453L123.16591513020832,306.11707198251406L123.20867573350695,310.1645351386598L123.45647140625,313.7594295272744L123.65489679253473,314.00160765706096L124.07902936957466,316.54138333158227L124.11029047309027,304.6307641904094L124.18721234700521,304.51608778901107L125.98841845377603,301.1988526715036L126.69734069552952,303.242834062899L127.1211360438368,306.9872494342163L127.20190232530382,298.58800931680884L127.75708198784724,299.45049216433284L127.91477014322916,292.67836820236516L128.20370772135416,286.7801578330055L128.74981593098957,288.23450393084136L128.85826869140624,282.6141628232289L129.64846305772568,276.43139772224816L129.8715735872396,271.7092867254699L129.9774634092882,273.51441639526075L130.4117128483073,272.394239344044L132.28801979383684,271.2077593131676L132.93634203233506,270.2041248387113L133.65140183702258,261.2362913986245L134.30926764865453,264.3677095703119L135.3540022623698,268.4499537587745L136.4533342078993,262.16167399649714L137.14940803493923,268.94356296876254L137.18360302842882,272.08675829184125L137.33066847873263,274.0427860014575L137.3750815028212,281.39250283548716L138.0486621733941,278.39249357164823L138.1181312923177,281.5287916948108L138.74294868815105,287.50690328593913L139.15028727430555,287.3781402154934L139.9466529264323,293.6571020754195L140.5405801703559,291.4219325508316L140.79586232096355,286.6847508712722L141.04052176649304,292.11830123825274L142.648394640842,291.0609768875071L144.40471560329863,288.2712207614052L144.46511326931426,278.80892638511347L146.07517813042534,282.11292864593804L146.451862624783,284.21184856890227L146.60894376844618,285.75935975312575L147.21915916015627,283.2934764690166L147.5397962391493,279.0708934414423L147.75353180989583,275.2456920180503L149.24850050455728,271.0493260022156L150.26888720377602,275.7526532532949L151.70844921766493,278.33259383697293L151.95314238606773,281.70683114916244L152.45783890733506,287.64636963635536L152.52342989583335,288.44197831144646L152.96324360894099,285.3379689273347L153.78095583984373,283.17214747571745L155.37945375542535,281.80375762697406L156.31870322157118,279.2230854138274L156.6331352918837,276.7932857131544L156.66284514322916,276.3817803482136L156.78232528320314,277.4495408829538L157.23205352105035,269.61568771245544L157.23785385525173,278.07724250506476L157.4205306597222,278.181907789999L157.51556171657987,278.5071260076215L158.12186525499132,275.23976965048627L158.45875675889758,276.2425639742863L161.0348133246528,276.6224325244134L162.02373658311632,279.30783655138396L166.32161561197918,284.66169310681187L167.6388984874132,280.7074190273574L167.70658029405382,277.5825426627609L168.94950423394098,276.1076558431385L170.25285956271702,273.9090005986194L171.56161055121527,278.655163110776L171.85543794596356,275.83813228637723L171.89539955078126,273.6799083031427L171.90517918402776,278.9329306233377L173.00838925998264,282.2167455812842L176.54163586046008,280.7554820225469L179.41705037217884,273.6071525608096L179.46257625108507,271.07482752119296L180.52413857855902,273.17485491241183L181.96133999131942,271.88862588453674L183.11867527886287,272.68533241832534L183.53228631944447,266.275029707302L183.6857928385417,268.85877622703214L185.80267876193577,271.99996080138146L186.3176270366754,269.9449661204223L186.93627314670138,264.1819698656792L188.08197404296874,268.26092518999553L189.39753705186632,265.82178600275023L191.47719292317706,274.8522693886511L192.15364003797745,278.51192942344704L192.24040899088544,276.18888977085714L194.06741309570313,275.8680562771631L194.10019172851563,279.1390980788077L195.8452492513021,276.7219832142202L197.5836970909288,268.5249352917282L197.93927106662326,262.26619471217356L198.40171282769094,261.9075154914258L201.0699002832031,264.6738882589796L201.16803384440107,258.04780483431716L201.34207759331596,253.124383991812L203.53939256944443,253.4282263991964L203.8181121169705,256.521492492589L204.54392951822916,259.38701866064804L204.79317527452258,257.57021583894465L205.5742307421875,260.0421834892475L206.97305552517363,270.4121060590855L208.4795911653646,265.2877901110654L208.50744625868055,272.508371641305L209.59807770290797,272.97586589769026L210.17187239149303,262.7419859650111L212.3823392881945,260.1856880600626L214.5775971690538,260.84783485329825L214.8540910069444,271.33315965552197L216.08952846896702,268.90568570124714L218.6095376193576,265.8973328397959L221.21564126519095,269.0102329193361L222.14710074761282,264.8049479751092L224.01693290147568,257.9229557700425L224.3486310828993,264.3582624115309L225.03809522677952,260.6145230463424L225.16833296332462,264.992344592829L225.88956405381944,268.47724290623086L226.34050631510416,266.2419064690279L227.60363025607637,263.63312049741563L228.0248963888889,257.87190242044153L230.5669602983941,255.33736705649216L230.79620839084203,255.30926199801002L232.37514703993054,250.3241226970535L232.70488929470488,250.10300429244813L232.8591377170139,245.4263036477303L233.18500184136286,243.57735810028484L234.6357935720486,237.9895043845078L235.20179827690973,237.4923287267761L236.64314760308162,245.10222941848227L240.0778896907552,242.35689500548833L241.40738024631077,233.40836075405122L242.07377794487843,230.05460664074795L243.4240755132378,230.03891564463498L244.37769092339408,244.43682829854635L244.4386281553819,246.7525540538473L244.74914837239578,250.37467094588044L245.55748564453123,241.87722030377853L248.27254789388024,242.92313725823476L250.91631998914932,248.53716666960443L251.59303688693578,248.82034166916833L254.2938343608941,242.68229041871018L254.4850093294271,245.96994685594137L255.52950788302954,227.02945482736538L257.73545591471355,231.01128660329357L259.41185366753473,232.9783436128134L260.54696558159725,233.94159207089717L261.206854765625,237.5953532602812L262.7471132790798,235.976050271232L262.93333098524306,249.7196427305978L262.9955834092882,252.42419632101658L263.37675304578994,250.47056687285885L264.15409899739586,247.86498184192416L268.67869690321186,259.82523456565855L270.36497545789933,255.34394938080243L270.99866196940104,265.4736069736961L271.30685530815975,261.5625659276371L272.304310453559,254.93068103848486L277.01826229275173,253.78232888271117L278.893388937717,254.459979550305L282.03258376410594,254.090982617759L283.1226756423611,252.59608522509436L286.53408150173607,246.1279224413273L287.46675500759545,251.26123407513018L287.62083481553816,246.174548963859L287.9401567024739,233.58211661927675L290.67639691623265,222.16979912638254L290.76370543511285,225.22682925742578L291.7454119986979,229.95155486881268L292.0450734505209,231.368821638491L295.0360225260417,238.0072483927181L296.2676493033854,231.3649111338097L298.2298821299913,228.081424463738L302.00640553819443,235.44921079417787L304.0237415397135,223.04807917505036L304.94960302517364,232.11586729879332L305.05798833984375,234.38973720397442L305.8548935579427,234.90502662337826L306.0384134342448,227.07427262987127L308.020239250217,230.57688173539069L308.25764827799486,216.30784947508175L310.13860898003475,213.62917205381945L317.6663299186198,203.55604624574633L319.81491534288193,191.6863893088842L321.09672175564236,175.9271809125514L324.1557235894097,178.83310377566872L325.47631130642367,178.2318882093184L328.4829415180122,186.22585497792068L328.6574236642795,185.93322673123262L329.08691817816845,192.06324272154777L331.5215747363281,188.29625631331555L332.65213406249995,178.0068178663182L333.55206265842014,170.6782951863704L334.2924820638021,179.56905090841488L340.0114766948785,174.36869327215263L342.4024958550347,152.4658892813297L348.28126945963544,160.07225588913028L349.45175666775174,153.78016750576072L357.0322201801215,153.39314237989655L357.40219382269964,172.6729210229121L362.0094802137587,182.4457328694753L362.1929663671875,182.247622939054L363.06133035373267,192.2379794981959L365.49696487521703,199.78478257346652L367.3570511187066,193.67831518744654L371.2859007454427,186.12531790932954L373.0081616059028,172.61777022293003L373.6678147298177,173.89385468949052L374.4578742046441,184.66477648606698L376.2466702940538,184.84256001315694L378.4352173231337,179.7961760111834L378.45754186523436,191.8079996095059L379.4177669585503,198.23804966808L380.8257643630642,179.133592217868L381.7769854492188,182.7398033851878L382.19420483723957,173.04758287740964L384.6522987923177,176.1491954457982L384.80745773220485,181.38431612892845L386.0458628070747,175.6754187095892L386.31267818033854,162.7903559031508L387.4290401768663,155.14555251767817L387.6698552148437,153.13621964002644L387.76397575412324,158.5157866940225L389.7838409711371,150.56716868991913L393.3860845703125,155.38709338643122L394.3152171744792,169.64277937846654L394.67284824544265,140.18011247169656L397.3587064865451,147.7393456009421L397.50927911566845,147.54969376080078L400.38347960394964,134.3947396966807L406.88204589626736,140.45927874217858L409.10559726779513,145.37788693085182L410.17508447048607,126.169953891224L411.6314067523872,131.1057108075404L412.05037972981773,145.22360418640935L412.7399113194445,153.44381355844794L413.64968699435764,166.8097415246808L417.48977801866323,163.52328029597862L418.6293413519965,155.29603825158182L419.1942332020399,159.40663251384458L422.57488380099824,139.98438763676785L428.1251966200087,149.22672949125266L433.1511862055122,145.50647006756478L433.3447217751736,145.65174955743004L435.1055278797743,145.0664871238155L437.09956137586806,148.5852640552432L442.70022244466145,156.30122444695672L443.9244639127604,133.56479077991324L444.0945620855034,152.0388221629262L444.9302823307292,135.84799883848729L447.1116463878038,144.5295490127142L450.0123193315972,167.9738666608071L450.18170932400176,159.31528666168606L450.9156202148438,157.3892436624331L456.01755371093753,151.97210711306812L458.85546838758677,157.52629104610793L469.3316813042535,151.6160973891917L470.71172244683163,136.90618278081294L476.0952082118055,146.13775536369104L479.8491035720486,129.65084205913737L483.46797254774305,128.15821575026678L487.47482318033866,133.74073338772675L488.2726726388888,141.32087337956776L489.51347203776044,144.2202423726326L490.57247142686634,150.46470601673772L491.20015526692714,159.31625011422707L492.11428119249126,156.44506259709297L495.14296616319444,164.16330320752903L497.4369308940972,169.30630772639967L499.5375961154515,167.29911156743972L505.3370535221355,165.82924483232375L508.30679091037325,160.79985810747516L508.6350830815972,153.45362939135387L509.7315823057726,155.71433498265077L513.9534162554253,129.0496847352532L516.6504367675782,107.56598202496517L519.3774031911893,98.04608472122037L520.5762513357204,95.38792201303735L523.2934718489583,106.83098371108171L523.4625583355034,88.68008615441946L528.3007452398003,104.20057323125654L530.1976568608941,112.66798724656803L531.9357337489148,96.9490391595828L533.8025982899305,109.33918328564539L538.5994409516059,125.5408057927986L539.722749860026,102.22093492387881L543.9356809711372,118.30904468529697L551.5960676931423,132.45643798250242L555.1461757302518,134.79547228512706L555.5285931130642,142.689901442358L556.2913370605469,81.5964162260043L557.1484038845487,108.57445379210364L557.8640707009549,118.9845357232881L558.1974213031683,119.32810536479488L561.2256004307726,121.27388956007565L564.0699224533421,132.3778061260643L566.6806124099393,119.60863520715468L570.210048325738,119.62233992608152L574.1649657335068,126.9577389371693L574.4444946299913,137.4453280965939L575.9763224251302,147.54102888210483L576.4172827159289,140.05737454978913L576.9298029437934,128.97126836732076L581.7361891786026,127.10807811222266L582.2115130772569,110.40436639538926L582.4357364615886,98.33246143608086L583.5849782595486,115.47634222066876L587.3751594314235,116.58239088756841L588.7376984027778,84.21128225443319L595.8924443630642,97.80333991626821L598.9901937782117,92.81908892882804L601.5094273025173,77.00622558950384L604.2991857161458,75.1415417510783L609.6595038671876,88.20406048841653L613.196325092231,105.68595141515407L621.2173779437935,107.78805870288095L621.3191872981771,112.6460998974488L622.8044100824652,121.97293491283148L624.4629009895833,135.57074467590675L627.9097833116319,103.42263297452071L635.3244314561632,118.38548802834264L636.8233457269965,102.28141482409121L637.3037617795139,119.7779526004775L640.1199589257812,117.16750971040588L647.5734220974392,129.35988325384497L648.1280284711371,132.6359007657682L652.8950938357204,134.71176565090295L653.8788237717014,128.9162508032675L660.6889894129773,132.73131318277743L664.7187378765192,130.7766162053608L666.0972952126737,95.80387377455666L667.0656812413193,106.71204270837322L669.5677161002604,94.24898630211726L671.574766625434,94.28663835679971L675.6230963921441,104.71364260327972L679.9039453700087,114.99409621278775L684.1144484342448,123.96873178086959L686.1593697460938,105.13717201373915L692.2201119748265,107.79409621167827L692.2895473708768,101.31123177992654L694.2120546527779,105.48704701293754L694.952642672526,101.00398996099689L697.0193152376303,120.34589146684742L704.1376404947918,118.83150774682031L705.3714255360243,122.74178158479727L707.253499092882,104.56676434707771L713.0020349609375,111.7979996950161L714.874632390408,95.7370497407637L715.9988855392795,98.15024227964918L716.0934107530381,103.27270593770179L717.3381220052083,110.69805004704654L717.4014535611979,108.50459253998957L717.5556008148872,108.05765365899119L718.5175794976128,107.91400561014252L720.5703919618056,110.39065476862112L722.4863232834201,106.58955655332798L724.8446987022569,114.69862307032881L725.5076566677517,115.21257960977944L730.5390756358507,135.73069266831254L731.471344467231,134.0348387680657L733.1966066634116,140.38961295285583L733.6466384071181,136.34117100992745L735.3689667133247,140.4599953584384L741.2482461610242,126.4784960546726L752.954838108724,124.51672164647172L754.3890719086372,120.72296339950096L754.9456004861111,119.15201888957579L756.8175571809895,122.54171605613944L759.0469088867188,112.19295864771851L759.7330007432727,97.4902648505607L763.8070947851562,94.4429751229766L771.5224497905816,90.90777885453014L774.9339230957031,93.33661202635064L780.1548308886719,116.66362022239801L780.1706469162326,141.9253271890383L786.2453166916232,150.6402781106826L792.7496158723958,122.1379863940802L793.2342810069446,113.03103843496817L797.3310368196614,137.65638266972297L801.3721836143663,151.02792526926456L802.179138248698,138.29623647887485L803.925173734809,93.92680100704362L804.9733480815972,111.02278085598708L806.1105170909289,125.79061372758902L810.5096996310764,100.77952166845063L813.7810543977865,82.82759341818303L817.1693938118489,73.23845440545551L820.0499342003038,82.33393624463723L832.9723706206597,101.64134580794162L833.7248965375435,120.17889393675037L834.7284892458767,137.3533098462378L834.9629981065539,138.01281336930214L839.6465319140624,127.23339136390686L840.2079503081598,140.98713265932085L840.609758343099,155.2765627604227L842.6093223904081,161.9888283463593L842.9946399403211,156.35425409440543L843.2617588194444,158.65236598024464L845.3436066775174,168.8745110832079L846.3259202528211,160.78958442072675L847.4015450184462,167.14739675761768L850.7564987879775,172.55153724397502L851.943105529514,143.8338066573788L853.8671977864584,149.42748565877199L855.0784222254774,147.80336280995616L856.8838774142794,153.51035838846278L857.7398313834634,166.39380463019336L857.9583893250867,178.52598393566436L858.0397288953993,186.9483363453147L860.7427183561199,183.7123358935175L860.7698652690972,192.0654855094899L862.5593695388454,198.22066268306642L863.9548894802517,193.2938132806064L865.1120898763021,193.35849128851544L865.2565249424913,171.91471759523816L865.4270277897135,179.4387599559524L868.5019468196615,189.14169596255957L869.0056991004774,148.48544156817564L871.1413686642795,137.31637533294926L873.3434722884115,141.52516903300688L875.1422503483072,137.54264367805584L876.8657252322049,136.75624712634746L877.4875750151909,140.10406005739534L877.5337079058158,143.42220104878604L878.4099630447049,158.29137089146812L879.0229437120225,166.91391525774793L883.8365466417101,174.2430779690857L884.6500435134549,176.69286627372287L887.2570913997397,185.86268633266445L887.3700967480469,181.6082833827648L887.4402403244359,164.28954087535007L888.7626153537327,179.80860974404754L889.705001047092,156.85356828244048L894.3790250043403,172.77928304007438L897.108385751953,186.3161405840632L897.4696926161024,197.34996949645372L899.6565197786458,211.92622407198567L901.3287696180555,220.7722904611878L901.8925148904079,222.1489468920096L903.8697881184896,229.93410485820817L903.9225981380208,232.29898912947695L904.0328382107205,231.94664076005537L905.6381481467015,234.71839464604707L906.0548616916232,236.83813544914005L907.8537071972656,241.238665131769L908.8543322927518,238.8366153620037L912.8445575488281,240.10237305770315L914.0250604503038,241.17826709904767L914.0419893326824,247.0540270341905L915.8845396820748,240.23592297906194L916.1172275075955,218.84803453220266L916.9647844813368,231.14457935237226L917.7825304351129,222.22414244951642L918.0604406336806,217.00427108208893L923.0587437402344,211.85863041977564L930.6119591710069,200.6335858568093L931.0481645366754,196.9985479782879L932.2499128483073,189.42001578154472L933.2518194129774,200.224513414313L933.8922504991319,208.93583640216602L934.9325674164497,199.09421094184114L938.8842137055121,200.88757930056497L940.1822070974392,192.48944240548022L941.7508939930556,172.59352604465818L944.3404734309896,189.22949713795944L948.5591711534288,199.1175725672655L951.0396908192275,207.7586866821757L954.3534015147569,196.43988367984934L954.4322793153212,203.59265112787196L958.544851155599,211.09000345869117L958.6428161024306,215.80900293988748L959.9221944683161,216.74890249890436L960.211772781033,206.44406712406868L960.4524192046441,224.61745705545843L961.2867905349392,223.76358849713966L961.5419715169271,227.29030022256873L962.2869772330728,229.8155051891834L963.3742701128472,231.4894294108059L963.949042764757,234.093514999185L965.4235753982205,229.69198774930726L966.1445704286025,231.85693958691118L966.6675110243056,233.4608986488745L967.931545482856,236.7142638515433L970.443697203776,238.53462427381183L971.7273920974393,243.38943063274007L973.7230442914496,243.73601603782905L973.9495945540365,246.3931136321547L974.4992099424912,248.88789658733148L976.0579823133681,250.29971209923175L977.2023680175781,247.956005284347L979.546546106771,249.74385449169495L982.8129098882376,249.60977631794066L983.6911546766491,249.9683098702496L984.3624759147136,253.34431338971217L986.2821167523872,254.32391638125537L987.3943645583767,253.50282892406707L987.4434987847222,254.22240458545699L988.3839285514323,252.47154389763844L988.9174581293402,253.34581231299262L990.4252415158421,251.96269046604374L993.5455178103299,251.49578689613722L995.0978828352866,250.39016886171663L996.8790238324652,251.57664353245912L997.3881380501302,253.53014700259024L997.5749964908854,253.5368749522017L1000.9964517664932,264.88259370937146L1001.4592644791668,262.9502046529657L1002.2431189453124,262.7251739550209L1003.7173143500432,272.2201478617677L1004.6177487890624,266.3521256825026L1006.6741696006944,261.1280568301272L1008.5523650271268,261.4125983056081L1009.1936729079861,258.81945855976693L1009.5245954633245,258.26903977580184L1009.7609590820313,250.94993380943157L1011.8864443381077,252.99744373801684L1013.5107065288629,248.5953271773143L1016.8686279112413,244.14477810071716L1017.3259100726996,246.97681138560958L1019.4413459125434,241.11528967776815L1021.8215737532552,227.15549622610294L1024.3034760568578,232.06342179218746L1025.1815859537762,240.72390852335937L1025.6321235405815,246.19532224485548L1027.75174101671,225.5672739081271L1032.8483462988283,204.01718282190805L1033.9404615494793,197.51210539862186L1034.5931340386285,184.1865395888286L1035.601582840712,162.22855865050423L1039.9728428417968,131.04302485292862L1040.0755289908857,100.75532112498934L1041.1287617686633,105.25077295624094L1048.816059343533,116.15940701280479L1049.3150904220922,122.5967459608841L1052.4453149641927,143.1884840667515L1054.0387544487849,159.51021145673874L1058.6857663845485,177.16367973822798L1061.5405087749564,186.49912777749378L1061.5661718815104,195.14300861086969L1062.244844705946,215.24780731923926L1062.2926974631075,221.9418862213534L1064.5253540104165,224.79685328815037L1068.383183266059,228.8773252949278L1070.2659987261286,206.12197650068862L1070.4256428081596,214.65743002558534L1070.5853206130641,220.73131552174755L1070.7280020898438,209.82911819348544L1070.7502254633246,217.09975046446257L1073.2681775184462,213.82978789479318L1074.6672383615453,224.51656971057423L1078.1812629242622,231.47408425398808L1079.7424296191407,235.97047161588983L1082.4064354383681,235.5399008735064L1082.6368975542534,237.30016574248043L1082.8710354633247,228.63764088110835L1083.2576007595485,234.9769947489421L1084.8925193782552,241.5466955366008L1085.9078813693575,231.30219120611065L1088.1105920052084,237.7143625251941L1090.1042545496962,243.63720814641496L1090.1800635687935,234.49662692445273L1090.9677624424914,229.7983828857848L1091.373718390842,220.84362545291708L1098.024408564453,219.84708163497953L1098.6603207855903,219.7087693897326L1099.642769252387,228.80495398127272L1100.7988230707467,239.13546088408182L1102.2730859212238,243.90014175146953L1102.5263446994359,249.13137048874913L1104.9823478363714,240.34791491543672L1105.6441255013021,246.82072767812122L1106.327047407769,254.92136852640309L1112.9481626215277,254.95566324744257L1114.8247730729165,260.6548137603262L1115.5390909743926,242.3465916962773L1116.2459561208766,255.13460294183568L1116.6425371104601,260.8069125005603L1117.1790005783419,258.3046256254763L1117.4842263042535,254.76018178165484L1117.670612624783,258.3624045144066L1118.427522515191,260.4792938372456L1119.8668821918402,262.7511497616588L1121.0669106369357,268.22597729741L1126.6864227918838,243.11208070279847L1126.8898391634116,242.79151859737865L1127.140771063368,241.8102908077719L1128.4040298958334,246.17374718660608L1128.4897197167968,238.30643510861518L1128.949126419271,238.47046984232293L1129.7391184483506,243.33489936597448L1130.1042359971786,239.90966446107828L1133.0431844021268,240.77821479191653L1134.582464952257,241.51648257312905L1134.6179076920573,236.4740101871597L1135.3742105707463,244.94540865908579L1138.5534681705728,251.20109736022286L1138.679760330946,245.65093275618943L1139.286232483724,245.658292842761L1140.3701530761718,210.93579891634687L1140.7170602734375,208.11792907889483L1142.959125502387,207.37648971706062L1144.076667799479,218.5587662595015L1145.0920297905816,207.9824513205763L1146.349825517578,219.54633362248984L1147.3948299142796,218.9806335791164L1150.5479860101998,214.9560385422489L1150.7464113964843,212.24388276091156L1150.8699720041234,221.51480034677482L1153.596500030382,226.3238302947586L1154.5916957432726,225.68650575054485L1156.6662257378473,234.83102988796313L1156.9317259190539,248.98262540476867L1157.3220344542099,260.06648159405336L1158.2823607161458,253.65900935494537L1164.0059753808594,260.2614079517036L1165.2678178526473,264.692196758948L1167.9407939561631,267.0408672451058L1171.4421724414062,260.76848715834L1172.3309050434027,250.47571408458893L1174.0909692447917,256.6106069719006L1176.8098759016927,264.8965159261155L1177.2667196657987,258.4732885371982L1177.9851517578127,263.64479525661847L1178.8413417871093,268.0405759681257L1179.7862229730904,273.9032395729069L1179.8585922591146,281.95775363697084L1179.996923485243,284.3153405914252L1180.845930542535,290.80803950271144L1180.9582951562497,292.3105835773047L1182.1835145876735,273.506496040709L1182.5119416503908,276.65927163460265L1185.2970125846355,257.3678808894123L1185.4367264485677,267.9026987560004L1185.9487745562067,270.47854394260037L1186.534608310547,251.1692623512103L1187.6235873339845,259.32637299852877L1188.7743803841147,267.44116704874943L1189.7655293522134,276.70124199143703L1191.0166479503039,279.3748056927215L1191.4978396289064,279.99358483881326L1191.7355184396702,283.8270471129913L1192.8441578982204,286.61299004604257L1192.9403692556423,288.0360415391362L1193.7426701334637,290.8993853082658L1194.7005009027778,279.15822751202586L1195.4962932660592,284.298243385222L1197.603467001953,279.9260068774387L1197.7568386295573,273.61085584582287L1197.884344813368,277.6929774689495L1199.5302233658854,282.58028084860706L1199.7834821440972,286.025738721316L1200.1625272395834,286.8281279131186L1202.0831123177084,272.3901587261508L1202.148399800347,262.0078849172282L1202.646891312934,269.95670217964397L1202.697003502604,275.29569685269735L1204.0611274490016,276.2900923247928L1205.2734310199653,280.20657847607384L1205.8010253721789,287.7880917046628L1205.872484140625,289.74362794896336L1205.903273123915,289.51583375661886L1206.3263602918837,291.920958693126L1208.7095220225694,293.72906488915714L1210.5619868967015,277.3109551557835L1210.6819728797743,284.854311882416L1212.070006343316,268.34991510005364L1212.1504691189236,271.09492783504555L1212.33196562283,272.01068865978874L1212.6482524511719,274.4428353608205L1213.0752851953127,276.2739100566974L1214.1210314952257,281.37407354819277L1214.3692318424478,280.03921251596387L1215.0277721115451,260.0045806385693L1215.7375711480036,267.30889354278395L1216.8713004242622,248.23880951136633L1217.5525699099392,260.61548808466137L1217.7900801063367,267.3556648719622L1217.8869321983507,271.19481514116785L1218.5042968391926,274.22184286999266L1219.4560912141928,251.27981643949374L1219.5272127539063,259.18409397356965L1220.1525359928385,266.61147987753424L1221.9703337532553,271.97975789590413L1222.6701508192275,277.48779421151846L1222.6751755273438,285.2408750797907L1222.9528159429253,283.7984938178221L1223.7041615592448,290.3687197451488L1225.1194768272571,296.4259117833765L1225.1325275792099,296.84952501587L1225.6672374576822,301.6983462634895L1226.1604344791667,301.33109432396606L1226.2532735492623,305.50768017537115L1226.8770455360243,305.2777781490655L1227.7682736306424,309.0986114267057L1228.4680569737413,312.3463197126998L1228.9620633441841,308.72812175579486L1230.3813916341146,283.44515349242556L1232.7334271527777,266.67963046856175L1233.4722278602428,272.2739358982775L1233.8965290516492,280.80909551353585L1234.6872629839409,284.0477311865055L1235.6557501812065,286.0918215085297L1235.6892032714843,290.4280482822502L1237.0045639431426,278.2850910399127L1237.3428718077255,285.91857738392576L1237.416286502821,292.4070407763369L1237.6161619726563,297.68598465988634L1237.6664427766925,289.6518369609034L1237.7669369390192,292.27281141676787L1239.3656371918403,295.9181397042527L1239.3871523849828,300.67041874861485L1240.7718135611979,302.3473559363226L1240.8126182378473,302.5915025458742L1241.3436523231337,301.85402716399307L1243.8845022092016,302.1721730893941L1243.9693826812065,301.970097125985L1244.879697922092,301.3258325570872L1244.936183734809,302.6682076735242L1246.550329063585,302.8642265224955L1246.9580723242188,300.43209254412125L1248.2486466840278,301.19977866250304L1248.4870673980035,305.39606186312756L1249.921739595269,307.07290258365845L1250.6877883843317,306.37196719610967L1250.8586621831596,306.01242211669324L1251.068148671875,305.23430879918925L1251.3267356640627,281.1841624793108L1251.5601653927952,263.81278810741424L1252.1054642534723,273.3808698913021L1252.4660292144097,277.02498940760677L1252.541602173394,284.61124099646577L1255.9578978493923,288.6970548469959L1256.979802077908,266.65499661994653L1257.3899733854169,267.76424712695456L1257.6909500292968,272.48711005791137L1258.8516576041666,277.2102935492247L1259.5116816796874,280.75249951684094L1259.548136105686,281.8733745893148L1259.6702466297743,282.1173684009176L1259.7391761827257,283.97851314077997L1260.0539117588976,290.04923616966295L1260.8418804155815,295.6818507442135L1262.6792374424913,296.6895731325815L1264.1358295073785,297.78238716269425L1264.6383677647568,296.1125290882901L1266.6417424967447,294.6931497250466L1266.789482404514,289.4704272662896L1267.0164373415798,285.2673631763462L1269.12718570204,285.94725869989423L1269.5399873936633,287.47016989491016L1270.3369263346353,289.47339441067356L1272.904585904948,292.5936352490725L1273.1198727278647,297.8445899617117L1273.6407562282986,298.5279014674549L1274.6006778157553,299.1087162473367L1277.583331064453,292.04240881023617L1278.9714994194878,286.7447974887007L1279.9792400412327,282.95057786539564L1280.1769235243055,285.86799118558633L1281.1164090505642,287.1665425077484L1281.5759843674045,293.2315611315861L1282.6023737380642,298.38682696184816L1282.8261587250433,297.098802917571L1282.9541033062064,296.9489824799353L1283.4478736165365,286.190385107945L1284.5994422927517,286.25932734175325L1285.4130403331164,285.84542824049026L1285.4345218033855,282.65861400441673L1286.3055836197916,285.8560719037542L1286.5507826312935,286.9201611181911L1287.1783990256076,283.0996369504624L1287.2264878428819,290.0109414078931L1288.2516631901042,286.43555019670913L1290.0489574435765,286.70396766720273L1290.3367484440105,290.00337251712233L1290.3532389290365,289.264116639554L1292.310312156033,291.4707491436209L1293.630528921441,297.36263677207774L1294.5376404893664,302.1344912562661L1294.6828849045137,297.4493175678262L1298.217244359809,298.90066993265225L1298.73954422092,295.6455694427544L1299.730929249132,300.9112340263413L1300.078139952257,298.29954892239004L1300.7678064333768,302.93086658403155L1302.10967328342,301.66998659642684L1302.2276696169706,305.0869886069628L1302.5164723036025,304.9201903159184L1302.5887066981336,304.06966176853064L1302.7953604654947,303.81921250325104L1303.4958519889324,302.6613306277634L1303.9419381564671,306.6383810335989L1306.5634194325087,305.53012387855904L1307.4121904296876,302.9343552967752L1309.2340012120226,296.0029520022589L1310.8587355230036,295.7812592019201L1311.0614099913196,293.9390703216321L1311.333823361545,299.46070977338724L1311.6381385698785,298.24785330737916L1312.8687873838976,298.6344253112723L1312.972350327691,297.30926151458146L1313.0412461577691,297.8366222873942L1313.0874464941405,302.3011289442851L1313.5851623806423,299.95345960264234L1313.6159850868055,299.139190662246L1313.7993026258682,302.93581206290906L1313.9015841004775,302.3829402534727L1314.8225557693142,299.78674921545183L1318.1177188845486,297.81623683313404L1318.2355466037327,296.1413013081639L1319.3281676974827,296.8438561119394L1319.714901608073,295.55102769514843L1321.169301686198,300.59462354087617L1321.6690746679687,289.76168000974474L1322.668081065538,295.43742800828306L1323.6613882975262,295.5368138070406L1323.9063849717884,300.58254173598453L1325.1050645019532,298.0201604755868L1325.9690782378473,298.9133864042488L1326.2223370160589,296.60137844361145L1326.5965597406685,299.59742167706975L1326.899795817057,297.6553084255093L1327.1633737944878,302.3832621616829L1328.989433658854,302.8582728374305L1329.084498438585,300.89953191181587L1329.87516492513,302.3058521250435L1330.2165752940539,302.31997430628695L1331.9912752224393,300.4419781603439L1332.0577430056424,304.5156814362923L1332.259743016493,308.2145792208485L1333.4736990082463,308.0511423377212L1333.7839157194012,307.439720987063L1333.9052168945311,307.1562628390036L1334.099426921658,307.62407341315304L1334.802784889323,307.5492124011801L1336.0462146723091,306.3043305410031L1336.8788661360677,303.3561809598526L1337.0654547938368,304.8665038158747L1337.475963330078,306.85902824349347L1337.6871696853298,304.3001740069695L1337.8208471549478,300.9438979059241L1338.0541082693142,301.87106322003547L1339.4478071755643,305.73040373703014L1340.282279674479,304.75834317647565L1341.5814533669704,307.71209170000424L1343.0313683029515,306.4427779450036L1343.4885492957899,304.41886125325306L1343.9108608376737,304.82478206526514L1344.1495850575086,303.27981475547534L1344.590140673828,307.16409254215404L1347.575356860894,296.0544786608309L1347.78443867513,296.5338068617063L1349.4982350944013,297.64998583245034L1350.138059168837,299.54373795758283L1350.6419800640192,300.2084272639454L1351.054107298177,296.0484131743536L1351.3756211718749,296.29240119820054L1351.6585898014323,301.6972910184704L1351.9180198654515,302.7476973656999L1351.9944358962673,306.7117927608449L1352.086533063151,310.5537738467182L1352.0974929969618,310.27570776971044L1352.7281107269966,310.03935160425385L1353.1049301128471,307.2396988636158L1353.18461726237,296.35499403407346L1353.3823681911892,301.2779949289624L1353.7143361555989,300.501295689618L1353.8497672146266,292.75360133617534L1353.9620306597224,292.546811135749L1354.352811315104,293.7885394653867L1355.2625195442708,291.0640085455787L1355.8344931976997,296.7806572637419L1355.8719255870226,296.9148086741806L1355.994272171224,296.32008737305347L1356.851878561198,295.3420742670955L1356.903643171658,300.1807631270312L1357.1779787456596,304.7661486579765L1357.268254877387,306.77372635928003L1358.3129894911026,305.408917405388L1358.4019841536458,308.97382979457984L1358.8801744965276,309.87775532539285L1359.5384112597656,304.50359202658393L1360.0284720540365,301.3530532225963L1360.0625658789063,305.2900952392069L1360.7476797721354,306.9828309533259L1361.9881419422743,307.004156310327L1362.4290347873264,304.65978286377793L1363.0459273079427,303.6120654342112L1363.0625189615887,300.5952556190795L1363.1162057758247,301.10221727621763L1363.6916528851998,305.07688468478494L1364.6182899967448,308.6916019820672L1364.8541477723525,311.5278616847571L1365.4359010590276,313.93868243204355L1365.622388548177,311.26288006723706L1367.2942674359808,314.1859480571515L1367.6370604427084,306.74805584857876L1368.3601800141057,300.89834747129197L1368.8936421462674,305.13984535059814L1371.2078743240018,305.43761854800846L1371.321014563802,305.45447576580716L1371.5316813530817,309.2488044009361L1371.8893461469186,310.1114837407957L1371.9169989029947,307.5372611796763L1373.5688126812065,302.2779220027249L1374.035570970052,306.07623370231613L1374.685882858073,305.0522986469687L1375.459789076606,303.94570384992346L1375.5845637076823,307.2575982724349L1377.1790148784723,310.5452085315697L1377.640444953342,312.39467725183425L1378.0288987304687,311.3679756640591L1378.602996924913,308.60527931445023L1380.6460297558594,307.2019874172827L1380.778762985026,304.8279393046903L1381.1171045724827,307.77124840898676L1381.5921924110244,306.0205611476387L1382.0351423513455,309.4937269754929L1382.7169176801215,308.19341792916896L1382.8327220269098,306.6156552397936L1383.2031340668402,305.9833069538246L1384.7198202918837,309.4620609107509L1384.9779688867188,307.69400177413826L1385.3409618945313,303.8286515080175L1385.824649065755,304.3231037818149L1386.0370694444446,304.50713821454264L1387.1988561512585,303.24606748236124L1387.3021155891927,307.3716573600071L1387.7659737109375,310.642158756006L1389.1963631032986,309.6420849426051L1389.671282327474,311.1545222012143L1390.3715377907986,313.6213438710322L1395.1247767773439,312.4106422903774L1395.4170191970486,306.18404594682073L1397.2462152886283,300.8914390547977L1397.8348480414495,297.810223196578L1398.4885996625433,302.5149397170913L1398.5797525889755,301.7889487595276L1398.877019716797,300.93560644559847L1399.2391696527777,301.39151547875866L1399.2627756640625,295.87278815694486L1400.4508324891492,296.37936993340315L1401.1321019748264,297.7549644433927L1401.8032883213975,296.3254697768838L1401.9038162065972,290.85789931035123L1402.2553097146267,296.60546441379853L1402.8816783626303,297.2383947517288L1402.9473030740016,292.5788855389694L1403.1187501616753,297.832052708124L1403.3255725434028,297.09974480190544L1403.6171405056423,301.9110330816196L1403.7413418478732,297.7318781193767L1404.135562236328,302.2120964014702L1404.220274093967,301.29528194124964L1404.3775575748698,300.04348965006216L1405.7396581488715,300.16071620255286L1405.8664224294705,296.71660877216993L1405.9634431358506,293.7891174563444L1406.4243673676215,295.7894998378928L1406.4595403244357,301.03357486220887L1406.6244788975696,305.4910386328775L1406.8812785774742,301.9561328379459L1408.2671200542534,301.313962912254L1408.792387528212,305.49311847541594L1409.2892266200085,302.9029007041035L1409.4851565136719,301.646215598488L1409.6403828993055,305.7755332587148L1409.9629421820746,305.5054532699076L1410.7903666004775,300.31463527942145L1412.295688217231,299.4461899875082L1412.8006882443576,301.543011489382L1412.8327586968317,302.61655976597467L1413.2419857638888,303.0565758010785L1413.25439578125,302.7218394309167L1413.3500338498263,306.6898135162792L1413.452585107422,304.8650914888373L1413.7508301985679,304.0228277655117L1414.2461180381945,308.031903600685L1414.2724556022135,311.6758680605822L1414.3418572753906,314.7732378514949L1415.2467094108074,317.1697521737707L1415.8824867404514,319.206789347705L1416.8712751074218,320.9382709455493L1417.2654954958768,322.8825303037169L1417.5194624544272,324.06265075815935L1417.6355365842014,325.53825314443543L1418.2231239279515,326.55626517277017L1418.580114264323,326.9490753968546" style="fill: none;" fill="none"></path></g></g></g></g><g opacity="0.2"><g><g><g><path stroke="rgb(238, 51, 119)" stroke-width="2px" d="M121.40234375,316.575L121.418699343533,329.175L121.63081621636285,280.35L121.86040153754341,315L122.52190941948784,326.02500000000003L123.16591513020832,281.925L123.20867573350695,324.45000000000005L123.45647140625,327.6L123.65489679253473,315L124.07902936957466,327.6L124.11029047309027,250.42499999999998L124.18721234700521,303.975L125.98841845377603,285.075L126.69734069552952,313.42499999999995L127.1211360438368,326.02500000000003L127.20190232530382,255.15L127.75708198784724,303.975L127.91477014322916,256.725L128.20370772135416,255.15L128.74981593098957,296.1L128.85826869140624,252.00000000000003L129.64846305772568,242.54999999999998L129.8715735872396,245.70000000000002L129.9774634092882,283.5L130.4117128483073,266.17499999999995L132.28801979383684,264.59999999999997L132.93634203233506,264.59999999999997L133.65140183702258,211.05L134.30926764865453,281.925L135.3540022623698,291.375L136.4533342078993,226.79999999999998L137.14940803493923,307.125L137.18360302842882,289.79999999999995L137.33066847873263,285.075L137.3750815028212,322.875L138.0486621733941,261.45L138.1181312923177,299.25L138.74294868815105,321.3L139.15028727430555,286.65L139.9466529264323,329.175L140.5405801703559,278.77500000000003L140.79586232096355,259.875L141.04052176649304,322.875L142.648394640842,285.075L144.40471560329863,272.475L144.46511326931426,225.225L146.07517813042534,300.82500000000005L146.451862624783,296.1L146.60894376844618,294.525L147.21915916015627,269.325L147.5397962391493,255.15L147.75353180989583,253.57500000000002L149.24850050455728,247.275L150.26888720377602,302.40000000000003L151.70844921766493,292.95L151.95314238606773,300.82500000000005L152.45783890733506,321.3L152.52342989583335,292.95L152.96324360894099,267.75L153.78095583984373,270.9L155.37945375542535,274.05L156.31870322157118,264.59999999999997L156.6331352918837,263.025L156.66284514322916,274.05L156.78232528320314,283.5L157.23205352105035,225.225L157.23785385525173,326.02500000000003L157.4205306597222,278.77500000000003L157.51556171657987,280.35L158.12186525499132,256.725L158.45875675889758,281.925L161.0348133246528,278.77500000000003L162.02373658311632,294.525L166.32161561197918,315L167.6388984874132,258.3L167.70658029405382,259.875L168.94950423394098,267.75L170.25285956271702,261.45L171.56161055121527,305.55L171.85543794596356,259.875L171.89539955078126,261.45L171.90517918402776,308.7L173.00838925998264,300.82500000000005L176.54163586046008,272.475L179.41705037217884,233.10000000000002L179.46257625108507,256.725L180.52413857855902,285.075L181.96133999131942,264.59999999999997L183.11867527886287,277.20000000000005L183.53228631944447,229.95000000000002L183.6857928385417,283.5L185.80267876193577,289.79999999999995L186.3176270366754,258.3L186.93627314670138,231.525L188.08197404296874,291.375L189.39753705186632,252.00000000000003L191.47719292317706,326.02500000000003L192.15364003797745,299.25L192.24040899088544,263.025L194.06741309570313,274.05L194.10019172851563,297.675L195.8452492513021,263.025L197.5836970909288,222.07500000000002L197.93927106662326,226.79999999999998L198.40171282769094,259.875L201.0699002832031,280.35L201.16803384440107,220.49999999999997L201.34207759331596,225.225L203.53939256944443,255.15L203.8181121169705,274.05L204.54392951822916,275.625L204.79317527452258,247.275L205.5742307421875,274.05L206.97305552517363,329.175L208.4795911653646,236.25L208.50744625868055,313.42499999999995L209.59807770290797,275.625L210.17187239149303,204.75000000000003L212.3823392881945,245.70000000000002L214.5775971690538,264.59999999999997L214.8540910069444,330.75L216.08952846896702,255.15L218.6095376193576,248.85L221.21564126519095,286.65L222.14710074761282,240.975L224.01693290147568,218.92499999999998L224.3486310828993,300.82500000000005L225.03809522677952,239.39999999999998L225.16833296332462,289.79999999999995L225.88956405381944,288.22499999999997L226.34050631510416,253.57500000000002L227.60363025607637,248.85L228.0248963888889,225.225L230.5669602983941,240.975L230.79620839084203,255.15L232.37514703993054,222.07500000000002L232.70488929470488,248.85L232.8591377170139,218.92499999999998L233.18500184136286,233.10000000000002L234.6357935720486,206.32500000000002L235.20179827690973,234.675L236.64314760308162,288.22499999999997L240.0778896907552,226.79999999999998L241.40738024631077,182.7L242.07377794487843,211.05L243.4240755132378,229.95000000000002L244.37769092339408,326.02500000000003L244.4386281553819,259.875L244.74914837239578,270.9L245.55748564453123,193.725L248.27254789388024,248.85L250.91631998914932,280.35L251.59303688693578,250.42499999999998L254.2938343608941,207.9L254.4850093294271,264.59999999999997L255.52950788302954,119.69999999999999L257.73545591471355,253.57500000000002L259.41185366753473,244.12499999999997L260.54696558159725,239.39999999999998L261.206854765625,258.3L262.7471132790798,226.79999999999998L262.93333098524306,327.6L262.9955834092882,267.75L263.37675304578994,239.39999999999998L264.15409899739586,233.10000000000002L268.67869690321186,327.6L270.36497545789933,229.95000000000002L270.99866196940104,322.875L271.30685530815975,239.39999999999998L272.304310453559,217.35L277.01826229275173,247.275L278.893388937717,258.3L282.03258376410594,252.00000000000003L283.1226756423611,244.12499999999997L286.53408150173607,209.47500000000002L287.46675500759545,280.35L287.62083481553816,217.35L287.9401567024739,162.22500000000002L290.67639691623265,157.5L290.76370543511285,242.54999999999998L291.7454119986979,256.725L292.0450734505209,239.39999999999998L295.0360225260417,275.625L296.2676493033854,193.725L298.2298821299913,209.47500000000002L302.00640553819443,277.20000000000005L304.0237415397135,152.775L304.94960302517364,283.5L305.05798833984375,247.275L305.8548935579427,237.825L306.0384134342448,182.7L308.020239250217,250.42499999999998L308.25764827799486,135.45L310.13860898003475,198.45000000000002L317.6663299186198,146.475L319.81491534288193,124.42500000000003L321.09672175564236,86.62499999999999L324.1557235894097,195.29999999999998L325.47631130642367,174.82500000000002L328.4829415180122,231.525L328.6574236642795,184.275L329.08691817816845,226.79999999999998L331.5215747363281,166.95L332.65213406249995,119.69999999999999L333.55206265842014,129.15L334.2924820638021,229.95000000000002L340.0114766948785,144.89999999999998L342.4024958550347,28.349999999999984L348.28126945963544,203.17499999999998L349.45175666775174,118.125L357.0322201801215,151.20000000000002L357.40219382269964,281.925L362.0094802137587,237.825L362.1929663671875,181.125L363.06133035373267,248.85L365.49696487521703,242.54999999999998L367.3570511187066,159.075L371.2859007454427,143.325L373.0081616059028,96.07499999999999L373.6678147298177,181.125L374.4578742046441,245.70000000000002L376.2466702940538,185.85000000000002L378.4352173231337,151.20000000000002L378.45754186523436,259.875L379.4177669585503,234.675L380.8257643630642,70.875L381.7769854492188,203.17499999999998L382.19420483723957,118.125L384.6522987923177,193.725L384.80745773220485,211.05L386.0458628070747,143.325L386.31267818033854,89.77500000000002L387.4290401768663,111.82499999999997L387.6698552148437,141.75L387.76397575412324,189L389.7838409711371,105.525L393.3860845703125,182.7L394.3152171744792,250.42499999999998L394.67284824544265,-26.774999999999988L397.3587064865451,190.575L397.50927911566845,146.475L400.38347960394964,59.849999999999994L406.88204589626736,174.82500000000002L409.10559726779513,173.25L410.17508447048607,17.32499999999998L411.6314067523872,159.075L412.05037972981773,225.225L412.7399113194445,200.025L413.64968699435764,242.54999999999998L417.48977801866323,144.89999999999998L418.6293413519965,108.675L419.1942332020399,182.7L422.57488380099824,29.92500000000002L428.1251966200087,201.6L433.1511862055122,124.42500000000003L433.3447217751736,146.475L435.1055278797743,141.75L437.09956137586806,168.52499999999998L442.70022244466145,200.025L443.9244639127604,4.724999999999984L444.0945620855034,256.725L444.9302823307292,44.10000000000001L447.1116463878038,193.725L450.0123193315972,300.82500000000005L450.18170932400176,110.24999999999999L450.9156202148438,146.475L456.01755371093753,121.27499999999999L458.85546838758677,189L469.3316813042535,118.125L470.71172244683163,53.55000000000002L476.0952082118055,198.45000000000002L479.8491035720486,36.224999999999994L483.46797254774305,119.69999999999999L487.47482318033866,165.375L488.2726726388888,184.275L489.51347203776044,160.65L490.57247142686634,185.85000000000002L491.20015526692714,209.47500000000002L492.11428119249126,140.175L495.14296616319444,207.9L497.4369308940972,198.45000000000002L499.5375961154515,155.92499999999998L505.3370535221355,157.5L508.30679091037325,132.29999999999998L508.6350830815972,111.82499999999997L509.7315823057726,168.52499999999998L513.9534162554253,-22.050000000000004L516.6504367675782,-14.175000000000033L519.3774031911893,44.10000000000001L520.5762513357204,80.325L523.2934718489583,171.675L523.4625583355034,-14.175000000000033L528.3007452398003,192.14999999999998L530.1976568608941,160.65L531.9357337489148,7.875000000000014L533.8025982899305,179.54999999999998L538.5994409516059,217.35L539.722749860026,-29.924999999999976L543.9356809711372,209.47500000000002L551.5960676931423,212.625L555.1461757302518,148.05L555.5285931130642,187.425L556.2913370605469,-264.59999999999997L557.1484038845487,261.45L557.8640707009549,177.975L558.1974213031683,121.27499999999999L561.2256004307726,132.29999999999998L564.0699224533421,195.29999999999998L566.6806124099393,47.25L570.210048325738,119.69999999999999L574.1649657335068,168.52499999999998L574.4444946299913,196.87499999999997L575.9763224251302,204.75000000000003L576.4172827159289,97.64999999999999L576.9298029437934,66.15000000000002L581.7361891786026,116.55000000000001L582.2115130772569,15.749999999999986L582.4357364615886,29.92500000000002L583.5849782595486,212.625L587.3751594314235,122.84999999999998L588.7376984027778,-99.22499999999998L595.8924443630642,174.82500000000002L598.9901937782117,64.57499999999997L601.5094273025173,-12.600000000000039L604.2991857161458,64.57499999999997L609.6595038671876,162.22500000000002L613.196325092231,204.75000000000003L621.2173779437935,119.69999999999999L621.3191872981771,140.175L622.8044100824652,174.82500000000002L624.4629009895833,212.625L627.9097833116319,-78.74999999999997L635.3244314561632,203.17499999999998L636.8233457269965,11.025000000000002L637.3037617795139,218.92499999999998L640.1199589257812,102.37500000000001L647.5734220974392,198.45000000000002L648.1280284711371,151.20000000000002L652.8950938357204,146.475L653.8788237717014,96.07499999999999L660.6889894129773,154.35L664.7187378765192,119.69999999999999L666.0972952126737,-102.37499999999997L667.0656812413193,168.52499999999998L669.5677161002604,23.625L671.574766625434,94.5L675.6230963921441,163.8L679.9039453700087,173.25L684.1144484342448,174.82500000000002L686.1593697460938,-1.5749999999999944L692.2201119748265,122.84999999999998L692.2895473708768,64.57499999999997L694.2120546527779,129.15L694.952642672526,75.59999999999998L697.0193152376303,229.95000000000002L704.1376404947918,110.24999999999999L705.3714255360243,144.89999999999998L707.253499092882,1.5749999999999944L713.0020349609375,152.775L714.874632390408,4.724999999999984L715.9988855392795,111.82499999999997L716.0934107530381,132.29999999999998L717.3381220052083,152.775L717.4014535611979,96.07499999999999L717.5556008148872,105.525L718.5175794976128,107.1L720.5703919618056,124.42500000000003L722.4863232834201,85.05L724.8446987022569,160.65L725.5076566677517,118.125L730.5390756358507,252.00000000000003L731.471344467231,124.42500000000003L733.1966066634116,176.4L733.6466384071181,113.40000000000002L735.3689667133247,163.8L741.2482461610242,47.25L752.954838108724,113.40000000000002L754.3890719086372,99.22499999999998L754.9456004861111,110.24999999999999L756.8175571809895,141.75L759.0469088867188,53.55000000000002L759.7330007432727,14.174999999999992L763.8070947851562,77.17500000000003L771.5224497905816,70.875L774.9339230957031,107.1L780.1548308886719,248.85L780.1706469162326,285.075L786.2453166916232,200.025L792.7496158723958,-39.37500000000003L793.2342810069446,61.42499999999999L797.3310368196614,277.20000000000005L801.3721836143663,226.79999999999998L802.179138248698,66.15000000000002L803.925173734809,-157.50000000000003L804.9733480815972,207.9L806.1105170909289,209.47500000000002L810.5096996310764,-40.950000000000024L813.7810543977865,-18.900000000000016L817.1693938118489,18.900000000000016L820.0499342003038,133.875L832.9723706206597,211.05L833.7248965375435,225.225L834.7284892458767,234.675L834.9629981065539,141.75L839.6465319140624,66.15000000000002L840.2079503081598,218.92499999999998L840.609758343099,236.25L842.6093223904081,200.025L842.9946399403211,124.42500000000003L843.2617588194444,171.675L845.3436066775174,226.79999999999998L846.3259202528211,114.97500000000001L847.4015450184462,203.17499999999998L850.7564987879775,203.17499999999998L851.943105529514,-18.900000000000016L853.8671977864584,181.125L855.0784222254774,138.60000000000002L856.8838774142794,185.85000000000002L857.7398313834634,239.39999999999998L857.9583893250867,247.275L858.0397288953993,234.675L860.7427183561199,165.375L860.7698652690972,239.39999999999998L862.5593695388454,233.10000000000002L863.9548894802517,165.375L865.1120898763021,193.725L865.2565249424913,50.39999999999999L865.4270277897135,222.07500000000002L868.5019468196615,244.12499999999997L869.0056991004774,-81.89999999999996L871.1413686642795,74.02499999999999L873.3434722884115,165.375L875.1422503483072,114.97500000000001L876.8657252322049,132.29999999999998L877.4875750151909,159.075L877.5337079058158,162.22500000000002L878.4099630447049,242.54999999999998L879.0229437120225,215.77499999999998L883.8365466417101,215.77499999999998L884.6500435134549,190.575L887.2570913997397,237.825L887.3700967480469,157.5L887.4402403244359,66.15000000000002L888.7626153537327,267.75L889.705001047092,26.774999999999988L894.3790250043403,263.025L897.108385751953,263.025L897.4696926161024,259.875L899.6565197786458,294.525L901.3287696180555,270.9L901.8925148904079,229.95000000000002L903.8697881184896,274.05L903.9225981380208,245.70000000000002L904.0328382107205,229.95000000000002L905.6381481467015,250.42499999999998L906.0548616916232,248.85L907.8537071972656,266.17499999999995L908.8543322927518,225.225L912.8445575488281,247.275L914.0250604503038,247.275L914.0419893326824,280.35L915.8845396820748,201.6L916.1172275075955,97.64999999999999L916.9647844813368,300.82500000000005L917.7825304351129,171.675L918.0604406336806,187.425L923.0587437402344,182.7L930.6119591710069,137.025L931.0481645366754,176.4L932.2499128483073,146.475L933.2518194129774,261.45L933.8922504991319,258.3L934.9325674164497,143.325L938.8842137055121,211.05L940.1822070974392,144.89999999999998L941.7508939930556,59.849999999999994L944.3404734309896,283.5L948.5591711534288,255.15L951.0396908192275,256.725L954.3534015147569,132.29999999999998L954.4322793153212,244.12499999999997L958.544851155599,253.57500000000002L958.6428161024306,242.54999999999998L959.9221944683161,222.07500000000002L960.211772781033,148.05L960.4524192046441,327.6L961.2867905349392,218.92499999999998L961.5419715169271,247.275L962.2869772330728,244.12499999999997L963.3742701128472,240.975L963.949042764757,248.85L965.4235753982205,204.75000000000003L966.1445704286025,244.12499999999997L966.6675110243056,242.54999999999998L967.931545482856,255.15L970.443697203776,248.85L971.7273920974393,270.9L973.7230442914496,245.70000000000002L973.9495945540365,261.45L974.4992099424912,263.025L976.0579823133681,258.3L977.2023680175781,234.675L979.546546106771,259.875L982.8129098882376,248.85L983.6911546766491,252.00000000000003L984.3624759147136,272.475L986.2821167523872,259.875L987.3943645583767,248.85L987.4434987847222,258.3L988.3839285514323,242.54999999999998L988.9174581293402,258.3L990.4252415158421,244.12499999999997L993.5455178103299,248.85L995.0978828352866,244.12499999999997L996.8790238324652,258.3L997.3881380501302,264.59999999999997L997.5749964908854,253.57500000000002L1000.9964517664932,329.175L1001.4592644791668,252.00000000000003L1002.2431189453124,261.45L1003.7173143500432,326.02500000000003L1004.6177487890624,233.10000000000002L1006.6741696006944,231.525L1008.5523650271268,263.025L1009.1936729079861,244.12499999999997L1009.5245954633245,255.15L1009.7609590820313,209.47500000000002L1011.8864443381077,264.59999999999997L1013.5107065288629,223.65L1016.8686279112413,218.92499999999998L1017.3259100726996,263.025L1019.4413459125434,207.9L1021.8215737532552,148.05L1024.3034760568578,259.875L1025.1815859537762,289.79999999999995L1025.6321235405815,277.20000000000005L1027.75174101671,108.675L1032.8483462988283,81.9L1033.9404615494793,160.65L1034.5931340386285,108.675L1035.601582840712,37.79999999999999L1039.9728428417968,-45.675000000000004L1040.0755289908857,-70.875L1041.1287617686633,130.725L1048.816059343533,177.975L1049.3150904220922,159.075L1052.4453149641927,259.875L1054.0387544487849,252.00000000000003L1058.6857663845485,277.20000000000005L1061.5405087749564,239.39999999999998L1061.5661718815104,244.12499999999997L1062.244844705946,329.175L1062.2926974631075,259.875L1064.5253540104165,240.975L1068.383183266059,252.00000000000003L1070.2659987261286,77.17500000000003L1070.4256428081596,263.025L1070.5853206130641,255.15L1070.7280020898438,148.05L1070.7502254633246,258.3L1073.2681775184462,195.29999999999998L1074.6672383615453,285.075L1078.1812629242622,270.9L1079.7424296191407,261.45L1082.4064354383681,233.10000000000002L1082.6368975542534,247.275L1082.8710354633247,179.54999999999998L1083.2576007595485,270.9L1084.8925193782552,278.77500000000003L1085.9078813693575,173.25L1088.1105920052084,274.05L1090.1042545496962,277.20000000000005L1090.1800635687935,182.7L1090.9677624424914,203.17499999999998L1091.373718390842,170.1L1098.024408564453,214.2L1098.6603207855903,218.92499999999998L1099.642769252387,280.35L1100.7988230707467,297.675L1102.2730859212238,270.9L1102.5263446994359,278.77500000000003L1104.9823478363714,190.575L1105.6441255013021,283.5L1106.327047407769,300.82500000000005L1112.9481626215277,255.15L1114.8247730729165,292.95L1115.5390909743926,138.60000000000002L1116.2459561208766,327.6L1116.6425371104601,292.95L1117.1790005783419,244.12499999999997L1117.4842263042535,234.675L1117.670612624783,278.77500000000003L1118.427522515191,272.475L1119.8668821918402,275.625L1121.0669106369357,299.25L1126.6864227918838,100.80000000000003L1126.8898391634116,240.975L1127.140771063368,236.25L1128.4040298958334,270.9L1128.4897197167968,193.725L1128.949126419271,239.39999999999998L1129.7391184483506,270.9L1130.1042359971786,220.49999999999997L1133.0431844021268,245.70000000000002L1134.582464952257,245.70000000000002L1134.6179076920573,207.9L1135.3742105707463,292.95L1138.5534681705728,286.65L1138.679760330946,214.2L1139.286232483724,245.70000000000002L1140.3701530761718,14.174999999999992L1140.7170602734375,192.14999999999998L1142.959125502387,203.17499999999998L1144.076667799479,281.925L1145.0920297905816,148.05L1146.349825517578,285.075L1147.3948299142796,215.77499999999998L1150.5479860101998,192.14999999999998L1150.7464113964843,196.87499999999997L1150.8699720041234,274.05L1153.596500030382,253.57500000000002L1154.5916957432726,222.07500000000002L1156.6662257378473,286.65L1156.9317259190539,329.175L1157.3220344542099,322.875L1158.2823607161458,217.35L1164.0059753808594,297.675L1165.2678178526473,289.79999999999995L1167.9407939561631,280.35L1171.4421724414062,225.225L1172.3309050434027,192.14999999999998L1174.0909692447917,291.375L1176.8098759016927,311.84999999999997L1177.2667196657987,222.07500000000002L1177.9851517578127,292.95L1178.8413417871093,292.95L1179.7862229730904,307.125L1179.8585922591146,327.6L1179.996923485243,297.675L1180.845930542535,327.6L1180.9582951562497,300.82500000000005L1182.1835145876735,166.95L1182.5119416503908,294.525L1185.2970125846355,148.05L1185.4367264485677,327.6L1185.9487745562067,285.075L1186.534608310547,141.75L1187.6235873339845,305.55L1188.7743803841147,313.42499999999995L1189.7655293522134,329.175L1191.0166479503039,294.525L1191.4978396289064,283.5L1191.7355184396702,305.55L1192.8441578982204,302.40000000000003L1192.9403692556423,296.1L1193.7426701334637,307.125L1194.7005009027778,212.625L1195.4962932660592,313.42499999999995L1197.603467001953,255.15L1197.7568386295573,237.825L1197.884344813368,300.82500000000005L1199.5302233658854,310.275L1199.7834821440972,305.55L1200.1625272395834,291.375L1202.0831123177084,190.575L1202.148399800347,203.17499999999998L1202.646891312934,315L1202.697003502604,305.55L1204.0611274490016,281.925L1205.2734310199653,302.40000000000003L1205.8010253721789,330.75L1205.872484140625,300.82500000000005L1205.903273123915,288.22499999999997L1206.3263602918837,305.55L1208.7095220225694,303.975L1210.5619868967015,184.275L1210.6819728797743,327.6L1212.070006343316,174.82500000000002L1212.1504691189236,286.65L1212.33196562283,277.20000000000005L1212.6482524511719,288.22499999999997L1213.0752851953127,286.65L1214.1210314952257,310.275L1214.3692318424478,272.475L1215.0277721115451,146.475L1215.7375711480036,308.7L1216.8713004242622,140.175L1217.5525699099392,330.75L1217.7900801063367,305.55L1217.8869321983507,292.95L1218.5042968391926,291.375L1219.4560912141928,121.27499999999999L1219.5272127539063,303.975L1220.1525359928385,308.7L1221.9703337532553,302.40000000000003L1222.6701508192275,308.7L1222.6751755273438,329.175L1222.9528159429253,275.625L1223.7041615592448,327.6L1225.1194768272571,330.75L1225.1325275792099,299.25L1225.6672374576822,329.175L1226.1604344791667,299.25L1226.2532735492623,329.175L1226.8770455360243,303.975L1227.7682736306424,330.75L1228.4680569737413,330.75L1228.9620633441841,288.22499999999997L1230.3813916341146,140.175L1232.7334271527777,171.675L1233.4722278602428,303.975L1233.8965290516492,329.175L1234.6872629839409,302.40000000000003L1235.6557501812065,297.675L1235.6892032714843,315L1237.0045639431426,209.47500000000002L1237.3428718077255,329.175L1237.416286502821,329.175L1237.6161619726563,327.6L1237.6664427766925,244.12499999999997L1237.7669369390192,307.125L1239.3656371918403,316.575L1239.3871523849828,327.6L1240.7718135611979,311.84999999999997L1240.8126182378473,303.975L1241.3436523231337,297.675L1243.8845022092016,303.975L1243.9693826812065,300.82500000000005L1244.879697922092,297.675L1244.936183734809,310.275L1246.550329063585,303.975L1246.9580723242188,286.65L1248.2486466840278,305.55L1248.4870673980035,329.175L1249.921739595269,316.575L1250.6877883843317,302.40000000000003L1250.8586621831596,303.975L1251.068148671875,300.82500000000005L1251.3267356640627,144.89999999999998L1251.5601653927952,165.375L1252.1054642534723,327.6L1252.4660292144097,297.675L1252.541602173394,327.6L1255.9578978493923,311.84999999999997L1256.979802077908,141.75L1257.3899733854169,274.05L1257.6909500292968,299.25L1258.8516576041666,303.975L1259.5116816796874,300.82500000000005L1259.548136105686,288.22499999999997L1259.6702466297743,283.5L1259.7391761827257,294.525L1260.0539117588976,324.45000000000005L1260.8418804155815,327.6L1262.6792374424913,302.40000000000003L1264.1358295073785,303.975L1264.6383677647568,286.65L1266.6417424967447,286.65L1266.789482404514,259.875L1267.0164373415798,261.45L1269.12718570204,289.79999999999995L1269.5399873936633,296.1L1270.3369263346353,300.82500000000005L1272.904585904948,310.275L1273.1198727278647,327.6L1273.6407562282986,302.40000000000003L1274.6006778157553,302.40000000000003L1277.583331064453,252.00000000000003L1278.9714994194878,256.725L1279.9792400412327,261.45L1280.1769235243055,302.40000000000003L1281.1164090505642,294.525L1281.5759843674045,327.6L1282.6023737380642,327.6L1282.8261587250433,289.79999999999995L1282.9541033062064,296.1L1283.4478736165365,225.225L1284.5994422927517,286.65L1285.4130403331164,283.5L1285.4345218033855,264.59999999999997L1286.3055836197916,303.975L1286.5507826312935,292.95L1287.1783990256076,261.45L1287.2264878428819,329.175L1288.2516631901042,266.17499999999995L1290.0489574435765,288.22499999999997L1290.3367484440105,308.7L1290.3532389290365,285.075L1292.310312156033,303.975L1293.630528921441,330.75L1294.5376404893664,329.175L1294.6828849045137,270.9L1298.217244359809,307.125L1298.73954422092,277.20000000000005L1299.730929249132,330.75L1300.078139952257,283.5L1300.7678064333768,329.175L1302.10967328342,294.525L1302.2276696169706,324.45000000000005L1302.5164723036025,303.975L1302.5887066981336,299.25L1302.7953604654947,302.40000000000003L1303.4958519889324,296.1L1303.9419381564671,329.175L1306.5634194325087,299.25L1307.4121904296876,288.22499999999997L1309.2340012120226,256.725L1310.8587355230036,294.525L1311.0614099913196,283.5L1311.333823361545,330.75L1311.6381385698785,291.375L1312.8687873838976,300.82500000000005L1312.972350327691,289.79999999999995L1313.0412461577691,300.82500000000005L1313.0874464941405,327.6L1313.5851623806423,286.65L1313.6159850868055,294.525L1313.7993026258682,324.45000000000005L1313.9015841004775,299.25L1314.8225557693142,285.075L1318.1177188845486,286.65L1318.2355466037327,286.65L1319.3281676974827,300.82500000000005L1319.714901608073,288.22499999999997L1321.169301686198,329.175L1321.6690746679687,228.37500000000003L1322.668081065538,327.6L1323.6613882975262,296.1L1323.9063849717884,329.175L1325.1050645019532,283.5L1325.9690782378473,303.975L1326.2223370160589,283.5L1326.5965597406685,316.575L1326.899795817057,286.65L1327.1633737944878,329.175L1328.989433658854,305.55L1329.084498438585,289.79999999999995L1329.87516492513,310.275L1330.2165752940539,302.40000000000003L1331.9912752224393,289.79999999999995L1332.0577430056424,327.6L1332.259743016493,329.175L1333.4736990082463,307.125L1333.7839157194012,303.975L1333.9052168945311,305.55L1334.099426921658,310.275L1334.802784889323,307.125L1336.0462146723091,299.25L1336.8788661360677,286.65L1337.0654547938368,313.42499999999995L1337.475963330078,318.15L1337.6871696853298,289.79999999999995L1337.8208471549478,281.925L1338.0541082693142,307.125L1339.4478071755643,327.6L1340.282279674479,299.25L1341.5814533669704,324.45000000000005L1343.0313683029515,299.25L1343.4885492957899,292.95L1343.9108608376737,307.125L1344.1495850575086,294.525L1344.590140673828,329.175L1347.575356860894,233.10000000000002L1347.78443867513,299.25L1349.4982350944013,303.975L1350.138059168837,310.275L1350.6419800640192,303.975L1351.054107298177,272.475L1351.3756211718749,297.675L1351.6585898014323,332.325L1351.9180198654515,308.7L1351.9944358962673,329.175L1352.086533063151,332.325L1352.0974929969618,308.7L1352.7281107269966,308.7L1353.1049301128471,291.375L1353.18461726237,234.675L1353.3823681911892,329.175L1353.7143361555989,296.1L1353.8497672146266,248.85L1353.9620306597224,291.375L1354.352811315104,300.82500000000005L1355.2625195442708,275.625L1355.8344931976997,329.175L1355.8719255870226,297.675L1355.994272171224,292.95L1356.851878561198,289.79999999999995L1356.903643171658,327.6L1357.1779787456596,330.75L1357.268254877387,318.15L1358.3129894911026,297.675L1358.4019841536458,329.175L1358.8801744965276,315L1359.5384112597656,274.05L1360.0284720540365,283.5L1360.0625658789063,327.6L1360.7476797721354,316.575L1361.9881419422743,307.125L1362.4290347873264,291.375L1363.0459273079427,297.675L1363.0625189615887,283.5L1363.1162057758247,303.975L1363.6916528851998,327.6L1364.6182899967448,329.175L1364.8541477723525,327.6L1365.4359010590276,327.6L1365.622388548177,296.1L1367.2942674359808,330.75L1367.6370604427084,264.59999999999997L1368.3601800141057,267.75L1368.8936421462674,329.175L1371.2078743240018,307.125L1371.321014563802,305.55L1371.5316813530817,330.75L1371.8893461469186,315L1371.9169989029947,292.95L1373.5688126812065,272.475L1374.035570970052,327.6L1374.685882858073,299.25L1375.459789076606,297.675L1375.5845637076823,326.02500000000003L1377.1790148784723,329.175L1377.640444953342,322.875L1378.0288987304687,305.55L1378.602996924913,292.95L1380.6460297558594,299.25L1380.778762985026,291.375L1381.1171045724827,324.45000000000005L1381.5921924110244,296.1L1382.0351423513455,329.175L1382.7169176801215,300.82500000000005L1382.8327220269098,297.675L1383.2031340668402,302.40000000000003L1384.7198202918837,329.175L1384.9779688867188,297.675L1385.3409618945313,281.925L1385.824649065755,307.125L1386.0370694444446,305.55L1387.1988561512585,296.1L1387.3021155891927,330.75L1387.7659737109375,329.175L1389.1963631032986,303.975L1389.671282327474,319.725L1390.3715377907986,327.6L1395.1247767773439,305.55L1395.4170191970486,270.9L1397.2462152886283,270.9L1397.8348480414495,280.35L1398.4885996625433,329.175L1398.5797525889755,297.675L1398.877019716797,296.1L1399.2391696527777,303.975L1399.2627756640625,264.59999999999997L1400.4508324891492,299.25L1401.1321019748264,305.55L1401.8032883213975,288.22499999999997L1401.9038162065972,259.875L1402.2553097146267,329.175L1402.8816783626303,300.82500000000005L1402.9473030740016,266.17499999999995L1403.1187501616753,327.6L1403.3255725434028,292.95L1403.6171405056423,329.175L1403.7413418478732,274.05L1404.135562236328,327.6L1404.220274093967,296.1L1404.3775575748698,292.95L1405.7396581488715,300.82500000000005L1405.8664224294705,277.20000000000005L1405.9634431358506,277.20000000000005L1406.4243673676215,307.125L1406.4595403244357,330.75L1406.6244788975696,330.75L1406.8812785774742,281.925L1408.2671200542534,297.675L1408.792387528212,329.175L1409.2892266200085,288.22499999999997L1409.4851565136719,294.525L1409.6403828993055,329.175L1409.9629421820746,303.975L1410.7903666004775,270.9L1412.295688217231,294.525L1412.8006882443576,313.42499999999995L1412.8327586968317,308.7L1413.2419857638888,305.55L1413.25439578125,300.82500000000005L1413.3500338498263,329.175L1413.452585107422,294.525L1413.7508301985679,299.25L1414.2461180381945,330.75L1414.2724556022135,332.325L1414.3418572753906,332.325L1415.2467094108074,330.75L1415.8824867404514,330.75L1416.8712751074218,330.75L1417.2654954958768,333.9L1417.5194624544272,330.75L1417.6355365842014,333.9L1418.2231239279515,332.325L1418.580114264323,329.175" style="fill: none;" fill="none"></path></g></g></g></g></g></g><g transform="translate(41, 378)" clip-path="url(#clip_1)"><clipPath id="clip_1"><rect width="1456" height="22"></rect></clipPath><g><g><line x1="0" y1="0" x2="0" y2="5" style="visibility: inherit;" fill="rgb(0, 0, 0)" stroke="rgb(204, 204, 204)" stroke-width="1px"></line><line x1="121.40234375" y1="0" x2="121.40234375" y2="5" style="visibility: inherit;" fill="rgb(0, 0, 0)" stroke="rgb(204, 204, 204)" stroke-width="1px"></line><line x1="242.8046875" y1="0" x2="242.8046875" y2="5" style="visibility: inherit;" fill="rgb(0, 0, 0)" stroke="rgb(204, 204, 204)" stroke-width="1px"></line><line x1="364.20703125" y1="0" x2="364.20703125" y2="5" style="visibility: inherit;" fill="rgb(0, 0, 0)" stroke="rgb(204, 204, 204)" stroke-width="1px"></line><line x1="485.609375" y1="0" x2="485.609375" y2="5" style="visibility: inherit;" fill="rgb(0, 0, 0)" stroke="rgb(204, 204, 204)" stroke-width="1px"></line><line x1="607.01171875" y1="0" x2="607.01171875" y2="5" style="visibility: inherit;" fill="rgb(0, 0, 0)" stroke="rgb(204, 204, 204)" stroke-width="1px"></line><line x1="728.4140625" y1="0" x2="728.4140625" y2="5" style="visibility: inherit;" fill="rgb(0, 0, 0)" stroke="rgb(204, 204, 204)" stroke-width="1px"></line><line x1="849.81640625" y1="0" x2="849.81640625" y2="5" style="visibility: inherit;" fill="rgb(0, 0, 0)" stroke="rgb(204, 204, 204)" stroke-width="1px"></line><line x1="971.21875" y1="0" x2="971.21875" y2="5" style="visibility: inherit;" fill="rgb(0, 0, 0)" stroke="rgb(204, 204, 204)" stroke-width="1px"></line><line x1="1092.62109375" y1="0" x2="1092.62109375" y2="5" style="visibility: inherit;" fill="rgb(0, 0, 0)" stroke="rgb(204, 204, 204)" stroke-width="1px"></line><line x1="1214.0234375" y1="0" x2="1214.0234375" y2="5" style="visibility: inherit;" fill="rgb(0, 0, 0)" stroke="rgb(204, 204, 204)" stroke-width="1px"></line><line x1="1335.42578125" y1="0" x2="1335.42578125" y2="5" style="visibility: inherit;" fill="rgb(0, 0, 0)" stroke="rgb(204, 204, 204)" stroke-width="1px"></line><line x1="1456.828125" y1="0" x2="1456.828125" y2="5" style="visibility: inherit;" fill="rgb(0, 0, 0)" stroke="rgb(204, 204, 204)" stroke-width="1px"></line></g><g transform="translate(0, 8)"><text x="0" y="0" dx="0em" dy="0.95em" style="text-anchor: middle; visibility: hidden; font-family: Roboto, sans-serif; font-size: 12px; font-weight: 200;" fill="rgb(50, 49, 63)" stroke="none" stroke-width="1px">-1</text><text x="121.40234375" y="0" dx="0em" dy="0.95em" style="text-anchor: middle; visibility: inherit; font-family: Roboto, sans-serif; font-size: 12px; font-weight: 200;" fill="rgb(50, 49, 63)" stroke="none" stroke-width="1px">0</text><text x="242.8046875" y="0" dx="0em" dy="0.95em" style="text-anchor: middle; visibility: inherit; font-family: Roboto, sans-serif; font-size: 12px; font-weight: 200;" fill="rgb(50, 49, 63)" stroke="none" stroke-width="1px">1</text><text x="364.20703125" y="0" dx="0em" dy="0.95em" style="text-anchor: middle; visibility: inherit; font-family: Roboto, sans-serif; font-size: 12px; font-weight: 200;" fill="rgb(50, 49, 63)" stroke="none" stroke-width="1px">2</text><text x="485.609375" y="0" dx="0em" dy="0.95em" style="text-anchor: middle; visibility: inherit; font-family: Roboto, sans-serif; font-size: 12px; font-weight: 200;" fill="rgb(50, 49, 63)" stroke="none" stroke-width="1px">3</text><text x="607.01171875" y="0" dx="0em" dy="0.95em" style="text-anchor: middle; visibility: inherit; font-family: Roboto, sans-serif; font-size: 12px; font-weight: 200;" fill="rgb(50, 49, 63)" stroke="none" stroke-width="1px">4</text><text x="728.4140625" y="0" dx="0em" dy="0.95em" style="text-anchor: middle; visibility: inherit; font-family: Roboto, sans-serif; font-size: 12px; font-weight: 200;" fill="rgb(50, 49, 63)" stroke="none" stroke-width="1px">5</text><text x="849.81640625" y="0" dx="0em" dy="0.95em" style="text-anchor: middle; visibility: inherit; font-family: Roboto, sans-serif; font-size: 12px; font-weight: 200;" fill="rgb(50, 49, 63)" stroke="none" stroke-width="1px">6</text><text x="971.21875" y="0" dx="0em" dy="0.95em" style="text-anchor: middle; visibility: inherit; font-family: Roboto, sans-serif; font-size: 12px; font-weight: 200;" fill="rgb(50, 49, 63)" stroke="none" stroke-width="1px">7</text><text x="1092.62109375" y="0" dx="0em" dy="0.95em" style="text-anchor: middle; visibility: inherit; font-family: Roboto, sans-serif; font-size: 12px; font-weight: 200;" fill="rgb(50, 49, 63)" stroke="none" stroke-width="1px">8</text><text x="1214.0234375" y="0" dx="0em" dy="0.95em" style="text-anchor: middle; visibility: inherit; font-family: Roboto, sans-serif; font-size: 12px; font-weight: 200;" fill="rgb(50, 49, 63)" stroke="none" stroke-width="1px">9</text><text x="1335.42578125" y="0" dx="0em" dy="0.95em" style="text-anchor: middle; visibility: inherit; font-family: Roboto, sans-serif; font-size: 12px; font-weight: 200;" fill="rgb(50, 49, 63)" stroke="none" stroke-width="1px">10</text><text x="1456.828125" y="0" dx="0em" dy="0.95em" style="text-anchor: middle; visibility: hidden; font-family: Roboto, sans-serif; font-size: 12px; font-weight: 200;" fill="rgb(50, 49, 63)" stroke="none" stroke-width="1px">11</text></g><line x1="0" y1="0" x2="1456.828125" y2="0" fill="rgb(0, 0, 0)" stroke="rgb(204, 204, 204)" stroke-width="1px"></line></g></g></g></g></svg>