<svg viewBox="0 0 1498 400" xmlns="http://www.w3.org/2000/svg"><g><g><g><g><g><line x1="72.34375" y1="378" x2="67.34375" y2="378" style="visibility: inherit;" fill="rgb(0, 0, 0)" stroke="rgb(204, 204, 204)" stroke-width="1px"></line><line x1="72.34375" y1="348.92307692307696" x2="67.34375" y2="348.92307692307696" style="visibility: inherit;" fill="rgb(0, 0, 0)" stroke="rgb(204, 204, 204)" stroke-width="1px"></line><line x1="72.34375" y1="319.84615384615387" x2="67.34375" y2="319.84615384615387" style="visibility: inherit;" fill="rgb(0, 0, 0)" stroke="rgb(204, 204, 204)" stroke-width="1px"></line><line x1="72.34375" y1="290.7692307692307" x2="67.34375" y2="290.7692307692307" style="visibility: inherit;" fill="rgb(0, 0, 0)" stroke="rgb(204, 204, 204)" stroke-width="1px"></line><line x1="72.34375" y1="261.6923076923077" x2="67.34375" y2="261.6923076923077" style="visibility: inherit;" fill="rgb(0, 0, 0)" stroke="rgb(204, 204, 204)" stroke-width="1px"></line><line x1="72.34375" y1="232.61538461538464" x2="67.34375" y2="232.61538461538464" style="visibility: inherit;" fill="rgb(0, 0, 0)" stroke="rgb(204, 204, 204)" stroke-width="1px"></line><line x1="72.34375" y1="203.53846153846152" x2="67.34375" y2="203.53846153846152" style="visibility: inherit;" fill="rgb(0, 0, 0)" stroke="rgb(204, 204, 204)" stroke-width="1px"></line><line x1="72.34375" y1="174.46153846153848" x2="67.34375" y2="174.46153846153848" style="visibility: inherit;" fill="rgb(0, 0, 0)" stroke="rgb(204, 204, 204)" stroke-width="1px"></line><line x1="72.34375" y1="145.38461538461536" x2="67.34375" y2="145.38461538461536" style="visibility: inherit;" fill="rgb(0, 0, 0)" stroke="rgb(204, 204, 204)" stroke-width="1px"></line><line x1="72.34375" y1="116.30769230769232" x2="67.34375" y2="116.30769230769232" style="visibility: inherit;" fill="rgb(0, 0, 0)" stroke="rgb(204, 204, 204)" stroke-width="1px"></line><line x1="72.34375" y1="87.23076923076921" x2="67.34375" y2="87.23076923076921" style="visibility: inherit;" fill="rgb(0, 0, 0)" stroke="rgb(204, 204, 204)" stroke-width="1px"></line><line x1="72.34375" y1="58.15384615384616" x2="67.34375" y2="58.15384615384616" style="visibility: inherit;" fill="rgb(0, 0, 0)" stroke="rgb(204, 204, 204)" stroke-width="1px"></line><line x1="72.34375" y1="29.07692307692306" x2="67.34375" y2="29.07692307692306" style="visibility: inherit;" fill="rgb(0, 0, 0)" stroke="rgb(204, 204, 204)" stroke-width="1px"></line><line x1="72.34375" y1="0" x2="67.34375" y2="0" style="visibility: inherit;" fill="rgb(0, 0, 0)" stroke="rgb(204, 204, 204)" stroke-width="1px"></line></g><g transform="translate(62.34375, 0)"><text x="0" y="378" dx="0em" dy="0.3em" style="text-anchor: end; visibility: hidden; font-family: Roboto, sans-serif; font-size: 12px; font-weight: 200;" fill="rgb(50, 49, 63)" stroke="none" stroke-width="1px">-100</text><text x="0" y="348.92307692307696" dx="0em" dy="0.3em" style="text-anchor: end; visibility: inherit; font-family: Roboto, sans-serif; font-size: 12px; font-weight: 200;" fill="rgb(50, 49, 63)" stroke="none" stroke-width="1px">0</text><text x="0" y="319.84615384615387" dx="0em" dy="0.3em" style="text-anchor: end; visibility: inherit; font-family: Roboto, sans-serif; font-size: 12px; font-weight: 200;" fill="rgb(50, 49, 63)" stroke="none" stroke-width="1px">100</text><text x="0" y="290.7692307692307" dx="0em" dy="0.3em" style="text-anchor: end; visibility: inherit; font-family: Roboto, sans-serif; font-size: 12px; font-weight: 200;" fill="rgb(50, 49, 63)" stroke="none" stroke-width="1px">200</text><text x="0" y="261.6923076923077" dx="0em" dy="0.3em" style="text-anchor: end; visibility: inherit; font-family: Roboto, sans-serif; font-size: 12px; font-weight: 200;" fill="rgb(50, 49, 63)" stroke="none" stroke-width="1px">300</text><text x="0" y="232.61538461538464" dx="0em" dy="0.3em" style="text-anchor: end; visibility: inherit; font-family: Roboto, sans-serif; font-size: 12px; font-weight: 200;" fill="rgb(50, 49, 63)" stroke="none" stroke-width="1px">400</text><text x="0" y="203.53846153846152" dx="0em" dy="0.3em" style="text-anchor: end; visibility: inherit; font-family: Roboto, sans-serif; font-size: 12px; font-weight: 200;" fill="rgb(50, 49, 63)" stroke="none" stroke-width="1px">500</text><text x="0" y="174.46153846153848" dx="0em" dy="0.3em" style="text-anchor: end; visibility: inherit; font-family: Roboto, sans-serif; font-size: 12px; font-weight: 200;" fill="rgb(50, 49, 63)" stroke="none" stroke-width="1px">600</text><text x="0" y="145.38461538461536" dx="0em" dy="0.3em" style="text-anchor: end; visibility: inherit; font-family: Roboto, sans-serif; font-size: 12px; font-weight: 200;" fill="rgb(50, 49, 63)" stroke="none" stroke-width="1px">700</text><text x="0" y="116.30769230769232" dx="0em" dy="0.3em" style="text-anchor: end; visibility: inherit; font-family: Roboto, sans-serif; font-size: 12px; font-weight: 200;" fill="rgb(50, 49, 63)" stroke="none" stroke-width="1px">800</text><text x="0" y="87.23076923076921" dx="0em" dy="0.3em" style="text-anchor: end; visibility: inherit; font-family: Roboto, sans-serif; font-size: 12px; font-weight: 200;" fill="rgb(50, 49, 63)" stroke="none" stroke-width="1px">900</text><text x="0" y="58.15384615384616" dx="0em" dy="0.3em" style="text-anchor: end; visibility: inherit; font-family: Roboto, sans-serif; font-size: 12px; font-weight: 200;" fill="rgb(50, 49, 63)" stroke="none" stroke-width="1px">1e+3</text><text x="0" y="29.07692307692306" dx="0em" dy="0.3em" style="text-anchor: end; visibility: inherit; font-family: Roboto, sans-serif; font-size: 12px; font-weight: 200;" fill="rgb(50, 49, 63)" stroke="none" stroke-width="1px">1.1e+3</text><text x="0" y="0" dx="0em" dy="0.3em" style="text-anchor: end; visibility: hidden; font-family: Roboto, sans-serif; font-size: 12px; font-weight: 200;" fill="rgb(50, 49, 63)" stroke="none" stroke-width="1px">1.2e+3</text></g><line x1="72.34375" y1="0" x2="72.34375" y2="378" fill="rgb(0, 0, 0)" stroke="rgb(204, 204, 204)" stroke-width="1px"></line></g></g><g transform="translate(72, 0)" clip-path="url(#clip_0)"><clipPath id="clip_0"><rect width="1425" height="378"></rect></clipPath><g><g><g><line x1="0" y1="0" x2="0" y2="378" fill="rgb(0, 0, 0)" stroke="rgb(60, 60, 60)" stroke-width="1px" opacity="0.25"></line><line x1="129.60511363636363" y1="0" x2="129.60511363636363" y2="378" fill="rgb(0, 0, 0)" stroke="rgb(60, 60, 60)" stroke-width="1px" opacity="0.25"></line><line x1="259.21022727272725" y1="0" x2="259.21022727272725" y2="378" fill="rgb(0, 0, 0)" stroke="rgb(60, 60, 60)" stroke-width="1px" opacity="0.25"></line><line x1="388.8153409090909" y1="0" x2="388.8153409090909" y2="378" fill="rgb(0, 0, 0)" stroke="rgb(60, 60, 60)" stroke-width="1px" opacity="0.25"></line><line x1="518.4204545454545" y1="0" x2="518.4204545454545" y2="378" fill="rgb(0, 0, 0)" stroke="rgb(60, 60, 60)" stroke-width="1px" opacity="0.25"></line><line x1="648.0255681818181" y1="0" x2="648.0255681818181" y2="378" fill="rgb(0, 0, 0)" stroke="rgb(60, 60, 60)" stroke-width="1px" opacity="0.25"></line><line x1="777.6306818181818" y1="0" x2="777.6306818181818" y2="378" fill="rgb(0, 0, 0)" stroke="rgb(60, 60, 60)" stroke-width="1px" opacity="0.25"></line><line x1="907.2357954545455" y1="0" x2="907.2357954545455" y2="378" fill="rgb(0, 0, 0)" stroke="rgb(60, 60, 60)" stroke-width="1px" opacity="0.25"></line><line x1="1036.840909090909" y1="0" x2="1036.840909090909" y2="378" fill="rgb(0, 0, 0)" stroke="rgb(60, 60, 60)" stroke-width="1px" opacity="0.25"></line><line x1="1166.4460227272727" y1="0" x2="1166.4460227272727" y2="378" fill="rgb(0, 0, 0)" stroke="rgb(60, 60, 60)" stroke-width="1px" opacity="0.25"></line><line x1="1296.0511363636363" y1="0" x2="1296.0511363636363" y2="378" fill="rgb(0, 0, 0)" stroke="rgb(60, 60, 60)" stroke-width="1px" opacity="0.25"></line><line x1="1425.65625" y1="0" x2="1425.65625" y2="378" fill="rgb(0, 0, 0)" stroke="rgb(60, 60, 60)" stroke-width="1px" opacity="0.25"></line></g><g><line x1="0" y1="378" x2="1425.65625" y2="378" fill="rgb(0, 0, 0)" stroke="rgb(60, 60, 60)" stroke-width="1px" opacity="0.25"></line><line x1="0" y1="348.92307692307696" x2="1425.65625" y2="348.92307692307696" fill="rgb(0, 0, 0)" stroke="rgb(60, 60, 60)" stroke-width="1px" opacity="0.25"></line><line x1="0" y1="319.84615384615387" x2="1425.65625" y2="319.84615384615387" fill="rgb(0, 0, 0)" stroke="rgb(60, 60, 60)" stroke-width="1px" opacity="0.25"></line><line x1="0" y1="290.7692307692307" x2="1425.65625" y2="290.7692307692307" fill="rgb(0, 0, 0)" stroke="rgb(60, 60, 60)" stroke-width="1px" opacity="0.25"></line><line x1="0" y1="261.6923076923077" x2="1425.65625" y2="261.6923076923077" fill="rgb(0, 0, 0)" stroke="rgb(60, 60, 60)" stroke-width="1px" opacity="0.25"></line><line x1="0" y1="232.61538461538464" x2="1425.65625" y2="232.61538461538464" fill="rgb(0, 0, 0)" stroke="rgb(60, 60, 60)" stroke-width="1px" opacity="0.25"></line><line x1="0" y1="203.53846153846152" x2="1425.65625" y2="203.53846153846152" fill="rgb(0, 0, 0)" stroke="rgb(60, 60, 60)" stroke-width="1px" opacity="0.25"></line><line x1="0" y1="174.46153846153848" x2="1425.65625" y2="174.46153846153848" fill="rgb(0, 0, 0)" stroke="rgb(60, 60, 60)" stroke-width="1px" opacity="0.25"></line><line x1="0" y1="145.38461538461536" x2="1425.65625" y2="145.38461538461536" fill="rgb(0, 0, 0)" stroke="rgb(60, 60, 60)" stroke-width="1px" opacity="0.25"></line><line x1="0" y1="116.30769230769232" x2="1425.65625" y2="116.30769230769232" fill="rgb(0, 0, 0)" stroke="rgb(60, 60, 60)" stroke-width="1px" opacity="0.25"></line><line x1="0" y1="87.23076923076921" x2="1425.65625" y2="87.23076923076921" fill="rgb(0, 0, 0)" stroke="rgb(60, 60, 60)" stroke-width="1px" opacity="0.25"></line><line x1="0" y1="58.15384615384616" x2="1425.65625" y2="58.15384615384616" fill="rgb(0, 0, 0)" stroke="rgb(60, 60, 60)" stroke-width="1px" opacity="0.25"></line><line x1="0" y1="29.07692307692306" x2="1425.65625" y2="29.07692307692306" fill="rgb(0, 0, 0)" stroke="rgb(60, 60, 60)" stroke-width="1px" opacity="0.25"></line><line x1="0" y1="0" x2="1425.65625" y2="0" fill="rgb(0, 0, 0)" stroke="rgb(60, 60, 60)" stroke-width="1px" opacity="0.25"></line></g></g></g><g><g><line x1="0" y1="348.92307692307696" x2="1425.65625" y2="348.92307692307696" fill="rgb(0, 0, 0)" stroke="rgb(153, 153, 153)" stroke-width="1.5px"></line></g></g><g><g><line x1="129.60511363636363" y1="0" x2="129.60511363636363" y2="378" fill="rgb(0, 0, 0)" stroke="rgb(153, 153, 153)" stroke-width="1.5px"></line></g></g><g><g><g><g><g><path stroke="rgb(51, 187, 238)" stroke-width="2px" d="M129.60511363636363,345.43384615384616L129.61006023153408,343.704948024948L129.67497799289774,342.45551020408163L129.71992216619316,342.7514193036399L129.86055091477272,340.8874006673362L129.882590984375,341.0719824022157L130.02538701846592,341.5856122260232L130.03956437784092,342.1392456350362L130.09124081676134,342.668876405291L130.13340568039771,341.9362283773228L130.2196074815341,342.30440619018293L130.2244820738636,341.22452579165684L130.24030109801134,341.9923766131592L130.51021094744317,341.206613677839L130.6062051349432,340.5154788524263L130.64649792471593,341.2181794619656L130.8156685994318,341.75346715036727L130.95139395454544,340.4011298035396L130.96633454403408,338.95284229868014L131.10473840482953,338.37610016058744L131.14364153977272,337.89228398309257L131.2041887286932,338.3830302816332L131.3122145909091,338.1260747611216L131.33205857386363,338.44358769646834L131.46334135369318,338.3122524010216L131.4983419346591,339.26355153243765L131.543480515625,338.78748813138577L131.55990436363638,338.6489789555542L131.63663779119318,338.79571867893395L132.02936288636363,339.4035374576096L132.163957796875,339.3481862847372L132.30626421164772,340.39766744345917L132.4160757443182,340.41169846429005L132.65811329403408,339.5040204446704L132.88941522017043,339.9151169643974L133.0628268622159,339.38933625583286L133.070833578125,339.4237893289433L133.111306375,339.5841697948738L133.1223948125,339.10870398107056L133.2576521491477,338.79215359910626L133.2829251463068,337.3877679897533L133.41112620454547,337.9410494838708L133.4905309375,338.10558232094843L133.6567638963068,338.6382396113987L133.73900554119317,339.22181574623494L133.77925512926134,340.02322822758236L133.82746103125,339.26430156873886L133.999411015625,339.3610805665396L134.1556067784091,339.22517888573117L134.20142938636363,339.2841887366695L134.22218780539774,339.2907159132548L134.26739118892044,338.5546435426765L134.2770899715909,339.5430880873185L134.41830914346593,339.11817465602525L134.63261839914773,338.75701644659534L134.71055427414774,338.92986787613546L134.72216833238636,338.94592767896984L134.748989390625,338.6106268888202L134.87330949573862,337.8458266173827L134.9189736974432,338.15535526354626L134.96671158096592,338.5056846979112L135.2594391306818,338.75984268567277L135.4509018849432,339.2375756740417L135.75686355681816,339.5564105525861L135.79578829261362,338.73700472236743L135.90700388068183,339.5670876279518L135.92905835085227,338.3099240935619L135.9969642301136,337.67750236815095L136.01982513210228,335.7442355549128L136.1802546619318,335.58390607601456L136.22227551988638,336.2763269116612L136.45696157954544,335.38194739026994L136.62146647017045,335.4068093029148L136.68705385795454,336.2566391468099L136.69377172301137,336.67368385762666L136.71312608664775,336.76647783402626L136.7974054119318,338.1538189497079L136.80101995454547,337.9373608157061L136.855158890625,334.83113306111886L136.87540608948865,335.46200298730554L136.96679929545454,335.3440100051629L137.01900855539773,335.5490242233035L137.0383701193182,335.2871317652802L137.511594390625,332.7965206047093L137.71243191477274,331.94434935294413L137.8988904715909,332.9646208953728L138.28227679829544,334.0499285463014L138.524285546875,335.6702864147003L138.7992067940341,335.7827435112809L138.80753032244317,336.1836398550257L139.01875785653408,336.65524790104195L139.25013898579545,335.1806525501935L139.5038625965909,336.10801645917826L139.56101845170457,335.63142926437644L139.56452499005684,336.53479197589536L139.5684059431818,336.38672700085243L139.80771458522727,337.743795067104L140.46648297727273,337.676071952685L140.9956462556818,337.7493534750162L141.00694350142047,336.54679650241417L141.18459611079547,336.78946935278833L141.43462597585227,336.7340489463674L141.6640630284091,336.4688646670893L141.757673921875,337.85722733811554L141.78122605113637,338.862874045662L142.21274627698864,338.40921215461486L142.30946769318183,338.372522638086L142.43362939204545,336.68395189443106L142.63956471732956,335.7720513994826L142.9092153565341,335.7383975351345L143.29153604119318,335.97148406212256L143.41265201988637,336.38768453490593L143.4363913565341,337.7009934070217L143.80163296732954,337.81415208929343L143.80765240482955,337.8231061990448L144.1294835028409,335.43187102288715L144.53804202272727,335.9290134491219L144.60861200710227,336.7441229740403L144.69255291903409,335.47427375363816L145.07593924573862,335.4416711520204L145.22479071875,336.15542048127435L145.2423810127841,334.6249535591802L145.2772951903409,335.155902834101L145.722978375,335.6508251021695L145.78842175710227,335.76620133701766L145.96943689914772,334.77388651981147L146.02026370454544,335.4133420040733L146.20832072443181,335.3026483956677L146.5263500724432,336.8223280605879L146.54317713636362,336.15136346643646L146.85442381676137,336.10442817721355L146.8624953352273,335.01776395010745L147.103251234375,335.0536378191445L147.23191311079546,334.5171306076244L147.69627383238634,333.84302255474256L148.1035723025568,333.92426147924397L148.1736670681818,335.69431456542844L148.231420546875,335.54147507289406L148.502136828125,335.5860230427361L148.94142616051136,335.5366580478576L149.08612306960228,334.9713131867697L149.6244667102273,334.7088469779601L149.6995080710227,334.4421353158599L149.89091322301138,334.65158424926454L150.28931934232955,335.5274619965413L150.37945969886366,335.7485734663019L150.39760441477273,334.0610566770547L150.59479859517046,332.88835971391603L150.63504818323864,332.5021826798938L150.82576930823865,334.13662450872124L150.9395409971591,334.6099769862696L151.234803046875,333.4421727459997L151.32199128693182,335.2409237572052L151.87060973295456,335.06886211669905L151.9229917997159,334.5736866453424L152.24706938636362,334.8506336485437L152.31501846732954,334.43180783202786L152.35218633380683,335.689575118771L152.42346194602274,335.5374465432622L152.73863998153408,331.61359879252205L152.85771107954545,331.8984051274912L152.88652661647725,332.75110589683214L153.20565040767045,331.9493630892279L153.95303989630682,330.9625740104565L154.20181691193181,331.56311098581244L154.33485656107953,333.6437212610215L154.5847856221591,333.8420861487917L154.7790564872159,333.40008091878L154.79537233096593,333.85306878096355L154.85191616193183,333.7583392330497L155.02646544886363,333.72143450193835L155.60141533380684,332.11991163433873L155.63753915909092,332.6340787353421L155.72409377414772,332.1988130788867L156.22398069744318,331.82883727089967L156.3624781619318,327.10920398795525L156.48918156107953,327.54628492822366L156.99355426136367,328.13588065052875L157.03712318039774,326.8488062452568L157.25542139346592,328.3717160776994L157.79424025284092,329.75342020450626L158.1933447997159,327.6130994815223L158.3793065369318,324.3109037900628L158.50220818607954,324.86242206770726L158.64186489630683,325.63652029601275L158.74731305681817,326.33811917468785L158.99242512784093,327.6759397600232L159.05005620170454,326.58870264217353L159.06706327272727,327.3655510920014L159.14352308948864,328.8545645820474L159.3187420028409,329.11707220243255L160.32853144460228,329.2965882951446L160.3659657215909,328.79494620471905L160.73889723579543,329.7206273509343L160.89668426136365,330.24576401752495L160.96885270880682,330.21236095335775L161.1894262116477,325.90966065650787L161.62060082386364,327.2681346349548L161.82177676136365,325.3261452089423L162.2093536534091,325.37645419683173L162.4567482144886,322.4969860673069L162.7003194247159,325.06520738798014L163.45050982386365,326.4631185874755L163.69767397585227,322.19942003012335L163.73627469886364,322.5006608717587L164.24263467755682,321.8407925102257L164.56717308238638,323.7659813259995L164.76464807386364,317.9005456655611L164.7921531590909,320.11146381572695L164.83964623295452,322.4268980895217L165.43134397869318,322.4759402991704L165.44940229119317,322.0378569466025L165.6530119247159,323.5845630199968L165.70873492329545,325.6407247208434L166.06173605113634,327.8246160127169L166.28791137500002,326.4097697646555L166.51948691193184,325.4252273768803L166.90972790909092,328.4265201934252L167.72219356534092,326.57246524133444L168.13425142329544,323.3391339166727L168.29074959801136,323.4694176753257L168.3177362627841,321.31215887018067L168.47188714488638,321.22310427042277L168.52539965625002,322.5431001683209L168.96693547727273,316.1632505276882L169.00881952982954,314.8838398716119L169.45367468181817,309.78372542933164L170.70463043892045,312.2962435380088L170.74381438494316,315.6967300842306L170.92794004971591,315.35960518698056L171.77585270454546,315.59643363970275L172.46739678977272,313.70419936297804L173.83967013352273,315.9775694585314L173.8866663877841,317.21208788590553L174.2581002428977,315.9498131645582L174.55470874573865,317.6682642667975L175.13176111363634,318.3874861652394L175.18602965482955,319.3041324712228L175.28227585227273,320.08328183130857L175.71748982386364,320.1785587873815L175.94990059375002,321.219082661582L176.1466627571023,317.39306641619083L176.29467899715908,319.0694910691468L177.37600326136365,320.5380674087748L177.86796267187498,321.3938188359202L179.03120456818183,323.8222075489936L179.2365782713068,323.83641487818306L179.89489304545458,323.7176449541479L180.77516377698865,323.5294597494872L180.8489450880682,323.1078100178334L181.76570685937503,317.55917697669685L181.79584724857955,314.58745427634614L181.9734854573864,314.9401053656635L182.49969661931817,315.7196280223524L182.585934421875,314.681222280538L182.90596544886364,316.8952697076881L183.60301775142045,318.21021002076566L183.76275605397726,317.7577554407277L183.87940065625,317.3731690476955L184.01408197017045,319.40150138284883L184.16459670880678,321.4308915600369L184.56779821732957,321.0623347491083L185.1396159786932,321.0543691521267L185.151482046875,318.9976753177692L185.35658213920453,320.7823317124115L185.70620633380682,320.72913580170365L185.89592661931817,321.8179192776019L185.9756769659091,322.52530830903856L186.3823850127841,321.94897360114436L186.40610994886362,321.8516275609727L186.67132521306817,323.731575734519L186.6999103409091,324.28276245126426L186.86813057812498,324.3587326989593L186.92645287926135,322.80953817873075L186.9414222698864,323.2373382211519L187.2538425965909,313.00242979567145L187.32725669318185,317.82352686478225L187.44869668465913,318.34499783506493L187.48692299289772,319.66055585211285L187.97247415056822,321.95639555121903L188.11040279261363,323.1227823723823L188.20262403125,323.85251886267883L188.73975802414773,322.6409487255847L188.75357536931818,322.35257564751623L188.75487142045455,325.8147662234657L189.2170504559659,324.35247436686893L190.63497360085228,324.67968013491554L191.16075274573865,326.309881960832L191.31658849431815,325.7328612051688L191.62105970738637,325.2860089474704L191.69298334517046,324.64449222073443L191.85488893323864,320.6972030030089L192.00997585227273,321.0929302448653L192.30889564630684,316.54437532352006L192.76483923579542,318.17364210191516L192.9725386306818,318.1628265558586L193.11690432670457,317.4557871878645L193.72844605539774,318.86111141737706L194.74673903267046,322.23640624323207L195.66763376704546,316.6004068452088L195.7208150653409,317.7414996645813L196.07983563068183,316.5306593302787L196.36097072301135,316.1992911999677L197.18767854119318,315.56870521228024L197.435649125,319.0017071227459L197.47363062357954,318.34329720818016L197.60634625994317,318.17618724233773L197.9238499872159,318.2522206944486L198.44099599147725,318.8402337441275L198.47331086647725,317.6390448363545L198.59833659943183,317.05418811090135L199.52554598295453,316.9495983558046L200.05780538352275,317.7330047562801L200.9684181122159,317.2649001966842L202.0033005440341,319.0041651671816L202.23662574999997,318.8251557767197L202.82627141477272,318.06238241021174L203.2872624034091,313.0961019717569L203.92337150142046,315.4606866759934L204.0961639190341,316.0748913669021L204.52175111079546,319.039426892636L205.38285468607955,318.02643593566364L205.57155973153408,315.76970131454493L205.84292403835227,316.42478457890167L206.08902974857955,313.3615284305279L206.2242078821023,312.3279145505641L206.35798196022728,315.20026582951795L206.40451739630683,317.3800721089364L206.5873254090909,317.05213821567287L206.97736479829544,317.5584713294758L207.39183475142048,316.63677755313137L207.78787197727272,318.07772245862316L208.91258515340908,315.4643717821374L209.42118442045452,314.33340832250906L209.45306727840904,314.6805509202866L209.65443042329545,314.7139298207051L210.13323491477274,313.5646865014455L210.50606562500002,312.7622912185364L211.03801541335227,312.34194753575593L211.56193688494318,314.95050155923866L211.77869423721592,316.38269555612214L212.37204804829545,315.81182968424224L212.41386729829546,315.45743984699055L213.1171406463068,312.364823869942L213.41589483380682,310.1286387509891L213.77751470170452,305.56734293834074L214.19507357670457,309.01762611297426L214.59190283380684,308.1122129652589L215.58714050142046,310.91907332816237L215.80684997017045,311.6039046366303L216.62833758238634,311.66262663344344L218.0208725255682,310.2732326384269L218.7856579005682,311.0549400503552L218.85737993039774,311.37046827357113L218.9253938139205,310.19935957099705L219.09895666193177,308.54968640457827L219.23539484517045,303.8326949823531L219.28918816761364,303.39971381192316L219.96955741193182,304.7326798170578L220.48090718750004,304.4700086137299L221.04922561079547,304.682891937055L221.48500840482956,306.30315045418905L221.75375900852274,306.24106250144536L221.78724752982956,308.325441587767L222.8029268039773,310.4024715034481L222.87852258664773,307.93725462408474L223.1993456448864,307.3247433535489L223.30291453125,309.9880318505166L223.36008478693182,309.50405784216986L223.42801946732956,308.5692953196905L224.32971824431817,309.60659332942924L224.3361048963068,312.2329120223226L224.404867609375,311.5430521420511L224.4466724588068,313.748055859205L224.62478588636364,313.3543090187858L225.30347026420452,313.5866242044294L225.5435133352273,309.6842459583804L225.97452234090912,305.9310706030849L227.2184722215909,298.2921023203145L227.98825459375,301.74328697226724L228.57396170312498,303.7608708495041L229.1236241903409,305.3013556066939L229.3514267784091,303.64492149645906L230.184794859375,303.7634909642979L230.94411521875,303.995121165807L231.2103889247159,304.322852990936L232.74218456250003,306.47688658075714L232.7658374957386,305.21112282441277L233.18264034090907,303.74268516998166L233.6113452556818,302.7125900867921L234.41699224289775,306.0240861891579L236.33768962500002,306.9633963377073L236.6386398991477,304.2289638101281L236.7259793451705,305.26308077707046L237.3608643948864,304.964464814356L237.39193362073863,307.5020258614334L239.24617238068183,304.86126044375686L239.41488223721592,305.1026867618087L240.6097549815341,307.1833606706143L240.81919684517047,308.21047195463757L242.61251400142046,307.8186703922112L243.5795409559659,307.4856390641487L243.86874036647728,304.45479320452637L244.11997267897723,300.65734345461664L244.71008636221595,302.4452803979626L245.26353619886365,297.68441141519133L246.16614221164775,300.57251893368186L247.25782048437497,303.1146410936296L247.3114121988636,303.5744449295851L248.31279170880686,292.2327397286089L248.83484110653404,294.6301364616252L249.53961931392047,297.23492368468914L250.43739393607953,296.61399282429346L250.45774913920454,293.77458620834176L250.96297867329548,292.32062904632124L251.187325125,289.12207315091155L251.76959769886363,286.6213775628902L254.14428019318183,282.57670938999513L254.61628041619318,287.29481836611126L255.07299443607957,291.3924417650407L256.13014014630687,294.43926780797693L256.84535156534093,296.50568532908807L257.3688698210227,294.29314022203255L257.689980890625,292.93586149642L257.72289338920456,291.95663611811085L258.0784002159091,297.1432176234712L258.09689774573866,295.2275811337966L258.1079501818182,297.56829011757327L258.2123543011363,280.9777389076296L258.5612440667614,281.31246268686976L259.257093921875,281.07359328383933L259.80683561221593,284.3597850604942L260.5703465369318,288.15620191680466L260.6842406306818,290.16192547543784L262.07626435369315,291.12532896181443L262.28038520738636,294.34306807908075L262.7123446505682,296.59837709798785L262.79940328551135,299.86746668713585L263.1466153849432,302.5153466840655L264.56342248579546,305.5947369891479L265.73570073863635,302.9347572100065L268.05586988210223,303.98854362850557L268.42316357386363,302.3545697765374L268.46509082812497,302.0996920023645L268.5960279943182,302.842584355856L269.1363085113636,307.6611197794007L269.78305242897727,301.8561825817213L269.9714046605113,302.11221673292465L271.0621036946023,301.7192303768321L273.2904188139205,302.5191919741535L274.1895902911932,302.85023625495353L276.31394770880684,305.3996238936336L276.32424411505684,306.56344954035774L278.598180234375,307.858009032381L280.73668621022733,305.90530767752387L280.8654416903409,303.983819218203L282.8552545994318,300.43147710470333L283.7584438352273,299.37467861592086L284.89893283380684,297.47324605430197L285.24096072869315,292.236951453849L285.6257799119318,291.14448565884857L286.00720776136365,294.1848897330982L286.3902484744318,289.7035408885181L287.6097821917613,285.5890866783173L288.4871440085227,287.63095444580046L289.5797655184659,290.4133112789304L290.28645180113637,294.3048530486293L290.7223714005682,295.4755097067195L293.5303237897727,299.3491832507116L293.72172894176134,303.25242114772027L293.76081208380685,302.426711821716L294.0954524872159,300.28555120230476L294.21765570880683,298.8144877527283L295.0612481931818,296.60454535904984L295.3404176079545,294.7697097090385L296.0604604176136,292.9047917142212L296.3239332130682,291.71214988016493L296.50129781107955,291.48348124429407L297.5154362244318,292.335882134573L297.696588171875,294.1508075066948L297.833767984375,287.18849407299825L298.87251696875,288.4234507312793L299.2703686661932,291.6975485062028L299.703991375,290.46791623027235L300.99382866619317,292.08326725727L301.34377687357954,294.0233156302179L301.99182404261364,289.130049054916L302.2514662869319,289.0706186197555L302.3522846647727,293.38164121140755L303.0656456107954,292.24831810661954L303.40894075568184,288.6244550060112L303.5003339616477,287.7685559858787L303.5547825099432,287.86973412645847L305.058201828125,284.7281970844128L305.0692038622159,288.73104444482783L305.1033908110795,292.08984931656516L305.8946156292614,293.59275653446497L306.4154985809659,295.74253536198756L306.9152991008523,295.1273858269202L306.95382782102274,298.8788164144206L307.0331533508523,299.9739939522575L307.9917919744318,291.5712025517266L308.2733878849432,282.3352913997369L308.43082209659093,288.52892076669934L309.2654358267045,290.5659672670791L310.2714955213068,281.6116875616326L311.07555844602274,286.25647288892617L311.83580764204544,289.4194634940488L312.0851462798296,283.1232362776338L312.10516306960227,282.3946739129118L312.4841644232955,284.65401128751347L312.5754640255682,286.2691403636172L312.77545911647724,278.91892315522847L314.61006990198865,283.18254622040575L314.9356091463068,287.2427796719603L316.13501806960227,285.6782088750124L316.18081907670455,284.3047083129913L316.2002526434659,283.83507898911955L317.03082701420453,280.25197098690546L317.4323076548296,282.44017533886966L318.39559766193184,282.8172259611161L319.6984026647727,279.69210360541024L320.5127475951705,274.63690344921406L320.6970604673296,279.15029100875506L321.3568729005682,277.8836704343649L321.6521133494318,271.006196792287L323.01143338210227,273.3600365042132L324.11728181392044,270.03972333627354L324.5240474630682,266.03984175890946L326.2654793721591,266.957865495073L326.3218719971591,269.6136472092736L326.40929784659096,274.09544628172875L327.81345404829545,273.06366780100785L328.20242059517045,275.71950224624135L329.7016781491477,278.4567307554589L330.48718594176137,281.74291344983243L333.51126925852276,284.53616874004985L334.31986116193184,281.28405112135005L334.33527697017047,283.44828960699374L335.8067702286932,282.8018153967139L335.93061511505675,286.6138507795145L336.4766270582386,290.11577316258735L337.00193818465914,279.57163795742997L337.12738153409094,280.03004610996936L338.5524905625,265.37238534732006L340.1012212684659,266.5213736990682L340.71206456960226,263.965167644208L340.8524629090909,266.45923865142294L345.3621232400568,272.02481439217104L345.7997421065341,269.2537076179608L346.1272542286932,269.3843437829589L346.64573948579545,273.2899229847459L346.74050242471594,277.70004992164934L347.05148269460227,278.2211193564789L347.25656838636365,271.9908745299301L347.5691831207386,273.4991664273637L348.0521277755682,279.8842145401822L349.4949639034091,279.4670438976164L349.5679099815341,274.3147565437432L350.4685863181818,277.26269690833556L351.13275492329547,278.5036000643929L351.9221220681818,280.69236774704166L353.73517520312504,279.41251258498545L356.10656716761366,281.203251081853L356.23698591335227,286.04014803495966L356.44833585227275,286.8367412143311L357.44040539488634,288.2989223398737L357.7036909829546,277.7656224504311L359.6792833309659,272.5196252367126L359.7263947897727,273.5996814512057L363.44118695880684,269.45834461814025L363.533235390625,267.9445160023423L363.5743994147727,259.0686847558371L364.6945836122159,256.6272281963077L364.92520151136364,255.38068242840004L365.00249656107957,260.29642621798615L365.13715627414774,253.22203920836517L366.0177006164772,252.22457948095652L366.2025463096591,262.7167387126592L366.83202394602273,268.407535598068L367.78793366193185,276.0797129506655L368.2514015482954,278.2395252388349L369.3324738025569,279.9009041453174L369.8285661761364,284.6278454465967L370.27249249147724,274.1654378603764L370.56514083806815,278.09531448901225L371.30990222301136,271.3605557771989L374.0598131221591,276.06008779523444L375.1860887599431,274.07938231825693L377.1124815667614,277.01901343205685L377.3506021619319,280.6516998787868L377.7715955724432,274.01325258927653L378.86450509375,278.6201877778081L379.0572638991477,282.4488519188292L379.89709783522727,284.3075241310048L380.3103653409091,283.9247032036618L380.6015304289773,262.2277669538817L383.05444400994315,260.2719865261841L386.29866161221594,264.7593423934103L387.0529489730113,269.57674872670646L387.8152070482955,267.69623641770045L388.74814065767043,272.1603394165839L389.7092777798295,270.89544235025016L390.97467010653406,270.8234336900203L391.00333443750003,273.4663801749788L391.1632599474432,275.9745769948858L391.78596211647726,273.9194673687299L392.4052801519887,267.46216264803576L394.3716489360795,270.609299789292L398.05311099005684,270.4057509747443L400.30726792897724,265.827580636225L401.71898442897725,266.03598200232966L402.65845589630686,264.20681547121103L403.19081610085226,263.3062546889909L403.3824012599432,269.9117780241038L406.89268375994317,266.45447285894977L407.66819035795453,269.18576346856884L408.28562191903404,266.7532835636681L409.11869478835223,250.903214106041L410.97972341619317,256.7086550670579L411.8442039247159,265.91758757623L412.94927472585226,277.8450263628724L413.9738967528409,279.95811856228767L414.44646579829543,250.78732385486765L414.83306345170456,250.37314835356057L415.05518501562506,257.6101761005265L416.399262046875,270.6964958392937L417.7202549673296,272.0500214633996L420.2847585511364,277.5620567054281L420.64161903124995,280.37182512269084L423.10630507670453,285.9876667389026L425.6896014019887,281.12213211268255L428.0256759730114,257.5775815265494L429.17151478267044,260.2010981437208L430.34086251988634,246.90401034523964L431.4084486420454,232.06863956268447L432.9141216491478,233.80803593597415L435.5773339275568,244.05321516096262L435.9535487713068,251.4531559637413L436.5023976264205,263.9801056461032L436.70699369886364,268.95801287611073L437.14977516903406,273.4073109446942L439.2639297840909,261.31321430299005L439.3214240525568,246.0174629267723L439.7735226903409,233.80115118006412L443.70220649857947,231.22444004151606L444.02241033238636,235.22762018913483L447.3828693210227,241.85786177614918L449.9442479815341,241.95441327895762L452.05017987215905,241.9928666717294L457.4533234559659,236.31193667096994L460.4408797315341,233.40222309340137L460.4900072698864,236.38088962939113L461.92059571448857,231.8034484926748L461.93565870880684,241.38977737261973L462.96337685795453,249.0583876898037L463.0062617499999,250.3428603055639L466.31241619602275,245.80827741357547L471.606936294034,239.03165118615453L474.22044501136367,211.89998043130825L474.46477945170454,215.0509064435351L474.6829552599431,218.81957816931256L474.8447600440341,204.2278722131464L474.908669765625,194.3546144580975L477.14774930965905,197.17149921245985L478.4993650383522,211.86538971520622L480.4004704474432,217.46396587330992L484.2212723991477,218.7771402230827L484.47318873863634,194.6836461126972L485.79506009374995,180.52840688810028L488.66006753409096,196.6719920087314L488.91280470596587,200.10080859203705L489.94574306107955,210.2990719186161L490.17618815340904,223.93974959236215L490.30234433096587,235.75240253812322L490.7840649375,240.4720806189432L493.5909300838068,248.23473006456325L494.3746954076705,238.4335974779557L495.56215905965917,240.04694247164693L500.3482094957387,239.93536263936144L504.51671316619314,240.71282747422646L504.625135044034,219.60959566078478L505.4905371889204,229.49846400397473L506.0116937514204,216.00907901876317L515.3978328863635,220.28825562748713L516.4094295994319,195.96809420644098L518.7721668224432,175.29595699855173L521.0702454943182,187.33948652569205L523.9682158352272,167.96164046991518L524.7720483508523,151.49047132250485L530.0929646903409,161.08590062412912L531.8496035994318,172.20786168435595L533.934798671875,166.0908362778564L536.1471795625,185.75213391310103L546.5828465071023,202.37700613382816L550.7032738806818,207.8723013676001L551.8271950255681,200.1129177009216L552.7948412045455,201.36821081501412L553.4195810539773,213.90605611583894L553.877029502841,226.0461476984631L553.9704315880682,236.71414862061673L554.2632383409091,244.95325709675498L554.6274719119318,249.20873007070327L555.6657096761364,220.5504974831747L557.3530314502841,196.1909997837754L561.2093812045455,188.26473443159372L564.5376405227273,168.74810118993156L564.9561714360796,152.15896293451877L574.7449576576705,140.41342618664862L575.1786235681818,162.44341225865136L575.8398184559659,151.42320811216132L579.1525755624999,137.43280381841407L579.3117810440341,125.54096016872892L579.6526712940341,152.85489306649652L579.8157865298296,174.6324283372913L580.0003802130682,195.67302562515914L580.2045298678977,213.64476408907757L588.1387389161932,224.55920332186977L593.3254779616478,209.6735535928201L593.4097500866477,186.945597476974L595.3672193196023,167.6268347785048L596.4575583394886,151.205886484806L598.9522551690341,137.248080435162L602.9578884133523,152.55632990834928L603.2299151463068,138.39595734517383L605.0117262485795,134.42848682032079L607.8433747727273,157.96682918188804L608.6695137684659,179.2392663430664L614.3781438053977,161.0764533146833L616.9915229176137,145.63806224055776L618.8615951022728,132.51542982755106L619.8247915056818,121.36119227649533L621.9890456974432,111.88009035809796L625.1810540397728,103.82115372746019L631.477716877841,96.97105759141807L633.3635576846591,91.14847587578231L633.78704959375,123.5776660328765L634.0180923096592,113.76409305102193L640.4401264943182,116.06470986259944L640.6801263636364,107.3780803062864L643.692264409091,99.99444518342038L650.4936023593749,127.43304763667656L651.2544419786932,140.24455202963665L652.0068644659091,158.06917691749885L654.5993987556818,177.01464653372017L658.7893448721591,159.18552647673906L668.4688235809659,157.50792827445898L669.2459286420454,178.93643134098244L676.3697601164772,160.81904356291196L677.1588824517045,145.4192639515521L689.6565091519886,132.32945128189624L691.205823080966,156.79326435884255L692.108825109375,170.82712085886232L693.5905211704545,191.34812965310994L694.5629483380682,171.36898712822034L699.9220837855114,192.46294675129502L702.393358090909,172.31658166167767L703.8405935923296,187.51117133550295L705.6674136704546,180.45072640440824L708.3577566193181,203.97696359759317L711.2231888764204,216.21072675026184L711.4708642485795,192.50219466079955L711.8895679687499,172.3499423847565L715.080417065341,155.22052795011996L715.7194278778409,140.66052568067892L719.4785593963068,128.28452375165395L720.1938644190341,117.7649221119828L727.5420495454545,108.82326071826233L728.2575993778408,101.22284853359987L729.8062868821023,133.18765202279064L730.2307148281251,158.220581142449L732.3578515553977,159.3482632018509L735.5589682571024,144.16910064465017L737.7060353707386,165.3740432402603L739.2939572230113,149.2910136772982L741.3486734928978,135.62043854878044L741.9547718068183,124.00044968954029L742.9431548039772,137.58853608226306L743.180656174716,125.67333259300052L747.9319148380682,115.54540962712736L748.1689985923296,106.93667510613521L751.3037502755681,99.61925076329183L754.7092470411932,134.09259391802885L758.8614060667613,142.1106279072476L767.9121847698864,163.97326449039124L768.0529503238637,173.44089020144793L768.1320598451705,156.14783359430766L768.6531588053978,141.44873547823846L773.4039206491478,128.9545020795796L775.515735171875,118.33440369071958L776.4018813352272,109.30732006018859L777.4106051349431,101.63429897423723L777.9125441392046,95.11223105117858L786.0418016832386,89.56847331657875L786.3574765383523,84.85627924216887L788.4843540553977,80.85091427892046L788.6494493693183,77.44635406015931L792.3111538437499,104.69070864344313L793.1658779673296,97.71017927000356L798.4001820894887,91.77672930258001L799.2381295511364,86.73329683026994L800.5504029275568,82.44637922880639L801.1519434616478,78.8024992675624L801.4167771107954,80.67735514665877L803.4264124019887,77.29882879773693L813.5184961903409,74.42708140115329L816.1210172741478,71.98609611405716L820.0305771278408,69.91125862002556L820.5611228607954,68.14764675009864L824.73913090625,66.6485766606608L826.5002699928978,88.44690554617706L827.1531773536931,83.90294663732745L828.0886742642047,80.04058156480528L829.5112343920455,76.75757125316144L830.7963194957385,73.96701248826407L831.9655520284091,71.59503753810141L834.7419527727272,69.5788588304631L835.5296566519887,67.8651069289706L837.2231418693182,66.40841781270193L839.4224902457386,65.1702320638736L839.9664717088069,64.11777417736951L844.3737079985796,63.223184973840986L847.8532092840909,62.46278415084171L849.3295771349431,61.816443451292365L849.8740338167613,61.26705385667545L853.2252260397727,60.8000727012511L857.0504777670455,60.403138719140365L857.1871391590909,85.97328329588473L857.9266371363636,81.80036772457892L865.2376183948865,78.25338948896905L865.4708931988635,75.2384579887006L868.4686450767044,72.6757662134724L868.5464441463066,70.4974782045285L870.1419118963067,68.64593339692614L874.5383549602273,67.07212031046416L880.5956443536933,81.47953303312532L880.6736810326704,77.98068000123345L883.1659729673296,75.00665492412539L884.245144346591,72.4787336085835L885.6694973451704,106.26907741344986L886.3323842997161,99.05179272450931L887.0304662428978,92.91710073890988L889.5170987542614,87.7026125511503L893.0621082244319,83.27029759155467L897.3048468238637,79.50282987589839L899.6276656718749,76.30048231759055L901.1549971335228,73.57848689302892L906.6354141661932,111.0856369359977L917.9492493593749,103.14586831867499L921.5869984886363,96.39706499395068L924.3115643877841,90.66058216793502L928.8569813295455,85.78457176582165L933.8025972613635,93.80865523171767L933.9837492088068,88.46043387003697L938.5382025071023,83.91444571260834L939.920678653409,80.05035577879401L940.3849745724433,76.76587933505189L941.1482334872159,73.97407435787098L941.3038460269887,71.60104012726728L941.6862243139203,69.58396103125415L946.2404256022727,78.90413610733523L948.7709726463069,75.7915926143119L948.9254835426135,73.14593064524205L949.002735390625,70.89711797153268L955.2583350085227,68.98562719887968L955.3027607613635,104.87009081135542L956.8025655369319,134.58680795888287L967.9069516661932,123.12186368812736L968.4497882840909,113.37666105798519L973.210551322443,121.75431574544127L973.5975377911932,112.214245306702L976.7106886221592,118.9344162030044L981.3085668338067,109.81733069563069L982.4904430653409,102.06780801436301L986.8538728267044,95.48071373528548L988.3212907244318,89.88168359806959L991.0851197727272,85.12250798143609L991.3379505482953,81.0772087072976L995.8251171917614,77.63870432427984L999.6511969517046,74.71597559871485L1000.8152524801135,72.23165618198449L1001.919696856534,70.11998467776378L1003.1571160795453,68.32506389917616L1004.1619805269887,66.79938123737669L1006.8482625156248,65.50255097484713L1007.8991799801137,64.40024525169699L1008.0750613196024,97.78859307932703L1023.0567356292614,91.8433810405049L1027.3671857002842,86.78995080750607L1029.1911184644887,82.49453510945712L1030.62385259375,78.84343176611543L1036.6952041420454,75.73999392427503L1039.4364170980114,73.10207175871072L1039.7170193693182,88.96022253336568L1040.432201987216,84.33926607643774L1040.8500416732954,80.41145308804903L1042.5948361150568,77.07281204791857L1046.8208484545453,74.23496716380768L1049.992191981534,71.82279901231351L1057.1648845838067,69.77245608354346L1061.6472558380683,68.02966459408879L1065.5349772301138,104.71175336651399L1067.4900199673295,97.72806728461381L1070.1174900355113,91.79193411499865L1075.0065621363635,86.74622092082576L1075.3249658991476,117.61136470577883L1075.6408351619318,108.69273692298893L1078.8178597130684,101.1119033076175L1083.1492482102271,94.66819473455185L1084.8757179289773,89.19104244744598L1089.958333666193,84.53546300340601L1096.0905564161933,80.57822047597205L1098.6822914744318,77.21456432765316L1102.2948828110796,74.35545660158209L1103.7284305724434,71.92521503442177L1106.5451313068183,69.85950970233544L1111.5694175426136,68.10366017006201L1115.4174869701706,66.61118806762964L1116.8764517343748,65.34258678056209L1125.2310997713068,64.26427568655471L1132.5952119261362,63.347711256648445L1136.5247957698864,96.54501610661272L1137.3593446974432,128.0774944598516L1141.7054721761365,152.26317798318158L1143.6309793480114,172.2976243626274L1148.1033566079545,155.17605763131024L1149.240252664773,140.62272590969064L1149.9262309303977,144.08477856169853L1152.0196271264203,149.07744639282836L1157.0924504772727,135.43890635698108L1161.5478350667613,139.15514732651081L1161.5901295355113,146.71910599676494L1161.9672948167613,168.1521631741733L1163.6566110696024,151.65241562112422L1165.2059682002841,137.62763020103247L1168.5310809943182,125.70656259395453L1168.9211635852273,115.57365512793831L1174.2118171306818,106.96068378182449L1184.3715115866476,99.63965813762775L1185.714350169034,93.41678634006051L1185.7948277443181,88.12734531212834L1185.9828127613637,83.63132043838603L1195.3197523551137,79.80969929570503L1201.7738998068182,76.56132132442626L1203.2729989545455,94.77920004883924L1205.7904630823864,92.55655081074413L1206.5696634261362,96.29368357374794L1224.7405235667613,90.57270796076267L1227.800730708807,85.70987868972517L1230.9538143153409,81.57647380934333L1235.7402895681817,100.78669504563416L1237.7467279332386,94.39176771186594L1240.6230110184658,127.29400255508605L1246.8020788167614,116.92297909490006L1247.4225776988635,108.107609153742L1249.0371694034088,100.61454470375762L1249.3283632926136,94.24543992127091L1250.5757405085228,88.83170085615723L1253.9222741477274,116.15648418927212L1256.4299458892046,107.4560884839582L1260.1633219914772,100.06075213444139L1267.2277439218751,107.38271623735207L1268.2302466761364,99.99838572482622L1273.3059285397728,93.72170478917923L1279.143918880682,88.38652599387926L1285.5807424488635,83.85162401787429L1286.515454528409,79.99695733827014L1288.9994373352272,76.72049066060649L1291.0585529786931,73.93549398459253L1297.3796103792613,71.56824680998055L1298.155620997159,69.5560867115604L1298.621407375,67.84575062790329L1298.933158075284,66.39196495679475L1300.248801184659,87.48732405942934L1301.0372178920454,83.08730237359187L1301.1922112073862,79.34728394062998L1302.0476265582386,114.28811442645859L1302.5125993039774,105.86797418556672L1307.9756492514205,108.69877805773173L1317.5957544176138,101.11703827214892L1322.0129559005682,94.67255945440348L1322.5795534559659,89.1947524593199L1328.3828744289772,84.53861651349882L1329.6289411931818,80.58090095955095L1330.4577946960228,84.71868889254137L1331.8078839644886,80.7339624817371L1337.2795454517047,77.34694503255344L1338.810505856534,74.46798020074738L1338.8146388196024,113.32462932448142L1341.2750838977274,105.04901184888615L1346.2022887031249,120.78196776386089L1347.448305065341,111.38774952235869L1352.551117599432,103.40266401708183L1356.348597830966,99.58118749144259L1357.596759877841,93.36708629080313L1359.7944737897726,88.08510027025963L1361.7827386377842,83.5954121527976L1363.2727654275568,79.77917725295488L1363.7533339886363,76.53537758808854L1366.0016802982955,73.77814787295216" style="fill: none;" fill="none"></path></g></g></g></g><g opacity="0.2"><g><g><g><path stroke="rgb(51, 187, 238)" stroke-width="2px" d="M129.60511363636363,345.43384615384616L129.61006023153408,342.2353846153846L129.67497799289774,340.4907692307692L129.71992216619316,343.3984615384615L129.86055091477272,335.8384615384615L129.882590984375,341.65384615384613L130.02538701846592,343.3984615384615L130.03956437784092,344.27076923076925L130.09124081676134,344.8523076923077L130.13340568039771,338.74615384615385L130.2196074815341,343.98L130.2244820738636,336.1292307692308L130.24030109801134,345.7246153846154L130.51021094744317,337.29230769230765L130.6062051349432,337.0015384615385L130.64649792471593,344.8523076923077L130.8156685994318,344.5615384615385L130.95139395454544,333.22153846153844L130.96633454403408,331.18615384615384L131.10473840482953,335.2569230769231L131.14364153977272,335.2569230769231L131.2041887286932,341.0723076923077L131.3122145909091,336.71076923076924L131.33205857386363,340.2L131.46334135369318,337.58307692307693L131.4983419346591,344.5615384615385L131.543480515625,336.1292307692308L131.55990436363638,337.87384615384616L131.63663779119318,339.61846153846153L132.02936288636363,342.8169230769231L132.163957796875,339.0369230769231L132.30626421164772,346.30615384615385L132.4160757443182,340.4907692307692L132.65811329403408,334.38461538461536L132.88941522017043,342.2353846153846L133.0628268622159,336.42L133.070833578125,339.61846153846153L133.111306375,340.4907692307692L133.1223948125,336.42L133.2576521491477,337.0015384615385L133.2829251463068,329.44153846153847L133.41112620454547,341.0723076923077L133.4905309375,339.0369230769231L133.6567638963068,341.65384615384613L133.73900554119317,342.5261538461539L133.77925512926134,344.5615384615385L133.82746103125,334.9661538461539L133.999411015625,339.90923076923076L134.1556067784091,338.4553846153846L134.20142938636363,339.61846153846153L134.22218780539774,339.3276923076923L134.26739118892044,334.38461538461536L134.2770899715909,345.14307692307693L134.41830914346593,336.71076923076924L134.63261839914773,336.71076923076924L134.71055427414774,339.90923076923076L134.72216833238636,339.0369230769231L134.748989390625,336.71076923076924L134.87330949573862,333.51230769230773L134.9189736974432,339.90923076923076L134.96671158096592,340.4907692307692L135.2594391306818,340.2L135.4509018849432,341.94461538461536L135.75686355681816,341.36307692307696L135.79578829261362,334.09384615384613L135.90700388068183,344.27076923076925L135.92905835085227,331.18615384615384L135.9969642301136,334.09384615384613L136.01982513210228,324.78923076923076L136.1802546619318,334.67538461538464L136.22227551988638,340.2L136.45696157954544,330.31384615384616L136.62146647017045,335.5476923076923L136.68705385795454,341.0723076923077L136.69377172301137,339.0369230769231L136.71312608664775,337.29230769230765L136.7974054119318,346.0153846153846L136.80101995454547,336.71076923076924L136.855158890625,317.22923076923075L136.87540608948865,339.0369230769231L136.96679929545454,334.67538461538464L137.01900855539773,336.71076923076924L137.0383701193182,333.8030769230769L137.511594390625,318.6830769230769L137.71243191477274,327.11538461538464L137.8988904715909,338.74615384615385L138.28227679829544,340.2L138.524285546875,344.8523076923077L138.7992067940341,336.42L138.80753032244317,338.4553846153846L139.01875785653408,339.3276923076923L139.25013898579545,326.82461538461536L139.5038625965909,341.36307692307696L139.56101845170457,332.9307692307692L139.56452499005684,341.65384615384613L139.5684059431818,335.5476923076923L139.80771458522727,345.43384615384616L140.46648297727273,337.29230769230765L140.9956462556818,338.1646153846154L141.00694350142047,329.7323076923077L141.18459611079547,338.1646153846154L141.43462597585227,336.42L141.6640630284091,334.9661538461539L141.757673921875,345.7246153846154L141.78122605113637,344.5615384615385L142.21274627698864,335.8384615384615L142.30946769318183,338.1646153846154L142.43362939204545,327.11538461538464L142.63956471732956,330.6046153846154L142.9092153565341,335.5476923076923L143.29153604119318,337.29230769230765L143.41265201988637,338.74615384615385L143.4363913565341,345.14307692307693L143.80163296732954,338.4553846153846L143.80765240482955,337.87384615384616L144.1294835028409,321.88153846153847L144.53804202272727,338.74615384615385L144.60861200710227,341.36307692307696L144.69255291903409,328.2784615384615L145.07593924573862,335.2569230769231L145.22479071875,340.2L145.2423810127841,325.9523076923077L145.2772951903409,338.1646153846154L145.722978375,338.4553846153846L145.78842175710227,336.42L145.96943689914772,329.15076923076924L146.02026370454544,339.0369230769231L146.20832072443181,334.67538461538464L146.5263500724432,345.43384615384616L146.54317713636362,332.34923076923076L146.85442381676137,335.8384615384615L146.8624953352273,328.86L147.103251234375,335.2569230769231L147.23191311079546,331.4769230769231L147.69627383238634,330.0230769230769L148.1035723025568,334.38461538461536L148.1736670681818,345.7246153846154L148.231420546875,334.67538461538464L148.502136828125,335.8384615384615L148.94142616051136,335.2569230769231L149.08612306960228,331.7676923076923L149.6244667102273,333.22153846153844L149.6995080710227,332.9307692307692L149.89091322301138,335.8384615384615L150.28931934232955,340.4907692307692L150.37945969886366,337.0015384615385L150.39760441477273,324.4984615384615L150.59479859517046,326.2430769230769L150.63504818323864,330.31384615384616L150.82576930823865,343.3984615384615L150.9395409971591,337.29230769230765L151.234803046875,326.82461538461536L151.32199128693182,345.43384615384616L151.87060973295456,334.09384615384613L151.9229917997159,331.7676923076923L152.24706938636362,336.42L152.31501846732954,332.05846153846153L152.35218633380683,342.8169230769231L152.42346194602274,334.67538461538464L152.73863998153408,309.3784615384615L152.85771107954545,333.51230769230773L152.88652661647725,337.58307692307693L153.20565040767045,327.40615384615387L153.95303989630682,325.3707692307692L154.20181691193181,334.9661538461539L154.33485656107953,345.43384615384616L154.5847856221591,334.9661538461539L154.7790564872159,330.8953846153846L154.79537233096593,336.42L154.85191616193183,333.22153846153844L155.02646544886363,333.51230769230773L155.60141533380684,323.0446153846154L155.63753915909092,335.5476923076923L155.72409377414772,329.7323076923077L156.22398069744318,329.7323076923077L156.3624781619318,300.3646153846154L156.48918156107953,330.0230769230769L156.99355426136367,331.4769230769231L157.03712318039774,319.55538461538464L157.25542139346592,337.0015384615385L157.79424025284092,337.58307692307693L158.1933447997159,315.4846153846154L158.3793065369318,305.59846153846155L158.50220818607954,327.98769230769227L158.64186489630683,330.0230769230769L158.74731305681817,330.31384615384616L158.99242512784093,335.2569230769231L159.05005620170454,320.4276923076923L159.06706327272727,331.7676923076923L159.14352308948864,337.29230769230765L159.3187420028409,330.6046153846154L160.32853144460228,330.31384615384616L160.3659657215909,325.9523076923077L160.73889723579543,334.9661538461539L160.89668426136365,333.22153846153844L160.96885270880682,330.0230769230769L161.1894262116477,301.5276923076923L161.62060082386364,334.9661538461539L161.82177676136365,314.32153846153847L162.2093536534091,325.6615384615385L162.4567482144886,306.18L162.7003194247159,339.61846153846153L163.45050982386365,334.38461538461536L163.69767397585227,298.03846153846155L163.73627469886364,324.20769230769235L164.24263467755682,318.1015384615385L164.56717308238638,334.67538461538464L164.76464807386364,284.6630769230769L164.7921531590909,332.64L164.83964623295452,335.5476923076923L165.43134397869318,322.75384615384615L165.44940229119317,319.55538461538464L165.6530119247159,332.34923076923076L165.70873492329545,337.29230769230765L166.06173605113634,340.2L166.28791137500002,318.39230769230767L166.51948691193184,319.84615384615387L166.90972790909092,345.43384615384616L167.72219356534092,316.06615384615384L168.13425142329544,305.01692307692304L168.29074959801136,324.20769230769235L168.3177362627841,309.0876923076923L168.47188714488638,320.71846153846155L168.52539965625002,330.0230769230769L168.96693547727273,280.01076923076926L169.00881952982954,307.63384615384615L169.45367468181817,280.88307692307694L170.70463043892045,326.5338461538461L170.74381438494316,334.9661538461539L170.92794004971591,313.4492307692308L171.77585270454546,316.9384615384615L172.46739678977272,302.98153846153843L173.83967013352273,328.86L173.8866663877841,324.20769230769235L174.2581002428977,308.79692307692306L174.55470874573865,327.40615384615387L175.13176111363634,322.4630769230769L175.18602965482955,324.4984615384615L175.28227585227273,324.4984615384615L175.71748982386364,320.71846153846155L175.94990059375002,327.11538461538464L176.1466627571023,295.7123076923077L176.29467899715908,328.5692307692308L177.37600326136365,328.86L177.86796267187498,326.2430769230769L179.03120456818183,337.58307692307693L179.2365782713068,323.91692307692307L179.89489304545458,323.0446153846154L180.77516377698865,322.4630769230769L180.8489450880682,320.71846153846155L181.76570685937503,286.11692307692306L181.79584724857955,297.7476923076923L181.9734854573864,316.9384615384615L182.49969661931817,320.13692307692304L182.585934421875,308.79692307692306L182.90596544886364,329.44153846153847L183.60301775142045,325.6615384615385L183.76275605397726,315.19384615384615L183.87940065625,315.19384615384615L184.01408197017045,330.8953846153846L184.16459670880678,332.9307692307692L184.56779821732957,318.9738461538462L185.1396159786932,321.0092307692308L185.151482046875,307.3430769230769L185.35658213920453,330.8953846153846L185.70620633380682,320.4276923076923L185.89592661931817,327.98769230769227L185.9756769659091,326.5338461538461L186.3823850127841,318.6830769230769L186.40610994886362,321.3L186.67132521306817,334.38461538461536L186.6999103409091,327.40615384615387L186.86813057812498,324.78923076923076L186.92645287926135,314.0307692307692L186.9414222698864,325.6615384615385L187.2538425965909,255.0046153846154L187.32725669318185,345.14307692307693L187.44869668465913,321.3L187.48692299289772,327.11538461538464L187.97247415056822,334.9661538461539L188.11040279261363,329.7323076923077L188.20262403125,327.98769230769227L188.73975802414773,315.7753846153846L188.75357536931818,320.71846153846155L188.75487142045455,345.43384615384616L189.2170504559659,316.06615384615384L190.63497360085228,326.5338461538461L191.16075274573865,335.5476923076923L191.31658849431815,322.4630769230769L191.62105970738637,322.75384615384615L191.69298334517046,321.0092307692308L191.85488893323864,298.3292307692308L192.00997585227273,323.3353846153846L192.30889564630684,290.7692307692307L192.76483923579542,327.40615384615387L192.9725386306818,318.1015384615385L193.11690432670457,313.4492307692308L193.72844605539774,326.82461538461536L194.74673903267046,341.36307692307696L195.66763376704546,284.6630769230769L195.7208150653409,324.20769230769235L196.07983563068183,309.66923076923075L196.36097072301135,314.32153846153847L197.18767854119318,311.99538461538464L197.435649125,338.4553846153846L197.47363062357954,314.6123076923077L197.60634625994317,317.22923076923075L197.9238499872159,318.6830769230769L198.44099599147725,322.1723076923077L198.47331086647725,310.83230769230767L198.59833659943183,313.74L199.52554598295453,316.35692307692307L200.05780538352275,322.1723076923077L200.9684181122159,314.6123076923077L202.0033005440341,328.86L202.23662574999997,317.8107692307692L202.82627141477272,313.74L203.2872624034091,284.95384615384614L203.92337150142046,328.86L204.0961639190341,319.55538461538464L204.52175111079546,335.8384615384615L205.38285468607955,312.2861538461538L205.57155973153408,302.98153846153843L205.84292403835227,320.13692307692304L206.08902974857955,296.00307692307695L206.2242078821023,306.47076923076924L206.35798196022728,331.4769230769231L206.40451739630683,329.7323076923077L206.5873254090909,315.19384615384615L206.97736479829544,320.4276923076923L207.39183475142048,311.4138461538462L207.78787197727272,326.2430769230769L208.91258515340908,300.6553846153846L209.42118442045452,307.9246153846154L209.45306727840904,316.6476923076923L209.65443042329545,314.9030769230769L210.13323491477274,307.0523076923077L210.50606562500002,308.2153846153846L211.03801541335227,309.96000000000004L211.56193688494318,329.7323076923077L211.77869423721592,324.4984615384615L212.37204804829545,312.57692307692304L212.41386729829546,313.4492307692308L213.1171406463068,294.84000000000003L213.41589483380682,297.4569230769231L213.77751470170452,279.71999999999997L214.19507357670457,328.5692307692308L214.59190283380684,302.98153846153843L215.58714050142046,326.82461538461536L215.80684997017045,315.4846153846154L216.62833758238634,311.99538461538464L218.0208725255682,302.40000000000003L218.7856579005682,315.4846153846154L218.85737993039774,313.15846153846155L218.9253938139205,303.5630769230769L219.09895666193177,299.20153846153846L219.23539484517045,277.1030769230769L219.28918816761364,300.9461538461539L219.96955741193182,312.2861538461538L220.48090718750004,302.98153846153843L221.04922561079547,305.8892307692308L221.48500840482956,315.4846153846154L221.75375900852274,305.8892307692308L221.78724752982956,320.13692307692304L222.8029268039773,322.1723076923077L222.87852258664773,293.9676923076923L223.1993456448864,303.8538461538462L223.30291453125,325.08L223.36008478693182,306.76153846153846L223.42801946732956,303.27230769230766L224.32971824431817,315.4846153846154L224.3361048963068,327.11538461538464L224.404867609375,307.63384615384615L224.4466724588068,326.2430769230769L224.62478588636364,311.1230769230769L225.30347026420452,314.9030769230769L225.5435133352273,287.5707692307692L225.97452234090912,284.6630769230769L227.2184722215909,255.0046153846154L227.98825459375,321.3L228.57396170312498,315.19384615384615L229.1236241903409,314.0307692307692L229.3514267784091,294.2584615384615L230.184794859375,304.43538461538463L230.94411521875,305.3076923076923L231.2103889247159,306.18L232.74218456250003,318.6830769230769L232.7658374957386,298.03846153846155L233.18264034090907,295.42153846153843L233.6113452556818,296.8753846153846L234.41699224289775,324.78923076923076L236.33768962500002,312.2861538461538L236.6386398991477,288.7338461538462L236.7259793451705,311.1230769230769L237.3608643948864,303.27230769230766L237.39193362073863,321.88153846153847L239.24617238068183,289.8969230769231L239.41488223721592,306.47076923076924L240.6097549815341,318.9738461538462L240.81919684517047,314.0307692307692L242.61251400142046,305.59846153846155L243.5795409559659,305.59846153846155L243.86874036647728,287.28000000000003L244.11997267897723,279.13846153846157L244.71008636221595,312.57692307692304L245.26353619886365,270.7061538461538L246.16614221164775,316.9384615384615L247.25782048437497,317.52L247.3114121988636,306.18L248.31279170880686,227.96307692307693L248.83484110653404,308.2153846153846L249.53961931392047,311.99538461538464L250.43739393607953,293.0953846153846L250.45774913920454,277.6846153846154L250.96297867329548,284.08153846153846L251.187325125,270.9969230769231L251.76959769886363,272.45076923076925L254.14428019318183,259.6569230769231L254.61628041619318,314.0307692307692L255.07299443607957,314.6123076923077L256.13014014630687,311.7046153846154L256.84535156534093,308.2153846153846L257.3688698210227,281.75538461538457L257.689980890625,285.2446153846154L257.72289338920456,286.4076923076923L258.0784002159091,326.5338461538461L258.09689774573866,284.3723076923077L258.1079501818182,310.83230769230767L258.2123543011363,186.96461538461537L258.5612440667614,283.20923076923077L259.257093921875,279.71999999999997L259.80683561221593,302.98153846153843L260.5703465369318,309.66923076923075L260.6842406306818,301.5276923076923L262.07626435369315,296.5846153846154L262.28038520738636,312.57692307692304L262.7123446505682,309.3784615384615L262.79940328551135,318.39230769230767L263.1466153849432,317.52L264.56342248579546,323.0446153846154L265.73570073863635,287.86153846153843L268.05586988210223,309.96000000000004L268.42316357386363,293.0953846153846L268.46509082812497,300.6553846153846L268.5960279943182,307.0523076923077L269.1363085113636,334.9661538461539L269.78305242897727,268.96153846153845L269.9714046605113,303.5630769230769L271.0621036946023,299.4923076923077L273.2904188139205,307.0523076923077L274.1895902911932,304.72615384615386L276.31394770880684,319.84615384615387L276.32424411505684,313.15846153846155L278.598180234375,315.19384615384615L280.73668621022733,294.84000000000003L280.8654416903409,293.0953846153846L282.8552545994318,280.3015384615384L283.7584438352273,293.3861538461539L284.89893283380684,286.6984615384616L285.24096072869315,262.56461538461537L285.6257799119318,284.95384615384614L286.00720776136365,311.4138461538462L286.3902484744318,264.30923076923074L287.6097821917613,262.27384615384614L288.4871440085227,299.20153846153846L289.5797655184659,306.18L290.28645180113637,316.35692307692307L290.7223714005682,302.10923076923075L293.5303237897727,321.3L293.72172894176134,325.3707692307692L293.76081208380685,297.7476923076923L294.0954524872159,288.1523076923077L294.21765570880683,290.47846153846154L295.0612481931818,284.08153846153846L295.3404176079545,284.3723076923077L296.0604604176136,282.3369230769231L296.3239332130682,284.95384615384614L296.50129781107955,290.1876923076923L297.5154362244318,297.16615384615386L297.696588171875,304.43538461538463L297.833767984375,247.73538461538465L298.87251696875,295.42153846153843L299.2703686661932,310.25076923076927L299.703991375,283.5L300.99382866619317,301.23692307692306L301.34377687357954,305.01692307692304L301.99182404261364,261.40153846153845L302.2514662869319,288.7338461538462L302.3522846647727,317.8107692307692L303.0656456107954,285.82615384615383L303.40894075568184,268.08923076923077L303.5003339616477,282.91846153846154L303.5547825099432,288.44307692307694L305.058201828125,266.92615384615385L305.0692038622159,311.4138461538462L305.1033908110795,311.1230769230769L305.8946156292614,302.10923076923075L306.4154985809659,307.9246153846154L306.9152991008523,291.64153846153846L306.95382782102274,320.13692307692304L307.0331533508523,306.18L307.9917919744318,243.95538461538465L308.2733878849432,229.9984615384615L308.43082209659093,323.62615384615384L309.2654358267045,302.10923076923075L310.2714955213068,230.8707692307692L311.07555844602274,312.57692307692304L311.83580764204544,307.3430769230769L312.0851462798296,247.4446153846154L312.10516306960227,278.2661538461538L312.4841644232955,297.4569230769231L312.5754640255682,295.42153846153843L312.77545911647724,237.26769230769233L314.61006990198865,307.3430769230769L314.9356091463068,310.25076923076927L316.13501806960227,276.8123076923077L316.18081907670455,276.52153846153846L316.2002526434659,281.17384615384617L317.03082701420453,259.9476923076923L317.4323076548296,294.84000000000003L318.39559766193184,284.95384615384614L319.6984026647727,261.98307692307696L320.5127475951705,245.99076923076922L320.6970604673296,304.72615384615386L321.3568729005682,270.7061538461538L321.6521133494318,232.03384615384616L323.01143338210227,286.6984615384616L324.11728181392044,251.2246153846154L324.5240474630682,243.37384615384616L326.2654793721591,272.15999999999997L326.3218719971591,284.6630769230769L326.40929784659096,299.4923076923077L327.81345404829545,267.2169230769231L328.20242059517045,290.7692307692307L329.7016781491477,293.9676923076923L330.48718594176137,300.3646153846154L333.51126925852276,300.3646153846154L334.31986116193184,262.8553846153846L334.33527697017047,295.7123076923077L335.8067702286932,279.13846153846157L335.93061511505675,308.2153846153846L336.4766270582386,309.96000000000004L337.00193818465914,219.82153846153847L337.12738153409094,282.6276923076923L338.5524905625,182.3123076923077L340.1012212684659,273.0323076923077L340.71206456960226,249.47999999999996L340.8524629090909,280.5923076923077L345.3621232400568,303.5630769230769L345.7997421065341,253.55076923076925L346.1272542286932,270.1246153846154L346.64573948579545,295.42153846153843L346.74050242471594,302.69076923076926L347.05148269460227,281.17384615384617L347.25656838636365,236.68615384615384L347.5691831207386,282.04615384615386L348.0521277755682,316.06615384615384L349.4949639034091,277.1030769230769L349.5679099815341,245.11846153846153L350.4685863181818,293.9676923076923L351.13275492329547,285.5353846153846L351.9221220681818,293.0953846153846L353.73517520312504,272.15999999999997L356.10656716761366,291.35076923076923L356.23698591335227,313.4492307692308L356.44833585227275,291.35076923076923L357.44040539488634,296.5846153846154L357.7036909829546,218.07692307692307L359.6792833309659,242.79230769230767L359.7263947897727,279.71999999999997L363.44118695880684,245.99076923076922L363.533235390625,259.36615384615385L363.5743994147727,208.77230769230772L364.6945836122159,242.79230769230767L364.92520151136364,248.31692307692308L365.00249656107957,288.1523076923077L365.13715627414774,213.13384615384618L366.0177006164772,246.57230769230767L366.2025463096591,322.1723076923077L366.83202394602273,300.6553846153846L367.78793366193185,319.55538461538464L368.2514015482954,290.47846153846154L369.3324738025569,289.3153846153846L369.8285661761364,311.4138461538462L370.27249249147724,214.87846153846155L370.56514083806815,300.3646153846154L371.30990222301136,233.19692307692307L374.0598131221591,302.69076923076926L375.1860887599431,262.8553846153846L377.1124815667614,293.67692307692306L377.3506021619319,301.23692307692306L377.7715955724432,236.39538461538464L378.86450509375,304.72615384615386L379.0572638991477,304.1446153846154L379.89709783522727,294.84000000000003L380.3103653409091,281.75538461538457L380.6015304289773,139.27846153846156L383.05444400994315,249.1892307692308L386.29866161221594,290.1876923076923L387.0529489730113,296.8753846153846L387.8152070482955,257.03999999999996L388.74814065767043,297.4569230769231L389.7092777798295,263.7276923076923L390.97467010653406,270.4153846153846L391.00333443750003,288.44307692307694L391.1632599474432,290.1876923076923L391.78596211647726,262.27384615384614L392.4052801519887,230.8707692307692L394.3716489360795,288.44307692307694L398.05311099005684,269.2523076923077L400.30726792897724,239.88461538461536L401.71898442897725,267.2169230769231L402.65845589630686,253.84153846153845L403.19081610085226,258.20307692307694L403.3824012599432,307.3430769230769L406.89268375994317,246.86307692307693L407.66819035795453,284.6630769230769L408.28562191903404,252.9692307692308L409.11869478835223,161.08615384615382L410.97972341619317,289.60615384615386L411.8442039247159,318.1015384615385L412.94927472585226,345.43384615384616L413.9738967528409,291.9323076923077L414.44646579829543,85.48615384615384L414.83306345170456,248.02615384615382L415.05518501562506,298.62L416.399262046875,344.8523076923077L417.7202549673296,279.71999999999997L420.2847585511364,308.79692307692306L420.64161903124995,296.2938461538462L423.10630507670453,317.8107692307692L425.6896014019887,253.55076923076925L428.0256759730114,124.15846153846154L429.17151478267044,275.0676923076923L430.34086251988634,171.55384615384617L431.4084486420454,148.00153846153844L432.9141216491478,243.6646153846154L435.5773339275568,302.10923076923075L435.9535487713068,293.3861538461539L436.5023976264205,334.9661538461539L436.70699369886364,297.16615384615386L437.14977516903406,298.62L439.2639297840909,192.78L439.3214240525568,159.34153846153845L439.7735226903409,164.57538461538462L443.70220649857947,216.62307692307692L444.02241033238636,257.9123076923077L447.3828693210227,279.4292307692308L449.9442479815341,242.5015384615385L452.05017987215905,242.21076923076922L457.4533234559659,204.12L460.4408797315341,216.91384615384618L460.4900072698864,253.25999999999996L461.92059571448857,205.86461538461538L461.93565870880684,295.7123076923077L462.96337685795453,292.51384615384615L463.0062617499999,257.6215384615385L466.31241619602275,220.1123076923077L471.606936294034,200.63076923076923L474.22044501136367,58.15384615384616L474.46477945170454,232.90615384615384L474.6829552599431,240.17538461538464L474.8447600440341,121.54153846153847L474.908669765625,138.40615384615384L477.14774930965905,213.13384615384618L478.4993650383522,295.1307692307692L480.4004704474432,249.1892307692308L484.2212723991477,226.21846153846155L484.47318873863634,58.15384615384616L485.79506009374995,100.3153846153846L488.66006753409096,288.1523076923077L488.91280470596587,219.5307692307692L489.94574306107955,268.08923076923077L490.17618815340904,301.23692307692306L490.30234433096587,302.69076923076926L490.7840649375,267.2169230769231L493.5909300838068,292.2230769230769L494.3746954076705,182.89384615384614L495.56215905965917,249.1892307692308L500.3482094957387,239.30307692307693L504.51671316619314,245.11846153846153L504.625135044034,100.02461538461537L505.4905371889204,285.5353846153846L506.0116937514204,139.56923076923078L515.3978328863635,244.53692307692307L516.4094295994319,58.15384615384616L518.7721668224432,58.15384615384616L521.0702454943182,255.58615384615382L523.9682158352272,58.15384615384616L524.7720483508523,58.15384615384616L530.0929646903409,215.46000000000004L531.8496035994318,235.23230769230767L533.934798671875,131.42769230769233L536.1471795625,297.16615384615386L546.5828465071023,296.5846153846154L550.7032738806818,239.01230769230767L551.8271950255681,156.14307692307693L552.7948412045455,208.48153846153846L553.4195810539773,284.95384615384614L553.877029502841,294.84000000000003L553.9704315880682,297.16615384615386L554.2632383409091,291.64153846153846L554.6274719119318,273.32307692307694L555.6657096761364,58.15384615384616L557.3530314502841,58.15384615384616L561.2093812045455,143.3492307692308L564.5376405227273,58.15384615384616L564.9561714360796,58.15384615384616L574.7449576576705,73.85538461538461L575.1786235681818,287.28000000000003L575.8398184559659,88.97538461538463L579.1525755624999,58.15384615384616L579.3117810440341,58.15384615384616L579.6526712940341,307.63384615384615L579.8157865298296,298.03846153846155L580.0003802130682,314.9030769230769L580.2045298678977,315.4846153846154L588.1387389161932,286.4076923076923L593.3254779616478,125.32153846153847L593.4097500866477,58.15384615384616L595.3672193196023,58.15384615384616L596.4575583394886,58.15384615384616L598.9522551690341,58.15384615384616L602.9578884133523,239.30307692307693L603.2299151463068,58.15384615384616L605.0117262485795,111.94615384615382L607.8433747727273,291.35076923076923L608.6695137684659,299.7830769230769L614.3781438053977,58.15384615384616L616.9915229176137,58.15384615384616L618.8615951022728,58.15384615384616L619.8247915056818,58.15384615384616L621.9890456974432,58.15384615384616L625.1810540397728,58.15384615384616L631.477716877841,58.15384615384616L633.3635576846591,58.15384615384616L633.78704959375,307.3430769230769L634.0180923096592,58.15384615384616L640.4401264943182,129.10153846153847L640.6801263636364,58.15384615384616L643.692264409091,58.15384615384616L650.4936023593749,282.91846153846154L651.2544419786932,212.8430769230769L652.0068644659091,259.0753846153846L654.5993987556818,284.3723076923077L658.7893448721591,58.15384615384616L668.4688235809659,148.00153846153844L669.2459286420454,300.3646153846154L676.3697601164772,58.15384615384616L677.1588824517045,58.15384615384616L689.6565091519886,58.15384615384616L691.205823080966,295.42153846153843L692.108825109375,250.35230769230768L693.5905211704545,307.63384615384615L694.5629483380682,58.15384615384616L699.9220837855114,311.99538461538464L702.393358090909,58.15384615384616L703.8405935923296,273.6138461538461L705.6674136704546,140.44153846153844L708.3577566193181,337.29230769230765L711.2231888764204,285.5353846153846L711.4708642485795,58.15384615384616L711.8895679687499,58.15384615384616L715.080417065341,58.15384615384616L715.7194278778409,58.15384615384616L719.4785593963068,58.15384615384616L720.1938644190341,58.15384615384616L727.5420495454545,58.15384615384616L728.2575993778408,58.15384615384616L729.8062868821023,314.32153846153847L730.2307148281251,300.07384615384615L732.3578515553977,165.73846153846154L735.5589682571024,58.15384615384616L737.7060353707386,285.5353846153846L739.2939572230113,58.15384615384616L741.3486734928978,58.15384615384616L741.9547718068183,58.15384615384616L742.9431548039772,214.58769230769232L743.180656174716,58.15384615384616L747.9319148380682,58.15384615384616L748.1689985923296,58.15384615384616L751.3037502755681,58.15384615384616L754.7092470411932,329.44153846153847L758.8614060667613,187.54615384615386L767.9121847698864,287.86153846153843L768.0529503238637,227.0907692307692L768.1320598451705,58.15384615384616L768.6531588053978,58.15384615384616L773.4039206491478,58.15384615384616L775.515735171875,58.15384615384616L776.4018813352272,58.15384615384616L777.4106051349431,58.15384615384616L777.9125441392046,58.15384615384616L786.0418016832386,58.15384615384616L786.3574765383523,58.15384615384616L788.4843540553977,58.15384615384616L788.6494493693183,58.15384615384616L792.3111538437499,259.0753846153846L793.1658779673296,58.15384615384616L798.4001820894887,58.15384615384616L799.2381295511364,58.15384615384616L800.5504029275568,58.15384615384616L801.1519434616478,58.15384615384616L801.4167771107954,91.30153846153848L803.4264124019887,58.15384615384616L813.5184961903409,58.15384615384616L816.1210172741478,58.15384615384616L820.0305771278408,58.15384615384616L820.5611228607954,58.15384615384616L824.73913090625,58.15384615384616L826.5002699928978,211.9707692307692L827.1531773536931,58.15384615384616L828.0886742642047,58.15384615384616L829.5112343920455,58.15384615384616L830.7963194957385,58.15384615384616L831.9655520284091,58.15384615384616L834.7419527727272,58.15384615384616L835.5296566519887,58.15384615384616L837.2231418693182,58.15384615384616L839.4224902457386,58.15384615384616L839.9664717088069,58.15384615384616L844.3737079985796,58.15384615384616L847.8532092840909,58.15384615384616L849.3295771349431,58.15384615384616L849.8740338167613,58.15384615384616L853.2252260397727,58.15384615384616L857.0504777670455,58.15384615384616L857.1871391590909,230.8707692307692L857.9266371363636,58.15384615384616L865.2376183948865,58.15384615384616L865.4708931988635,58.15384615384616L868.4686450767044,58.15384615384616L868.5464441463066,58.15384615384616L870.1419118963067,58.15384615384616L874.5383549602273,58.15384615384616L880.5956443536933,163.12153846153845L880.6736810326704,58.15384615384616L883.1659729673296,58.15384615384616L884.245144346591,58.15384615384616L885.6694973451704,297.7476923076923L886.3323842997161,58.15384615384616L887.0304662428978,58.15384615384616L889.5170987542614,58.15384615384616L893.0621082244319,58.15384615384616L897.3048468238637,58.15384615384616L899.6276656718749,58.15384615384616L901.1549971335228,58.15384615384616L906.6354141661932,323.62615384615384L917.9492493593749,58.15384615384616L921.5869984886363,58.15384615384616L924.3115643877841,58.15384615384616L928.8569813295455,58.15384615384616L933.8025972613635,139.27846153846156L933.9837492088068,58.15384615384616L938.5382025071023,58.15384615384616L939.920678653409,58.15384615384616L940.3849745724433,58.15384615384616L941.1482334872159,58.15384615384616L941.3038460269887,58.15384615384616L941.6862243139203,58.15384615384616L946.2404256022727,131.71846153846155L948.7709726463069,58.15384615384616L948.9254835426135,58.15384615384616L949.002735390625,58.15384615384616L955.2583350085227,58.15384615384616L955.3027607613635,308.2153846153846L956.8025655369319,302.98153846153843L967.9069516661932,58.15384615384616L968.4497882840909,58.15384615384616L973.210551322443,169.2276923076923L973.5975377911932,58.15384615384616L976.7106886221592,157.0153846153846L981.3085668338067,58.15384615384616L982.4904430653409,58.15384615384616L986.8538728267044,58.15384615384616L988.3212907244318,58.15384615384616L991.0851197727272,58.15384615384616L991.3379505482953,58.15384615384616L995.8251171917614,58.15384615384616L999.6511969517046,58.15384615384616L1000.8152524801135,58.15384615384616L1001.919696856534,58.15384615384616L1003.1571160795453,58.15384615384616L1004.1619805269887,58.15384615384616L1006.8482625156248,58.15384615384616L1007.8991799801137,58.15384615384616L1008.0750613196024,286.9892307692308L1023.0567356292614,58.15384615384616L1027.3671857002842,58.15384615384616L1029.1911184644887,58.15384615384616L1030.62385259375,58.15384615384616L1036.6952041420454,58.15384615384616L1039.4364170980114,58.15384615384616L1039.7170193693182,178.8230769230769L1040.432201987216,58.15384615384616L1040.8500416732954,58.15384615384616L1042.5948361150568,58.15384615384616L1046.8208484545453,58.15384615384616L1049.992191981534,58.15384615384616L1057.1648845838067,58.15384615384616L1061.6472558380683,58.15384615384616L1065.5349772301138,312.57692307692304L1067.4900199673295,58.15384615384616L1070.1174900355113,58.15384615384616L1075.0065621363635,58.15384615384616L1075.3249658991476,292.51384615384615L1075.6408351619318,58.15384615384616L1078.8178597130684,58.15384615384616L1083.1492482102271,58.15384615384616L1084.8757179289773,58.15384615384616L1089.958333666193,58.15384615384616L1096.0905564161933,58.15384615384616L1098.6822914744318,58.15384615384616L1102.2948828110796,58.15384615384616L1103.7284305724434,58.15384615384616L1106.5451313068183,58.15384615384616L1111.5694175426136,58.15384615384616L1115.4174869701706,58.15384615384616L1116.8764517343748,58.15384615384616L1125.2310997713068,58.15384615384616L1132.5952119261362,58.15384615384616L1136.5247957698864,284.6630769230769L1137.3593446974432,306.76153846153846L1141.7054721761365,289.3153846153846L1143.6309793480114,285.82615384615383L1148.1033566079545,58.15384615384616L1149.240252664773,58.15384615384616L1149.9262309303977,163.7030769230769L1152.0196271264203,177.36923076923077L1157.0924504772727,58.15384615384616L1161.5478350667613,160.21384615384616L1161.5901295355113,189.58153846153843L1161.9672948167613,289.60615384615386L1163.6566110696024,58.15384615384616L1165.2059682002841,58.15384615384616L1168.5310809943182,58.15384615384616L1168.9211635852273,58.15384615384616L1174.2118171306818,58.15384615384616L1184.3715115866476,58.15384615384616L1185.714350169034,58.15384615384616L1185.7948277443181,58.15384615384616L1185.9828127613637,58.15384615384616L1195.3197523551137,58.15384615384616L1201.7738998068182,58.15384615384616L1203.2729989545455,198.01384615384615L1205.7904630823864,79.96153846153847L1206.5696634261362,117.47076923076924L1224.7405235667613,58.15384615384616L1227.800730708807,58.15384615384616L1230.9538143153409,58.15384615384616L1235.7402895681817,209.64461538461538L1237.7467279332386,58.15384615384616L1240.6230110184658,313.74L1246.8020788167614,58.15384615384616L1247.4225776988635,58.15384615384616L1249.0371694034088,58.15384615384616L1249.3283632926136,58.15384615384616L1250.5757405085228,58.15384615384616L1253.9222741477274,270.9969230769231L1256.4299458892046,58.15384615384616L1260.1633219914772,58.15384615384616L1267.2277439218751,148.87384615384616L1268.2302466761364,58.15384615384616L1273.3059285397728,58.15384615384616L1279.143918880682,58.15384615384616L1285.5807424488635,58.15384615384616L1286.515454528409,58.15384615384616L1288.9994373352272,58.15384615384616L1291.0585529786931,58.15384615384616L1297.3796103792613,58.15384615384616L1298.155620997159,58.15384615384616L1298.621407375,58.15384615384616L1298.933158075284,58.15384615384616L1300.248801184659,207.02769230769232L1301.0372178920454,58.15384615384616L1301.1922112073862,58.15384615384616L1302.0476265582386,312.2861538461538L1302.5125993039774,58.15384615384616L1307.9756492514205,124.73999999999998L1317.5957544176138,58.15384615384616L1322.0129559005682,58.15384615384616L1322.5795534559659,58.15384615384616L1328.3828744289772,58.15384615384616L1329.6289411931818,58.15384615384616L1330.4577946960228,108.16615384615386L1331.8078839644886,58.15384615384616L1337.2795454517047,58.15384615384616L1338.810505856534,58.15384615384616L1338.8146388196024,333.51230769230773L1341.2750838977274,58.15384615384616L1346.2022887031249,209.9353846153846L1347.448305065341,58.15384615384616L1352.551117599432,58.15384615384616L1356.348597830966,77.92615384615384L1357.596759877841,58.15384615384616L1359.7944737897726,58.15384615384616L1361.7827386377842,58.15384615384616L1363.2727654275568,58.15384615384616L1363.7533339886363,58.15384615384616L1366.0016802982955,58.15384615384616" style="fill: none;" fill="none"></path></g></g></g></g></g></g><g transform="translate(72, 378)" clip-path="url(#clip_1)"><clipPath id="clip_1"><rect width="1425" height="22"></rect></clipPath><g><g><line x1="0" y1="0" x2="0" y2="5" style="visibility: inherit;" fill="rgb(0, 0, 0)" stroke="rgb(204, 204, 204)" stroke-width="1px"></line><line x1="129.60511363636363" y1="0" x2="129.60511363636363" y2="5" style="visibility: inherit;" fill="rgb(0, 0, 0)" stroke="rgb(204, 204, 204)" stroke-width="1px"></line><line x1="259.21022727272725" y1="0" x2="259.21022727272725" y2="5" style="visibility: inherit;" fill="rgb(0, 0, 0)" stroke="rgb(204, 204, 204)" stroke-width="1px"></line><line x1="388.8153409090909" y1="0" x2="388.8153409090909" y2="5" style="visibility: inherit;" fill="rgb(0, 0, 0)" stroke="rgb(204, 204, 204)" stroke-width="1px"></line><line x1="518.4204545454545" y1="0" x2="518.4204545454545" y2="5" style="visibility: inherit;" fill="rgb(0, 0, 0)" stroke="rgb(204, 204, 204)" stroke-width="1px"></line><line x1="648.0255681818181" y1="0" x2="648.0255681818181" y2="5" style="visibility: inherit;" fill="rgb(0, 0, 0)" stroke="rgb(204, 204, 204)" stroke-width="1px"></line><line x1="777.6306818181818" y1="0" x2="777.6306818181818" y2="5" style="visibility: inherit;" fill="rgb(0, 0, 0)" stroke="rgb(204, 204, 204)" stroke-width="1px"></line><line x1="907.2357954545455" y1="0" x2="907.2357954545455" y2="5" style="visibility: inherit;" fill="rgb(0, 0, 0)" stroke="rgb(204, 204, 204)" stroke-width="1px"></line><line x1="1036.840909090909" y1="0" x2="1036.840909090909" y2="5" style="visibility: inherit;" fill="rgb(0, 0, 0)" stroke="rgb(204, 204, 204)" stroke-width="1px"></line><line x1="1166.4460227272727" y1="0" x2="1166.4460227272727" y2="5" style="visibility: inherit;" fill="rgb(0, 0, 0)" stroke="rgb(204, 204, 204)" stroke-width="1px"></line><line x1="1296.0511363636363" y1="0" x2="1296.0511363636363" y2="5" style="visibility: inherit;" fill="rgb(0, 0, 0)" stroke="rgb(204, 204, 204)" stroke-width="1px"></line><line x1="1425.65625" y1="0" x2="1425.65625" y2="5" style="visibility: inherit;" fill="rgb(0, 0, 0)" stroke="rgb(204, 204, 204)" stroke-width="1px"></line></g><g transform="translate(0, 8)"><text x="0" y="0" dx="0em" dy="0.95em" style="text-anchor: middle; visibility: hidden; font-family: Roboto, sans-serif; font-size: 12px; font-weight: 200;" fill="rgb(50, 49, 63)" stroke="none" stroke-width="1px">-5</text><text x="129.60511363636363" y="0" dx="0em" dy="0.95em" style="text-anchor: middle; visibility: inherit; font-family: Roboto, sans-serif; font-size: 12px; font-weight: 200;" fill="rgb(50, 49, 63)" stroke="none" stroke-width="1px">0</text><text x="259.21022727272725" y="0" dx="0em" dy="0.95em" style="text-anchor: middle; visibility: inherit; font-family: Roboto, sans-serif; font-size: 12px; font-weight: 200;" fill="rgb(50, 49, 63)" stroke="none" stroke-width="1px">5</text><text x="388.8153409090909" y="0" dx="0em" dy="0.95em" style="text-anchor: middle; visibility: inherit; font-family: Roboto, sans-serif; font-size: 12px; font-weight: 200;" fill="rgb(50, 49, 63)" stroke="none" stroke-width="1px">10</text><text x="518.4204545454545" y="0" dx="0em" dy="0.95em" style="text-anchor: middle; visibility: inherit; font-family: Roboto, sans-serif; font-size: 12px; font-weight: 200;" fill="rgb(50, 49, 63)" stroke="none" stroke-width="1px">15</text><text x="648.0255681818181" y="0" dx="0em" dy="0.95em" style="text-anchor: middle; visibility: inherit; font-family: Roboto, sans-serif; font-size: 12px; font-weight: 200;" fill="rgb(50, 49, 63)" stroke="none" stroke-width="1px">20</text><text x="777.6306818181818" y="0" dx="0em" dy="0.95em" style="text-anchor: middle; visibility: inherit; font-family: Roboto, sans-serif; font-size: 12px; font-weight: 200;" fill="rgb(50, 49, 63)" stroke="none" stroke-width="1px">25</text><text x="907.2357954545455" y="0" dx="0em" dy="0.95em" style="text-anchor: middle; visibility: inherit; font-family: Roboto, sans-serif; font-size: 12px; font-weight: 200;" fill="rgb(50, 49, 63)" stroke="none" stroke-width="1px">30</text><text x="1036.840909090909" y="0" dx="0em" dy="0.95em" style="text-anchor: middle; visibility: inherit; font-family: Roboto, sans-serif; font-size: 12px; font-weight: 200;" fill="rgb(50, 49, 63)" stroke="none" stroke-width="1px">35</text><text x="1166.4460227272727" y="0" dx="0em" dy="0.95em" style="text-anchor: middle; visibility: inherit; font-family: Roboto, sans-serif; font-size: 12px; font-weight: 200;" fill="rgb(50, 49, 63)" stroke="none" stroke-width="1px">40</text><text x="1296.0511363636363" y="0" dx="0em" dy="0.95em" style="text-anchor: middle; visibility: inherit; font-family: Roboto, sans-serif; font-size: 12px; font-weight: 200;" fill="rgb(50, 49, 63)" stroke="none" stroke-width="1px">45</text><text x="1425.65625" y="0" dx="0em" dy="0.95em" style="text-anchor: middle; visibility: hidden; font-family: Roboto, sans-serif; font-size: 12px; font-weight: 200;" fill="rgb(50, 49, 63)" stroke="none" stroke-width="1px">50</text></g><line x1="0" y1="0" x2="1425.65625" y2="0" fill="rgb(0, 0, 0)" stroke="rgb(204, 204, 204)" stroke-width="1px"></line></g></g></g></g></svg>